<?xml version="1.0" encoding="UTF-8"?>
<svg width="23px" height="22px" viewBox="0 0 23 22" version="1.1" xmlns="http://www.w3.org/2000/svg" xmlns:xlink="http://www.w3.org/1999/xlink">
    <!-- Generator: Sketch 50.2 (55047) - http://www.bohemiancoding.com/sketch -->
    <title>cloud</title>
    <desc>Created with Sketch.</desc>
    <defs></defs>
    <g id="Story-Page" stroke="none" stroke-width="1" fill="none" fill-rule="evenodd">
        <g transform="translate(-953.000000, -1335.000000)" id="block_3">
            <g transform="translate(931.000000, 751.000000)">
                <g id="product-uses" transform="translate(22.000000, 510.000000)">
                    <g id="cloud" transform="translate(0.000000, 71.000000)">
                        <g transform="translate(1.000000, 4.000000)" id="Group-2">
                            <g>
                                <path d="M18.4692029,5.98473913 C18.2782609,2.65865217 15.5902174,0 12.3492754,0 C10.3818841,0 8.47681159,0.984152174 7.29637681,2.58991304 C7.2692029,2.5755 7.24021739,2.56552174 7.21268116,2.55184783 C7.14166667,2.51673913 7.06992754,2.48347826 6.99637681,2.45354348 C6.95362319,2.43617391 6.91014493,2.42065217 6.86666667,2.40513043 C6.79528986,2.37963043 6.72282609,2.35708696 6.64927536,2.33676087 C6.6057971,2.32493478 6.56268116,2.31273913 6.51884058,2.3023913 C6.43913043,2.28391304 6.35797101,2.26986957 6.27608696,2.25767391 C6.23804348,2.25176087 6.20036232,2.24436957 6.16195652,2.23993478 C6.04202899,2.2258913 5.92065217,2.2173913 5.79710145,2.2173913 C3.99927536,2.2173913 2.53623188,3.70932609 2.53623188,5.54347826 C2.53623188,5.59115217 2.53913043,5.63771739 2.54202899,5.68428261 C1.03514493,6.52208696 0,8.2778913 0,10.0351739 C0,12.6528043 2.08768116,14.7826087 4.65398551,14.7826087 L6.52173913,14.7826087 C6.72173913,14.7826087 6.88405797,14.617413 6.88405797,14.4130435 C6.88405797,14.2086739 6.72173913,14.0434783 6.52173913,14.0434783 L4.65398551,14.0434783 C2.48731884,14.0434783 0.724637681,12.2455435 0.724637681,10.0351739 C0.724637681,8.5 1.70471014,6.90643478 3.05507246,6.24602174 L3.26086957,6.14586957 L3.26086957,5.91304348 C3.26086957,5.86758696 3.26376812,5.82102174 3.26630435,5.77445652 L3.26956522,5.71052174 L3.26521739,5.63586957 C3.26304348,5.60519565 3.26086957,5.57452174 3.26086957,5.54347826 C3.26086957,4.11732609 4.39855072,2.95652174 5.79710145,2.95652174 C5.90905797,2.95652174 6.01956522,2.9665 6.12934783,2.98128261 C6.1576087,2.98497826 6.18586957,2.98978261 6.21413043,2.99458696 C6.31086957,3.01084783 6.40615942,3.03228261 6.5,3.05963043 C6.51268116,3.06332609 6.52572464,3.06591304 6.5384058,3.0696087 C6.64166667,3.10176087 6.7423913,3.14278261 6.84094203,3.18823913 C6.86630435,3.20006522 6.89130435,3.21263043 6.91630435,3.22519565 C7.00362319,3.26917391 7.08913043,3.31758696 7.17173913,3.37228261 C7.86956522,3.83386957 8.33333333,4.63397826 8.33333333,5.54347826 C8.33333333,5.74784783 8.49565217,5.91304348 8.69565217,5.91304348 C8.89565217,5.91304348 9.05797101,5.74784783 9.05797101,5.54347826 C9.05797101,4.52569565 8.60652174,3.61471739 7.89855072,3.00419565 C8.93695652,1.61832609 10.6478261,0.739130435 12.3492754,0.739130435 C15.1550725,0.739130435 17.4862319,3.00641304 17.7289855,5.87128261 C17.3586957,5.84467391 16.8039855,5.831 16.2496377,5.91747826 C16.0518116,5.94815217 15.915942,6.13663043 15.9460145,6.33841304 C15.9731884,6.52134783 16.1275362,6.65254348 16.3036232,6.65254348 C16.3217391,6.65254348 16.3402174,6.65106522 16.3586957,6.6481087 C17.1644928,6.52393478 18.0047101,6.64034783 18.0557971,6.64736957 C19.7427536,6.97443478 21.0144928,8.5595 21.0144928,10.3374783 C21.0144928,12.3808043 19.3844203,14.0434783 17.3811594,14.0434783 L15.942029,14.0434783 C15.742029,14.0434783 15.5797101,14.2086739 15.5797101,14.4130435 C15.5797101,14.617413 15.742029,14.7826087 15.942029,14.7826087 L17.3811594,14.7826087 C19.784058,14.7826087 21.7391304,12.7884348 21.7391304,10.3374783 C21.7391304,8.30893478 20.3525362,6.48956522 18.4692029,5.98473913 Z" id="Shape" stroke="#3BA5D6" stroke-width="0.3" fill="#3BA5D6" fill-rule="nonzero"></path>
                                <path d="M14.1228203,11.5186361 C14.1981805,11.5928238 14.2971149,11.6301078 14.3960494,11.6301078 C14.4949838,11.6301078 14.5939183,11.5928238 14.6692785,11.5186361 C14.8203854,11.3698803 14.8203854,11.1294361 14.6692785,10.9806803 L11.5779634,7.93746359 C11.5424088,7.90208177 11.4995115,7.87430895 11.4519766,7.85490602 C11.3576797,7.8164806 11.251016,7.8164806 11.1567191,7.85490602 C11.1091842,7.87430895 11.0666733,7.90208177 11.0307322,7.93746359 L7.93941714,10.9806803 C7.78831023,11.1294361 7.78831023,11.3698803 7.93941714,11.5186361 C8.01477737,11.5928238 8.11371182,11.6301078 8.21264627,11.6301078 C8.31158072,11.6301078 8.41051517,11.5928238 8.48587539,11.5186361 L10.9178851,9.12446648 L10.9178851,18.7011449 L8.48587539,16.3069753 C8.33476848,16.1582195 8.09052406,16.1582195 7.93941714,16.3069753 C7.78831023,16.4557311 7.78831023,16.6961753 7.93941714,16.8449311 L11.0307322,19.8881478 C11.0662868,19.9235296 11.1091842,19.9513024 11.1567191,19.9707054 C11.2038675,19.9897279 11.2541077,20 11.3043478,20 C11.354588,20 11.4048281,19.9897279 11.4519766,19.9707054 C11.4995115,19.9513024 11.5420224,19.9235296 11.5779634,19.8881478 L14.6692785,16.8449311 C14.8203854,16.6961753 14.8203854,16.4557311 14.6692785,16.3069753 C14.5181716,16.1582195 14.2739272,16.1582195 14.1228203,16.3069753 L11.6908105,18.7011449 L11.6908105,9.12446648 L14.1228203,11.5186361 Z" id="Shape" stroke="#02AD90" stroke-width="0.3" fill="#02AB8F" fill-rule="nonzero"></path>
                            </g>
                        </g>
                    </g>
                </g>
            </g>
        </g>
    </g>
</svg>