<?xml version="1.0" encoding="UTF-8"?>
<svg width="37px" height="37px" viewBox="0 0 37 37" version="1.1" xmlns="http://www.w3.org/2000/svg" xmlns:xlink="http://www.w3.org/1999/xlink">
    <!-- Generator: Sketch 51.2 (57519) - http://www.bohemiancoding.com/sketch -->
    <title>icon_aws</title>
    <desc>Created with Sketch.</desc>
    <defs></defs>
    <g id="demo-page" stroke="none" stroke-width="1" fill="none" fill-rule="evenodd">
        <g id="Demo-page_1440" transform="translate(-169.000000, -416.000000)">
            <g id="block1">
                <g id="aws-cost" transform="translate(168.000000, 417.000000)">
                    <g id="icon_aws">
                        <circle id="Oval-2" stroke="#00A98D" stroke-width="1.3" fill="#FFFFFF" fill-rule="nonzero" cx="19.5" cy="17.5" r="17.5"></circle>
                        <rect id="Rectangle-5" fill-opacity="0" fill="#FFFFFF" fill-rule="nonzero" x="0" y="3" width="30" height="30"></rect>
                        <g id="icon" transform="translate(13.000000, 8.000000)">
                            <path d="M13.9693024,0 L0.377536771,0 C0.169025932,0 0,0.164093567 0,0.366432749 L0,18.688655 C0,18.8207018 0.0731856577,18.9424561 0.191519877,19.0075244 C0.309854097,19.0726706 0.455140883,19.0707602 0.571788056,19.002885 L1.67774479,18.3588175 C2.02050498,18.1592069 2.44884401,18.1810483 2.76952258,18.4144882 L3.54894205,18.9818713 C3.67173489,19.071345 3.83802942,19.0795712 3.96969933,19.002885 L5.07565606,18.3588175 C5.41841626,18.1592069 5.84675528,18.1810483 6.16743386,18.4144882 L6.94685333,18.9818713 C7.01369248,19.0305263 7.09342548,19.0551267 7.17343966,19.0551267 C7.24043948,19.0551267 7.30764014,19.0378558 7.36765078,19.002885 L9.2553748,17.9035478 C9.4341615,17.7994152 9.49212357,17.574308 9.38487566,17.4008577 C9.27758757,17.2273684 9.0456991,17.1710331 8.86683206,17.2751657 L7.1968173,18.2477193 L5.88967807,17.5470644 C5.76684506,17.4575907 5.6004702,17.4492866 5.46888062,17.5260508 L3.79886585,18.2477193 L2.49172662,17.5260508 C2.36885345,17.4365771 2.20255892,17.428273 2.07092917,17.5050371 L0.754993207,18.0415205 L0.754993207,0.732904483 L13.5917254,0.732904483 L13.5917254,12.0926706 C13.5917254,12.2950487 13.7607915,12.4591033 13.9692622,12.4591033 C14.1777731,12.4591033 14.346799,12.2950097 14.346799,12.0926706 L14.346799,0.366432749 C14.3468392,0.164093567 14.1777731,0 13.9693024,0 Z" id="Shape" stroke="#3BA5D6" stroke-width="0.2" fill="#3BA5D6" fill-rule="nonzero"></path>
                            <path d="M11.7940695,3 L2.43814283,3 C2.22963199,3 2.06060606,3.16409357 2.06060606,3.36643275 C2.06060606,3.56881092 2.22967216,3.7328655 2.43814283,3.7328655 L11.7940695,3.7328655 C12.0025803,3.7328655 12.1716063,3.56881092 12.1716063,3.36643275 C12.1716063,3.16405458 12.0025803,3 11.7940695,3 Z" id="Shape" fill="#3BA5D6" fill-rule="nonzero"></path>
                            <path d="M11.7940695,5 L2.43814283,5 C2.22963199,5 2.06060606,5.16409357 2.06060606,5.36643275 C2.06060606,5.56881092 2.22967216,5.7328655 2.43814283,5.7328655 L11.7940695,5.7328655 C12.0025803,5.7328655 12.1716063,5.56881092 12.1716063,5.36643275 C12.1716063,5.16405458 12.0025803,5 11.7940695,5 Z" id="Shape-Copy" fill="#3BA5D6" fill-rule="nonzero"></path>
                            <path d="M11.7940695,7 L2.43814283,7 C2.22963199,7 2.06060606,7.16409357 2.06060606,7.36643275 C2.06060606,7.56881092 2.22967216,7.7328655 2.43814283,7.7328655 L11.7940695,7.7328655 C12.0025803,7.7328655 12.1716063,7.56881092 12.1716063,7.36643275 C12.1716063,7.16405458 12.0025803,7 11.7940695,7 Z" id="Shape-Copy-2" fill="#3BA5D6" fill-rule="nonzero"></path>
                            <path d="M11.7940695,9 L2.43814283,9 C2.22963199,9 2.06060606,9.16409357 2.06060606,9.36643275 C2.06060606,9.56881092 2.22967216,9.7328655 2.43814283,9.7328655 L11.7940695,9.7328655 C12.0025803,9.7328655 12.1716063,9.56881092 12.1716063,9.36643275 C12.1716063,9.16405458 12.0025803,9 11.7940695,9 Z" id="Shape-Copy-3" fill="#3BA5D6" fill-rule="nonzero"></path>
                            <path d="M6.73856939,11 L2.43814283,11 C2.22963199,11 2.06060606,11.1640936 2.06060606,11.3664327 C2.06060606,11.5688109 2.22967216,11.7328655 2.43814283,11.7328655 L6.73856939,11.7328655 C6.94708023,11.7328655 7.11610616,11.5688109 7.11610616,11.3664327 C7.11610616,11.1640546 6.94708023,11 6.73856939,11 Z" id="Shape-Copy-4" fill="#3BA5D6" fill-rule="nonzero"></path>
                            <path d="M13.9608216,18 C13.6504359,18 13.3756193,17.955556 13.1363636,17.8666667 C12.897108,17.7777773 12.6653999,17.6388898 12.4412324,17.45 C12.3895015,17.4129628 12.3636364,17.3685188 12.3636364,17.3166667 C12.3636364,17.272222 12.3841129,17.2314817 12.4250666,17.1944444 C12.4660202,17.1574072 12.5123619,17.1388889 12.5640928,17.1388889 C12.6158238,17.1388889 12.6632431,17.1574072 12.7063522,17.1944444 C13.0426034,17.5129646 13.4629111,17.6722222 13.9672879,17.6722222 C14.2776737,17.6722222 14.5352469,17.6092599 14.7400152,17.4833333 C14.9447836,17.3574068 15.0471662,17.1925936 15.0471662,16.9888889 C15.0471662,16.8296288 14.9965138,16.6972227 14.8952073,16.5916667 C14.7939009,16.4861106 14.6613423,16.4000003 14.4975276,16.3333333 C14.3337129,16.2666663 14.1246367,16.1981485 13.8702929,16.1277778 C13.5943945,16.0574071 13.3626864,15.9796301 13.1751617,15.8944444 C12.9876369,15.8092588 12.8356795,15.6953711 12.7192849,15.5527778 C12.6028903,15.4101845 12.5446938,15.2296307 12.5446938,15.0111111 C12.5446938,14.8148138 12.6061234,14.6407415 12.7289844,14.4888889 C12.8518454,14.3370363 13.0242794,14.217593 13.2462914,14.1305556 C13.4683034,14.0435181 13.7237211,14 14.0125523,14 C14.275518,14 14.522314,14.0379626 14.7529479,14.1138889 C14.9835817,14.1898152 15.1678705,14.2981474 15.3058197,14.4388889 C15.3704834,14.5018522 15.4028148,14.5555553 15.4028148,14.6 C15.4028148,14.6407409 15.3812605,14.6787035 15.3381514,14.7138889 C15.2950423,14.7490742 15.2476229,14.7666667 15.195892,14.7666667 C15.1527828,14.7666667 15.1161406,14.7537038 15.0859642,14.7277778 C14.9695696,14.6092587 14.8143791,14.5129633 14.620388,14.4388889 C14.4263969,14.3648144 14.223787,14.3277778 14.0125523,14.3277778 C13.6978557,14.3277778 13.4413602,14.3879624 13.2430582,14.5083333 C13.0447562,14.6287043 12.9456067,14.7925916 12.9456067,15 C12.9456067,15.2148159 13.0404454,15.3796291 13.2301255,15.4944444 C13.4198057,15.6092598 13.6913891,15.7148143 14.044884,15.8111111 C14.3509588,15.8888893 14.600988,15.9685181 14.7949791,16.05 C14.9889702,16.1314819 15.1473938,16.2472215 15.2702548,16.3972222 C15.3931159,16.547223 15.4545455,16.7444432 15.4545455,16.9888889 C15.4545455,17.1777787 15.3909604,17.3490733 15.2637885,17.5027778 C15.1366166,17.6564822 14.9598718,17.7777773 14.7335489,17.8666667 C14.507226,17.955556 14.2496528,18 13.9608216,18 Z" id="S" stroke="#02AB8F" stroke-width="0.3" fill="#02AB8F"></path>
                            <path d="M9.27272727,18 C9.48163294,18 10.1685016,18.3136099 11.3333333,18.9408296" id="Line-3" stroke="#3BA5D6" stroke-width="0.8" stroke-linecap="round" stroke-linejoin="round"></path>
                            <path d="M14.0034951,13.7366696 L14.0034951,18.7366696" id="Line-4" stroke="#02AB8F" stroke-width="0.7" stroke-linecap="round" stroke-linejoin="round"></path>
                        </g>
                    </g>
                </g>
            </g>
        </g>
    </g>
</svg>