<?xml version="1.0" encoding="utf-8"?>
<!-- Generator: Adobe Illustrator 19.2.1, SVG Export Plug-In . SVG Version: 6.00 Build 0)  -->
<svg version="1.1" id="Layer_1" xmlns="http://www.w3.org/2000/svg" xmlns:xlink="http://www.w3.org/1999/xlink" x="0px" y="0px"
	 width="480px" height="340px" viewBox="0 0 480 340" style="enable-background:new 0 0 480 340;" xml:space="preserve">
<style type="text/css">
	.st0{opacity:0.5;}
	.st1{fill:#EDF4F8;}
	.st2{fill:#F8FBFC;}
	.st3{fill:#A6C2D5;}
	.st4{fill:#275A7D;}
	.st5{fill:#FFFFFF;}
	.st6{fill:#F9FCFE;}
	.st7{fill:none;stroke:#E0E1E5;stroke-width:2;stroke-linecap:round;stroke-miterlimit:10;}
	
		.st8{opacity:0.5;fill:none;stroke:#74CAC8;stroke-width:2;stroke-linecap:round;stroke-linejoin:round;stroke-miterlimit:10;enable-background:new    ;}
	.st9{fill:none;stroke:#DEEBF0;stroke-width:0.5;stroke-miterlimit:10;}
	.st10{fill:#33CFB9;}
	.st11{fill:#B6EEE6;}
	.st12{fill:#B1E0F4;}
	.st13{fill:url(#SVGID_1_);}
	.st14{fill:url(#SVGID_2_);}
	.st15{fill:none;stroke:#F6F9FC;stroke-width:3;stroke-linecap:round;stroke-linejoin:round;stroke-miterlimit:10;}
	.st16{fill:url(#SVGID_3_);}
	.st17{fill:#BB917D;}
	.st18{fill:#8C6D5E;}
	.st19{fill:#1B75BB;}
	.st20{fill:#143B57;}
	.st21{fill:#007F6B;}
	.st22{fill:none;stroke:#1B75BB;stroke-width:0.7;stroke-linecap:round;stroke-linejoin:round;stroke-miterlimit:10;}
	.st23{fill:none;stroke:#143B57;stroke-miterlimit:10;}
	.st24{fill:url(#SVGID_4_);}
	.st25{fill:#00A98F;}
	.st26{fill:none;stroke:#1B75BB;stroke-width:0.7;stroke-miterlimit:10;}
	.st27{fill:none;stroke:#8C6D5E;stroke-width:0.4;stroke-linecap:round;stroke-linejoin:round;stroke-miterlimit:10;}
	.st28{fill:none;stroke:#143B57;stroke-width:0.7;stroke-linecap:round;stroke-linejoin:round;stroke-miterlimit:10;}
	.st29{opacity:0.5;fill:url(#SVGID_5_);enable-background:new    ;}
	.st30{fill:#00ADE9;}
	.st31{fill:#44A6D7;}
	.st32{fill:#56ADAF;}
	.st33{fill:#387EB5;}
	.st34{fill:#88C8C7;}
	.st35{fill:#96E3E2;}
	.st36{fill:#98E4FF;}
	.st37{fill:#E2F1F9;}
	.st38{fill:#3CA5D5;}
	.st39{fill:url(#SVGID_6_);}
	.st40{fill:#DBD9D9;}
	.st41{opacity:0.5;fill:url(#SVGID_7_);enable-background:new    ;}
	.st42{fill:#206797;}
	.st43{fill:url(#SVGID_8_);}
	.st44{fill:url(#SVGID_9_);}
	.st45{fill:url(#SVGID_10_);}
	.st46{fill:url(#SVGID_11_);}
	.st47{fill:url(#SVGID_12_);}
	.st48{fill:#74CAC8;}
	.st49{fill:url(#SVGID_13_);}
	.st50{fill:url(#SVGID_14_);}
	.st51{fill:#18A98F;}
</style>
<g class="st0">
	<image style="overflow:visible;" width="128" height="74" xlink:href="B439C1A0.png"  transform="matrix(1 0 0 1 313 281)">
	</image>
</g>
<g>
	<g id="Rectangle-Copy-4_1_">
		
			<image style="overflow:visible;opacity:0.25;" width="470" height="318" xlink:href="B439C1A1.png"  transform="matrix(1 0 0 1 1 -4)">
		</image>
		<g>
			<path class="st1" d="M36.6,19.2h399c2.6,0,4.6,2.1,4.6,4.6v250.1c0,1.2-1,2.2-2.2,2.2H34.2c-1.2,0-2.2-1-2.2-2.2V23.8
				C32,21.3,34.1,19.2,36.6,19.2z"/>
		</g>
	</g>
	<path id="Rectangle-2-Copy_1_" class="st2" d="M36.6,11.5h399c2.6,0,4.6,2.1,4.6,4.6v13.1H32V16.1C32,13.5,34.1,11.5,36.6,11.5z"/>
	<g class="st0">
		<circle id="Oval-3-Copy-3_1_" class="st3" cx="44.8" cy="19.6" r="2.2"/>
		<circle id="Oval-3-Copy-4_1_" class="st3" cx="54.7" cy="19.6" r="2.2"/>
		<circle id="Oval-3-Copy-5_1_" class="st3" cx="64.7" cy="19.6" r="2.2"/>
	</g>
	<rect id="Rectangle-3-Copy_1_" x="32" y="26.9" class="st4" width="408.3" height="23.1"/>
	<g>
		<path class="st5" d="M85.2,40.8L85.2,40.8c0-0.4,0.3-0.7,0.7-0.7c0.4,0,0.7,0.3,0.7,0.7v0c0,0.4-0.3,0.7-0.7,0.7
			C85.5,41.4,85.2,41.1,85.2,40.8 M86.5,40.8L86.5,40.8c0-0.3-0.2-0.5-0.5-0.5c-0.3,0-0.5,0.2-0.5,0.5v0c0,0.3,0.2,0.5,0.5,0.5
			C86.2,41.3,86.5,41.1,86.5,40.8 M85.7,40.4H86c0.1,0,0.3,0.1,0.3,0.2c0,0.1-0.1,0.2-0.2,0.2l0.2,0.3h-0.2l-0.2-0.2h-0.1v0.2h-0.1
			V40.4z M85.9,40.8c0.1,0,0.1,0,0.1-0.1c0-0.1-0.1-0.1-0.1-0.1h-0.2v0.2H85.9z"/>
		<path class="st5" d="M44.7,37.2c0-0.1,0.1-0.2,0.2-0.2H45c0.1,0,0.2,0.1,0.2,0.1l1.6,2.4l1.6-2.4c0.1-0.1,0.1-0.1,0.2-0.1h0.1
			c0.1,0,0.2,0.1,0.2,0.2v4c0,0.1-0.1,0.3-0.2,0.3c-0.1,0-0.3-0.1-0.3-0.3v-3.3L47,40c-0.1,0.1-0.1,0.1-0.2,0.1s-0.2,0-0.2-0.1
			l-1.4-2.1v3.3c0,0.1-0.1,0.2-0.2,0.2c-0.1,0-0.2-0.1-0.2-0.2V37.2z"/>
		<path class="st5" d="M51.5,41.2v-3.9c0-0.1,0.1-0.3,0.2-0.3h2.8c0.1,0,0.2,0.1,0.2,0.2c0,0.1-0.1,0.2-0.2,0.2H52V39h2.2
			c0.1,0,0.2,0.1,0.2,0.2c0,0.1-0.1,0.2-0.2,0.2H52V41h2.5c0.1,0,0.2,0.1,0.2,0.2c0,0.1-0.1,0.2-0.2,0.2h-2.8
			C51.6,41.5,51.5,41.3,51.5,41.2"/>
		<path class="st5" d="M58.2,37.5h-1.3c-0.1,0-0.2-0.1-0.2-0.2c0-0.1,0.1-0.2,0.2-0.2h3.1c0.1,0,0.2,0.1,0.2,0.2
			c0,0.1-0.1,0.2-0.2,0.2h-1.3v3.8c0,0.1-0.1,0.3-0.3,0.3c-0.1,0-0.3-0.1-0.3-0.3V37.5z"/>
		<path class="st5" d="M62.4,37.3c0-0.1,0.1-0.3,0.2-0.3h1.7c0.5,0,1,0.2,1.3,0.4c0.2,0.2,0.3,0.5,0.3,0.9v0c0,0.7-0.5,1.2-1.2,1.3
			l1.1,1.4c0.1,0.1,0.1,0.1,0.1,0.2c0,0.1-0.1,0.2-0.3,0.2c-0.1,0-0.2-0.1-0.2-0.1l-1.2-1.6h-1.3v1.5c0,0.1-0.1,0.3-0.3,0.3
			c-0.1,0-0.2-0.1-0.2-0.3V37.3z M64.2,39.3c0.7,0,1.1-0.3,1.1-0.9v0c0-0.5-0.4-0.9-1.1-0.9h-1.4v1.8H64.2z"/>
		<path class="st5" d="M68.3,37.2c0-0.1,0.1-0.3,0.2-0.3c0.1,0,0.3,0.1,0.3,0.3v4c0,0.1-0.1,0.3-0.3,0.3c-0.1,0-0.2-0.1-0.2-0.3
			V37.2z"/>
		<path class="st5" d="M71.1,39.2L71.1,39.2c0-1.3,0.9-2.3,2.2-2.3c0.7,0,1.2,0.2,1.6,0.6c0.1,0,0.1,0.1,0.1,0.2
			c0,0.1-0.1,0.2-0.3,0.2c-0.1,0-0.1,0-0.2-0.1c-0.3-0.3-0.7-0.5-1.3-0.5c-1,0-1.7,0.8-1.7,1.8v0c0,1,0.7,1.8,1.7,1.8
			c0.6,0,0.9-0.2,1.3-0.5c0,0,0.1-0.1,0.2-0.1c0.1,0,0.2,0.1,0.2,0.2c0,0.1,0,0.1-0.1,0.2c-0.4,0.4-0.9,0.7-1.6,0.7
			C72.1,41.5,71.1,40.5,71.1,39.2"/>
		<path class="st5" d="M77.3,37.2c0-0.1,0.1-0.3,0.2-0.3c0.1,0,0.3,0.1,0.3,0.3V41h2.3c0.1,0,0.2,0.1,0.2,0.2c0,0.1-0.1,0.2-0.2,0.2
			h-2.6c-0.1,0-0.2-0.1-0.2-0.3V37.2z"/>
		<path class="st5" d="M83,39.7l-1.6-2.3c0-0.1-0.1-0.1-0.1-0.2c0-0.1,0.1-0.2,0.3-0.2c0.1,0,0.2,0.1,0.2,0.2l1.5,2.1l1.5-2.1
			C84.8,37,84.9,37,85,37c0.1,0,0.2,0.1,0.2,0.2c0,0.1,0,0.1-0.1,0.2l-1.6,2.3v1.5c0,0.1-0.1,0.3-0.3,0.3c-0.1,0-0.3-0.1-0.3-0.3
			V39.7z"/>
	</g>
</g>
<path id="Rectangle_19_" class="st6" d="M46.2,61h379.2c1.7,0,3,1.6,3,3.5v189.8c0,1.9-1.4,3.5-3,3.5H46.2c-1.7,0-3-1.6-3-3.5V64.5
	C43.2,62.6,44.5,61,46.2,61z"/>
<g>
	<path class="st4" d="M56.2,79.1l-0.5-1.4h-1.9l-0.5,1.4h-0.9l1.9-5h0.9l1.9,5H56.2z M55.5,77l-0.5-1.4c0-0.1-0.1-0.2-0.1-0.4
		c-0.1-0.2-0.1-0.3-0.1-0.4c-0.1,0.3-0.2,0.6-0.3,0.9L54.1,77H55.5z"/>
	<path class="st4" d="M62.4,79.1h-0.9l-0.8-3c0-0.1-0.1-0.3-0.1-0.6c-0.1-0.2-0.1-0.4-0.1-0.5c0,0.1-0.1,0.3-0.1,0.6
		c-0.1,0.2-0.1,0.4-0.1,0.5l-0.8,3h-0.9l-0.6-2.5l-0.7-2.5H58l0.7,2.9c0.1,0.5,0.2,0.9,0.2,1.2c0-0.2,0.1-0.4,0.1-0.6
		s0.1-0.4,0.1-0.6l0.8-2.9h0.8l0.8,2.9c0.1,0.3,0.2,0.7,0.3,1.2c0-0.3,0.1-0.7,0.2-1.2l0.7-2.9h0.8L62.4,79.1z"/>
	<path class="st4" d="M67.3,77.8c0,0.4-0.2,0.8-0.5,1s-0.8,0.4-1.3,0.4s-1-0.1-1.4-0.3v-0.8c0.2,0.1,0.5,0.2,0.7,0.3
		c0.3,0.1,0.5,0.1,0.7,0.1c0.3,0,0.6-0.1,0.7-0.2c0.2-0.1,0.2-0.3,0.2-0.5c0-0.2-0.1-0.3-0.2-0.5s-0.4-0.3-0.9-0.5
		c-0.5-0.2-0.8-0.4-1-0.6s-0.3-0.5-0.3-0.9c0-0.4,0.1-0.7,0.4-1s0.7-0.4,1.2-0.4c0.5,0,1,0.1,1.4,0.3L66.9,75
		c-0.4-0.2-0.8-0.3-1.2-0.3c-0.3,0-0.5,0.1-0.6,0.2c-0.1,0.1-0.2,0.3-0.2,0.5c0,0.1,0,0.2,0.1,0.3c0.1,0.1,0.1,0.2,0.3,0.3
		s0.4,0.2,0.7,0.3c0.4,0.2,0.6,0.3,0.8,0.4s0.3,0.3,0.4,0.4S67.3,77.5,67.3,77.8z"/>
	<path class="st4" d="M72.9,77.8c0,0.4-0.2,0.8-0.5,1s-0.8,0.4-1.3,0.4s-1-0.1-1.4-0.3v-0.8c0.2,0.1,0.5,0.2,0.7,0.3
		c0.3,0.1,0.5,0.1,0.7,0.1c0.3,0,0.6-0.1,0.7-0.2c0.2-0.1,0.2-0.3,0.2-0.5c0-0.2-0.1-0.3-0.2-0.5S71.5,77,71,76.9
		c-0.5-0.2-0.8-0.4-1-0.6s-0.3-0.5-0.3-0.9c0-0.4,0.1-0.7,0.4-1s0.7-0.4,1.2-0.4c0.5,0,1,0.1,1.4,0.3L72.6,75
		c-0.4-0.2-0.8-0.3-1.2-0.3c-0.3,0-0.5,0.1-0.6,0.2c-0.1,0.1-0.2,0.3-0.2,0.5c0,0.1,0,0.2,0.1,0.3c0.1,0.1,0.1,0.2,0.3,0.3
		s0.4,0.2,0.7,0.3c0.4,0.2,0.6,0.3,0.8,0.4s0.3,0.3,0.4,0.4S72.9,77.5,72.9,77.8z"/>
	<path class="st4" d="M75.5,79.2c-0.6,0-1-0.2-1.4-0.5c-0.3-0.3-0.5-0.8-0.5-1.4c0-0.6,0.2-1.1,0.5-1.5s0.7-0.5,1.3-0.5
		c0.5,0,0.9,0.2,1.2,0.5s0.4,0.7,0.4,1.3v0.4h-2.5c0,0.4,0.1,0.6,0.3,0.8c0.2,0.2,0.5,0.3,0.8,0.3c0.2,0,0.4,0,0.6-0.1
		c0.2,0,0.4-0.1,0.6-0.2v0.7c-0.2,0.1-0.4,0.2-0.6,0.2S75.7,79.2,75.5,79.2z M75.3,75.9c-0.3,0-0.5,0.1-0.6,0.2
		c-0.2,0.2-0.2,0.4-0.3,0.7h1.7c0-0.3-0.1-0.5-0.2-0.7C75.8,75.9,75.6,75.9,75.3,75.9z"/>
	<path class="st4" d="M79.8,75.3c0.2,0,0.3,0,0.4,0L80.1,76c-0.1,0-0.2,0-0.4,0c-0.3,0-0.6,0.1-0.8,0.3c-0.2,0.2-0.3,0.5-0.3,0.8v2
		h-0.8v-3.8h0.6l0.1,0.7h0c0.1-0.2,0.3-0.4,0.5-0.5C79.3,75.3,79.5,75.3,79.8,75.3z"/>
	<path class="st4" d="M81.7,79.1l-1.4-3.8h0.8l0.8,2.2c0.1,0.4,0.2,0.7,0.2,0.9h0c0-0.2,0.1-0.5,0.2-0.9l0.8-2.2H84l-1.4,3.8H81.7z"
		/>
	<path class="st4" d="M84.6,74.3c0-0.1,0-0.3,0.1-0.3c0.1-0.1,0.2-0.1,0.3-0.1c0.1,0,0.3,0,0.3,0.1c0.1,0.1,0.1,0.2,0.1,0.3
		c0,0.1,0,0.2-0.1,0.3c-0.1,0.1-0.2,0.1-0.3,0.1c-0.1,0-0.3,0-0.3-0.1C84.6,74.6,84.6,74.5,84.6,74.3z M85.4,79.1h-0.8v-3.8h0.8
		V79.1z"/>
	<path class="st4" d="M88.1,79.2c-0.6,0-1-0.2-1.3-0.5c-0.3-0.3-0.4-0.8-0.4-1.4c0-0.6,0.2-1.1,0.5-1.5c0.3-0.3,0.8-0.5,1.3-0.5
		c0.4,0,0.8,0.1,1.1,0.2L89,76.1c-0.3-0.1-0.6-0.2-0.8-0.2c-0.7,0-1,0.4-1,1.3c0,0.4,0.1,0.7,0.2,1c0.2,0.2,0.4,0.3,0.7,0.3
		c0.4,0,0.7-0.1,1-0.3v0.7c-0.1,0.1-0.3,0.1-0.5,0.2C88.5,79.2,88.3,79.2,88.1,79.2z"/>
	<path class="st4" d="M91.7,79.2c-0.6,0-1-0.2-1.4-0.5c-0.3-0.3-0.5-0.8-0.5-1.4c0-0.6,0.2-1.1,0.5-1.5s0.7-0.5,1.3-0.5
		c0.5,0,0.9,0.2,1.2,0.5s0.4,0.7,0.4,1.3v0.4h-2.5c0,0.4,0.1,0.6,0.3,0.8c0.2,0.2,0.5,0.3,0.8,0.3c0.2,0,0.4,0,0.6-0.1
		c0.2,0,0.4-0.1,0.6-0.2v0.7c-0.2,0.1-0.4,0.2-0.6,0.2S91.9,79.2,91.7,79.2z M91.5,75.9c-0.3,0-0.5,0.1-0.6,0.2
		c-0.2,0.2-0.2,0.4-0.3,0.7h1.7c0-0.3-0.1-0.5-0.2-0.7C92,75.9,91.8,75.9,91.5,75.9z"/>
	<path class="st4" d="M96.6,78c0,0.4-0.1,0.7-0.4,0.8c-0.3,0.2-0.7,0.3-1.2,0.3c-0.5,0-0.9-0.1-1.2-0.2v-0.7
		c0.4,0.2,0.9,0.3,1.2,0.3c0.5,0,0.7-0.1,0.7-0.4c0-0.1,0-0.2-0.1-0.2s-0.1-0.1-0.3-0.2s-0.3-0.1-0.5-0.2c-0.4-0.2-0.7-0.3-0.9-0.5
		c-0.2-0.2-0.2-0.4-0.2-0.7c0-0.3,0.1-0.6,0.4-0.8c0.3-0.2,0.6-0.3,1.1-0.3c0.4,0,0.9,0.1,1.3,0.3l-0.3,0.6c-0.4-0.2-0.8-0.3-1-0.3
		c-0.4,0-0.6,0.1-0.6,0.4c0,0.1,0.1,0.2,0.2,0.3c0.1,0.1,0.4,0.2,0.7,0.3c0.3,0.1,0.5,0.2,0.7,0.3s0.2,0.2,0.3,0.3
		C96.6,77.7,96.6,77.8,96.6,78z"/>
	<path class="st4" d="M101.5,74.7c-0.5,0-0.8,0.2-1.1,0.5S100,76,100,76.6c0,0.6,0.1,1.1,0.4,1.4c0.3,0.3,0.6,0.5,1.1,0.5
		c0.2,0,0.4,0,0.6-0.1c0.2,0,0.4-0.1,0.6-0.2V79c-0.4,0.1-0.8,0.2-1.3,0.2c-0.7,0-1.3-0.2-1.7-0.7c-0.4-0.4-0.6-1.1-0.6-1.9
		c0-0.5,0.1-1,0.3-1.4c0.2-0.4,0.5-0.7,0.8-0.9s0.8-0.3,1.3-0.3c0.5,0,1,0.1,1.4,0.3l-0.3,0.7c-0.2-0.1-0.3-0.1-0.5-0.2
		C101.9,74.8,101.7,74.7,101.5,74.7z"/>
	<path class="st4" d="M107.1,77.2c0,0.6-0.2,1.1-0.5,1.4s-0.8,0.5-1.3,0.5c-0.4,0-0.7-0.1-0.9-0.2s-0.5-0.4-0.6-0.7s-0.2-0.6-0.2-1
		c0-0.6,0.2-1.1,0.5-1.4s0.8-0.5,1.3-0.5c0.5,0,1,0.2,1.3,0.5C106.9,76.1,107.1,76.6,107.1,77.2z M104.3,77.2c0,0.9,0.3,1.3,1,1.3
		c0.6,0,1-0.4,1-1.3c0-0.9-0.3-1.3-1-1.3c-0.3,0-0.6,0.1-0.7,0.3C104.4,76.5,104.3,76.8,104.3,77.2z"/>
	<path class="st4" d="M110.5,78c0,0.4-0.1,0.7-0.4,0.8c-0.3,0.2-0.7,0.3-1.2,0.3c-0.5,0-0.9-0.1-1.2-0.2v-0.7
		c0.4,0.2,0.9,0.3,1.2,0.3c0.5,0,0.7-0.1,0.7-0.4c0-0.1,0-0.2-0.1-0.2s-0.1-0.1-0.3-0.2s-0.3-0.1-0.5-0.2c-0.4-0.2-0.7-0.3-0.9-0.5
		c-0.2-0.2-0.2-0.4-0.2-0.7c0-0.3,0.1-0.6,0.4-0.8c0.3-0.2,0.6-0.3,1.1-0.3c0.4,0,0.9,0.1,1.3,0.3l-0.3,0.6c-0.4-0.2-0.8-0.3-1-0.3
		c-0.4,0-0.6,0.1-0.6,0.4c0,0.1,0.1,0.2,0.2,0.3c0.1,0.1,0.4,0.2,0.7,0.3c0.3,0.1,0.5,0.2,0.7,0.3s0.2,0.2,0.3,0.3
		C110.5,77.7,110.5,77.8,110.5,78z"/>
	<path class="st4" d="M112.8,78.5c0.2,0,0.4,0,0.6-0.1V79c-0.1,0-0.2,0.1-0.3,0.1c-0.1,0-0.3,0-0.4,0c-0.8,0-1.1-0.4-1.1-1.2v-2H111
		v-0.4l0.6-0.3l0.3-0.8h0.5v0.8h1.1v0.6h-1.1v2c0,0.2,0,0.3,0.1,0.4C112.5,78.5,112.7,78.5,112.8,78.5z"/>
</g>
<g>
	<line class="st7" x1="94.4" y1="245.8" x2="109.9" y2="245.8"/>
	<line class="st7" x1="89.5" y1="241.8" x2="114.7" y2="241.8"/>
</g>
<g>
	<line class="st7" x1="138.4" y1="245.8" x2="153.9" y2="245.8"/>
	<line class="st7" x1="133.5" y1="241.8" x2="158.7" y2="241.8"/>
</g>
<g>
	<line class="st7" x1="182.4" y1="245.8" x2="197.9" y2="245.8"/>
	<line class="st7" x1="177.5" y1="241.8" x2="202.7" y2="241.8"/>
</g>
<line class="st8" x1="54.4" y1="124.2" x2="65" y2="124.2"/>
<line class="st8" x1="54.4" y1="151.5" x2="65" y2="151.5"/>
<line class="st8" x1="54.4" y1="178.7" x2="65" y2="178.7"/>
<line class="st8" x1="54.4" y1="206" x2="65" y2="206"/>
<line class="st8" x1="54.4" y1="96.9" x2="65" y2="96.9"/>
<line class="st8" x1="54.4" y1="233.3" x2="65" y2="233.3"/>
<g>
	<line class="st9" x1="73.1" y1="233.3" x2="400" y2="233.3"/>
	<line class="st9" x1="73.1" y1="206" x2="400" y2="206"/>
	<line class="st9" x1="73.1" y1="178.7" x2="400" y2="178.7"/>
	<line class="st9" x1="73.1" y1="151.5" x2="400" y2="151.5"/>
	<line class="st9" x1="73.1" y1="124.2" x2="400" y2="124.2"/>
	<line class="st9" x1="73.1" y1="96.9" x2="400" y2="96.9"/>
</g>
<path class="st10" d="M102.1,233.3H83.8V120.9c0-1.1,0.9-2,2-2h16.3V233.3z"/>
<path class="st11" d="M120.5,233.3h-18.3V112.3c0-1.1,0.9-2,2-2h14.3c1.1,0,2,0.9,2,2V233.3z"/>
<path class="st10" d="M190.1,233.3h-18.3v-80.1c0-1.1,0.9-2,2-2h14.3c1.1,0,2,0.9,2,2V233.3z"/>
<path class="st11" d="M208.5,233.3h-18.3v-79.6h16.3c1.1,0,2,0.9,2,2V233.3z"/>
<path class="st10" d="M146.1,233.3h-18.3v-55.2c0-1.1,0.9-2,2-2h14.3c1.1,0,2,0.9,2,2V233.3z"/>
<path class="st11" d="M164.5,233.3h-18.3v-46.6h16.3c1.1,0,2,0.9,2,2V233.3z"/>
<g>
	<path class="st12" d="M415.8,258.2c23,0,42-18.5,42.2-41.5c0-0.2,0-0.5,0-0.7c0-29.7-29-53.8-64.8-53.8h0c-1.4,0-2.6-1-2.9-2.4
		c-5.1-25.4-31.8-44.8-63.9-44.8c-29.2,0-54,16.1-62,38.1c-2,5.5-7.1,9.1-12.9,9c-0.1,0-0.2,0-0.3,0c-35.8,0-64.8,24.1-64.8,53.8
		c0,2.7,0.2,4.5,0.5,6.2c3.6,20.9,22,36,43.3,36H415.8z"/>
	<linearGradient id="SVGID_1_" gradientUnits="userSpaceOnUse" x1="186.2814" y1="186.5662" x2="458.007" y2="186.5662">
		<stop  offset="0" style="stop-color:#98E4FF;stop-opacity:0.5"/>
		<stop  offset="1" style="stop-color:#98E4FF"/>
	</linearGradient>
	<path class="st13" d="M415.8,258.2c23,0,42-18.5,42.2-41.5c0-0.2,0-0.5,0-0.7c0-29.7-29-53.8-64.8-53.8h0c-1.4,0-2.6-1-2.9-2.4
		c-5.1-25.4-31.8-44.8-63.9-44.8c-29.2,0-54,16.1-62,38.1c-2,5.5-7.1,9.1-12.9,9c-0.1,0-0.2,0-0.3,0c-35.8,0-64.8,24.1-64.8,53.8
		c0,2.7,0.2,4.5,0.5,6.2c3.6,20.9,22,36,43.3,36H415.8z"/>
	<linearGradient id="SVGID_2_" gradientUnits="userSpaceOnUse" x1="305.2151" y1="128.4898" x2="332.5485" y2="269.1565">
		<stop  offset="0" style="stop-color:#FFFFFF;stop-opacity:0.5"/>
		<stop  offset="1" style="stop-color:#98E4FF"/>
	</linearGradient>
	<path class="st14" d="M415.8,258.2c23,0,42-18.5,42.2-41.5c0-0.2,0-0.5,0-0.7c0-29.7-29-53.8-64.8-53.8h0c-1.4,0-2.6-1-2.9-2.4
		c-5.1-25.4-31.8-44.8-63.9-44.8c-29.2,0-54,16.1-62,38.1c-2,5.5-7.1,9.1-12.9,9c-0.1,0-0.2,0-0.3,0c-35.8,0-64.8,24.1-64.8,53.8
		c0,2.7,0.2,4.5,0.5,6.2c3.6,20.9,22,36,43.3,36H415.8z"/>
	<path class="st15" d="M391.7,160.7c0,0-33.9-1.7-36.9,27.8"/>
</g>
<linearGradient id="SVGID_3_" gradientUnits="userSpaceOnUse" x1="300.1115" y1="247.5419" x2="300.1115" y2="174.0252">
	<stop  offset="0" style="stop-color:#00A8E1;stop-opacity:0"/>
	<stop  offset="1" style="stop-color:#1A6A9A;stop-opacity:0.8"/>
</linearGradient>
<rect x="277.1" y="160.8" class="st16" width="46" height="101.4"/>
<g>
	<path class="st17" d="M361.8,169.6l1.3-19.1c0,0,4-10.4-2.6-11c-6.6-0.6-12.3,0.5-12.9,1.4c-0.6,0.9-1.7,3.8-1.7,8.6
		c0,3.2,0.1,6.4,0.2,8.3c0,0.9,0.7,1.7,1.6,2c1.7,0.4,4.2,1.1,5,1.1l0.4,8.2L361.8,169.6z"/>
	<path class="st18" d="M345.8,149.6l-2,3c-0.2,0.3,0,0.6,0.3,0.6l1.7,0.4L345.8,149.6z"/>
	<path class="st19" d="M354.1,150.1c-1.1,0,1.3-2.5,1.1-3c-0.2-0.5-0.4-2.5-4.1-1.9c-3.7,0.6-7.1-1.3-7.2-3.3c0-2,1.3-1.5,3.7-2.1
		c2.4-0.6-2.4-1.4-0.8-3.5c1.1-1.4,4.1,1,4.6,0.3c0.7-0.8-2.5-2-0.9-3.6c1.5-1.5,3.1,0.2,4.4,1.8c1.2,1.6,8.6,3,10.1,4.4
		c1.5,1.4,2.7,4.2,1.5,7.7c-1.2,3.5-1.5,8.4-1.7,9c-0.3,0.6-0.9,2.8-4,2.6c-3.1-0.2-4.8-1-6.1-3c-0.8-1.3-0.3-1.8,0.3-2
		c0.6-0.2,1.1-0.5,1.5-1c0.7-0.8,1.5-2.1,0.6-3C355.9,147.8,354.9,150.1,354.1,150.1z"/>
	<path class="st20" d="M354.1,150.1c-1.1,0,1.3-2.5,1.1-3c-0.2-0.5-0.4-2.5-4.1-1.9c-3.7,0.6-7.1-1.3-7.2-3.3c0-2,1.3-1.5,3.7-2.1
		c2.4-0.6-2.4-1.4-0.8-3.5c1.1-1.4,4.1,1,4.6,0.3c0.7-0.8-2.5-2-0.9-3.6c1.5-1.5,3.1,0.2,4.4,1.8c1.2,1.6,8.6,3,10.1,4.4
		c1.5,1.4,2.7,4.2,1.5,7.7c-1.2,3.5-1.5,8.4-1.7,9c-0.3,0.6-0.9,2.8-4,2.6c-3.1-0.2-4.8-1-6.1-3c-0.8-1.3-0.3-1.8,0.3-2
		c0.6-0.2,1.1-0.5,1.5-1c0.7-0.8,1.5-2.1,0.6-3C355.9,147.8,354.9,150.1,354.1,150.1z"/>
	<path class="st18" d="M352.6,160.9c0,0,2.9-0.5,3.7-1.4l0,2.5l-3.6,0.2L352.6,160.9z"/>
</g>
<path class="st18" d="M397.3,206.2l0.9,4.5c0.2,1.2,0,2.5-0.6,3.5l-1.3,2.2l-4.7-2.5l0.1-3.7l-1.7-1.8l-0.6,2.8l-0.5,1.4l-1.7-2.4
	l0.9-3.5l2-1.3l1.8-0.5L397.3,206.2z"/>
<path class="st21" d="M348.4,162.4l3.7-2.7c0,0,3.3-2,6.2-2c2.9,0,8.3,2,8.3,2v1.3L348.4,162.4z"/>
<path class="st22" d="M381.3,204.9l-1.4-33.5v-147c0-1.6,1.3-2.9,2.9-2.9l0,0c1.6,0,2.9,1.3,2.9,2.9v2"/>
<line class="st22" x1="379.9" y1="150.4" x2="376.2" y2="161.1"/>
<path class="st23" d="M334.2,224.1"/>
<linearGradient id="SVGID_4_" gradientUnits="userSpaceOnUse" x1="300.1115" y1="160.1089" x2="300.1115" y2="156.4138">
	<stop  offset="0" style="stop-color:#C7EAE9"/>
	<stop  offset="1" style="stop-color:#33CFB9"/>
</linearGradient>
<rect x="277.1" y="155.8" class="st24" width="46" height="5.1"/>
<path class="st4" d="M323.1,156.8h-46c-0.6,0-1-0.4-1-1s0.4-1,1-1h46c0.6,0,1,0.4,1,1S323.6,156.8,323.1,156.8z"/>
<path class="st4" d="M300.2,183.3c-0.5,0-0.9-0.4-1-0.9l-2.5-26.6c-0.1-0.5,0.4-1,0.9-1.1c0.6-0.1,1,0.4,1.1,0.9l2.5,26.6
	C301.2,182.8,300.8,183.3,300.2,183.3C300.2,183.3,300.2,183.3,300.2,183.3z"/>
<path class="st17" d="M305.1,173.4c-0.5-1-1.3-2-1.8-2.6c-0.2-0.3-0.6-0.5-0.9-0.6l-2.1-0.5l-0.2-0.1l0.4,2.3l-1-0.5l0,0l-4.8-2.4
	c-0.2-0.1-0.5,0-0.6,0.3c-0.1,0.2,0,0.4,0.1,0.5l1.7,2.2c0.4,0.3,0.5,0.7,0.4,1.2l1.2,2.9c-0.2,1.3-1.2,1.9,0,2.5l5.8,2.5l4.7,2.7
	l2.1-4C310.1,179.7,305.8,174.8,305.1,173.4z"/>
<path class="st25" d="M309.4,177.4l-3.3,6.6l13.8,11.3l17.3-10.3l2.3,8l-0.5,12l3.5,5.7l0,5.1c0,0,11.3-9.1,16.5-10.8
	c5.2-1.7,21-3.3,21-3.3l-2.9-6l2-15.3v-18.5l-15.9-2.1l-14.9,2.7l-6.4,1.9l-19.6,16l-1.4,2.3L309.4,177.4z"/>
<path class="st26" d="M320.4,213.3c0,0,9.6-15.3,22.9-7.2"/>
<ellipse transform="matrix(0.9998 -2.235030e-002 2.235030e-002 0.9998 -3.2657 7.7884)" class="st20" cx="346.8" cy="150" rx="0.7" ry="0.7"/>
<path class="st18" d="M346.1,155.1c1.3,1.2,3.3,0.2,3.4,0.2c0.1-0.1,0.3,0,0.4,0.1c0.1,0.1,0,0.3-0.1,0.4c-0.1,0-0.9,0.5-1.9,0.5
	c-0.5,0-1.1-0.1-1.7-0.5L346.1,155.1z"/>
<path class="st27" d="M354.9,151.6c0,0,0.9-2.2,1.9-1.4"/>
<path class="st28" d="M387.9,211.6L387.9,211.6c0.9-0.8,2.2-1,3.3-0.7l5.1,1.6c1.4,0.4,2.4,1.7,2.4,3.1l0.2,3.3"/>
<path class="st17" d="M390.2,214.4c0,0,0.4-3.8,1.3-4.3s3.1,1.7,4,2.1c0.9,0.4,0.7,4.2,0.7,4.2L390.2,214.4z"/>
<linearGradient id="SVGID_5_" gradientUnits="userSpaceOnUse" x1="384.1112" y1="208.6594" x2="384.1112" y2="46.9891">
	<stop  offset="0" style="stop-color:#004C6C;stop-opacity:0.4"/>
	<stop  offset="0.155" style="stop-color:#034E6E;stop-opacity:0.338"/>
	<stop  offset="0.2901" style="stop-color:#0E5674;stop-opacity:0.284"/>
	<stop  offset="0.4177" style="stop-color:#20627E;stop-opacity:0.2329"/>
	<stop  offset="0.5409" style="stop-color:#39748D;stop-opacity:0.1837"/>
	<stop  offset="0.6608" style="stop-color:#5A8BA0;stop-opacity:0.1357"/>
	<stop  offset="0.7782" style="stop-color:#82A7B7;stop-opacity:8.871314e-002"/>
	<stop  offset="0.8915" style="stop-color:#B0C8D1;stop-opacity:4.341507e-002"/>
	<stop  offset="1" style="stop-color:#E4ECEF;stop-opacity:0"/>
</linearGradient>
<path class="st29" d="M384.1,208.7c-1,0-1.9-0.8-1.9-1.7V48.7c0-0.9,0.8-1.7,1.9-1.7s1.9,0.8,1.9,1.7V207
	C386,207.9,385.1,208.7,384.1,208.7z"/>
<g>
	<g>
		<path class="st10" d="M290.5,253.5c-0.1-0.2-0.2-0.4-0.4-0.5c-0.1-0.1-0.3-0.2-0.5-0.3l0,0l0,0l0.3-1.3h0l0,0c0,0,0.1,0,0.1,0.1
			c0.2,0.1,0.3,0.3,0.4,0.4c0,0.1,0.1,0.1,0.2,0.2c0.1,0,0.2,0,0.2,0c0.1-0.1,0.2-0.1,0.2-0.2c0-0.1,0-0.2,0-0.3
			c-0.1-0.3-0.3-0.5-0.6-0.6c-0.1-0.1-0.2-0.1-0.4-0.2l0,0h0l0.1-0.4c0-0.2-0.1-0.4-0.3-0.5c-0.2,0-0.4,0.1-0.5,0.3l-0.1,0.3l0,0
			l0,0c-0.2,0-0.3,0-0.5,0c-0.3,0.1-0.5,0.2-0.7,0.3c-0.2,0.2-0.3,0.4-0.4,0.6c-0.1,0.3,0,0.5,0.1,0.8c0.1,0.2,0.3,0.4,0.5,0.5
			c0.1,0.1,0.3,0.2,0.5,0.3l0,0c0,0,0.1,0,0.1,0.1c0,0-0.1,0-0.1-0.1l-0.3,1.4c-0.1,0-0.2-0.1-0.2-0.1c-0.2-0.1-0.3-0.3-0.5-0.6
			c-0.1-0.1-0.2-0.2-0.3-0.2c-0.1,0-0.1,0-0.2,0c-0.1,0.1-0.2,0.1-0.2,0.2c0,0.1,0,0.2,0,0.2c0.2,0.3,0.4,0.6,0.7,0.8
			c0.2,0.1,0.4,0.2,0.6,0.3v0c0.1,0,0.3,0.1,0.4,0.1c0.1,0,0.3,0,0.4,0.1l0,0c0.2,0,0.3,0,0.5,0c0.3,0,0.5-0.2,0.7-0.3
			c0.2-0.2,0.3-0.4,0.4-0.6C290.6,254,290.6,253.7,290.5,253.5z M289.3,253.5C289.3,253.4,289.3,253.4,289.3,253.5
			C289.3,253.4,289.3,253.4,289.3,253.5L289.3,253.5z M289.3,252.6c-0.1,0-0.1-0.1-0.2-0.1C289.2,252.5,289.3,252.5,289.3,252.6
			C289.3,252.6,289.4,252.6,289.3,252.6C289.4,252.6,289.3,252.6,289.3,252.6z M289.3,251.2c-0.1,0-0.2,0-0.3,0l0,0
			C289.1,251.2,289.2,251.2,289.3,251.2c0.1,0,0.1,0,0.2,0.1C289.5,251.2,289.4,251.2,289.3,251.2z M289.5,250.5
			c0.1,0,0.2,0.1,0.4,0.1C289.8,250.6,289.7,250.6,289.5,250.5c-0.1,0-0.2,0-0.3,0C289.3,250.5,289.4,250.5,289.5,250.5z
			 M288.4,251.6c0-0.2,0.2-0.3,0.3-0.4c0.1,0,0.2,0,0.3,0l-0.2,1.1c-0.1-0.1-0.1-0.1-0.2-0.2C288.4,252,288.4,251.8,288.4,251.6z
			 M288.9,253.2C288.9,253.2,288.9,253.2,288.9,253.2C288.9,253.2,288.9,253.2,288.9,253.2C288.9,253.2,288.8,253.2,288.9,253.2
			C288.8,253.2,288.9,253.2,288.9,253.2z M288.4,254.4c0.1,0.1,0.3,0.1,0.4,0.1c0,0,0.1,0,0.1,0c0,0-0.1,0-0.1,0
			C288.6,254.5,288.5,254.5,288.4,254.4z M289.4,254.6c-0.1,0-0.2,0-0.3,0l0,0l0.3-1.1c0.1,0.1,0.2,0.1,0.2,0.2
			c0.1,0.1,0.2,0.3,0.2,0.5C289.7,254.4,289.6,254.5,289.4,254.6z"/>
		<path class="st10" d="M288.1,255.1l-0.1,0.4c0,0.2,0.1,0.4,0.3,0.5s0.4-0.1,0.5-0.3l0.1-0.4c-0.1,0-0.3,0-0.4-0.1
			C288.4,255.2,288.3,255.1,288.1,255.1z"/>
	</g>
	<path class="st10" d="M288,257.2c-2.4-0.5-3.8-2.9-3.3-5.2c0.5-2.4,2.9-3.8,5.2-3.3c2.4,0.5,3.8,2.9,3.3,5.2
		C292.7,256.2,290.3,257.7,288,257.2z M289.7,249.3c-2-0.4-3.9,0.8-4.4,2.8c-0.4,2,0.8,3.9,2.8,4.4c2,0.4,3.9-0.8,4.4-2.8
		C292.9,251.7,291.7,249.8,289.7,249.3z"/>
</g>
<g>
	<g>
		<path class="st30" d="M308.8,273.5c-0.3-0.1-0.4-0.3-0.4-0.6l0.2-1c0-0.3,0.3-0.5,0.6-0.5c1.1,0.2,1.9,0,2.1-0.8l0,0
			c0.2-0.7-0.2-1.3-1-1.5c-0.6-0.2-1.2-0.1-1.8,0.2c-0.1,0.1-0.3,0.1-0.5,0c-0.4-0.1-0.6-0.5-0.5-0.8c0-0.2,0.2-0.3,0.4-0.4
			c0.8-0.4,1.7-0.6,2.8-0.3c1.6,0.5,2.5,1.7,2.1,3.2l0,0c-0.4,1.5-1.7,1.8-3,1.7l-0.2,0.5C309.4,273.5,309.1,273.6,308.8,273.5
			L308.8,273.5z M308.5,274.4c0.5,0.1,0.7,0.6,0.6,1l0,0.1c-0.1,0.5-0.6,0.7-1.1,0.6c-0.5-0.1-0.7-0.6-0.6-1l0-0.1
			C307.6,274.5,308.1,274.3,308.5,274.4z"/>
	</g>
</g>
<circle class="st31" cx="300.2" cy="252.2" r="1.2"/>
<circle class="st32" cx="292.6" cy="265" r="1.2"/>
<circle class="st33" cx="297.7" cy="297.5" r="1.2"/>
<circle class="st34" cx="316.2" cy="305.4" r="1.2"/>
<circle class="st35" cx="297.7" cy="323.3" r="1.2"/>
<path class="st36" d="M288.5,234.5c0,0-0.1,0-0.1,0c-0.2-0.1-0.3-0.2-0.2-0.4l4-10.9c0.1-0.2,0.2-0.3,0.4-0.2
	c0.2,0.1,0.3,0.2,0.2,0.4l-4,10.9C288.8,234.4,288.7,234.5,288.5,234.5z"/>
<path class="st37" d="M301.1,246.2c0,0-0.1,0-0.1,0c-0.2-0.1-5.1-2-7.2-4c-0.1-0.1-0.1-0.3,0-0.5c0.1-0.1,0.3-0.1,0.5,0
	c2,1.9,6.9,3.8,7,3.9c0.2,0.1,0.3,0.3,0.2,0.4C301.3,246.1,301.2,246.2,301.1,246.2z"/>
<rect x="300.4" y="223.3" class="st38" width="1.7" height="1.7"/>
<path class="st37" d="M281.9,266.3C281.8,266.3,281.8,266.3,281.9,266.3c-0.3-0.1-0.4-0.2-0.3-0.4l0.7-2.7c0-0.2,0.2-0.3,0.4-0.2
	c0.2,0,0.3,0.2,0.2,0.4l-0.7,2.7C282.1,266.2,282,266.3,281.9,266.3z"/>
<linearGradient id="SVGID_6_" gradientUnits="userSpaceOnUse" x1="284.4232" y1="290.8199" x2="286.1241" y2="290.8199">
	<stop  offset="0" style="stop-color:#96CA4F"/>
	<stop  offset="1" style="stop-color:#71983B"/>
</linearGradient>
<rect x="284.4" y="290" class="st39" width="1.7" height="1.7"/>
<g>
	<g>
		<path class="st40" d="M309.8,290c-0.1-0.2-0.2-0.4-0.4-0.5c-0.1-0.1-0.3-0.2-0.5-0.3l0,0l0,0l0.3-1.3l0,0l0,0c0,0,0.1,0,0.1,0.1
			c0.2,0.1,0.3,0.3,0.4,0.4c0,0.1,0.1,0.1,0.2,0.2c0.1,0,0.2,0,0.2,0c0.1-0.1,0.2-0.1,0.2-0.2c0-0.1,0-0.2,0-0.3
			c-0.1-0.3-0.3-0.5-0.6-0.6c-0.1-0.1-0.2-0.1-0.4-0.2l0,0l0,0l0.1-0.4c0-0.2-0.1-0.4-0.3-0.5c-0.2,0-0.4,0.1-0.5,0.3l-0.1,0.3h0
			l0,0c-0.2,0-0.3,0-0.5,0c-0.3,0.1-0.5,0.2-0.7,0.3c-0.2,0.2-0.3,0.4-0.4,0.6c-0.1,0.3,0,0.5,0.1,0.8c0.1,0.2,0.3,0.4,0.5,0.5
			c0.1,0.1,0.3,0.2,0.5,0.3l0,0c0,0,0.1,0,0.1,0.1c0,0-0.1,0-0.1-0.1l-0.3,1.4c-0.1,0-0.2-0.1-0.2-0.1c-0.2-0.1-0.3-0.3-0.5-0.6
			c-0.1-0.1-0.2-0.2-0.3-0.2c-0.1,0-0.1,0-0.2,0c-0.1,0.1-0.2,0.1-0.2,0.2c0,0.1,0,0.2,0,0.2c0.2,0.3,0.4,0.6,0.7,0.8
			c0.2,0.1,0.4,0.2,0.6,0.3v0c0.1,0,0.3,0.1,0.4,0.1c0.1,0,0.3,0,0.4,0.1l0,0c0.2,0,0.3,0,0.5,0c0.3,0,0.5-0.2,0.7-0.3
			c0.2-0.2,0.3-0.4,0.4-0.6C309.9,290.5,309.9,290.2,309.8,290z M308.7,289.9C308.7,289.9,308.7,289.9,308.7,289.9
			C308.7,289.9,308.7,289.9,308.7,289.9L308.7,289.9z M308.7,289.1c-0.1,0-0.1-0.1-0.2-0.1C308.6,289,308.6,289,308.7,289.1
			C308.7,289.1,308.7,289.1,308.7,289.1C308.7,289.1,308.7,289.1,308.7,289.1z M308.7,287.7c-0.1,0-0.2,0-0.3,0l0,0
			C308.5,287.7,308.6,287.7,308.7,287.7c0.1,0,0.1,0,0.2,0.1C308.8,287.7,308.8,287.7,308.7,287.7z M308.9,287
			c0.1,0,0.2,0.1,0.4,0.1C309.1,287.1,309,287,308.9,287c-0.1,0-0.2,0-0.3,0C308.7,287,308.8,287,308.9,287z M307.8,288.1
			c0-0.2,0.2-0.3,0.3-0.4c0.1,0,0.2,0,0.3,0l-0.2,1.1c-0.1-0.1-0.1-0.1-0.2-0.2C307.8,288.5,307.7,288.3,307.8,288.1z M308.2,289.7
			C308.3,289.7,308.3,289.7,308.2,289.7C308.3,289.7,308.3,289.7,308.2,289.7C308.2,289.7,308.2,289.7,308.2,289.7
			C308.2,289.7,308.2,289.7,308.2,289.7z M307.7,290.9c0.1,0.1,0.3,0.1,0.4,0.1c0,0,0.1,0,0.1,0c0,0-0.1,0-0.1,0
			C308,291,307.8,291,307.7,290.9z M308.7,291c-0.1,0-0.2,0-0.3,0l0,0l0.3-1.1c0.1,0.1,0.2,0.1,0.2,0.2c0.1,0.1,0.2,0.3,0.2,0.5
			C309.1,290.8,308.9,291,308.7,291z"/>
		<path class="st40" d="M307.5,291.6l-0.1,0.4c0,0.2,0.1,0.4,0.3,0.5c0.2,0,0.4-0.1,0.5-0.3l0.1-0.4c-0.1,0-0.3,0-0.4-0.1
			C307.8,291.7,307.6,291.6,307.5,291.6z"/>
	</g>
	<path class="st40" d="M307.3,293.7c-2.4-0.5-3.8-2.9-3.3-5.2s2.9-3.8,5.2-3.3c2.4,0.5,3.8,2.9,3.3,5.2
		C312,292.7,309.7,294.2,307.3,293.7z M309.1,285.8c-2-0.4-3.9,0.8-4.4,2.8c-0.4,2,0.8,3.9,2.8,4.4c2,0.4,3.9-0.8,4.4-2.8
		C312.3,288.2,311.1,286.3,309.1,285.8z"/>
</g>
<linearGradient id="SVGID_7_" gradientUnits="userSpaceOnUse" x1="363.9493" y1="225.3045" x2="350.7375" y2="299.6211">
	<stop  offset="0" style="stop-color:#004C6C;stop-opacity:0.4"/>
	<stop  offset="0.155" style="stop-color:#034E6E;stop-opacity:0.338"/>
	<stop  offset="0.2901" style="stop-color:#0E5674;stop-opacity:0.284"/>
	<stop  offset="0.4177" style="stop-color:#20627E;stop-opacity:0.2329"/>
	<stop  offset="0.5409" style="stop-color:#39748D;stop-opacity:0.1837"/>
	<stop  offset="0.6608" style="stop-color:#5A8BA0;stop-opacity:0.1357"/>
	<stop  offset="0.7782" style="stop-color:#82A7B7;stop-opacity:8.871314e-002"/>
	<stop  offset="0.8915" style="stop-color:#B0C8D1;stop-opacity:4.341507e-002"/>
	<stop  offset="1" style="stop-color:#E4ECEF;stop-opacity:0"/>
</linearGradient>
<path class="st41" d="M325.2,250.9c0,0,3.4,4.7,10,4.2l12.6-12.1l8.5,1.9l1,6l-1.4,19.9l6.1,17.4l-1.4,13.2H371l1.3-43.8l10.6,11.3
	l1.2,1.8l6.1-0.6l-6.1-18l4.4-19.3l-20.9-12.1l-18.2,8.8l-1,3.3l-11.7-3.3L325.2,250.9z"/>
<path class="st42" d="M379.9,201.6c0,0,8.7,9.5,13.6,18.8c2.3,4.4,4,7.9,5.2,10.5c1,2.2-0.5,4.6-2.8,4.9l-11.8-0.8l-17.6-15
	l-18.2,4.4l-3.7-3.6c-2.6-2.5-2.9-6.6-0.7-9.5l11.8-15.6L379.9,201.6z"/>
<path class="st20" d="M379.9,201.6l-9.1,9.2l-27.2,7c-0.6,0.2-0.9,0.9-0.5,1.5l2.3,2.8c0.2,0.2,0.5,0.4,0.8,0.3l22.9-2.8
	c2.9-0.4,5.5-2,7.1-4.5l6.5-10.2L379.9,201.6z"/>
<linearGradient id="SVGID_8_" gradientUnits="userSpaceOnUse" x1="349.9744" y1="180.6525" x2="329.5373" y2="214.7143">
	<stop  offset="0" style="stop-color:#00A98F"/>
	<stop  offset="1" style="stop-color:#275A7D"/>
</linearGradient>
<path class="st43" d="M309.4,177.4l-3.3,6.6l13.8,11.3l17.3-10.3l2.3,8l-0.5,12l3.5,5.7l0,5.1c0,0,11.3-9.1,16.5-10.8
	c5.2-1.7,21-3.3,21-3.3l-2.9-6l2-15.3v-18.5l-15.9-2.1l-14.9,2.7l-6.4,1.9l-19.6,16l-1.4,2.3L309.4,177.4z"/>
<g>
	<path class="st36" d="M314.3,216.2L314.3,216.2c0,1.2,0.7,2.4,1.7,3l23.2,15.8l1.3-0.5c0.9-0.4,1.5-1.1,1.6-2
		c0.5-2.7,0.8-8.5-3.9-12.4C331.9,214.7,318.3,211.2,314.3,216.2z"/>
	<linearGradient id="SVGID_9_" gradientUnits="userSpaceOnUse" x1="314.2886" y1="224.4268" x2="342.3891" y2="224.4268">
		<stop  offset="0" style="stop-color:#3DA5D5"/>
		<stop  offset="1" style="stop-color:#1B75BB"/>
	</linearGradient>
	<path class="st44" d="M314.3,216.2L314.3,216.2c0,1.2,0.7,2.4,1.7,3l23.2,15.8l1.3-0.5c0.9-0.4,1.5-1.1,1.6-2
		c0.5-2.7,0.8-8.5-3.9-12.4C331.9,214.7,318.3,211.2,314.3,216.2z"/>
	<path class="st36" d="M335,214.3c-7.8-5.1-16.7-5.2-19.8-0.4c-0.5,0.7-0.8,1.5-0.9,2.3c4-2.9,11.4-2.2,18.1,2.2
		c6.7,4.3,9.9,10.8,8.9,15.6c0.7-0.5,1.8-1.1,2.2-1.8C346.7,227.4,342.9,219.3,335,214.3z"/>
	<path class="st37" d="M331.8,219.5c-6.8-4.4-14.4-4.5-17.2-0.3c-0.2,0.3-0.4,0.7-0.5,1l-8.1,16.2l20.4,13.2l11.7-13.4
		c0.4-0.3,0.7-0.7,1-1.2C341.9,230.9,338.6,223.9,331.8,219.5z"/>
	<linearGradient id="SVGID_10_" gradientUnits="userSpaceOnUse" x1="306.0656" y1="232.9081" x2="340.1264" y2="232.9081">
		<stop  offset="0" style="stop-color:#98E4FF"/>
		<stop  offset="1" style="stop-color:#FFFFFF;stop-opacity:0.5"/>
	</linearGradient>
	<path class="st45" d="M331.8,219.5c-6.8-4.4-14.4-4.5-17.2-0.3c-0.2,0.3-0.4,0.7-0.5,1l-8.1,16.2l20.4,13.2l11.7-13.4
		c0.4-0.3,0.7-0.7,1-1.2C341.9,230.9,338.6,223.9,331.8,219.5z"/>
	
		<ellipse transform="matrix(0.5429 -0.8398 0.8398 0.5429 -59.5735 376.6703)" class="st36" cx="316.2" cy="243.1" rx="7.5" ry="12.1"/>
	<linearGradient id="SVGID_11_" gradientUnits="userSpaceOnUse" x1="305.2746" y1="243.0628" x2="327.2148" y2="243.0628">
		<stop  offset="0.2755" style="stop-color:#3DA5D5;stop-opacity:0.2"/>
		<stop  offset="0.9608" style="stop-color:#3DA5D5;stop-opacity:0.4837"/>
		<stop  offset="1" style="stop-color:#3DA5D5;stop-opacity:0.5"/>
	</linearGradient>
	<path class="st46" d="M320.3,236.7c5.6,3.6,8.4,9.4,6.1,12.9s-8.6,3.4-14.3-0.3c-5.6-3.6-8.4-9.4-6.1-12.9
		C308.3,233,314.7,233.1,320.3,236.7z"/>
</g>
<polygon class="st17" points="367.3,294.8 368.3,297.4 374.6,297.4 373.4,292.3 "/>
<polygon class="st17" points="382.8,249.6 379.9,252.4 387,253.9 389.3,251 "/>
<linearGradient id="SVGID_12_" gradientUnits="userSpaceOnUse" x1="363.66" y1="250.2583" x2="373.156" y2="227.5505">
	<stop  offset="0" style="stop-color:#3DA5D5"/>
	<stop  offset="1" style="stop-color:#1B75BB"/>
</linearGradient>
<path class="st47" d="M370.2,223.2l4.4,27.8v42l-8.9,2.2l-6.2-22.5c-0.4-1.5-0.6-3.1-0.6-4.7v-17l-12.4-28.5l20-2.5L370.2,223.2z"/>
<path class="st48" d="M377.7,254.2l1.5-1.9l7.3,1l1.4,1.7l1.8,4.8c0,0,3.6,6.1,3.9,9.2l-3.6-0.4L377.7,254.2z"/>
<linearGradient id="SVGID_13_" gradientUnits="userSpaceOnUse" x1="381.4792" y1="240.8923" x2="398.7165" y2="240.8923">
	<stop  offset="0" style="stop-color:#3DA5D5"/>
	<stop  offset="1" style="stop-color:#1B75BB"/>
</linearGradient>
<path class="st49" d="M381.5,249.8l3-16.6c0,0,4.8-5.4,8.7-3.1s5.6,3.3,5.6,3.3l-8.3,18.8l-6.4-2.4H381.5z"/>
<path class="st48" d="M367.3,296.6l0.4,1.6v6l19.4,4.7l1.1-1.3c0.6-0.8,0.5-1.9-0.2-2.5l-3.3-3.1c0,0-5.6-2.2-6.6-3.8
	c-1-1.6-2.3-3.8-2.3-3.8l-3.5,2.2L367.3,296.6z"/>
<path class="st26" d="M342.3,226.9c0,0,12.2-8.1,2.6-21.1"/>
<path class="st20" d="M377,192.9l-18.3,0l13.9-32l-4.2-0.6l-11.1,21.2l-3,0.2l-6.8-19.1l-3,0.9l7.2,32.1l-11,11.8
	c-0.5,0.5-0.6,1.2-0.4,1.9c0.4,1.3,2,1.8,3.1,0.9l13-10.5l20.9-3.9c0.6-0.1,1.1-0.6,1.2-1.2C378.6,193.7,377.9,192.9,377,192.9z
	 M355.9,191.2l-1.4-5.6h2.7L355.9,191.2z"/>
<line class="st22" x1="380.6" y1="187.7" x2="370.8" y2="213.3"/>
<linearGradient id="SVGID_14_" gradientUnits="userSpaceOnUse" x1="389.4886" y1="221.4635" x2="401.9162" y2="221.4635">
	<stop  offset="0" style="stop-color:#96CA4F"/>
	<stop  offset="1" style="stop-color:#71983B"/>
</linearGradient>
<polygon class="st50" points="389.5,213.8 401.9,218.4 397.9,229.1 "/>
<path class="st25" d="M379.1,161.8l4.5,3.3l16.9,22.9c0,0,0,9.7-3.3,18.2l-7.4-1.7L389,188l-11-8.5L379.1,161.8z"/>
<path class="st51" d="M377.7,254.2c0,0-1.8,3.5,0.9,5s3.8,2.3,5,4.4c1.2,2.1,2.9,7.3,6.4,7.9s3.6-2.5,3.6-2.5s-5.6-7.9-7.6-9.2
	s-2-1.2-2-1.2S381,251.5,377.7,254.2z"/>
<path class="st51" d="M367.7,304.1c0,0,0.5-2.9,4.4-2.5c3.8,0.4,5.4,3.8,8,4c2.5,0.2,8.5,1.6,8.5,1.6s0,0.5-1.5,1.6
	c-1.5,1.1-7.6,2.5-9.4,1.8s-5.4-4.2-7.7-4.5C367.7,305.9,367.7,304.1,367.7,304.1z"/>
<g>
	<path class="st48" d="M412.9,81.1c0-0.9,0.7-1.6,1.6-1.6h1c0.5,0,0.8-0.4,0.8-0.8v-5.9c0-0.9-0.7-1.6-1.6-1.6h-9.9
		c-0.9,0-1.6,0.7-1.6,1.6v11.5c0,0.9,0.7,1.6,1.6,1.6h7.2c0.5,0,0.8-0.4,0.8-0.8v-4H412.9z"/>
	<g id="add_2_" transform="translate(18.067542, 14.454034)">
		<g>
			<path id="Path_1_" class="st4" d="M398.3,73.6L398.3,73.6L398.3,73.6c-0.7,0-1.2-0.6-1.2-1.2c0-0.2-0.1-0.3-0.3-0.3
				c-0.2,0-0.3,0.1-0.3,0.3c0,0.9,0.6,1.6,1.5,1.8v0.6c0,0.2,0.1,0.3,0.3,0.3c0.2,0,0.3-0.1,0.3-0.3v-0.6c0.9-0.2,1.6-1,1.5-1.9
				c-0.1-0.9-0.9-1.7-1.8-1.7c-0.7,0-1.2-0.6-1.2-1.2c0-0.7,0.6-1.2,1.2-1.2c0.7,0,1.2,0.6,1.2,1.2c0,0.2,0.1,0.3,0.3,0.3
				c0.2,0,0.3-0.1,0.3-0.3c0-0.9-0.6-1.6-1.5-1.8V67c0-0.2-0.1-0.3-0.3-0.3c-0.2,0-0.3,0.1-0.3,0.3v0.6c-0.9,0.2-1.6,1-1.5,1.9
				s0.9,1.7,1.8,1.7c0.7,0,1.2,0.5,1.2,1.2S399,73.6,398.3,73.6L398.3,73.6z"/>
			<path class="st4" d="M398.3,75.4c-0.3,0-0.6-0.3-0.6-0.6v-0.4c-0.9-0.3-1.5-1.1-1.5-2c0-0.3,0.3-0.6,0.6-0.6
				c0.3,0,0.6,0.3,0.6,0.6c0,0.5,0.4,0.9,0.9,0.9v0.3v-0.3c0.5,0,0.9-0.4,0.9-0.9s-0.4-0.9-0.9-0.9c-1.1,0-2-0.9-2.1-2
				c-0.1-1,0.6-1.9,1.5-2.2V67c0-0.3,0.3-0.6,0.6-0.6c0.3,0,0.6,0.3,0.6,0.6v0.3c0.9,0.3,1.5,1.1,1.5,2c0,0.3-0.3,0.6-0.6,0.6
				c-0.3,0-0.6-0.3-0.6-0.6c0-0.5-0.4-0.9-0.9-0.9s-0.9,0.4-0.9,0.9s0.4,0.9,0.9,0.9c1.1,0,2,0.9,2.1,2c0.1,1-0.6,1.9-1.5,2.2v0.4
				C398.9,75.1,398.6,75.4,398.3,75.4z"/>
		</g>
	</g>
	<path class="st4" d="M410.9,89.1h-6.1c-2.7,0-4.8-2.2-4.8-4.8V72.8c0-2.7,2.2-4.8,4.8-4.8h9.9c2.7,0,4.8,2.2,4.8,4.8v7
		c0,0.4-0.3,0.7-0.7,0.7s-0.7-0.3-0.7-0.7v-7c0-1.9-1.5-3.4-3.4-3.4h-9.9c-1.9,0-3.4,1.5-3.4,3.4v11.5c0,1.9,1.5,3.4,3.4,3.4h6.1
		c0.4,0,0.7,0.3,0.7,0.7C411.6,88.7,411.3,89.1,410.9,89.1z"/>
	<path class="st4" d="M413.9,74.7h-8.5c-0.4,0-0.7-0.3-0.7-0.7c0-0.4,0.3-0.7,0.7-0.7h8.5c0.4,0,0.7,0.3,0.7,0.7
		C414.6,74.3,414.3,74.7,413.9,74.7z"/>
	<path class="st4" d="M413.9,77.9h-8.5c-0.4,0-0.7-0.3-0.7-0.7c0-0.4,0.3-0.7,0.7-0.7h8.5c0.4,0,0.7,0.3,0.7,0.7
		C414.6,77.6,414.3,77.9,413.9,77.9z"/>
	<path class="st4" d="M410.9,81.9h-5.5c-0.4,0-0.7-0.3-0.7-0.7c0-0.4,0.3-0.7,0.7-0.7h5.5c0.4,0,0.7,0.3,0.7,0.7
		C411.6,81.5,411.3,81.9,410.9,81.9z"/>
</g>
</svg>
