<?xml version="1.0" encoding="utf-8"?>
<!-- Generator: Adobe Illustrator 19.2.1, SVG Export Plug-In . SVG Version: 6.00 Build 0)  -->
<svg version="1.1" id="Layer_2" xmlns="http://www.w3.org/2000/svg" xmlns:xlink="http://www.w3.org/1999/xlink" x="0px" y="0px"
	 width="46px" height="46px" viewBox="0 0 46 46" style="enable-background:new 0 0 46 46;" xml:space="preserve">
<style type="text/css">
	.st0{opacity:0.12;fill:#439BC3;enable-background:new    ;}
	.st1{fill:none;stroke:#113B58;stroke-width:1.5;stroke-linecap:round;}
	.st2{opacity:0.5517;fill:#74CAC8;enable-background:new    ;}
	.st3{fill:#FFFFFF;}
	.st4{fill:#FFFFFF;stroke:#113B58;stroke-width:1.5;stroke-linecap:round;}
	.st5{fill:#74CAC8;stroke:#113B58;stroke-width:1.5;stroke-linecap:round;}
	.st6{fill:#E8F3F7;stroke:#113B58;stroke-width:1.5;stroke-linecap:round;}
	.st7{fill:none;stroke:#113B58;stroke-width:1.5;stroke-linecap:round;stroke-linejoin:round;}
</style>
<path id="Path-3_1_" class="st0" d="M41.8,24.3c-3.1,11.6-8.9,14.7-17.5,9.5c-12.9-7.9-17.1-19.3-8.8-20.1
	c3.5-0.3,18.2-7.1,23.8-3.1C42.9,13.2,42.6,18.6,41.8,24.3z"/>
<polyline class="st1" points="42.4,28.1 7.2,28.1 7.2,5.8 "/>
<path id="Combined-Shape-Copy_1_" class="st2" d="M4.2,38.9v1.3c0,0.3-0.3,0.6-0.6,0.6c-0.3,0-0.6-0.3-0.6-0.6v-1.3H1.6
	c-0.3,0-0.6-0.3-0.6-0.6c0-0.3,0.3-0.6,0.6-0.6h1.3v-1.2c0-0.3,0.3-0.6,0.6-0.6c0.3,0,0.6,0.3,0.6,0.6v1.2h1.2C5.7,37.7,6,38,6,38.3
	c0,0.3-0.3,0.6-0.6,0.6H4.2z"/>
<path class="st3" d="M15.9,28.1h-4V17.4c0-0.6,0.4-1,1-1h2c0.6,0,1,0.4,1,1V28.1z"/>
<path class="st4" d="M19.9,28.1h-4v-7.7h3c0.6,0,1,0.4,1,1V28.1z"/>
<path class="st5" d="M30.7,28.1h-4V11.4c0-0.6,0.4-1,1-1h2c0.6,0,1,0.4,1,1V28.1z"/>
<path class="st5" d="M34.7,28.1h-4v-7.7h3c0.6,0,1,0.4,1,1V28.1z"/>
<line class="st1" x1="15.9" y1="28.7" x2="15.9" y2="34.5"/>
<line class="st1" x1="30.7" y1="28.7" x2="30.7" y2="34.5"/>
<circle class="st6" cx="15.9" cy="35.5" r="3"/>
<circle class="st5" cx="30.7" cy="35.5" r="3"/>
<polyline class="st7" points="5.2,6.2 7.2,4.2 9.2,6.2 "/>
<polyline class="st7" points="41.4,26.1 43.4,28.1 41.4,30.1 "/>
<path class="st6" d="M15.9,28.1h-4V17.4c0-0.6,0.4-1,1-1h2c0.6,0,1,0.4,1,1V28.1z"/>
<path id="Combined-Shape_3_" class="st2" d="M42.8,7.6v1.5c0,0.4-0.3,0.8-0.8,0.8s-0.8-0.3-0.8-0.8V7.6h-1.6c-0.4,0-0.8-0.3-0.8-0.8
	s0.3-0.8,0.8-0.8h1.6V4.6c0-0.4,0.3-0.7,0.8-0.7s0.8,0.3,0.8,0.7v1.5h1.4c0.4,0,0.8,0.3,0.8,0.8s-0.3,0.8-0.8,0.8H42.8z"/>
</svg>
