<svg id="Layer_1" data-name="Layer 1" xmlns="http://www.w3.org/2000/svg" viewBox="0 0 700 500"><defs><style>.cls-1,.cls-2{fill:#fff;}.cls-2{stroke:#113b58;stroke-linecap:round;stroke-linejoin:round;stroke-width:12px;}.cls-2,.cls-3,.cls-4{fill-rule:evenodd;}.cls-3{fill:#113b58;}.cls-4{fill:#74cac8;}</style></defs><title>default</title><rect class="cls-1" x="-0.5" y="0.5" width="700" height="499"/><g id="Prodcut-interface"><g id="Artboard"><g id="Cloud_compass" data-name="Cloud compass"><path id="Path" class="cls-2" d="M435.5,245.35a39.42,39.42,0,0,0-12-9c-4.8-2.1-10.2-3.9-15.9-3.9h0c-7.2-24-30.3-42.9-57.6-42.9s-50.4,18.9-57.6,42.9h0c-21.3,0-38.4,18-38.4,39s17.1,39,38.4,39H407.6a38.63,38.63,0,0,0,27.9-65.1Z"/><g id="Group"><polygon class="cls-3" points="323 283.45 336.5 242.95 363.5 269.95 323 283.45"/><polygon class="cls-4" points="336.5 242.95 377 229.45 363.5 269.95 336.5 242.95"/><circle id="Oval" class="cls-1" cx="350" cy="256.45" r="4.8"/></g></g></g></g></svg>