<?xml version="1.0" encoding="UTF-8"?>
<svg width="281px" height="264px" viewBox="0 0 281 264" version="1.1" xmlns="http://www.w3.org/2000/svg" xmlns:xlink="http://www.w3.org/1999/xlink">
    <!-- Generator: Sketch 52.5 (67469) - http://www.bohemiancoding.com/sketch -->
    <title>Group 13</title>
    <desc>Created with Sketch.</desc>
    <defs>
        <linearGradient x1="50%" y1="100%" x2="50%" y2="19.8032923%" id="linearGradient-1">
            <stop stop-color="#095A8C" offset="0%"></stop>
            <stop stop-color="#197FBB" offset="100%"></stop>
        </linearGradient>
        <linearGradient x1="50%" y1="67.5012807%" x2="50%" y2="-34.0825869%" id="linearGradient-2">
            <stop stop-color="#09669E" offset="0%"></stop>
            <stop stop-color="#29BDFF" offset="100%"></stop>
        </linearGradient>
        <linearGradient x1="50%" y1="100%" x2="50%" y2="3.061617e-15%" id="linearGradient-3">
            <stop stop-color="#0F5381" offset="0%"></stop>
            <stop stop-color="#138CD5" offset="100%"></stop>
        </linearGradient>
        <linearGradient x1="50%" y1="-85.6019331%" x2="50%" y2="83.676283%" id="linearGradient-4">
            <stop stop-color="#3593DB" offset="0%"></stop>
            <stop stop-color="#11446A" offset="100%"></stop>
        </linearGradient>
        <linearGradient x1="-14.5408163%" y1="76.0663954%" x2="100%" y2="30.8851652%" id="linearGradient-5">
            <stop stop-color="#093453" offset="0%"></stop>
            <stop stop-color="#0E72AF" offset="100%"></stop>
        </linearGradient>
        <linearGradient x1="47.4089592%" y1="-31.9036668%" x2="50%" y2="100%" id="linearGradient-6">
            <stop stop-color="#B2E5FF" offset="0%"></stop>
            <stop stop-color="#67ACE1" offset="100%"></stop>
        </linearGradient>
        <linearGradient x1="100%" y1="50%" x2="0%" y2="50%" id="linearGradient-7">
            <stop stop-color="#C1E7F7" offset="0%"></stop>
            <stop stop-color="#4A9BC2" offset="100%"></stop>
        </linearGradient>
        <linearGradient x1="29.6938004%" y1="0%" x2="74.6912802%" y2="100%" id="linearGradient-8">
            <stop stop-color="#E4F7FF" offset="0%"></stop>
            <stop stop-color="#B8E3F6" offset="100%"></stop>
        </linearGradient>
        <linearGradient x1="73.1173632%" y1="0%" x2="50%" y2="100%" id="linearGradient-9">
            <stop stop-color="#D3BDAB" offset="0%"></stop>
            <stop stop-color="#A78872" offset="100%"></stop>
        </linearGradient>
        <linearGradient x1="69.9766953%" y1="40.3317323%" x2="24.8000774%" y2="73.2011736%" id="linearGradient-10">
            <stop stop-color="#DFCFC1" offset="0%"></stop>
            <stop stop-color="#AB8367" offset="100%"></stop>
        </linearGradient>
        <linearGradient x1="85.1071562%" y1="30.4950391%" x2="34.3852533%" y2="63.1453044%" id="linearGradient-11">
            <stop stop-color="#D3BDAB" offset="0%"></stop>
            <stop stop-color="#A78872" offset="100%"></stop>
        </linearGradient>
        <linearGradient x1="95.7734023%" y1="50%" x2="2.60792991%" y2="50%" id="linearGradient-12">
            <stop stop-color="#1776BF" offset="0%"></stop>
            <stop stop-color="#59B4DD" offset="100%"></stop>
        </linearGradient>
        <linearGradient x1="100%" y1="50%" x2="50%" y2="59.2381077%" id="linearGradient-13">
            <stop stop-color="#1878C0" offset="0%"></stop>
            <stop stop-color="#5FBCE2" offset="100%"></stop>
        </linearGradient>
        <linearGradient x1="50%" y1="68.3270264%" x2="50%" y2="3.061617e-15%" id="linearGradient-14">
            <stop stop-color="#E87B9F" offset="0%"></stop>
            <stop stop-color="#FFC4D8" offset="100%"></stop>
        </linearGradient>
    </defs>
    <g id="Page-1" stroke="none" stroke-width="1" fill="none" fill-rule="evenodd">
        <g id="Idle-Resources" transform="translate(-113.000000, -274.000000)">
            <g id="Group-13" transform="translate(92.000000, 104.000000)">
                <g id="girl" transform="translate(161.718164, 301.229478) rotate(-5.000000) translate(-161.718164, -301.229478) translate(11.718164, 160.229478)">
                    <g id="Group-10" transform="translate(-0.000000, 0.000000)">
                        <g id="Group-15" transform="translate(54.000000, 72.000000)">
                            <path d="M56.9169751,22.9369705 L121.767442,21.6113629 C124.281942,21.559964 126.361793,23.5675595 126.41292,26.0954531 C126.413547,26.126471 126.413861,26.1574946 126.413861,26.188519 L126.413861,80.8837619 L122.65795,91.9764178 L92.3391581,114.071255 C90.5801258,115.35315 88.2140902,115.401671 86.4045227,114.192956 L53.1441239,91.9764178 C52.6758765,51.4611918 52.4417528,30.2188 52.4417528,28.2492427 C52.4417528,27.9391138 52.4475577,27.6345513 52.4591674,27.3355553 L52.4591644,27.3355552 C52.553174,24.9144434 54.5073549,22.9862256 56.9169751,22.9369705 Z" id="Rectangle" fill="url(#linearGradient-1)" transform="translate(89.427807, 68.338786) rotate(5.000000) translate(-89.427807, -68.338786) "></path>
                            <path d="M59.4563581,23.3038938 L91.106439,4.66818528 C92.8201505,3.65914434 95.9094184,3.8159204 98.0065121,5.01835442 L127.624079,22.0005096 C129.721172,23.2029436 130.031965,24.9956983 128.318253,26.0047392 L96.6681725,44.6404477 C94.9544609,45.6494887 91.865193,45.4927125 89.7680995,44.2902786 L60.1505329,27.3081234 C58.0534393,26.1056894 57.7426467,24.3129347 59.4563581,23.3038938 Z" id="Rectangle" fill="url(#linearGradient-2)" transform="translate(93.887306, 24.654316) rotate(5.000000) translate(-93.887306, -24.654316) "></path>
                            <path d="M71.9706602,22.3208657 L91.7766212,13.5512334 C92.8252461,12.9426055 94.7155779,13.0371688 95.9987955,13.7624465 L114.859516,21.9066376 C115.548346,22.2959658 115.184565,24.8869092 115.220922,25.3532443 C115.252294,25.7556427 115.032361,26.1389836 114.546636,26.4209008 L95.1798617,37.6614869 C94.1312368,38.2701148 92.2409049,38.1755514 90.9576873,37.4502737 L72.834614,27.207069 C72.0981516,26.7908187 71.7217183,26.2572863 71.732868,25.7631439 C71.7411456,25.3962889 71.5238606,22.5801908 71.9706602,22.3208657 Z" id="Rectangle-Copy-6" fill="#104F7A" transform="translate(93.486062, 25.606360) rotate(5.000000) translate(-93.486062, -25.606360) "></path>
                            <path d="M72.6955703,21.5256398 L92.062345,10.2850537 C93.1109699,9.67642584 95.0013017,9.77098918 96.2845193,10.4962668 L114.407593,20.7394715 C115.69081,21.4647492 115.880985,22.5460933 114.83236,23.1547212 L95.4655855,34.3953072 C94.4169606,35.0039351 92.5266287,34.9093717 91.2434111,34.1840941 L73.1203378,23.9408894 C71.8371202,23.2156117 71.6469453,22.1342677 72.6955703,21.5256398 Z" id="Rectangle-Copy-7" fill="url(#linearGradient-3)" transform="translate(93.763965, 22.340180) rotate(5.000000) translate(-93.763965, -22.340180) "></path>
                            <path d="M80.2799001,21.506036 L92.998379,14.1109136 C93.6870282,13.7105005 94.9284402,13.7727133 95.7711502,14.2498696 L107.67287,20.9888201 C108.51558,21.4659765 108.640471,22.177387 107.951822,22.5778001 L95.2333429,29.9729225 C94.5446937,30.3733356 93.3032818,30.3111228 92.4605717,29.8339665 L80.5588519,23.0950161 C79.7161419,22.6178597 79.5912509,21.9064491 80.2799001,21.506036 Z" id="Rectangle-Copy-5" fill="url(#linearGradient-4)" transform="translate(94.115861, 22.041918) rotate(5.000000) translate(-94.115861, -22.041918) "></path>
                            <path d="M55.4834452,26.7991821 L85.3430943,43.8163278 C87.1355974,44.8378833 88.5887083,47.4270594 88.5887083,49.5994144 L88.5887083,110.173725 C88.5887083,112.34608 87.1355974,113.278988 85.3430943,112.257432 L55.4834452,95.2402868 C53.690942,94.2187316 52.2378311,91.6295548 52.2378311,89.4572004 L52.2378311,28.8828892 C52.2378311,26.7105341 53.690942,25.7776267 55.4834452,26.7991821 Z" id="Rectangle" fill="url(#linearGradient-5)" transform="translate(70.413270, 69.528307) rotate(5.000000) translate(-70.413270, -69.528307) "></path>
                            <path d="M92.9893017,30.0805193 L122.848951,47.097665 C124.641454,48.1192204 126.094565,50.7083965 126.094565,52.8807516 L126.094565,113.455062 C126.094565,115.627418 124.641454,116.560324 122.848951,115.538769 L92.9893017,98.5216238 C91.1967986,97.5000683 89.7436877,94.9108922 89.7436877,92.7385372 L89.7436877,32.1642264 C89.7436877,29.9918713 91.1967986,29.0589639 92.9893017,30.0805193 Z" id="Rectangle" fill="url(#linearGradient-5)" transform="translate(107.919126, 72.809644) scale(-1, 1) rotate(-5.000000) translate(-107.919126, -72.809644) "></path>
                            <path d="M8.73881391,45.8250632 L73.5892807,44.4994556 C76.1037808,44.4480566 78.1836321,46.4556522 78.2347586,48.9835458 C78.2353859,49.0145637 78.2356996,49.0455873 78.2356996,49.0766116 L78.2356996,103.771855 L74.4797889,114.86451 L44.160997,136.959347 C42.4019647,138.241243 40.035929,138.289763 38.2263615,137.081049 L4.96596277,114.86451 C4.49771533,74.3492845 4.26359161,53.1068927 4.26359161,51.1373354 C4.26359161,50.8272065 4.26939648,50.522644 4.28100623,50.223648 L4.28100327,50.2236479 C4.37501283,47.8025361 6.32919378,45.8743183 8.73881391,45.8250632 Z" id="Rectangle" fill="url(#linearGradient-1)" transform="translate(41.249646, 91.226879) rotate(5.000000) translate(-41.249646, -91.226879) "></path>
                            <path d="M11.278197,46.1919865 L42.9282778,27.556278 C44.6419893,26.547237 47.7312572,26.7040131 49.8283509,27.9064471 L79.4459174,44.8886022 C81.543011,46.0910363 81.8538036,47.8837909 80.1400922,48.8928319 L48.4900113,67.5285404 C46.7762998,68.5375814 43.6870319,68.3808052 41.5899383,67.1783713 L11.9723718,50.1962161 C9.87527815,48.9937821 9.5644855,47.2010274 11.278197,46.1919865 Z" id="Rectangle" fill="url(#linearGradient-2)" transform="translate(45.709145, 47.542409) rotate(5.000000) translate(-45.709145, -47.542409) "></path>
                            <path d="M23.792499,45.2089584 L43.59846,36.439326 C44.647085,35.8306982 46.5374167,35.9252615 47.8206343,36.6505392 L66.6813551,44.7947303 C67.3701848,45.1840585 67.0064035,47.7750018 67.0427605,48.241337 C67.0741327,48.6437354 66.8541995,49.0270763 66.3684752,49.3089935 L47.0017006,60.5495796 C45.9530756,61.1582075 44.0627437,61.0636441 42.7795261,60.3383664 L24.6564528,50.0951617 C23.9199904,49.6789114 23.5435572,49.145379 23.5547069,48.6512365 C23.5629845,48.2843816 23.3456995,45.4682834 23.792499,45.2089584 Z" id="Rectangle-Copy-6" fill="#104F7A" transform="translate(45.307901, 48.494453) rotate(5.000000) translate(-45.307901, -48.494453) "></path>
                            <path d="M24.5174091,44.4137325 L43.8841838,33.1731464 C44.9328088,32.5645185 46.8231406,32.6590819 48.1063581,33.3843595 L66.2294315,43.6275642 C67.5126491,44.3528419 67.7028239,45.434186 66.6541991,46.0428139 L47.2874244,57.2833999 C46.2387994,57.8920277 44.3484675,57.7974644 43.06525,57.0721868 L24.9421766,46.8289821 C23.6589591,46.1037044 23.4687842,45.0223604 24.5174091,44.4137325 Z" id="Rectangle-Copy-7" fill="url(#linearGradient-3)" transform="translate(45.585804, 45.228273) rotate(5.000000) translate(-45.585804, -45.228273) "></path>
                            <path d="M32.1017389,44.3941287 L44.8202178,36.9990063 C45.508867,36.5985932 46.750279,36.6608059 47.592989,37.1379623 L59.4947089,43.8769128 C60.3374189,44.3540691 60.4623099,45.0654797 59.7736607,45.4658927 L47.0551818,52.8610152 C46.3665326,53.2614282 45.1251206,53.1992155 44.2824106,52.7220591 L32.3806907,45.9831087 C31.5379808,45.5059524 31.4130897,44.7945418 32.1017389,44.3941287 Z" id="Rectangle-Copy-5" fill="url(#linearGradient-4)" transform="translate(45.937700, 44.930011) rotate(5.000000) translate(-45.937700, -44.930011) "></path>
                            <path d="M7.305284,49.6872748 L37.1649331,66.7044205 C38.9574363,67.7259759 40.4105472,70.315152 40.4105472,72.4875071 L40.4105472,133.061818 C40.4105472,135.234173 38.9574363,136.167081 37.1649331,135.145525 L7.305284,118.12838 C5.51278087,117.106824 4.05966997,114.517647 4.05966997,112.345293 L4.05966997,51.7709819 C4.05966997,49.5986268 5.51278087,48.6657194 7.305284,49.6872748 Z" id="Rectangle" fill="url(#linearGradient-5)" transform="translate(22.235109, 92.416400) rotate(5.000000) translate(-22.235109, -92.416400) "></path>
                            <path d="M44.8111405,52.968612 L74.6707897,69.9857577 C76.4632928,71.0073131 77.9164037,73.5964891 77.9164037,75.7688443 L77.9164037,136.343155 C77.9164037,138.51551 76.4632928,139.448417 74.6707897,138.426862 L44.8111405,121.409716 C43.0186374,120.388161 41.5655265,117.798985 41.5655265,115.62663 L41.5655265,55.052319 C41.5655265,52.879964 43.0186374,51.9470565 44.8111405,52.968612 Z" id="Rectangle" fill="url(#linearGradient-5)" transform="translate(59.740965, 95.697737) scale(-1, 1) rotate(-5.000000) translate(-59.740965, -95.697737) "></path>
                            <path d="M100.388726,53.8433915 L165.239193,52.5177839 C167.753693,52.466385 169.833544,54.4739806 169.884671,57.0018741 C169.885298,57.0328921 169.885612,57.0639157 169.885612,57.09494 L169.885612,111.790183 L166.129701,122.882839 L135.810909,144.977676 C134.051877,146.259571 131.685841,146.308092 129.876274,145.099377 L96.615875,122.882839 C96.1476276,82.3676129 95.9135038,61.1252211 95.9135038,59.1556637 C95.9135038,58.8455348 95.9193087,58.5409723 95.9309185,58.2419763 L95.9309155,58.2419762 C96.0249251,55.8208644 97.979106,53.8926466 100.388726,53.8433915 Z" id="Rectangle" fill="url(#linearGradient-1)" transform="translate(132.899558, 99.245207) rotate(5.000000) translate(-132.899558, -99.245207) "></path>
                            <path d="M102.928109,54.2103148 L134.57819,35.5746063 C136.291902,34.5655654 139.381169,34.7223414 141.478263,35.9247754 L171.09583,52.9069306 C173.192923,54.1093646 173.503716,55.9021193 171.790004,56.9111602 L140.139924,75.5468687 C138.426212,76.5559097 135.336944,76.3991336 133.239851,75.1966996 L103.622284,58.2145444 C101.52519,57.0121104 101.214398,55.2193557 102.928109,54.2103148 Z" id="Rectangle" fill="url(#linearGradient-2)" transform="translate(137.359057, 55.560738) rotate(5.000000) translate(-137.359057, -55.560738) "></path>
                            <path d="M115.442411,53.2272867 L135.248372,44.4576544 C136.296997,43.8490265 138.187329,43.9435899 139.470547,44.6688675 L158.331267,52.8130587 C159.020097,53.2023868 158.656316,55.7933302 158.692673,56.2596653 C158.724045,56.6620637 158.504112,57.0454047 158.018387,57.3273218 L138.651613,68.5679079 C137.602988,69.1765358 135.712656,69.0819724 134.429438,68.3566947 L116.306365,58.11349 C115.569903,57.6972398 115.193469,57.1637073 115.204619,56.6695649 C115.212897,56.3027099 114.995612,53.4866118 115.442411,53.2272867 Z" id="Rectangle-Copy-6" fill="#104F7A" transform="translate(136.957813, 56.512781) rotate(5.000000) translate(-136.957813, -56.512781) "></path>
                            <path d="M116.167321,52.4320608 L135.534096,41.1914747 C136.582721,40.5828469 138.473053,40.6774102 139.75627,41.4026879 L157.879344,51.6458925 C159.162561,52.3711702 159.352736,53.4525143 158.304111,54.0611422 L138.937337,65.3017282 C137.888712,65.9103561 135.99838,65.8157928 134.715162,65.0905151 L116.592089,54.8473104 C115.308871,54.1220327 115.118696,53.0406887 116.167321,52.4320608 Z" id="Rectangle-Copy-7" fill="url(#linearGradient-3)" transform="translate(137.235716, 53.246601) rotate(5.000000) translate(-137.235716, -53.246601) "></path>
                            <path d="M123.751651,52.412457 L136.47013,45.0173346 C137.158779,44.6169215 138.400191,44.6791343 139.242901,45.1562906 L151.144621,51.8952411 C151.987331,52.3723975 152.112222,53.083808 151.423573,53.4842211 L138.705094,60.8793435 C138.016445,61.2797566 136.775033,61.2175438 135.932323,60.7403875 L124.030603,54.0014371 C123.187893,53.5242807 123.063002,52.8128701 123.751651,52.412457 Z" id="Rectangle-Copy-5" fill="url(#linearGradient-4)" transform="translate(137.587612, 52.948339) rotate(5.000000) translate(-137.587612, -52.948339) "></path>
                            <path d="M98.9551962,57.7056032 L128.814845,74.7227488 C130.607348,75.7443043 132.060459,78.3334804 132.060459,80.5058354 L132.060459,141.080146 C132.060459,143.252501 130.607348,144.185409 128.814845,143.163853 L98.9551962,126.146708 C97.1626931,125.125153 95.7095822,122.535976 95.7095822,120.363621 L95.7095822,59.7893103 C95.7095822,57.6169552 97.1626931,56.6840477 98.9551962,57.7056032 Z" id="Rectangle" fill="url(#linearGradient-5)" transform="translate(113.885021, 100.434728) rotate(5.000000) translate(-113.885021, -100.434728) "></path>
                            <path d="M136.461053,60.9869403 L166.320702,78.004086 C168.113205,79.0256415 169.566316,81.6148175 169.566316,83.7871726 L169.566316,144.361483 C169.566316,146.533839 168.113205,147.466745 166.320702,146.44519 L136.461053,129.428045 C134.66855,128.406489 133.215439,125.817313 133.215439,123.644958 L133.215439,63.0706474 C133.215439,60.8982923 134.66855,59.9653849 136.461053,60.9869403 Z" id="Rectangle" fill="url(#linearGradient-5)" transform="translate(151.390877, 103.716065) scale(-1, 1) rotate(-5.000000) translate(-151.390877, -103.716065) "></path>
                            <path d="M52.1234092,77.7276789 L116.973876,76.4020713 C119.488376,76.3506724 121.568227,78.3582679 121.619354,80.8861615 C121.619981,80.9171794 121.620295,80.948203 121.620295,80.9792274 L121.620295,135.67447 L117.864384,146.767126 L87.5455923,168.861963 C85.78656,170.143859 83.4205243,170.192379 81.6109569,168.983664 L48.3505581,146.767126 C47.8823106,106.2519 47.6481869,85.0095084 47.6481869,83.0399511 C47.6481869,82.7298222 47.6539918,82.4252597 47.6656015,82.1262637 L47.6655986,82.1262636 C47.7596081,79.7051518 49.7137891,77.776934 52.1234092,77.7276789 Z" id="Rectangle" fill="url(#linearGradient-1)" transform="translate(84.634241, 123.129495) rotate(5.000000) translate(-84.634241, -123.129495) "></path>
                            <path d="M54.6627923,78.0946022 L86.3128731,59.4588937 C88.0265846,58.4498527 91.1158526,58.6066288 93.2129462,59.8090628 L122.830513,76.791218 C124.927606,77.993652 125.238399,79.7864066 123.524687,80.7954476 L91.8746066,99.4311561 C90.1608951,100.440197 87.0716272,100.283421 84.9745336,99.080987 L55.3569671,82.0988318 C53.2598735,80.8963978 52.9490808,79.1036431 54.6627923,78.0946022 Z" id="Rectangle" fill="url(#linearGradient-2)" transform="translate(89.093740, 79.445025) rotate(5.000000) translate(-89.093740, -79.445025) "></path>
                            <path d="M67.1770944,77.1115741 L86.9830553,68.3419418 C88.0316803,67.7333139 89.9220121,67.8278772 91.2052296,68.5531549 L110.06595,76.697346 C110.75478,77.0866742 110.390999,79.6776176 110.427356,80.1439527 C110.458728,80.5463511 110.238795,80.929692 109.753071,81.2116092 L90.3862959,92.4521953 C89.3376709,93.0608232 87.447339,92.9662598 86.1641215,92.2409821 L68.0410481,81.9977774 C67.3045857,81.5815271 66.9281525,81.0479947 66.9393022,80.5538522 C66.9475798,80.1869973 66.7302948,77.3708992 67.1770944,77.1115741 Z" id="Rectangle-Copy-6" fill="#104F7A" transform="translate(88.692496, 80.397069) rotate(5.000000) translate(-88.692496, -80.397069) "></path>
                            <path d="M67.9020044,76.3163482 L87.2687791,65.0757621 C88.3174041,64.4671342 90.2077359,64.5616976 91.4909535,65.2869752 L109.614027,75.5301799 C110.897244,76.2554576 111.087419,77.3368017 110.038794,77.9454296 L90.6720197,89.1860156 C89.6233947,89.7946435 87.7330629,89.7000801 86.4498453,88.9748025 L68.326772,78.7315978 C67.0435544,78.0063201 66.8533795,76.9249761 67.9020044,76.3163482 Z" id="Rectangle-Copy-7" fill="url(#linearGradient-3)" transform="translate(88.970399, 77.130889) rotate(5.000000) translate(-88.970399, -77.130889) "></path>
                            <path d="M75.4863343,76.2967444 L88.2048131,68.901622 C88.8934624,68.5012089 90.1348743,68.5634216 90.9775844,69.040578 L102.879304,75.7795285 C103.722014,76.2566849 103.846905,76.9680954 103.158256,77.3685084 L90.4397771,84.7636309 C89.7511279,85.164044 88.5097159,85.1018312 87.6670059,84.6246748 L75.765286,77.8857244 C74.9225761,77.4085681 74.7976851,76.6971575 75.4863343,76.2967444 Z" id="Rectangle-Copy-5" fill="url(#linearGradient-4)" transform="translate(89.322295, 76.832626) rotate(5.000000) translate(-89.322295, -76.832626) "></path>
                            <path d="M50.6898793,81.5898905 L80.5495284,98.6070362 C82.3420316,99.6285917 83.7951425,102.217768 83.7951425,104.390123 L83.7951425,164.964433 C83.7951425,167.136789 82.3420316,168.069696 80.5495284,167.04814 L50.6898793,150.030995 C48.8973762,149.00944 47.4442653,146.420263 47.4442653,144.247909 L47.4442653,83.6735976 C47.4442653,81.5012425 48.8973762,80.5683351 50.6898793,81.5898905 Z" id="Rectangle" fill="url(#linearGradient-5)" transform="translate(65.619704, 124.319016) rotate(5.000000) translate(-65.619704, -124.319016) "></path>
                            <path d="M88.1957359,84.8712277 L118.055385,101.888373 C119.847888,102.909929 121.300999,105.499105 121.300999,107.67146 L121.300999,168.245771 C121.300999,170.418126 119.847888,171.351033 118.055385,170.329478 L88.1957359,153.312332 C86.4032327,152.290777 84.9501218,149.701601 84.9501218,147.529246 L84.9501218,86.9549348 C84.9501218,84.7825797 86.4032327,83.8496722 88.1957359,84.8712277 Z" id="Rectangle" fill="url(#linearGradient-5)" transform="translate(103.125560, 127.600353) scale(-1, 1) rotate(-5.000000) translate(-103.125560, -127.600353) "></path>
                        </g>
                        <path d="M141.252741,271.13612 C213.049759,271.13612 271.252741,212.933138 271.252741,141.13612 C271.252741,69.339103 213.049759,11.1361205 141.252741,11.1361205 C69.4557238,11.1361205 11.2527413,69.339103 11.2527413,141.13612 C11.2527413,212.933138 69.4557238,271.13612 141.252741,271.13612 Z" id="Oval" stroke="#FFFFFF" stroke-width="3" stroke-linecap="round" stroke-dasharray="10,10" transform="translate(141.252741, 141.136120) rotate(5.000000) translate(-141.252741, -141.136120) "></path>
                        <g id="Group-16" transform="translate(145.382504, 33.239207)">
                            <circle id="Oval-Copy-20" stroke="url(#linearGradient-6)" stroke-width="6" transform="translate(34.176829, 37.412376) scale(-1, 1) rotate(-6.000000) translate(-34.176829, -37.412376) " cx="34.1768287" cy="37.4123756" r="31"></circle>
                            <path d="M41.8390705,88.8109235 C39.6299315,88.8109235 37.8390705,87.0200625 37.8390705,84.8109235 C37.8390705,82.6017845 39.6299315,80.8109235 41.8390705,80.8109235 L95.9688375,80.8109235 C98.1779765,80.8109235 99.9688375,82.6017845 99.9688375,84.8109235 C99.9688375,87.0200625 98.1779765,88.8109235 95.9688375,88.8109235 L41.8390705,88.8109235 Z" id="Line-9" fill="url(#linearGradient-7)" transform="translate(68.903954, 84.810924) scale(-1, 1) rotate(-54.000000) translate(-68.903954, -84.810924) "></path>
                            <circle id="Oval-Copy-19" stroke="url(#linearGradient-8)" stroke-width="6" transform="translate(37.454934, 34.758095) scale(-1, 1) rotate(-6.000000) translate(-37.454934, -34.758095) " cx="37.4549342" cy="34.7580952" r="31"></circle>
                            <path d="M81.0783596,99.7774356 C82.2027821,99.7750452 82.4377384,98.9458861 83.0078507,97.6289347 C83.3301794,96.88436 84.131358,96.0870051 83.96488,94.4870977 C83.798402,92.8871903 84.2783178,92.121162 83.9067815,91.3411631 C83.707484,90.9227603 82.5897839,94.1015548 82.2313648,94.2100186 C81.9872792,94.2838831 82.1449986,92.9467598 82.3562938,90.6251882 C82.4128497,90.0037891 82.251696,88.667945 81.8334224,88.9495644 C79.8662302,90.274055 79.0352313,90.0086292 79.0296183,92.6418328 C79.0267729,93.9767013 78.8681114,97.2835955 79.4571696,98.1478188 C80.0301061,98.9883895 80.2104971,99.7792807 81.0783596,99.7774356 Z" id="Oval" fill="url(#linearGradient-9)" transform="translate(81.529926, 94.344262) scale(-1, 1) rotate(31.000000) translate(-81.529926, -94.344262) "></path>
                            <path d="M82.7077387,116.294095 C86.2442883,113.962168 88.9168873,112.596439 90.7255358,112.196909 C95.0654041,111.238234 98.8469469,109.783099 102.070164,107.831503 C109.927374,103.074113 113.817147,97.0182055 115.030939,96.2382049 C115.525244,95.9205575 115.148371,96.7641434 116.353449,97.3966522 C117.558527,98.0291609 118.501195,96.9973102 118.132746,97.7987518 C117.511164,99.1508026 112.580379,105.60027 107.191584,110.144211 C103.599053,113.173505 99.584514,115.953121 95.1479655,118.483058 C92.8325241,120.009983 90.2826103,120.345845 87.4982243,119.490646 C84.7138383,118.635447 83.1170097,117.56993 82.7077387,116.294095 Z" id="Path-2" fill="#8BC543" transform="translate(100.460663, 108.060098) scale(-1, 1) rotate(2.000000) translate(-100.460663, -108.060098) "></path>
                            <path d="M112.028386,111.833811 L112.938542,119.078058 L120.508481,118.492185 C119.08496,116.545961 118.123162,115.090778 117.623088,114.126636 C117.123014,113.162494 116.807797,111.492693 116.677437,109.117234 L112.028386,111.833811 Z" id="Path-11" fill="url(#linearGradient-10)" transform="translate(116.268433, 114.097646) scale(-1, 1) rotate(-6.000000) translate(-116.268433, -114.097646) "></path>
                            <path d="M122.797456,112.180885 C125.908423,112.180885 127.915735,110.176823 126.677671,106.37337 C125.439606,102.569917 122.447949,99.0534857 119.136958,100.127426 C115.825968,101.201366 113.44945,106.458999 114.687515,110.262452 C115.925579,114.065905 119.686489,112.180885 122.797456,112.180885 Z" id="Combined-Shape" fill="url(#linearGradient-11)" transform="translate(120.701453, 106.289725) scale(-1, 1) rotate(-5.000000) translate(-120.701453, -106.289725) "></path>
                            <path d="M114.489376,107.042193 C114.262844,106.884276 114.20722,106.572618 114.365137,106.346086 C114.523054,106.119554 114.834712,106.06393 115.061244,106.221847 C115.594389,106.593505 116.285205,106.701137 117.16114,106.527575 C117.210386,106.517817 117.395783,107.500771 117.327711,107.513894 C116.798467,107.615922 116.305321,107.635421 115.851166,107.570584 C115.348081,107.498761 114.892841,107.32345 114.489376,107.042193 Z" id="Line-6" fill="#C08574" transform="translate(115.808909, 106.870024) scale(-1, 1) rotate(-6.000000) translate(-115.808909, -106.870024) "></path>
                            <rect id="Rectangle" fill="#1B7BA4" transform="translate(118.069451, 102.560696) scale(-1, 1) rotate(-6.000000) translate(-118.069451, -102.560696) " x="117.569451" y="102.060696" width="1" height="1"></rect>
                            <path d="M74.2320071,104.015824 C75.9921527,104.012082 77.4235828,101.874416 77.4291958,99.2412121 C77.4348088,96.6080085 76.952795,96.8321177 77.201381,94.3396522 C77.3093706,93.2568871 74.8822931,93.7172274 74.50002,96.3371189 C74.2989524,97.7151269 73.4815063,98.4211143 73.28061,98.8323385 C72.8957534,99.6201196 71.160935,95.4329003 71.2508281,97.6380975 C71.3578708,100.263995 72.4718616,104.019566 74.2320071,104.015824 Z" id="Oval-Copy" fill="url(#linearGradient-9)" transform="translate(74.338351, 98.904912) scale(-1, 1) rotate(23.000000) translate(-74.338351, -98.904912) "></path>
                            <path d="M108.553463,150.527152 C101.441547,150.663756 99.3730908,153.876364 102.348093,160.164975 C106.810595,169.597893 121.665809,170.505561 123.344843,173.81633 C124.464198,176.023509 128.350741,185.300007 135.004471,201.645822 L140.918124,203.374422 C135.841979,189.326788 133.307289,180.947313 133.314056,178.235997 C133.320823,175.524681 127.200554,165.95339 114.953249,149.522123 L108.553463,150.527152 Z" id="Path-5-Copy" fill="url(#linearGradient-12)" transform="translate(120.975031, 176.448273) scale(-1, 1) rotate(42.000000) translate(-120.975031, -176.448273) "></path>
                            <polygon id="Path-6" fill="#D8D8D8" transform="translate(125.119107, 210.619124) scale(-1, 1) rotate(-6.000000) translate(-125.119107, -210.619124) " points="129.398131 218.511227 126.751885 208.594576 123.77617 202.727021 120.840084 204.140767 122.939926 210.619124"></polygon>
                            <path d="M130.287493,218.3665 C130.018867,219.325556 129.732608,220.399674 126.432155,216.478399 C123.131702,212.557125 121.368044,208.543422 120.872587,207.180633 C120.542283,206.272107 120.856848,205.291813 121.816282,204.239752 C123.051583,205.802317 124.025755,207.707546 124.738798,209.955439 C125.128233,211.183145 126.66603,211.683566 127.733487,213.242845 C128.620514,214.538561 130.556119,217.407444 130.287493,218.3665 Z" id="Path-7" fill="#A4A1A1" transform="translate(125.529268, 211.752725) scale(-1, 1) rotate(-6.000000) translate(-125.529268, -211.752725) "></path>
                            <path d="M106.429092,146.497719 C101.435582,143.915008 100.120275,146.171482 102.483171,153.267141 C106.027515,163.910629 121.220485,165.543654 122.912349,168.867912 C124.040258,171.084084 122.852558,178.389935 119.34925,190.785463 L122.926937,196.490093 L125.325302,192.316259 C129.967973,181.435854 132.560813,174.714072 133.103824,172.150911 C134.430846,165.886999 119.657995,153.92418 114.720001,149.925471 C112.893655,148.446526 107.414187,144.050668 107.210956,143.844767 C105.294076,141.902703 105.128792,141.768859 106.715105,143.443234 L106.429092,146.497719 Z" id="Path-5" fill="url(#linearGradient-13)" transform="translate(117.266245, 169.385249) scale(-1, 1) rotate(45.000000) translate(-117.266245, -169.385249) "></path>
                            <polygon id="Path-6" fill="#D8D8D8" transform="translate(134.013187, 192.897849) scale(-1, 1) rotate(34.000000) translate(-134.013187, -192.897849) " points="138.302941 200.681967 135.650059 190.901003 132.666881 185.113732 129.723432 186.508134 133.389598 192.291529"></polygon>
                            <path d="M140.468581,199.814237 C141.079126,201.143092 136.654823,198.557259 135.008634,196.595408 C134.508498,195.99937 134.168315,193.515916 133.55479,192.565015 C132.148906,190.386037 130.432263,189.367403 130.086468,188.43163 C129.755335,187.535535 130.385221,186.685252 131.976126,185.880781 C132.951849,186.95057 133.608962,187.762037 133.947463,188.31518 C134.720871,189.579002 135.055774,190.959109 135.763815,191.802919 C137.523134,193.899593 139.858037,198.485383 140.468581,199.814237 Z" id="Path-7" fill="#A4A1A1" transform="translate(135.263441, 193.029821) scale(-1, 1) rotate(34.000000) translate(-135.263441, -193.029821) "></path>
                            <path d="M79.2048039,116.398612 C79.2048039,118.881381 76.6012426,119.947776 77.4267179,129.074962 C78.2521931,138.202148 75.1924582,143.541187 73.1502751,145.36833 C69.6639091,148.487585 75.1384307,149.705413 82.1449845,147.384363 C86.5243783,145.933608 91.1489192,149.635471 91.1489192,146.132771 C91.1489192,142.63007 93.5039964,129.31358 93.710533,128.315421 C94.1253279,126.310782 94.5885212,124.065974 96.1903079,123.065281 C97.7920945,122.064589 107.61726,120.309896 111.269371,117.765452 C114.921482,115.221007 125.182541,108.506411 126.427596,106.745715 C126.981032,105.963074 125.68968,106.560017 124.664635,105.282607 C123.639589,104.005198 124.031199,102.541907 123.639589,102.747653 C122.934612,103.118038 112.096367,111.603027 110.762215,112.398229 C109.87278,112.928363 107.373131,113.638987 103.263267,114.5301 C98.4471999,114.789297 95.2629551,114.663483 93.710533,114.152659 C91.3818997,113.386421 88.6165461,112.697904 87.1145857,113.44928 C85.6126253,114.200656 87.2085798,114.811106 84.4214705,115.879021 C81.6343611,116.946936 79.2048039,113.915842 79.2048039,116.398612 Z" id="Path" fill="#6BAB34" transform="translate(99.315346, 125.659903) scale(-1, 1) rotate(-6.000000) translate(-99.315346, -125.659903) "></path>
                            <polygon id="Path-12" fill="#F0CAAC" transform="translate(115.226111, 103.958517) scale(-1, 1) rotate(-6.000000) translate(-115.226111, -103.958517) " points="114.07627 102.702763 116.375953 104.328618 115.298682 105.214271"></polygon>
                            <circle id="Oval" stroke="#E87B9F" transform="translate(117.895248, 102.420293) rotate(5.000000) translate(-117.895248, -102.420293) " cx="117.895248" cy="102.420293" r="2"></circle>
                            <path d="M121.851441,96.6513361 C125.671261,95.8261408 130.858691,94.6639873 133.627691,104.955047 C135.496839,111.901783 132.138873,118.134726 133.885494,123.272918 C135.496839,128.013153 131.575455,131.21025 131.635128,133.012664 C131.818754,138.559004 136.313422,138.920588 134.851441,141.917938 C133.38946,144.915287 131.76464,146.765717 126.778795,143.990692 C121.79295,141.215667 122.124567,138.509246 117.33552,132.168914 C112.546473,125.828582 118.617615,113.783231 117.33552,104.955047 C116.053424,96.1268627 118.031621,97.4765314 121.851441,96.6513361 Z" id="Path-32" fill="#D8D8D8" transform="translate(125.304102, 120.744899) rotate(5.000000) translate(-125.304102, -120.744899) "></path>
                        </g>
                        <circle id="Oval" fill-opacity="0.07" fill="#FFFFFF" transform="translate(37.342060, 228.320510) rotate(5.000000) translate(-37.342060, -228.320510) " cx="37.34206" cy="228.32051" r="32"></circle>
                        <circle id="Oval-Copy-10" fill-opacity="0.1" fill="#FFFFFF" transform="translate(37.796579, 228.862185) rotate(5.000000) translate(-37.796579, -228.862185) " cx="37.7965795" cy="228.862185" r="24.5"></circle>
                        <circle id="Oval-Copy-9" fill="url(#linearGradient-14)" transform="translate(37.796579, 228.862185) rotate(5.000000) translate(-37.796579, -228.862185) " cx="37.7965795" cy="228.862185" r="18.5"></circle>
                        <path d="M44.7895546,224.316668 L40.2446429,228.862083 L44.7895546,233.407282 C45.4655878,234.083578 45.4655878,235.179087 44.7895546,235.855383 C44.4517749,236.193165 44.0089234,236.362185 43.5662873,236.362185 C43.1229191,236.362185 42.6800245,236.193423 42.3425032,235.855383 L37.796601,231.309667 L33.2510434,235.85534 C32.9133067,236.193122 32.4704122,236.362142 32.0273885,236.362142 C31.584494,236.362142 31.1419009,236.19338 30.8038627,235.85534 C30.1278296,235.179345 30.1278296,234.083793 30.8038627,233.407239 L35.3486453,228.86204 L30.8036044,224.316668 C30.1275712,223.64063 30.1275712,222.544863 30.8036044,221.868826 C31.4795084,221.193305 32.5746227,221.193305 33.250785,221.868826 L37.796558,226.41424 L42.3419864,221.868826 C43.018278,221.193305 44.1135215,221.193305 44.7892962,221.868826 C45.4655878,222.544863 45.4655878,223.64063 44.7895546,224.316668 Z" id="Path" fill="#FFFFFF" transform="translate(37.796579, 228.862185) rotate(5.000000) translate(-37.796579, -228.862185) "></path>
                        <path d="M176.430279,73.5824081 L173.165528,73.5824081 L177.596428,68.0089707 C178.365062,67.0425643 177.655435,65.5667831 176.430279,65.5667831 L170.057609,65.5667831 C169.232298,65.5667831 168.56382,66.2394393 168.56382,67.0699081 C168.56382,67.8995955 169.232298,68.5730331 170.057609,68.5730331 L173.323136,68.5730331 L168.89146,74.1464707 C168.123602,75.1120955 168.832453,76.5886581 170.057609,76.5886581 L176.430279,76.5886581 C177.25559,76.5886581 177.924068,75.9152207 177.924068,75.0855331 C177.924068,74.2550643 177.25559,73.5824081 176.430279,73.5824081 Z" id="Path" fill="#00A98E" transform="translate(173.243944, 71.077721) rotate(5.000000) translate(-173.243944, -71.077721) "></path>
                        <path d="M190.266622,64.3545818 L187.825099,64.3545818 L191.138719,59.802909 C191.713536,59.0144202 191.182846,57.8093593 190.266622,57.8093593 L185.500862,57.8093593 C184.883659,57.8093593 184.383742,58.3586221 184.383742,59.036748 C184.383742,59.7142359 184.883659,60.2641367 185.500862,60.2641367 L187.942965,60.2641367 L184.628765,64.8151717 C184.054528,65.6036603 184.584638,66.8093593 185.500862,66.8093593 L190.266622,66.8093593 C190.883825,66.8093593 191.383742,66.2594586 191.383742,65.5819706 C191.383742,64.9038446 190.883825,64.3545818 190.266622,64.3545818 Z" id="Path" fill="#00A98E" transform="translate(187.883742, 62.309359) rotate(5.000000) translate(-187.883742, -62.309359) "></path>
                    </g>
                </g>
                <g id="Path-13" transform="translate(34.000000, 0.000000)"></g>
            </g>
        </g>
    </g>
</svg>