<?xml version="1.0" encoding="UTF-8"?>
<svg width="292px" height="338px" viewBox="0 0 292 338" version="1.1" xmlns="http://www.w3.org/2000/svg" xmlns:xlink="http://www.w3.org/1999/xlink">
    <!-- Generator: Sketch 52.5 (67469) - http://www.bohemiancoding.com/sketch -->
    <title>Group 22</title>
    <desc>Created with Sketch.</desc>
    <defs>
        <linearGradient x1="50%" y1="0%" x2="50%" y2="100%" id="linearGradient-1">
            <stop stop-color="#FFFFFF" offset="0%"></stop>
            <stop stop-color="#FFFFFF" offset="66.7767519%"></stop>
            <stop stop-color="#FFFFFF" stop-opacity="0" offset="100%"></stop>
        </linearGradient>
        <linearGradient x1="50%" y1="100%" x2="50%" y2="19.8032923%" id="linearGradient-2">
            <stop stop-color="#095A8C" offset="0%"></stop>
            <stop stop-color="#197FBB" offset="100%"></stop>
        </linearGradient>
        <linearGradient x1="50%" y1="67.5012807%" x2="50%" y2="-34.0825869%" id="linearGradient-3">
            <stop stop-color="#09669E" offset="0%"></stop>
            <stop stop-color="#29BDFF" offset="100%"></stop>
        </linearGradient>
        <linearGradient x1="50%" y1="100%" x2="50%" y2="3.061617e-15%" id="linearGradient-4">
            <stop stop-color="#0F5381" offset="0%"></stop>
            <stop stop-color="#138CD5" offset="100%"></stop>
        </linearGradient>
        <linearGradient x1="50%" y1="-85.6019331%" x2="50%" y2="83.676283%" id="linearGradient-5">
            <stop stop-color="#3593DB" offset="0%"></stop>
            <stop stop-color="#11446A" offset="100%"></stop>
        </linearGradient>
        <linearGradient x1="-14.5408163%" y1="76.0663954%" x2="100%" y2="30.8851652%" id="linearGradient-6">
            <stop stop-color="#093453" offset="0%"></stop>
            <stop stop-color="#0E72AF" offset="100%"></stop>
        </linearGradient>
        <linearGradient x1="50%" y1="59.6495828%" x2="82.5990221%" y2="50%" id="linearGradient-7">
            <stop stop-color="#0E4065" offset="0%"></stop>
            <stop stop-color="#2074AA" offset="100%"></stop>
        </linearGradient>
        <linearGradient x1="50%" y1="59.6495828%" x2="82.5990221%" y2="50%" id="linearGradient-8">
            <stop stop-color="#004C84" offset="0%"></stop>
            <stop stop-color="#2074AA" offset="100%"></stop>
        </linearGradient>
        <linearGradient x1="77.8414091%" y1="52.9619186%" x2="25.1941554%" y2="36.4521214%" id="linearGradient-9">
            <stop stop-color="#E5CCB8" offset="0%"></stop>
            <stop stop-color="#C19F86" offset="100%"></stop>
        </linearGradient>
        <linearGradient x1="73.1173632%" y1="0%" x2="50%" y2="100%" id="linearGradient-10">
            <stop stop-color="#F8E1CF" offset="0%"></stop>
            <stop stop-color="#A78872" offset="100%"></stop>
        </linearGradient>
        <linearGradient x1="8.59171955%" y1="0%" x2="189.740103%" y2="158.672822%" id="linearGradient-11">
            <stop stop-color="#CBEBF9" offset="0%"></stop>
            <stop stop-color="#FFFFFF" offset="100%"></stop>
        </linearGradient>
        <linearGradient x1="28.2950454%" y1="17.2069337%" x2="75.7130685%" y2="106.954092%" id="linearGradient-12">
            <stop stop-color="#FFFFFF" offset="0%"></stop>
            <stop stop-color="#CBEBF9" offset="100%"></stop>
        </linearGradient>
        <linearGradient x1="100%" y1="72.7806081%" x2="-10.5558104%" y2="40.279949%" id="linearGradient-13">
            <stop stop-color="#EDD5C2" offset="0%"></stop>
            <stop stop-color="#AC8469" offset="100%"></stop>
        </linearGradient>
        <path d="M13.560308,19.5769476 C17.4338089,18.4106389 17.8188003,17.7914609 16.6862268,13.3303185 C15.5536534,8.8691761 10.3565493,1.04441371 6.56437994,2.19056179 C2.77221055,3.33670987 1.20394993,11.9089775 2.62307149,15.9719069 C4.04219305,20.0348362 9.68680713,20.7432562 13.560308,19.5769476 Z" id="path-14"></path>
        <linearGradient x1="25.2762686%" y1="18.8796454%" x2="49.1469955%" y2="97.2012305%" id="linearGradient-16">
            <stop stop-color="#1B84B4" offset="0%"></stop>
            <stop stop-color="#1A4B71" offset="100%"></stop>
        </linearGradient>
        <linearGradient x1="50%" y1="-7.28826492%" x2="50%" y2="100%" id="linearGradient-17">
            <stop stop-color="#E3F4FB" offset="0%"></stop>
            <stop stop-color="#C5E6F5" offset="100%"></stop>
        </linearGradient>
        <linearGradient x1="50%" y1="67.5012807%" x2="50%" y2="3.061617e-15%" id="linearGradient-18">
            <stop stop-color="#E3F4FB" offset="0%"></stop>
            <stop stop-color="#C2E6F6" offset="100%"></stop>
        </linearGradient>
        <linearGradient x1="50%" y1="67.5012807%" x2="50%" y2="3.061617e-15%" id="linearGradient-19">
            <stop stop-color="#FFFFFF" offset="0%"></stop>
            <stop stop-color="#C2E6F6" offset="100%"></stop>
        </linearGradient>
        <linearGradient x1="50%" y1="65.2988929%" x2="50%" y2="0%" id="linearGradient-20">
            <stop stop-color="#3593DB" offset="0%"></stop>
            <stop stop-color="#75C9F0" offset="100%"></stop>
        </linearGradient>
        <linearGradient x1="-14.5408163%" y1="76.0663954%" x2="100%" y2="30.8851652%" id="linearGradient-21">
            <stop stop-color="#B4E2F6" offset="0%"></stop>
            <stop stop-color="#FDFEFF" offset="100%"></stop>
        </linearGradient>
        <linearGradient x1="25.129448%" y1="-18.9438283%" x2="83.1697289%" y2="100%" id="linearGradient-22">
            <stop stop-color="#C6E783" offset="0%"></stop>
            <stop stop-color="#94CB4C" offset="100%"></stop>
        </linearGradient>
        <linearGradient x1="-62.9694245%" y1="69.6933549%" x2="88.7129611%" y2="42.631989%" id="linearGradient-23">
            <stop stop-color="#8ACCEA" offset="0%"></stop>
            <stop stop-color="#FFFFFF" offset="100%"></stop>
        </linearGradient>
        <linearGradient x1="76.5460852%" y1="129.330014%" x2="2.99429617%" y2="53.1031967%" id="linearGradient-24">
            <stop stop-color="#A1D5EF" offset="0%"></stop>
            <stop stop-color="#A5E3FA" offset="100%"></stop>
        </linearGradient>
        <linearGradient x1="2.99429617%" y1="53.1031967%" x2="76.5460852%" y2="129.330014%" id="linearGradient-25">
            <stop stop-color="#8AC6E4" offset="0%"></stop>
            <stop stop-color="#A5E3FA" offset="100%"></stop>
        </linearGradient>
        <linearGradient x1="50%" y1="0%" x2="50%" y2="100%" id="linearGradient-26">
            <stop stop-color="#4FAF85" offset="0%"></stop>
            <stop stop-color="#9CCF55" offset="100%"></stop>
        </linearGradient>
    </defs>
    <g id="Page-1" stroke="none" stroke-width="1" fill="none" fill-rule="evenodd">
        <g id="Sizing-2" transform="translate(-1067.000000, -265.000000)">
            <g id="Group-22" transform="translate(1067.000000, 265.000000)">
                <g id="Group-20" transform="translate(0.000000, 102.000000)">
                    <g id="Group-19">
                        <g id="Group-10" transform="translate(118.000000, 57.500000) scale(-1, 1) rotate(90.000000) translate(-118.000000, -57.500000) translate(109.500000, -21.500000)">
                            <path d="M8.2,157.568003 L9.18920585,0.499861043" id="Line-11" stroke="url(#linearGradient-1)" stroke-width="3" stroke-linecap="round" stroke-dasharray="10,10"></path>
                            <polygon id="Triangle" fill="#FFFFFF" transform="translate(8.500000, 73.000000) scale(1, -1) translate(-8.500000, -73.000000) " points="8.5 65 17 81 2.27373675e-11 81"></polygon>
                        </g>
                        <g id="server-copy" transform="translate(0.389206, 0.000000)">
                            <path d="M4.4422614,19.3533958 L68.4163705,18.0514598 C70.8968909,18.0009787 72.9486361,19.9727243 72.9990717,22.4554769 C72.9996905,22.485941 73,22.5164106 73,22.5468809 L73,76.2654231 L69.2948448,87.1599958 L39.3857663,108.860282 C37.6505047,110.119287 35.3164425,110.166941 33.5313287,108.97981 L0.720394737,87.1599958 C0.258474963,47.368256 0.0275150767,26.5051927 0.0275150767,24.570806 C0.0275150767,24.2662151 0.0332415042,23.9670912 0.0446943591,23.6734344 L0.0446914462,23.6734343 C0.137430606,21.2955567 2.0652037,19.4017713 4.4422614,19.3533958 Z" id="Rectangle" fill="url(#linearGradient-2)"></path>
                            <g id="Group-9">
                                <path d="M3.17468635,19.4953006 L34.3970634,1.19237265 C36.0876167,0.201350302 39.1351377,0.355326793 41.2038923,1.53628877 L70.4212213,18.2151911 C72.4899759,19.3961531 72.7965686,21.1568943 71.1060154,22.1479167 L39.8836383,40.4508447 C38.1930851,41.4418671 35.145564,41.2878905 33.0768096,40.1069286 L3.85948042,23.4280262 C1.7907259,22.2470642 1.48413315,20.486323 3.17468635,19.4953006 Z" id="Rectangle" fill="url(#linearGradient-3)"></path>
                                <g id="Group-10" transform="translate(14.742144, 5.620438)">
                                    <path d="M0.8610934,12.9401768 L20.3994062,4.32714502 C21.4338606,3.72938551 23.2986474,3.82226022 24.5645241,4.53458649 L43.1703703,12.5333456 C43.8498915,12.9157215 43.4910262,15.460398 43.5268918,15.9184058 C43.5578401,16.3136185 43.340879,16.690114 42.8617186,16.966997 L23.7566571,28.0068583 C22.7222027,28.6046178 20.8574158,28.5117431 19.591539,27.7994168 L1.71337212,17.7391265 C0.986861899,17.3303092 0.615515594,16.8063042 0.626514622,16.3209857 C0.634680381,15.9606817 0.420331644,13.194871 0.8610934,12.9401768 Z" id="Rectangle-Copy-6" fill="#104F7A"></path>
                                    <path d="M1.29434469,12.1475699 L20.3994062,1.10770851 C21.4338606,0.509948994 23.2986474,0.602823703 24.5645241,1.31514998 L42.4426911,11.3754403 C43.7085679,12.0877666 43.8961728,13.149801 42.8617186,13.7475605 L23.7566571,24.7874218 C22.7222027,25.3851813 20.8574158,25.2923066 19.591539,24.5799803 L1.71337212,14.51969 C0.447495335,13.8073637 0.259890361,12.7453294 1.29434469,12.1475699 Z" id="Rectangle-Copy-7" fill="url(#linearGradient-4)"></path>
                                    <path d="M8.74921862,12.0993088 L21.2958262,4.83624213 C21.9751693,4.44297929 23.1998054,4.50408107 24.0311275,4.97271677 L35.7720133,11.5913288 C36.6033354,12.0599646 36.7265387,12.7586713 36.0471955,13.1519342 L23.5005879,20.4150008 C22.8212448,20.8082637 21.5966086,20.7471619 20.7652866,20.2785262 L9.02440079,13.6599142 C8.19307879,13.1912784 8.06987549,12.4925716 8.74921862,12.0993088 Z" id="Rectangle-Copy-5" fill="url(#linearGradient-5)"></path>
                                </g>
                                <path d="M3.20175439,24.7698265 L32.6578947,41.4830946 C34.4261748,42.4864079 35.8596491,45.0293488 35.8596491,47.1629117 L35.8596491,106.655538 C35.8596491,108.789102 34.4261748,109.70535 32.6578947,108.702036 L3.20175439,91.9887686 C1.43347426,90.9854554 0,88.4425139 0,86.3089515 L0,26.8163245 C0,24.6827615 1.43347426,23.7665131 3.20175439,24.7698265 Z" id="Rectangle" fill="url(#linearGradient-6)"></path>
                            </g>
                            <g id="Group-9-Copy" transform="translate(55.000000, 66.862989) scale(-1, 1) translate(-55.000000, -66.862989) translate(37.000000, 24.362989)" fill="url(#linearGradient-6)">
                                <path d="M3.20175439,0.406837702 L32.6578947,17.1201058 C34.4261748,18.1234192 35.8596491,20.6663599 35.8596491,22.799923 L35.8596491,82.2925496 C35.8596491,84.4261128 34.4261748,85.3423607 32.6578947,84.3390474 L3.20175439,67.6257796 C1.43347426,66.6224662 0,64.0795254 0,61.9459624 L0,2.45333571 C0,0.31977269 1.43347426,-0.596475677 3.20175439,0.406837702 Z" id="Rectangle"></path>
                            </g>
                        </g>
                        <g id="Group-30-Copy" transform="translate(68.000000, 86.000000)">
                            <g id="boy">
                                <rect id="Rectangle" fill="#D8D8D8" x="28.8288288" y="16.0140187" width="1" height="1"></rect>
                                <path d="M18.3504743,123.327281 C18.9472786,123.090802 19.3571096,122.812697 19.5799674,122.492966 C19.7554007,122.241275 20.2088607,121.754798 20.4162096,121.133236 C20.4535776,121.021219 20.8871739,120.236033 21.7169986,118.777677 L24.4697313,121.189546 C24.2729701,122.599044 24.1008929,123.470176 23.9534998,123.802942 C23.6149033,124.567383 23.4735886,125.393344 23.3094888,125.78635 C23.0382385,126.435974 22.8288495,127.870967 22.6813216,130.091329 L18.3504743,123.327281 Z" id="Path-23" fill="#C0A48F" transform="translate(21.410103, 124.434503) rotate(16.000000) translate(-21.410103, -124.434503) "></path>
                                <path d="M24.495003,138.510081 C25.0760771,137.300826 22.6913036,134.839936 22.1748343,132.914951 C21.8305215,131.631628 21.5867872,130.100822 21.4436314,128.322534 L18.3520829,122.273011 L14.3979109,124.126492 L17.5207139,131.034293 C17.742995,132.710584 18.3130624,134.06606 19.2309162,135.10072 C20.3594182,136.372836 23.0283572,138.746352 24.1862004,138.864876 C24.4409344,138.890952 24.3902163,138.728149 24.495003,138.510081 Z" id="Path-6" fill="#D8D8D8" transform="translate(19.491747, 130.570316) rotate(5.000000) translate(-19.491747, -130.570316) "></path>
                                <path d="M23.6821907,138.703922 C25.2818595,139.776951 20.1012289,136.966454 18.3938085,134.916439 C17.8750702,134.293615 17.5246458,131.69653 16.8885555,130.702682 C15.4309625,128.425292 13.9663242,126.886649 13.608275,125.908313 C13.2654077,124.971459 12.7440603,124.755196 14.3972749,123.911939 C15.4093994,125.029712 15.854527,126.496719 16.2054454,127.074867 C17.0072234,128.395817 18.0495474,133.565023 18.7839245,134.446753 C20.6086823,136.63765 22.0825219,137.630893 23.6821907,138.703922 Z" id="Path-7" fill="#A4A1A1" transform="translate(18.617813, 131.426148) rotate(5.000000) translate(-18.617813, -131.426148) "></path>
                                <path d="M40.7137278,135.238686 C41.1976609,134.963926 41.575375,134.779308 41.8468702,134.684832 C42.3417269,134.51263 43.386527,133.847314 43.5823137,133.603971 C43.9392233,133.160368 44.4546799,132.326427 45.1286834,131.102147 C47.0092718,131.370329 47.9942193,132.103336 48.083526,133.301167 C48.2174859,135.097914 46.297112,137.009358 45.6773534,138.461221 C45.2641809,139.429129 44.9736685,140.773115 44.8058162,142.493178 L40.7137278,135.238686 Z" id="Path-25" fill="#C0A48F" transform="translate(44.401963, 136.797662) rotate(-25.000000) translate(-44.401963, -136.797662) "></path>
                                <path d="M25.7514001,74.4388492 C18.3272532,74.597638 17.4372079,76.7946416 20.5285481,83.3607801 C25.1655582,93.2099877 42.1953547,97.9567496 43.9405834,101.413374 C44.6787331,102.875364 43.3844726,107.544876 46.4042937,113.278521 C48.3297368,116.934304 51.2800567,122.722705 53.8057089,128.962852 L60.0394297,129.754886 C54.7722413,115.083774 52.5457071,102.046916 51.6885099,98.9992701 C50.8313127,95.9516242 46.0593106,89.5155948 33.3118009,72.369262 L25.7514001,74.4388492 Z" id="Path-5-Copy" fill="url(#linearGradient-7)" transform="translate(39.447333, 101.062074) rotate(23.000000) translate(-39.447333, -101.062074) "></path>
                                <path d="M50.0394114,151.813096 C50.5202869,151.472829 50.4939136,148.987736 48.6469273,145.637501 C48.2532782,144.923464 48.0250659,143.295148 47.9622903,140.752553 L44.8497204,134.63855 C43.5225265,135.094015 42.556432,135.518613 41.9514369,135.912342 C41.3464418,136.306072 40.9212661,136.78691 40.6759096,137.354858 L43.6271937,143.820065 C47.2503992,149.609829 49.3878051,152.274172 50.0394114,151.813096 Z" id="Path-6" fill="#D8D8D8" transform="translate(45.489239, 143.251331) rotate(-25.000000) translate(-45.489239, -143.251331) "></path>
                                <path d="M50.7262446,151.277601 C50.4446264,152.277264 50.6875624,152.992245 47.234211,148.906835 C43.7808596,144.821425 41.9150287,140.453561 41.2486733,139.182045 C40.7541244,138.238364 40.68884,137.832719 41.3753175,137.101666 C42.6678049,138.729672 43.2510412,140.839386 43.9965169,143.181879 C44.4036645,144.46125 46.9696468,145.45459 48.0864314,147.079242 C49.0144473,148.429282 51.0078628,150.277938 50.7262446,151.277601 Z" id="Path-7" fill="#A4A1A1" transform="translate(45.811026, 144.577039) rotate(-25.000000) translate(-45.811026, -144.577039) "></path>
                                <path d="M19.3556348,73.5674242 C14.1687417,70.8638841 11.9954158,61.9723578 10.6351908,70.1748298 C7.63050896,88.2937575 34.5883685,94.460435 36.3467753,97.9382523 C37.4153505,100.051704 33.8333949,104.075224 33.6822655,114.322579 C33.6707669,115.102244 33.1479873,117.164504 32.1139266,120.50936 L36.7459791,125.115102 L38.9608435,117.886062 C43.7777676,106.507276 46.7951285,99.3720817 47.3579815,96.6912858 C48.7334947,90.1398946 28.2796582,72.9996274 23.1498273,68.8150004 C21.25253,67.2672921 20.3776463,71.008261 20.1665022,70.7928074 C18.1749904,68.760648 18.0032856,68.6205809 19.6513878,70.372606 L19.3556348,73.5674242 Z" id="Path-5" fill="url(#linearGradient-8)" transform="translate(28.912960, 95.947173) rotate(24.000000) translate(-28.912960, -95.947173) "></path>
                                <path d="M25.8261359,71.4440813 C30.2397453,74.6476506 35.2071553,75.7727713 40.7283659,74.8194435 C46.2495765,73.8661158 49.1524104,70.7787228 49.4368677,65.5572647 C43.8416249,53.3175236 38.939614,43.5182032 34.7308348,36.1593036 C30.5220557,28.800404 28.2294916,26.098412 27.8531426,28.0533276 C28.3639707,30.6064094 27.9766678,31.9992075 26.6912341,32.231722 C25.4058003,32.4642365 23.2777559,31.9309744 20.3071007,30.6319358 L25.5269881,70.2442649" id="Path-22" fill="#E87B9F" transform="translate(34.871984, 51.292616) rotate(14.000000) translate(-34.871984, -51.292616) "></path>
                                <path d="M27.9007602,21.4319865 C27.6507094,23.1570998 27.3528024,24.8045671 27.0070392,26.3743883 C26.6612761,27.9442095 26.0757394,30.3077203 25.2504294,33.4649208 L32.902874,32.3943747 C34.6518167,31.0201286 35.3440175,30.0029595 34.9794764,29.3428674 C34.6194892,28.6910215 34.3146395,27.7400404 34.0817983,27.146585 C33.4952768,25.6516851 33.1735698,23.3180241 33.1166771,20.1456021 L27.9007602,21.4319865 Z" id="Path-11" fill="url(#linearGradient-9)" transform="translate(30.162111, 26.805261) rotate(-1.000000) translate(-30.162111, -26.805261) "></path>
                                <path d="M56.559728,35.4952211 C57.1046888,35.6013835 59.9007658,38.4937959 60.441138,37.3052474 C62.1731807,33.4956203 63.7591665,24.7364744 64.012463,24.4073861 C64.644069,23.5867898 69.0673295,21.5771541 69.1033263,19.4168326 C69.1583904,16.1121993 70.1284413,14.9019003 69.4487633,14.9439513 C68.6163151,14.9954541 63.2180416,20.0667469 63.0274737,20.4568098 C62.6624033,21.2040523 61.8309845,17.7635202 61.2098765,18.0939864 C60.5386808,18.4511023 60.5839469,19.5340929 60.6958399,21.0381514 C60.7782927,22.1464763 60.7429442,23.6413029 61.2732994,24.4333702 C61.5921385,24.9095455 56.2209673,35.429228 56.559728,35.4952211 Z" id="Oval-Copy" fill="url(#linearGradient-10)" transform="translate(63.116892, 26.267111) rotate(14.000000) translate(-63.116892, -26.267111) "></path>
                                <path d="M45,75.3388672 C45.4790039,77.8850098 50.0888672,73.2946777 50.0888672,68.7587891 C50.0888672,65.9599153 46.8216756,54.8079975 44,45.2592773 C42.2488339,39.333226 40.6598527,33.6710094 40.1584473,32.0778809 C39.2855632,29.3044434 37.2099609,27.3942057 33.9316406,26.347168 C38.0366323,38.7444525 40.1122346,45.0484889 40.1584473,45.2592773 C42.3465419,55.2397549 44.5209961,72.7927246 45,75.3388672 Z" id="Path-3" fill="url(#linearGradient-11)"></path>
                                <path d="M20.2771418,29.5183673 C19.1867387,31.2703384 14.2049853,36.2054611 16.269228,44.4846863 C20.1601778,60.0904338 19.1548721,71.0697321 20.9704556,75.1158363 C21.1040367,75.4135273 22.0395001,76.0194597 22.1825828,76.0934675 C28.394394,79.3064517 45.8791781,78.7252687 45.9930573,77.1458534 C46.1069365,75.566438 39.7562161,63.5235175 38.2328414,58.6460599 C36.7094667,53.7686022 33.6195026,45.103342 33.8151385,44.1569696 C34.0243501,43.1449263 36.598503,45.8343002 41.5783624,46.1298376 C44.4932941,46.3028286 48.8069947,40.9780929 54.5194643,30.1556303 L49.7829415,27.4870478 C43.7070235,34.8136338 40.2926912,38.3026812 39.5399445,37.95419 C31.7760477,34.3598213 21.367545,27.7663961 20.2771418,29.5183673 Z" id="Path" fill="url(#linearGradient-12)" transform="translate(35.146524, 52.954122) rotate(14.000000) translate(-35.146524, -52.954122) "></path>
                                <path d="M33.0413614,23.7442932 C36.5475697,22.646959 36.896051,22.0644136 35.8708271,17.8672425 C34.8456032,13.6700714 30.141214,6.30833879 26.7086252,7.38670459 C23.2760365,8.4650704 22.660452,16.6759652 23.9450501,20.4984825 C25.2296483,24.3209998 29.5351532,24.8416274 33.0413614,23.7442932 Z" id="Combined-Shape" fill="url(#linearGradient-13)" transform="translate(29.850247, 15.764962) rotate(14.000000) translate(-29.850247, -15.764962) "></path>
                                <g id="Group-18" transform="translate(19.819820, 4.289720)">
                                    <mask id="mask-15" fill="white">
                                        <use xlink:href="#path-14"></use>
                                    </mask>
                                    <use id="Mask" fill="url(#linearGradient-13)" transform="translate(9.675017, 11.080257) rotate(14.000000) translate(-9.675017, -11.080257) " xlink:href="#path-14"></use>
                                    <path d="M11.9141415,16.6172087 C13.0950397,16.6028513 14.0158463,16.3732684 14.6765614,15.9284601 C15.3372765,15.4836517 15.7207261,14.8394842 15.8269104,13.9959577" id="Line-7" stroke="#D9A887" stroke-width="0.9" stroke-linecap="round" mask="url(#mask-15)" transform="translate(13.870526, 15.306583) rotate(14.000000) translate(-13.870526, -15.306583) "></path>
                                    <polygon id="Rectangle" fill="#1B84B4" mask="url(#mask-15)" transform="translate(9.459459, 11.265424) rotate(14.000000) translate(-9.459459, -11.265424) " points="8.91137742 10.9291536 9.78551771 10.7112059 10.0075415 11.6016947 9.1334012 11.8196423"></polygon>
                                    <polygon id="Rectangle-Copy-5" fill="#1B84B4" mask="url(#mask-15)" transform="translate(13.064322, 9.465752) rotate(14.000000) translate(-13.064322, -9.465752) " points="12.5179548 9.13635768 13.3920951 8.91841002 13.6106898 9.79514554 12.7365495 10.0130932"></polygon>
                                    <path d="M10.8022283,10.2962467 C12.1523506,11.0521327 13.2487382,11.5707097 14.0913912,11.8519777 C14.9340442,12.1332457 14.5447807,12.887331 12.9236008,14.1142336 L10.8022283,10.2962467 Z" id="Path-24" fill="#FFE6D3" opacity="0.756324405" mask="url(#mask-15)" transform="translate(12.662956, 12.205240) rotate(14.000000) translate(-12.662956, -12.205240) "></path>
                                    <path d="M7.78681906,10.5215614 L8.87984761,9.31956011" id="Line-8" stroke="#227EA8" stroke-width="0.9" stroke-linecap="round" mask="url(#mask-15)" transform="translate(8.333333, 9.920561) rotate(14.000000) translate(-8.333333, -9.920561) "></path>
                                    <path d="M11.9563675,8.50276277 L13.0493721,7.30127128" id="Line-8-Copy" stroke="#227EA8" stroke-width="0.9" stroke-linecap="round" mask="url(#mask-15)" transform="translate(12.502870, 7.902017) rotate(31.000000) translate(-12.502870, -7.902017) "></path>
                                </g>
                                <path d="M32.0025394,5.10748224 C33.1109406,0.752804764 31.8608557,0.383740899 29.2080574,4.1211498 C28.3528487,5.32601507 28.1431806,2.40672938 27.097349,3.08978911 C26.0515174,3.77284884 24.7734709,5.80570547 24.1010903,6.16031 C22.0367202,7.24903115 19.365018,7.62038415 18.0776075,10.2466324 C15.4249059,15.6580014 20.7060983,24.7605667 27.7612189,23.9167636 C33.2060617,23.2655521 28.6628805,22.2955701 27.7617984,20.8426084 C26.6565761,19.0604782 24.9597989,21.4163693 24.5508776,18.8679018 C24.3103092,17.3686377 24.7505321,17.9749542 26.5890147,17.5201999 C27.9020243,17.195423 23.724962,13.9511289 25.3539498,13.2811069 C30.8201341,11.0328003 31.8016982,5.8965456 32.0025394,5.10748224 Z" id="Path-9" fill="url(#linearGradient-16)" transform="translate(24.893499, 12.765025) rotate(14.000000) translate(-24.893499, -12.765025) "></path>
                            </g>
                        </g>
                    </g>
                </g>
                <g id="server" transform="translate(162.000000, 237.000000)">
                    <path d="M3.52946796,15.4827167 L54.3582122,14.4411678 C56.3290366,14.4007829 57.9591903,15.9781795 57.9992624,17.9643815 C57.9997541,17.9887528 58,18.0131285 58,18.0375047 L58,61.0123384 L55.0561781,69.7279967 L31.2928006,87.0882256 C29.9140996,88.0954293 28.0596392,88.1335525 26.6413296,87.1838482 L0.572368421,69.7279967 C0.20536367,37.8946048 0.0218612938,21.2041541 0.0218612938,19.6566448 C0.0218612938,19.4129721 0.0264110581,19.173673 0.0355105867,18.9387475 L0.0355082723,18.9387475 C0.109191441,17.0364454 1.64084678,15.5214171 3.52946796,15.4827167 Z" id="Rectangle" fill="url(#linearGradient-17)"></path>
                    <g id="Group-9">
                        <path d="M2.52235354,15.5962405 L27.3291737,0.953898122 C28.672353,0.161080242 31.0936711,0.284261434 32.7373391,1.22903101 L55.9511074,14.5721529 C57.5947754,15.5169225 57.8383696,16.9255155 56.4951903,17.7183333 L31.6883702,32.3606758 C30.3451909,33.1534936 27.9238728,33.0303124 26.2802049,32.0855429 L3.0664365,18.7424209 C1.42276852,17.7976513 1.17917428,16.3890584 2.52235354,15.5962405 Z" id="Rectangle" fill="url(#linearGradient-18)"></path>
                        <g id="Group-10" transform="translate(11.712936, 4.496350)">
                            <path d="M0.6841564,10.3521414 L16.2077474,3.46171601 C17.0296427,2.9835084 18.5112541,3.05780817 19.5170192,3.62766919 L34.2997463,10.0266765 C34.8396398,10.3325772 34.554514,12.3683184 34.58301,12.7347246 C34.607599,13.0508948 34.4352189,13.3520912 34.0545161,13.5735976 L18.8751522,22.4054867 C18.0532569,22.8836943 16.5716455,22.8093945 15.5658803,22.2395334 L1.36130936,14.1913012 C0.784082057,13.8642474 0.489039787,13.4450433 0.49777874,13.0567885 C0.504266604,12.7685454 0.333962128,10.5558968 0.6841564,10.3521414 Z" id="Rectangle-Copy-6" fill="#C2E6F6"></path>
                            <path d="M1.02838345,9.71805589 L16.2077474,0.886166809 C17.0296427,0.407959196 18.5112541,0.482258962 19.5170192,1.05211998 L33.7215902,9.10035222 C34.7273553,9.67021324 34.8764113,10.5198408 34.0545161,10.9980484 L18.8751522,19.8299374 C18.0532569,20.308145 16.5716455,20.2338453 15.5658803,19.6639842 L1.36130936,11.615752 C0.355544239,11.045891 0.206488232,10.1962635 1.02838345,9.71805589 Z" id="Rectangle-Copy-7" fill="url(#linearGradient-19)"></path>
                            <path d="M6.95143397,9.67944701 L16.9199715,3.8689937 C17.4597236,3.55438343 18.4327221,3.60326485 19.0932246,3.97817342 L28.4215996,9.27306308 C29.0821021,9.64797166 29.1799896,10.2069371 28.6402375,10.5215473 L18.6717,16.3320007 C18.1319479,16.646611 17.1589493,16.5977295 16.4984469,16.2228209 L7.17007186,10.9279313 C6.50956945,10.5530228 6.41168189,9.99405729 6.95143397,9.67944701 Z" id="Rectangle-Copy-5" fill="url(#linearGradient-20)"></path>
                        </g>
                        <path d="M2.54385965,19.8158612 L25.9473684,33.1864757 C27.3523033,33.9891264 28.4912281,36.023479 28.4912281,37.7303294 L28.4912281,85.3244307 C28.4912281,87.0312812 27.3523033,87.7642801 25.9473684,86.9616289 L2.54385965,73.5910149 C1.13892476,72.7883643 0,70.7540112 0,69.0471612 L0,21.4530596 C0,19.7462092 1.13892476,19.0132105 2.54385965,19.8158612 Z" id="Rectangle" fill="url(#linearGradient-21)"></path>
                        <path d="M15.7719298,47.1648062 L15.7719298,49.1593478 C15.7719298,49.3435004 15.8697084,49.5135744 16.0282347,49.6051595 L24.3672965,54.4228687 C24.6116053,54.5640127 24.9231906,54.4788358 25.0632418,54.2326208 C25.1074907,54.1548296 25.1307718,54.0667236 25.1307718,53.977057 L25.1307718,52.0022827 C25.1307718,51.8184549 25.0333349,51.6486291 24.8752488,51.5569236 L16.536187,46.7194472 C16.2921263,46.577868 15.9803921,46.6624894 15.839909,46.9084544 C15.795371,46.9864336 15.7719298,47.0748314 15.7719298,47.1648062 Z" id="Path-15" fill="url(#linearGradient-22)"></path>
                        <path d="M2.54385965,39.4381586 L2.54385965,41.4327001 C2.54385965,41.6168527 2.64163817,41.7869267 2.80016458,41.8785119 L11.1392263,46.6962211 C11.3835351,46.8373651 11.6951204,46.7521882 11.8351716,46.5059732 C11.8794206,46.4281819 11.9027016,46.340076 11.9027016,46.2504094 L11.9027016,44.2756351 C11.9027016,44.0918073 11.8052648,43.9219815 11.6471786,43.830276 L3.30811686,38.9927996 C3.06405617,38.8512204 2.75232187,38.9358418 2.61183879,39.1818068 C2.56730089,39.259786 2.54385965,39.3481838 2.54385965,39.4381586 Z" id="Path-15-Copy" fill="url(#linearGradient-22)"></path>
                    </g>
                    <g id="Group-9-Copy" transform="translate(31.000000, 53.490391) scale(-1, 1) translate(-31.000000, -53.490391) translate(4.000000, 19.490391)">
                        <path d="M2.54385965,0.325470161 L25.9473684,13.6960846 C27.3523033,14.4987353 28.4912281,16.5330879 28.4912281,18.2399384 L28.4912281,65.8340397 C28.4912281,67.5408903 27.3523033,68.2738885 25.9473684,67.471238 L2.54385965,54.1006237 C1.13892476,53.297973 0,51.2636203 0,49.55677 L0,1.96266857 C0,0.255818152 1.13892476,-0.477180541 2.54385965,0.325470161 Z" id="Rectangle" fill="url(#linearGradient-23)"></path>
                        <path d="M34.4175824,37.2554747 L53.4823428,48.2226652" id="Line-5" stroke="url(#linearGradient-24)" stroke-width="3.584" stroke-linecap="round" transform="translate(43.949963, 42.739070) scale(-1, 1) rotate(-180.000000) translate(-43.949963, -42.739070) "></path>
                        <path d="M34.4175824,12.8467156 L53.4823428,23.8139061" id="Line-5-Copy-2" stroke="url(#linearGradient-24)" stroke-width="3.584" stroke-linecap="round" transform="translate(43.949963, 18.330311) scale(-1, 1) rotate(-180.000000) translate(-43.949963, -18.330311) "></path>
                        <path d="M34.4175824,46.2481754 L53.4823428,57.215366" id="Line-5-Copy" stroke="url(#linearGradient-24)" stroke-width="3.584" stroke-linecap="round" transform="translate(43.949963, 51.731771) scale(-1, 1) rotate(-180.000000) translate(-43.949963, -51.731771) "></path>
                        <path d="M4.46153846,19.270073 L23.5262988,30.2372635" id="Line-5-Copy-8" stroke="url(#linearGradient-25)" stroke-width="3.584" stroke-linecap="round"></path>
                        <path d="M4.46153846,28.2627737 L23.5262988,39.2299642" id="Line-5-Copy-9" stroke="url(#linearGradient-25)" stroke-width="3.584" stroke-linecap="round"></path>
                        <path d="M4.46153846,37.2554745 L23.5262988,48.222665" id="Line-5-Copy-10" stroke="url(#linearGradient-25)" stroke-width="3.584" stroke-linecap="round"></path>
                        <path d="M4.46153846,46.2481752 L23.5262988,57.2153657" id="Line-5-Copy-11" stroke="url(#linearGradient-25)" stroke-width="3.584" stroke-linecap="round"></path>
                    </g>
                </g>
                <g id="server-copy-2" transform="translate(104.000000, 0.000000)">
                    <path d="M3.52946796,15.4827167 L54.3582122,14.4411678 C56.3290366,14.4007829 57.9591903,15.9781795 57.9992624,17.9643815 C57.9997541,17.9887528 58,18.0131285 58,18.0375047 L58,61.0123384 L55.0561781,69.7279967 L31.2928006,87.0882256 C29.9140996,88.0954293 28.0596392,88.1335525 26.6413296,87.1838482 L0.572368421,69.7279967 C0.20536367,37.8946048 0.0218612938,21.2041541 0.0218612938,19.6566448 C0.0218612938,19.4129721 0.0264110581,19.173673 0.0355105867,18.9387475 L0.0355082723,18.9387475 C0.109191441,17.0364454 1.64084678,15.5214171 3.52946796,15.4827167 Z" id="Rectangle" fill="url(#linearGradient-17)"></path>
                    <g id="Group-9">
                        <path d="M2.52235354,15.5962405 L27.3291737,0.953898122 C28.672353,0.161080242 31.0936711,0.284261434 32.7373391,1.22903101 L55.9511074,14.5721529 C57.5947754,15.5169225 57.8383696,16.9255155 56.4951903,17.7183333 L31.6883702,32.3606758 C30.3451909,33.1534936 27.9238728,33.0303124 26.2802049,32.0855429 L3.0664365,18.7424209 C1.42276852,17.7976513 1.17917428,16.3890584 2.52235354,15.5962405 Z" id="Rectangle" fill="url(#linearGradient-18)"></path>
                        <g id="Group-10" transform="translate(11.712936, 4.496350)">
                            <path d="M0.6841564,10.3521414 L16.2077474,3.46171601 C17.0296427,2.9835084 18.5112541,3.05780817 19.5170192,3.62766919 L34.2997463,10.0266765 C34.8396398,10.3325772 34.554514,12.3683184 34.58301,12.7347246 C34.607599,13.0508948 34.4352189,13.3520912 34.0545161,13.5735976 L18.8751522,22.4054867 C18.0532569,22.8836943 16.5716455,22.8093945 15.5658803,22.2395334 L1.36130936,14.1913012 C0.784082057,13.8642474 0.489039787,13.4450433 0.49777874,13.0567885 C0.504266604,12.7685454 0.333962128,10.5558968 0.6841564,10.3521414 Z" id="Rectangle-Copy-6" fill="#C2E6F6"></path>
                            <path d="M1.02838345,9.71805589 L16.2077474,0.886166809 C17.0296427,0.407959196 18.5112541,0.482258962 19.5170192,1.05211998 L33.7215902,9.10035222 C34.7273553,9.67021324 34.8764113,10.5198408 34.0545161,10.9980484 L18.8751522,19.8299374 C18.0532569,20.308145 16.5716455,20.2338453 15.5658803,19.6639842 L1.36130936,11.615752 C0.355544239,11.045891 0.206488232,10.1962635 1.02838345,9.71805589 Z" id="Rectangle-Copy-7" fill="url(#linearGradient-19)"></path>
                            <path d="M6.95143397,9.67944701 L16.9199715,3.8689937 C17.4597236,3.55438343 18.4327221,3.60326485 19.0932246,3.97817342 L28.4215996,9.27306308 C29.0821021,9.64797166 29.1799896,10.2069371 28.6402375,10.5215473 L18.6717,16.3320007 C18.1319479,16.646611 17.1589493,16.5977295 16.4984469,16.2228209 L7.17007186,10.9279313 C6.50956945,10.5530228 6.41168189,9.99405729 6.95143397,9.67944701 Z" id="Rectangle-Copy-5" fill="url(#linearGradient-20)"></path>
                        </g>
                        <path d="M2.54385965,19.8158612 L25.9473684,33.1864757 C27.3523033,33.9891264 28.4912281,36.023479 28.4912281,37.7303294 L28.4912281,85.3244307 C28.4912281,87.0312812 27.3523033,87.7642801 25.9473684,86.9616289 L2.54385965,73.5910149 C1.13892476,72.7883643 0,70.7540112 0,69.0471612 L0,21.4530596 C0,19.7462092 1.13892476,19.0132105 2.54385965,19.8158612 Z" id="Rectangle" fill="url(#linearGradient-21)"></path>
                        <path d="M15.7719298,47.1648062 L15.7719298,49.1593478 C15.7719298,49.3435004 15.8697084,49.5135744 16.0282347,49.6051595 L24.3672965,54.4228687 C24.6116053,54.5640127 24.9231906,54.4788358 25.0632418,54.2326208 C25.1074907,54.1548296 25.1307718,54.0667236 25.1307718,53.977057 L25.1307718,52.0022827 C25.1307718,51.8184549 25.0333349,51.6486291 24.8752488,51.5569236 L16.536187,46.7194472 C16.2921263,46.577868 15.9803921,46.6624894 15.839909,46.9084544 C15.795371,46.9864336 15.7719298,47.0748314 15.7719298,47.1648062 Z" id="Path-15" fill="url(#linearGradient-22)"></path>
                        <path d="M2.54385965,39.4381586 L2.54385965,41.4327001 C2.54385965,41.6168527 2.64163817,41.7869267 2.80016458,41.8785119 L11.1392263,46.6962211 C11.3835351,46.8373651 11.6951204,46.7521882 11.8351716,46.5059732 C11.8794206,46.4281819 11.9027016,46.340076 11.9027016,46.2504094 L11.9027016,44.2756351 C11.9027016,44.0918073 11.8052648,43.9219815 11.6471786,43.830276 L3.30811686,38.9927996 C3.06405617,38.8512204 2.75232187,38.9358418 2.61183879,39.1818068 C2.56730089,39.259786 2.54385965,39.3481838 2.54385965,39.4381586 Z" id="Path-15-Copy" fill="url(#linearGradient-22)"></path>
                    </g>
                    <g id="Group-9-Copy" transform="translate(31.000000, 53.490391) scale(-1, 1) translate(-31.000000, -53.490391) translate(4.000000, 19.490391)">
                        <path d="M2.54385965,0.325470161 L25.9473684,13.6960846 C27.3523033,14.4987353 28.4912281,16.5330879 28.4912281,18.2399384 L28.4912281,65.8340397 C28.4912281,67.5408903 27.3523033,68.2738885 25.9473684,67.471238 L2.54385965,54.1006237 C1.13892476,53.297973 0,51.2636203 0,49.55677 L0,1.96266857 C0,0.255818152 1.13892476,-0.477180541 2.54385965,0.325470161 Z" id="Rectangle" fill="url(#linearGradient-23)"></path>
                        <path d="M34.4175824,37.2554747 L53.4823428,48.2226652" id="Line-5" stroke="url(#linearGradient-24)" stroke-width="3.584" stroke-linecap="round" transform="translate(43.949963, 42.739070) scale(-1, 1) rotate(-180.000000) translate(-43.949963, -42.739070) "></path>
                        <path d="M34.4175824,12.8467156 L53.4823428,23.8139061" id="Line-5-Copy-2" stroke="url(#linearGradient-24)" stroke-width="3.584" stroke-linecap="round" transform="translate(43.949963, 18.330311) scale(-1, 1) rotate(-180.000000) translate(-43.949963, -18.330311) "></path>
                        <path d="M34.4175824,46.2481754 L53.4823428,57.215366" id="Line-5-Copy" stroke="url(#linearGradient-24)" stroke-width="3.584" stroke-linecap="round" transform="translate(43.949963, 51.731771) scale(-1, 1) rotate(-180.000000) translate(-43.949963, -51.731771) "></path>
                        <path d="M4.46153846,19.270073 L23.5262988,30.2372635" id="Line-5-Copy-8" stroke="url(#linearGradient-25)" stroke-width="3.584" stroke-linecap="round"></path>
                        <path d="M4.46153846,28.2627737 L23.5262988,39.2299642" id="Line-5-Copy-9" stroke="url(#linearGradient-25)" stroke-width="3.584" stroke-linecap="round"></path>
                        <path d="M4.46153846,37.2554745 L23.5262988,48.222665" id="Line-5-Copy-10" stroke="url(#linearGradient-25)" stroke-width="3.584" stroke-linecap="round"></path>
                        <path d="M4.46153846,46.2481752 L23.5262988,57.2153657" id="Line-5-Copy-11" stroke="url(#linearGradient-25)" stroke-width="3.584" stroke-linecap="round"></path>
                    </g>
                </g>
                <g id="server-copy-4" transform="translate(192.000000, 116.000000)">
                    <path d="M3.10349769,13.5473771 L47.7977383,12.6360218 C49.5307046,12.6006851 50.9641156,13.980907 50.9993515,15.7188338 C50.9997838,15.7401587 51,15.7614874 51,15.7828166 L51,53.3857961 L48.4114669,61.0119971 L27.5160833,76.2021974 C26.3037773,77.0835006 24.6731311,77.1168585 23.4259967,76.2858672 L0.503289474,61.0119971 C0.180578399,33.1577792 0.0192228618,18.5536349 0.0192228618,17.1995642 C0.0192228618,16.9863506 0.0232235166,16.7769639 0.0312248262,16.5714041 L0.0312227912,16.571404 C0.0960131632,14.9068897 1.44281354,13.5812399 3.10349769,13.5473771 Z" id="Rectangle" fill="url(#linearGradient-17)"></path>
                    <g id="Group-9">
                        <path d="M2.21793156,13.6467104 L24.0308251,0.834660857 C25.2118966,0.140945211 27.3409866,0.248728755 28.7862809,1.07540214 L49.1983875,12.7506338 C50.6436818,13.5773072 50.8578767,14.809826 49.6768053,15.5035417 L27.8639117,28.3155913 C26.6828403,29.0093069 24.5537502,28.9015234 23.108456,28.07485 L2.69634934,16.3996183 C1.25105508,15.5729449 1.03686015,14.3404261 2.21793156,13.6467104 Z" id="Rectangle" fill="url(#linearGradient-18)"></path>
                        <g id="Group-10" transform="translate(10.299306, 3.934307)">
                            <path d="M0.6015858,9.05812375 L14.25164,3.02900151 C14.974341,2.61056985 16.2771372,2.67558215 17.1615169,3.17421054 L30.1601217,8.77334195 C30.6348557,9.04100508 30.3841416,10.8222786 30.4091984,11.142884 C30.4308198,11.4195329 30.2792442,11.6830798 29.9444883,11.8768979 L16.5971166,19.6048008 C15.8744156,20.0232325 14.5716193,19.9582201 13.6872396,19.4595918 L1.1970134,12.4173885 C0.689451464,12.1312165 0.430017744,11.7644129 0.437701996,11.42469 C0.443406841,11.1724772 0.293656354,9.23640972 0.6015858,9.05812375 Z" id="Rectangle-Copy-6" fill="#C2E6F6"></path>
                            <path d="M0.904268205,8.5032989 L14.25164,0.775395958 C14.974341,0.356964296 16.2771372,0.421976592 17.1615169,0.920604986 L29.6517431,7.96280819 C30.5361228,8.46143659 30.6671892,9.20486068 29.9444883,9.62329234 L16.5971166,17.3511952 C15.8744156,17.7696269 14.5716193,17.7046146 13.6872396,17.2059862 L1.1970134,10.163783 C0.312633727,9.6651546 0.181567239,8.92173056 0.904268205,8.5032989 Z" id="Rectangle-Copy-7" fill="url(#linearGradient-19)"></path>
                            <path d="M6.1124678,8.46951614 L14.877906,3.38536949 C15.3525155,3.1100855 16.2080832,3.15285675 16.7888699,3.48090174 L24.9914065,8.11393019 C25.5721932,8.4419752 25.6582667,8.93106993 25.1836571,9.20635392 L16.4182189,14.2905006 C15.9436094,14.5657846 15.0880416,14.5230133 14.507255,14.1949683 L6.30471836,9.56193992 C5.72393176,9.23389491 5.63785822,8.74480013 6.1124678,8.46951614 Z" id="Rectangle-Copy-5" fill="url(#linearGradient-20)"></path>
                        </g>
                        <path d="M2.23684211,17.3388785 L22.8157895,29.0381662 C24.0511632,29.7404856 25.0526316,31.5205441 25.0526316,33.0140382 L25.0526316,74.6588768 C25.0526316,76.1523711 24.0511632,76.7937451 22.8157895,76.0914253 L2.23684211,64.392138 C1.00146832,63.6898188 0,61.9097598 0,60.4162661 L0,18.7714272 C0,17.277933 1.00146832,16.6365592 2.23684211,17.3388785 Z" id="Rectangle" fill="url(#linearGradient-21)"></path>
                        <path d="M13.868421,41.2692055 L13.868421,43.0144293 C13.868421,43.1755628 13.9543987,43.3243776 14.0937926,43.4045146 L21.4264159,47.6200101 C21.6412391,47.7435111 21.9152193,47.6689813 22.0383678,47.4535432 C22.0772763,47.3854759 22.0977476,47.3083832 22.0977476,47.2299249 L22.0977476,45.5019974 C22.0977476,45.341148 22.0120704,45.1925505 21.8730636,45.1123082 L14.5404403,40.8795163 C14.3258352,40.7556345 14.0517241,40.8296782 13.9281958,41.0448976 C13.8890332,41.1131294 13.868421,41.1904775 13.868421,41.2692055 Z" id="Path-15" fill="url(#linearGradient-22)"></path>
                        <path d="M2.23684211,34.5083888 L2.23684211,36.2536126 C2.23684211,36.4147461 2.32281977,36.5635609 2.46221368,36.6436979 L9.79483695,40.8591934 C10.0096602,40.9826944 10.2836404,40.9081647 10.4067889,40.6927265 C10.4456974,40.6246592 10.4661687,40.5475665 10.4661687,40.4691082 L10.4661687,38.7411807 C10.4661687,38.5803313 10.3804915,38.4317338 10.2414846,38.3514915 L2.90886138,34.1186997 C2.69425629,33.9948178 2.42014509,34.0688616 2.29661687,34.2840809 C2.25745423,34.3523128 2.23684211,34.4296608 2.23684211,34.5083888 Z" id="Path-15-Copy" fill="url(#linearGradient-22)"></path>
                    </g>
                    <g id="Group-9-Copy" transform="translate(27.000000, 47.054092) scale(-1, 1) translate(-27.000000, -47.054092) translate(3.000000, 17.054092)">
                        <path d="M2.23684211,0.284786391 L22.8157895,11.9840741 C24.0511632,12.6863934 25.0526316,14.4664519 25.0526316,15.9599461 L25.0526316,57.6047847 C25.0526316,59.098279 24.0511632,59.7396525 22.8157895,59.0373332 L2.23684211,47.3380457 C1.00146832,46.6357264 0,44.8556678 0,43.3621737 L0,1.717335 C0,0.223840883 1.00146832,-0.417532974 2.23684211,0.284786391 Z" id="Rectangle" fill="url(#linearGradient-23)"></path>
                        <path d="M30.2637363,32.5985404 L47.0275773,42.1948321" id="Line-5" stroke="url(#linearGradient-24)" stroke-width="3.136" stroke-linecap="round" transform="translate(38.645657, 37.396686) scale(-1, 1) rotate(-180.000000) translate(-38.645657, -37.396686) "></path>
                        <path d="M30.2637363,11.2408761 L47.0275773,20.8371678" id="Line-5-Copy-2" stroke="url(#linearGradient-24)" stroke-width="3.136" stroke-linecap="round" transform="translate(38.645657, 16.039022) scale(-1, 1) rotate(-180.000000) translate(-38.645657, -16.039022) "></path>
                        <path d="M30.2637363,40.4671535 L47.0275773,50.0634452" id="Line-5-Copy" stroke="url(#linearGradient-24)" stroke-width="3.136" stroke-linecap="round" transform="translate(38.645657, 45.265299) scale(-1, 1) rotate(-180.000000) translate(-38.645657, -45.265299) "></path>
                        <path d="M3.92307692,16.8613139 L20.6869179,26.4576056" id="Line-5-Copy-8" stroke="url(#linearGradient-25)" stroke-width="3.136" stroke-linecap="round"></path>
                        <path d="M3.92307692,24.729927 L20.6869179,34.3262187" id="Line-5-Copy-9" stroke="url(#linearGradient-25)" stroke-width="3.136" stroke-linecap="round"></path>
                        <path d="M3.92307692,32.5985401 L20.6869179,42.1948318" id="Line-5-Copy-10" stroke="url(#linearGradient-25)" stroke-width="3.136" stroke-linecap="round"></path>
                        <path d="M3.92307692,40.4671533 L20.6869179,50.063445" id="Line-5-Copy-11" stroke="url(#linearGradient-25)" stroke-width="3.136" stroke-linecap="round"></path>
                    </g>
                </g>
                <path d="M217.5,218 C252.570082,218 281,189.570082 281,154.5 C281,119.429918 252.570082,91 217.5,91 C182.429918,91 154,119.429918 154,154.5 C154,189.570082 182.429918,218 217.5,218 Z" id="Oval" stroke="#FFFFFF" stroke-width="3" stroke-linecap="round" stroke-dasharray="10,10" transform="translate(217.500000, 154.500000) rotate(10.000000) translate(-217.500000, -154.500000) "></path>
                <g id="Group-17" transform="translate(251.000000, 166.000000)">
                    <circle id="Oval" fill="#FFFFFF" opacity="0.07" cx="20.5" cy="20.5" r="20.5"></circle>
                    <circle id="Oval-Copy-5" fill="#FFFFFF" opacity="0.1" cx="20.5" cy="20.5" r="16.5"></circle>
                    <circle id="Oval-Copy-4" fill="url(#linearGradient-26)" cx="20.5" cy="20.5" r="12.5"></circle>
                    <polyline id="Line-6" stroke="#FFFFFF" stroke-width="2.8" stroke-linecap="round" points="15.2916667 20.5 18.9222412 23.1068793 25.5974528 16.3414592"></polyline>
                </g>
            </g>
        </g>
    </g>
</svg>