<?xml version="1.0" encoding="utf-8"?>
<!-- Generator: Adobe Illustrator 19.2.1, SVG Export Plug-In . SVG Version: 6.00 Build 0)  -->
<svg version="1.1" id="Layer_1" xmlns="http://www.w3.org/2000/svg" xmlns:xlink="http://www.w3.org/1999/xlink" x="0px" y="0px"
	 width="480px" height="340px" viewBox="0 0 480 340" style="enable-background:new 0 0 480 340;" xml:space="preserve">
<style type="text/css">
	.st0{fill:#143B57;}
	.st1{fill:none;stroke:#33CFB9;stroke-width:0.5102;stroke-miterlimit:10;}
	.st2{fill:#FFFFFF;}
	.st3{opacity:0.8;}
	.st4{clip-path:url(#SVGID_2_);}
	.st5{clip-path:url(#SVGID_4_);fill:#FFFFFF;}
	.st6{clip-path:url(#SVGID_6_);}
	.st7{clip-path:url(#SVGID_8_);fill:#FFFFFF;}
	.st8{clip-path:url(#SVGID_10_);}
	.st9{clip-path:url(#SVGID_12_);fill:#FFFFFF;}
	.st10{clip-path:url(#SVGID_14_);}
	.st11{clip-path:url(#SVGID_16_);fill:#FFFFFF;}
	.st12{clip-path:url(#SVGID_18_);}
	.st13{clip-path:url(#SVGID_20_);fill:#FFFFFF;}
	.st14{clip-path:url(#SVGID_22_);}
	.st15{clip-path:url(#SVGID_24_);fill:#FFFFFF;}
	.st16{clip-path:url(#SVGID_26_);}
	.st17{clip-path:url(#SVGID_28_);fill:#FFFFFF;}
	.st18{clip-path:url(#SVGID_30_);}
	.st19{clip-path:url(#SVGID_32_);fill:#FFFFFF;}
	.st20{clip-path:url(#SVGID_34_);}
	.st21{clip-path:url(#SVGID_36_);fill:#FFFFFF;}
	.st22{clip-path:url(#SVGID_38_);}
	.st23{clip-path:url(#SVGID_40_);fill:#FFFFFF;}
	.st24{clip-path:url(#SVGID_42_);}
	.st25{clip-path:url(#SVGID_44_);fill:#FFFFFF;}
	.st26{clip-path:url(#SVGID_46_);}
	.st27{clip-path:url(#SVGID_48_);fill:#FFFFFF;}
	.st28{fill:#275A7D;}
	.st29{fill:#74CAC8;}
	.st30{fill:none;stroke:#275A7D;stroke-width:1.4;stroke-linecap:round;stroke-linejoin:round;}
	.st31{clip-path:url(#SVGID_50_);}
	.st32{clip-path:url(#SVGID_52_);fill:#FFFFFF;}
	.st33{clip-path:url(#SVGID_54_);}
	.st34{clip-path:url(#SVGID_56_);fill:#FFFFFF;}
	.st35{clip-path:url(#SVGID_58_);}
	.st36{clip-path:url(#SVGID_60_);fill:#FFFFFF;}
	.st37{clip-path:url(#SVGID_62_);}
	.st38{clip-path:url(#SVGID_64_);fill:#FFFFFF;}
</style>
<g>
	<path class="st0" d="M308.7,112.6L308.7,112.6c0-1.5,1.2-2.7,2.6-2.7c1.5,0,2.6,1.2,2.6,2.6v0c0,1.4-1.2,2.6-2.6,2.6
		C309.9,115.3,308.7,114.1,308.7,112.6 M313.6,112.6L313.6,112.6c0-1.2-0.9-2.2-2.2-2.2c-1.2,0-2.2,1-2.2,2.2v0
		c0,1.2,0.9,2.2,2.2,2.2C312.6,114.9,313.6,113.8,313.6,112.6 M310.3,111.5c0-0.1,0.1-0.3,0.3-0.3h1c0.6,0,1,0.3,1,0.8
		c0,0.4-0.2,0.7-0.6,0.8l0.5,0.6c0.1,0.1,0.1,0.1,0.1,0.2c0,0.1-0.1,0.3-0.2,0.3c-0.1,0-0.2-0.1-0.2-0.1l-0.7-0.8h-0.5v0.7
		c0,0.1-0.1,0.3-0.3,0.3c-0.2,0-0.3-0.1-0.3-0.3V111.5z M311.5,112.6c0.3,0,0.5-0.2,0.5-0.4c0-0.3-0.2-0.4-0.5-0.4h-0.7v0.9H311.5z"
		/>
	<line class="st1" x1="179.6" y1="83.7" x2="221.1" y2="117"/>
	<line class="st1" x1="92.6" y1="165.1" x2="218.4" y2="150.2"/>
	<line class="st1" x1="224.2" y1="217.9" x2="245.9" y2="187.8"/>
	<line class="st1" x1="327.4" y1="115.3" x2="371.6" y2="102.6"/>
	<line class="st1" x1="314" y1="179.9" x2="384.5" y2="246.7"/>
	<g>
		<g>
			<path class="st2" d="M308.7,112.6L308.7,112.6c0-1.5,1.2-2.7,2.6-2.7c1.5,0,2.6,1.2,2.6,2.6v0c0,1.4-1.2,2.6-2.6,2.6
				C309.9,115.3,308.7,114.1,308.7,112.6 M313.6,112.6L313.6,112.6c0-1.2-0.9-2.2-2.2-2.2c-1.2,0-2.2,1-2.2,2.2v0
				c0,1.2,0.9,2.2,2.2,2.2C312.6,114.9,313.6,113.8,313.6,112.6 M310.3,111.5c0-0.1,0.1-0.3,0.3-0.3h1c0.6,0,1,0.3,1,0.8
				c0,0.4-0.2,0.7-0.6,0.8l0.5,0.6c0.1,0.1,0.1,0.1,0.1,0.2c0,0.1-0.1,0.3-0.2,0.3c-0.1,0-0.2-0.1-0.2-0.1l-0.7-0.8h-0.5v0.7
				c0,0.1-0.1,0.3-0.3,0.3c-0.2,0-0.3-0.1-0.3-0.3V111.5z M311.5,112.6c0.3,0,0.5-0.2,0.5-0.4c0-0.3-0.2-0.4-0.5-0.4h-0.7v0.9H311.5
				z"/>
			<g class="st3">
				<g>
					<defs>
						<rect id="SVGID_1_" x="242.9" y="111.1" width="14.7" height="54.9"/>
					</defs>
					<clipPath id="SVGID_2_">
						<use xlink:href="#SVGID_1_"  style="overflow:visible;"/>
					</clipPath>
					<g class="st4">
						<defs>
							<rect id="SVGID_3_" x="242.9" y="111.1" width="14.7" height="54.9"/>
						</defs>
						<clipPath id="SVGID_4_">
							<use xlink:href="#SVGID_3_"  style="overflow:visible;"/>
						</clipPath>
						<path class="st5" d="M250.2,111.1L250.2,111.1c-4,0-7.3,3.3-7.3,7.3v40.3c0,4,3.3,7.3,7.3,7.3c4,0,7.3-3.3,7.3-7.3v-40.3
							C257.6,114.4,254.3,111.1,250.2,111.1"/>
					</g>
				</g>
			</g>
			<g class="st3">
				<g>
					<defs>
						<rect id="SVGID_5_" x="242.9" y="111.1" width="42" height="42"/>
					</defs>
					<clipPath id="SVGID_6_">
						<use xlink:href="#SVGID_5_"  style="overflow:visible;"/>
					</clipPath>
					<g class="st6">
						<defs>
							<rect id="SVGID_7_" x="242.9" y="111.1" width="42" height="42"/>
						</defs>
						<clipPath id="SVGID_8_">
							<use xlink:href="#SVGID_7_"  style="overflow:visible;"/>
						</clipPath>
						<path class="st7" d="M255.4,113.3c-2.9-2.9-7.5-2.9-10.4,0c-2.9,2.9-2.9,7.5,0,10.4l29.5,29.5l10.4-10.4L255.4,113.3z"/>
					</g>
				</g>
			</g>
			<g class="st3">
				<g>
					<defs>
						<rect id="SVGID_9_" x="291.5" y="111.1" width="14.7" height="54.9"/>
					</defs>
					<clipPath id="SVGID_10_">
						<use xlink:href="#SVGID_9_"  style="overflow:visible;"/>
					</clipPath>
					<g class="st8">
						<defs>
							<rect id="SVGID_11_" x="291.5" y="111.1" width="14.7" height="54.9"/>
						</defs>
						<clipPath id="SVGID_12_">
							<use xlink:href="#SVGID_11_"  style="overflow:visible;"/>
						</clipPath>
						<path class="st9" d="M298.9,111.1L298.9,111.1c4,0,7.3,3.3,7.3,7.3v40.3c0,4-3.3,7.3-7.3,7.3c-4,0-7.3-3.3-7.3-7.3v-40.3
							C291.5,114.4,294.8,111.1,298.9,111.1"/>
					</g>
				</g>
			</g>
			<g class="st3">
				<g>
					<defs>
						<rect id="SVGID_13_" x="264.2" y="111.1" width="42" height="42"/>
					</defs>
					<clipPath id="SVGID_14_">
						<use xlink:href="#SVGID_13_"  style="overflow:visible;"/>
					</clipPath>
					<g class="st10">
						<defs>
							<rect id="SVGID_15_" x="264.2" y="111.1" width="42" height="42"/>
						</defs>
						<clipPath id="SVGID_16_">
							<use xlink:href="#SVGID_15_"  style="overflow:visible;"/>
						</clipPath>
						<path class="st11" d="M293.7,113.3c2.9-2.9,7.5-2.9,10.4,0c2.9,2.9,2.9,7.5,0,10.4l-29.5,29.5l-10.4-10.4L293.7,113.3z"/>
					</g>
				</g>
			</g>
		</g>
		<g>
			<path class="st2" d="M308.7,112.6L308.7,112.6c0-1.5,1.2-2.7,2.6-2.7c1.5,0,2.6,1.2,2.6,2.6v0c0,1.4-1.2,2.6-2.6,2.6
				C309.9,115.3,308.7,114.1,308.7,112.6 M313.6,112.6L313.6,112.6c0-1.2-0.9-2.2-2.2-2.2c-1.2,0-2.2,1-2.2,2.2v0
				c0,1.2,0.9,2.2,2.2,2.2C312.6,114.9,313.6,113.8,313.6,112.6 M310.3,111.5c0-0.1,0.1-0.3,0.3-0.3h1c0.6,0,1,0.3,1,0.8
				c0,0.4-0.2,0.7-0.6,0.8l0.5,0.6c0.1,0.1,0.1,0.1,0.1,0.2c0,0.1-0.1,0.3-0.2,0.3c-0.1,0-0.2-0.1-0.2-0.1l-0.7-0.8h-0.5v0.7
				c0,0.1-0.1,0.3-0.3,0.3c-0.2,0-0.3-0.1-0.3-0.3V111.5z M311.5,112.6c0.3,0,0.5-0.2,0.5-0.4c0-0.3-0.2-0.4-0.5-0.4h-0.7v0.9H311.5
				z"/>
			<g class="st3">
				<g>
					<defs>
						<rect id="SVGID_17_" x="242.9" y="111.1" width="14.7" height="54.9"/>
					</defs>
					<clipPath id="SVGID_18_">
						<use xlink:href="#SVGID_17_"  style="overflow:visible;"/>
					</clipPath>
					<g class="st12">
						<defs>
							<rect id="SVGID_19_" x="242.9" y="111.1" width="14.7" height="54.9"/>
						</defs>
						<clipPath id="SVGID_20_">
							<use xlink:href="#SVGID_19_"  style="overflow:visible;"/>
						</clipPath>
						<path class="st13" d="M250.2,111.1L250.2,111.1c-4,0-7.3,3.3-7.3,7.3v40.3c0,4,3.3,7.3,7.3,7.3c4,0,7.3-3.3,7.3-7.3v-40.3
							C257.6,114.4,254.3,111.1,250.2,111.1"/>
					</g>
				</g>
			</g>
			<g class="st3">
				<g>
					<defs>
						<rect id="SVGID_21_" x="242.9" y="111.1" width="42" height="42"/>
					</defs>
					<clipPath id="SVGID_22_">
						<use xlink:href="#SVGID_21_"  style="overflow:visible;"/>
					</clipPath>
					<g class="st14">
						<defs>
							<rect id="SVGID_23_" x="242.9" y="111.1" width="42" height="42"/>
						</defs>
						<clipPath id="SVGID_24_">
							<use xlink:href="#SVGID_23_"  style="overflow:visible;"/>
						</clipPath>
						<path class="st15" d="M255.4,113.3c-2.9-2.9-7.5-2.9-10.4,0c-2.9,2.9-2.9,7.5,0,10.4l29.5,29.5l10.4-10.4L255.4,113.3z"/>
					</g>
				</g>
			</g>
			<g class="st3">
				<g>
					<defs>
						<rect id="SVGID_25_" x="291.5" y="111.1" width="14.7" height="54.9"/>
					</defs>
					<clipPath id="SVGID_26_">
						<use xlink:href="#SVGID_25_"  style="overflow:visible;"/>
					</clipPath>
					<g class="st16">
						<defs>
							<rect id="SVGID_27_" x="291.5" y="111.1" width="14.7" height="54.9"/>
						</defs>
						<clipPath id="SVGID_28_">
							<use xlink:href="#SVGID_27_"  style="overflow:visible;"/>
						</clipPath>
						<path class="st17" d="M298.9,111.1L298.9,111.1c4,0,7.3,3.3,7.3,7.3v40.3c0,4-3.3,7.3-7.3,7.3c-4,0-7.3-3.3-7.3-7.3v-40.3
							C291.5,114.4,294.8,111.1,298.9,111.1"/>
					</g>
				</g>
			</g>
			<g class="st3">
				<g>
					<defs>
						<rect id="SVGID_29_" x="264.2" y="111.1" width="42" height="42"/>
					</defs>
					<clipPath id="SVGID_30_">
						<use xlink:href="#SVGID_29_"  style="overflow:visible;"/>
					</clipPath>
					<g class="st18">
						<defs>
							<rect id="SVGID_31_" x="264.2" y="111.1" width="42" height="42"/>
						</defs>
						<clipPath id="SVGID_32_">
							<use xlink:href="#SVGID_31_"  style="overflow:visible;"/>
						</clipPath>
						<path class="st19" d="M293.7,113.3c2.9-2.9,7.5-2.9,10.4,0c2.9,2.9,2.9,7.5,0,10.4l-29.5,29.5l-10.4-10.4L293.7,113.3z"/>
					</g>
				</g>
			</g>
		</g>
	</g>
	<g>
		<path class="st2" d="M308.7,112.6L308.7,112.6c0-1.5,1.2-2.7,2.6-2.7c1.5,0,2.6,1.2,2.6,2.6v0c0,1.4-1.2,2.6-2.6,2.6
			C309.9,115.3,308.7,114.1,308.7,112.6 M313.6,112.6L313.6,112.6c0-1.2-0.9-2.2-2.2-2.2c-1.2,0-2.2,1-2.2,2.2v0
			c0,1.2,0.9,2.2,2.2,2.2C312.6,114.9,313.6,113.8,313.6,112.6 M310.3,111.5c0-0.1,0.1-0.3,0.3-0.3h1c0.6,0,1,0.3,1,0.8
			c0,0.4-0.2,0.7-0.6,0.8l0.5,0.6c0.1,0.1,0.1,0.1,0.1,0.2c0,0.1-0.1,0.3-0.2,0.3c-0.1,0-0.2-0.1-0.2-0.1l-0.7-0.8h-0.5v0.7
			c0,0.1-0.1,0.3-0.3,0.3c-0.2,0-0.3-0.1-0.3-0.3V111.5z M311.5,112.6c0.3,0,0.5-0.2,0.5-0.4c0-0.3-0.2-0.4-0.5-0.4h-0.7v0.9H311.5z
			"/>
		<g class="st3">
			<g>
				<defs>
					<rect id="SVGID_33_" x="242.9" y="111.1" width="14.7" height="54.9"/>
				</defs>
				<clipPath id="SVGID_34_">
					<use xlink:href="#SVGID_33_"  style="overflow:visible;"/>
				</clipPath>
				<g class="st20">
					<defs>
						<rect id="SVGID_35_" x="242.9" y="111.1" width="14.7" height="54.9"/>
					</defs>
					<clipPath id="SVGID_36_">
						<use xlink:href="#SVGID_35_"  style="overflow:visible;"/>
					</clipPath>
					<path class="st21" d="M250.2,111.1L250.2,111.1c-4,0-7.3,3.3-7.3,7.3v40.3c0,4,3.3,7.3,7.3,7.3c4,0,7.3-3.3,7.3-7.3v-40.3
						C257.6,114.4,254.3,111.1,250.2,111.1"/>
				</g>
			</g>
		</g>
		<g class="st3">
			<g>
				<defs>
					<rect id="SVGID_37_" x="242.9" y="111.1" width="42" height="42"/>
				</defs>
				<clipPath id="SVGID_38_">
					<use xlink:href="#SVGID_37_"  style="overflow:visible;"/>
				</clipPath>
				<g class="st22">
					<defs>
						<rect id="SVGID_39_" x="242.9" y="111.1" width="42" height="42"/>
					</defs>
					<clipPath id="SVGID_40_">
						<use xlink:href="#SVGID_39_"  style="overflow:visible;"/>
					</clipPath>
					<path class="st23" d="M255.4,113.3c-2.9-2.9-7.5-2.9-10.4,0c-2.9,2.9-2.9,7.5,0,10.4l29.5,29.5l10.4-10.4L255.4,113.3z"/>
				</g>
			</g>
		</g>
		<g class="st3">
			<g>
				<defs>
					<rect id="SVGID_41_" x="291.5" y="111.1" width="14.7" height="54.9"/>
				</defs>
				<clipPath id="SVGID_42_">
					<use xlink:href="#SVGID_41_"  style="overflow:visible;"/>
				</clipPath>
				<g class="st24">
					<defs>
						<rect id="SVGID_43_" x="291.5" y="111.1" width="14.7" height="54.9"/>
					</defs>
					<clipPath id="SVGID_44_">
						<use xlink:href="#SVGID_43_"  style="overflow:visible;"/>
					</clipPath>
					<path class="st25" d="M298.9,111.1L298.9,111.1c4,0,7.3,3.3,7.3,7.3v40.3c0,4-3.3,7.3-7.3,7.3c-4,0-7.3-3.3-7.3-7.3v-40.3
						C291.5,114.4,294.8,111.1,298.9,111.1"/>
				</g>
			</g>
		</g>
		<g class="st3">
			<g>
				<defs>
					<rect id="SVGID_45_" x="264.2" y="111.1" width="42" height="42"/>
				</defs>
				<clipPath id="SVGID_46_">
					<use xlink:href="#SVGID_45_"  style="overflow:visible;"/>
				</clipPath>
				<g class="st26">
					<defs>
						<rect id="SVGID_47_" x="264.2" y="111.1" width="42" height="42"/>
					</defs>
					<clipPath id="SVGID_48_">
						<use xlink:href="#SVGID_47_"  style="overflow:visible;"/>
					</clipPath>
					<path class="st27" d="M293.7,113.3c2.9-2.9,7.5-2.9,10.4,0c2.9,2.9,2.9,7.5,0,10.4l-29.5,29.5l-10.4-10.4L293.7,113.3z"/>
				</g>
			</g>
		</g>
	</g>
	<g>
		
			<image style="overflow:visible;opacity:0.25;" width="152" height="152" xlink:href="A14387A0.png"  transform="matrix(1 0 0 1 199 67.946)">
		</image>
		<g>
			<circle class="st28" cx="274.6" cy="138" r="57.5"/>
		</g>
	</g>
	<g>
		
			<image style="overflow:visible;opacity:0.25;" width="83" height="83" xlink:href="A14387A1.png"  transform="matrix(1 0 0 1 28 130.946)">
		</image>
		<g>
			<ellipse transform="matrix(0.9834 -0.1816 0.1816 0.9834 -28.9926 15.4038)" class="st2" cx="69.6" cy="166.1" rx="23" ry="23"/>
		</g>
	</g>
	<g>
		
			<image style="overflow:visible;opacity:0.25;" width="83" height="83" xlink:href="A14387A7.png"  transform="matrix(1 0 0 1 174 203.946)">
		</image>
		<g>
			
				<ellipse transform="matrix(0.9699 -0.2436 0.2436 0.9699 -51.8508 59.7834)" class="st2" cx="215.8" cy="239.5" rx="23" ry="23"/>
		</g>
	</g>
	<g>
		
			<image style="overflow:visible;opacity:0.25;" width="83" height="83" xlink:href="A14387A2.png"  transform="matrix(1 0 0 1 351 60.946)">
		</image>
		<g>
			<ellipse transform="matrix(0.1613 -0.9869 0.9869 0.1613 234.5172 467.971)" class="st2" cx="392.6" cy="96" rx="23" ry="23"/>
		</g>
	</g>
	<g>
		
			<image style="overflow:visible;opacity:0.25;" width="83" height="83" xlink:href="A14387A3.png"  transform="matrix(1 0 0 1 360 226.946)">
		</image>
		<g>
			
				<ellipse transform="matrix(0.2051 -0.9787 0.9787 0.2051 61.9807 601.3452)" class="st2" cx="401.2" cy="262.5" rx="23" ry="23"/>
		</g>
	</g>
	<g>
		
			<image style="overflow:visible;opacity:0.25;" width="83" height="83" xlink:href="A14387AE.png"  transform="matrix(1 0 0 1 119 36.946)">
		</image>
		<g>
			<circle class="st2" cx="161" cy="72.9" r="23"/>
		</g>
	</g>
	<g>
		<path class="st28" d="M214.3,249.3c-6.1,0-11.1-4.9-11.1-11.1c0-6.1,4.9-11.1,11.1-11.1s11.1,4.9,11.1,11.1
			C225.5,244.2,220.5,249.3,214.3,249.3z M214.3,228.7c-5.3,0-9.5,4.2-9.5,9.5c0,5.3,4.2,9.5,9.5,9.5c5.3,0,9.5-4.2,9.5-9.5
			C223.8,232.9,219.6,228.7,214.3,228.7z"/>
		<circle class="st29" cx="214.3" cy="238.1" r="6.8"/>
		<path id="Combined-Shape_6_" class="st28" d="M208.7,240.9c-0.9,0-1.8-0.7-1.8-1.8c0-0.9,0.7-1.8,1.8-1.8c0.9,0,1.8,0.7,1.8,1.8
			C210.4,240.1,209.6,240.9,208.7,240.9z M208.7,239.7c0.3,0,0.6-0.2,0.6-0.6c0-0.3-0.2-0.6-0.6-0.6c-0.3,0-0.6,0.2-0.6,0.6
			C208.1,239.5,208.3,239.7,208.7,239.7z"/>
		<path id="Combined-Shape_5_" class="st28" d="M214.3,234.6c-0.9,0-1.8-0.7-1.8-1.8c0-0.9,0.7-1.8,1.8-1.8c0.9,0,1.8,0.7,1.8,1.8
			C216.1,233.8,215.3,234.6,214.3,234.6z M214.3,233.4c0.3,0,0.6-0.2,0.6-0.6c0-0.3-0.2-0.6-0.6-0.6c-0.3,0-0.6,0.2-0.6,0.6
			C213.7,233.2,214,233.4,214.3,233.4z"/>
		<path id="Combined-Shape_4_" class="st28" d="M220.3,240.9c-0.9,0-1.8-0.7-1.8-1.8c0-0.9,0.7-1.8,1.8-1.8c1.1,0,1.8,0.7,1.8,1.8
			C222.1,240.1,221.4,240.9,220.3,240.9z M220.3,239.7c0.3,0,0.6-0.2,0.6-0.6c0-0.3-0.2-0.6-0.6-0.6c-0.4,0-0.6,0.2-0.6,0.6
			C219.8,239.5,220,239.7,220.3,239.7z"/>
		
			<rect x="208.3" y="235.1" transform="matrix(0.6416 -0.767 0.767 0.6416 -105.0936 246.5976)" class="st28" width="6.1" height="1.3"/>
		
			<rect x="216.7" y="232.6" transform="matrix(0.7277 -0.6859 0.6859 0.7277 -102.494 213.216)" class="st28" width="1.3" height="6.2"/>
		<path class="st28" d="M221.1,238.9c-0.1,0-0.3-0.1-0.4-0.2c-0.2-0.2-0.3-0.6,0-0.9l5.7-6.3c0.2-0.2,0.6-0.3,0.9,0
			c0.2,0.2,0.3,0.6,0,0.9l-5.7,6.3C221.4,238.8,221.2,238.9,221.1,238.9z"/>
		<path class="st28" d="M227.6,252c-0.2,0-0.4-0.1-0.6-0.2l-5.9-5.9c-0.3-0.3-0.3-0.8,0-1.2c0.3-0.3,0.8-0.3,1.2,0l5.9,5.9
			c0.3,0.3,0.3,0.8,0,1.2C228,251.9,227.8,252,227.6,252z"/>
	</g>
	<g>
		<path class="st29" d="M395.9,98.3c0-0.9,0.7-1.7,1.7-1.7h1.1c0.5,0,0.8-0.4,0.8-0.8v-6.2c0-0.9-0.7-1.7-1.7-1.7h-10.4
			c-0.9,0-1.7,0.7-1.7,1.7v12.1c0,0.9,0.7,1.7,1.7,1.7h7.6c0.5,0,0.8-0.4,0.8-0.8v-4.2H395.9z"/>
		<g id="add_3_" transform="translate(18.067542, 14.454034)">
			<g>
				<path id="Path_3_" class="st28" d="M381.5,91.2L381.5,91.2L381.5,91.2c-0.7,0-1.3-0.6-1.3-1.3c0-0.2-0.1-0.3-0.3-0.3
					c-0.2,0-0.3,0.1-0.3,0.3c0,0.9,0.6,1.7,1.6,1.9v0.6c0,0.2,0.1,0.3,0.3,0.3s0.3-0.1,0.3-0.3v-0.6c0.9-0.2,1.7-1.1,1.6-2
					c-0.1-0.9-0.9-1.8-1.9-1.8c-0.7,0-1.3-0.6-1.3-1.3c0-0.7,0.6-1.3,1.3-1.3c0.7,0,1.3,0.6,1.3,1.3c0,0.2,0.1,0.3,0.3,0.3
					c0.2,0,0.3-0.1,0.3-0.3c0-0.9-0.6-1.7-1.6-1.9v-0.6c0-0.2-0.1-0.3-0.3-0.3s-0.3,0.1-0.3,0.3v0.6c-0.9,0.2-1.7,1.1-1.6,2
					c0.1,0.9,0.9,1.8,1.9,1.8c0.7,0,1.3,0.5,1.3,1.3C382.8,90.6,382.2,91.2,381.5,91.2L381.5,91.2z"/>
				<path class="st28" d="M381.5,93c-0.3,0-0.6-0.3-0.6-0.6V92c-0.9-0.3-1.6-1.2-1.6-2.1c0-0.3,0.3-0.6,0.6-0.6
					c0.3,0,0.6,0.3,0.6,0.6c0,0.5,0.4,0.9,0.9,0.9v0.3v-0.3c0.5,0,0.9-0.4,0.9-0.9c0-0.5-0.4-0.9-0.9-0.9c-1.2,0-2.1-0.9-2.2-2.1
					c-0.1-1.1,0.6-2,1.6-2.3v-0.3c0-0.3,0.3-0.6,0.6-0.6s0.6,0.3,0.6,0.6v0.3c0.9,0.3,1.6,1.2,1.6,2.1c0,0.3-0.3,0.6-0.6,0.6
					c-0.3,0-0.6-0.3-0.6-0.6c0-0.5-0.4-0.9-0.9-0.9s-0.9,0.4-0.9,0.9c0,0.5,0.4,0.9,0.9,0.9c1.2,0,2.1,0.9,2.2,2.1
					c0.1,1.1-0.6,2-1.6,2.3v0.4C382.1,92.7,381.8,93,381.5,93z"/>
			</g>
		</g>
		<path class="st28" d="M393.8,106.7h-6.4c-2.8,0-5.1-2.3-5.1-5.1V89.6c0-2.8,2.3-5.1,5.1-5.1h10.4c2.8,0,5.1,2.3,5.1,5.1v7.4
			c0,0.4-0.3,0.7-0.7,0.7c-0.4,0-0.7-0.3-0.7-0.7v-7.4c0-2-1.6-3.6-3.6-3.6h-10.4c-2,0-3.6,1.6-3.6,3.6v12.1c0,2,1.6,3.6,3.6,3.6
			h6.4c0.4,0,0.7,0.3,0.7,0.7C394.5,106.3,394.2,106.7,393.8,106.7z"/>
		<path class="st28" d="M397,91.6H388c-0.4,0-0.7-0.3-0.7-0.7c0-0.4,0.3-0.7,0.7-0.7h8.9c0.4,0,0.7,0.3,0.7,0.7
			C397.7,91.1,397.4,91.6,397,91.6z"/>
		<path class="st28" d="M397,94.9H388c-0.4,0-0.7-0.3-0.7-0.7c0-0.4,0.3-0.7,0.7-0.7h8.9c0.4,0,0.7,0.3,0.7,0.7
			C397.7,94.6,397.4,94.9,397,94.9z"/>
		<path class="st28" d="M393.8,99.1H388c-0.4,0-0.7-0.3-0.7-0.7c0-0.4,0.3-0.7,0.7-0.7h5.8c0.4,0,0.7,0.3,0.7,0.7
			C394.5,98.7,394.2,99.1,393.8,99.1z"/>
	</g>
	<g>
		<polygon class="st29" points="77.6,170.1 67.6,170.1 67.5,168.2 65.7,167.9 65.7,158.3 77.6,158.3 		"/>
		<path class="st28" d="M79.1,172.9h-1.9c-0.4,0-0.6-0.3-0.6-0.6c0-0.4,0.3-0.6,0.6-0.6H79v-1.9c0-0.4,0.3-0.6,0.6-0.6
			s0.6,0.3,0.6,0.6v1.8C80.3,172.3,79.7,172.9,79.1,172.9z M74,172.9h-3.9c-0.4,0-0.6-0.3-0.6-0.6c0-0.4,0.3-0.6,0.6-0.6H74
			c0.4,0,0.6,0.3,0.6,0.6C74.6,172.6,74.3,172.9,74,172.9z M79.6,167.1c-0.4,0-0.6-0.3-0.6-0.6v-4.4c0-0.4,0.3-0.6,0.6-0.6
			s0.6,0.3,0.6,0.6v4.4C80.3,166.8,80,167.1,79.6,167.1z M63.7,166.3c-0.4,0-0.6-0.3-0.6-0.6v-3.9c0-0.4,0.3-0.6,0.6-0.6
			s0.6,0.3,0.6,0.6v3.8C64.3,166,64,166.3,63.7,166.3z M79.6,159.1c-0.4,0-0.6-0.3-0.6-0.6v-1.6h-1.3c-0.4,0-0.6-0.3-0.6-0.6
			c0-0.4,0.3-0.6,0.6-0.6h1.4c0.7,0,1.2,0.5,1.2,1.2v1.7C80.3,158.8,80,159.1,79.6,159.1z M79.1,156.9L79.1,156.9L79.1,156.9z
			 M63.7,159.1c-0.4,0-0.6-0.3-0.6-0.6v-1.7c0-0.7,0.5-1.2,1.2-1.2h1.5c0.4,0,0.6,0.3,0.6,0.6c0,0.4-0.3,0.6-0.6,0.6h-1.4v1.6
			C64.3,158.8,64,159.1,63.7,159.1z M73.9,156.9h-4.2c-0.4,0-0.6-0.3-0.6-0.6c0-0.4,0.3-0.6,0.6-0.6h4.2c0.4,0,0.6,0.3,0.6,0.6
			C74.5,156.6,74.2,156.9,73.9,156.9z"/>
		<path class="st28" d="M67.5,168.9c-0.2,0-0.3-0.1-0.5-0.2c-0.3-0.3-0.3-0.7,0-1l6.7-6.8c0.3-0.3,0.7-0.3,1,0s0.3,0.7,0,1l-6.7,6.8
			C67.8,168.8,67.6,168.9,67.5,168.9z"/>
		<path class="st28" d="M74.9,165.3c-0.4,0-0.7-0.3-0.7-0.7v-3.3h-3.3c-0.4,0-0.7-0.3-0.7-0.7c0-0.4,0.3-0.7,0.7-0.7h4
			c0.4,0,0.7,0.3,0.7,0.7v4C75.6,165,75.3,165.3,74.9,165.3z"/>
		<path class="st28" d="M67.6,176.6h-8c-0.4,0-0.7-0.3-0.7-0.7v-8c0-0.4,0.3-0.7,0.7-0.7h8c0.4,0,0.7,0.3,0.7,0.7v8
			C68.3,176.3,68,176.6,67.6,176.6z M60.3,175.2H67v-6.7h-6.7V175.2z"/>
	</g>
	<g>
		<path class="st28" d="M409.1,265.9h-17.3c-1.8,0-3.3-1.5-3.3-3.3s1.5-3.3,3.3-3.3h17.3c1.8,0,3.3,1.5,3.3,3.3
			S411,265.9,409.1,265.9z M391.8,260.3c-1.2,0-2.2,1-2.2,2.2s1,2.2,2.2,2.2h17.3c1.2,0,2.2-1,2.2-2.2s-1-2.2-2.2-2.2H391.8z"/>
		<path class="st28" d="M409.1,260.3h-17.3c-1.8,0-3.3-1.5-3.3-3.3c0-1.8,1.5-3.3,3.3-3.3h17.3c1.8,0,3.3,1.5,3.3,3.3
			C412.5,258.8,411,260.3,409.1,260.3z M391.8,254.8c-1.2,0-2.2,1-2.2,2.2c0,1.2,1,2.2,2.2,2.2h17.3c1.2,0,2.2-1,2.2-2.2
			c0-1.2-1-2.2-2.2-2.2H391.8z"/>
		<path class="st29" d="M391.8,258.2c-0.6,0-1.2-0.5-1.2-1.2s0.5-1.2,1.2-1.2h17.3c0.6,0,1.2,0.5,1.2,1.2s-0.5,1.2-1.2,1.2H391.8z"
			/>
		<path class="st29" d="M391.8,263.8c-0.6,0-1.2-0.5-1.2-1.2s0.5-1.2,1.2-1.2h17.3c0.6,0,1.2,0.5,1.2,1.2s-0.5,1.2-1.2,1.2H391.8z"
			/>
		<g>
			<path id="Path-Copy-2_6_" class="st28" d="M393.8,262.6c0-0.2-0.2-0.4-0.4-0.4h-0.7c-0.2,0-0.4,0.2-0.4,0.4s0.2,0.4,0.4,0.4h0.7
				C393.6,263.1,393.8,262.9,393.8,262.6z"/>
			<path class="st28" d="M393.3,263.2h-0.7c-0.3,0-0.6-0.3-0.6-0.6s0.3-0.6,0.6-0.6h0.7c0.3,0,0.6,0.3,0.6,0.6
				S393.6,263.2,393.3,263.2z M392.6,262.3c-0.2,0-0.3,0.1-0.3,0.3c0,0.2,0.1,0.3,0.3,0.3h0.7c0.2,0,0.3-0.1,0.3-0.3
				c0-0.2-0.1-0.3-0.3-0.3H392.6z"/>
		</g>
		<path class="st28" d="M404.6,271.5h-12.8c-1.8,0-3.3-1.5-3.3-3.3c0-1.8,1.5-3.3,3.3-3.3c0.3,0,0.6,0.3,0.6,0.6
			c0,0.3-0.3,0.6-0.6,0.6c-1.2,0-2.2,1-2.2,2.2s1,2.2,2.2,2.2h12.8c0.3,0,0.6,0.3,0.6,0.6S405,271.5,404.6,271.5z"/>
		<g>
			<path id="Path-Copy-2_4_" class="st28" d="M393.8,257.1c0-0.2-0.2-0.4-0.4-0.4h-0.7c-0.2,0-0.4,0.2-0.4,0.4s0.2,0.4,0.4,0.4h0.7
				C393.6,257.5,393.8,257.3,393.8,257.1z"/>
			<path class="st28" d="M393.3,257.7h-0.7c-0.3,0-0.6-0.3-0.6-0.6c0-0.3,0.3-0.6,0.6-0.6h0.7c0.3,0,0.6,0.3,0.6,0.6
				C393.9,257.4,393.6,257.7,393.3,257.7z M392.6,256.8c-0.2,0-0.3,0.1-0.3,0.3c0,0.2,0.1,0.3,0.3,0.3h0.7c0.2,0,0.3-0.1,0.3-0.3
				c0-0.2-0.1-0.3-0.3-0.3H392.6z"/>
		</g>
		<path class="st29" d="M406.8,267h-14.9c-0.6,0-1.2,0.5-1.2,1.2c0,0.6,0.5,1.2,1.2,1.2h13.5C405.6,268.5,406.1,267.6,406.8,267z"/>
		<g>
			<path class="st28" d="M410.3,275c-2.3,0-4.2-1.9-4.2-4.2c0-2.3,1.9-4.2,4.2-4.2c2.3,0,4.2,1.9,4.2,4.2
				C414.5,273.1,412.6,275,410.3,275z M410.3,267.8c-1.7,0-3.1,1.4-3.1,3.1c0,1.7,1.4,3.1,3.1,3.1c1.7,0,3.1-1.4,3.1-3.1
				C413.4,269.2,412,267.8,410.3,267.8z"/>
			
				<rect x="406.3" y="270.6" transform="matrix(0.7071 -0.7071 0.7071 0.7071 -71.5126 369.5371)" class="st28" width="7.9" height="1"/>
		</g>
		<g>
			<path id="Path-Copy-2_3_" class="st28" d="M393.8,268.2c0-0.2-0.2-0.4-0.4-0.4h-0.7c-0.2,0-0.4,0.2-0.4,0.4s0.2,0.4,0.4,0.4h0.7
				C393.6,268.6,393.8,268.4,393.8,268.2z"/>
			<path class="st28" d="M393.3,268.8h-0.7c-0.3,0-0.6-0.3-0.6-0.6s0.3-0.6,0.6-0.6h0.7c0.3,0,0.6,0.3,0.6,0.6
				S393.6,268.8,393.3,268.8z M392.6,267.9c-0.2,0-0.3,0.1-0.3,0.3c0,0.2,0.1,0.3,0.3,0.3h0.7c0.2,0,0.3-0.1,0.3-0.3
				c0-0.2-0.1-0.3-0.3-0.3H392.6z"/>
		</g>
	</g>
	<g>
		<g id="Group-Copy-4-Copy-2_5_" transform="translate(5.000000, 25.000000)">
			<path class="st28" d="M163,58.8h-12.7c-1.5,0-2.7-1.2-2.7-2.7c0-1.5,1.2-2.7,2.7-2.7H163c1.5,0,2.7,1.2,2.7,2.7
				C165.7,57.5,164.5,58.8,163,58.8z M150.3,54.5c-0.9,0-1.5,0.7-1.5,1.5c0,0.9,0.7,1.5,1.5,1.5H163c0.9,0,1.5-0.7,1.5-1.5
				c0-0.9-0.7-1.5-1.5-1.5H150.3z"/>
			<g>
				<path id="Path-Copy-2_8_" class="st28" d="M151.5,56.1c0-0.2-0.2-0.4-0.4-0.4h-0.6c-0.2,0-0.4,0.2-0.4,0.4
					c0,0.2,0.2,0.4,0.4,0.4h0.6C151.4,56.5,151.5,56.3,151.5,56.1z"/>
				<path class="st28" d="M151.2,56.6h-0.6c-0.3,0-0.5-0.2-0.5-0.5s0.2-0.5,0.5-0.5h0.6c0.3,0,0.5,0.2,0.5,0.5
					S151.5,56.6,151.2,56.6z M150.6,55.9c-0.1,0-0.2,0.1-0.2,0.2c0,0.1,0.1,0.2,0.2,0.2h0.6c0.1,0,0.2-0.1,0.2-0.2
					c0-0.1-0.1-0.2-0.2-0.2H150.6z"/>
			</g>
			<g>
				<path id="Path_5_" class="st28" d="M163.2,56.1c0-0.2-0.2-0.4-0.3-0.4h-9.6c-0.2,0-0.3,0.2-0.3,0.4c0,0.2,0.2,0.4,0.3,0.4h9.6
					C163,56.5,163.2,56.3,163.2,56.1z"/>
				<path class="st28" d="M162.8,56.6h-9.6c-0.3,0-0.5-0.2-0.5-0.5s0.2-0.5,0.5-0.5h9.6c0.3,0,0.5,0.2,0.5,0.5
					S163.1,56.6,162.8,56.6z M153.2,55.9c-0.1,0-0.2,0.1-0.2,0.2c0,0.1,0.1,0.2,0.2,0.2h9.6c0.1,0,0.2-0.1,0.2-0.2
					c0-0.1-0.1-0.2-0.2-0.2H153.2z"/>
			</g>
		</g>
		<g id="Group-Copy-4-Copy-2_4_" transform="translate(5.000000, 25.000000)">
			<path class="st28" d="M163,54.3h-12.7c-1.5,0-2.7-1.2-2.7-2.7c0-1.5,1.2-2.7,2.7-2.7H163c1.5,0,2.7,1.2,2.7,2.7
				C165.7,53.1,164.5,54.3,163,54.3z M150.3,50.1c-0.9,0-1.5,0.7-1.5,1.5s0.7,1.5,1.5,1.5H163c0.9,0,1.5-0.7,1.5-1.5
				s-0.7-1.5-1.5-1.5H150.3z"/>
			<g>
				<path id="Path-Copy-2_7_" class="st28" d="M151.5,51.7c0-0.2-0.2-0.4-0.4-0.4h-0.6c-0.2,0-0.4,0.2-0.4,0.4s0.2,0.4,0.4,0.4h0.6
					C151.4,52,151.5,51.9,151.5,51.7z"/>
				<path class="st28" d="M151.2,52.2h-0.6c-0.3,0-0.5-0.2-0.5-0.5s0.2-0.5,0.5-0.5h0.6c0.3,0,0.5,0.2,0.5,0.5
					S151.5,52.2,151.2,52.2z M150.6,51.5c-0.1,0-0.2,0.1-0.2,0.2c0,0.1,0.1,0.2,0.2,0.2h0.6c0.1,0,0.2-0.1,0.2-0.2
					c0-0.1-0.1-0.2-0.2-0.2H150.6z"/>
			</g>
			<g>
				<path id="Path_4_" class="st28" d="M163.2,51.7c0-0.2-0.2-0.4-0.3-0.4h-9.6c-0.2,0-0.3,0.2-0.3,0.4s0.2,0.4,0.3,0.4h9.6
					C163,52,163.2,51.9,163.2,51.7z"/>
				<path class="st28" d="M162.8,52.2h-9.6c-0.3,0-0.5-0.2-0.5-0.5s0.2-0.5,0.5-0.5h9.6c0.3,0,0.5,0.2,0.5,0.5
					S163.1,52.2,162.8,52.2z M153.2,51.5c-0.1,0-0.2,0.1-0.2,0.2c0,0.1,0.1,0.2,0.2,0.2h9.6c0.1,0,0.2-0.1,0.2-0.2
					c0-0.1-0.1-0.2-0.2-0.2H153.2z"/>
			</g>
		</g>
		<path class="st30" d="M155.9,74.5"/>
		<path class="st30" d="M155.3,74.5"/>
		<path class="st28" d="M166.8,75.1h-10.9c-0.3,0-0.6-0.3-0.6-0.6c0-0.3,0.3-0.6,0.6-0.6h10.9c2.6,0,4.7-2.1,4.7-4.6
			s-2.1-4.6-4.7-4.6c-0.2,0-0.4,0-0.6,0c-0.3,0-0.6-0.1-0.6-0.4c-1-3.2-4.3-5-7.9-4.1c-1.8,0.4-2.8,1.3-3.8,2.5
			c-0.2,0.2-0.6,0.3-0.8,0.1c-0.2-0.2-0.3-0.6-0.1-0.8c1-1.2,2.3-2.4,4.5-2.9c4-0.9,7.8,1,9.1,4.5c0.1,0,0.2,0,0.3,0
			c3.2,0,5.9,2.6,5.9,5.8S170,75.1,166.8,75.1z"/>
		<path class="st29" d="M166.8,66.2c-0.1,0-0.3,0-0.4,0h-1.6c-0.1,0-0.2-0.1-0.3-0.2l-0.5-1.3c-0.6-2-2.5-3.3-4.7-3.3
			c-0.4,0-0.9,0.1-1.3,0.2c-1.4,0.3-2.2,1-3,2c0,0.1-0.1,0.1-0.1,0.2c1.4,1.2,2.2,3,2.2,4.9c0,1.3-0.4,2.6-1.1,3.6h10.8
			c1.7,0,3.2-1.4,3.2-3.1S168.5,66.2,166.8,66.2z"/>
		<path class="st28" d="M150.5,74c-2.9,0-5.2-2.3-5.2-5.2s2.3-5.2,5.2-5.2c2.9,0,5.2,2.3,5.2,5.2S153.4,74,150.5,74z M150.5,64.7
			c-2.2,0-4,1.8-4,4c0,2.2,1.8,4,4,4s4-1.8,4-4C154.6,66.5,152.7,64.7,150.5,64.7z"/>
		<path class="st28" d="M152.6,69.3h-2.1c-0.3,0-0.5-0.2-0.5-0.5v-2.3c0-0.3,0.2-0.5,0.5-0.5c0.3,0,0.5,0.2,0.5,0.5v1.8h1.5
			c0.3,0,0.5,0.2,0.5,0.5C153.1,69,152.9,69.3,152.6,69.3z"/>
	</g>
	<g>
		<path class="st2" d="M303,117.9L303,117.9c0-1.2,1-2.2,2.2-2.2c1.2,0,2.2,1,2.2,2.2v0c0,1.2-1,2.2-2.2,2.2
			C303.9,120.1,303,119.1,303,117.9 M307,117.8L307,117.8c0-1-0.8-1.8-1.8-1.8c-1,0-1.8,0.8-1.8,1.8v0c0,1,0.8,1.8,1.8,1.8
			C306.2,119.7,307,118.8,307,117.8 M304.3,116.7h1c0.5,0,0.9,0.2,0.9,0.7c0,0.4-0.2,0.6-0.5,0.7l0.6,0.9h-0.5l-0.5-0.8h-0.5v0.8
			h-0.4V116.7z M305.3,117.8c0.3,0,0.5-0.2,0.5-0.4c0-0.2-0.2-0.4-0.5-0.4h-0.5v0.7H305.3z"/>
		<g class="st3">
			<g>
				<defs>
					<rect id="SVGID_49_" x="247.3" y="115.6" width="12.5" height="46.9"/>
				</defs>
				<clipPath id="SVGID_50_">
					<use xlink:href="#SVGID_49_"  style="overflow:visible;"/>
				</clipPath>
				<g class="st31">
					<defs>
						<rect id="SVGID_51_" x="247.3" y="115.6" width="12.5" height="46.9"/>
					</defs>
					<clipPath id="SVGID_52_">
						<use xlink:href="#SVGID_51_"  style="overflow:visible;"/>
					</clipPath>
					<path class="st32" d="M253.6,115.6L253.6,115.6c-3.4,0-6.3,2.8-6.3,6.3v34.4c0,3.4,2.8,6.3,6.3,6.3c3.4,0,6.3-2.8,6.3-6.3
						v-34.4C259.9,118.4,257,115.6,253.6,115.6"/>
				</g>
			</g>
		</g>
		<g class="st3">
			<g>
				<defs>
					<rect id="SVGID_53_" x="247.3" y="115.6" width="35.9" height="35.9"/>
				</defs>
				<clipPath id="SVGID_54_">
					<use xlink:href="#SVGID_53_"  style="overflow:visible;"/>
				</clipPath>
				<g class="st33">
					<defs>
						<rect id="SVGID_55_" x="247.3" y="115.6" width="35.9" height="35.9"/>
					</defs>
					<clipPath id="SVGID_56_">
						<use xlink:href="#SVGID_55_"  style="overflow:visible;"/>
					</clipPath>
					<path class="st34" d="M258,117.4c-2.4-2.4-6.4-2.4-8.9,0c-2.4,2.4-2.4,6.4,0,8.9l25.2,25.2l8.9-8.9L258,117.4z"/>
				</g>
			</g>
		</g>
		<g class="st3">
			<g>
				<defs>
					<rect id="SVGID_57_" x="288.9" y="115.6" width="12.5" height="46.9"/>
				</defs>
				<clipPath id="SVGID_58_">
					<use xlink:href="#SVGID_57_"  style="overflow:visible;"/>
				</clipPath>
				<g class="st35">
					<defs>
						<rect id="SVGID_59_" x="288.9" y="115.6" width="12.5" height="46.9"/>
					</defs>
					<clipPath id="SVGID_60_">
						<use xlink:href="#SVGID_59_"  style="overflow:visible;"/>
					</clipPath>
					<path class="st36" d="M295.1,115.6L295.1,115.6c3.4,0,6.3,2.8,6.3,6.3v34.4c0,3.4-2.8,6.3-6.3,6.3c-3.4,0-6.3-2.8-6.3-6.3
						v-34.4C288.9,118.4,291.7,115.6,295.1,115.6"/>
				</g>
			</g>
		</g>
		<g class="st3">
			<g>
				<defs>
					<rect id="SVGID_61_" x="265.5" y="115.6" width="35.9" height="35.9"/>
				</defs>
				<clipPath id="SVGID_62_">
					<use xlink:href="#SVGID_61_"  style="overflow:visible;"/>
				</clipPath>
				<g class="st37">
					<defs>
						<rect id="SVGID_63_" x="265.5" y="115.6" width="35.9" height="35.9"/>
					</defs>
					<clipPath id="SVGID_64_">
						<use xlink:href="#SVGID_63_"  style="overflow:visible;"/>
					</clipPath>
					<path class="st38" d="M290.7,117.4c2.4-2.4,6.4-2.4,8.9,0c2.4,2.4,2.4,6.4,0,8.9l-25.2,25.2l-8.9-8.9L290.7,117.4z"/>
				</g>
			</g>
		</g>
	</g>
</g>
</svg>
