<?xml version="1.0" encoding="utf-8"?>
<!-- Generator: Adobe Illustrator 19.2.1, SVG Export Plug-In . SVG Version: 6.00 Build 0)  -->
<svg version="1.1" id="Layer_1" xmlns="http://www.w3.org/2000/svg" xmlns:xlink="http://www.w3.org/1999/xlink" x="0px" y="0px"
	 width="46px" height="46px" viewBox="0 0 46 46" style="enable-background:new 0 0 46 46;" xml:space="preserve">
<style type="text/css">
	.st0{opacity:0.12;fill:#439BC3;enable-background:new    ;}
	.st1{fill:#74CAC8;}
	.st2{fill:#FFFFFF;}
	.st3{opacity:0.5517;fill:#74CAC8;enable-background:new    ;}
	.st4{fill:none;stroke:#74CAC8;stroke-width:1.5;stroke-linejoin:round;}
	.st5{fill:none;stroke:#74CAC8;stroke-width:1.5;stroke-linejoin:round;stroke-dasharray:3.6,1.8;}
	.st6{fill:#FFFFFF;stroke:#113B58;stroke-width:1.5;}
	.st7{fill:#FFFFFF;enable-background:new    ;}
	.st8{fill:#E8F3F7;}
	.st9{fill:none;stroke:#113B58;stroke-width:1.5;stroke-linecap:round;}
	.st10{fill:none;stroke:#113B58;stroke-width:1.5;}
	.st11{filter:url(#Adobe_OpacityMaskFilter);}
	.st12{mask:url(#mask-2);fill:#FFFFFF;stroke:#113B58;stroke-width:1.5;}
	.st13{filter:url(#Adobe_OpacityMaskFilter_1_);}
	.st14{mask:url(#mask-4);fill:#FFFFFF;stroke:#113B58;stroke-width:1.5;}
	.st15{filter:url(#Adobe_OpacityMaskFilter_2_);}
	.st16{mask:url(#mask-6);fill:#FFFFFF;stroke:#113B58;stroke-width:1.5;}
	.st17{filter:url(#Adobe_OpacityMaskFilter_3_);}
	.st18{mask:url(#mask-8);fill:#FFFFFF;stroke:#113B58;stroke-width:1.5;}
	.st19{fill:#74CAC8;stroke:#113B58;stroke-width:1.5;}
	.st20{fill:#74CAC8;stroke:#113B58;stroke-width:1.5;stroke-linecap:round;}
	.st21{fill:#FFFFFF;stroke:#113B58;stroke-width:1.5;stroke-linecap:round;}
	.st22{fill:#74CAC8;stroke:#74CAC8;stroke-width:1.5;stroke-linejoin:round;}
	.st23{fill:#E8F3F7;stroke:#113B58;stroke-width:1.5;stroke-linecap:round;}
	.st24{fill:none;stroke:#113B58;stroke-width:1.5;stroke-linecap:round;stroke-linejoin:round;}
	.st25{fill:none;stroke:#113B58;stroke-width:1.5;stroke-linecap:round;stroke-dasharray:3.9081,3.9081;}
	.st26{fill:#113B58;}
	.st27{fill:none;stroke:#FFFFFF;stroke-width:1.5;stroke-linecap:round;}
	.st28{fill:none;stroke:#FFFFFF;stroke-width:2;stroke-linecap:round;}
	.st29{fill:none;stroke:#74CAC8;stroke-width:1.5;stroke-linecap:round;}
	.st30{fill:none;stroke:#113B58;stroke-width:1.5;stroke-linejoin:round;}
	.st31{fill:none;stroke:#113B58;stroke-width:1.5;stroke-linejoin:round;stroke-dasharray:3.6923,1.8462;}
	.st32{fill:none;stroke:#113B58;stroke-width:1.5;stroke-linejoin:round;stroke-dasharray:4.5714,2.2857;}
	.st33{fill:#E8F3F7;stroke:#E8F3F7;stroke-width:1.5;stroke-linejoin:round;}
	.st34{fill:#FFFFFF;stroke:#74CAC8;stroke-width:1.5;stroke-linecap:round;}
	.st35{fill:#74CAC8;stroke:#113B58;stroke-width:1.5;stroke-linejoin:round;}
</style>
<g>
	<path id="Path-3_11_" class="st0" d="M41,25.2c-3.1,11.6-8.9,14.7-17.5,9.5c-12.9-7.9-17.1-19.3-8.8-20.1
		c3.5-0.3,18.2-7.1,23.8-3.1C42.1,14.2,41.8,19.6,41,25.2z"/>
	<line class="st9" x1="6.1" y1="31.7" x2="39.1" y2="25.7"/>
	<g>
		<circle class="st21" cx="38.6" cy="25.8" r="3"/>
	</g>
	<g>
		<circle class="st20" cx="8.1" cy="31.7" r="3"/>
	</g>
	<line class="st29" x1="14.1" y1="37.1" x2="33.1" y2="37.1"/>
	<path id="Rectangle-15-Copy-5_1_" class="st23" d="M26.7,37.1h-6.4c-0.8,0-1.3-0.9-0.8-1.6l3.2-4.4c0.4-0.6,1.2-0.6,1.6,0l3.2,4.4
		C28,36.2,27.6,37.1,26.7,37.1z"/>
	<path id="Combined-Shape_13_" class="st3" d="M7.2,9.6v1.5c0,0.4-0.3,0.8-0.8,0.8c-0.4,0-0.8-0.3-0.8-0.8V9.6H4.2
		c-0.4,0-0.8-0.3-0.8-0.8c0-0.4,0.3-0.8,0.8-0.8h1.6V6.6c0-0.4,0.3-0.8,0.8-0.8c0.4,0,0.8,0.3,0.8,0.8v1.5h1.4
		c0.4,0,0.8,0.3,0.8,0.8c0,0.4-0.3,0.8-0.8,0.8H7.2z"/>
	<path id="Combined-Shape-Copy_11_" class="st3" d="M40.8,39.9v1.3c0,0.3-0.3,0.6-0.6,0.6c-0.3,0-0.6-0.3-0.6-0.6v-1.3h-1.3
		c-0.3,0-0.6-0.3-0.6-0.6c0-0.3,0.3-0.6,0.6-0.6h1.3v-1.2c0-0.3,0.3-0.6,0.6-0.6c0.3,0,0.6,0.3,0.6,0.6v1.2H42
		c0.3,0,0.6,0.3,0.6,0.6c0,0.3-0.3,0.6-0.6,0.6H40.8z"/>
	<g>
		<path id="Rectangle-15-Copy-5_3_" class="st20" d="M32.1,17.4l-7.2,7.2c-0.8,0.8-2,0.8-2.7,0L15,17.4c-0.8-0.8-0.8-2,0-2.7
			l7.2-7.2c0.8-0.8,2-0.8,2.7,0l7.2,7.2C32.8,15.5,32.8,16.7,32.1,17.4z"/>
		<g>
			<path class="st8" d="M20.9,18.6l-1.6-3.8c0-0.1-0.1-0.2-0.1-0.3c0-0.3,0.2-0.5,0.5-0.5c0.3,0,0.5,0.2,0.5,0.4l1.2,3.2l1.2-3.2
				c0.1-0.2,0.3-0.3,0.5-0.3c0.3,0,0.5,0.2,0.5,0.5c0,0.1,0,0.2-0.1,0.2l-1.6,3.8c-0.1,0.3-0.3,0.4-0.6,0.4h-0.1
				C21.2,19.1,21,18.9,20.9,18.6z"/>
			<path class="st8" d="M24.3,18.5c-0.1-0.1-0.2-0.2-0.2-0.4c0-0.3,0.2-0.5,0.5-0.5c0.1,0,0.2,0,0.3,0.1c0.4,0.3,0.8,0.4,1.3,0.4
				c0.4,0,0.7-0.2,0.7-0.5v0c0-0.3-0.2-0.4-1-0.6c-1-0.3-1.6-0.5-1.6-1.5v0c0-0.9,0.7-1.5,1.7-1.5c0.6,0,1.1,0.2,1.6,0.4
				c0.1,0.1,0.2,0.2,0.2,0.4c0,0.3-0.2,0.5-0.5,0.5c-0.1,0-0.2,0-0.3-0.1c-0.4-0.2-0.7-0.3-1-0.3c-0.4,0-0.6,0.2-0.6,0.4v0
				c0,0.3,0.2,0.4,1.1,0.6c1,0.3,1.6,0.6,1.6,1.5v0c0,1-0.7,1.5-1.8,1.5C25.5,19.1,24.8,18.9,24.3,18.5z"/>
		</g>
	</g>
</g>
</svg>
