<?xml version="1.0" encoding="utf-8"?>
<!-- Generator: Adobe Illustrator 19.2.1, SVG Export Plug-In . SVG Version: 6.00 Build 0)  -->
<svg version="1.1" id="Layer_1" xmlns="http://www.w3.org/2000/svg" xmlns:xlink="http://www.w3.org/1999/xlink" x="0px" y="0px"
	 width="46px" height="46px" viewBox="0 0 46 46" style="enable-background:new 0 0 46 46;" xml:space="preserve">
<style type="text/css">
	.st0{opacity:0.12;fill:#439BC3;enable-background:new    ;}
	.st1{fill:#74CAC8;}
	.st2{fill:#FFFFFF;}
	.st3{opacity:0.5517;fill:#74CAC8;enable-background:new    ;}
	.st4{fill:none;stroke:#74CAC8;stroke-width:1.5;stroke-linejoin:round;}
	.st5{fill:none;stroke:#74CAC8;stroke-width:1.5;stroke-linejoin:round;stroke-dasharray:3.6,1.8;}
	.st6{fill:#FFFFFF;stroke:#113B58;stroke-width:1.5;}
	.st7{fill:#FFFFFF;enable-background:new    ;}
	.st8{fill:#E8F3F7;}
	.st9{fill:none;stroke:#113B58;stroke-width:1.5;stroke-linecap:round;}
	.st10{fill:none;stroke:#113B58;stroke-width:1.5;}
	.st11{filter:url(#Adobe_OpacityMaskFilter);}
	.st12{mask:url(#mask-2);fill:#FFFFFF;stroke:#113B58;stroke-width:1.5;}
	.st13{filter:url(#Adobe_OpacityMaskFilter_1_);}
	.st14{mask:url(#mask-4);fill:#FFFFFF;stroke:#113B58;stroke-width:1.5;}
	.st15{filter:url(#Adobe_OpacityMaskFilter_2_);}
	.st16{mask:url(#mask-6);fill:#FFFFFF;stroke:#113B58;stroke-width:1.5;}
	.st17{filter:url(#Adobe_OpacityMaskFilter_3_);}
	.st18{mask:url(#mask-8);fill:#FFFFFF;stroke:#113B58;stroke-width:1.5;}
	.st19{fill:#74CAC8;stroke:#113B58;stroke-width:1.5;}
	.st20{fill:#74CAC8;stroke:#113B58;stroke-width:1.5;stroke-linecap:round;}
	.st21{fill:#FFFFFF;stroke:#113B58;stroke-width:1.5;stroke-linecap:round;}
	.st22{fill:#74CAC8;stroke:#74CAC8;stroke-width:1.5;stroke-linejoin:round;}
	.st23{fill:#E8F3F7;stroke:#113B58;stroke-width:1.5;stroke-linecap:round;}
	.st24{fill:none;stroke:#113B58;stroke-width:1.5;stroke-linecap:round;stroke-linejoin:round;}
	.st25{fill:none;stroke:#113B58;stroke-width:1.5;stroke-linecap:round;stroke-dasharray:3.9081,3.9081;}
	.st26{fill:#113B58;}
	.st27{fill:none;stroke:#FFFFFF;stroke-width:1.5;stroke-linecap:round;}
	.st28{fill:none;stroke:#FFFFFF;stroke-width:2;stroke-linecap:round;}
	.st29{fill:none;stroke:#74CAC8;stroke-width:1.5;stroke-linecap:round;}
	.st30{fill:none;stroke:#113B58;stroke-width:1.5;stroke-linejoin:round;}
	.st31{fill:none;stroke:#113B58;stroke-width:1.5;stroke-linejoin:round;stroke-dasharray:3.6923,1.8462;}
	.st32{fill:none;stroke:#113B58;stroke-width:1.5;stroke-linejoin:round;stroke-dasharray:4.5714,2.2857;}
	.st33{fill:#E8F3F7;stroke:#E8F3F7;stroke-width:1.5;stroke-linejoin:round;}
	.st34{fill:#FFFFFF;stroke:#74CAC8;stroke-width:1.5;stroke-linecap:round;}
	.st35{fill:#74CAC8;stroke:#113B58;stroke-width:1.5;stroke-linejoin:round;}
</style>
<path id="Path-3_15_" class="st0" d="M40.6,24.1c-3.1,11.6-8.9,14.7-17.5,9.5C10.1,25.7,6,14.3,14.2,13.5c3.5-0.3,18.2-7.1,23.8-3.1
	C41.6,13,41.3,18.4,40.6,24.1z"/>
<path class="st1" d="M36,17.8c-0.3,0-0.7,0-1,0.1c-0.1-2.4-2.1-4.3-4.5-4.3c-0.6,0-1.2,0.1-1.8,0.4c-1.3-3.3-4.6-5.6-8.3-5.6
	c-5,0-9,4-9,9c0,0.2,0,0.3,0,0.5c-3.2,0.1-5.8,2.7-5.8,6c0,3.3,2.7,6,6,6c2.2,0,14.8,0,21.2,0c1.4,0,2.5,0,3.1,0c3.3,0,6-2.7,6-6
	S39.4,17.8,36,17.8z"/>
<circle class="st2" cx="23" cy="26.8" r="6.5"/>
<circle class="st0" cx="23" cy="26.8" r="5"/>
<path id="Combined-Shape-Copy_16_" class="st3" d="M7.3,38.9v1.3c0,0.3-0.3,0.6-0.6,0.6c-0.3,0-0.6-0.3-0.6-0.6v-1.3H4.8
	c-0.3,0-0.6-0.3-0.6-0.6c0-0.3,0.3-0.6,0.6-0.6h1.3v-1.2c0-0.3,0.3-0.6,0.6-0.6c0.3,0,0.6,0.3,0.6,0.6v1.2h1.2
	c0.3,0,0.6,0.3,0.6,0.6c0,0.3-0.3,0.6-0.6,0.6H7.3z"/>
<path id="Combined-Shape_17_" class="st3" d="M42.8,7.6v1.5c0,0.4-0.3,0.8-0.8,0.8s-0.8-0.3-0.8-0.8V7.6h-1.6
	c-0.4,0-0.8-0.3-0.8-0.8s0.3-0.8,0.8-0.8h1.6V4.6c0-0.4,0.3-0.7,0.8-0.7s0.8,0.3,0.8,0.7v1.5h1.4c0.4,0,0.8,0.3,0.8,0.8
	s-0.3,0.8-0.8,0.8H42.8z"/>
<path class="st24" d="M32.9,29.8c2.1,0,2.3,0,3.1,0c3.3,0,6-2.7,6-6s-2.7-6-6-6c-0.3,0-0.7,0-1,0.1c-0.1-2.4-2.1-4.3-4.5-4.3
	c-0.6,0-1.2,0.1-1.8,0.4c-1.3-3.3-4.6-5.6-8.3-5.6c-5,0-9,4-9,9c0,0.2,0,0.3,0,0.5c-3.2,0.1-5.8,2.7-5.8,6c0,3.3,2.7,6,6,6
	c0.4,0,1.1,0,2,0"/>
<line class="st24" x1="26.7" y1="34" x2="29.7" y2="39.7"/>
<polyline class="st24" points="27.1,18.8 27.7,21.5 24.9,22.1 "/>
<g>
	<path class="st9" d="M17.6,31.3c-1-1.2-1.6-2.8-1.6-4.5c0-3.9,3.1-7,7-7c1.6,0,3,0.5,4.2,1.4"/>
	<g>
		<path class="st26" d="M22.1,34.5c-0.8-0.1-1.7-0.3-2.4-0.7c-0.4-0.2-0.6-0.7-0.3-1.1l0,0c0.2-0.3,0.6-0.5,0.9-0.3
			c0.6,0.3,1.3,0.5,2,0.6c0.4,0,0.6,0.4,0.6,0.7v0C23,34.2,22.6,34.6,22.1,34.5z"/>
		<path class="st26" d="M24.6,33.6L24.6,33.6c-0.1-0.4,0.1-0.7,0.5-0.9c0.7-0.2,1.4-0.6,2-1.1c0.3-0.2,0.7-0.2,1,0.1h0
			c0.3,0.3,0.3,0.8-0.1,1.1c-0.7,0.6-1.5,1-2.4,1.3C25.1,34.3,24.7,34,24.6,33.6z"/>
		<path class="st26" d="M28.9,30.6L28.9,30.6c-0.3-0.2-0.5-0.6-0.3-0.9c0.3-0.6,0.5-1.3,0.6-2.2c0.1-0.4,0.4-0.7,0.7-0.7H30
			c0.4,0,0.8,0.4,0.8,0.8c-0.1,1-0.4,1.9-0.8,2.7C29.7,30.7,29.2,30.8,28.9,30.6z"/>
	</g>
</g>
</svg>
