<?xml version="1.0" encoding="utf-8"?>
<!-- Generator: Adobe Illustrator 19.2.1, SVG Export Plug-In . SVG Version: 6.00 Build 0)  -->
<svg version="1.1" id="Layer_1" xmlns="http://www.w3.org/2000/svg" xmlns:xlink="http://www.w3.org/1999/xlink" x="0px" y="0px"
	 width="46px" height="46px" viewBox="0 0 46 46" style="enable-background:new 0 0 46 46;" xml:space="preserve">
<style type="text/css">
	.st0{opacity:0.12;fill:#439BC3;enable-background:new    ;}
	.st1{fill:#74CAC8;}
	.st2{fill:#FFFFFF;}
	.st3{opacity:0.5517;fill:#74CAC8;enable-background:new    ;}
	.st4{fill:none;stroke:#74CAC8;stroke-width:1.5;stroke-linejoin:round;}
	.st5{fill:none;stroke:#74CAC8;stroke-width:1.5;stroke-linejoin:round;stroke-dasharray:3.6,1.8;}
	.st6{fill:#FFFFFF;stroke:#113B58;stroke-width:1.5;}
	.st7{fill:#FFFFFF;enable-background:new    ;}
	.st8{fill:#E8F3F7;}
	.st9{fill:none;stroke:#113B58;stroke-width:1.5;stroke-linecap:round;}
	.st10{fill:none;stroke:#113B58;stroke-width:1.5;}
	.st11{filter:url(#Adobe_OpacityMaskFilter);}
	.st12{mask:url(#mask-2);fill:#FFFFFF;stroke:#113B58;stroke-width:1.5;}
	.st13{filter:url(#Adobe_OpacityMaskFilter_1_);}
	.st14{mask:url(#mask-4);fill:#FFFFFF;stroke:#113B58;stroke-width:1.5;}
	.st15{filter:url(#Adobe_OpacityMaskFilter_2_);}
	.st16{mask:url(#mask-6);fill:#FFFFFF;stroke:#113B58;stroke-width:1.5;}
	.st17{filter:url(#Adobe_OpacityMaskFilter_3_);}
	.st18{mask:url(#mask-8);fill:#FFFFFF;stroke:#113B58;stroke-width:1.5;}
	.st19{fill:#74CAC8;stroke:#113B58;stroke-width:1.5;}
	.st20{fill:#74CAC8;stroke:#113B58;stroke-width:1.5;stroke-linecap:round;}
	.st21{fill:#FFFFFF;stroke:#113B58;stroke-width:1.5;stroke-linecap:round;}
	.st22{fill:#74CAC8;stroke:#74CAC8;stroke-width:1.5;stroke-linejoin:round;}
	.st23{fill:#E8F3F7;stroke:#113B58;stroke-width:1.5;stroke-linecap:round;}
	.st24{fill:none;stroke:#113B58;stroke-width:1.5;stroke-linecap:round;stroke-linejoin:round;}
	.st25{fill:none;stroke:#113B58;stroke-width:1.5;stroke-linecap:round;stroke-dasharray:3.9081,3.9081;}
	.st26{fill:#113B58;}
	.st27{fill:none;stroke:#FFFFFF;stroke-width:1.5;stroke-linecap:round;}
	.st28{fill:none;stroke:#FFFFFF;stroke-width:2;stroke-linecap:round;}
	.st29{fill:none;stroke:#74CAC8;stroke-width:1.5;stroke-linecap:round;}
	.st30{fill:none;stroke:#113B58;stroke-width:1.5;stroke-linejoin:round;}
	.st31{fill:none;stroke:#113B58;stroke-width:1.5;stroke-linejoin:round;stroke-dasharray:3.6923,1.8462;}
	.st32{fill:none;stroke:#113B58;stroke-width:1.5;stroke-linejoin:round;stroke-dasharray:4.5714,2.2857;}
	.st33{fill:#E8F3F7;stroke:#E8F3F7;stroke-width:1.5;stroke-linejoin:round;}
	.st34{fill:#FFFFFF;stroke:#74CAC8;stroke-width:1.5;stroke-linecap:round;}
	.st35{fill:#74CAC8;stroke:#113B58;stroke-width:1.5;stroke-linejoin:round;}
</style>
<path id="Path-3_17_" class="st0" d="M9.7,14.9C13.8,3.7,19.9,1.1,28,7.1c12.2,9,15.3,20.8,7,20.8c-3.6,0-18,4.5-24,0.9
	C8.8,27.5,8.5,20.5,9.7,14.9z"/>
<rect x="13.3" y="13.3" class="st2" width="22" height="22"/>
<g>
	<path class="st1" d="M35.3,36h-2v-1.5h1.3v-1.3h1.5v2C36.1,35.7,35.7,36,35.3,36z"/>
	<path class="st1" d="M31.5,35.3c0,0.4-0.3,0.8-0.7,0.8h-2.1c-0.4,0-0.8-0.3-0.8-0.8l0,0c0-0.4,0.3-0.8,0.8-0.8h2.1
		C31.2,34.5,31.5,34.9,31.5,35.3L31.5,35.3z M25.4,36h-2.1c-0.4,0-0.8-0.3-0.8-0.8l0,0c0-0.4,0.3-0.8,0.8-0.8h2.1
		c0.4,0,0.7,0.3,0.7,0.8l0,0C26.1,35.7,25.8,36,25.4,36z M20,36h-2.9v-1.5H20c0.4,0,0.7,0.3,0.7,0.8l0,0C20.7,35.7,20.4,36,20,36z"
		/>
	<path class="st1" d="M15.3,36h-2c-0.4,0-0.8-0.3-0.8-0.8v-2h1.5v1.3h1.3V36z"/>
	<path class="st1" d="M14.1,31.5h-1.5v-2.8c0-0.4,0.3-0.7,0.8-0.7h0c0.4,0,0.7,0.3,0.7,0.7V31.5z M13.3,26.1L13.3,26.1
		c-0.4,0-0.8-0.3-0.8-0.8v-2.1c0-0.4,0.3-0.7,0.8-0.7h0c0.4,0,0.7,0.3,0.7,0.7v2.1C14.1,25.7,13.7,26.1,13.3,26.1z M13.3,20.7
		L13.3,20.7c-0.4,0-0.8-0.3-0.8-0.8v-2.9h1.5v2.9C14.1,20.4,13.7,20.7,13.3,20.7z"/>
	<path class="st1" d="M14.1,15.3h-1.5v-2c0-0.4,0.3-0.8,0.8-0.8h2V14h-1.3V15.3z"/>
	<path class="st1" d="M31.5,14h-2.9c-0.4,0-0.8-0.3-0.8-0.7v0c0-0.4,0.3-0.7,0.8-0.7h2.9V14z M25.4,14h-2.1c-0.4,0-0.8-0.3-0.8-0.7
		v0c0-0.4,0.3-0.7,0.8-0.7h2.1c0.4,0,0.7,0.3,0.7,0.7v0C26.1,13.7,25.8,14,25.4,14z M20,14h-2.1c-0.4,0-0.8-0.3-0.8-0.7v0
		c0-0.4,0.3-0.7,0.8-0.7H20c0.4,0,0.7,0.3,0.7,0.7v0C20.7,13.7,20.4,14,20,14z"/>
	<path class="st1" d="M36.1,15.3h-1.5V14h-1.3v-1.5h2c0.4,0,0.8,0.3,0.8,0.8V15.3z"/>
	<path class="st1" d="M35.3,31.5L35.3,31.5c-0.4,0-0.8-0.3-0.8-0.8v-2.1c0-0.4,0.3-0.7,0.7-0.7h0c0.4,0,0.8,0.3,0.8,0.7v2.1
		C36.1,31.2,35.7,31.5,35.3,31.5z M35.3,26.1L35.3,26.1c-0.4,0-0.8-0.3-0.8-0.8v-2.1c0-0.4,0.3-0.7,0.7-0.7h0c0.4,0,0.8,0.3,0.8,0.7
		v2.1C36.1,25.8,35.7,26.1,35.3,26.1z M35.3,20.7L35.3,20.7c-0.4,0-0.8-0.3-0.8-0.8v-2.8h1.5v2.8C36.1,20.4,35.7,20.7,35.3,20.7z"/>
</g>
<path id="Combined-Shape-Copy_18_" class="st3" d="M41.4,40.2v1.3c0,0.3-0.3,0.6-0.6,0.6c-0.3,0-0.6-0.3-0.6-0.6v-1.3h-1.3
	c-0.3,0-0.6-0.3-0.6-0.6c0-0.3,0.3-0.6,0.6-0.6h1.3v-1.2c0-0.3,0.3-0.6,0.6-0.6c0.3,0,0.6,0.3,0.6,0.6v1.2h1.2
	c0.3,0,0.6,0.3,0.6,0.6c0,0.3-0.3,0.6-0.6,0.6H41.4z"/>
<path id="Combined-Shape-Copy_17_" class="st3" d="M5.7,7.1v1.3C5.7,8.7,5.4,9,5,9C4.7,9,4.4,8.7,4.4,8.4V7.1H3.1
	c-0.3,0-0.6-0.3-0.6-0.6c0-0.3,0.3-0.6,0.6-0.6h1.3V4.6C4.4,4.3,4.7,4,5,4c0.3,0,0.6,0.3,0.6,0.6v1.2h1.2c0.3,0,0.6,0.3,0.6,0.6
	c0,0.3-0.3,0.6-0.6,0.6H5.7z"/>
<g>
	<line class="st9" x1="28.9" y1="20" x2="41.1" y2="7.8"/>
	<polyline class="st24" points="39.4,6.7 42.2,6.7 42.2,9.5 	"/>
	<polyline class="st24" points="31.3,20.3 28.4,20.3 28.4,17.5 	"/>
</g>
<g>
	<line class="st9" x1="28.9" y1="7.2" x2="41" y2="19.3"/>
	<polyline class="st24" points="42.2,17.6 42.2,20.4 39.3,20.4 	"/>
	<polyline class="st24" points="28.6,9.5 28.6,6.7 31.4,6.7 	"/>
</g>
<path class="st20" d="M37.3,16.3h-4c-0.6,0-1-0.4-1-1v-4c0-0.6,0.4-1,1-1h4c0.6,0,1,0.4,1,1v4C38.3,15.8,37.9,16.3,37.3,16.3z"/>
<g>
	<path class="st19" d="M5.9,40.3v-16c0-0.6,0.4-1,1-1h21c0.6,0,1,0.4,1,1v16c0,0.6-0.4,1-1,1h-21C6.3,41.3,5.9,40.8,5.9,40.3z"/>
	<line class="st9" x1="9.4" y1="28.1" x2="25.4" y2="28.1"/>
	<line class="st9" x1="9.4" y1="32.1" x2="25.4" y2="32.1"/>
	<line class="st9" x1="9.4" y1="36.1" x2="25.4" y2="36.1"/>
	<g>
		<path class="st2" d="M12.6,29.4c-0.1,0-0.3-0.1-0.3-0.3v-2c0-0.1,0.1-0.3,0.3-0.3h3c0.1,0,0.3,0.1,0.3,0.3v2
			c0,0.1-0.1,0.3-0.3,0.3H12.6z"/>
		<path class="st26" d="M15.1,27.6v1h-2v-1H15.1 M15.6,26.1h-3c-0.6,0-1,0.4-1,1v2c0,0.6,0.4,1,1,1h3c0.6,0,1-0.4,1-1v-2
			C16.6,26.6,16.1,26.1,15.6,26.1L15.6,26.1z"/>
	</g>
	<g>
		<path class="st2" d="M19.7,33.4c-0.1,0-0.3-0.1-0.3-0.3v-2c0-0.1,0.1-0.3,0.3-0.3h3c0.1,0,0.3,0.1,0.3,0.3v2
			c0,0.1-0.1,0.3-0.3,0.3H19.7z"/>
		<path class="st26" d="M22.2,31.6v1h-2v-1H22.2 M22.7,30.1h-3c-0.6,0-1,0.4-1,1v2c0,0.6,0.4,1,1,1h3c0.6,0,1-0.4,1-1v-2
			C23.7,30.6,23.2,30.1,22.7,30.1L22.7,30.1z"/>
	</g>
	<g>
		<path class="st2" d="M12.6,37.5c-0.1,0-0.3-0.1-0.3-0.3v-2c0-0.1,0.1-0.3,0.3-0.3h3c0.1,0,0.3,0.1,0.3,0.3v2
			c0,0.1-0.1,0.3-0.3,0.3H12.6z"/>
		<path class="st26" d="M15.1,35.8v1h-2v-1H15.1 M15.6,34.3h-3c-0.6,0-1,0.4-1,1v2c0,0.6,0.4,1,1,1h3c0.6,0,1-0.4,1-1v-2
			C16.6,34.7,16.1,34.3,15.6,34.3L15.6,34.3z"/>
	</g>
</g>
</svg>
