<?xml version="1.0" encoding="utf-8"?>
<!-- Generator: Adobe Illustrator 19.2.1, SVG Export Plug-In . SVG Version: 6.00 Build 0)  -->
<svg version="1.1" id="Layer_1" xmlns="http://www.w3.org/2000/svg" xmlns:xlink="http://www.w3.org/1999/xlink" x="0px" y="0px"
	 width="46px" height="46px" viewBox="0 0 46 46" style="enable-background:new 0 0 46 46;" xml:space="preserve">
<style type="text/css">
	.st0{opacity:0.12;fill:#439BC3;enable-background:new    ;}
	.st1{fill:#74CAC8;}
	.st2{fill:#FFFFFF;}
	.st3{opacity:0.5517;fill:#74CAC8;enable-background:new    ;}
	.st4{fill:none;stroke:#74CAC8;stroke-width:1.5;stroke-linejoin:round;}
	.st5{fill:none;stroke:#74CAC8;stroke-width:1.5;stroke-linejoin:round;stroke-dasharray:3.6,1.8;}
	.st6{fill:#FFFFFF;stroke:#113B58;stroke-width:1.5;}
	.st7{fill:#FFFFFF;enable-background:new    ;}
	.st8{fill:#E8F3F7;}
	.st9{fill:none;stroke:#113B58;stroke-width:1.5;stroke-linecap:round;}
	.st10{fill:none;stroke:#113B58;stroke-width:1.5;}
	.st11{filter:url(#Adobe_OpacityMaskFilter);}
	.st12{mask:url(#mask-2);fill:#FFFFFF;stroke:#113B58;stroke-width:1.5;}
	.st13{filter:url(#Adobe_OpacityMaskFilter_1_);}
	.st14{mask:url(#mask-4);fill:#FFFFFF;stroke:#113B58;stroke-width:1.5;}
	.st15{filter:url(#Adobe_OpacityMaskFilter_2_);}
	.st16{mask:url(#mask-6);fill:#FFFFFF;stroke:#113B58;stroke-width:1.5;}
	.st17{filter:url(#Adobe_OpacityMaskFilter_3_);}
	.st18{mask:url(#mask-8);fill:#FFFFFF;stroke:#113B58;stroke-width:1.5;}
	.st19{fill:#74CAC8;stroke:#113B58;stroke-width:1.5;}
	.st20{fill:#74CAC8;stroke:#113B58;stroke-width:1.5;stroke-linecap:round;}
	.st21{fill:#FFFFFF;stroke:#113B58;stroke-width:1.5;stroke-linecap:round;}
	.st22{fill:#74CAC8;stroke:#74CAC8;stroke-width:1.5;stroke-linejoin:round;}
	.st23{fill:#E8F3F7;stroke:#113B58;stroke-width:1.5;stroke-linecap:round;}
	.st24{fill:none;stroke:#113B58;stroke-width:1.5;stroke-linecap:round;stroke-linejoin:round;}
	.st25{fill:none;stroke:#113B58;stroke-width:1.5;stroke-linecap:round;stroke-dasharray:3.9081,3.9081;}
	.st26{fill:#113B58;}
	.st27{fill:none;stroke:#FFFFFF;stroke-width:1.5;stroke-linecap:round;}
	.st28{fill:none;stroke:#FFFFFF;stroke-width:2;stroke-linecap:round;}
	.st29{fill:none;stroke:#74CAC8;stroke-width:1.5;stroke-linecap:round;}
	.st30{fill:none;stroke:#113B58;stroke-width:1.5;stroke-linejoin:round;}
	.st31{fill:none;stroke:#113B58;stroke-width:1.5;stroke-linejoin:round;stroke-dasharray:3.6923,1.8462;}
	.st32{fill:none;stroke:#113B58;stroke-width:1.5;stroke-linejoin:round;stroke-dasharray:4.5714,2.2857;}
	.st33{fill:#E8F3F7;stroke:#E8F3F7;stroke-width:1.5;stroke-linejoin:round;}
	.st34{fill:#FFFFFF;stroke:#74CAC8;stroke-width:1.5;stroke-linecap:round;}
	.st35{fill:#74CAC8;stroke:#113B58;stroke-width:1.5;stroke-linejoin:round;}
</style>
<g>
	<path id="Path-3_12_" class="st0" d="M42.7,19.9c-3.1,11.6-8.9,14.7-17.5,9.5C12.3,21.5,8.1,10.1,16.4,9.3
		C19.9,9,34.6,2.2,40.2,6.2C43.8,8.8,43.5,14.2,42.7,19.9z"/>
	<path id="Combined-Shape_14_" class="st3" d="M6.6,8v1.5c0,0.4-0.3,0.8-0.8,0.8S5.1,9.9,5.1,9.5V8H3.5C3.1,8,2.8,7.7,2.8,7.3
		s0.3-0.8,0.8-0.8h1.6V5c0-0.4,0.3-0.8,0.8-0.8S6.6,4.6,6.6,5v1.5H8c0.4,0,0.8,0.3,0.8,0.8S8.5,8,8,8H6.6z"/>
	<path class="st21" d="M10,12.1h12v5H9v-4C9,12.6,9.4,12.1,10,12.1z"/>
	<path class="st23" d="M14,12.1h12v5H13v-4C13,12.6,13.4,12.1,14,12.1z"/>
	<path class="st20" d="M19.8,12.1h12v5h-13v-4C18.8,12.6,19.2,12.1,19.8,12.1z"/>
	<path class="st19" d="M26.8,13.1v3h-20c-0.6,0-1,0.4-1,1v20c0,0.6,0.4,1,1,1h32c0.6,0,1-0.4,1-1v-24c0-0.6-0.4-1-1-1h-11
		C27.2,12.1,26.8,12.6,26.8,13.1z"/>
	<g>
		<g>
			<path class="st8" d="M28.1,25.4l-0.4-0.9c0,0,0.9-2,0.8-2.1l-1.2-1.2c-0.1-0.1-2.1,0.8-2.1,0.8l-0.9-0.4c0,0-0.8-2.1-0.9-2.1
				h-1.6c-0.1,0-0.9,2.1-0.9,2.1L20,22.1c0,0-2-0.9-2.1-0.8l-1.2,1.2c-0.1,0.1,0.8,2.1,0.8,2.1l-0.4,0.9c0,0-2.1,0.8-2.1,0.9V28
				c0,0.1,2.1,0.9,2.1,0.9l0.4,0.9c0,0-0.9,2-0.8,2.1l1.2,1.2c0.1,0.1,2.1-0.8,2.1-0.8l0.9,0.4c0,0,0.8,2.1,0.9,2.1h1.6
				c0.1,0,0.9-2.1,0.9-2.1l0.9-0.4c0,0,2,0.9,2.1,0.8l1.2-1.2c0.1-0.1-0.8-2.1-0.8-2.1l0.4-0.9c0,0,2.1-0.8,2.1-0.9v-1.6
				C30.1,26.2,28.1,25.4,28.1,25.4L28.1,25.4z M25,27.1c0,1.3-1.1,2.4-2.4,2.4c-1.3,0-2.4-1.1-2.4-2.4c0-1.3,1.1-2.4,2.4-2.4
				C23.9,24.7,25,25.8,25,27.1L25,27.1z M25,27.1"/>
		</g>
	</g>
	<path class="st8" d="M36.1,16.3h-6c-0.4,0-0.8-0.3-0.8-0.8s0.3-0.8,0.8-0.8h6c0.4,0,0.8,0.3,0.8,0.8S36.5,16.3,36.1,16.3z"/>
	<g>
		<path class="st33" d="M32.5,40.7v-7c0-0.6,0.4-1,1-1h7c0.6,0,1,0.4,1,1v7c0,0.6-0.4,1-1,1h-7C33,41.7,32.5,41.3,32.5,40.7z"/>
		<path id="Combined-Shape_15_" class="st26" d="M37.8,38v1.5c0,0.4-0.3,0.8-0.8,0.8c-0.4,0-0.8-0.3-0.8-0.8V38h-1.6
			c-0.4,0-0.8-0.3-0.8-0.8c0-0.4,0.3-0.8,0.8-0.8h1.6V35c0-0.4,0.3-0.8,0.8-0.8c0.4,0,0.8,0.3,0.8,0.8v1.5h1.4
			c0.4,0,0.8,0.3,0.8,0.8c0,0.4-0.3,0.8-0.8,0.8H37.8z"/>
	</g>
</g>
</svg>
