<?xml version="1.0" encoding="utf-8"?>
<!-- Generator: Adobe Illustrator 19.2.1, SVG Export Plug-In . SVG Version: 6.00 Build 0)  -->
<svg version="1.1" id="Layer_1" xmlns="http://www.w3.org/2000/svg" xmlns:xlink="http://www.w3.org/1999/xlink" x="0px" y="0px"
	 width="46px" height="46px" viewBox="0 0 46 46" style="enable-background:new 0 0 46 46;" xml:space="preserve">
<style type="text/css">
	.st0{opacity:0.12;fill:#439BC3;enable-background:new    ;}
	.st1{fill:#74CAC8;}
	.st2{fill:#FFFFFF;}
	.st3{opacity:0.5517;fill:#74CAC8;enable-background:new    ;}
	.st4{fill:none;stroke:#74CAC8;stroke-width:1.5;stroke-linejoin:round;}
	.st5{fill:none;stroke:#74CAC8;stroke-width:1.5;stroke-linejoin:round;stroke-dasharray:3.6,1.8;}
	.st6{fill:#FFFFFF;stroke:#113B58;stroke-width:1.5;}
	.st7{fill:#FFFFFF;enable-background:new    ;}
	.st8{fill:#E8F3F7;}
	.st9{fill:none;stroke:#113B58;stroke-width:1.5;stroke-linecap:round;}
	.st10{fill:none;stroke:#113B58;stroke-width:1.5;}
	.st11{filter:url(#Adobe_OpacityMaskFilter);}
	.st12{mask:url(#mask-2);fill:#FFFFFF;stroke:#113B58;stroke-width:1.5;}
	.st13{filter:url(#Adobe_OpacityMaskFilter_1_);}
	.st14{mask:url(#mask-4);fill:#FFFFFF;stroke:#113B58;stroke-width:1.5;}
	.st15{filter:url(#Adobe_OpacityMaskFilter_2_);}
	.st16{mask:url(#mask-6);fill:#FFFFFF;stroke:#113B58;stroke-width:1.5;}
	.st17{filter:url(#Adobe_OpacityMaskFilter_3_);}
	.st18{mask:url(#mask-8);fill:#FFFFFF;stroke:#113B58;stroke-width:1.5;}
	.st19{fill:#74CAC8;stroke:#113B58;stroke-width:1.5;}
	.st20{fill:#74CAC8;stroke:#113B58;stroke-width:1.5;stroke-linecap:round;}
	.st21{fill:#FFFFFF;stroke:#113B58;stroke-width:1.5;stroke-linecap:round;}
	.st22{fill:#74CAC8;stroke:#74CAC8;stroke-width:1.5;stroke-linejoin:round;}
	.st23{fill:#E8F3F7;stroke:#113B58;stroke-width:1.5;stroke-linecap:round;}
	.st24{fill:none;stroke:#113B58;stroke-width:1.5;stroke-linecap:round;stroke-linejoin:round;}
	.st25{fill:none;stroke:#113B58;stroke-width:1.5;stroke-linecap:round;stroke-dasharray:3.9081,3.9081;}
	.st26{fill:#113B58;}
	.st27{fill:none;stroke:#FFFFFF;stroke-width:1.5;stroke-linecap:round;}
	.st28{fill:none;stroke:#FFFFFF;stroke-width:2;stroke-linecap:round;}
	.st29{fill:none;stroke:#74CAC8;stroke-width:1.5;stroke-linecap:round;}
	.st30{fill:none;stroke:#113B58;stroke-width:1.5;stroke-linejoin:round;}
	.st31{fill:none;stroke:#113B58;stroke-width:1.5;stroke-linejoin:round;stroke-dasharray:3.6923,1.8462;}
	.st32{fill:none;stroke:#113B58;stroke-width:1.5;stroke-linejoin:round;stroke-dasharray:4.5714,2.2857;}
	.st33{fill:#E8F3F7;stroke:#E8F3F7;stroke-width:1.5;stroke-linejoin:round;}
	.st34{fill:#FFFFFF;stroke:#74CAC8;stroke-width:1.5;stroke-linecap:round;}
	.st35{fill:#74CAC8;stroke:#113B58;stroke-width:1.5;stroke-linejoin:round;}
</style>
<path id="Path-3_19_" class="st0" d="M44.2,30.6c-3.1,11.6-8.9,14.7-17.5,9.5C13.7,32.2,9.6,20.7,17.8,20c3.5-0.3,18.2-7.1,23.8-3.1
	C45.2,19.5,44.9,24.9,44.2,30.6z"/>
<path id="Combined-Shape-Copy_19_" class="st3" d="M5.7,40.8v1.3c0,0.3-0.3,0.6-0.6,0.6c-0.3,0-0.6-0.3-0.6-0.6v-1.3H3.1
	c-0.3,0-0.6-0.3-0.6-0.6c0-0.3,0.3-0.6,0.6-0.6h1.3v-1.2c0-0.3,0.3-0.6,0.6-0.6c0.3,0,0.6,0.3,0.6,0.6v1.2h1.2
	c0.3,0,0.6,0.3,0.6,0.6c0,0.3-0.3,0.6-0.6,0.6H5.7z"/>
<path class="st23" d="M24.6,10.8h-16V9.1c0-0.6,0.4-1,1-1h14c0.6,0,1,0.4,1,1V10.8z"/>
<path class="st6" d="M39.6,14.7v19c0,0.6-0.4,1-1,1h-32c-0.6,0-1-0.4-1-1v-19c0-0.6,0.4-1,1-1h32C39.1,13.7,39.6,14.1,39.6,14.7z"/>
<path id="Combined-Shape_21_" class="st3" d="M41.8,7.6v1.5c0,0.4-0.3,0.8-0.8,0.8c-0.4,0-0.8-0.3-0.8-0.8V7.6h-1.6
	c-0.4,0-0.8-0.3-0.8-0.8s0.3-0.8,0.8-0.8h1.6V4.6c0-0.4,0.3-0.7,0.8-0.7c0.4,0,0.8,0.3,0.8,0.7v1.5h1.4c0.4,0,0.8,0.3,0.8,0.8
	s-0.3,0.8-0.8,0.8H41.8z"/>
<path class="st1" d="M17.3,28.8h-8c-0.4,0-0.8-0.3-0.8-0.8s0.3-0.8,0.8-0.8h8c0.4,0,0.8,0.3,0.8,0.8S17.7,28.8,17.3,28.8z"/>
<path class="st1" d="M23.5,28.8h-3c-0.4,0-0.8-0.3-0.8-0.8s0.3-0.8,0.8-0.8h3c0.4,0,0.8,0.3,0.8,0.8S23.9,28.8,23.5,28.8z"/>
<path class="st1" d="M29.7,28.8h-3c-0.4,0-0.8-0.3-0.8-0.8s0.3-0.8,0.8-0.8h3c0.4,0,0.8,0.3,0.8,0.8S30.2,28.8,29.7,28.8z"/>
<path class="st1" d="M36,28.8h-3c-0.4,0-0.8-0.3-0.8-0.8s0.3-0.8,0.8-0.8h3c0.4,0,0.8,0.3,0.8,0.8S36.4,28.8,36,28.8z"/>
<path class="st1" d="M17.3,32h-8c-0.4,0-0.8-0.3-0.8-0.8s0.3-0.8,0.8-0.8h8c0.4,0,0.8,0.3,0.8,0.8S17.7,32,17.3,32z"/>
<path class="st1" d="M23.5,32h-3c-0.4,0-0.8-0.3-0.8-0.8s0.3-0.8,0.8-0.8h3c0.4,0,0.8,0.3,0.8,0.8S23.9,32,23.5,32z"/>
<path class="st1" d="M29.7,32h-3c-0.4,0-0.8-0.3-0.8-0.8s0.3-0.8,0.8-0.8h3c0.4,0,0.8,0.3,0.8,0.8S30.2,32,29.7,32z"/>
<path class="st1" d="M36,32h-3c-0.4,0-0.8-0.3-0.8-0.8s0.3-0.8,0.8-0.8h3c0.4,0,0.8,0.3,0.8,0.8S36.4,32,36,32z"/>
<circle class="st8" cx="36" cy="17.2" r="1"/>
<circle class="st8" cx="32.7" cy="17.2" r="1"/>
<circle class="st8" cx="29.3" cy="17.2" r="1"/>
<path class="st8" d="M35.5,25.5H9.7c-0.7,0-1.2-0.6-1.2-1.2v0C8.4,23.6,9,23,9.7,23h25.8c0.7,0,1.2,0.6,1.2,1.3v0
	C36.7,24.9,36.2,25.5,35.5,25.5z"/>
<path class="st35" d="M8.6,10.8v2.1c0,0.3,0.1,0.5,0.3,0.7l5.5,5v4.7c0,0.7,0.7,1.2,1.4,0.9l2.4-1c0.4-0.2,0.6-0.5,0.6-0.9v-3.8
	l5.5-5c0.2-0.2,0.3-0.5,0.3-0.7v-2.1H8.6z"/>
</svg>
