<?xml version="1.0" encoding="utf-8"?>
<!-- Generator: Adobe Illustrator 19.2.1, SVG Export Plug-In . SVG Version: 6.00 Build 0)  -->
<svg version="1.1" id="Layer_1" xmlns="http://www.w3.org/2000/svg" xmlns:xlink="http://www.w3.org/1999/xlink" x="0px" y="0px"
	 width="574px" height="300px" viewBox="0 0 574 300" style="enable-background:new 0 0 574 300;" xml:space="preserve">
<style type="text/css">
	.st0{opacity:0.1;fill:#74CBD2;}
	.st1{opacity:0.1;fill:#12AF96;}
	.st2{opacity:0.8;fill:url(#SVGID_1_);}
	.st3{fill:#12AF96;}
	.st4{fill:url(#SVGID_2_);}
	.st5{fill:#81D13B;}
	.st6{fill:#0D58A7;}
	.st7{fill:#FFFFFF;}
	.st8{fill:url(#SVGID_3_);}
	.st9{fill:#3BA5D6;}
	.st10{fill:none;stroke:#FFFFFF;stroke-width:2;stroke-linecap:round;stroke-linejoin:round;stroke-miterlimit:10;}
	.st11{fill:url(#SVGID_4_);}
	.st12{fill:url(#SVGID_5_);}
	.st13{fill:url(#SVGID_6_);}
	.st14{fill:none;stroke:#8EC9E4;stroke-width:2;stroke-linecap:round;stroke-linejoin:round;stroke-miterlimit:10;}
	.st15{fill:#006B76;}
	.st16{fill:url(#SVGID_7_);}
	.st17{fill:url(#SVGID_8_);}
	.st18{fill:url(#SVGID_9_);}
	.st19{fill:url(#SVGID_10_);}
	.st20{fill:#977D71;}
	.st21{fill:#C9A797;}
	
		.st22{clip-path:url(#SVGID_12_);fill:none;stroke:#977D71;stroke-width:2;stroke-linecap:round;stroke-linejoin:round;stroke-miterlimit:10;}
	.st23{fill:url(#SVGID_13_);}
	.st24{fill:#1B75BB;}
	.st25{opacity:0.5;fill:none;stroke:#3BA5D6;stroke-width:2;stroke-linecap:round;stroke-miterlimit:10;stroke-dasharray:6,8;}
	.st26{opacity:0.3;clip-path:url(#SVGID_15_);fill:none;stroke:#3BA5D6;stroke-width:2;stroke-linecap:round;stroke-miterlimit:10;}
</style>
<path id="Path-3_7_" class="st0" d="M102,84.7C156.1-5.4,219.1,4.3,259.4,48.6C335.6,147.6,363.5,250,289,260.1
	c-39,5.3-137.7,15.8-204.4-53.5C59,180.2,81.2,130.8,102,84.7z"/>
<path id="Path-3_8_" class="st1" d="M90,182.9C50.9,85.3,96.8,41.1,156.4,35.6c125-0.9,223.4,38.7,186.5,104.2
	c-19.3,34.3-70.6,119.3-166.1,130.6C140.2,274.8,114.3,227.3,90,182.9z"/>
<linearGradient id="SVGID_1_" gradientUnits="userSpaceOnUse" x1="266.9807" y1="338.6999" x2="159.6103" y2="15.5563">
	<stop  offset="0" style="stop-color:#006B76"/>
	<stop  offset="1" style="stop-color:#12AF96"/>
</linearGradient>
<path class="st2" d="M266.1,231.4H135.5c-1.7,0-3-1.3-3-3V50.4c0-1.7,1.3-3,3-3h130.6c1.7,0,3,1.3,3,3v178.1
	C269.1,230.1,267.7,231.4,266.1,231.4z"/>
<polygon class="st3" points="259.2,244.1 118.5,244.1 118.5,95.1 159,54.6 259.2,54.6 "/>
<linearGradient id="SVGID_2_" gradientUnits="userSpaceOnUse" x1="135.0188" y1="252.2395" x2="268.3875" y2="45.2882">
	<stop  offset="0" style="stop-color:#FFFFFF;stop-opacity:0"/>
	<stop  offset="1" style="stop-color:#B1E0F4"/>
</linearGradient>
<path class="st4" d="M256.1,244.1H121.6c-1.7,0-3.1-1.4-3.1-3.1V96.4c0-0.8,0.3-1.6,0.9-2.2l38.7-38.7c0.6-0.6,1.4-0.9,2.2-0.9h95.8
	c1.7,0,3.1,1.4,3.1,3.1V241C259.2,242.8,257.8,244.1,256.1,244.1z"/>
<g>
	<g>
		<path class="st5" d="M163.5,113.3c-0.3-0.3-0.5-0.4-1-0.4l-1.1,0l-18.4,0.1l-0.1,0c-0.4,0-0.8,0.1-1.1,0.4
			c-0.3,0.3-0.4,0.6-0.4,1.1l0,1.1l0.1,18.4c0,0.4,0.1,0.8,0.4,1.1c0.1,0.1,0.3,0.1,0.5,0.2c0.2,0.1,0.4,0,0.6,0l19.6-0.1
			c0.3,0,0.6,0,0.9-0.1c0.1-0.1,0-0.1,0.1-0.1c0.3-0.3,0.3-0.6,0.3-1l-0.1-19.5l0-0.1C163.8,114,163.8,113.6,163.5,113.3z"/>
	</g>
	<g>
		<path class="st6" d="M154,128.3L154,128.3L154,128.3 M154,128.3C154,128.3,153.9,128.4,154,128.3c-0.2,0.2-0.3,0.3-0.4,0.3
			C153.7,128.5,153.9,128.4,154,128.3 M151.7,128.4C151.7,128.4,151.7,128.4,151.7,128.4C151.7,128.4,151.7,128.4,151.7,128.4
			L151.7,128.4z M152.2,128.7c0.2,0.1,0.4,0.1,0.6,0.1c0,0,0.1,0,0.1,0c0,0-0.1,0-0.1,0C152.6,128.8,152.4,128.8,152.2,128.7
			 M152.9,128.8L152.9,128.8L152.9,128.8"/>
		<g>
			<path class="st7" d="M151.5,126.3l1.1-1.5l-3.5-3.4c-0.3-0.3-0.7-0.5-1.1-0.4c-0.4,0-0.8,0.2-1.1,0.5c-0.6,0.6-0.6,1.6,0,2.2
				l4.8,4.7C151.1,127.8,151.1,127,151.5,126.3z"/>
			<path class="st5" d="M153.6,128.6c-0.2,0.1-0.4,0.2-0.7,0.2C153.1,128.8,153.4,128.8,153.6,128.6z"/>
			<path class="st5" d="M154.1,128.2L154.1,128.2C154,128.2,154,128.3,154.1,128.2C154,128.3,154,128.2,154.1,128.2z"/>
			<path class="st7" d="M165.7,109.8c-0.3-0.2-0.6-0.3-0.9-0.3c-0.5,0-1,0.3-1.3,0.7l-2,2.8h0l-2.3,3.1v0l-6.6,8.9l0,0l0,0l-1.1,1.5
				c-0.5,0.6-0.4,1.5,0.1,2l0,0c0,0,0.1,0,0.1,0.1l0,0l0,0c0,0,0.1,0,0.1,0.1c0,0,0.1,0,0.1,0.1c0.1,0,0.2,0.1,0.2,0.1
				c0.2,0.1,0.3,0.1,0.5,0.1c0,0,0,0,0,0v0c0,0,0.2,0,0.2,0c0.2,0,0.5-0.1,0.7-0.2c0.1-0.1,0.2-0.4,0.3-0.5c0,0,0,0,0,0l0.1,0
				c0.2-0.3,0.3-0.5,0.3-0.8c0,0.3-0.1,0.5-0.2,0.7l11.8-16.1C166.3,111.3,166.4,110.3,165.7,109.8z"/>
		</g>
	</g>
</g>
<g>
	<g>
		<path class="st5" d="M163.5,151c-0.3-0.3-0.5-0.4-1-0.4l-1.1,0l-18.4,0.1l-0.1,0c-0.4,0-0.8,0.1-1.1,0.4c-0.3,0.3-0.4,0.6-0.4,1.1
			l0,1.1l0.1,18.4c0,0.4,0.1,0.8,0.4,1.1c0.1,0.1,0.3,0.1,0.5,0.2c0.2,0.1,0.4,0,0.6,0l19.6-0.1c0.3,0,0.6,0,0.9-0.1
			c0.1-0.1,0-0.1,0.1-0.1c0.3-0.3,0.3-0.6,0.3-1l-0.1-19.5l0-0.1C163.8,151.7,163.8,151.3,163.5,151z"/>
	</g>
	<g>
		<path class="st6" d="M154,166L154,166L154,166 M154,166C154,166,153.9,166,154,166c-0.2,0.2-0.3,0.3-0.4,0.3
			C153.7,166.2,153.9,166.1,154,166 M151.7,166.1C151.7,166.1,151.7,166.1,151.7,166.1C151.7,166.1,151.7,166.1,151.7,166.1
			L151.7,166.1z M152.2,166.4c0.2,0.1,0.4,0.1,0.6,0.1c0,0,0.1,0,0.1,0c0,0-0.1,0-0.1,0C152.6,166.5,152.4,166.5,152.2,166.4
			 M152.9,166.5L152.9,166.5L152.9,166.5"/>
		<g>
			<path class="st7" d="M151.5,164l1.1-1.5l-3.5-3.4c-0.3-0.3-0.7-0.5-1.1-0.4c-0.4,0-0.8,0.2-1.1,0.5c-0.6,0.6-0.6,1.6,0,2.2
				l4.8,4.7C151.1,165.5,151.1,164.7,151.5,164z"/>
			<path class="st5" d="M153.6,166.3c-0.2,0.1-0.4,0.2-0.7,0.2C153.1,166.5,153.4,166.4,153.6,166.3z"/>
			<path class="st5" d="M154.1,165.9L154.1,165.9C154,165.9,154,165.9,154.1,165.9C154,166,154,165.9,154.1,165.9z"/>
			<path class="st7" d="M165.7,147.5c-0.3-0.2-0.6-0.3-0.9-0.3c-0.5,0-1,0.3-1.3,0.7l-2,2.8h0l-2.3,3.1v0l-6.6,8.9l0,0l0,0l-1.1,1.5
				c-0.5,0.6-0.4,1.5,0.1,2l0,0c0,0,0.1,0,0.1,0.1l0,0l0,0c0,0,0.1,0,0.1,0.1c0,0,0.1,0,0.1,0.1c0.1,0,0.2,0.1,0.2,0.1
				c0.2,0.1,0.3,0.1,0.5,0.1c0,0,0,0,0,0v0c0,0,0.2,0,0.2,0c0.2,0,0.5-0.1,0.7-0.2c0.1-0.1,0.2-0.4,0.3-0.5c0,0,0,0,0,0l0.1,0
				c0.2-0.3,0.3-0.5,0.3-0.8c0,0.3-0.1,0.5-0.2,0.7l11.8-16.1C166.3,148.9,166.4,148,165.7,147.5z"/>
		</g>
	</g>
</g>
<g>
	<g>
		<path class="st5" d="M163.5,190.8c-0.3-0.3-0.5-0.4-1-0.4l-1.1,0l-18.4,0.1l-0.1,0c-0.4,0-0.8,0.1-1.1,0.4
			c-0.3,0.3-0.4,0.6-0.4,1.1l0,1.1l0.1,18.4c0,0.4,0.1,0.8,0.4,1.1c0.1,0.1,0.3,0.1,0.5,0.2c0.2,0.1,0.4,0,0.6,0l19.6-0.1
			c0.3,0,0.6,0,0.9-0.1c0.1-0.1,0-0.1,0.1-0.1c0.3-0.3,0.3-0.6,0.3-1l-0.1-19.5l0-0.1C163.8,191.4,163.8,191.1,163.5,190.8z"/>
	</g>
	<g>
		<path class="st6" d="M154,205.7L154,205.7L154,205.7 M154,205.7C154,205.7,153.9,205.8,154,205.7c-0.2,0.2-0.3,0.3-0.4,0.3
			C153.7,206,153.9,205.9,154,205.7 M151.7,205.8C151.7,205.8,151.7,205.9,151.7,205.8C151.7,205.9,151.7,205.8,151.7,205.8
			L151.7,205.8z M152.2,206.2c0.2,0.1,0.4,0.1,0.6,0.1c0,0,0.1,0,0.1,0c0,0-0.1,0-0.1,0C152.6,206.3,152.4,206.2,152.2,206.2
			 M152.9,206.3L152.9,206.3L152.9,206.3"/>
		<g>
			<path class="st7" d="M151.5,203.8l1.1-1.5l-3.5-3.4c-0.3-0.3-0.7-0.5-1.1-0.4c-0.4,0-0.8,0.2-1.1,0.5c-0.6,0.6-0.6,1.6,0,2.2
				l4.8,4.7C151.1,205.3,151.1,204.4,151.5,203.8z"/>
			<path class="st5" d="M153.6,206.1c-0.2,0.1-0.4,0.2-0.7,0.2C153.1,206.3,153.4,206.2,153.6,206.1z"/>
			<path class="st5" d="M154.1,205.6L154.1,205.6C154,205.6,154,205.7,154.1,205.6C154,205.7,154,205.7,154.1,205.6z"/>
			<path class="st7" d="M165.7,187.2c-0.3-0.2-0.6-0.3-0.9-0.3c-0.5,0-1,0.3-1.3,0.7l-2,2.8h0l-2.3,3.1v0l-6.6,8.9l0,0l0,0l-1.1,1.5
				c-0.5,0.6-0.4,1.5,0.1,2l0,0c0,0,0.1,0,0.1,0.1l0,0c0,0,0,0,0,0c0,0,0.1,0,0.1,0.1c0,0,0.1,0,0.1,0.1c0.1,0,0.2,0.1,0.2,0.1
				c0.2,0.1,0.3,0.1,0.5,0.1c0,0,0,0,0,0v0c0,0,0.2,0,0.2,0c0.2,0,0.5-0.1,0.7-0.2c0.1-0.1,0.2-0.4,0.3-0.5c0,0,0,0,0,0l0.1,0
				c0.2-0.3,0.3-0.5,0.3-0.8c0,0.3-0.1,0.5-0.2,0.7l11.8-16.1C166.3,188.7,166.4,187.7,165.7,187.2z"/>
		</g>
	</g>
</g>
<linearGradient id="SVGID_3_" gradientUnits="userSpaceOnUse" x1="146.7447" y1="92.7712" x2="136.9789" y2="70.8141">
	<stop  offset="0" style="stop-color:#B1E0F4"/>
	<stop  offset="3.992379e-002" style="stop-color:#B8E3F5"/>
	<stop  offset="0.1685" style="stop-color:#CAEAF8"/>
	<stop  offset="0.3237" style="stop-color:#D7EFFA"/>
	<stop  offset="0.5304" style="stop-color:#DEF2FB"/>
	<stop  offset="1" style="stop-color:#E0F3FB"/>
</linearGradient>
<polygon class="st8" points="159,95.1 118.5,95.1 159,54.6 "/>
<g>
	<path class="st9" d="M171.5,72.7c0-0.5,0.4-0.8,0.8-0.8h3.4c1.1,0,1.9,0.3,2.5,0.8c0.4,0.4,0.6,0.9,0.6,1.6v0
		c0,1.1-0.6,1.7-1.3,2.1c1.1,0.4,1.9,1,1.9,2.3v0c0,1.7-1.4,2.6-3.5,2.6h-3.5c-0.5,0-0.8-0.4-0.8-0.8V72.7z M175.3,75.9
		c1.1,0,1.8-0.4,1.8-1.3v0c0-0.7-0.6-1.2-1.7-1.2h-2.4v2.5H175.3z M175.8,79.8c1.1,0,1.8-0.4,1.8-1.3v0c0-0.8-0.6-1.3-1.9-1.3h-2.6
		v2.6H175.8z"/>
	<path class="st9" d="M184.6,81.5c-2.1,0-3.6-1.5-3.6-3.7v0c0-2,1.4-3.7,3.5-3.7c2.3,0,3.4,1.9,3.4,3.5c0,0.5-0.3,0.8-0.8,0.8h-4.4
		c0.2,1.2,1,1.8,2,1.8c0.7,0,1.2-0.2,1.7-0.6c0.1-0.1,0.2-0.1,0.4-0.1c0.4,0,0.6,0.3,0.6,0.7c0,0.2-0.1,0.4-0.2,0.5
		C186.5,81.1,185.7,81.5,184.6,81.5z M186.2,77.3c-0.1-1-0.7-1.9-1.8-1.9c-1,0-1.7,0.8-1.8,1.9H186.2z"/>
	<path class="st9" d="M189.5,80.6c-0.2-0.1-0.3-0.3-0.3-0.6c0-0.4,0.3-0.7,0.7-0.7c0.1,0,0.3,0,0.3,0.1c0.7,0.5,1.4,0.7,2,0.7
		c0.7,0,1.1-0.3,1.1-0.8v0c0-0.6-0.8-0.7-1.6-1c-1-0.3-2.2-0.7-2.2-2.1v0c0-1.3,1.1-2.2,2.5-2.2c0.8,0,1.5,0.2,2.2,0.6
		c0.2,0.1,0.4,0.3,0.4,0.6c0,0.4-0.3,0.7-0.7,0.7c-0.1,0-0.2,0-0.3-0.1c-0.6-0.3-1.2-0.5-1.7-0.5c-0.6,0-1,0.3-1,0.7v0
		c0,0.5,0.8,0.7,1.6,1c1,0.3,2.2,0.8,2.2,2.1v0c0,1.5-1.2,2.2-2.6,2.2C191.3,81.4,190.3,81.1,189.5,80.6z"/>
	<path class="st9" d="M197,79.3v-3.7h-0.3c-0.4,0-0.7-0.3-0.7-0.7s0.3-0.7,0.7-0.7h0.3V73c0-0.4,0.4-0.8,0.8-0.8
		c0.4,0,0.8,0.4,0.8,0.8v1.2h1.3c0.4,0,0.7,0.3,0.7,0.7s-0.3,0.7-0.7,0.7h-1.3v3.5c0,0.6,0.3,0.9,0.9,0.9c0.2,0,0.3,0,0.4,0
		c0.4,0,0.7,0.3,0.7,0.7c0,0.3-0.2,0.5-0.4,0.6c-0.3,0.1-0.7,0.2-1.1,0.2C197.9,81.4,197,80.9,197,79.3z"/>
	<path class="st9" d="M171.5,88.8c0-0.5,0.4-0.8,0.8-0.8h2.9c2.2,0,3.6,1.2,3.6,3.1v0c0,2.1-1.7,3.2-3.8,3.2h-1.9v2.3
		c0,0.5-0.4,0.8-0.8,0.8c-0.5,0-0.8-0.4-0.8-0.8V88.8z M175,92.9c1.2,0,2-0.7,2-1.7v0c0-1.1-0.8-1.7-2-1.7h-1.9v3.4H175z"/>
	<path class="st9" d="M180.6,91.1c0-0.5,0.3-0.8,0.8-0.8s0.8,0.4,0.8,0.8v0.7c0.4-0.9,1.1-1.6,1.8-1.6c0.5,0,0.8,0.3,0.8,0.8
		c0,0.4-0.3,0.7-0.6,0.8c-1.2,0.2-1.9,1.1-1.9,2.8v2.1c0,0.4-0.4,0.8-0.8,0.8c-0.4,0-0.8-0.3-0.8-0.8V91.1z"/>
	<path class="st9" d="M185.7,95.4L185.7,95.4c0-1.6,1.2-2.3,2.9-2.3c0.8,0,1.4,0.1,1.9,0.3v-0.2c0-1-0.6-1.5-1.8-1.5
		c-0.6,0-1.1,0.1-1.6,0.3c-0.1,0-0.2,0-0.3,0c-0.4,0-0.7-0.3-0.7-0.7c0-0.3,0.2-0.6,0.4-0.6c0.7-0.3,1.4-0.4,2.3-0.4
		c1.1,0,1.9,0.3,2.3,0.8c0.5,0.5,0.8,1.3,0.8,2.2v3.5c0,0.4-0.3,0.8-0.8,0.8c-0.5,0-0.8-0.3-0.8-0.7v-0.3c-0.5,0.6-1.2,1-2.3,1
		C186.8,97.6,185.7,96.8,185.7,95.4z M190.5,94.9v-0.5c-0.4-0.2-1-0.3-1.6-0.3c-1,0-1.7,0.4-1.7,1.2v0c0,0.7,0.6,1.1,1.4,1.1
		C189.7,96.4,190.5,95.8,190.5,94.9z"/>
	<path class="st9" d="M193.9,93.9L193.9,93.9c0-2,1.6-3.7,3.7-3.7c1.1,0,1.9,0.4,2.5,0.9c0.1,0.1,0.3,0.3,0.3,0.6
		c0,0.4-0.3,0.7-0.8,0.7c-0.2,0-0.4-0.1-0.5-0.2c-0.4-0.3-0.9-0.6-1.5-0.6c-1.2,0-2.1,1-2.1,2.3v0c0,1.3,0.9,2.3,2.1,2.3
		c0.6,0,1.1-0.3,1.6-0.6c0.1-0.1,0.3-0.2,0.4-0.2c0.4,0,0.7,0.3,0.7,0.7c0,0.2-0.1,0.4-0.2,0.5c-0.6,0.6-1.4,1-2.6,1
		C195.5,97.6,193.9,95.9,193.9,93.9z"/>
	<path class="st9" d="M202.7,95.4v-3.7h-0.3c-0.4,0-0.7-0.3-0.7-0.7s0.3-0.7,0.7-0.7h0.3v-1.2c0-0.4,0.4-0.8,0.8-0.8
		c0.4,0,0.8,0.4,0.8,0.8v1.2h1.3c0.4,0,0.7,0.3,0.7,0.7s-0.3,0.7-0.7,0.7h-1.3v3.5c0,0.6,0.3,0.9,0.9,0.9c0.2,0,0.3,0,0.4,0
		c0.4,0,0.7,0.3,0.7,0.7c0,0.3-0.2,0.5-0.4,0.6c-0.3,0.1-0.7,0.2-1.1,0.2C203.5,97.5,202.7,97,202.7,95.4z"/>
	<path class="st9" d="M208.2,88.4c0-0.5,0.4-0.8,0.9-0.8c0.5,0,0.9,0.3,0.9,0.8v0.1c0,0.5-0.4,0.8-0.9,0.8
		C208.6,89.3,208.2,89,208.2,88.4L208.2,88.4z M208.3,91.1c0-0.5,0.3-0.8,0.8-0.8c0.5,0,0.8,0.4,0.8,0.8v5.6c0,0.5-0.4,0.8-0.8,0.8
		c-0.4,0-0.8-0.3-0.8-0.8V91.1z"/>
	<path class="st9" d="M212,93.9L212,93.9c0-2,1.6-3.7,3.7-3.7c1.1,0,1.9,0.4,2.5,0.9c0.1,0.1,0.3,0.3,0.3,0.6c0,0.4-0.3,0.7-0.8,0.7
		c-0.2,0-0.4-0.1-0.5-0.2c-0.4-0.3-0.9-0.6-1.5-0.6c-1.2,0-2.1,1-2.1,2.3v0c0,1.3,0.9,2.3,2.1,2.3c0.6,0,1.1-0.3,1.6-0.6
		c0.1-0.1,0.3-0.2,0.4-0.2c0.4,0,0.7,0.3,0.7,0.7c0,0.2-0.1,0.4-0.2,0.5c-0.6,0.6-1.4,1-2.6,1C213.5,97.6,212,95.9,212,93.9z"/>
	<path class="st9" d="M223.4,97.6c-2.1,0-3.6-1.5-3.6-3.7v0c0-2,1.4-3.7,3.5-3.7c2.3,0,3.4,1.9,3.4,3.5c0,0.5-0.3,0.8-0.8,0.8h-4.4
		c0.2,1.2,1,1.8,2,1.8c0.7,0,1.2-0.2,1.7-0.6c0.1-0.1,0.2-0.1,0.4-0.1c0.4,0,0.6,0.3,0.6,0.7c0,0.2-0.1,0.4-0.2,0.5
		C225.3,97.2,224.5,97.6,223.4,97.6z M225,93.4c-0.1-1-0.7-1.9-1.8-1.9c-1,0-1.7,0.8-1.8,1.9H225z"/>
	<path class="st9" d="M228.3,96.7c-0.2-0.1-0.3-0.3-0.3-0.6c0-0.4,0.3-0.7,0.7-0.7c0.1,0,0.3,0,0.3,0.1c0.7,0.5,1.4,0.7,2,0.7
		c0.7,0,1.1-0.3,1.1-0.8v0c0-0.6-0.8-0.7-1.6-1c-1-0.3-2.2-0.7-2.2-2.1v0c0-1.3,1.1-2.2,2.5-2.2c0.8,0,1.5,0.2,2.2,0.6
		c0.2,0.1,0.4,0.3,0.4,0.6c0,0.4-0.3,0.7-0.7,0.7c-0.1,0-0.2,0-0.3-0.1c-0.6-0.3-1.2-0.5-1.7-0.5c-0.6,0-1,0.3-1,0.7v0
		c0,0.5,0.8,0.7,1.6,1c1,0.3,2.2,0.8,2.2,2.1v0c0,1.5-1.2,2.2-2.6,2.2C230.1,97.5,229.2,97.3,228.3,96.7z"/>
</g>
<line class="st10" x1="172.7" y1="118.3" x2="217.9" y2="118.3"/>
<line class="st10" x1="172.7" y1="125.1" x2="211.4" y2="125.1"/>
<line class="st10" x1="172.7" y1="131.7" x2="195.7" y2="131.7"/>
<line class="st10" x1="172.7" y1="155.1" x2="217.9" y2="155.1"/>
<line class="st10" x1="172.7" y1="162" x2="211.4" y2="162"/>
<line class="st10" x1="172.7" y1="168.6" x2="195.7" y2="168.6"/>
<line class="st10" x1="172.7" y1="194" x2="217.9" y2="194"/>
<line class="st10" x1="172.7" y1="200.8" x2="211.4" y2="200.8"/>
<line class="st10" x1="172.7" y1="207.4" x2="195.7" y2="207.4"/>
<linearGradient id="SVGID_4_" gradientUnits="userSpaceOnUse" x1="371.4974" y1="125.6649" x2="448.4795" y2="125.6649">
	<stop  offset="0" style="stop-color:#B1E0F4"/>
	<stop  offset="1" style="stop-color:#E0F3FB"/>
</linearGradient>
<path class="st11" d="M448.5,106.8c0,0-1.8,24.5-14.8,46.6l-62.2-8.7c0,0,43.8-11.5,58.5-46.7L448.5,106.8z"/>
<linearGradient id="SVGID_5_" gradientUnits="userSpaceOnUse" x1="643.6951" y1="996.7714" x2="697.9334" y2="996.7714" gradientTransform="matrix(0.8917 0.4527 -0.4527 0.8917 296.1584 -1096.8392)">
	<stop  offset="0" style="stop-color:#1A66AD"/>
	<stop  offset="1" style="stop-color:#063280"/>
</linearGradient>
<path class="st12" d="M464,109.7L419.3,87c-1.4-0.7-1.5-2.6-0.3-3.5l2.9-2.1l45.1,22.9l0,3.6C467,109.4,465.3,110.4,464,109.7z"/>
<linearGradient id="SVGID_6_" gradientUnits="userSpaceOnUse" x1="436.5198" y1="59.6111" x2="472.136" y2="76.6449">
	<stop  offset="0" style="stop-color:#3DA5D5"/>
	<stop  offset="1" style="stop-color:#1B75BB"/>
</linearGradient>
<path class="st13" d="M453,109.1l-27-13.7c-1.5-0.8-2.1-2.6-1.4-4.2l23.8-46.8c1.3-2.6,3.7-4.5,6.5-5.3l13.6-3.7
	c4-1.1,8.2,1.2,9.4,5.1l3.9,12.3c0.8,2.6,0.6,5.4-0.6,7.8l-23.9,47.1C456.4,109.2,454.5,109.8,453,109.1z"/>
<path class="st14" d="M456.3,45.6l7.3-2.1c3.8-1.1,7.7,0.9,9,4.6l2.7,7.1"/>
<g>
	<path class="st15" d="M474.2,84.8l-4.3-2.2l7-13.8l1.6,0.8c1.5,0.8,2.1,2.6,1.3,4L474.2,84.8z"/>
	<linearGradient id="SVGID_7_" gradientUnits="userSpaceOnUse" x1="459.1439" y1="91.5939" x2="479.2306" y2="91.5939">
		<stop  offset="0" style="stop-color:#063280"/>
		<stop  offset="1" style="stop-color:#1A66AD"/>
	</linearGradient>
	<path class="st16" d="M459.1,103.8l9,4.6c1.7,0.9,3.8,0,4.4-1.8l6.3-19.7c0.8-2.4,0.4-4.9-1-7l-3.8-5.5L459.1,103.8z"/>
</g>
<g>
	<path class="st3" d="M433.1,63.9l4.3,2.2l7-13.8l-1.6-0.8c-1.5-0.8-3.3-0.2-4,1.3L433.1,63.9z"/>
	<linearGradient id="SVGID_8_" gradientUnits="userSpaceOnUse" x1="415.8883" y1="72.6176" x2="441.5168" y2="72.6176">
		<stop  offset="0" style="stop-color:#3DA5D5"/>
		<stop  offset="1" style="stop-color:#1B75BB"/>
	</linearGradient>
	<path class="st17" d="M426.6,87.3l-9-4.6c-1.7-0.9-2.2-3-1.1-4.6l12.2-16.7c1.5-2,3.8-3.2,6.2-3.3l6.6-0.2L426.6,87.3z"/>
</g>
<path class="st6" d="M447.5,113.2l-21.7-11c-1.4-0.7-1.5-2.6-0.3-3.5l2.9-2.1l22.1,11.2l0,3.6C450.5,112.9,448.9,113.9,447.5,113.2z
	"/>
<linearGradient id="SVGID_9_" gradientUnits="userSpaceOnUse" x1="354.8117" y1="465.2513" x2="368.9803" y2="496.4223" gradientTransform="matrix(0.9999 -1.216802e-002 1.216802e-002 0.9999 88.772 -290.9582)">
	<stop  offset="0" style="stop-color:#E0F3FB"/>
	<stop  offset="0.5796" style="stop-color:#C6E9F7"/>
	<stop  offset="1" style="stop-color:#B1E0F4"/>
</linearGradient>
<path class="st18" d="M478.3,194.7c5.4-0.1,9.8-4.4,9.8-9.8c0-0.1,0-0.1,0-0.2c-0.1-6.9-6.9-12.5-15.3-12.4l0,0
	c-0.3,0-0.6-0.2-0.7-0.5c-1.3-5.9-7.6-10.4-15.1-10.3c-6.8,0.1-12.6,3.9-14.4,9.1c-0.5,1.3-1.6,2.1-3,2.2c0,0,0,0-0.1,0
	c-8.4,0.1-15.1,5.8-15,12.8c0,0.6,0.1,1,0.1,1.5c0.9,4.9,5.3,8.4,10.2,8.3L478.3,194.7z"/>
<linearGradient id="SVGID_10_" gradientUnits="userSpaceOnUse" x1="239.1084" y1="365.3212" x2="261.5858" y2="414.7715" gradientTransform="matrix(0.9999 -1.216802e-002 1.216802e-002 0.9999 88.772 -290.9582)">
	<stop  offset="0" style="stop-color:#E0F3FB"/>
	<stop  offset="0.5796" style="stop-color:#C6E9F7"/>
	<stop  offset="1" style="stop-color:#B1E0F4"/>
</linearGradient>
<path class="st19" d="M378.4,110.8c8.6-0.1,15.5-7,15.5-15.6c0-0.1,0-0.2,0-0.3c-0.1-11-11-19.8-24.3-19.7l0,0c-0.5,0-1-0.4-1.1-0.9
	c-2-9.4-12-16.5-23.9-16.3c-10.9,0.1-20,6.2-22.8,14.4c-0.7,2-2.6,3.4-4.7,3.4c0,0-0.1,0-0.1,0c-13.3,0.2-23.9,9.2-23.8,20.2
	c0,1,0.1,1.7,0.2,2.3c1.4,7.7,8.3,13.3,16.2,13.2L378.4,110.8z"/>
<g>
	<path class="st20" d="M319.7,137.6l45.4-16.4l0,0v0c4,6.7,2.3,15.4-4,20.2l-14.5,10.9L319.7,137.6z"/>
	<path class="st21" d="M433.7,153.4L433.7,153.4L382.8,170l-0.5,31.5v0c-7.5,12.7-21.8,20-36.5,18.5l-33.9-3.4
		c-7.4-0.7-14.4-3.6-20.2-8.3l-8.6-7v-41.6l14.4-12.6c5-4.3,11-7.3,17.5-8.6l4.7-1c13.6-4.9,25.2,8.6,29.7,8.2l68.3-5.3
		C425.6,139.9,432.6,145.5,433.7,153.4z"/>
	<g>
		<defs>
			<path id="SVGID_11_" d="M433.7,153.4L433.7,153.4L382.8,170l-0.5,31.5v0c-7.5,12.7-21.8,20-36.5,18.5l-33.9-3.4
				c-7.4-0.7-14.4-3.6-20.2-8.3l-8.6-7v-41.6l14.4-12.6c5-4.3,11-7.3,17.5-8.6l4.7-1c13.6-4.9,25.2,8.6,29.7,8.2l68.3-5.3
				C425.6,139.9,432.6,145.5,433.7,153.4z"/>
		</defs>
		<clipPath id="SVGID_12_">
			<use xlink:href="#SVGID_11_"  style="overflow:visible;"/>
		</clipPath>
		<line class="st22" x1="386.1" y1="170" x2="367.3" y2="176.4"/>
	</g>
	<linearGradient id="SVGID_13_" gradientUnits="userSpaceOnUse" x1="219.9576" y1="212.2545" x2="275.767" y2="156.4452">
		<stop  offset="0" style="stop-color:#1B75BB"/>
		<stop  offset="1" style="stop-color:#3DA5D5"/>
	</linearGradient>
	<path class="st23" d="M230.3,162.3v60.3h28.5v-83.1h-5.6C240.5,139.4,230.3,149.7,230.3,162.3z"/>
	<path class="st24" d="M258.8,139.4h19c5.4,0,9.8,4.4,9.8,9.8v63.6c0,5.4-4.4,9.8-9.8,9.8h-19V139.4z"/>
	<circle class="st7" cx="269.4" cy="209.8" r="3.7"/>
</g>
<path class="st25" d="M446.1,130.1c0,0-3.5,35.3-39.9,44.5"/>
<path class="st25" d="M415.3,108.2c0,0-11.4,13.4-34.1,11.4"/>
<path class="st25" d="M426.2,116.1c0,0-8.4,12.3-16.1,15.2"/>
<g>
	<defs>
		<path id="SVGID_14_" d="M378.4,110.8c8.6-0.1,15.5-7,15.5-15.6c0-0.1,0-0.2,0-0.3c-0.1-11-11-19.8-24.3-19.7l0,0
			c-0.5,0-1-0.4-1.1-0.9c-2-9.4-12-16.5-23.9-16.3c-10.9,0.1-20,6.2-22.8,14.4c-0.7,2-2.6,3.4-4.7,3.4c0,0-0.1,0-0.1,0
			c-13.3,0.2-23.9,9.2-23.8,20.2c0,1,0.1,1.7,0.2,2.3c1.4,7.7,8.3,13.3,16.2,13.2L378.4,110.8z"/>
	</defs>
	<clipPath id="SVGID_15_">
		<use xlink:href="#SVGID_14_"  style="overflow:visible;"/>
	</clipPath>
	<path class="st26" d="M317,74.8c0,0,9.6-1.4,11.6,5.5"/>
</g>
</svg>
