<?xml version="1.0" encoding="utf-8"?>
<!-- Generator: Adobe Illustrator 19.2.1, SVG Export Plug-In . SVG Version: 6.00 Build 0)  -->
<svg version="1.1" id="Layer_1" xmlns="http://www.w3.org/2000/svg" xmlns:xlink="http://www.w3.org/1999/xlink" x="0px" y="0px"
	 width="126px" height="126px" viewBox="0 0 126 126" style="enable-background:new 0 0 126 126;" xml:space="preserve">
<style type="text/css">
	.st0{opacity:0.15;fill:#74CBD2;}
	.st1{opacity:0.15;fill:#12AF96;}
	.st2{fill:url(#SVGID_1_);}
	.st3{clip-path:url(#SVGID_3_);fill:#006B76;}
	.st4{clip-path:url(#SVGID_3_);}
	.st5{fill:#12AF96;}
	.st6{clip-path:url(#SVGID_3_);fill:url(#SVGID_4_);}
	.st7{opacity:0.3;fill:#3BA5D6;}
	.st8{fill:#3BA5D6;}
	.st9{fill:url(#SVGID_5_);}
	.st10{fill:url(#SVGID_6_);}
	.st11{fill:#006B76;}
	.st12{fill:none;stroke:#8EC9E4;stroke-width:0.5;stroke-linecap:round;stroke-linejoin:round;stroke-miterlimit:10;}
	.st13{fill:#E4D3CB;}
	
		.st14{clip-path:url(#SVGID_8_);fill:none;stroke:#C9A797;stroke-width:0.5;stroke-linecap:round;stroke-linejoin:round;stroke-miterlimit:10;}
	.st15{fill:#C9A797;}
	
		.st16{clip-path:url(#SVGID_10_);fill:none;stroke:#E4D3CB;stroke-width:0.5;stroke-linecap:round;stroke-linejoin:round;stroke-miterlimit:10;}
	
		.st17{fill:none;stroke:#1B75BB;stroke-width:0.5;stroke-linecap:round;stroke-linejoin:round;stroke-miterlimit:10;stroke-dasharray:2;}
	.st18{fill:#FFFFFF;}
	.st19{fill:#1B75BB;}
	.st20{fill:#81D13B;}
	.st21{fill:none;stroke:#FFFFFF;stroke-linecap:round;stroke-linejoin:round;stroke-miterlimit:10;}
	.st22{fill:#8EC9E4;}
	.st23{fill:none;stroke:#1B75BB;stroke-linecap:round;stroke-linejoin:round;stroke-miterlimit:10;}
</style>
<path id="Path-3_3_" class="st0" d="M113.7,70c-11.1,47.1-32,60-62.8,38.6c-46.2-32-61-78.7-31.5-81.8c12.7-1.3,65-28.9,85.2-12.5
	C117.6,24.8,116.4,46.8,113.7,70z"/>
<path class="st1" d="M18,98.6c0,0-16.4-2.6-15-26.1c1-15.8,6.1-17.9,10.6-40.3S39.1,4.8,47,10.2c14.1,9.7,21.2,11.9,42.3,11.9
	s30.3,5.4,34.6,20.3c3.3,11.3-1.1,41-14.3,53.3c-8.9,8.3-25.9,3.1-34.6,2.8C63.1,98.1,45.9,105.1,18,98.6z"/>
<linearGradient id="SVGID_1_" gradientUnits="userSpaceOnUse" x1="18.0377" y1="65.0002" x2="107.9623" y2="65.0002">
	<stop  offset="0" style="stop-color:#063280"/>
	<stop  offset="1" style="stop-color:#1A66AD"/>
</linearGradient>
<circle class="st2" cx="63" cy="65" r="45"/>
<g>
	<defs>
		<circle id="SVGID_2_" cx="63" cy="65" r="45"/>
	</defs>
	<clipPath id="SVGID_3_">
		<use xlink:href="#SVGID_2_"  style="overflow:visible;"/>
	</clipPath>
	<path class="st3" d="M58.9,48.5H33.9c-1.7,0-3-1.3-3-3V23.2h27.9V48.5z"/>
	<g class="st4">
		<path class="st5" d="M33.8,37.8c0-0.3,0.2-0.5,0.5-0.5c0.3,0,0.5,0.2,0.5,0.5v1.8h2.6v-1.8c0-0.3,0.2-0.5,0.5-0.5
			c0.3,0,0.5,0.2,0.5,0.5v4.5c0,0.3-0.2,0.5-0.5,0.5c-0.3,0-0.5-0.2-0.5-0.5v-1.8h-2.6v1.8c0,0.3-0.2,0.5-0.5,0.5
			c-0.3,0-0.5-0.2-0.5-0.5V37.8z"/>
		<path class="st5" d="M39.5,37.6c0-0.3,0.2-0.5,0.5-0.5c0.3,0,0.5,0.2,0.5,0.5v0c0,0.3-0.2,0.5-0.5,0.5
			C39.7,38.1,39.5,37.9,39.5,37.6L39.5,37.6z M39.5,39.1c0-0.3,0.2-0.5,0.5-0.5c0.3,0,0.5,0.2,0.5,0.5v3.2c0,0.3-0.2,0.5-0.5,0.5
			c-0.3,0-0.5-0.2-0.5-0.5V39.1z"/>
		<path class="st5" d="M41.7,37.6c0-0.2,0.1-0.3,0.3-0.3h0.6c0.2,0,0.3,0.1,0.3,0.3l-0.3,3.1c0,0.2-0.1,0.3-0.3,0.3S42,40.9,42,40.8
			L41.7,37.6z M42.2,41.6c0.3,0,0.5,0.2,0.5,0.5v0.1c0,0.3-0.2,0.5-0.5,0.5c-0.3,0-0.5-0.2-0.5-0.5v-0.1
			C41.7,41.8,41.9,41.6,42.2,41.6z"/>
	</g>
	<linearGradient id="SVGID_4_" gradientUnits="userSpaceOnUse" x1="23.5342" y1="98.4044" x2="40.7195" y2="98.4044">
		<stop  offset="0" style="stop-color:#3DA5D5"/>
		<stop  offset="1" style="stop-color:#1B75BB"/>
	</linearGradient>
	<polygon class="st6" points="23.5,97.9 37.3,105.3 40.7,98.9 27,91.5 	"/>
</g>
<path class="st7" d="M94.8,58.7H49.7c-1.7,0-3-1.3-3-3V28.4c0-1.7,1.3-3,3-3h45.2c1.7,0,3,1.3,3,3v27.3
	C97.8,57.4,96.5,58.7,94.8,58.7z"/>
<path class="st8" d="M96.5,57.8H48c-1.7,0-3-1.3-3-3V25.3c0-1.7,1.3-3,3-3h48.5c1.7,0,3,1.3,3,3v29.5C99.5,56.4,98.2,57.8,96.5,57.8
	z"/>
<linearGradient id="SVGID_5_" gradientUnits="userSpaceOnUse" x1="43.6715" y1="37.0329" x2="100.8576" y2="37.0329">
	<stop  offset="0" style="stop-color:#1B75BB"/>
	<stop  offset="1" style="stop-color:#3DA5D5"/>
</linearGradient>
<path class="st9" d="M97.9,55.7H46.7c-1.7,0-3-1.3-3-3V21.4c0-1.7,1.3-3,3-3h51.2c1.7,0,3,1.3,3,3v31.3
	C100.9,54.3,99.5,55.7,97.9,55.7z"/>
<linearGradient id="SVGID_6_" gradientUnits="userSpaceOnUse" x1="43.6715" y1="21.3875" x2="100.8576" y2="21.3875">
	<stop  offset="0" style="stop-color:#E0F3FB"/>
	<stop  offset="5.095005e-002" style="stop-color:#DAF1FA"/>
	<stop  offset="0.3442" style="stop-color:#BCE5F6"/>
	<stop  offset="0.5102" style="stop-color:#B1E0F4"/>
</linearGradient>
<path class="st10" d="M100.9,24.4H43.7v-3c0-1.7,1.3-3,3-3h51.2c1.7,0,3,1.3,3,3V24.4z"/>
<rect x="56.4" y="33.9" class="st11" width="9.6" height="5.7"/>
<rect x="75.3" y="39.6" class="st11" width="9.2" height="5.7"/>
<g>
	<rect x="47.8" y="27.4" class="st12" width="36.6" height="24.3"/>
	<rect x="66.1" y="27.4" class="st12" width="18.3" height="24.3"/>
	<rect x="56.4" y="27.4" class="st12" width="28" height="24.3"/>
	<rect x="75.3" y="27.4" class="st12" width="9.2" height="24.3"/>
	<line class="st12" x1="47.8" y1="33.9" x2="84.4" y2="33.9"/>
	<line class="st12" x1="47.8" y1="45.3" x2="84.4" y2="45.3"/>
	<line class="st12" x1="47.8" y1="39.6" x2="84.4" y2="39.6"/>
</g>
<path class="st13" d="M90.2,96.7v-6l5.3-16.4h0c-1.2-0.6-2.6,0-3.1,1.2l-1.5,3.9L90.2,80l2.7-13.7l0,0c-1.4-0.4-2.9,0.5-3.3,1.9
	l1.3-6.3l-1.2-0.1c-1.2-0.1-2.3,0.7-2.7,1.9l0.8-3.3l-1.7-0.1c-1.2-0.1-2.3,0.7-2.7,1.8l-7,20.8l-3.2,1.8l-3.8-2.3
	c-2.5-1.4-5.5-1.5-8-0.1h0l8.3,9.6l10.5,9.7L90.2,96.7z"/>
<g>
	<defs>
		<path id="SVGID_7_" d="M90.2,96.7v-6l5.3-16.4h0c-1.2-0.6-2.6,0-3.1,1.2l-1.5,3.9L90.2,80l2.7-13.7l0,0c-1.4-0.4-2.9,0.5-3.3,1.9
			l1.3-6.3l-1.2-0.1c-1.2-0.1-2.3,0.7-2.7,1.9l0.8-3.3l-1.7-0.1c-1.2-0.1-2.3,0.7-2.7,1.8l-7,20.8l-3.2,1.8l-3.8-2.3
			c-2.5-1.4-5.5-1.5-8-0.1h0l8.3,9.6l10.5,9.7L90.2,96.7z"/>
	</defs>
	<clipPath id="SVGID_8_">
		<use xlink:href="#SVGID_7_"  style="overflow:visible;"/>
	</clipPath>
	<line class="st14" x1="88.6" y1="59.4" x2="83" y2="79.7"/>
	<line class="st14" x1="92" y1="60.4" x2="86.6" y2="79.8"/>
</g>
<path class="st15" d="M31.4,89.1v-6l-5.3-16.4h0c1.2-0.6,2.6,0,3.1,1.2l1.5,3.9l0.7,0.6l-2.7-13.7h0c1.4-0.4,2.9,0.5,3.3,1.9
	l-1.3-6.3l1.2-0.1c1.2-0.1,2.3,0.7,2.7,1.9l-0.8-3.3l1.7-0.1c1.2-0.1,2.3,0.7,2.7,1.8l7,20.8l3.2,1.8l3.8-2.3c2.5-1.4,5.5-1.5,8-0.1
	h0l-8.3,9.6l-10.5,9.7L31.4,89.1z"/>
<g>
	<defs>
		<path id="SVGID_9_" d="M31.4,89.1v-6l-5.3-16.4h0c1.2-0.6,2.6,0,3.1,1.2l1.5,3.9l0.7,0.6l-2.7-13.7h0c1.4-0.4,2.9,0.5,3.3,1.9
			l-1.3-6.3l1.2-0.1c1.2-0.1,2.3,0.7,2.7,1.9l-0.8-3.3l1.7-0.1c1.2-0.1,2.3,0.7,2.7,1.8l7,20.8l3.2,1.8l3.8-2.3
			c2.5-1.4,5.5-1.5,8-0.1h0l-8.3,9.6l-10.5,9.7L31.4,89.1z"/>
	</defs>
	<clipPath id="SVGID_10_">
		<use xlink:href="#SVGID_9_"  style="overflow:visible;"/>
	</clipPath>
	<line class="st16" x1="33" y1="51.7" x2="38.6" y2="72"/>
	<line class="st16" x1="29.6" y1="52.7" x2="35" y2="72.2"/>
	<path class="st16" d="M48.2,76.9c0,0-6.3-0.3-7.9,4.7"/>
	<path class="st16" d="M46,74.5c0,0-1.2,1.8-8,3.1"/>
</g>
<path class="st17" d="M75.9,66.8c0,0-0.2-4.7,5.6-6.5"/>
<path class="st17" d="M73.4,72c0,0-2.2-5.3,1.2-9.8"/>
<path class="st17" d="M25.1,55.7c0,0-5.8,4.3-2.7,12.3"/>
<path class="st17" d="M21.5,55.7c0,0,1.8-4.5,6.3-5.2"/>
<rect x="80.7" y="101.7" transform="matrix(0.8796 -0.4756 0.4756 0.8796 -39.4257 54.7907)" class="st11" width="15.6" height="7.2"/>
<path class="st5" d="M93.7,98.4L92,95.3c-0.5-0.9-1.6-1.2-2.5-0.7L79,100.2c-0.9,0.5-1.2,1.6-0.7,2.5l1.7,3.1L93.7,98.4z"/>
<ellipse transform="matrix(0.8796 -0.4756 0.4756 0.8796 -39.2001 50.9717)" class="st18" cx="81.1" cy="102.9" rx="0.7" ry="0.7"/>
<path class="st19" d="M27,91.5l1.7-3.1c0.5-0.9,1.6-1.2,2.5-0.7l10.5,5.7c0.9,0.5,1.2,1.6,0.7,2.5l-1.7,3.1L27,91.5z"/>
<g>
	<circle class="st20" cx="98.3" cy="43" r="7.5"/>
	<g>
		<g>
			<path class="st18" d="M100.4,44.3c-0.3-0.3-0.6-0.3-0.8,0c-0.2,0.2-0.4,0.4-0.6,0.6c-0.1,0.1-0.1,0.1-0.2,0
				c-0.1-0.1-0.3-0.1-0.4-0.2c-0.6-0.4-1-0.8-1.5-1.3c-0.2-0.3-0.4-0.5-0.5-0.8c0-0.1,0-0.1,0-0.2c0.2-0.2,0.4-0.4,0.6-0.6
				c0.3-0.3,0.3-0.6,0-0.9c-0.2-0.2-0.3-0.3-0.5-0.5c-0.2-0.2-0.3-0.3-0.5-0.5c-0.3-0.3-0.6-0.3-0.8,0c-0.2,0.2-0.4,0.4-0.6,0.6
				c-0.2,0.2-0.3,0.4-0.3,0.6c0,0.4,0.1,0.8,0.2,1.2c0.3,0.8,0.7,1.5,1.3,2.1c0.7,0.9,1.6,1.5,2.6,2c0.5,0.2,0.9,0.4,1.4,0.4
				c0.4,0,0.7-0.1,0.9-0.3c0.2-0.2,0.4-0.4,0.5-0.5c0.3-0.3,0.3-0.6,0-0.9C101,45,100.7,44.6,100.4,44.3L100.4,44.3z M100.4,44.3"/>
		</g>
		<path class="st18" d="M100.4,43c0.2,0,0.3-0.2,0.2-0.4c-0.1-0.4-0.4-0.8-0.7-1.1c-0.3-0.3-0.8-0.6-1.2-0.7c-0.2,0-0.4,0.1-0.4,0.3
			l0,0c0,0.2,0.1,0.3,0.2,0.3c0.4,0.1,0.7,0.3,0.9,0.5c0.2,0.2,0.4,0.5,0.5,0.9C100.1,42.9,100.2,43,100.4,43L100.4,43z"/>
		<path class="st18" d="M101,40.4c-0.6-0.6-1.4-1-2.2-1.2c-0.2,0-0.3,0.1-0.4,0.3l0,0c0,0.2,0.1,0.3,0.2,0.3
			c0.7,0.2,1.4,0.5,1.9,1.1c0.5,0.5,0.9,1.1,1,1.8c0,0.2,0.2,0.3,0.3,0.2l0,0c0.2,0,0.3-0.2,0.2-0.4C102,41.7,101.6,41,101,40.4
			L101,40.4z M101,40.4"/>
	</g>
</g>
<g>
	<g>
		<ellipse class="st18" cx="90.5" cy="21.5" rx="0.9" ry="0.8"/>
		<ellipse class="st18" cx="93.7" cy="21.5" rx="0.9" ry="0.8"/>
		<ellipse class="st18" cx="96.9" cy="21.5" rx="0.9" ry="0.8"/>
	</g>
</g>
<polyline class="st21" points="60.4,36.1 61.7,37.3 63.6,35.3 "/>
<polyline class="st21" points="78.8,41.8 80.1,43 82,41 "/>
<g>
	<path class="st22" d="M51.8,29.8l-0.3,0.1c0,0-0.1,0-0.1,0c-0.1,0-0.2-0.1-0.2-0.2c0-0.1,0.1-0.2,0.2-0.2l0.4-0.1
		c0.1,0,0.2,0,0.2,0h0c0.1,0,0.2,0.1,0.2,0.2v2.4c0,0.1-0.1,0.2-0.2,0.2c-0.1,0-0.2-0.1-0.2-0.2V29.8z"/>
</g>
<g>
	<path class="st22" d="M59.3,49.3l0.9-0.7c0.4-0.3,0.5-0.5,0.5-0.8c0-0.3-0.2-0.4-0.5-0.4c-0.2,0-0.4,0.1-0.6,0.3
		c0,0-0.1,0.1-0.2,0.1c-0.1,0-0.2-0.1-0.2-0.2c0-0.1,0-0.1,0.1-0.2c0.2-0.3,0.5-0.5,0.9-0.5c0.5,0,0.9,0.3,0.9,0.8v0
		c0,0.4-0.2,0.7-0.7,1.1l-0.6,0.5H61c0.1,0,0.2,0.1,0.2,0.2s-0.1,0.2-0.2,0.2h-1.6c-0.2,0-0.3-0.1-0.3-0.2
		C59.2,49.4,59.2,49.3,59.3,49.3z"/>
	<path class="st22" d="M61.7,49L61.7,49c0-0.3,0.2-0.6,0.5-0.7c-0.2-0.1-0.4-0.3-0.4-0.6v0c0-0.4,0.4-0.8,1-0.8c0.6,0,1,0.3,1,0.8v0
		c0,0.3-0.2,0.5-0.4,0.6c0.3,0.1,0.5,0.3,0.5,0.7v0c0,0.5-0.5,0.8-1.1,0.8C62.1,49.8,61.7,49.5,61.7,49z M63.3,49L63.3,49
		c0-0.3-0.3-0.4-0.6-0.4c-0.3,0-0.6,0.2-0.6,0.4v0c0,0.2,0.2,0.4,0.6,0.4C63.1,49.4,63.3,49.2,63.3,49z M63.2,47.7L63.2,47.7
		c0-0.2-0.2-0.4-0.5-0.4s-0.5,0.2-0.5,0.4v0c0,0.2,0.2,0.4,0.5,0.4C63,48.1,63.2,48,63.2,47.7z"/>
</g>
<line class="st23" x1="87.4" y1="28.3" x2="95.2" y2="28.3"/>
</svg>
