<?xml version="1.0" encoding="utf-8"?>
<!-- Generator: Adobe Illustrator 19.2.1, SVG Export Plug-In . SVG Version: 6.00 Build 0)  -->
<svg version="1.1" id="Layer_1" xmlns="http://www.w3.org/2000/svg" xmlns:xlink="http://www.w3.org/1999/xlink" x="0px" y="0px"
	 width="126px" height="126px" viewBox="0 0 126 126" style="enable-background:new 0 0 126 126;" xml:space="preserve">
<style type="text/css">
	.st0{opacity:0.15;fill:#74CBD2;}
	.st1{opacity:0.15;fill:#12AF96;}
	.st2{fill:url(#SVGID_1_);}
	
		.st3{fill:none;stroke:#1B75BB;stroke-width:0.5;stroke-linecap:round;stroke-linejoin:round;stroke-miterlimit:10;stroke-dasharray:2;}
	.st4{fill:#0D58A7;}
	.st5{fill:#1B75BB;}
	.st6{fill:#C9A797;}
	.st7{fill:#E4D3CB;}
	
		.st8{clip-path:url(#SVGID_3_);fill:none;stroke:#C9A797;stroke-width:0.5;stroke-linecap:round;stroke-linejoin:round;stroke-miterlimit:10;}
	.st9{fill:#12AF96;}
	.st10{fill:#FFFFFF;}
	.st11{fill:#006B76;}
	.st12{fill:url(#SVGID_4_);}
	.st13{fill:url(#SVGID_5_);}
	.st14{fill:url(#SVGID_6_);}
	.st15{fill:#96CA4F;}
	.st16{fill:url(#SVGID_7_);}
	.st17{fill:url(#SVGID_8_);}
	.st18{fill:url(#SVGID_9_);}
	.st19{fill:url(#SVGID_10_);}
	.st20{fill:url(#SVGID_11_);}
	.st21{fill:url(#SVGID_12_);}
	.st22{clip-path:url(#SVGID_14_);fill:#006B76;}
	.st23{opacity:0.3;fill:#3BA5D6;}
	.st24{fill:#B1E0F4;}
	.st25{fill:url(#SVGID_15_);}
	.st26{fill:none;stroke:#3BA5D6;stroke-width:0.5;stroke-miterlimit:10;}
</style>
<path id="Path-3_4_" class="st0" d="M112.7,70c-11.1,47.1-32,60-62.8,38.6c-46.2-32-61-78.7-31.5-81.8c12.7-1.3,65-28.9,85.2-12.5
	C116.6,24.8,115.4,46.8,112.7,70z"/>
<path class="st1" d="M17,98.6c0,0-16.4-2.6-15-26.1c1-15.8,6.1-17.9,10.6-40.3S38.1,4.8,46,10.2c14.1,9.7,21.2,11.9,42.3,11.9
	s30.3,5.4,34.6,20.3c3.3,11.3-1.1,41-14.3,53.3c-8.9,8.3-25.9,3.1-34.6,2.8C62.1,98.1,44.9,105.1,17,98.6z"/>
<linearGradient id="SVGID_1_" gradientUnits="userSpaceOnUse" x1="18.0377" y1="63" x2="107.9623" y2="63">
	<stop  offset="0" style="stop-color:#063280"/>
	<stop  offset="1" style="stop-color:#1A66AD"/>
</linearGradient>
<circle class="st2" cx="63" cy="63" r="45"/>
<path class="st3" d="M75.3,42.1c4.9,2.9,8.8,7.5,10.6,13c0.8,2.5,1.3,5.1,1.3,7.8"/>
<g>
	<g>
		<path class="st4" d="M33,72.1c-0.1-0.1-0.1-0.1-0.2,0l-0.3,0.1l-4.1,1l0,0c-0.1,0-0.2,0.1-0.2,0.1c-0.1,0.1-0.1,0.2,0,0.3l0.1,0.3
			l1,4.2c0,0.1,0.1,0.2,0.2,0.2c0,0,0.1,0,0.1,0c0.1,0,0.1,0,0.1,0l4.4-1c0.1,0,0.1,0,0.2-0.1c0,0,0,0,0,0c0.1-0.1,0-0.2,0-0.3
			l-1-4.4l0,0C33.1,72.3,33,72.2,33,72.1z"/>
	</g>
	<g>
		<path class="st4" d="M31.6,76L31.6,76L31.6,76 M31.6,76C31.6,76,31.6,76,31.6,76C31.6,76.1,31.5,76.1,31.6,76
			C31.5,76.1,31.6,76,31.6,76 M31.1,76.2C31.1,76.2,31.1,76.2,31.1,76.2C31.1,76.2,31.1,76.2,31.1,76.2L31.1,76.2z M31.2,76.2
			c0,0,0.1,0,0.1,0c0,0,0,0,0,0c0,0,0,0,0,0C31.3,76.2,31.3,76.2,31.2,76.2 M31.4,76.2C31.4,76.2,31.4,76.2,31.4,76.2
			C31.4,76.2,31.4,76.2,31.4,76.2"/>
		<path class="st5" d="M29.8,74.7c-0.1,0-0.2,0.1-0.2,0.2c-0.1,0.2-0.1,0.4,0.1,0.5l1.3,0.8c-0.1-0.1-0.2-0.3-0.1-0.5l0.2-0.4
			l-1-0.6C30,74.7,29.9,74.7,29.8,74.7 M31.6,76L31.6,76C31.6,76,31.6,76,31.6,76C31.6,76,31.6,76,31.6,76 M31.6,76L31.6,76L31.6,76
			 M31.1,76.2c0,0,0.1,0,0.1,0C31.2,76.2,31.1,76.2,31.1,76.2C31.1,76.2,31.1,76.2,31.1,76.2 M31.5,76.1c0,0-0.1,0.1-0.1,0.1
			C31.4,76.2,31.5,76.1,31.5,76.1 M31.4,76.2"/>
		<path class="st5" d="M33.3,71.2c-0.1,0-0.2,0-0.2,0c-0.1,0-0.2,0.1-0.2,0.2l-0.3,0.7l0,0L32.1,73l0,0l-1,2.3l0,0l0,0l-0.2,0.4
			c-0.1,0.2,0,0.4,0.1,0.5l0,0c0,0,0,0,0,0c0,0,0,0,0,0c0,0,0.1,0,0.1,0c0,0,0.1,0,0.1,0c0,0,0,0,0,0l0,0c0,0,0,0,0,0
			c0.1,0,0.1,0,0.1-0.1c0,0,0-0.1,0.1-0.1c0,0,0-0.1,0-0.1l-0.1,0l0,0c0,0,0.1,0,0.1,0l0,0c0-0.1,0-0.1,0-0.2c0,0.1,0,0.1,0,0.2
			l1.8-4.3C33.5,71.5,33.4,71.3,33.3,71.2z"/>
		<path class="st5" d="M31.1,75.3l-0.2,0.4c-0.1,0.2,0,0.4,0.1,0.5l0,0c0,0,0,0,0,0c0,0,0,0,0,0c0,0,0.1,0,0.1,0c0,0,0.1,0,0.1,0
			c0,0,0,0,0,0l0,0c0,0,0,0,0,0c0.1,0,0.1,0,0.1-0.1c0,0,0,0,0.1-0.1c0,0,0,0,0,0l0,0l0,0c0,0,0,0,0,0l0,0c0.1-0.2,0-0.4-0.1-0.5
			L31.1,75.3z"/>
	</g>
</g>
<path class="st6" d="M40,75.9L40,75.9c-0.8,1-0.6,2.5,0.5,3.1l2.7,1.7l2,3.4l9.2,0L48,78.4L40,75.9z"/>
<path class="st7" d="M94.5,82.5l2.9-4.8l12-10.4h0c-0.6-1-2-1.3-3-0.5l-3,2.4l-0.9,0.2l8.7-9.5l0,0c-0.9-1-2.5-1-3.5-0.1l4-4.3
	l-0.9-0.6c-0.9-0.6-2.2-0.6-3,0.2l2.2-2.2l-1.3-0.9c-0.9-0.6-2.1-0.6-3,0.1l-15.5,13l-1.3,0l-1-1.5l0.8-3.8c0.3-1.2-0.6-2.3-1.8-2.4
	h0l-3.3,4.3l-1.4,3.5c-1,2.5-1.2,5.3-0.4,7.9l2.5,8.6L94.5,82.5z"/>
<g>
	<defs>
		<path id="SVGID_2_" d="M94.5,82.5l2.9-4.8l12-10.4h0c-0.6-1-2-1.3-3-0.5l-3,2.4l-0.9,0.2l8.7-9.5l0,0c-0.9-1-2.5-1-3.5-0.1l4-4.3
			l-0.9-0.6c-0.9-0.6-2.2-0.6-3,0.2l2.2-2.2l-1.3-0.9c-0.9-0.6-2.1-0.6-3,0.1l-15.5,13L87,65.1L83,57.7l-4.2-0.2l2,11.5l3.6,12.7
			L94.5,82.5z"/>
	</defs>
	<clipPath id="SVGID_3_">
		<use xlink:href="#SVGID_2_"  style="overflow:visible;"/>
	</clipPath>
	<line class="st8" x1="111.2" y1="52.4" x2="97" y2="65.7"/>
	<line class="st8" x1="113.4" y1="54.8" x2="99.8" y2="67.5"/>
	<path class="st8" d="M89.4,64.8c0,0,3.8,2.5,2.7,6.5"/>
	<path class="st8" d="M93.2,64.9c0,0,3.2,6.2,6.9,7.3"/>
</g>
<path class="st9" d="M98.2,86.3l-0.1-3.6c0-1-0.9-1.8-1.9-1.8l-12,0.3c-1,0-1.8,0.9-1.8,1.9l0.1,3.6L98.2,86.3z"/>
<ellipse transform="matrix(0.9996 -2.865460e-002 2.865460e-002 0.9996 -2.3924 2.4692)" class="st10" cx="85" cy="84.7" rx="0.7" ry="0.7"/>
<path class="st7" d="M57.6,98.3l0.2-9.5c0-1.2-0.5-2.4-1.5-3.2L54.1,84L36,82.8c-0.6,0-1.1-0.3-1.5-0.7L29,75.8
	c-1-1.1-2.4-1.8-3.9-2L23,73.7l6.9,12.1c0.3,0.5,0.7,0.8,1.3,1l14.7,3.5l0.7,5.2L57.6,98.3z"/>
<polygon class="st11" points="42.8,111.1 58.5,111.6 59.3,97.7 43.6,97.2 "/>
<path class="st9" d="M43.6,97.2l0.1-3.6c0-1,0.9-1.8,1.9-1.8l12,0.4c1,0,1.8,0.9,1.8,1.9l-0.1,3.6L43.6,97.2z"/>
<ellipse transform="matrix(3.260901e-002 -0.9995 0.9995 3.260901e-002 -40.5166 149.4395)" class="st10" cx="56.9" cy="95.6" rx="0.7" ry="0.7"/>
<g>
	<linearGradient id="SVGID_4_" gradientUnits="userSpaceOnUse" x1="14.0768" y1="54.6043" x2="45.193" y2="54.6043">
		<stop  offset="0" style="stop-color:#1B75BB"/>
		<stop  offset="1" style="stop-color:#3DA5D5"/>
	</linearGradient>
	<polygon class="st12" points="29.8,41.3 22.4,42 14.1,53.7 34.1,67.9 45.2,52.2 	"/>
	<linearGradient id="SVGID_5_" gradientUnits="userSpaceOnUse" x1="22.6696" y1="43.1842" x2="29.6871" y2="43.1842">
		<stop  offset="0" style="stop-color:#E0F3FB"/>
		<stop  offset="5.095005e-002" style="stop-color:#DAF1FA"/>
		<stop  offset="0.3442" style="stop-color:#BCE5F6"/>
		<stop  offset="0.5102" style="stop-color:#B1E0F4"/>
	</linearGradient>
	<polygon class="st13" points="22.7,41.9 27.1,45 29.7,41.3 	"/>
	<path class="st9" d="M25,49.7l-3.4,4.8c-0.2,0.3-0.7,0.4-1,0.2c-0.3-0.2-0.4-0.7-0.2-1l3.4-4.8c0.2-0.3,0.7-0.4,1-0.2
		C25.2,48.9,25.3,49.4,25,49.7z"/>
	<path class="st5" d="M31.9,51.4l-5,7c-0.2,0.2-0.5,0.3-0.8,0.1c-0.2-0.2-0.3-0.5-0.1-0.8l5-7c0.2-0.2,0.5-0.3,0.8-0.1
		C32,50.8,32.1,51.1,31.9,51.4z"/>
	<path class="st5" d="M34,52.8l-5,7c-0.2,0.2-0.5,0.3-0.8,0.1c-0.2-0.2-0.3-0.5-0.1-0.8l5-7c0.2-0.2,0.5-0.3,0.8-0.1
		C34.1,52.2,34.2,52.6,34,52.8z"/>
	<path class="st5" d="M29.8,49.9l-5,7c-0.2,0.2-0.5,0.3-0.8,0.1c-0.2-0.2-0.3-0.5-0.1-0.8l5-7c0.2-0.2,0.5-0.3,0.8-0.1
		C29.9,49.3,30,49.6,29.8,49.9z"/>
	<path class="st5" d="M36.1,54.3l-5,7c-0.2,0.2-0.5,0.3-0.8,0.1c-0.2-0.2-0.3-0.5-0.1-0.8l5-7c0.2-0.2,0.5-0.3,0.8-0.1
		C36.2,53.7,36.3,54.1,36.1,54.3z"/>
</g>
<g>
	
		<linearGradient id="SVGID_6_" gradientUnits="userSpaceOnUse" x1="43.8753" y1="43.3548" x2="62.7779" y2="43.3548" gradientTransform="matrix(0.9993 3.825034e-002 -3.825034e-002 0.9993 7.0499 -18.4528)">
		<stop  offset="0" style="stop-color:#1B75BB"/>
		<stop  offset="1" style="stop-color:#3DA5D5"/>
	</linearGradient>
	<path class="st14" d="M67.1,26.3l-16.2,4c-0.8,0.2-1.6-0.3-1.8-1.1v0c-0.2-0.8,0.3-1.6,1.1-1.8l16.2-4c0.8-0.2,1.6,0.3,1.8,1.1v0
		C68.4,25.3,67.9,26.1,67.1,26.3z"/>
	<ellipse transform="matrix(0.9703 -0.242 0.242 0.9703 -4.2942 16.2299)" class="st15" cx="63.9" cy="25.6" rx="2.4" ry="2.4"/>
	
		<linearGradient id="SVGID_7_" gradientUnits="userSpaceOnUse" x1="45.2103" y1="48.9567" x2="64.6966" y2="48.9567" gradientTransform="matrix(0.9993 3.825034e-002 -3.825034e-002 0.9993 7.0499 -18.4528)">
		<stop  offset="0" style="stop-color:#E0F3FB"/>
		<stop  offset="5.095005e-002" style="stop-color:#DAF1FA"/>
		<stop  offset="0.3442" style="stop-color:#BCE5F6"/>
		<stop  offset="0.5102" style="stop-color:#B1E0F4"/>
	</linearGradient>
	<path class="st16" d="M68.8,31.9l-16.7,4.2c-0.8,0.2-1.6-0.3-1.8-1.1v0c-0.2-0.8,0.3-1.6,1.1-1.8L68.1,29c0.8-0.2,1.6,0.3,1.8,1.1
		v0C70.1,30.9,69.6,31.7,68.8,31.9z"/>
	
		<linearGradient id="SVGID_8_" gradientUnits="userSpaceOnUse" x1="48.0493" y1="50.2597" x2="52.8838" y2="50.2597" gradientTransform="matrix(0.9993 3.825034e-002 -3.825034e-002 0.9993 7.0499 -18.4528)">
		<stop  offset="0" style="stop-color:#3DA5D5"/>
		<stop  offset="1" style="stop-color:#1B75BB"/>
	</linearGradient>
	<circle class="st17" cx="55.6" cy="33.7" r="2.4"/>
	<path class="st11" d="M70.4,38.5l-16.7,4.2c-0.8,0.2-1.6-0.3-1.8-1.1h0c-0.2-0.8,0.3-1.6,1.1-1.8l16.7-4.2c0.8-0.2,1.6,0.3,1.8,1.1
		l0,0C71.7,37.5,71.2,38.3,70.4,38.5z"/>
	<ellipse transform="matrix(0.9703 -0.242 0.242 0.9703 -7.414 16.6624)" class="st9" cx="64.1" cy="38.5" rx="2.4" ry="2.4"/>
</g>
<g>
	
		<linearGradient id="SVGID_9_" gradientUnits="userSpaceOnUse" x1="139.7421" y1="-105.5369" x2="147.7074" y2="-105.5369" gradientTransform="matrix(0.9048 -0.4259 0.4259 0.9048 -27.4038 213.9372)">
		<stop  offset="0" style="stop-color:#1B75BB"/>
		<stop  offset="1" style="stop-color:#3DA5D5"/>
	</linearGradient>
	<path class="st18" d="M60.8,54.5c-0.3-0.7-2.2-0.5-4.2,0.5c-2,0.9-3.3,2.2-3,2.9c0,0,0,0,0,0l0,0l1,2.2c0.3,0.7,2.2,0.5,4.2-0.5
		s3.3-2.2,3-2.9L60.8,54.5L60.8,54.5C60.8,54.5,60.8,54.5,60.8,54.5z"/>
	<path class="st5" d="M56.6,54.9c-2,0.9-3.3,2.2-3,2.9c0,0,0,0,0,0l0,0l0,0.1c0.3,0.7,2.2,0.5,4.2-0.5c2-0.9,3.3-2.2,3-2.9l0-0.1
		l0,0c0,0,0,0,0,0C60.5,53.8,58.6,54,56.6,54.9z"/>
	
		<linearGradient id="SVGID_10_" gradientUnits="userSpaceOnUse" x1="139.7421" y1="-108.4859" x2="147.7074" y2="-108.4859" gradientTransform="matrix(0.9048 -0.4259 0.4259 0.9048 -27.4038 213.9372)">
		<stop  offset="0" style="stop-color:#1B75BB"/>
		<stop  offset="1" style="stop-color:#3DA5D5"/>
	</linearGradient>
	<path class="st19" d="M59.5,51.8c-0.3-0.7-2.2-0.5-4.2,0.5c-2,0.9-3.3,2.2-3,2.9c0,0,0,0,0,0l0,0l1,2.2c0.3,0.7,2.2,0.5,4.2-0.5
		c2-0.9,3.3-2.2,3-2.9L59.5,51.8L59.5,51.8C59.5,51.8,59.5,51.8,59.5,51.8z"/>
	<path class="st5" d="M55.3,52.3c-2,0.9-3.3,2.2-3,2.9c0,0,0,0,0,0l0,0l0,0.1c0.3,0.7,2.2,0.5,4.2-0.5c2-0.9,3.3-2.2,3-2.9l0-0.1
		l0,0c0,0,0,0,0,0C59.2,51.1,57.3,51.3,55.3,52.3z"/>
	
		<linearGradient id="SVGID_11_" gradientUnits="userSpaceOnUse" x1="139.7421" y1="-111.3581" x2="147.7074" y2="-111.3581" gradientTransform="matrix(0.9048 -0.4259 0.4259 0.9048 -27.4038 213.9372)">
		<stop  offset="0" style="stop-color:#1B75BB"/>
		<stop  offset="1" style="stop-color:#3DA5D5"/>
	</linearGradient>
	<path class="st20" d="M58.3,49.2c-0.3-0.7-2.2-0.5-4.2,0.5c-2,0.9-3.3,2.2-3,2.9c0,0,0,0,0,0l0,0l1,2.2c0.3,0.7,2.2,0.5,4.2-0.5
		c2-0.9,3.3-2.2,3-2.9L58.3,49.2L58.3,49.2C58.3,49.2,58.3,49.2,58.3,49.2z"/>
	<path class="st5" d="M54.1,49.7c-2,0.9-3.3,2.2-3,2.9c0,0,0,0,0,0l0,0l0,0.1c0.3,0.7,2.2,0.5,4.2-0.5c2-0.9,3.3-2.2,3-2.9l0-0.1
		l0,0c0,0,0,0,0,0C58,48.5,56.1,48.7,54.1,49.7z"/>
</g>
<g>
	<g>
		<path class="st4" d="M42.1,30C42,30,42,29.9,41.9,30L41.6,30l-4.1,1l0,0c-0.1,0-0.2,0.1-0.2,0.1c-0.1,0.1-0.1,0.2,0,0.3l0.1,0.3
			l1,4.2c0,0.1,0.1,0.2,0.2,0.2c0,0,0.1,0,0.1,0c0.1,0,0.1,0,0.1,0l4.4-1c0.1,0,0.1,0,0.2-0.1c0,0,0,0,0,0c0.1-0.1,0-0.2,0-0.3
			l-1-4.4l0,0C42.2,30.1,42.2,30.1,42.1,30z"/>
	</g>
	<g>
		<path class="st4" d="M40.7,33.9L40.7,33.9L40.7,33.9 M40.7,33.9C40.7,33.9,40.7,33.9,40.7,33.9C40.7,33.9,40.7,34,40.7,33.9
			C40.7,34,40.7,33.9,40.7,33.9 M40.2,34C40.2,34,40.2,34,40.2,34C40.2,34,40.2,34,40.2,34L40.2,34z M40.4,34.1c0,0,0.1,0,0.1,0
			c0,0,0,0,0,0c0,0,0,0,0,0C40.4,34.1,40.4,34.1,40.4,34.1 M40.5,34.1L40.5,34.1L40.5,34.1"/>
		<path class="st5" d="M39,32.5c-0.1,0-0.2,0.1-0.2,0.2c-0.1,0.2-0.1,0.4,0.1,0.5l1.3,0.8c-0.1-0.1-0.2-0.3-0.1-0.5l0.2-0.4l-1-0.6
			C39.2,32.5,39.1,32.5,39,32.5 M40.7,33.9L40.7,33.9C40.7,33.9,40.7,33.9,40.7,33.9C40.7,33.9,40.7,33.9,40.7,33.9 M40.7,33.9
			L40.7,33.9L40.7,33.9 M40.2,34c0,0,0.1,0,0.1,0C40.3,34.1,40.3,34.1,40.2,34C40.2,34,40.2,34,40.2,34 M40.7,34
			c0,0-0.1,0.1-0.1,0.1C40.6,34.1,40.6,34,40.7,34 M40.5,34.1"/>
		<path class="st5" d="M42.4,29.1c-0.1,0-0.2,0-0.2,0c-0.1,0-0.2,0.1-0.2,0.2L41.6,30l0,0l-0.4,0.8l0,0l-1,2.3l0,0l0,0l-0.2,0.4
			c-0.1,0.2,0,0.4,0.1,0.5l0,0c0,0,0,0,0,0c0,0,0,0,0,0c0,0,0.1,0,0.1,0c0,0,0.1,0,0.1,0c0,0,0,0,0,0l0,0c0,0,0,0,0,0
			c0.1,0,0.1,0,0.1-0.1c0,0,0-0.1,0.1-0.1c0,0,0-0.1,0-0.1l-0.1,0l0,0c0,0,0.1,0,0.1,0l0,0c0-0.1,0-0.1,0-0.2c0,0.1,0,0.1,0,0.2
			l1.8-4.3C42.6,29.4,42.6,29.2,42.4,29.1z"/>
		<path class="st5" d="M40.2,33.2l-0.2,0.4c-0.1,0.2,0,0.4,0.1,0.5l0,0c0,0,0,0,0,0c0,0,0,0,0,0c0,0,0.1,0,0.1,0c0,0,0.1,0,0.1,0
			c0,0,0,0,0,0l0,0l0,0c0.1,0,0.1,0,0.1-0.1c0,0,0,0,0.1-0.1c0,0,0,0,0,0l0,0l0,0c0,0,0,0,0,0l0,0c0.1-0.2,0-0.4-0.1-0.5L40.2,33.2z
			"/>
	</g>
</g>
<g>
	<g>
		<linearGradient id="SVGID_12_" gradientUnits="userSpaceOnUse" x1="92.0786" y1="58.6325" x2="98.2748" y2="58.6325">
			<stop  offset="0" style="stop-color:#1B75BB"/>
			<stop  offset="1" style="stop-color:#3DA5D5"/>
		</linearGradient>
		<path class="st21" d="M98.2,56.8c0-0.1-0.1-0.1-0.2-0.1l-0.2-0.1l-4.1-1.1l0,0c-0.1,0-0.2,0-0.3,0c-0.1,0-0.1,0.1-0.2,0.2L93.2,56
			l-1.1,4.1c0,0.1,0,0.2,0,0.3c0,0,0.1,0,0.1,0.1c0,0,0.1,0,0.1,0l4.4,1.1c0.1,0,0.1,0,0.2,0c0,0,0,0,0,0c0.1,0,0.1-0.1,0.1-0.2
			l1.1-4.4l0,0C98.3,57,98.3,56.9,98.2,56.8z"/>
	</g>
	<g>
		<path class="st4" d="M95.2,59.6L95.2,59.6L95.2,59.6 M95.2,59.6C95.2,59.6,95.2,59.6,95.2,59.6c-0.1,0-0.1,0-0.1,0.1
			C95.1,59.7,95.2,59.6,95.2,59.6 M94.7,59.5C94.7,59.5,94.7,59.5,94.7,59.5C94.7,59.5,94.7,59.5,94.7,59.5L94.7,59.5z M94.8,59.6
			c0,0,0.1,0,0.1,0.1c0,0,0,0,0,0c0,0,0,0,0,0C94.9,59.7,94.8,59.6,94.8,59.6 M94.9,59.7C94.9,59.7,94.9,59.7,94.9,59.7
			C94.9,59.7,94.9,59.7,94.9,59.7"/>
		<path class="st10" d="M94.3,57.6c-0.1,0-0.2,0-0.3,0c-0.2,0.1-0.2,0.3-0.1,0.5l0.8,1.3c-0.1-0.2-0.1-0.4,0.1-0.5l0.3-0.3l-0.6-1
			C94.5,57.7,94.4,57.7,94.3,57.6 M95.2,59.6L95.2,59.6C95.2,59.6,95.2,59.6,95.2,59.6C95.2,59.6,95.2,59.6,95.2,59.6 M95.2,59.6
			L95.2,59.6L95.2,59.6 M94.7,59.5C94.7,59.6,94.8,59.6,94.7,59.5C94.8,59.6,94.7,59.6,94.7,59.5C94.7,59.5,94.7,59.5,94.7,59.5
			 M95.1,59.7c-0.1,0-0.1,0-0.2,0C95,59.7,95.1,59.7,95.1,59.7 M94.9,59.7"/>
		<path class="st10" d="M98.9,56.2c-0.1-0.1-0.1-0.1-0.2-0.1c-0.1,0-0.2,0-0.3,0.1l-0.6,0.5l0,0l-0.7,0.6l0,0l-2,1.6l0,0l0,0
			L94.8,59c-0.1,0.1-0.2,0.3-0.1,0.5l0,0c0,0,0,0,0,0c0,0,0,0,0,0c0,0,0,0.1,0.1,0.1c0,0,0.1,0,0.1,0c0,0,0,0,0,0l0,0l0,0
			c0.1,0,0.1,0,0.2,0c0,0,0.1-0.1,0.1-0.1c0,0,0-0.1,0-0.1l-0.1,0l0,0c0,0,0,0,0.1,0l0,0c0.1,0,0.1-0.1,0.1-0.2c0,0.1,0,0.1-0.1,0.2
			l3.6-2.9C99,56.5,99.1,56.3,98.9,56.2z"/>
	</g>
</g>
<circle class="st15" cx="88" cy="48.6" r="0.8"/>
<circle class="st15" cx="43.3" cy="45.8" r="0.8"/>
<g>
	<defs>
		<circle id="SVGID_13_" cx="63" cy="63" r="45"/>
	</defs>
	<clipPath id="SVGID_14_">
		<use xlink:href="#SVGID_13_"  style="overflow:visible;"/>
	</clipPath>
	<polygon class="st22" points="99.2,104.2 83.6,104.6 82.6,86.8 98.2,86.3 	"/>
</g>
<path class="st3" d="M63.9,21.3c7.1,0,13.7,1.5,18.6,5.9"/>
<path class="st3" d="M38,42.1c2.7-2.6,5.8-4.9,9.2-6.7"/>
<path class="st3" d="M25.2,72.7C24.4,69.6,24,66.3,24,63"/>
<path class="st3" d="M46.8,81c-4.9-4.4-8-10.8-8-18"/>
<path class="st3" d="M92.9,37.9c5.7,6.8,9.2,15.6,9.2,25.1"/>
<circle class="st23" cx="46" cy="72.7" r="0.8"/>
<circle class="st23" cx="75.3" cy="31.5" r="0.8"/>
<g>
	<path class="st24" d="M101.7,44.6c2.5,0.3,4.9-1.4,5.3-4c0,0,0-0.1,0-0.1c0.4-3.3-2.4-6.3-6.4-6.9l0,0c-0.2,0-0.3-0.1-0.3-0.3
		c-0.2-2.9-2.9-5.4-6.4-5.9c-3.2-0.4-6.2,1-7.4,3.3c-0.3,0.6-0.9,0.9-1.6,0.8c0,0,0,0,0,0c-4-0.5-7.5,1.7-7.9,5c0,0.3,0,0.5,0,0.7
		c0.1,2.4,1.9,4.3,4.3,4.6L101.7,44.6z"/>
	
		<linearGradient id="SVGID_15_" gradientUnits="userSpaceOnUse" x1="-1783.6848" y1="99.4977" x2="-1775.184" y2="88.4771" gradientTransform="matrix(0.9918 0.128 -0.128 0.9918 1868.9998 172.9026)">
		<stop  offset="0" style="stop-color:#C7E9F7"/>
		<stop  offset="9.794873e-002" style="stop-color:#C3E7F6"/>
		<stop  offset="0.5918" style="stop-color:#B1E0F4"/>
	</linearGradient>
	<path class="st25" d="M101.7,44.6c2.5,0.3,4.9-1.4,5.3-4c0,0,0-0.1,0-0.1c0.4-3.3-2.4-6.3-6.4-6.9l0,0c-0.2,0-0.3-0.1-0.3-0.3
		c-0.2-2.9-2.9-5.4-6.4-5.9c-3.2-0.4-6.2,1-7.4,3.3c-0.3,0.6-0.9,0.9-1.6,0.8c0,0,0,0,0,0c-4-0.5-7.5,1.7-7.9,5c0,0.3,0,0.5,0,0.7
		c0.1,2.4,1.9,4.3,4.3,4.6L101.7,44.6z"/>
	<path class="st26" d="M100.2,33.5c0,0-3.5-0.8-4.2,2.5"/>
</g>
</svg>
