<?xml version="1.0" encoding="utf-8"?>
<!-- Generator: Adobe Illustrator 19.2.1, SVG Export Plug-In . SVG Version: 6.00 Build 0)  -->
<svg version="1.1" id="Layer_3" xmlns="http://www.w3.org/2000/svg" xmlns:xlink="http://www.w3.org/1999/xlink" x="0px" y="0px"
	 width="600px" height="380px" viewBox="0 0 600 380" style="enable-background:new 0 0 600 380;" xml:space="preserve">
<style type="text/css">
	.st0{opacity:0.1;fill:#12AF96;}
	.st1{fill:#1E2949;}
	.st2{fill:#006B76;}
	.st3{fill:#275A7D;}
	.st4{fill:#E4D3CB;}
	.st5{fill:#C9A797;}
	.st6{fill:#FFFFFF;}
	.st7{fill:#27597D;}
	.st8{fill:url(#SVGID_1_);}
	.st9{fill:url(#SVGID_2_);}
	.st10{fill:#3BA5D6;}
	.st11{fill:#12AF96;}
	.st12{fill:url(#SVGID_3_);}
	.st13{fill:url(#SVGID_4_);}
	.st14{fill:url(#SVGID_5_);}
	.st15{fill:none;stroke:#12AF96;stroke-width:2;stroke-miterlimit:10;}
	.st16{fill:url(#SVGID_6_);}
	.st17{fill:url(#SVGID_7_);}
	.st18{fill:#81D13B;}
	.st19{fill:none;stroke:#C9A797;stroke-linecap:round;stroke-linejoin:round;stroke-miterlimit:10;}
	.st20{fill:none;stroke:#81D13B;stroke-width:2;stroke-miterlimit:10;}
	.st21{fill:none;stroke:#12AF96;stroke-width:2;stroke-linecap:round;stroke-linejoin:round;stroke-miterlimit:10;}
	.st22{fill:#1B75BB;}
	.st23{fill:url(#SVGID_8_);}
	.st24{fill:#8BC53F;}
	.st25{fill:url(#SVGID_9_);}
	.st26{fill:url(#SVGID_10_);}
	.st27{fill:url(#SVGID_11_);}
	.st28{opacity:0.2232;fill:#196DA6;enable-background:new    ;}
	.st29{fill:url(#SVGID_12_);}
	.st30{fill:#977D71;}
	.st31{fill:none;stroke:#1E2949;stroke-width:2;stroke-linecap:round;stroke-linejoin:round;stroke-miterlimit:10;}
	.st32{fill:none;stroke:#FFFFFF;stroke-width:2;stroke-linecap:round;stroke-linejoin:round;stroke-miterlimit:10;}
	.st33{fill:none;stroke:#006B76;stroke-width:2;stroke-linecap:round;stroke-linejoin:round;stroke-miterlimit:10;}
	.st34{fill:#00A98F;}
	.st35{fill:#3CA5D5;}
	.st36{fill:#3CA4D4;}
	.st37{fill:#95C94F;}
	.st38{fill:#7CAA43;}
	.st39{fill:#00B056;}
	.st40{fill:#009253;}
	.st41{fill:#098C45;}
	.st42{fill:url(#SVGID_13_);}
	.st43{fill:#B1E0F4;}
	.st44{fill:url(#SVGID_14_);}
	.st45{fill:none;stroke:#1B75BB;stroke-width:2;stroke-linecap:round;stroke-linejoin:round;stroke-miterlimit:10;}
	.st46{fill:none;stroke:#C9A797;stroke-width:2;stroke-linecap:round;stroke-linejoin:round;stroke-miterlimit:10;}
</style>
<path id="Path-3_2_" class="st0" d="M492.4,207.3c-37.5,140-108.3,178.3-212.5,114.8C123.6,226.9,73.3,88.2,173.4,79
	c42.9-4,220-86,288.3-37.1C505.3,73.1,501.4,138.6,492.4,207.3z"/>
<path class="st0" d="M148.8,293.7c0,0-57.8-8.1-52.6-80.7c3.4-48.7,21.6-55.3,37.3-124.6s89.7-84.5,117.4-67.8
	c49.6,30,74.7,36.8,148.8,36.8S506.3,74,521.6,120.3c11.5,35-4,126.8-50.4,164.6c-31.4,25.7-67,19.2-67,19.2"/>
<g>
	<path class="st1" d="M536.6,230.4l-74.2-18.9c-1.6-0.4-2.6-2-2.2-3.6l23.4-91.8c0.4-1.6,2-2.6,3.6-2.2l74.2,18.9
		c1.6,0.4,2.6,2,2.2,3.6l-23.4,91.8C539.9,229.9,538.2,230.8,536.6,230.4z"/>
</g>
<path class="st2" d="M559.3,152.8l-82.2-21l4.4-17c0.4-1.6,2-2.6,3.6-2.2l76.4,19.5c1.6,0.4,2.6,2,2.2,3.6L559.3,152.8z"/>
<g>
	<path class="st3" d="M534.3,167.5c0,0-2.9,6.7-3.3,8.1s-0.3,5.8-3,5.8s-4.3-1.5-4.3-1.5s3.6-13.7,6.2-13.2
		C532.5,167.3,534.3,167.5,534.3,167.5z"/>
	<path class="st4" d="M499.7,183l-3.6,14.4l2.2,2.2c3,3,7.3,4.3,11.5,3.4l3.9-0.9l7.7-24.4l-6.7-6.1L499.7,183z"/>
	<path class="st5" d="M500,180.9l-3,12.9c0,0,22.1-2.8,22-8.5c-0.2-7.4-5.7-16.5-5.7-16.5L500,180.9z"/>
	<path class="st4" d="M533.8,161.3c-0.7-0.3-2.1-0.1-2.1-0.1l0.8-3.2c2-8.5-3.2-17.1-11.7-19.2l-2.1-0.5c-8.5-2-17.1,3.2-19.2,11.7
		l-0.5,5c0,0-1.9-0.4-2.5-0.3c-2.1,0.5-3.2,3.6-2.4,7c0.3,1.4,1,2.7,1.8,3.6l1.6,1.4c-1,10,1.4,16.8,9.9,18.8l2.1,0.5
		c8.5,2,16.4-2.4,19.2-11.7l0.4-1.7c2,0.6,4.5-1.1,5.9-4.1C536.2,165.5,535.8,162.2,533.8,161.3z"/>
	<path class="st5" d="M513.7,157.1l-7.7,7c-0.8,0.7-0.7,2,0.3,2.6l3.6,1.4c1.1,0.4,2.2-0.3,2.4-1.4L513.7,157.1z"/>
	<path class="st6" d="M505.9,172.9l-2.1-0.7c-0.4-0.1-0.7,0.2-0.6,0.6c0.6,1.5,2.2,4.5,5.3,5.5l1.9,0.3c3.4,0.2,4.9-2.5,5.4-3.8
		c0.1-0.3-0.1-0.6-0.4-0.6l-2.5-0.1C510.6,174.1,508.2,173.7,505.9,172.9z"/>
	<ellipse transform="matrix(0.178 -0.984 0.984 0.178 257.3737 626.8961)" class="st7" cx="503.9" cy="159.4" rx="1.6" ry="1.6"/>
	<path class="st5" d="M534.4,164c-0.1,0.1-0.3,0.2-0.4,0.1c-1.4-0.4-2.8,2-2.8,2c-0.1,0.2-0.4,0.3-0.6,0.2c-0.2-0.1-0.3-0.4-0.2-0.6
		c0.1-0.1,1.7-3,3.7-2.4c0.2,0.1,0.3,0.3,0.3,0.5C534.4,163.9,534.4,163.9,534.4,164z"/>
	<path class="st5" d="M522.8,159.2c-0.2,0-0.4-0.2-0.4-0.4c-0.1-1-0.5-1.8-1.2-2.3c-1.4-1-3.5-0.6-3.5-0.6c-0.3,0-0.5-0.1-0.5-0.4
		c0-0.3,0.1-0.5,0.4-0.5c0.1,0,2.5-0.5,4.2,0.8c0.9,0.7,1.4,1.6,1.6,2.9c0,0.3-0.2,0.5-0.4,0.5C522.8,159.2,522.8,159.2,522.8,159.2
		z"/>
	<ellipse transform="matrix(0.178 -0.984 0.984 0.178 268.0949 645.7505)" class="st7" cx="520.6" cy="162.4" rx="1.6" ry="1.6"/>
	<path class="st5" d="M503,155.6c0,0-0.1,0-0.1,0c-0.2-0.1-0.3-0.4-0.2-0.6c0.6-1.2,1.4-1.9,2.5-2.2c2-0.6,4.2,0.7,4.2,0.7
		c0.2,0.1,0.3,0.4,0.2,0.6c-0.1,0.2-0.4,0.3-0.6,0.2c0,0-1.9-1.1-3.5-0.6c-0.8,0.2-1.5,0.8-1.9,1.7
		C503.4,155.6,503.2,155.6,503,155.6z"/>
	<path class="st5" d="M499,155.2l-1.6,11.7c0,0-4.4-1.9-3.6-8.2C494.6,152.4,499,155.2,499,155.2z"/>
	<path class="st3" d="M496.4,154.9c0,0,0,5.4,2,6c2,0.6,0.5-4.9,0.7-7.8s2-9,7.1-6.9s3.6,6.6,14.4,6.6c10.8,0,10.2,2,9.7,4.6
		c-0.5,2.6-3,3.4-0.9,5.1s2.5-1.3,4.3-1.2c0.7,0.1,1.1,1.6,2,0.6c1.2-1.5,2.8-6,3.7-8.6c1.4-4.3,0-14.3-8.2-17.4
		c-8.2-3.1-10.1-1.1-18.2-3.3C504.9,130.5,493.2,138.4,496.4,154.9z"/>
	
		<linearGradient id="SVGID_1_" gradientUnits="userSpaceOnUse" x1="492.4315" y1="148.1562" x2="536.4142" y2="148.1562" gradientTransform="matrix(0.984 0.178 -0.178 0.984 38.1601 -88.6502)">
		<stop  offset="0" style="stop-color:#0F3D68"/>
		<stop  offset="1" style="stop-color:#27597D"/>
	</linearGradient>
	<path class="st8" d="M496.4,154.9c0,0,0,5.4,2,6c2,0.6,0.5-4.9,0.7-7.8s2-9,7.1-6.9s3.6,6.6,14.4,6.6c10.8,0,10.2,2,9.7,4.6
		c-0.5,2.6-3,3.4-0.9,5.1s2.5-1.3,4.3-1.2c0.7,0.1,1.1,1.6,2,0.6c1.2-1.5,2.8-6,3.7-8.6c1.4-4.3,0-14.3-8.2-17.4
		c-8.2-3.1-10.1-1.1-18.2-3.3C504.9,130.5,493.2,138.4,496.4,154.9z"/>
</g>
<linearGradient id="SVGID_2_" gradientUnits="userSpaceOnUse" x1="457.6548" y1="208.6958" x2="543.4028" y2="208.6958">
	<stop  offset="0" style="stop-color:#12AF96"/>
	<stop  offset="1" style="stop-color:#006B76"/>
</linearGradient>
<path class="st9" d="M498,189.5c0,0,0,3,8.1,4.4s10.3-0.2,10.3-0.2l1.1-3.6l20.6,13.6c2.3,1.5,3.8,3.9,4.3,6.6l1,6.1l-2.8,13
	c-0.4,1.6-2,2.6-3.6,2.2l-77.1-19.9c-1.6-0.4-2.5-2.1-2.1-3.7l5.6-22.3l24,0.9h11.3L498,189.5z"/>
<g>
	<g>
		
			<ellipse transform="matrix(0.2571 -0.9664 0.9664 0.2571 271.9718 627.2383)" class="st10" cx="544" cy="136.7" rx="1.5" ry="1.6"/>
		
			<ellipse transform="matrix(0.2571 -0.9664 0.9664 0.2571 274.7144 633.8102)" class="st10" cx="549.6" cy="138.2" rx="1.5" ry="1.6"/>
		
			<ellipse transform="matrix(0.2571 -0.9664 0.9664 0.2571 277.3985 640.2424)" class="st10" cx="555.1" cy="139.7" rx="1.5" ry="1.6"/>
	</g>
</g>
<g>
	<g>
		<rect x="100.2" y="51" transform="matrix(0.944 -0.3299 0.3299 0.944 -29.499 54.577)" class="st1" width="91.6" height="126.4"/>
	</g>
	<g>
		
			<rect x="83.3" y="53.9" transform="matrix(0.944 -0.3299 0.3299 0.944 -14.4326 46.2616)" class="st2" width="91.6" height="23.6"/>
		<g>
			<path class="st11" d="M93.3,74.8c-0.1-0.4,0.1-0.8,0.5-0.9l0.1-0.1c0.3-0.1,0.6,0,0.8,0.1l3.7,2.9l1.1-4.6
				c0.1-0.3,0.2-0.5,0.5-0.6l0.1-0.1c0.4-0.1,0.8,0.1,0.9,0.5l2.3,6.6c0.1,0.4-0.1,0.8-0.5,0.9c-0.4,0.1-0.8-0.1-0.9-0.4l-1.6-4.7
				L99.4,78c-0.1,0.3-0.2,0.5-0.5,0.6c-0.2,0.1-0.5,0-0.7-0.2l-2.9-2.2l1.6,4.7c0.1,0.4-0.1,0.8-0.4,0.9c-0.4,0.1-0.8-0.1-0.9-0.4
				L93.3,74.8z"/>
			<path class="st11" d="M104.4,77.1L104.4,77.1c-0.5-1.3,0.3-2.3,1.8-2.8c0.7-0.2,1.2-0.3,1.7-0.3l-0.1-0.1c-0.3-0.8-1-1.1-1.9-0.8
				c-0.5,0.2-0.9,0.4-1.2,0.7c-0.1,0-0.1,0.1-0.2,0.1c-0.3,0.1-0.7,0-0.8-0.4c-0.1-0.2,0-0.5,0.2-0.7c0.5-0.4,1-0.7,1.8-1
				c0.9-0.3,1.6-0.3,2.2,0c0.6,0.3,1,0.8,1.3,1.6l1,2.9c0.1,0.4-0.1,0.8-0.4,0.9c-0.4,0.1-0.8,0-0.9-0.3l-0.1-0.2
				c-0.2,0.6-0.7,1.2-1.6,1.5C106.1,78.6,104.8,78.3,104.4,77.1z M108.3,75.3l-0.1-0.4c-0.4,0-0.9,0-1.4,0.2c-0.9,0.3-1.3,0.9-1,1.5
				l0,0c0.2,0.6,0.8,0.7,1.5,0.5C108.1,76.8,108.6,76,108.3,75.3z"/>
			<path class="st11" d="M110.1,71.1c-0.1-0.4,0.1-0.8,0.4-0.9c0.4-0.1,0.8,0.1,0.9,0.4l0.1,0.3c0.2-0.7,0.6-1.4,1.5-1.7
				c1.3-0.5,2.4,0.2,2.9,1.5l1.1,3.2c0.1,0.4-0.1,0.8-0.4,0.9c-0.4,0.1-0.8-0.1-0.9-0.4l-1-2.7c-0.3-0.9-1-1.3-1.8-1
				c-0.8,0.3-1.1,1-0.8,1.9l1,2.7c0.1,0.4-0.1,0.8-0.4,0.9c-0.4,0.1-0.8-0.1-0.9-0.4L110.1,71.1z"/>
			<path class="st11" d="M124,71.5c0.1,0.4-0.1,0.8-0.4,0.9c-0.4,0.1-0.8-0.1-0.9-0.4l-0.1-0.3c-0.2,0.7-0.6,1.4-1.5,1.7
				c-1.3,0.5-2.4-0.2-2.9-1.5l-1.1-3.1c-0.1-0.4,0.1-0.8,0.4-0.9c0.4-0.1,0.8,0.1,0.9,0.4l1,2.7c0.3,0.9,1,1.3,1.8,1
				c0.8-0.3,1.1-1,0.8-1.9l-1-2.7c-0.1-0.4,0.1-0.8,0.4-0.9c0.4-0.1,0.8,0.1,0.9,0.4L124,71.5z"/>
			<path class="st11" d="M124.9,70L124.9,70c-0.5-1.3,0.3-2.3,1.8-2.8c0.7-0.2,1.2-0.3,1.7-0.3l-0.1-0.1c-0.3-0.8-1-1.1-1.9-0.8
				c-0.5,0.2-0.9,0.4-1.2,0.7c-0.1,0-0.1,0.1-0.2,0.1c-0.3,0.1-0.7,0-0.8-0.4c-0.1-0.2,0-0.5,0.2-0.7c0.5-0.4,1-0.7,1.8-1
				c0.9-0.3,1.6-0.3,2.2,0c0.6,0.3,1,0.8,1.3,1.6l1,2.9c0.1,0.4-0.1,0.8-0.4,0.9c-0.4,0.1-0.8,0-0.9-0.3l-0.1-0.2
				c-0.2,0.6-0.7,1.2-1.6,1.5C126.5,71.5,125.3,71.2,124.9,70z M128.8,68.1l-0.1-0.4c-0.4,0-0.9,0-1.4,0.2c-0.9,0.3-1.3,0.9-1,1.5
				l0,0c0.2,0.6,0.8,0.7,1.5,0.5C128.6,69.6,129.1,68.9,128.8,68.1z"/>
			<path class="st11" d="M129.9,61.7c-0.1-0.4,0.1-0.8,0.4-0.9s0.8,0.1,0.9,0.4l2.4,6.9c0.1,0.4-0.1,0.8-0.4,0.9
				c-0.4,0.1-0.8-0.1-0.9-0.4L129.9,61.7z"/>
		</g>
		
			<ellipse transform="matrix(0.944 -0.3299 0.3299 0.944 -27.7707 43.7818)" class="st11" cx="115.1" cy="103.7" rx="9.8" ry="9.8"/>
		
			<ellipse transform="matrix(0.944 -0.3299 0.3299 0.944 -36.4391 48.5661)" class="st11" cx="124.9" cy="131.6" rx="9.8" ry="9.8"/>
		
			<ellipse transform="matrix(0.944 -0.3299 0.3299 0.944 -44.8978 53.2346)" class="st11" cx="134.4" cy="158.9" rx="9.8" ry="9.8"/>
		<linearGradient id="SVGID_3_" gradientUnits="userSpaceOnUse" x1="105.2803" y1="103.7108" x2="124.9351" y2="103.7108">
			<stop  offset="0" style="stop-color:#12AF96"/>
			<stop  offset="1" style="stop-color:#006B76"/>
		</linearGradient>
		<circle class="st12" cx="115.1" cy="103.7" r="9.8"/>
		<linearGradient id="SVGID_4_" gradientUnits="userSpaceOnUse" x1="115.0417" y1="131.6424" x2="134.6966" y2="131.6424">
			<stop  offset="0" style="stop-color:#12AF96"/>
			<stop  offset="1" style="stop-color:#006B76"/>
		</linearGradient>
		<circle class="st13" cx="124.9" cy="131.6" r="9.8"/>
		<linearGradient id="SVGID_5_" gradientUnits="userSpaceOnUse" x1="124.5671" y1="158.8982" x2="144.2219" y2="158.8982">
			<stop  offset="0" style="stop-color:#12AF96"/>
			<stop  offset="1" style="stop-color:#006B76"/>
		</linearGradient>
		<circle class="st14" cx="134.4" cy="158.9" r="9.8"/>
		<g>
			<path class="st1" d="M132.9,162.3c-0.1-0.1-0.3-0.2-0.4-0.4c-0.1-0.3,0.1-0.7,0.4-0.8c0.2-0.1,0.3,0,0.5,0
				c0.6,0.3,1.2,0.3,1.9,0.1c0.7-0.2,1.1-0.9,0.9-1.5l0,0c-0.2-0.7-1-0.9-2-0.5l-0.3,0.1c-0.3,0.1-0.6-0.1-0.7-0.4
				c-0.1-0.2,0-0.3,0.1-0.6l1-2.4l-2.6,0.9c-0.3,0.1-0.6-0.1-0.7-0.3c-0.1-0.3,0.1-0.6,0.4-0.7l3.7-1.3c0.4-0.1,0.7,0,0.8,0.3
				c0.1,0.3,0,0.5-0.1,0.8l-1.1,2.3c1.1-0.2,2.3-0.1,2.8,1.3l0,0c0.5,1.3-0.2,2.6-1.7,3.1C134.6,162.7,133.7,162.7,132.9,162.3z"/>
		</g>
		<polyline class="st15" points="81.9,69.6 168.4,39.4 210.2,158.8 123.7,189 		"/>
		<g>
			<path class="st2" d="M161.1,88.6l-29.3,10.2c-1,0.3-2-0.2-2.3-1.1c-0.3-1,0.2-2,1.1-2.3l29.3-10.2c1-0.3,2,0.2,2.3,1.1
				C162.5,87.2,162,88.2,161.1,88.6z"/>
			<path class="st2" d="M169.5,112.5l-29.3,10.2c-1,0.3-2-0.2-2.3-1.1s0.2-2,1.1-2.3l29.3-10.2c1-0.3,2,0.2,2.3,1.1
				S170.4,112.2,169.5,112.5z"/>
			<path class="st2" d="M172,119.7l-29.3,10.2c-1,0.3-2-0.2-2.3-1.1s0.2-2,1.1-2.3l29.3-10.2c1-0.3,2,0.2,2.3,1.1
				S172.9,119.3,172,119.7z"/>
			<path class="st2" d="M179.4,141.1l-29.3,10.2c-1,0.3-2-0.2-2.3-1.1c-0.3-1,0.2-2,1.1-2.3l29.3-10.2c1-0.3,2,0.2,2.3,1.1
				C180.9,139.7,180.4,140.7,179.4,141.1z"/>
			<path class="st2" d="M181.9,148.2l-29.3,10.2c-1,0.3-2-0.2-2.3-1.1c-0.3-1,0.2-2,1.1-2.3l29.3-10.2c1-0.3,2,0.2,2.3,1.1
				C183.4,146.9,182.9,147.9,181.9,148.2z"/>
			<path class="st2" d="M151.3,135.8l-5.9,2.1c-1,0.3-2-0.2-2.3-1.1c-0.3-1,0.2-2,1.1-2.3l5.9-2.1c1-0.3,2,0.2,2.3,1.1
				S152.3,135.4,151.3,135.8z"/>
			<path class="st2" d="M140.2,104l-5.9,2.1c-1,0.3-2-0.2-2.3-1.1s0.2-2,1.1-2.3l5.9-2.1c1-0.3,2,0.2,2.3,1.1
				C141.7,102.6,141.2,103.7,140.2,104z"/>
		</g>
		<g>
			<path class="st1" d="M114,101.2l-0.7,0.5c-0.1,0-0.2,0.1-0.2,0.1c-0.3,0.1-0.6-0.1-0.7-0.3c-0.1-0.3,0-0.5,0.2-0.7l1-0.7
				c0.2-0.2,0.4-0.3,0.6-0.3l0,0c0.4-0.1,0.7,0.1,0.8,0.4l2.1,6c0.1,0.3-0.1,0.7-0.4,0.8c-0.3,0.1-0.7-0.1-0.8-0.4L114,101.2z"/>
		</g>
		<g>
			<path class="st1" d="M123.2,134.6l1.5-2.6c0.7-1.2,0.9-1.8,0.7-2.4c-0.2-0.7-0.9-0.9-1.5-0.7c-0.6,0.2-0.9,0.6-1.1,1.3
				c-0.1,0.1-0.2,0.3-0.4,0.3c-0.3,0.1-0.7-0.1-0.8-0.4c0-0.1,0-0.3,0-0.4c0.3-0.9,0.8-1.6,2-2c1.4-0.5,2.7,0,3.1,1.3l0,0
				c0.4,1.1,0,1.9-0.9,3.4l-1,1.7l2.9-1c0.3-0.1,0.6,0.1,0.7,0.4c0.1,0.3-0.1,0.6-0.4,0.7l-4,1.4c-0.4,0.1-0.8,0-0.9-0.4
				C123,135.1,123.1,134.9,123.2,134.6z"/>
		</g>
	</g>
</g>
<linearGradient id="SVGID_6_" gradientUnits="userSpaceOnUse" x1="471.42" y1="42.6207" x2="421.42" y2="129.6207">
	<stop  offset="0" style="stop-color:#3DA5D5"/>
	<stop  offset="1" style="stop-color:#1B75BB"/>
</linearGradient>
<polygon class="st16" points="482,158.6 390.6,152.6 398.3,35.4 489.7,41.4 "/>
<linearGradient id="SVGID_7_" gradientUnits="userSpaceOnUse" x1="432.2888" y1="73.2198" x2="403.6222" y2="-13.4468">
	<stop  offset="0" style="stop-color:#FFFFFF;stop-opacity:0"/>
	<stop  offset="1" style="stop-color:#B1E0F4"/>
</linearGradient>
<polygon class="st17" points="482,158.6 390.6,152.6 398.3,35.4 489.7,41.4 "/>
<g>
	<g>
		<path class="st18" d="M469.3,132.1c-0.3-0.4-0.7-0.7-1.1-1c-0.3-0.2-0.7-0.3-1.2-0.5l0,0l0,0l0.2-2.9l0,0l0,0
			c0.1,0,0.2,0.1,0.2,0.1c0.4,0.2,0.7,0.4,1,0.8c0.1,0.2,0.3,0.3,0.6,0.3c0.2,0,0.4,0,0.5-0.1c0.2-0.2,0.3-0.4,0.4-0.6
			c0-0.2-0.1-0.4-0.2-0.6c-0.4-0.5-0.8-0.9-1.4-1.1c-0.3-0.1-0.6-0.2-0.9-0.3v0h0l0.1-0.8c0-0.5-0.3-0.9-0.8-0.9s-0.9,0.3-0.9,0.8
			l-0.1,0.8h0l0,0c-0.4,0-0.7,0.1-1.1,0.2c-0.6,0.2-1,0.5-1.4,0.9c-0.4,0.4-0.6,0.9-0.6,1.5c0,0.6,0.1,1.2,0.4,1.6
			c0.3,0.4,0.7,0.8,1.2,1c0.3,0.2,0.7,0.3,1.1,0.5l0,0c0.1,0,0.2,0.1,0.2,0.1c-0.1,0-0.2-0.1-0.2-0.1l-0.2,3
			c-0.2-0.1-0.4-0.1-0.5-0.2c-0.4-0.2-0.8-0.6-1.2-1.1c-0.2-0.2-0.4-0.3-0.6-0.3c-0.2,0-0.3,0-0.5,0.1c-0.3,0.2-0.4,0.4-0.5,0.6
			c0,0.2,0,0.3,0.1,0.5c0.4,0.6,1,1.1,1.7,1.4c0.4,0.2,0.9,0.3,1.3,0.4v0c0.3,0.1,0.6,0.1,0.9,0.1c0.3,0,0.6,0,0.9,0l0,0
			c0.3,0,0.7-0.1,1-0.2c0.6-0.2,1.1-0.5,1.4-0.9c0.4-0.4,0.6-0.9,0.6-1.5C469.7,133,469.6,132.5,469.3,132.1z M466.9,132.3
			c0,0-0.1,0-0.1-0.1C466.8,132.3,466.9,132.3,466.9,132.3L466.9,132.3z M466.5,130.4c-0.1,0-0.3-0.1-0.4-0.1
			C466.3,130.3,466.4,130.4,466.5,130.4c0.1,0,0.1,0,0.2,0.1C466.6,130.5,466.6,130.4,466.5,130.4z M466.1,127.5c-0.3,0-0.5,0-0.7,0
			v0C465.7,127.5,465.9,127.5,466.1,127.5c0.1,0,0.3,0,0.4,0.1C466.4,127.5,466.3,127.5,466.1,127.5z M466.3,126
			c0.3,0,0.6,0.1,0.8,0.1C466.9,126,466.6,126,466.3,126c-0.2,0-0.5,0-0.7,0C465.8,125.9,466.1,125.9,466.3,126z M464.3,128.6
			c0-0.5,0.2-0.8,0.6-1c0.2-0.1,0.4-0.1,0.6-0.2l-0.2,2.4c-0.2-0.1-0.3-0.2-0.5-0.3C464.4,129.4,464.3,129.1,464.3,128.6z
			 M465.8,131.9C465.9,131.9,465.9,131.9,465.8,131.9C465.9,131.9,465.9,131.9,465.8,131.9c-0.1,0-0.1,0-0.2-0.1
			C465.7,131.9,465.8,131.9,465.8,131.9z M465.1,134.7c0.3,0.1,0.6,0.1,0.9,0.2c0.1,0,0.2,0,0.3,0c-0.1,0-0.2,0-0.3,0
			C465.7,134.9,465.4,134.8,465.1,134.7z M467.4,134.6c-0.2,0.1-0.4,0.2-0.6,0.2l0,0l0.2-2.5c0.2,0.1,0.4,0.2,0.6,0.3
			c0.4,0.3,0.5,0.6,0.5,1C468,134.1,467.7,134.5,467.4,134.6z"/>
		<path class="st18" d="M464.9,136.2l-0.1,0.9c0,0.5,0.3,0.9,0.8,0.9c0.5,0,0.9-0.3,0.9-0.8l0.1-0.9c-0.3,0-0.6,0-0.9,0
			C465.5,136.3,465.2,136.3,464.9,136.2z"/>
	</g>
</g>
<path class="st4" d="M477.6,216.2l2.8-11.9l7.6-6.8l4.9-9l-1.7-0.5c-0.7-0.2-1.4-0.2-2.1,0.2l-5.8,2.7c-0.5,0.2-1,0.3-1.5,0.3h-0.8
	c-1.7,0-3.2-1.3-3.4-3l-2.3-15.4c-0.2-1.6-1.7-2.7-3.3-2.5l-1,0.1v14.4c0,0.2-0.3,0.3-0.4,0.1l-4-10.2c-0.5-1.3-1.9-2.1-3.4-1.8
	l-1.1,0.2l3.5,12.4c0.1,0.2-0.3,0.4-0.4,0.2l-4.5-8.5c-0.8-1.4-2.6-1.8-3.9-0.9l0,0l4.2,12.7c0.1,0.2-0.2,0.4-0.3,0.3l-3.2-2.1
	c-1.3-0.8-2.9-0.2-3.4,1.2l0,0l8.4,7.6l5.6,9.2l-2.4,7.9L477.6,216.2z"/>
<path class="st19" d="M481.9,191.1c0,0-5.6,0.8-5.9,4.9"/>
<path class="st19" d="M467.2,196c0,0,0-4.4,8-6.9"/>
<g>
	<circle class="st18" cx="499" cy="221.5" r="15"/>
	<g>
		<g>
			<path class="st6" d="M503.1,224.1c-0.5-0.5-1.2-0.5-1.7,0c-0.4,0.4-0.8,0.8-1.2,1.2c-0.1,0.1-0.2,0.1-0.3,0.1
				c-0.3-0.1-0.5-0.3-0.8-0.4c-1.1-0.7-2.1-1.6-2.9-2.7c-0.4-0.5-0.8-1.1-1.1-1.7c-0.1-0.1,0-0.2,0.1-0.3c0.4-0.4,0.8-0.8,1.2-1.2
				c0.5-0.5,0.5-1.2,0-1.7c-0.3-0.3-0.6-0.6-0.9-0.9c-0.3-0.3-0.6-0.6-0.9-0.9c-0.5-0.5-1.2-0.5-1.7,0c-0.4,0.4-0.8,0.8-1.2,1.2
				c-0.4,0.4-0.6,0.8-0.6,1.3c-0.1,0.8,0.1,1.6,0.4,2.3c0.6,1.6,1.5,2.9,2.5,4.2c1.4,1.7,3.2,3.1,5.2,4.1c0.9,0.4,1.9,0.8,2.9,0.8
				c0.7,0,1.3-0.1,1.8-0.7c0.3-0.4,0.7-0.7,1.1-1.1c0.5-0.5,0.5-1.2,0-1.7C504.4,225.4,503.8,224.8,503.1,224.1L503.1,224.1z
				 M503.1,224.1"/>
		</g>
		<path class="st6" d="M503.1,221.4c0.4-0.1,0.6-0.4,0.5-0.8c-0.3-0.9-0.7-1.6-1.4-2.3c-0.7-0.7-1.5-1.2-2.4-1.4
			c-0.4-0.1-0.7,0.1-0.8,0.5l0,0c0,0.3,0.2,0.6,0.4,0.7c0.7,0.2,1.3,0.6,1.9,1.1c0.5,0.5,0.8,1.1,1,1.7
			C502.5,221.3,502.8,221.5,503.1,221.4L503.1,221.4z"/>
		<path class="st6" d="M504.4,216.2c-1.2-1.2-2.8-2.1-4.5-2.4c-0.3-0.1-0.7,0.2-0.7,0.5l0,0c0,0.3,0.2,0.6,0.5,0.7
			c1.5,0.3,2.8,1,3.9,2.1c1,1,1.7,2.3,2.1,3.6c0.1,0.3,0.4,0.5,0.7,0.5l0,0c0.4-0.1,0.6-0.4,0.5-0.8
			C506.4,218.9,505.6,217.4,504.4,216.2L504.4,216.2z M504.4,216.2"/>
	</g>
</g>
<ellipse transform="matrix(6.564172e-002 -0.9978 0.9978 6.564172e-002 304.2909 587.4534)" class="st20" cx="465.8" cy="131.2" rx="11.3" ry="11.3"/>
<path class="st21" d="M502.6,198.6c0,0,10.7,4.6,18.8-2.6"/>
<g>
	<path class="st22" d="M462.1,88.1l-31-2c-1-0.1-1.8-0.9-1.7-1.9c0.1-1,0.9-1.8,1.9-1.7l31,2c1,0.1,1.8,0.9,1.7,1.9
		C464,87.4,463.1,88.2,462.1,88.1z"/>
	<path class="st22" d="M461.6,96.2l-31-2c-1-0.1-1.8-0.9-1.7-1.9c0.1-1,0.9-1.8,1.9-1.7l31,2c1,0.1,1.8,0.9,1.7,1.9
		C463.5,95.5,462.6,96.2,461.6,96.2z"/>
	<path class="st22" d="M461,105.7l-31-2c-1-0.1-1.8-0.9-1.7-1.9s0.9-1.8,1.9-1.7l31,2c1,0.1,1.8,0.9,1.7,1.9
		C462.8,105,462,105.8,461,105.7z"/>
	<path class="st22" d="M477.5,89.1l-6.3-0.4c-1-0.1-1.8-0.9-1.7-1.9s0.9-1.8,1.9-1.7l6.3,0.4c1,0.1,1.8,0.9,1.7,1.9
		C479.4,88.4,478.5,89.2,477.5,89.1z"/>
	<path class="st22" d="M477,97.2l-6.3-0.4c-1-0.1-1.8-0.9-1.7-1.9c0.1-1,0.9-1.8,1.9-1.7l6.3,0.4c1,0.1,1.8,0.9,1.7,1.9
		S478,97.2,477,97.2z"/>
	<path class="st22" d="M476.4,106.7l-6.3-0.4c-1-0.1-1.8-0.9-1.7-1.9c0.1-1,0.9-1.8,1.9-1.7l6.3,0.4c1,0.1,1.8,0.9,1.7,1.9
		S477.4,106.8,476.4,106.7z"/>
</g>
<g>
	<path class="st22" d="M403,50.5l3.5-6.7c0.2-0.4,0.5-0.6,0.9-0.5l0.1,0c0.4,0,0.7,0.3,0.8,0.6l2.6,7.1c0.1,0.1,0.1,0.2,0.1,0.3
		c0,0.4-0.3,0.7-0.7,0.7c-0.3,0-0.6-0.2-0.7-0.6l-0.6-1.6l-4-0.3l-0.8,1.6c-0.1,0.3-0.4,0.4-0.7,0.4c-0.4,0-0.7-0.3-0.6-0.7
		C402.9,50.7,402.9,50.6,403,50.5z M408.5,48.5l-1.2-3.4l-1.7,3.3L408.5,48.5z"/>
	<path class="st22" d="M411.7,44.6c0-0.1,0-0.2,0-0.3c0-0.4,0.4-0.7,0.8-0.7c0.4,0,0.6,0.3,0.7,0.6l1.5,5.8l2.2-5.6
		c0.1-0.3,0.4-0.6,0.8-0.5l0.1,0c0.4,0,0.6,0.3,0.7,0.6l1.5,5.8l2.3-5.6c0.1-0.3,0.4-0.5,0.7-0.5c0.4,0,0.7,0.4,0.7,0.7
		c0,0.1,0,0.2-0.1,0.3l-2.9,6.7c-0.2,0.4-0.4,0.6-0.8,0.6l-0.1,0c-0.4,0-0.6-0.3-0.7-0.7l-1.5-5.5l-2.2,5.3
		c-0.2,0.4-0.4,0.6-0.8,0.6l-0.1,0c-0.4,0-0.6-0.3-0.7-0.7L411.7,44.6z"/>
	<path class="st22" d="M424.4,51.9c-0.2-0.1-0.3-0.3-0.2-0.6c0-0.4,0.4-0.7,0.7-0.6c0.2,0,0.3,0.1,0.4,0.2c0.7,0.6,1.4,0.9,2.3,1
		c0.9,0.1,1.5-0.3,1.5-0.9l0,0c0-0.6-0.3-0.9-1.8-1.4c-1.7-0.5-2.7-1.1-2.6-2.7l0,0c0.1-1.4,1.3-2.3,3-2.2c1,0.1,1.9,0.4,2.6,0.9
		c0.2,0.1,0.3,0.3,0.3,0.6c0,0.4-0.4,0.7-0.7,0.6c-0.1,0-0.3-0.1-0.4-0.1c-0.6-0.5-1.2-0.7-1.9-0.8c-0.9-0.1-1.4,0.3-1.4,0.9l0,0
		c0,0.6,0.3,0.9,1.9,1.4c1.7,0.5,2.6,1.2,2.5,2.6l0,0c-0.1,1.6-1.4,2.4-3.1,2.3C426.3,53.1,425.3,52.7,424.4,51.9z"/>
	<path class="st22" d="M436.2,46.1c0-0.4,0.4-0.7,0.8-0.7l3,0.2c0.9,0.1,1.7,0.4,2.1,0.9c0.3,0.4,0.5,0.9,0.5,1.4l0,0
		c-0.1,1-0.7,1.5-1.3,1.8c1,0.4,1.6,1,1.5,2.1l0,0c-0.1,1.5-1.4,2.2-3.2,2.1l-3.1-0.2c-0.4,0-0.7-0.4-0.7-0.8L436.2,46.1z
		 M439.6,52.6c1,0.1,1.6-0.3,1.7-1l0,0c0-0.7-0.5-1.2-1.6-1.2l-2.3-0.2l-0.2,2.3L439.6,52.6z M439.4,49c0.9,0.1,1.6-0.3,1.6-1l0,0
		c0-0.7-0.5-1.1-1.4-1.2l-2.1-0.1l-0.1,2.2L439.4,49z"/>
	<path class="st22" d="M444.8,46.5c0-0.4,0.4-0.7,0.8-0.7c0.4,0,0.7,0.4,0.7,0.8l-0.5,7c0,0.4-0.4,0.7-0.8,0.7
		c-0.4,0-0.7-0.4-0.7-0.8L444.8,46.5z"/>
	<path class="st22" d="M448.5,46.8c0-0.4,0.4-0.7,0.8-0.7c0.4,0,0.7,0.4,0.7,0.8l-0.4,6.3l3.8,0.2c0.4,0,0.6,0.3,0.6,0.7
		s-0.3,0.6-0.7,0.6l-4.5-0.3c-0.4,0-0.7-0.4-0.7-0.8L448.5,46.8z"/>
	<path class="st22" d="M455.8,47.3c0-0.4,0.4-0.7,0.8-0.7c0.4,0,0.7,0.4,0.7,0.8l-0.4,6.3l3.8,0.2c0.4,0,0.6,0.3,0.6,0.7
		s-0.3,0.6-0.7,0.6l-4.5-0.3c-0.4,0-0.7-0.4-0.7-0.8L455.8,47.3z"/>
</g>
<path class="st11" d="M448.4,233.8H164.4v-149c0-11,9-20,20-20h243.9c11,0,20,9,20,20V233.8z"/>
<linearGradient id="SVGID_8_" gradientUnits="userSpaceOnUse" x1="240.7191" y1="72.9195" x2="118.7191" y2="-81.0805">
	<stop  offset="0" style="stop-color:#FFFFFF;stop-opacity:0"/>
	<stop  offset="1" style="stop-color:#B1E0F4"/>
</linearGradient>
<path class="st23" d="M448.4,233.8H164.4v-149c0-11,9-20,20-20h243.9c11,0,20,9,20,20V233.8z"/>
<path class="st1" d="M172.3,226V84.7c0-6.6,5.4-12,12-12h244.2c6.6,0,12,5.4,12,12V226H172.3z"/>
<path class="st1" d="M172.3,226V84.7c0-6.6,5.4-12,12-12h244.2c6.6,0,12,5.4,12,12V226H172.3z"/>
<g>
	<g>
		<g>
			<g>
				<ellipse class="st22" cx="418.8" cy="108.9" rx="1.6" ry="1.5"/>
				<ellipse class="st22" cx="424.6" cy="108.9" rx="1.6" ry="1.5"/>
				<ellipse class="st22" cx="430.3" cy="108.9" rx="1.6" ry="1.5"/>
			</g>
		</g>
		<polygon class="st24" points="188,198.6 188,128.7 197.2,131 200.3,130.7 203,131.6 209,133 214.1,134.8 225.2,138.7 238.8,159.3 
			258.3,173.7 283,172.2 296.2,173.7 317.9,166.7 324.7,165.7 335.6,161.9 349.2,149.3 378.8,144.3 414.6,144.3 426.9,142.4 
			432,139.4 432,198.6 		"/>
		<linearGradient id="SVGID_9_" gradientUnits="userSpaceOnUse" x1="187.9843" y1="163.6446" x2="431.9862" y2="163.6446">
			<stop  offset="0" style="stop-color:#81D13B;stop-opacity:0.2"/>
			<stop  offset="1" style="stop-color:#005D45"/>
		</linearGradient>
		<polygon class="st25" points="188,198.6 188,128.7 197.2,131 200.3,130.7 203,131.6 209,133 214.1,134.8 225.2,138.7 238.8,159.3 
			258.3,173.7 283,172.2 296.2,173.7 317.9,166.7 324.7,165.7 335.6,161.9 349.2,149.3 378.8,144.3 414.6,144.3 426.9,142.4 
			432,139.4 432,198.6 		"/>
		<linearGradient id="SVGID_10_" gradientUnits="userSpaceOnUse" x1="187.9843" y1="174.9971" x2="431.9862" y2="174.9971">
			<stop  offset="0" style="stop-color:#063280"/>
			<stop  offset="1" style="stop-color:#1A66AD"/>
		</linearGradient>
		<polygon class="st26" points="188,200.3 188,149.7 197.2,152 200.3,151.8 203,152.6 209,154.1 214.1,155.9 225.2,159.8 232.6,171 
			251.4,181 279.3,181.5 288.4,182.5 311.8,180.6 335.4,170.1 342.2,167.8 347,165.9 353.3,165.8 376.7,157.7 409.4,154.5 
			432,152.8 432,200.3 		"/>
		<linearGradient id="SVGID_11_" gradientUnits="userSpaceOnUse" x1="187.9843" y1="186.8082" x2="431.9862" y2="186.8082">
			<stop  offset="0" style="stop-color:#27597D"/>
			<stop  offset="1" style="stop-color:#0F3D68"/>
		</linearGradient>
		<polygon class="st27" points="188,201.4 188,179.4 197.2,181.7 200.3,181.4 203,182.3 209,183.7 214.1,185.5 225.2,189.4 
			231.2,189.4 286.7,195.1 323.9,190.4 326.1,192.3 328.6,190.4 335.4,189.4 342.2,187.1 347,185.1 353.3,185.1 376.7,177.1 
			409.4,173.9 432,172.2 432,201.4 		"/>
		<g>
			<rect x="187.7" y="200.6" class="st28" width="244.4" height="0.3"/>
			<rect x="187.7" y="185.4" class="st28" width="244.4" height="0.3"/>
			<rect x="187.7" y="170" class="st28" width="244.4" height="0.3"/>
			<rect x="187.7" y="154.5" class="st28" width="244.4" height="0.3"/>
			<rect x="187.7" y="123.9" class="st28" width="244.4" height="0.3"/>
			<rect x="187.7" y="139.3" class="st28" width="244.4" height="0.3"/>
		</g>
	</g>
	<path class="st24" d="M227.2,212.4h-36.8c-1.3,0-2.4-1.1-2.4-2.4v0c0-1.3,1.1-2.4,2.4-2.4h36.8c1.3,0,2.4,1.1,2.4,2.4v0
		C229.6,211.3,228.5,212.4,227.2,212.4z"/>
	<linearGradient id="SVGID_12_" gradientUnits="userSpaceOnUse" x1="240.1843" y1="209.9992" x2="281.8017" y2="209.9992">
		<stop  offset="0" style="stop-color:#3DA5D5"/>
		<stop  offset="1" style="stop-color:#1B75BB"/>
	</linearGradient>
	<path class="st29" d="M279.4,212.4h-36.8c-1.3,0-2.4-1.1-2.4-2.4v0c0-1.3,1.1-2.4,2.4-2.4h36.8c1.3,0,2.4,1.1,2.4,2.4v0
		C281.8,211.3,280.7,212.4,279.4,212.4z"/>
	<path class="st10" d="M334,212.4h-36.8c-1.3,0-2.4-1.1-2.4-2.4v0c0-1.3,1.1-2.4,2.4-2.4H334c1.3,0,2.4,1.1,2.4,2.4v0
		C336.4,211.3,335.3,212.4,334,212.4z"/>
</g>
<path class="st30" d="M328.8,287.3l25.6-28.8h-19.1c-5.2,0-10.1,1.9-14,5.4l-22.5,20.3C308.6,286.2,318.9,287.1,328.8,287.3z"/>
<path class="st31" d="M188.7,254.1"/>
<circle class="st32" cx="216.5" cy="123.8" r="10.1"/>
<circle class="st32" cx="296.9" cy="138.5" r="10.1"/>
<circle class="st32" cx="289" cy="176.7" r="10.1"/>
<circle class="st32" cx="345.4" cy="180.5" r="10.1"/>
<circle class="st32" cx="378.4" cy="180.6" r="10.1"/>
<polyline class="st33" points="182.9,113.5 182.9,219.1 430.7,219.1 "/>
<g>
	<line class="st32" x1="333" y1="93.9" x2="317.3" y2="109.6"/>
	<line class="st32" x1="333" y1="109.6" x2="317.3" y2="93.9"/>
</g>
<g>
	<line class="st32" x1="376.2" y1="115.9" x2="360.5" y2="131.6"/>
	<line class="st32" x1="376.2" y1="131.6" x2="360.5" y2="115.9"/>
</g>
<g>
	<line class="st32" x1="224.4" y1="162.6" x2="208.7" y2="178.3"/>
	<line class="st32" x1="224.4" y1="178.3" x2="208.7" y2="162.6"/>
</g>
<g>
	<line class="st32" x1="286.8" y1="139.9" x2="239.3" y2="162.9"/>
	<line class="st32" x1="235.2" y1="154.5" x2="242.9" y2="170.4"/>
</g>
<path class="st32" d="M225.6,119.4c0,0,23.4-32.3,84.8-17.6"/>
<path class="st32" d="M388.3,180.9c8.8-0.4,27.1-3.8,33-25.4"/>
<g>
	<path class="st34" d="M192.6,82.4L192.6,82.4C192.6,82.4,192.6,82.4,192.6,82.4C192.6,82.4,192.6,82.4,192.6,82.4z"/>
	<path class="st34" d="M192.8,82.4c0,0,0.1,0,0.1,0C192.9,82.4,192.9,82.4,192.8,82.4z"/>
	<path class="st34" d="M193.3,82.5C193.3,82.5,193.4,82.5,193.3,82.5C193.4,82.5,193.3,82.5,193.3,82.5z"/>
	<path class="st34" d="M193.1,82.5C193.1,82.5,193.1,82.5,193.1,82.5C193.1,82.5,193.1,82.5,193.1,82.5z"/>
	<path class="st34" d="M192.3,82.4C192.3,82.4,192.3,82.4,192.3,82.4C192.3,82.4,192.3,82.4,192.3,82.4z"/>
	<path class="st34" d="M189.9,84.8C189.9,84.8,189.9,84.8,189.9,84.8C189.9,84.8,189.9,84.8,189.9,84.8z"/>
	<path class="st34" d="M189.9,85C189.9,85,189.9,85,189.9,85l0,14.5c0,1.5,1.2,2.6,2.6,2.6c1.5,0,2.6-1.2,2.6-2.6v-8.1l-4.5-4.5
		C190.2,86.4,189.9,85.7,189.9,85z"/>
	<path class="st35" d="M194.4,83.2c-0.3-0.3-0.7-0.5-1.1-0.6c1.1,0.3,1.8,1.3,1.8,2.5v6.4l2.4,2.4l3.7-3.7L194.4,83.2z"/>
	<path class="st36" d="M193.2,82.5c0.1,0,0.1,0,0.2,0C193.3,82.5,193.2,82.5,193.2,82.5z"/>
	
		<rect x="200.5" y="95.7" transform="matrix(0.7072 -0.7071 0.7071 0.7072 -8.1422 171.6727)" class="st36" width="5.3" height="0"/>
	<path class="st36" d="M189.9,85c0-0.1,0-0.2,0-0.2C189.9,84.9,189.9,84.9,189.9,85z"/>
	<path class="st36" d="M192.3,82.4c0.1,0,0.2,0,0.3,0C192.5,82.4,192.4,82.4,192.3,82.4z"/>
	<path class="st36" d="M192.6,82.4c0.1,0,0.1,0,0.2,0C192.7,82.4,192.7,82.4,192.6,82.4z"/>
	<path class="st36" d="M192.9,82.4c0.1,0,0.1,0,0.2,0C193,82.5,193,82.4,192.9,82.4z"/>
	<path class="st2" d="M193.4,82.5C193.4,82.5,193.3,82.5,193.4,82.5c-0.1,0-0.2,0-0.2-0.1c0,0-0.1,0-0.1,0c-0.1,0-0.1,0-0.2,0
		c0,0-0.1,0-0.1,0c-0.1,0-0.1,0-0.2,0c0,0,0,0,0,0c-0.1,0-0.2,0-0.3,0c0,0,0,0,0,0c-1.2,0.1-2.2,1.1-2.3,2.3c0,0,0,0,0,0
		c0,0.1,0,0.2,0,0.2c0,0.7,0.2,1.4,0.8,1.9l4.5,4.5V85C195.2,83.9,194.4,82.9,193.4,82.5z"/>
	<path class="st37" d="M210.1,82.4C210,82.4,210,82.4,210.1,82.4C210,82.4,210,82.4,210.1,82.4L210.1,82.4z"/>
	<path class="st37" d="M210.3,82.4C210.3,82.4,210.3,82.4,210.3,82.4C210.3,82.4,210.3,82.4,210.3,82.4z"/>
	<path class="st37" d="M212.7,84.7C212.7,84.8,212.7,84.8,212.7,84.7C212.7,84.8,212.7,84.8,212.7,84.7z"/>
	<path class="st37" d="M209.7,82.4c0,0,0.1,0,0.1,0C209.8,82.4,209.7,82.4,209.7,82.4z"/>
	<path class="st37" d="M209.2,82.5C209.3,82.5,209.3,82.5,209.2,82.5C209.3,82.5,209.3,82.5,209.2,82.5z"/>
	<path class="st37" d="M209.5,82.5C209.5,82.5,209.5,82.5,209.5,82.5C209.5,82.5,209.5,82.5,209.5,82.5z"/>
	<path class="st38" d="M212.7,85c0,0.7-0.2,1.4-0.8,1.9l-4.5,4.5v8.1c0,1.5,1.2,2.6,2.6,2.6s2.6-1.2,2.6-2.6L212.7,85
		C212.7,85,212.7,85,212.7,85z"/>
	<path class="st39" d="M209.2,82.5c-0.4,0.1-0.7,0.3-1.1,0.6l-6.9,6.9l3.7,3.7l2.4-2.4V85C207.4,83.9,208.2,82.9,209.2,82.5z"/>
	<path class="st39" d="M212.7,84.8c0,0.1,0,0.1,0,0.2C212.7,84.9,212.7,84.9,212.7,84.8z"/>
	<polygon class="st39" points="197.6,93.8 201.3,97.5 201.3,97.5 197.6,93.8 	"/>
	<path class="st39" d="M209.5,82.5c0.1,0,0.1,0,0.2,0C209.6,82.4,209.6,82.5,209.5,82.5z"/>
	<path class="st39" d="M209.8,82.4c0.1,0,0.1,0,0.2,0C209.9,82.4,209.9,82.4,209.8,82.4z"/>
	<path class="st39" d="M209.3,82.5c0.1,0,0.1,0,0.2,0C209.4,82.5,209.3,82.5,209.3,82.5z"/>
	<path class="st39" d="M210.1,82.4c0.1,0,0.2,0,0.3,0C210.2,82.4,210.1,82.4,210.1,82.4z"/>
	
		<rect x="198.7" y="91.2" transform="matrix(0.7071 -0.7071 0.7071 0.7071 -7.364 169.8188)" class="st40" width="5.3" height="5.3"/>
	<path class="st41" d="M212.7,85c0-0.1,0-0.2,0-0.2c0,0,0,0,0,0c-0.1-1.2-1.1-2.2-2.3-2.3c0,0,0,0,0,0c-0.1,0-0.2,0-0.3,0
		c0,0,0,0,0,0c-0.1,0-0.1,0-0.2,0c0,0-0.1,0-0.1,0c-0.1,0-0.1,0-0.2,0c0,0-0.1,0-0.1,0c-0.1,0-0.1,0-0.2,0c0,0,0,0,0,0
		c-1.1,0.3-1.8,1.3-1.8,2.5v6.4l4.5-4.5C212.5,86.4,212.7,85.7,212.7,85z"/>
</g>
<polyline class="st32" points="305.1,94.5 310.5,101.8 302.3,106.4 "/>
<polyline class="st32" points="413.8,159.9 421.7,155.3 425.4,164 "/>
<path class="st5" d="M364.3,284.5l28.8-32.4h-24.7c-5.9,0-11.6,2.5-15.6,7l-24.1,27.1C342.2,286.5,354.9,285.5,364.3,284.5z"/>
<path class="st4" d="M188.2,345.4l23.1-27.5h144.9c1.6,0,3.2-0.4,4.6-1.1l12.4-6.4c1.1-0.6,2.1-1.3,2.9-2.3l53.7-60.7h-25.9
	c-6.9,0-13.6,2.4-18.9,6.7l-34.4,28c-26.7,2.3-47.2,9.9-75.8-11.9l-67.8-16l-20.4,4c-7.1,1.4-13.3,5.4-17.5,11.3l-36.8,52.2
	L188.2,345.4z"/>
<polygon class="st2" points="104.5,345.1 91.9,378.4 191.9,378.4 "/>
<path class="st11" d="M191.9,379l-87.4-33.9l8.8-22.7c2-5.1,7.8-7.7,12.9-5.7l68.8,26.7c5.1,2,7.7,7.8,5.7,12.9L191.9,379z"/>
<linearGradient id="SVGID_13_" gradientUnits="userSpaceOnUse" x1="142.7932" y1="337.494" x2="94.7932" y2="294.1607">
	<stop  offset="0" style="stop-color:#FFFFFF;stop-opacity:0"/>
	<stop  offset="1" style="stop-color:#B1E0F4"/>
</linearGradient>
<path class="st42" d="M191.9,379l-87.4-33.9l8.8-22.7c2-5.1,7.8-7.7,12.9-5.7l68.8,26.7c5.1,2,7.7,7.8,5.7,12.9L191.9,379z"/>
<g>
	<path class="st6" d="M124.6,329.5c2.2,0,3.9,1.8,3.9,3.9c0,2.2-1.8,3.9-3.9,3.9s-3.9-1.8-3.9-3.9
		C120.7,331.3,122.5,329.5,124.6,329.5 M124.6,327.5c-3.3,0-5.9,2.7-5.9,5.9s2.7,5.9,5.9,5.9c3.3,0,5.9-2.7,5.9-5.9
		S127.9,327.5,124.6,327.5L124.6,327.5z"/>
</g>
<line class="st33" x1="48.7" y1="378.4" x2="318" y2="378.4"/>
<line class="st21" x1="89.7" y1="91.9" x2="150.2" y2="70.8"/>
<polyline class="st21" points="546.2,150.3 558.4,153.5 546.3,201.4 "/>
<g>
	<path class="st43" d="M87.1,195.5c-6.9,0-12.5-5.5-12.6-12.4c0-0.1,0-0.1,0-0.2c0-8.9,8.7-16.1,19.4-16.1h0c0.4,0,0.8-0.3,0.9-0.7
		c1.5-7.6,9.5-13.4,19.1-13.4c8.7,0,16.1,4.8,18.5,11.4c0.6,1.6,2.1,2.7,3.9,2.7c0,0,0.1,0,0.1,0c10.7,0,19.4,7.2,19.4,16.1
		c0,0.8-0.1,1.3-0.1,1.9c-1.1,6.2-6.6,10.8-12.9,10.8H87.1z"/>
	
		<linearGradient id="SVGID_14_" gradientUnits="userSpaceOnUse" x1="-472.1566" y1="166.192" x2="-457.6618" y2="196.3413" gradientTransform="matrix(-1 0 0 1 -349.1345 0)">
		<stop  offset="0" style="stop-color:#3DA5D5"/>
		<stop  offset="1" style="stop-color:#1B75BB"/>
	</linearGradient>
	<path class="st44" d="M87.1,195.5c-6.9,0-12.5-5.5-12.6-12.4c0-0.1,0-0.1,0-0.2c0-8.9,8.7-16.1,19.4-16.1h0c0.4,0,0.8-0.3,0.9-0.7
		c1.5-7.6,9.5-13.4,19.1-13.4c8.7,0,16.1,4.8,18.5,11.4c0.6,1.6,2.1,2.7,3.9,2.7c0,0,0.1,0,0.1,0c10.7,0,19.4,7.2,19.4,16.1
		c0,0.8-0.1,1.3-0.1,1.9c-1.1,6.2-6.6,10.8-12.9,10.8H87.1z"/>
	<path class="st45" d="M94.9,166.7c0,0,9.5-0.8,10.4,8"/>
</g>
<line class="st45" x1="426.7" y1="58.7" x2="479.2" y2="62.1"/>
<path class="st2" d="M460.7,234.1H152.2v3.7c0,7.7,6.3,14,14,14h280.5c7.7,0,14-6.3,14-14V234.1z"/>
<path class="st4" d="M237.8,291.4l63.2-34.8c2.6-1.4,4.4-3.9,4.9-6.9v0c1.3-6.8-4.7-12.7-11.5-11.5l-87.6,16.1L237.8,291.4z"/>
<path class="st46" d="M237.8,291.4l63.2-34.8c2.6-1.4,4.4-3.9,4.9-6.9v0c1.3-6.8-4.7-12.7-11.5-11.5"/>
<line class="st31" x1="404.9" y1="233.1" x2="448.4" y2="233.1"/>
<line class="st31" x1="175" y1="241.9" x2="186.3" y2="241.9"/>
<image style="overflow:visible;" width="1920" height="1080" xlink:href="C914ED9E.jpg"  transform="matrix(1 0 0 1 -7034.9453 -8002)">
</image>
</svg>
