<?xml version="1.0" encoding="utf-8"?>
<!-- Generator: Adobe Illustrator 19.2.1, SVG Export Plug-In . SVG Version: 6.00 Build 0)  -->
<svg version="1.1" id="Layer_1" xmlns="http://www.w3.org/2000/svg" xmlns:xlink="http://www.w3.org/1999/xlink" x="0px" y="0px"
	 width="46px" height="46px" viewBox="0 0 46 46" style="enable-background:new 0 0 46 46;" xml:space="preserve">
<style type="text/css">
	.st0{fill:#FFFFFF;stroke:#113B58;stroke-width:1.5;stroke-linecap:round;}
	.st1{fill:#74CAC8;}
	.st2{fill:#FFFFFF;enable-background:new    ;}
	.st3{opacity:0.12;fill:#439BC3;enable-background:new    ;}
	.st4{fill:none;stroke:#113B58;stroke-width:1.5;stroke-linecap:round;}
	.st5{fill:#E8F3F7;}
</style>
<path class="st0" d="M18.8,20.2v-12c0-0.6,0.4-1,1-1h19c0.6,0,1,0.4,1,1v12c0,0.6-0.4,1-1,1h-19C19.2,21.2,18.8,20.8,18.8,20.2z"/>
<path class="st0" d="M7.8,37.8v-12c0-0.6,0.4-1,1-1h12c0.6,0,1,0.4,1,1v12c0,0.6-0.4,1-1,1h-12C8.2,38.8,7.8,38.3,7.8,37.8z"/>
<path class="st1" d="M38.8,24h-12c-1,0-1.8,0.8-1.8,1.8v12c0,1,0.8,1.8,1.8,1.8h12c1,0,1.8-0.8,1.8-1.8v-12
	C40.5,24.8,39.7,24,38.8,24z"/>
<path id="Combined-Shape_1_" class="st2" d="M33.6,32.5V34c0,0.4-0.3,0.8-0.8,0.8c-0.4,0-0.8-0.3-0.8-0.8v-1.5h-1.6
	c-0.4,0-0.8-0.3-0.8-0.7s0.3-0.8,0.8-0.8h1.6v-1.5c0-0.4,0.3-0.8,0.8-0.8c0.4,0,0.8,0.3,0.8,0.8V31H35c0.4,0,0.8,0.3,0.8,0.8
	s-0.3,0.7-0.8,0.7H33.6z"/>
<path class="st3" d="M37,11c0,0.6-0.4,1-1,1H22c-0.6,0-1-0.4-1-1v0c0-0.6,0.4-1,1-1h14C36.6,10,37,10.4,37,11L37,11z"/>
<path class="st3" d="M37,14c0,0.6-0.4,1-1,1H22c-0.6,0-1-0.4-1-1v0c0-0.6,0.4-1,1-1h14C36.6,13,37,13.4,37,14L37,14z"/>
<path class="st3" d="M37,17c0,0.6-0.4,1-1,1H22c-0.6,0-1-0.4-1-1v0c0-0.6,0.4-1,1-1h14C36.6,16,37,16.4,37,17L37,17z"/>
<circle class="st1" cx="25.4" cy="13.2" r="1"/>
<circle class="st1" cx="29.3" cy="14.8" r="1"/>
<circle class="st1" cx="33.8" cy="12.2" r="1"/>
<rect x="8.4" y="14.6" transform="matrix(5.408010e-010 1 -1 5.408010e-010 29.5885 6.8428)" class="st1" width="6" height="7.2"/>
<rect x="9.4" y="9.6" transform="matrix(8.114920e-010 1 -1 8.114920e-010 24.5888 1.8431)" class="st2" width="4" height="7.2"/>
<rect x="9.4" y="9.6" transform="matrix(8.114920e-010 1 -1 8.114920e-010 24.5888 1.8431)" class="st3" width="4" height="7.2"/>
<path class="st4" d="M7.8,20.2v-12c0-0.6,0.4-1,1-1H14c0.6,0,1,0.4,1,1v12c0,0.6-0.4,1-1,1H8.8C8.2,21.2,7.8,20.8,7.8,20.2z"/>
<rect x="9.6" y="26.7" class="st5" width="10.4" height="9.9"/>
<path class="st1" d="M13,36.6v-5.3c0-0.4-0.3-0.8-0.8-0.8s-0.8,0.3-0.8,0.8v5.3H13z"/>
<path class="st1" d="M15.7,36.6v-1.3c0-0.4-0.3-0.8-0.8-0.8s-0.8,0.3-0.8,0.8v1.3H15.7z"/>
<path class="st1" d="M18.6,36.6v-3.5c0-0.4-0.3-0.8-0.8-0.8s-0.8,0.3-0.8,0.8v3.5H18.6z"/>
</svg>
