<?xml version="1.0" encoding="UTF-8"?>
<svg width="25px" height="25px" viewBox="0 0 25 25" version="1.1" xmlns="http://www.w3.org/2000/svg" xmlns:xlink="http://www.w3.org/1999/xlink">
    <!-- Generator: Sketch 52.5 (67469) - http://www.bohemiancoding.com/sketch -->
    <title>06_monitoring_white</title>
    <desc>Created with Sketch.</desc>
    <g id="graphics" stroke="none" stroke-width="1" fill="none" fill-rule="evenodd">
        <g id="Icons" transform="translate(-322.000000, -600.000000)">
            <g id="Group-2-Copy-2" transform="translate(143.000000, 599.000000)">
                <g id="06_monitoring_white" transform="translate(179.000000, 1.000000)">
                    <g id="Group-3">
                        <g id="magnifying-glass" transform="translate(-0.000000, -0.000000)"></g>
                        <path d="M3.375,14 C2.33946609,14 1.5,13.1605339 1.5,12.125 C1.5,11.0894661 2.33946609,10.25 3.375,10.25 C4.41053391,10.25 5.25,11.0894661 5.25,12.125 C5.25,13.1605339 4.41053391,14 3.375,14 Z M3.375,12.75 C3.72017797,12.75 4,12.470178 4,12.125 C4,11.779822 3.72017797,11.5 3.375,11.5 C3.02982203,11.5 2.75,11.779822 2.75,12.125 C2.75,12.470178 3.02982203,12.75 3.375,12.75 Z" id="Combined-Shape" fill="#FFFFFF"></path>
                        <path d="M9.875,7.25 C8.83946609,7.25 8,6.41053391 8,5.375 C8,4.33946609 8.83946609,3.5 9.875,3.5 C10.9105339,3.5 11.75,4.33946609 11.75,5.375 C11.75,6.41053391 10.9105339,7.25 9.875,7.25 Z M9.875,6 C10.220178,6 10.5,5.72017797 10.5,5.375 C10.5,5.02982203 10.220178,4.75 9.875,4.75 C9.52982203,4.75 9.25,5.02982203 9.25,5.375 C9.25,5.72017797 9.52982203,6 9.875,6 Z" id="Combined-Shape" fill="#FFFFFF"></path>
                        <path d="M16.875,13.75 C15.8394661,13.75 15,12.9105339 15,11.875 C15,10.8394661 15.8394661,10 16.875,10 C17.9105339,10 18.75,10.8394661 18.75,11.875 C18.75,12.9105339 17.9105339,13.75 16.875,13.75 Z M16.875,12.5 C17.220178,12.5 17.5,12.220178 17.5,11.875 C17.5,11.529822 17.220178,11.25 16.875,11.25 C16.529822,11.25 16.25,11.529822 16.25,11.875 C16.25,12.220178 16.529822,12.5 16.875,12.5 Z" id="Combined-Shape" fill="#FFFFFF"></path>
                        <path d="M24.7782705,23.7250554 L18.7028825,17.6496674 C20.3325943,15.7760532 21.3192904,13.3314856 21.3192904,10.6596452 C21.3192904,4.77827051 16.5354767,-1.77635684e-15 10.6596453,-1.77635684e-15 C4.77827051,-1.77635684e-15 4.20996571e-13,4.78381375 4.20996571e-13,10.6596452 C4.20996571e-13,16.5354767 4.78381375,21.3192904 10.6596453,21.3192904 C13.3314856,21.3192904 15.7760532,20.3325942 17.6496674,18.7028825 L23.7250554,24.7782705 C23.8691796,24.9223947 24.0631929,25 24.251663,25 C24.4401331,25 24.6341463,24.9279379 24.7782705,24.7782705 C25.0665189,24.4900222 25.0665189,24.0133038 24.7782705,23.7250554 Z M1.49113082,10.6596453 C1.49113082,5.60421286 5.60421286,1.49667406 10.654102,1.49667406 C15.7095344,1.49667406 19.8170732,5.6097561 19.8170732,10.6596453 C19.8170732,15.7095344 15.7095344,19.8281596 10.654102,19.8281596 C5.60421286,19.8281596 1.49113082,15.7150776 1.49113082,10.6596453 Z" id="Shape" fill="#FFFFFF" fill-rule="nonzero"></path>
                        <path d="M4.20995646,11 L8.84110192,6" id="Path-13" stroke="#FFFFFF" stroke-width="1.3"></path>
                        <path d="M10.5316356,10.2074779 L16.5547299,6.55556817" id="Path-13-Copy" stroke="#FFFFFF" stroke-width="1.3" transform="translate(13.543183, 8.381523) rotate(-285.000000) translate(-13.543183, -8.381523) "></path>
                        <path d="M17.3699759,10.3691376 L23.3930702,6.71722785" id="Path-13-Copy-2" stroke="#FFFFFF" stroke-width="1.3" stroke-linecap="round" transform="translate(20.381523, 8.543183) rotate(-195.000000) translate(-20.381523, -8.543183) "></path>
                    </g>
                    <g id="Group" transform="translate(1.000000, 10.000000)"></g>
                    <g id="Group-Copy" transform="translate(8.000000, 3.000000)"></g>
                    <g id="Group-Copy-2" transform="translate(15.000000, 10.000000)"></g>
                </g>
            </g>
        </g>
    </g>
</svg>