<?xml version="1.0" encoding="utf-8"?>
<!-- Generator: Adobe Illustrator 19.2.1, SVG Export Plug-In . SVG Version: 6.00 Build 0)  -->
<svg version="1.1" id="Layer_1" xmlns="http://www.w3.org/2000/svg" xmlns:xlink="http://www.w3.org/1999/xlink" x="0px" y="0px"
	 width="46px" height="46px" viewBox="0 0 46 46" style="enable-background:new 0 0 46 46;" xml:space="preserve">
<style type="text/css">
	.st0{opacity:0.12;fill:#439BC3;enable-background:new    ;}
	.st1{fill:#FFFFFF;}
	.st2{opacity:0.5517;fill:#74CAC8;enable-background:new    ;}
	.st3{fill:#74CAC8;}
	.st4{fill:none;stroke:#113B58;stroke-width:1.5;}
	.st5{fill:none;stroke:#113B58;stroke-width:1.5;stroke-linecap:round;}
</style>
<path id="Path-3_10_" class="st0" d="M38.5,20.7c8.1,8.8,7.6,15.5-1.4,19.9c-13.6,6.7-25.5,4-21.7-3.4C17,34,19.2,18.1,25.6,15.5
	C29.7,13.8,34.1,17,38.5,20.7z"/>
<path class="st1" d="M8.6,34.7V9.1c0-0.6,0.4-1,1-1h27.5c0.6,0,1,0.4,1,1v25.7c0,0.6-0.4,1-1,1H9.6C9,35.7,8.6,35.3,8.6,34.7z"/>
<path id="Combined-Shape_12_" class="st2" d="M42.2,5.6v1.5c0,0.4-0.3,0.8-0.8,0.8c-0.4,0-0.8-0.3-0.8-0.8V5.6h-1.6
	c-0.4,0-0.8-0.3-0.8-0.8s0.3-0.8,0.8-0.8h1.6V2.6c0-0.4,0.3-0.8,0.8-0.8c0.4,0,0.8,0.3,0.8,0.8v1.5h1.4c0.4,0,0.8,0.3,0.8,0.8
	s-0.3,0.8-0.8,0.8H42.2z"/>
<polygon class="st0" points="38.1,32.2 30.8,33.2 23.3,31.2 17,32.2 12.9,31.2 8.6,32.2 8.6,12 13.3,11 17.1,12 23.3,11 30.8,13 
	38.1,12 "/>
<polygon class="st3" points="38.1,28.1 31,29.1 23.3,27.1 17,28.1 13.1,27.1 8.6,28.1 8.6,16 13.3,15 16.8,16 23.3,15 30.6,17 
	38.1,16 "/>
<polyline class="st4" points="8.6,22.1 13.1,21.1 16.8,22.1 23.3,21.1 30.6,23.1 38.1,22.1 "/>
<path class="st4" d="M8.6,34.7V9.1c0-0.6,0.4-1,1-1h27.5c0.6,0,1,0.4,1,1v25.7c0,0.6-0.4,1-1,1H9.6C9,35.7,8.6,35.3,8.6,34.7z"/>
<line class="st5" x1="27" y1="35.7" x2="27" y2="38.1"/>
<line class="st5" x1="20.9" y1="35.7" x2="20.9" y2="38.1"/>
<line class="st5" x1="14.7" y1="35.7" x2="14.7" y2="38.1"/>
<line class="st5" x1="8.6" y1="33.9" x2="8.6" y2="38.1"/>
<line class="st5" x1="33.2" y1="35.7" x2="33.2" y2="38.1"/>
<line class="st5" x1="6.2" y1="17.2" x2="8.6" y2="17.2"/>
<line class="st5" x1="6.2" y1="23.3" x2="8.6" y2="23.3"/>
<line class="st5" x1="6.2" y1="29.5" x2="8.6" y2="29.5"/>
<line class="st5" x1="6.2" y1="35.7" x2="10.4" y2="35.7"/>
<line class="st5" x1="6.2" y1="11" x2="8.6" y2="11"/>
</svg>
