<?xml version="1.0" encoding="utf-8"?>
<!-- Generator: Adobe Illustrator 19.2.1, SVG Export Plug-In . SVG Version: 6.00 Build 0)  -->
<svg version="1.1" id="Layer_2" xmlns="http://www.w3.org/2000/svg" xmlns:xlink="http://www.w3.org/1999/xlink" x="0px" y="0px"
	 width="46px" height="46px" viewBox="0 0 46 46" style="enable-background:new 0 0 46 46;" xml:space="preserve">
<style type="text/css">
	.st0{opacity:0.12;fill:#439BC3;enable-background:new    ;}
	.st1{fill:#FFFFFF;enable-background:new    ;}
	.st2{fill:#74CAC8;}
	.st3{opacity:0.5517;fill:#74CAC8;enable-background:new    ;}
	.st4{fill:#FFFFFF;}
	.st5{fill:none;stroke:#113B58;stroke-width:1.5;stroke-linecap:round;}
	.st6{fill:#113B58;}
</style>
<path id="Path-3_3_" class="st0" d="M41.6,18.8c-3.1,11.6-8.9,14.7-17.5,9.5C11.2,20.4,7,8.9,15.3,8.2c3.5-0.3,18.2-7.1,23.8-3.1
	C42.7,7.7,42.4,13.1,41.6,18.8z"/>
<path class="st1" d="M15.5,30.9v-20c0-0.6,0.4-1,1-1h20c0.6,0,1,0.4,1,1v20c0,0.6-0.4,1-1,1h-20C16,31.9,15.5,31.5,15.5,30.9z"/>
<path class="st2" d="M8.7,38.3v-20c0-0.6,0.4-1,1-1h20c0.6,0,1,0.4,1,1v20c0,0.6-0.4,1-1,1h-20C9.1,39.3,8.7,38.8,8.7,38.3z"/>
<path id="Combined-Shape_5_" class="st3" d="M6.4,8.6v1.5c0,0.4-0.3,0.8-0.8,0.8s-0.8-0.3-0.8-0.8V8.6H3.4C3,8.6,2.6,8.2,2.6,7.8
	c0-0.4,0.3-0.8,0.8-0.8h1.6V5.6c0-0.4,0.3-0.8,0.8-0.8s0.8,0.3,0.8,0.8v1.5h1.4c0.4,0,0.8,0.3,0.8,0.8c0,0.4-0.3,0.8-0.8,0.8H6.4z"
	/>
<path id="Combined-Shape-Copy_3_" class="st3" d="M39.2,38.9v1.3c0,0.3-0.3,0.6-0.6,0.6c-0.3,0-0.6-0.3-0.6-0.6v-1.3h-1.3
	c-0.3,0-0.6-0.3-0.6-0.6c0-0.3,0.3-0.6,0.6-0.6H38v-1.2c0-0.3,0.3-0.6,0.6-0.6c0.3,0,0.6,0.3,0.6,0.6v1.2h1.2c0.3,0,0.6,0.3,0.6,0.6
	c0,0.3-0.3,0.6-0.6,0.6H39.2z"/>
<rect x="15.5" y="17.3" class="st4" width="15.2" height="14.7"/>
<rect x="15.5" y="17.3" class="st0" width="15.2" height="14.7"/>
<path class="st5" d="M8.7,38.3v-20c0-0.6,0.4-1,1-1h20c0.6,0,1,0.4,1,1v20c0,0.6-0.4,1-1,1h-20C9.1,39.3,8.7,38.8,8.7,38.3z"/>
<path class="st5" d="M15.5,30.9v-20c0-0.6,0.4-1,1-1h20c0.6,0,1,0.4,1,1v20c0,0.6-0.4,1-1,1h-20C16,31.9,15.5,31.5,15.5,30.9z"/>
<g>
	<path class="st2" d="M21.5,26.7L21,27.2c-0.1,0.1-0.1,0.1-0.2,0.1s-0.1,0-0.2-0.1c-0.1-0.1-0.1-0.1-0.1-0.2s0-0.1,0.1-0.2l0.5-0.5
		l-1.9-1.9l0.5,0.5l2.1-2.1c0.4-0.4,1-0.7,1.6-0.7c0.4,0,0.8,0.1,1.1,0.3l0.5,0.3l0.7-0.7l-0.7,0.7l0.3,0.5c0.5,0.9,0.4,2-0.3,2.7
		L23,28.1L21.5,26.7z"/>
	<g>
		<path class="st6" d="M26.3,22.6L26.3,22.6L26.3,22.6 M23.5,22.9c0.3,0,0.5,0.1,0.8,0.2l0.3,0.2l0.2,0.3c0.3,0.6,0.3,1.3-0.2,1.8
			L23,27.1l-0.4-0.4l-1.1-1.1l0,0l-0.4-0.4l-0.4-0.4l1.6-1.6C22.7,23.1,23.1,22.9,23.5,22.9 M25.8,21.4c-0.2,0-0.4,0.1-0.5,0.2
			L25,21.8c-0.5-0.3-1-0.4-1.5-0.4c-0.8,0-1.5,0.3-2.1,0.9l-1.6,1.6c-0.1-0.1-0.3-0.2-0.5-0.2c-0.2,0-0.4,0.1-0.5,0.2
			c-0.3,0.3-0.3,0.8,0,1.1l1.4,1.4c-0.4,0.4-0.4,1,0,1.4c0.2,0.2,0.5,0.3,0.7,0.3c0.3,0,0.5-0.1,0.7-0.3l1.4,1.4
			c0.1,0.1,0.3,0.2,0.5,0.2s0.4-0.1,0.5-0.2c0.3-0.3,0.3-0.8,0-1.1l0,0l1.6-1.6c1-1,1.1-2.5,0.5-3.6l0.3-0.3c0.3-0.3,0.3-0.8,0-1.1
			C26.2,21.4,26,21.4,25.8,21.4L25.8,21.4z"/>
	</g>
</g>
</svg>
