<?xml version="1.0" encoding="utf-8"?>
<!-- Generator: Adobe Illustrator 19.2.1, SVG Export Plug-In . SVG Version: 6.00 Build 0)  -->
<svg version="1.1" id="Layer_1" xmlns="http://www.w3.org/2000/svg" xmlns:xlink="http://www.w3.org/1999/xlink" x="0px" y="0px"
	 width="46px" height="46px" viewBox="0 0 46 46" style="enable-background:new 0 0 46 46;" xml:space="preserve">
<style type="text/css">
	.st0{opacity:0.12;fill:#439BC3;enable-background:new    ;}
	.st1{opacity:0.5517;fill:#74CAC8;enable-background:new    ;}
	.st2{fill:#FFFFFF;stroke:#113B58;stroke-width:1.5;}
	.st3{fill:none;stroke:#113B58;stroke-width:1.5;stroke-linecap:round;}
	.st4{fill:#74CAC8;}
	.st5{fill:#113B58;}
	.st6{fill:#E8F3F7;}
	.st7{fill:none;stroke:#74CAC8;stroke-width:1.5;stroke-linecap:round;}
	.st8{fill:#FFFFFF;}
</style>
<path id="Path-3_9_" class="st0" d="M43.1,18.4C40,30,34.2,33.1,25.6,27.9C12.7,20,8.5,8.6,16.8,7.8c3.5-0.3,18.2-7.1,23.8-3.1
	C44.2,7.3,43.9,12.7,43.1,18.4z"/>
<path id="Combined-Shape_11_" class="st1" d="M5.4,7.6v1.5c0,0.4-0.3,0.8-0.8,0.8S3.9,9.5,3.9,9.1V7.6H2.4C2,7.6,1.6,7.2,1.6,6.8
	S2,6.1,2.4,6.1h1.6V4.6c0-0.4,0.3-0.7,0.7-0.7s0.8,0.3,0.8,0.7v1.5h1.4c0.4,0,0.8,0.3,0.8,0.8S7.3,7.6,6.9,7.6H5.4z"/>
<path id="Combined-Shape-Copy_10_" class="st1" d="M41.2,40.9v1.3c0,0.3-0.3,0.6-0.6,0.6c-0.3,0-0.6-0.3-0.6-0.6v-1.3h-1.3
	c-0.3,0-0.6-0.3-0.6-0.6c0-0.3,0.3-0.6,0.6-0.6H40v-1.2c0-0.3,0.3-0.6,0.6-0.6c0.3,0,0.6,0.3,0.6,0.6v1.2h1.2c0.3,0,0.6,0.3,0.6,0.6
	c0,0.3-0.3,0.6-0.6,0.6H41.2z"/>
<path class="st2" d="M6.2,33.7v-21c0-0.6,0.4-1,1-1h32c0.6,0,1,0.4,1,1v21c0,0.6-0.4,1-1,1h-32C6.6,34.7,6.2,34.2,6.2,33.7z"/>
<line class="st3" x1="23.2" y1="34.7" x2="23.2" y2="37.8"/>
<line class="st3" x1="12.1" y1="38.5" x2="34.2" y2="38.5"/>
<rect x="10.1" y="20.6" transform="matrix(2.704004e-010 1 -1 2.704004e-010 35.5522 9.2898)" class="st4" width="6" height="3.6"/>
<rect x="10.2" y="26.6" transform="matrix(2.727348e-010 -1 1 2.727348e-010 -15.2647 41.527)" class="st5" width="5.9" height="3.6"/>
<rect x="11.1" y="15.6" transform="matrix(4.057464e-010 1 -1 4.057464e-010 30.5525 4.2901)" class="st0" width="4" height="3.6"/>
<rect x="20" y="24" class="st6" width="16" height="7"/>
<line class="st7" x1="22.2" y1="31.2" x2="22.2" y2="25.7"/>
<line class="st7" x1="27.8" y1="31.2" x2="27.8" y2="27.5"/>
<line class="st7" x1="25" y1="31.2" x2="25" y2="29.7"/>
<line class="st7" x1="33.8" y1="31.2" x2="33.8" y2="27.5"/>
<line class="st7" x1="31" y1="31.2" x2="31" y2="29.7"/>
<rect x="20" y="31" class="st8" width="16" height="1.4"/>
<line class="st7" x1="20" y1="15.6" x2="35" y2="15.6"/>
<line class="st7" x1="20" y1="18.4" x2="35" y2="18.4"/>
<line class="st7" x1="20" y1="21.1" x2="35" y2="21.1"/>
<circle class="st5" cx="23.7" cy="17.4" r="1"/>
<circle class="st5" cx="27.7" cy="19" r="1"/>
<circle class="st5" cx="32.1" cy="16.4" r="1"/>
</svg>
