<?xml version="1.0" encoding="utf-8"?>
<!-- Generator: Adobe Illustrator 19.2.1, SVG Export Plug-In . SVG Version: 6.00 Build 0)  -->
<svg version="1.1" id="Layer_1" xmlns="http://www.w3.org/2000/svg" xmlns:xlink="http://www.w3.org/1999/xlink" x="0px" y="0px"
	 width="480px" height="340px" viewBox="0 0 480 340" style="enable-background:new 0 0 480 340;" xml:space="preserve">
<style type="text/css">
	.st0{fill:#EDF4F8;}
	.st1{fill:#F8FBFC;}
	.st2{opacity:0.5;}
	.st3{fill:#A6C2D5;}
	.st4{fill:#275A7D;}
	.st5{fill:#FFFFFF;}
	.st6{fill:#F9FCFE;}
	.st7{fill:none;stroke:#DEEBF0;stroke-width:0.5;stroke-miterlimit:10;}
	.st8{fill:#E0E1E5;}
	.st9{fill:url(#SVGID_1_);}
	.st10{fill:url(#SVGID_2_);}
	.st11{fill:url(#SVGID_3_);}
	.st12{fill:url(#SVGID_4_);}
	.st13{fill:#74CAC8;}
	.st14{fill:none;stroke:#33CFB9;stroke-width:2;stroke-linecap:round;stroke-linejoin:round;stroke-miterlimit:10;}
	.st15{opacity:0.6;fill:#C7EAE9;}
	
		.st16{opacity:0.5;fill:none;stroke:#74CAC8;stroke-width:2;stroke-linecap:round;stroke-linejoin:round;stroke-miterlimit:10;enable-background:new    ;}
	.st17{fill:none;stroke:#275A7D;stroke-width:1.1339;stroke-linecap:round;stroke-linejoin:round;stroke-miterlimit:10;}
	.st18{fill:#BB917D;}
	.st19{opacity:0.38;fill:url(#SVGID_5_);}
	.st20{opacity:0.3;}
	.st21{fill:url(#SVGID_6_);}
	.st22{fill:#CBB3A1;}
	.st23{fill:#96E3E2;}
	.st24{fill:url(#SVGID_7_);}
	.st25{fill:#127F6B;}
	.st26{fill:none;stroke:#8BC8E5;stroke-linecap:round;stroke-linejoin:round;stroke-miterlimit:10;}
	.st27{fill:url(#SVGID_8_);}
	.st28{fill:url(#SVGID_9_);}
	.st29{fill:url(#SVGID_10_);}
	.st30{fill:url(#SVGID_11_);}
	.st31{fill:url(#SVGID_12_);}
	.st32{fill:#D4B9AC;}
	.st33{fill:#27597D;}
	.st34{fill:url(#SVGID_13_);}
	.st35{fill:#1B75BB;}
	.st36{fill:#206797;}
	.st37{opacity:0.5;fill:url(#SVGID_14_);enable-background:new    ;}
	.st38{fill:url(#SVGID_15_);}
	.st39{fill:url(#SVGID_16_);}
	.st40{opacity:0.7;fill:url(#SVGID_17_);enable-background:new    ;}
	.st41{fill:url(#SVGID_18_);}
	.st42{fill:url(#SVGID_19_);}
	.st43{fill:url(#SVGID_20_);}
	.st44{fill:url(#SVGID_21_);}
</style>
<g>
	<g>
		<g>
			<g id="Rectangle-Copy-4_9_">
				
					<image style="overflow:visible;opacity:0.25;" width="461" height="282" xlink:href="CE992469.png"  transform="matrix(1 0 0 1 9 23)">
				</image>
				<g>
					<path class="st0" d="M44.6,46.6h390c2.6,0,4.6,1.8,4.6,4v215.1c0,1.1-1,1.9-2.2,1.9H42.2c-1.2,0-2.2-0.9-2.2-1.9V50.6
						C40,48.4,42.1,46.6,44.6,46.6z"/>
				</g>
			</g>
			<path id="Rectangle-2-Copy_4_" class="st1" d="M44.6,38.9h390c2.6,0,4.6,2.1,4.6,4.6v13.1H40V43.5C40,41,42.1,38.9,44.6,38.9z"/>
			<g class="st2">
				<circle id="Oval-3-Copy-3_6_" class="st3" cx="52.8" cy="47" r="2.2"/>
				<circle id="Oval-3-Copy-4_4_" class="st3" cx="62.7" cy="47" r="2.2"/>
				<circle id="Oval-3-Copy-5_4_" class="st3" cx="72.7" cy="47" r="2.2"/>
			</g>
			<rect id="Rectangle-3-Copy_4_" x="40" y="54.3" class="st4" width="399.3" height="23.1"/>
			<g>
				<path class="st5" d="M93.2,68.2L93.2,68.2c0-0.4,0.3-0.7,0.7-0.7c0.4,0,0.7,0.3,0.7,0.7v0c0,0.4-0.3,0.7-0.7,0.7
					C93.5,68.9,93.2,68.6,93.2,68.2 M94.5,68.2L94.5,68.2c0-0.3-0.2-0.5-0.5-0.5c-0.3,0-0.5,0.2-0.5,0.5v0c0,0.3,0.2,0.5,0.5,0.5
					C94.2,68.7,94.5,68.5,94.5,68.2 M93.7,67.8H94c0.1,0,0.3,0.1,0.3,0.2c0,0.1-0.1,0.2-0.2,0.2l0.2,0.3h-0.2l-0.2-0.2h-0.1v0.2
					h-0.1V67.8z M93.9,68.2c0.1,0,0.1,0,0.1-0.1c0-0.1-0.1-0.1-0.1-0.1h-0.2v0.2H93.9z"/>
				<path class="st5" d="M52.7,64.7c0-0.1,0.1-0.2,0.2-0.2H53c0.1,0,0.2,0.1,0.2,0.1l1.6,2.4l1.6-2.4c0.1-0.1,0.1-0.1,0.2-0.1h0.1
					c0.1,0,0.2,0.1,0.2,0.2v4c0,0.1-0.1,0.3-0.2,0.3c-0.1,0-0.3-0.1-0.3-0.3v-3.3L55,67.4c-0.1,0.1-0.1,0.1-0.2,0.1s-0.2,0-0.2-0.1
					l-1.4-2.1v3.3c0,0.1-0.1,0.2-0.2,0.2c-0.1,0-0.2-0.1-0.2-0.2V64.7z"/>
				<path class="st5" d="M59.5,68.6v-3.9c0-0.1,0.1-0.3,0.2-0.3h2.8c0.1,0,0.2,0.1,0.2,0.2c0,0.1-0.1,0.2-0.2,0.2H60v1.5h2.2
					c0.1,0,0.2,0.1,0.2,0.2c0,0.1-0.1,0.2-0.2,0.2H60v1.6h2.5c0.1,0,0.2,0.1,0.2,0.2c0,0.1-0.1,0.2-0.2,0.2h-2.8
					C59.6,68.9,59.5,68.8,59.5,68.6"/>
				<path class="st5" d="M66.2,64.9h-1.3c-0.1,0-0.2-0.1-0.2-0.2c0-0.1,0.1-0.2,0.2-0.2H68c0.1,0,0.2,0.1,0.2,0.2
					c0,0.1-0.1,0.2-0.2,0.2h-1.3v3.8c0,0.1-0.1,0.3-0.3,0.3c-0.1,0-0.3-0.1-0.3-0.3V64.9z"/>
				<path class="st5" d="M70.4,64.7c0-0.1,0.1-0.3,0.2-0.3h1.7c0.5,0,1,0.2,1.3,0.4c0.2,0.2,0.3,0.5,0.3,0.9v0
					c0,0.7-0.5,1.2-1.2,1.3l1.1,1.4c0.1,0.1,0.1,0.1,0.1,0.2c0,0.1-0.1,0.2-0.3,0.2c-0.1,0-0.2-0.1-0.2-0.1l-1.2-1.6h-1.3v1.5
					c0,0.1-0.1,0.3-0.3,0.3c-0.1,0-0.2-0.1-0.2-0.3V64.7z M72.2,66.7c0.7,0,1.1-0.3,1.1-0.9v0c0-0.5-0.4-0.9-1.1-0.9h-1.4v1.8H72.2z
					"/>
				<path class="st5" d="M76.3,64.7c0-0.1,0.1-0.3,0.2-0.3c0.1,0,0.3,0.1,0.3,0.3v4c0,0.1-0.1,0.3-0.3,0.3c-0.1,0-0.2-0.1-0.2-0.3
					V64.7z"/>
				<path class="st5" d="M79.1,66.7L79.1,66.7c0-1.3,0.9-2.3,2.2-2.3c0.7,0,1.2,0.2,1.6,0.6c0.1,0,0.1,0.1,0.1,0.2
					c0,0.1-0.1,0.2-0.3,0.2c-0.1,0-0.1,0-0.2-0.1c-0.3-0.3-0.7-0.5-1.3-0.5c-1,0-1.7,0.8-1.7,1.8v0c0,1,0.7,1.8,1.7,1.8
					c0.6,0,0.9-0.2,1.3-0.5c0,0,0.1-0.1,0.2-0.1c0.1,0,0.2,0.1,0.2,0.2c0,0.1,0,0.1-0.1,0.2c-0.4,0.4-0.9,0.7-1.6,0.7
					C80.1,68.9,79.1,67.9,79.1,66.7"/>
				<path class="st5" d="M85.3,64.7c0-0.1,0.1-0.3,0.2-0.3c0.1,0,0.3,0.1,0.3,0.3v3.8h2.3c0.1,0,0.2,0.1,0.2,0.2
					c0,0.1-0.1,0.2-0.2,0.2h-2.6c-0.1,0-0.2-0.1-0.2-0.3V64.7z"/>
				<path class="st5" d="M91,67.1l-1.6-2.3c0-0.1-0.1-0.1-0.1-0.2c0-0.1,0.1-0.2,0.3-0.2c0.1,0,0.2,0.1,0.2,0.2l1.5,2.1l1.5-2.1
					c0.1-0.1,0.1-0.2,0.2-0.2c0.1,0,0.2,0.1,0.2,0.2c0,0.1,0,0.1-0.1,0.2l-1.6,2.3v1.5c0,0.1-0.1,0.3-0.3,0.3
					c-0.1,0-0.3-0.1-0.3-0.3V67.1z"/>
			</g>
		</g>
		<path id="Rectangle_22_" class="st6" d="M54.2,119.6h370.2c1.7,0,3,1.1,3,2.4v130.3c0,1.3-1.4,2.4-3,2.4H54.2c-1.7,0-3-1.1-3-2.4
			V122C51.2,120.7,52.5,119.6,54.2,119.6z"/>
		<g>
			<line class="st7" x1="85.9" y1="232.2" x2="412.8" y2="232.2"/>
			<line class="st7" x1="85.9" y1="207.4" x2="412.8" y2="207.4"/>
			<line class="st7" x1="85.9" y1="182.6" x2="412.8" y2="182.6"/>
			<line class="st7" x1="85.9" y1="157.8" x2="412.8" y2="157.8"/>
		</g>
		<circle class="st8" cx="70.7" cy="157.8" r="2"/>
		<circle class="st8" cx="70.7" cy="207.4" r="2"/>
		<circle class="st8" cx="70.7" cy="182" r="2"/>
		<circle class="st8" cx="70.7" cy="232.5" r="2"/>
		<circle class="st8" cx="153.8" cy="240.8" r="2"/>
		<circle class="st8" cx="121.8" cy="240.8" r="2"/>
		<circle class="st8" cx="89.9" cy="240.8" r="2"/>
		<circle class="st8" cx="281.6" cy="240.8" r="2"/>
		<circle class="st8" cx="249.6" cy="240.8" r="2"/>
		<circle class="st8" cx="217.7" cy="240.8" r="2"/>
		<circle class="st8" cx="185.7" cy="240.8" r="2"/>
		<circle class="st8" cx="377.5" cy="240.8" r="2"/>
		<circle class="st8" cx="345.5" cy="240.8" r="2"/>
		<circle class="st8" cx="313.5" cy="240.8" r="2"/>
		<circle class="st8" cx="409.4" cy="240.8" r="2"/>
		<line class="st7" x1="121.8" y1="232.2" x2="121.8" y2="148.6"/>
		<line class="st7" x1="313.5" y1="232.2" x2="313.5" y2="148.6"/>
		<line class="st7" x1="249.3" y1="232.2" x2="249.3" y2="148.6"/>
		<line class="st7" x1="249.3" y1="232.2" x2="249.3" y2="148.6"/>
		<line class="st7" x1="185.7" y1="232.2" x2="185.7" y2="148.6"/>
		<line class="st7" x1="377.5" y1="231.6" x2="377.5" y2="148.6"/>
	</g>
	<linearGradient id="SVGID_1_" gradientUnits="userSpaceOnUse" x1="87.9772" y1="181.7292" x2="397.4228" y2="181.7292">
		<stop  offset="0.1122" style="stop-color:#B6EEE6"/>
		<stop  offset="1" style="stop-color:#FFFFFF;stop-opacity:0.4"/>
	</linearGradient>
	<polygon class="st9" points="106.4,188.3 121.9,185.6 131.1,188.2 148.3,184.6 165.4,188.2 183.2,184.5 194.5,188.2 212,184.6 
		231.6,188.3 246.6,185.6 260.9,188.2 271.4,185 295.1,181.5 318.8,179 327.9,181.3 342.3,179 356.3,181.4 372,179 388.3,183.4 
		397.4,180.6 397.4,177 388.3,180.1 372,175.2 356.3,177.8 342.3,175.2 327.9,177.8 318.8,175.2 295.1,178 271.4,181.8 260.9,185.3 
		246.6,182.5 231.6,185.4 212,181.4 194.5,185.3 183.2,181.3 165.4,185.4 148.3,181.4 131.1,185.3 121.9,182.5 106.4,185.4 
		94.1,182.4 88,184.2 88,187.2 94.1,185.5 	"/>
	<linearGradient id="SVGID_2_" gradientUnits="userSpaceOnUse" x1="87.9772" y1="218.2626" x2="397.4228" y2="218.2626">
		<stop  offset="0.1122" style="stop-color:#B6EEE6"/>
		<stop  offset="1" style="stop-color:#FFFFFF;stop-opacity:0.4"/>
	</linearGradient>
	<polygon class="st10" points="388.6,216.3 371.1,211.5 356.2,213.7 342.2,211.4 327.2,213.8 317.6,211.4 297,213.6 275,216.8 
		261.9,220.8 246.6,218.1 231.5,220.7 212.1,217.1 193.6,220.8 182.3,217.2 165.4,220.8 148.2,217.1 130.6,220.8 121.1,218.1 
		106.1,220.7 94.5,218.2 88,219.9 88,224.1 94.5,222.2 106.1,225 121.1,222.1 130.6,225.1 148.2,221 165.4,225 182.3,221.1 
		193.6,225.1 212.1,221 231.5,225 246.6,222.1 261.9,225.1 275,220.6 297,217.1 317.6,214.7 327.2,217.4 342.2,214.7 356.2,217.3 
		371.1,214.8 388.6,220.1 397.4,217.1 397.4,213.5 	"/>
	<linearGradient id="SVGID_3_" gradientUnits="userSpaceOnUse" x1="388.13" y1="190.2727" x2="130.13" y2="190.2727">
		<stop  offset="0" style="stop-color:#C7EAE9;stop-opacity:0"/>
		<stop  offset="0.6939" style="stop-color:#C7EAE9"/>
		<stop  offset="1" style="stop-color:#33CFB9"/>
	</linearGradient>
	<polygon class="st11" points="388.3,183.4 372,179 356.3,181.4 342.3,179 327.9,181.3 318.8,179 295.1,181.5 271.4,185 
		260.9,188.2 246.6,185.6 231.6,188.3 212,184.6 194.5,188.2 183.2,184.5 165.4,188.2 148.3,184.6 131.1,188.2 121.9,185.6 
		106.4,188.3 94.1,185.5 88,187.2 88,192.2 88,200.7 94.5,198.9 106.1,201.5 121.1,198.9 130.6,201.6 148.2,197.9 165.4,201.5 
		182.3,198 193.6,201.6 212.1,197.8 231.5,201.5 246.6,198.8 261.9,201.5 275,197.5 297,194.3 317.6,192.1 327.2,194.5 342.2,192.1 
		356.2,194.5 371.1,192.2 388.6,197 397.4,194.3 397.4,180.6 	"/>
	<linearGradient id="SVGID_4_" gradientUnits="userSpaceOnUse" x1="388.13" y1="209.5334" x2="130.13" y2="209.5334">
		<stop  offset="0" style="stop-color:#C7EAE9;stop-opacity:0"/>
		<stop  offset="0.6939" style="stop-color:#C7EAE9"/>
		<stop  offset="1" style="stop-color:#33CFB9"/>
	</linearGradient>
	<polygon class="st12" points="106.1,220.7 121.1,218.1 130.6,220.8 148.2,217.1 165.4,220.8 182.3,217.2 193.6,220.8 212.1,217.1 
		231.5,220.7 246.6,218.1 261.9,220.8 275,216.8 297,213.6 317.6,211.4 327.2,213.8 342.2,211.4 356.2,213.7 371.1,211.5 
		388.6,216.3 397.4,213.5 397.4,199.9 388.3,202.7 372,198.2 356.3,200.6 342.3,198.3 327.9,200.6 318.8,198.3 295.1,200.8 
		271.4,204.2 260.9,207.5 246.6,204.9 231.6,207.5 212,203.9 194.5,207.4 183.2,203.8 165.4,207.5 148.3,203.9 131.1,207.4 
		121.9,204.8 106.4,207.5 94.1,204.8 88,206.4 88,216.2 88,219.9 94.5,218.2 	"/>
	<g>
		<g>
			<g>
				<g>
					<circle class="st3" cx="392.9" cy="130.8" r="1.3"/>
					<circle class="st3" cx="397.6" cy="130.8" r="1.3"/>
					<circle class="st3" cx="402.3" cy="130.8" r="1.3"/>
				</g>
			</g>
			<polygon class="st3" points="416.9,133.5 415.3,131.9 413.7,133.5 412.6,132.3 414.2,130.8 412.6,129.2 413.7,128.1 415.3,129.6 
				416.9,128.1 418,129.2 416.4,130.8 418,132.3 			"/>
		</g>
		<g>
			<g>
				<path class="st13" d="M59.6,128.9c-0.1,0-0.1,0-0.2,0c-0.1,0-0.1,0-0.2-0.1c-0.1,0-0.2-0.1-0.3-0.2c0,0-0.1-0.1-0.1-0.2
					c0,0-0.1-0.1-0.1-0.2c0-0.1,0-0.1-0.1-0.2c0-0.1,0-0.1,0-0.2c0-0.3,0.1-0.5,0.3-0.7c0,0,0.1-0.1,0.1-0.1c0.1,0,0.1-0.1,0.2-0.1
					c0.1,0,0.1,0,0.2,0c0.1,0,0.3,0,0.4,0c0.1,0,0.1,0,0.2,0c0.1,0,0.1,0.1,0.2,0.1c0.1,0,0.1,0.1,0.2,0.1c0.2,0.2,0.3,0.4,0.3,0.7
					c0,0.1,0,0.1,0,0.2c0,0.1,0,0.1-0.1,0.2c0,0.1-0.1,0.1-0.1,0.2c0,0.1-0.1,0.1-0.1,0.2c-0.1,0.1-0.2,0.2-0.3,0.2
					c-0.1,0-0.1,0-0.2,0.1C59.8,128.9,59.7,128.9,59.6,128.9z"/>
				<path class="st13" d="M59.6,132.4c-0.1,0-0.1,0-0.2,0c-0.1,0-0.1,0-0.2-0.1c-0.1,0-0.1-0.1-0.2-0.1c0,0-0.1-0.1-0.1-0.1
					c-0.1-0.1-0.2-0.2-0.2-0.3c-0.1-0.1-0.1-0.3-0.1-0.4c0-0.1,0-0.3,0.1-0.4c0.1-0.1,0.1-0.2,0.2-0.3c0,0,0.1-0.1,0.1-0.1
					c0.1,0,0.1-0.1,0.2-0.1c0.1,0,0.1,0,0.2-0.1c0.1,0,0.3,0,0.4,0c0.1,0,0.1,0,0.2,0.1c0.1,0,0.1,0.1,0.2,0.1
					c0.1,0,0.1,0.1,0.2,0.1c0.1,0.1,0.2,0.2,0.2,0.3c0,0.1,0.1,0.3,0.1,0.4c0,0.1,0,0.3-0.1,0.4s-0.1,0.2-0.2,0.3
					c0,0-0.1,0.1-0.2,0.1c0,0-0.1,0.1-0.2,0.1c-0.1,0-0.1,0-0.2,0.1C59.8,132.4,59.7,132.4,59.6,132.4z"/>
				<path class="st13" d="M59.6,135.9c-0.1,0-0.1,0-0.2,0c-0.1,0-0.1,0-0.2-0.1c-0.1,0-0.1-0.1-0.2-0.1c0,0-0.1-0.1-0.1-0.1
					c-0.1-0.1-0.2-0.2-0.2-0.3c-0.1-0.1-0.1-0.3-0.1-0.4s0-0.3,0.1-0.4c0.1-0.1,0.1-0.2,0.2-0.3c0,0,0.1-0.1,0.1-0.1
					c0.1,0,0.1-0.1,0.2-0.1c0.1,0,0.1,0,0.2,0c0.1,0,0.3,0,0.4,0c0.1,0,0.1,0,0.2,0c0.1,0,0.1,0.1,0.2,0.1c0.1,0,0.1,0.1,0.2,0.1
					c0.1,0.1,0.2,0.2,0.2,0.3c0,0.1,0.1,0.3,0.1,0.4s0,0.3-0.1,0.4s-0.1,0.2-0.2,0.3c0,0-0.1,0.1-0.2,0.1c0,0-0.1,0.1-0.2,0.1
					c-0.1,0-0.1,0-0.2,0.1C59.8,135.9,59.7,135.9,59.6,135.9z"/>
			</g>
			<g>
				<path class="st13" d="M62.5,128.9c-0.3,0-0.5-0.1-0.7-0.3c0,0-0.1-0.1-0.1-0.2c0,0-0.1-0.1-0.1-0.2c0-0.1,0-0.1-0.1-0.2
					c0-0.1,0-0.1,0-0.2c0-0.1,0-0.1,0-0.2c0-0.1,0-0.1,0.1-0.2c0-0.1,0.1-0.1,0.1-0.2c0,0,0.1-0.1,0.1-0.1c0.4-0.4,1-0.4,1.4,0
					c0.2,0.2,0.3,0.4,0.3,0.7c0,0.1,0,0.1,0,0.2c0,0.1,0,0.1-0.1,0.2c0,0.1-0.1,0.1-0.1,0.2c0,0.1-0.1,0.1-0.1,0.2
					C63.1,128.8,62.8,128.9,62.5,128.9z"/>
				<path class="st13" d="M62.5,132.4c-0.3,0-0.5-0.1-0.7-0.3c-0.2-0.2-0.3-0.4-0.3-0.7c0-0.1,0-0.1,0-0.2c0-0.1,0-0.1,0.1-0.2
					c0-0.1,0.1-0.1,0.1-0.2c0,0,0.1-0.1,0.1-0.1c0.3-0.3,0.7-0.4,1.1-0.2c0.1,0.1,0.2,0.1,0.3,0.2c0,0,0.1,0.1,0.1,0.1
					c0,0.1,0.1,0.1,0.1,0.2c0,0.1,0,0.1,0.1,0.2c0,0.1,0,0.1,0,0.2c0,0.3-0.1,0.5-0.3,0.7C63.1,132.3,62.8,132.4,62.5,132.4z"/>
				<path class="st13" d="M62.5,135.9c-0.3,0-0.5-0.1-0.7-0.3c-0.2-0.2-0.3-0.4-0.3-0.7c0-0.3,0.1-0.5,0.3-0.7
					c0.3-0.3,0.7-0.4,1.1-0.2c0.1,0.1,0.2,0.1,0.3,0.2s0.2,0.2,0.2,0.3c0,0.1,0.1,0.3,0.1,0.4c0,0.3-0.1,0.5-0.3,0.7
					c-0.1,0.1-0.2,0.2-0.3,0.2C62.8,135.9,62.7,135.9,62.5,135.9z"/>
			</g>
		</g>
		<line class="st14" x1="71.6" y1="127.9" x2="90.6" y2="127.9"/>
		<line class="st14" x1="71.6" y1="135" x2="119.1" y2="135"/>
	</g>
	<path class="st13" d="M425.7,105h-13.8c-1.1,0-2-0.9-2-2V89.2c0-1.1,0.9-2,2-2h13.8c1.1,0,2,0.9,2,2V103
		C427.7,104.1,426.8,105,425.7,105z"/>
	<path class="st15" d="M254.1,105H86.8c-1.1,0-2-0.9-2-2V89.2c0-1.1,0.9-2,2-2h167.3c1.1,0,2,0.9,2,2V103
		C256.1,104.1,255.2,105,254.1,105z"/>
	<path class="st15" d="M402.6,105H296.9c-1.1,0-2-0.9-2-2V89.2c0-1.1,0.9-2,2-2h105.7c1.1,0,2,0.9,2,2V103
		C404.6,104.1,403.7,105,402.6,105z"/>
	<g>
		<g>
			<path class="st5" d="M422.7,94.9l-0.3-0.7c0,0,0.6-1.4,0.6-1.5l-0.8-0.8c-0.1-0.1-1.5,0.6-1.5,0.6l-0.7-0.3c0,0-0.6-1.5-0.7-1.5
				h-1.2c-0.1,0-0.6,1.5-0.6,1.5l-0.7,0.3c0,0-1.4-0.6-1.5-0.6l-0.8,0.8c-0.1,0.1,0.6,1.5,0.6,1.5l-0.3,0.7c0,0-1.5,0.6-1.5,0.7v1.2
				c0,0.1,1.5,0.6,1.5,0.6l0.3,0.7c0,0-0.6,1.4-0.6,1.5l0.8,0.8c0.1,0.1,1.5-0.6,1.5-0.6l0.7,0.3c0,0,0.6,1.5,0.7,1.5h1.2
				c0.1,0,0.6-1.5,0.6-1.5l0.7-0.3c0,0,1.4,0.6,1.5,0.6l0.8-0.8c0.1-0.1-0.6-1.5-0.6-1.5l0.3-0.7c0,0,1.5-0.6,1.5-0.7v-1.2
				C424.2,95.4,422.7,94.9,422.7,94.9L422.7,94.9z M420.6,96.1c0,0.9-0.8,1.7-1.7,1.7c-0.9,0-1.7-0.8-1.7-1.7c0-0.9,0.8-1.7,1.7-1.7
				C419.8,94.4,420.6,95.1,420.6,96.1L420.6,96.1z M420.6,96.1"/>
		</g>
	</g>
	<line class="st16" x1="261.8" y1="96.1" x2="285.1" y2="96.1"/>
	<line class="st16" x1="93.3" y1="96.1" x2="116.7" y2="96.1"/>
	<polyline class="st17" points="87.9,203.5 94.2,201.8 106.3,204.5 121.6,201.8 130.9,204.4 148.3,200.8 165.4,204.5 182.9,200.8 
		194,204.5 223.2,195.8 251.6,176.3 	"/>
	<path class="st18" d="M303.4,182l-2.1-0.9l-5.6,1.9c-0.4,0.2-0.9,0.2-1.3,0.1l-5.7-0.8c-0.9-0.3-1.5-1.7-0.5-2
		c0.7-0.2,1.4-0.4,2.1-0.2c1.2,0.4,4.2-0.8,4.8-1.7c0.4-0.6,1.1-1,1.8-1.2l2.6-0.8l5.5,1.5L303.4,182z"/>
	<path class="st18" d="M300.1,175.2l-2.4-1c-0.5-0.2-0.8-0.4-1.3-0.3l-4,0.1c-0.4,1,1,1.4,1,1.4c0.2,0.1,0.7,0.2,1,0.2l1.6,0.3
		l0.7,0.4l0.6,0.6l5.2-0.1L300.1,175.2z"/>
	<linearGradient id="SVGID_5_" gradientUnits="userSpaceOnUse" x1="264.6506" y1="124.6046" x2="478.3516" y2="287.813">
		<stop  offset="0" style="stop-color:#004C6C;stop-opacity:0.4"/>
		<stop  offset="0.155" style="stop-color:#034E6E;stop-opacity:0.338"/>
		<stop  offset="0.2901" style="stop-color:#0E5674;stop-opacity:0.284"/>
		<stop  offset="0.4177" style="stop-color:#20627E;stop-opacity:0.2329"/>
		<stop  offset="0.5409" style="stop-color:#39748D;stop-opacity:0.1837"/>
		<stop  offset="0.6608" style="stop-color:#5A8BA0;stop-opacity:0.1357"/>
		<stop  offset="0.7782" style="stop-color:#82A7B7;stop-opacity:8.871314e-002"/>
		<stop  offset="0.8915" style="stop-color:#B0C8D1;stop-opacity:4.341507e-002"/>
		<stop  offset="1" style="stop-color:#E4ECEF;stop-opacity:0"/>
	</linearGradient>
	<path class="st19" d="M331,124.2c0,0-4.6,1.5-4.3,4.1c0.3,2.6,5.1,3.4,4.3,6.6s2.6,10.8,5.4,12.6c2.8,1.8,4.4,3.9,4.4,3.9v4.3
		l-21.3,34c0,0-3.5,3-8.4,1.4c-4.8-1.6-15.4-7.9-15.4-7.9l-7.5-5.6l-3.9,3.3c0,0,5.4,7.3,8,6.9c2.6-0.4,8.2,6.9,10.9,8.9
		c2.8,2,10.6,5.4,16.2,5.9s24.7-15.3,24.7-15.3c5.3,1.1,4.4,28,4.4,28s13.7,38.3,15,38.8c1.3,0.5,32.5-3.4,35.4-4.6
		c2.9-1.2,10.7,5.6,10.7,5.6s5,4.1,7.6,2s-3.2-18.4-6.1-18.2c-2.9,0.2-31.4-0.7-34-2.6c-2.6-1.9-3.9-30.7-3.9-30.7
		s12-14.9,13.8-20.6c1.8-5.7-1.8-22.1-1.8-22.1L355,150.6L331,124.2z"/>
	<g class="st20">
		<image style="overflow:visible;" width="175" height="77" xlink:href="CE99246B.png"  transform="matrix(1 0 0 1 281 253)">
		</image>
	</g>
	<linearGradient id="SVGID_6_" gradientUnits="userSpaceOnUse" x1="182.1914" y1="194.9512" x2="286.0734" y2="194.3248">
		<stop  offset="0" style="stop-color:#98E4FF;stop-opacity:0"/>
		<stop  offset="1" style="stop-color:#98E4FF"/>
	</linearGradient>
	<path class="st21" d="M286,179.7c0,0-48.3,4.2-59.2,44.3l-14.7-3l-18.5,4.1l-11.3-4l0.9-39.8c0,0,36.8-34.2,102.4-5.3L286,179.7z"
		/>
	<g>
		<g>
			<path id="skeen2_1_" class="st22" d="M402.1,240.9c2.2,0.1,3.8,0.4,4.8,0.7c0.9,0.4,1.8,1.1,2.6,2.3l-2.7-8.2
				c-1.1,0.2-1.9,0.3-2.4,0.4c-0.5,0.1-1.6,0-3.1-0.3L402.1,240.9z"/>
			<g>
				<path class="st23" d="M418.7,251.7l1.3,0.4c0,0,2.5-1.7,2.2-5.2c0,0-0.2-1.4-2.1-3.4c-1.5-1.7-5-6.1-6.2-7.7
					c-0.3-0.4-0.7-0.6-1.2-0.7l-1.9-0.4L418.7,251.7z"/>
				
					<linearGradient id="SVGID_7_" gradientUnits="userSpaceOnUse" x1="2131.2727" y1="-1239.481" x2="2147.134" y2="-1239.481" gradientTransform="matrix(-0.1295 0.9916 0.9916 0.1295 1919.0211 -1717.7366)">
					<stop  offset="0" style="stop-color:#3DA5D5"/>
					<stop  offset="1" style="stop-color:#1B75BB"/>
				</linearGradient>
				<path class="st24" d="M407.1,234.6l3.6,0.1l2.1,3.6l7.9,8.4c0,0,0.2,3-2.1,5l-9.1-7.5l-4.7-3.1l2.1-4.3l-0.6-1.2
					C406.1,235.2,406.5,234.6,407.1,234.6z"/>
				<path class="st25" d="M407.3,234.6l3.5,0.1l1.1,1.8c0,0,2.9,3.6,3.3,4.2s-2.8-0.4-3.9-1.9c-1.1-1.5-3.6-3.1-3.6-3.1L407.3,234.6
					z"/>
				<line class="st26" x1="411.7" y1="241.3" x2="410.4" y2="244.5"/>
				<line class="st26" x1="413.6" y1="242.8" x2="412.3" y2="246"/>
			</g>
			<linearGradient id="SVGID_8_" gradientUnits="userSpaceOnUse" x1="361.5176" y1="211.1331" x2="381.5176" y2="241.1331">
				<stop  offset="0" style="stop-color:#275A7D"/>
				<stop  offset="1" style="stop-color:#00A98F"/>
			</linearGradient>
			<path class="st27" d="M347.1,203.5l9.6,40c-0.1,1.4,0.5,2.7,1.5,3.7l1,1c1,0.9,2.4,1.4,3.7,1.2l41.5-6.1l0.2-8.9l-32.9,0.4
				l5-30.7l-6.3-4l-23.1-1L347.1,203.5z"/>
		</g>
		<linearGradient id="SVGID_9_" gradientUnits="userSpaceOnUse" x1="404.8325" y1="240.6014" x2="409.7611" y2="240.6014">
			<stop  offset="0" style="stop-color:#3DA5D5"/>
			<stop  offset="1" style="stop-color:#1B75BB"/>
		</linearGradient>
		<path class="st28" d="M406.6,237.8l3.2,2.4c0,0-1.7,1.8-1.6,3.3c0,0-2.9-0.9-3.3-2.2C404.5,239.8,406.6,237.8,406.6,237.8z"/>
	</g>
	<g>
		<polygon class="st22" points="343.1,285.4 343.8,271.1 349.7,276.5 349.5,284.2 		"/>
		
			<linearGradient id="SVGID_10_" gradientUnits="userSpaceOnUse" x1="3127.4089" y1="-752.6774" x2="3141.7803" y2="-787.4084" gradientTransform="matrix(-0.7726 0.6348 0.6348 0.7726 3259.614 -1160.8676)">
			<stop  offset="0" style="stop-color:#18A98F"/>
			<stop  offset="1" style="stop-color:#33CFB9"/>
		</linearGradient>
		<path class="st29" d="M375.4,198l1.5,3.7c0.5,1.3,0.6,2.7,0.2,4.1l-2.1,7.5c-1,3.5-3,6.7-5.8,9l-18.9,15.4l-0.1,42.7l-9.2-0.3
			l-6.5-40.4c-0.6-3.4,0.2-7,2.2-9.9l18.7-27.5L375.4,198z"/>
		<g>
			<g>
				
					<linearGradient id="SVGID_11_" gradientUnits="userSpaceOnUse" x1="3047.5464" y1="1920.0464" x2="3069.4331" y2="1920.0464" gradientTransform="matrix(-0.9769 -0.2135 -0.2135 0.9769 3738.6819 -935.939)">
					<stop  offset="0" style="stop-color:#3DA5D5"/>
					<stop  offset="1" style="stop-color:#1B75BB"/>
				</linearGradient>
				<path class="st30" d="M349.5,282.7l1.8,4.6l0,2.8l-22.5,0.3l0.9-2c0.2-0.5,0.6-0.8,1.2-0.9l10.6-2.3l1.9-2.4L349.5,282.7z"/>
				<polygon class="st25" points="351.3,290.1 351.3,287.4 349.5,282.7 346.9,282.8 349.1,287 349.1,290.2 				"/>
				<path class="st23" d="M351.3,290.1v0.4c0,0.7-0.6,1.2-1.2,1.2l-19.9,0.1c-0.6,0-1.1-0.4-1.2-1l-0.1-0.5L351.3,290.1z"/>
				<line class="st26" x1="341.2" y1="287" x2="339.7" y2="285.6"/>
				<line class="st26" x1="339.1" y1="287.4" x2="337.6" y2="285.9"/>
				<line class="st26" x1="336.5" y1="287.8" x2="335" y2="286.3"/>
			</g>
			<linearGradient id="SVGID_12_" gradientUnits="userSpaceOnUse" x1="343.3789" y1="285.229" x2="341.5938" y2="280.7663">
				<stop  offset="0" style="stop-color:#3DA5D5"/>
				<stop  offset="1" style="stop-color:#1B75BB"/>
			</linearGradient>
			<polygon class="st31" points="341.5,285.2 342,281.9 343.9,281.9 344.2,282.8 343.4,282.8 342.2,285.4 			"/>
		</g>
	</g>
	<g>
		<g>
			<path class="st4" d="M354.8,130.3c-0.1-0.5-1.1-2.2-1.3-4.1c-0.2-2-1.4-3.1-3.4-4.4c-2-1.3-5.2-0.7-7.4-0.4c0,0-3.4-0.2-4.5-0.7
				c-1.1-0.5-2.7-1.7-4.5-0.9c-3.9,1.6-4.2,4.2-3.6,6.1c-0.1,0.5-1,0.6-0.9,1.8c0.2,1.2,1.5,0.8,2.3,0.8c0.8,0,1,0.6,0.3,1.3
				c-0.8,0.6-1.2,2.3,1,1.9c0.8-0.1,1.3-0.4,1.6-0.6l0.4,1.3l14.7,5.1c0,0,0.8,3.5,1.6,3.5c4.6,0,1.7-2.9,1.6-4.1
				C352.6,135.6,355.6,135,354.8,130.3z"/>
			<path class="st32" d="M346,149.5l-3.2-2.5l8.3-12l0.8,4.7l2.7,6.9c0,0-6.2,4.3-8.9,4C343,150.3,346,149.5,346,149.5z"/>
			<path class="st18" d="M342,146.5l2.9,4.8c0,0-0.1-1,3.1-1.4c3.2-0.5,2.5-10.3,2.5-10.3L342,146.5z"/>
			<path class="st25" d="M332.9,134.8c-0.1,0-0.2,0-0.2-0.1c-0.2-0.1-0.3-0.4-0.1-0.6l1.1-1.6c0.1-0.2,0.4-0.3,0.6-0.1
				c0.2,0.1,0.3,0.4,0.1,0.6l-1.1,1.6C333.2,134.8,333,134.8,332.9,134.8z"/>
			<path class="st32" d="M354.2,131.7c-0.1-3.7-2.9-1.8-2.9-1.8c-0.9,1.7-2,1.2-2.2,0.9c-0.2-0.4-1-2-1.6-2.1c0,0-0.1,0-0.1,0
				c-0.5,0-1.9,2.8-6.5,2.9c-4.7,0.2-5.7-2.4-6.1-2.9c-0.4-0.4-1-0.5-1-0.5c0,1.5,0.1,5.7,0.4,8.2c0.4,3.1,3.7,11.2,8.5,10.9
				c6.6-0.5,8.1-10,8.1-10l0.1-1.1C350.9,136.3,354.3,135.4,354.2,131.7z"/>
			<path class="st18" d="M352.4,130.8c0,0,0.1,0,0.1,0c0.3,0,0.5,0.2,0.6,0.4c0.3,0.4,0.1,1,0.1,1c0,0.1-0.1,0.1-0.1,0.1
				c0,0-0.1,0-0.1,0c-0.1,0-0.2-0.1-0.1-0.2c0,0,0.1-0.5-0.1-0.8c-0.1-0.1-0.2-0.2-0.3-0.2c0,0,0,0-0.1,0c-0.5,0-0.8,1-0.9,1.4
				c0,0.1-0.1,0.1-0.2,0.1c0,0,0,0,0,0c-0.1,0-0.2-0.1-0.1-0.2C351.2,132.2,351.5,130.8,352.4,130.8z"/>
			<ellipse transform="matrix(0.4146 -0.91 0.91 0.4146 76.4218 391.1291)" class="st33" cx="342.2" cy="136.2" rx="0.5" ry="0.5"/>
			<ellipse transform="matrix(0.4146 -0.91 0.91 0.4146 72.445 384.6712)" class="st33" cx="335.2" cy="136" rx="0.5" ry="0.5"/>
			<path class="st25" d="M346.2,134.7c-0.1,0-0.2-0.1-0.2-0.2c-0.2-0.2-0.1-0.5,0.1-0.7l6.4-4.8c0.2-0.2,0.5-0.1,0.7,0.1
				c0.2,0.2,0.1,0.5-0.1,0.7l-6.4,4.8C346.5,134.7,346.4,134.7,346.2,134.7z"/>
			<path class="st25" d="M340.1,135.5c-0.1,0-0.2-0.1-0.3-0.2c-0.4-0.5-1.4-0.2-1.7-0.1c-0.2,0.1-0.5,0-0.6-0.3
				c-0.1-0.2,0-0.5,0.3-0.6c0.2-0.1,2-0.6,2.8,0.4c0.2,0.2,0.1,0.5-0.1,0.7C340.3,135.4,340.2,135.5,340.1,135.5z"/>
			<path class="st25" d="M335.6,139c-0.6-0.1-1.2-0.3-1.7-0.8c-1.4-1.3-1.5-3.9-1.5-4c0-0.1,0-0.2,0.1-0.3c2.2-2.2,5.5,0.3,5.6,0.5
				c0.1,0.1,0.1,0.2,0.2,0.3c0,0.1,0.5,2.3-0.5,3.5c-0.4,0.5-1,0.8-1.7,0.9C336,139,335.8,139,335.6,139z M333.4,134.4
				c0,0.6,0.2,2.3,1.2,3.1c0.4,0.4,0.9,0.6,1.6,0.5c0.5,0,0.8-0.2,1-0.5c0.5-0.7,0.4-2,0.3-2.6C336.9,134.6,334.8,133.3,333.4,134.4
				z"/>
			<path class="st25" d="M342.9,139.2c-0.7-0.1-1.3-0.3-1.8-0.8c-1.3-1.2-1.3-3.3-1.3-3.3c0-0.2,0.1-0.3,0.2-0.4
				c0.2-0.1,3.8-2.8,6.5-0.9c0.1,0.1,0.2,0.2,0.2,0.3c0,0.1,0.6,2.5-0.6,4.1c-0.6,0.8-1.5,1.2-2.6,1.2
				C343.2,139.2,343,139.2,342.9,139.2z M340.6,135.2c0.1,0.8,0.5,3.1,2.7,3c0.9,0,1.5-0.3,1.9-0.8c0.8-1,0.6-2.6,0.5-3.1
				C343.9,133.3,341.4,134.8,340.6,135.2z"/>
			<path class="st18" d="M338.9,135.6l-1,3.9c-0.1,0.3,0.2,0.6,0.5,0.6l2-0.2L338.9,135.6z"/>
			<path class="st18" d="M339.6,141.8c0.1,0,0.3,0,0.4,0.1c0.5,0.4,1.4-0.1,1.7-0.3c0.2-0.1,0.5-0.1,0.6,0.1
				c0.1,0.2,0.1,0.5-0.1,0.6c-0.2,0.1-1.8,1.1-2.8,0.2c-0.2-0.2-0.2-0.5-0.1-0.7C339.4,141.9,339.5,141.9,339.6,141.8z"/>
		</g>
		<path class="st18" d="M343.3,132.6c0.1,0,0.2,0,0.2-0.1c0.2-0.3,0.5-0.5,0.9-0.6c0.7-0.1,1.3,0.4,1.4,0.5c0.1,0.1,0.2,0.1,0.3,0
			c0.1-0.1,0.1-0.2,0-0.3c0,0-0.8-0.6-1.6-0.5c-0.4,0.1-0.8,0.3-1.1,0.7C343.2,132.4,343.2,132.5,343.3,132.6
			C343.3,132.6,343.3,132.6,343.3,132.6z"/>
		<path class="st18" d="M335.1,133.4c0.1,0,0.2,0,0.2-0.1c0.2-0.3,0.5-0.5,0.9-0.6c0.7-0.1,1.3,0.4,1.4,0.5c0.1,0.1,0.2,0.1,0.3,0
			c0.1-0.1,0.1-0.2,0-0.3c0,0-0.8-0.6-1.6-0.5c-0.4,0.1-0.8,0.3-1.1,0.7C335,133.2,335,133.3,335.1,133.4
			C335.1,133.4,335.1,133.4,335.1,133.4z"/>
	</g>
	<linearGradient id="SVGID_13_" gradientUnits="userSpaceOnUse" x1="319.5199" y1="173.5369" x2="381.9536" y2="173.5369">
		<stop  offset="0" style="stop-color:#1B75BB"/>
		<stop  offset="1" style="stop-color:#3DA5D5"/>
	</linearGradient>
	<path class="st34" d="M354.9,143l-5.4,4.1c-2,1.5-4.5,2.4-7,2.4l0,0l0.6,3.4l-7.2,4l-16.4,23.5l7.9,12.6l13.8-19l3.9,8.2l-0.1,11.9
		l1,3.8l0.3,6l31.1-1.6l0.6-4.2l3.7-3.2l0.3-11.6l-5.6-20.7l4.7-8.2l-8.6-9.4l-15.6-0.5L354.9,143z"/>
	<path class="st35" d="M301.7,176.3l4,0.8l3.3-0.5l10.5,4l9.4,10.6l-0.9,1.5c-0.8,1.4-2.5,1.9-4,1.4l-15.7-5.9l-5-3.8l-0.7-2.5
		l-2-0.4L301.7,176.3z"/>
	<path class="st36" d="M349.9,153.5c1.6-0.8,2.6-1.9,2.6-2c0.1-0.2,0.1-0.4,0-0.6c-0.2-0.1-0.4-0.1-0.6,0c0,0-2.9,3.3-6.7,2.2
		c-0.2-0.1-0.4,0.1-0.5,0.3c-0.1,0.2,0.1,0.4,0.3,0.5C347,154.5,348.6,154.1,349.9,153.5z"/>
	<linearGradient id="SVGID_14_" gradientUnits="userSpaceOnUse" x1="371.4907" y1="209.578" x2="373.9767" y2="202.1201">
		<stop  offset="0" style="stop-color:#004C6C;stop-opacity:0.4"/>
		<stop  offset="0.155" style="stop-color:#034E6E;stop-opacity:0.338"/>
		<stop  offset="0.2901" style="stop-color:#0E5674;stop-opacity:0.284"/>
		<stop  offset="0.4177" style="stop-color:#20627E;stop-opacity:0.2329"/>
		<stop  offset="0.5409" style="stop-color:#39748D;stop-opacity:0.1837"/>
		<stop  offset="0.6608" style="stop-color:#5A8BA0;stop-opacity:0.1357"/>
		<stop  offset="0.7782" style="stop-color:#82A7B7;stop-opacity:8.871314e-002"/>
		<stop  offset="0.8915" style="stop-color:#B0C8D1;stop-opacity:4.341507e-002"/>
		<stop  offset="1" style="stop-color:#E4ECEF;stop-opacity:0"/>
	</linearGradient>
	<path class="st37" d="M439.6,224.2c-0.5,0-1.2,0-3.7,0c-12.8-0.1-10-0.3-28.5,0c-0.1,0-0.2,0-0.4,0c-12.1,0-23.7-9.3-33-16.9
		c-3.2-2.6-6.2-5-8.6-6.6c-7.8-5-8.5-4.8-13.3-3.7c-0.7,0.2-1.4,0.3-2.2,0.5c-5.7,1.3-19.1,1.9-28.3-8.1c-7-7.6-18.3-8.2-18.4-8.2
		l-1-2.2c0.6-0.1,13.7-2.1,22.9,7.8c7.2,7.8,18.9,6.1,23.6,5c0.8-0.2,1.5-0.4,2.1-0.5c6.1-1.5,8.3-1.7,17.7,4.4
		c2.8,1.8,5.9,4.3,9.1,6.9c8.6,7,19.3,15.6,29.4,15.6c0.1,0,0.2,0,0.3,0c18.6-0.3,15.8-0.1,28.6,0c2.5,0,3.2,0,3.7,0
		c1.6,0,2.3-0.4,2.5-0.6c0.3-0.2,0.3-0.3,0.3-0.4c0-0.5-0.8-1.4-2.6-1.4v-5.7c5.2,0,8.3,3.6,8.3,7.1c0,1.9-0.9,3.7-2.4,4.9
		C444.1,223.6,442,224.2,439.6,224.2z"/>
	<linearGradient id="SVGID_15_" gradientUnits="userSpaceOnUse" x1="302.1296" y1="198.5745" x2="448.0041" y2="198.5745">
		<stop  offset="0" style="stop-color:#4AC8F4"/>
		<stop  offset="1" style="stop-color:#98E4FF"/>
	</linearGradient>
	<path class="st38" d="M439.6,221.2c-0.5,0-1.2,0-3.7,0c-12.8-0.1-10-0.3-28.5,0c-0.1,0-0.2,0-0.4,0c-12.1,0-23.7-9.3-33-16.9
		c-3.2-2.6-6.2-5-8.6-6.6c-7.8-5-8.5-4.8-13.3-3.7c-0.7,0.2-1.4,0.3-2.2,0.5c-5.7,1.3-19.8,3.2-29-6.7c-7-7.6-17.7-6.1-17.8-6.1
		l-0.9-5.6c0.6-0.1,13.7-2.1,22.9,7.8c7.2,7.8,18.9,6.1,23.6,5c0.8-0.2,1.5-0.4,2.1-0.5c6.1-1.5,8.3-1.7,17.7,4.4
		c2.8,1.8,5.9,4.3,9.1,6.9c8.6,7,19.3,15.6,29.4,15.6c0.1,0,0.2,0,0.3,0c18.6-0.3,15.8-0.1,28.6,0c2.5,0,3.2,0,3.7,0
		c1.6,0,2.3-0.4,2.5-0.6c0.3-0.2,0.3-0.3,0.3-0.4c0-0.5-0.8-1.4-2.6-1.4v-5.7c5.2,0,8.3,3.6,8.3,7.1c0,1.9-0.9,3.7-2.4,4.9
		C444.1,220.6,442,221.2,439.6,221.2z"/>
	<linearGradient id="SVGID_16_" gradientUnits="userSpaceOnUse" x1="302.1296" y1="198.5745" x2="448.0041" y2="198.5745">
		<stop  offset="0" style="stop-color:#C7EAE9;stop-opacity:0.5"/>
		<stop  offset="0.7959" style="stop-color:#33CFB9;stop-opacity:0.6"/>
		<stop  offset="1" style="stop-color:#C7EAE9"/>
	</linearGradient>
	<path class="st39" d="M439.6,221.2c-0.5,0-1.2,0-3.7,0c-12.8-0.1-10-0.3-28.5,0c-0.1,0-0.2,0-0.4,0c-12.1,0-23.7-9.3-33-16.9
		c-3.2-2.6-6.2-5-8.6-6.6c-7.8-5-8.5-4.8-13.3-3.7c-0.7,0.2-1.4,0.3-2.2,0.5c-5.7,1.3-19.8,3.2-29-6.7c-7-7.6-17.7-6.1-17.8-6.1
		l-0.9-5.6c0.6-0.1,13.7-2.1,22.9,7.8c7.2,7.8,18.9,6.1,23.6,5c0.8-0.2,1.5-0.4,2.1-0.5c6.1-1.5,8.3-1.7,17.7,4.4
		c2.8,1.8,5.9,4.3,9.1,6.9c8.6,7,19.3,15.6,29.4,15.6c0.1,0,0.2,0,0.3,0c18.6-0.3,15.8-0.1,28.6,0c2.5,0,3.2,0,3.7,0
		c1.6,0,2.3-0.4,2.5-0.6c0.3-0.2,0.3-0.3,0.3-0.4c0-0.5-0.8-1.4-2.6-1.4v-5.7c5.2,0,8.3,3.6,8.3,7.1c0,1.9-0.9,3.7-2.4,4.9
		C444.1,220.6,442,221.2,439.6,221.2z"/>
	<linearGradient id="SVGID_17_" gradientUnits="userSpaceOnUse" x1="355.3124" y1="185.345" x2="386.8065" y2="165.454">
		<stop  offset="0" style="stop-color:#004C6C;stop-opacity:0.4"/>
		<stop  offset="0.155" style="stop-color:#034E6E;stop-opacity:0.338"/>
		<stop  offset="0.2901" style="stop-color:#0E5674;stop-opacity:0.284"/>
		<stop  offset="0.4177" style="stop-color:#20627E;stop-opacity:0.2329"/>
		<stop  offset="0.5409" style="stop-color:#39748D;stop-opacity:0.1837"/>
		<stop  offset="0.6608" style="stop-color:#5A8BA0;stop-opacity:0.1357"/>
		<stop  offset="0.7782" style="stop-color:#82A7B7;stop-opacity:8.871314e-002"/>
		<stop  offset="0.8915" style="stop-color:#B0C8D1;stop-opacity:4.341507e-002"/>
		<stop  offset="1" style="stop-color:#E4ECEF;stop-opacity:0"/>
	</linearGradient>
	<path class="st40" d="M355.9,193.4c0,0,5.5-3.7,6.2-4.3c0.8-0.6,12.8-3.9,12.8-3.9s-1.8-8.8-4.6-9.8c-2.8-1-3.6-3.4-0.8-8.6
		c2.8-5.2,0.4-12.5,0.4-12.5s6.1,6.1,8,14c1.8,7.9,4.1,15.8,4.1,15.8l-0.2,6.4c0,0-9.9,0.7-11.1,1.9c-1.2,1.2-6.7,4.2-6.7,4.2
		L355.9,193.4z"/>
	<path class="st32" d="M367.1,186.3l-5.1,1.9l-2.8,2.2c-0.4,0.3-0.3,1,0.3,1.1l0.4,0.1c0.1,0,0.3,0,0.4,0l3.2-1.5l-2.9,3l-4.6,0.4
		c-0.3,0-0.5,0.4-0.2,0.7l1.2,1.2l2.7,1l1.9,0.8c0.9,0.3,1.8,0.2,2.6-0.4l4.8-3.9l2.8-4.1l-0.9-3.6L367.1,186.3z"/>
	<linearGradient id="SVGID_18_" gradientUnits="userSpaceOnUse" x1="368.0758" y1="167.4513" x2="399.0121" y2="167.4513">
		<stop  offset="0" style="stop-color:#1B75BB"/>
		<stop  offset="1" style="stop-color:#3DA5D5"/>
	</linearGradient>
	<path class="st41" d="M372.8,145.4l23.8,18.7c2,1.6,2.8,4.1,2.2,6.6v0c-0.4,1.5-1.3,2.7-2.5,3.6L377,187.5l-5.9,2.1l-3-4.4l1.9-1.7
		l1-4.9l11.6-9.6l-8-5.5c-3.5-2.4-5.5-6.5-5.3-10.7l0.2-4c0.1-0.9,0.6-1.7,1.4-2.2L372.8,145.4z"/>
	<g>
		<linearGradient id="SVGID_19_" gradientUnits="userSpaceOnUse" x1="283.404" y1="177.8076" x2="286.3997" y2="177.8076">
			<stop  offset="0" style="stop-color:#3DA5D5"/>
			<stop  offset="1" style="stop-color:#1B75BB"/>
		</linearGradient>
		<path class="st42" d="M283.6,175.7l-0.2,4c0,0.6,0.4,1,0.9,1.1l0.8,0c0.6,0,1-0.4,1.1-0.9l0.2-4c0-0.6-0.4-1-0.9-1.1l-0.8,0
			C284.1,174.8,283.7,175.2,283.6,175.7z"/>
		<linearGradient id="SVGID_20_" gradientUnits="userSpaceOnUse" x1="294.7078" y1="176.8637" x2="294.7078" y2="180.8637">
			<stop  offset="0" style="stop-color:#3DA5D5"/>
			<stop  offset="1" style="stop-color:#1B75BB"/>
		</linearGradient>
		<polygon class="st43" points="303.1,181.7 286,179.7 286.2,176.1 303.4,176 		"/>
		<linearGradient id="SVGID_21_" gradientUnits="userSpaceOnUse" x1="301.7254" y1="178.8474" x2="304.8174" y2="178.8474">
			<stop  offset="0" style="stop-color:#3DA5D5"/>
			<stop  offset="1" style="stop-color:#1B75BB"/>
		</linearGradient>
		<path class="st44" d="M302,176l-0.3,5.6c0,0.8,0.4,1.4,0.9,1.5l0.8,0c0.6,0,1-0.6,1.1-1.4l0.3-5.6c0-0.8-0.4-1.4-0.9-1.5l-0.8,0
			C302.6,174.6,302.1,175.2,302,176z"/>
	</g>
	<path class="st32" d="M290.3,175.8l-1.5,0.9c-0.3,0.2-0.5,0.5-0.6,0.8l-0.7,3.2c-0.1,0.3,0,0.6,0.1,0.9l0,0c0.2,0.4,0.6,0.7,1,0.7
		l5.8,0.8c0.2,0,0.7,0.1,0.9,0l1-0.4l-0.1-0.1c-1-0.8-1.5-2.2-1.2-3.5l0.4-1.4l1.5-1c0.3-0.2,0.3-0.6,0-0.9l-0.4-0.3
		c-0.3-0.3-0.8-0.4-1.2-0.4l-2.7,0.3c-0.3,0-0.6,0.2-0.8,0.4l-0.8,0.9c-0.1,0.1-0.1,0.2-0.2,0.3l-1.1,2l0.2-1.4
		c0-0.3,0.2-0.5,0.4-0.7c0.5-0.4,1.6-1.2,1.3-1.3c-0.3-0.1-1.1,0-1.1,0C290.6,175.7,290.4,175.7,290.3,175.8z"/>
	<g>
		<path class="st4" d="M62.2,108c-5.8,0-10.7-4.7-10.7-10.7c0-5.8,4.7-10.7,10.7-10.7s10.7,4.7,10.7,10.7
			C72.9,103.2,68.1,108,62.2,108z M62.2,88.2c-5,0-9.1,4-9.1,9.1s4,9.1,9.1,9.1s9.1-4,9.1-9.1S67.2,88.2,62.2,88.2z"/>
		<circle class="st13" cx="62.2" cy="97.3" r="6.6"/>
		<path id="Combined-Shape_3_" class="st4" d="M56.7,99.9c-0.9,0-1.7-0.7-1.7-1.7c0-0.9,0.7-1.7,1.7-1.7c0.9,0,1.7,0.7,1.7,1.7
			C58.5,99.2,57.6,99.9,56.7,99.9z M56.7,98.8c0.3,0,0.6-0.2,0.6-0.6c0-0.3-0.2-0.6-0.6-0.6c-0.3,0-0.6,0.2-0.6,0.6
			C56.2,98.6,56.4,98.8,56.7,98.8z"/>
		<path id="Combined-Shape_2_" class="st4" d="M62.2,93.9c-0.9,0-1.7-0.7-1.7-1.7c0-0.9,0.7-1.7,1.7-1.7c0.9,0,1.7,0.7,1.7,1.7
			C63.9,93.2,63.1,93.9,62.2,93.9z M62.2,92.8c0.3,0,0.6-0.2,0.6-0.6c0-0.3-0.2-0.6-0.6-0.6c-0.3,0-0.6,0.2-0.6,0.6
			S61.9,92.8,62.2,92.8z"/>
		<path id="Combined-Shape_1_" class="st4" d="M67.9,99.9c-0.9,0-1.7-0.7-1.7-1.7c0-0.9,0.7-1.7,1.7-1.7c1,0,1.7,0.7,1.7,1.7
			C69.6,99.2,68.9,99.9,67.9,99.9z M67.9,98.8c0.3,0,0.6-0.2,0.6-0.6c0-0.3-0.2-0.6-0.6-0.6c-0.4,0-0.6,0.2-0.6,0.6
			C67.4,98.6,67.6,98.8,67.9,98.8z"/>
		<rect x="56.4" y="94.4" transform="matrix(0.6416 -0.767 0.767 0.6416 -51.6341 79.556)" class="st4" width="5.8" height="1.2"/>
		<rect x="64.4" y="92" transform="matrix(0.7277 -0.6859 0.6859 0.7277 -47.4316 70.4589)" class="st4" width="1.2" height="5.9"/>
		<path class="st4" d="M68.6,98c-0.1,0-0.3-0.1-0.4-0.2c-0.2-0.2-0.3-0.6,0-0.9l5.4-6.1c0.2-0.2,0.6-0.3,0.9,0
			c0.2,0.2,0.3,0.6,0,0.9l-5.4,6.1C68.9,97.9,68.7,98,68.6,98z"/>
		<path class="st4" d="M74.9,110.6c-0.2,0-0.4-0.1-0.6-0.2l-5.6-5.6c-0.3-0.3-0.3-0.8,0-1.1c0.3-0.3,0.8-0.3,1.1,0l5.6,5.6
			c0.3,0.3,0.3,0.8,0,1.1C75.3,110.5,75.1,110.6,74.9,110.6z"/>
	</g>
</g>
</svg>
