<?xml version="1.0" encoding="UTF-8"?>
<svg width="34px" height="28px" viewBox="0 0 34 28" version="1.1" xmlns="http://www.w3.org/2000/svg" xmlns:xlink="http://www.w3.org/1999/xlink">
    <!-- Generator: Sketch 52.5 (67469) - http://www.bohemiancoding.com/sketch -->
    <title>02_idle_white</title>
    <desc>Created with Sketch.</desc>
    <g id="graphics" stroke="none" stroke-width="1" fill="none" fill-rule="evenodd">
        <g id="Icons" transform="translate(-155.000000, -599.000000)" stroke="#FFFFFF">
            <g id="02_idle_white" transform="translate(156.000000, 600.000000)">
                <g id="idle">
                    <g id="Group-2">
                        <g id="Group" transform="translate(0.000000, 13.846154)">
                            <path d="M-1.5384615e-07,6.92307692 L21.9563293,6.92307692 C23.655667,6.92307692 25.0332524,5.54549154 25.0332524,3.84615385 L25.0332524,3.07692308 C25.0332524,1.37758538 23.655667,-2.54019028e-13 21.9563293,-2.54019028e-13 L6.8457717,-2.54019028e-13" id="Rectangle" stroke-width="1.4" transform="translate(12.516626, 3.461538) rotate(180.000000) translate(-12.516626, -3.461538) "></path>
                            <path d="M5.84859585,3.62637362 C5.84859585,3.32252747 5.60299145,3.07692308 5.2991453,3.07692308 L4.39560439,3.07692308 C4.09175824,3.07692308 3.84615385,3.32252747 3.84615385,3.62637362 C3.84615385,3.93021978 4.09175824,4.17582418 4.39560439,4.17582418 L5.2991453,4.17582418 C5.60299145,4.17582418 5.84859585,3.93021978 5.84859585,3.62637362 Z" id="Path-Copy-2" stroke-width="0.4" fill="#FFFFFF"></path>
                            <path d="M19.9814527,3.62637362 C19.9814527,3.32252747 19.7358483,3.07692308 19.4320022,3.07692308 L8.24175823,3.07692308 C7.93791208,3.07692308 7.69230769,3.32252747 7.69230769,3.62637362 C7.69230769,3.93021978 7.93791208,4.17582418 8.24175823,4.17582418 L19.4320022,4.17582418 C19.7358483,4.17582418 19.9814527,3.93021978 19.9814527,3.62637362 Z" id="Path" stroke-width="0.4" fill="#FFFFFF"></path>
                            <path d="M19.9738625,6.86394794 C19.9738625,6.56010178 19.7358483,6.5210229 19.4320022,6.5210229 L8.24175823,6.5210229 C7.93791208,6.5210229 7.69230769,6.39945055 7.69230769,6.7032967 C7.69230769,7.00714285 7.93791208,7.32282011 8.24175823,7.32282011 L19.4320022,7.32282011 C19.7358483,7.32282011 19.9738625,7.16779408 19.9738625,6.86394794 Z" id="Path-Copy" stroke-width="0.6" fill="#FFFFFF"></path>
                        </g>
                        <g id="Group-Copy" transform="translate(0.000000, 6.923077)">
                            <rect id="Rectangle" stroke-width="1.4" x="0" y="0" width="28.4615385" height="6.92307692" rx="3.46153846"></rect>
                            <path d="M5.84859585,3.62637362 C5.84859585,3.32252747 5.60299145,3.07692308 5.2991453,3.07692308 L4.39560439,3.07692308 C4.09175824,3.07692308 3.84615385,3.32252747 3.84615385,3.62637362 C3.84615385,3.93021978 4.09175824,4.17582418 4.39560439,4.17582418 L5.2991453,4.17582418 C5.60299145,4.17582418 5.84859585,3.93021978 5.84859585,3.62637362 Z" id="Path-Copy-2" stroke-width="0.4" fill="#FFFFFF"></path>
                            <path d="M24.8351648,3.62637362 C24.8351648,3.32252747 24.5895605,3.07692308 24.2857143,3.07692308 L9.010989,3.07692308 C8.70714285,3.07692308 8.46153846,3.32252747 8.46153846,3.62637362 C8.46153846,3.93021978 8.70714285,4.17582418 9.010989,4.17582418 L24.2857143,4.17582418 C24.5895605,4.17582418 24.8351648,3.93021978 24.8351648,3.62637362 Z" id="Path" stroke-width="0.4" fill="#FFFFFF"></path>
                        </g>
                        <g id="Group-Copy-2">
                            <rect id="Rectangle" stroke-width="1.4" x="0" y="0" width="28.4615385" height="6.92307692" rx="3.46153846"></rect>
                            <path d="M5.84859585,3.62637362 C5.84859585,3.32252747 5.60299145,3.07692308 5.2991453,3.07692308 L4.39560439,3.07692308 C4.09175824,3.07692308 3.84615385,3.32252747 3.84615385,3.62637362 C3.84615385,3.93021978 4.09175824,4.17582418 4.39560439,4.17582418 L5.2991453,4.17582418 C5.60299145,4.17582418 5.84859585,3.93021978 5.84859585,3.62637362 Z" id="Path-Copy-2" stroke-width="0.4" fill="#FFFFFF"></path>
                            <path d="M24.8351648,3.62637362 C24.8351648,3.32252747 24.5895605,3.07692308 24.2857143,3.07692308 L9.010989,3.07692308 C8.70714285,3.07692308 8.46153846,3.32252747 8.46153846,3.62637362 C8.46153846,3.93021978 8.70714285,4.17582418 9.010989,4.17582418 L24.2857143,4.17582418 C24.5895605,4.17582418 24.8351648,3.93021978 24.8351648,3.62637362 Z" id="Path" stroke-width="0.4" fill="#FFFFFF"></path>
                        </g>
                    </g>
                </g>
                <g id="clock-circular-outline-copy" transform="translate(22.000000, 16.000000)" fill="#FFFFFF" stroke-width="0.3">
                    <path d="M5.05311367,0.168532535 C2.29071048,0.168532535 0.0433124029,2.41593062 0.0433124029,5.1783338 C0.0433124029,7.94073697 2.29071048,10.1881351 5.05311367,10.1881351 C7.81551685,10.1881351 10.0629149,7.94073697 10.0629149,5.1783338 C10.0629149,2.41593062 7.81551685,0.168532535 5.05311367,0.168532535 Z M5.05311367,9.12213433 C2.87852166,9.12213433 1.10921001,7.35302892 1.10921001,5.1783338 C1.10921001,3.00363868 2.87852166,1.23453326 5.05311367,1.23453326 C7.22770567,1.23453326 8.99701732,3.00363868 8.99701732,5.1783338 C8.99701732,7.35302892 7.22770567,9.12213433 5.05311367,9.12213433 Z" id="Shape" fill-rule="nonzero"></path>
                    <path d="M7.0994926,5.03279896 L5.48016154,5.03279896 L5.48016154,3.06467499 C5.48016154,2.83687237 5.29546508,2.65217591 5.06766247,2.65217591 C4.83985984,2.65217591 4.65516338,2.83687237 4.65516338,3.06467499 L4.65516338,5.44529805 C4.65516338,5.67310066 4.83985984,5.85779712 5.06766247,5.85779712 L7.0994926,5.85779712 C7.32729521,5.85779712 7.51199167,5.67310066 7.51199167,5.44529805 C7.51199167,5.21749544 7.32729521,5.03279896 7.0994926,5.03279896 Z" id="Path"></path>
                </g>
            </g>
        </g>
    </g>
</svg>