<?xml version="1.0" encoding="UTF-8"?>
<svg width="25px" height="26px" viewBox="0 0 25 26" version="1.1" xmlns="http://www.w3.org/2000/svg" xmlns:xlink="http://www.w3.org/1999/xlink">
    <!-- Generator: Sketch 52.5 (67469) - http://www.bohemiancoding.com/sketch -->
    <title>02_aws_color</title>
    <desc>Created with Sketch.</desc>
    <g id="graphics" stroke="none" stroke-width="1" fill="none" fill-rule="evenodd">
        <g id="Icons" transform="translate(-239.000000, -104.000000)" stroke-width="0.6">
            <g id="02_aws_color" transform="translate(240.000000, 105.000000)">
                <g id="list-2" fill="#3BA5D6" stroke="#3BA5D6">
                    <path d="M4.66838159,5.16215494 C4.43049228,5.16215494 4.23820202,5.35444522 4.23820202,5.59233453 C4.23820202,5.83022383 4.43049228,6.0225141 4.66838159,6.0225141 L19.573601,6.0225141 C19.8114903,6.0225141 20.0037806,5.83022383 20.0037806,5.59233453 C20.0037806,5.35444522 19.8114903,5.16215494 19.573601,5.16215494 L4.66838159,5.16215494 Z" id="Path"></path>
                    <path d="M20.0463684,11.8729564 C20.0463684,11.6350671 19.8540781,11.4427768 19.6161888,11.4427768 L4.71096937,11.4427768 C4.47308007,11.4427768 4.2807898,11.6350671 4.2807898,11.8729564 C4.2807898,12.1108457 4.47308007,12.3031359 4.71096937,12.3031359 L19.6161888,12.3031359 C19.8540781,12.3031359 20.0463684,12.1108457 20.0463684,11.8729564 Z" id="Path"></path>
                    <path d="M15.8306085,18.1535782 C15.8306085,17.9156889 15.6383182,17.7233986 15.4004289,17.7233986 L4.71096937,17.7233986 C4.47308007,17.7233986 4.2807898,17.9156889 4.2807898,18.1535782 C4.2807898,18.3914675 4.47308007,18.5837578 4.71096937,18.5837578 L15.4004289,18.5837578 C15.6383182,18.5837578 15.8306085,18.3914675 15.8306085,18.1535782 Z" id="Path-Copy"></path>
                    <path d="M10.9700094,22.9715895 L5.45338652,22.9715895 C3.03964891,22.9715895 1.07587913,21.0082499 1.07587913,18.5940821 L1.07587913,5.23786655 C1.07587913,2.82369876 3.03964891,0.860359158 5.45338652,0.860359158 L18.2073507,0.860359158 C20.6210883,0.860359158 22.5848581,2.82369876 22.5848581,5.23786655 L22.5848581,12.9053873 C22.5848581,13.1432767 22.7771483,13.3355669 23.0150376,13.3355669 C23.252927,13.3355669 23.4452172,13.1432767 23.4452172,12.9053873 L23.4452172,5.23786655 C23.4452172,2.34964086 21.0955763,0 18.2073507,0 L5.45338652,0 C2.56516083,0 0.215519969,2.34964086 0.215519969,5.23786655 L0.215519969,18.5940821 C0.215519969,21.4823078 2.56516083,23.8319487 5.45338652,23.8319487 L10.9700094,23.8319487 C11.2078987,23.8319487 11.400189,23.6396584 11.400189,23.4017691 C11.400189,23.1638798 11.2078987,22.9715895 10.9700094,22.9715895 Z" id="Path"></path>
                </g>
                <g id="add" transform="translate(18.067542, 14.454034)" fill="#2FC3AA" stroke="#2FC3AA">
                    <path d="M2.21232171,8.39437131 C2.20646696,8.39398105 2.20080736,8.39339554 2.19495257,8.39339554 C2.18909778,8.39339554 2.18343818,8.39398105 2.17758344,8.39437131 C1.35889169,8.38402794 0.700425461,7.71795047 0.699449627,6.89925876 C0.699449627,6.70605139 0.542932187,6.54953389 0.349724814,6.54953389 C0.156517492,6.54953389 0,6.70605139 0,6.89925876 C0.00156127149,7.97595058 0.782587362,8.89300241 1.84522776,9.06591325 L1.84522776,9.84225549 C1.84522776,10.0354629 2.0017452,10.1919803 2.19495257,10.1919803 C2.38815994,10.1919803 2.54467739,10.0354629 2.54467739,9.84225549 L2.54467739,9.06591325 C3.67406217,8.88363482 4.47401866,7.86412454 4.38248908,6.72381082 C4.2911547,5.58349716 3.33897428,4.7045013 2.19495257,4.70430616 C1.36903995,4.70430616 0.699449627,4.03491103 0.699449627,3.20880321 C0.699449627,2.38289059 1.36903995,1.71330032 2.19495257,1.71330032 C3.02106034,1.71330032 3.69045552,2.38289059 3.69045552,3.20899841 C3.69045552,3.40201058 3.84716811,3.55872322 4.04018033,3.55872322 C4.23338766,3.55872322 4.38990515,3.40201058 4.38990515,3.20899841 C4.38853902,2.13211137 3.60751298,1.21486437 2.54467739,1.04195357 L2.54467739,0.349724814 C2.54467739,0.156517442 2.38815994,0 2.19495257,0 C2.0017452,0 1.84522776,0.156517442 1.84522776,0.349724814 L1.84522776,1.04195357 C0.716038178,1.22481749 -0.0835280247,2.24393743 0.00800150393,3.38425111 C0.099335936,4.52436964 1.05112606,5.40317035 2.19495257,5.40356064 C3.0175475,5.40356064 3.68557656,6.06768651 3.69045552,6.89028142 C3.69513933,7.71268119 3.03472149,8.38461339 2.21232171,8.39417618 L2.21232171,8.39437131 Z" id="Path"></path>
                </g>
            </g>
        </g>
    </g>
</svg>