<?xml version="1.0" encoding="UTF-8"?>
<svg width="34px" height="32px" viewBox="0 0 34 32" version="1.1" xmlns="http://www.w3.org/2000/svg" xmlns:xlink="http://www.w3.org/1999/xlink">
    <!-- Generator: Sketch 52.5 (67469) - http://www.bohemiancoding.com/sketch -->
    <title>Group 2 Copy 5</title>
    <desc>Created with Sketch.</desc>
    <g id="graphics" stroke="none" stroke-width="1" fill="none" fill-rule="evenodd">
        <g id="Icons" transform="translate(-399.000000, -594.000000)" stroke="#FFFFFF">
            <g id="Group-2-Copy-5" transform="translate(400.000000, 595.000000)">
                <path d="M25.2833333,6.11917746 C24.984377,6.11930492 24.6858083,6.13906119 24.3895,6.17831882 C22.9972125,1.59499073 18.1032167,-1.00678308 13.4585125,0.367106443 C9.91663333,1.41476253 7.82088063,3.8900619 7.61473063,7.53311885 C7.4385473,7.51680399 7.26133063,7.50864656 7.08463063,7.50864656 C5.43666993,7.50864656 0.598148856,11.0629063 0.680634092,14 C0.755255673,16.6570886 5.19247945,19.375 6.68333333,19.375 L7.71666667,19.375 L25.2833333,19.375 C28.9928708,19.375 32,16.4076077 32,12.7470887 C32,9.08656984 28.9928708,6.11917746 25.2833333,6.11917746 Z M26.2681207,17.9682677 C25.8927363,18.0446901 25.5103112,18.0832099 25.1268077,18.0833333 L20.9222562,18.0833333 L20.0913663,18.0833333 L15.8038051,18.0833333 L14.9778561,18.0833333 L12.4406182,18.0833333 L11.4257231,18.0833333 L9.58336608,18.4540338 L7.71666667,18.8461538 C4.47725479,20.8342491 0.680634092,16.0480649 0.680634092,13.5934159 C0.680634092,12.1901016 1.75027752,9.98380258 3.35737348,9 C4.56144776,8.26291185 6.17963262,8.54426292 7.25999217,8.54426292 C7.56883745,8.54450992 7.87685813,8.57475783 8.17948718,8.63463628 C8.32994539,8.66327927 8.48566836,8.6250681 8.6042208,8.53043538 C8.72232923,8.43500014 8.78969289,8.29264976 8.78740938,8.14326212 C8.78740938,8.13338525 8.78284235,8.06029642 8.7823349,8.05041955 C8.77954394,3.96145748 11.7820147,1.29438447 15.9836172,1.29166833 C19.5023856,1.28938431 22.5635631,3.63581973 23.385755,6.96543572 C23.4496934,7.22501218 23.7139468,7.38816571 23.9825134,7.33384293 C27.0000504,6.71962514 29.9578355,8.60227987 30.5889734,11.5389199 C31.2201113,14.47556 29.2855943,17.35405 26.2681207,17.9682677 Z" id="Shape-Copy-3" stroke-width="0.3" fill="#FFFFFF" fill-rule="nonzero"></path>
                <g id="Group-Copy-3-Copy-2" transform="translate(5.000000, 19.000000)">
                    <path d="M3.28293586,0.565488719 C1.88263719,0.565488719 0.74747082,1.35930531 0.74747082,2.75960399 C0.74747082,4.15990267 1.88263719,5.29506903 3.28293586,5.29506903 L18.353219,5.29506903 C19.7535177,5.29506903 20.8886841,4.15990267 20.8886841,2.75960399 C20.8886841,1.35930531 19.7535177,0.565488719 18.353219,0.565488719 L3.28293586,0.565488719 Z" id="Rectangle" stroke-width="1.2"></path>
                    <path d="M4.77117185,2.82135813 C4.77117185,2.57983939 4.57594784,2.38461538 4.3344291,2.38461538 L3.61622992,2.38461538 C3.37471119,2.38461538 3.17948718,2.57983939 3.17948718,2.82135813 C3.17948718,3.06287686 3.37471119,3.25810087 3.61622992,3.25810087 L4.3344291,3.25810087 C4.57594784,3.25810087 4.77117185,3.06287686 4.77117185,2.82135813 Z" id="Path-Copy-2" stroke-width="0.3" fill="#FFFFFF"></path>
                    <path d="M18.5790364,2.82135813 C18.5790364,2.57983939 18.3957354,2.38461538 18.1689672,2.38461538 L6.76904355,2.38461538 C6.54227529,2.38461538 6.35897436,2.57983939 6.35897436,2.82135813 C6.35897436,3.06287686 6.54227529,3.25810087 6.76904355,3.25810087 L18.1689672,3.25810087 C18.3957354,3.25810087 18.5790364,3.06287686 18.5790364,2.82135813 Z" id="Path" stroke-width="0.3" fill="#FFFFFF"></path>
                </g>
                <g id="Group-Copy-4-Copy-2" transform="translate(5.000000, 25.000000)">
                    <path d="M3.28293586,0.224138942 C1.88263719,0.224138942 0.74747082,1.35930531 0.74747082,2.75960399 C0.74747082,4.15990267 1.88263719,5.29506903 3.28293586,5.29506903 L18.353219,5.29506903 C19.7535177,5.29506903 20.8886841,4.15990267 20.8886841,2.75960399 C20.8886841,1.35930531 19.7535177,0.224138942 18.353219,0.224138942 L3.28293586,0.224138942 Z" id="Rectangle" stroke-width="1.2"></path>
                    <path d="M4.77117185,2.82135813 C4.77117185,2.57983939 4.57594784,2.38461538 4.3344291,2.38461538 L3.61622992,2.38461538 C3.37471119,2.38461538 3.17948718,2.57983939 3.17948718,2.82135813 C3.17948718,3.06287686 3.37471119,3.25810087 3.61622992,3.25810087 L4.3344291,3.25810087 C4.57594784,3.25810087 4.77117185,3.06287686 4.77117185,2.82135813 Z" id="Path-Copy-2" stroke-width="0.3" fill="#FFFFFF"></path>
                    <path d="M18.5790364,2.82135813 C18.5790364,2.57983939 18.3957354,2.38461538 18.1689672,2.38461538 L6.76904355,2.38461538 C6.54227529,2.38461538 6.35897436,2.57983939 6.35897436,2.82135813 C6.35897436,3.06287686 6.54227529,3.25810087 6.76904355,3.25810087 L18.1689672,3.25810087 C18.3957354,3.25810087 18.5790364,3.06287686 18.5790364,2.82135813 Z" id="Path" stroke-width="0.3" fill="#FFFFFF"></path>
                </g>
                <g id="Group-4" transform="translate(0.000000, 7.000000)" fill="#FFFFFF" stroke-width="0.3">
                    <g id="clock-circular-outline-copy-4" transform="translate(0.071429, 0.071429)">
                        <path d="M6.39842315,0.213401587 C2.90057496,0.213401587 0.054843627,3.05913293 0.054843627,6.55698112 C0.054843627,10.0548293 2.90057496,12.9005606 6.39842315,12.9005606 C9.89627133,12.9005606 12.7420027,10.0548293 12.7420027,6.55698112 C12.7420027,3.05913293 9.89627133,0.213401587 6.39842315,0.213401587 Z M6.39842315,11.5507545 C3.64488133,11.5507545 1.40451917,9.3106535 1.40451917,6.55698112 C1.40451917,3.80330872 3.64488133,1.5632077 6.39842315,1.5632077 C9.15196497,1.5632077 11.3923271,3.80330872 11.3923271,6.55698112 C11.3923271,9.3106535 9.15196497,11.5507545 6.39842315,11.5507545 Z" id="Shape" fill-rule="nonzero"></path>
                        <path d="M8.98961725,6.37269999 L6.93916558,6.37269999 L6.93916558,3.88059495 C6.93916558,3.59214359 6.70529669,3.3582747 6.41684533,3.3582747 C6.12839395,3.3582747 5.89452506,3.59214359 5.89452506,3.88059495 L5.89452506,6.89502026 C5.89452506,7.18347162 6.12839395,7.41734051 6.41684533,7.41734051 L8.98961725,7.41734051 C9.27806862,7.41734051 9.51193751,7.18347162 9.51193751,6.89502026 C9.51193751,6.6065689 9.27806862,6.37269999 8.98961725,6.37269999 Z" id="Path"></path>
                    </g>
                </g>
            </g>
        </g>
    </g>
</svg>