<?xml version="1.0" encoding="UTF-8"?>
<svg width="48px" height="48px" viewBox="0 0 48 48" version="1.1" xmlns="http://www.w3.org/2000/svg" xmlns:xlink="http://www.w3.org/1999/xlink">
    <!-- Generator: sketchtool 52.5 (67469) - http://www.bohemiancoding.com/sketch -->
    <title>846A2B84-28DF-4DD6-AAE4-3115371AF942</title>
    <desc>Created with sketchtool.</desc>
    <g id="graphics" stroke="none" stroke-width="1" fill="none" fill-rule="evenodd">
        <g id="Graphics" transform="translate(-191.000000, -491.000000)">
            <g id="AWS-Services-Report-Copy-2" transform="translate(191.000000, 491.000000)">
                <path d="M32.3971951,20.3849198 C25.6881835,10.0222766 18.9456268,8.78010227 12.169525,16.6583969 C2.00537242,28.4758388 1.56928666,41.0318708 9.92200613,39.1518232 C13.503995,38.3455817 29.0842547,39.5384717 34.2578692,34.5924978 C36.1706497,32.7638802 34.9361501,25.7183882 32.3971951,20.3849198 Z" id="Path-3" fill="#439BC3" fill-rule="nonzero" opacity="0.12" transform="translate(19.627676, 25.447149) scale(-1, 1) rotate(-15.000000) translate(-19.627676, -25.447149) "></path>
                <rect id="Rectangle-14" fill="#113B58" fill-rule="nonzero" x="0" y="46" width="46" height="1.5" rx="0.75"></rect>
                <rect id="Rectangle-14-Copy" fill="#113B58" fill-rule="nonzero" x="0" y="40" width="4" height="1.5" rx="0.75"></rect>
                <rect id="Rectangle-14-Copy-2" fill="#113B58" fill-rule="nonzero" x="0" y="34" width="4" height="1.5" rx="0.75"></rect>
                <rect id="Rectangle-14-Copy-4" fill="#113B58" fill-rule="nonzero" x="0" y="21" width="4" height="1.5" rx="0.75"></rect>
                <rect id="Rectangle-14-Copy-3" fill="#113B58" fill-rule="nonzero" x="0" y="28" width="4" height="1.5" rx="0.75"></rect>
                <rect id="Rectangle-14-Copy-5" fill="#113B58" fill-rule="nonzero" x="0" y="15" width="4" height="1.5" rx="0.75"></rect>
                <path d="M27.7374186,2.19255787 L29.25,2.19255787 C29.6642136,2.19255787 30,2.52834432 30,2.94255787 C30,3.35677145 29.6642136,3.69255787 29.25,3.69255787 L27.7374186,3.69255787 L27.7374186,5.25 C27.7374186,5.66421355 27.4016322,6 26.9874186,6 C26.573205,6 26.2374186,5.66421355 26.2374186,5.25 L26.2374186,3.69255787 L24.75,3.69255787 C24.3357864,3.69255787 24,3.35677145 24,2.94255787 C24,2.52834432 24.3357864,2.19255787 24.75,2.19255787 L26.2374186,2.19255787 L26.2374186,0.75 C26.2374186,0.335786445 26.573205,0 26.9874186,0 C27.4016322,0 27.7374186,0.335786445 27.7374186,0.75 L27.7374186,2.19255787 Z" id="Combined-Shape" fill="#74CAC8" fill-rule="nonzero" opacity="0.551729911"></path>
                <path d="M46.1145155,11.8271315 L47.375,11.8271315 C47.720178,11.8271315 48,12.1069537 48,12.4521315 C48,12.7973095 47.720178,13.0771315 47.375,13.0771315 L46.1145155,13.0771315 L46.1145155,14.375 C46.1145155,14.720178 45.8346935,15 45.4895155,15 C45.1443375,15 44.8645155,14.720178 44.8645155,14.375 L44.8645155,13.0771315 L43.625,13.0771315 C43.279822,13.0771315 43,12.7973095 43,12.4521315 C43,12.1069537 43.279822,11.8271315 43.625,11.8271315 L44.8645155,11.8271315 L44.8645155,10.625 C44.8645155,10.279822 45.1443375,10 45.4895155,10 C45.8346935,10 46.1145155,10.279822 46.1145155,10.625 L46.1145155,11.8271315 Z" id="Combined-Shape-Copy" fill="#74CAC8" fill-rule="nonzero" opacity="0.551729911"></path>
                <path d="M6,13.5 L6,46" id="Line-Copy-2" stroke="#113B58" stroke-width="1.5" stroke-linecap="square"></path>
                <polyline id="Path-7-Copy-2" stroke="#113B58" stroke-width="1.5" points="8.67327794 26.7217914 10.0743487 26.7217914 12.7128671 23.1992043 15.3929061 23.1992043 16.6782914 20.5861977 20.0896581 20.5861977 23.4122104 26.7217914 25.9532373 26.7217914 28.0084855 22.4312028 30.3878119 22.4312028 31.8942461 24.4825443 34.796949 24.4825443 38.6319329 17.9300218 43.1438793 17.9300218"></polyline>
                <polygon id="Path-7-Copy" fill="#74CAC8" fill-rule="nonzero" points="8.67327794 37.7217914 11.8375955 37.7217914 14.4761139 34.1992043 19.0598217 34.1992043 21.4219012 37.7217914 25.9532373 37.7217914 31.7403023 31.8353394 35.8633778 31.8353394 38.4557734 27.6456091 42.6618698 27.6456091 42.6618698 46.0510214 8.67327794 46.0510214"></polygon>
                <polyline id="Path-7" stroke="#113B58" stroke-width="1.5" points="8.67327794 37.7217914 11.8375955 37.7217914 14.4761139 34.1992043 19.0598217 34.1992043 21.4219012 37.7217914 25.9532373 37.7217914 31.7403023 31.8353394 35.8633778 31.8353394 38.4557734 27.6456091 42.6618698 27.6456091"></polyline>
            </g>
        </g>
    </g>
</svg>