<?xml version="1.0" encoding="UTF-8"?>
<svg width="45px" height="36px" viewBox="0 0 45 36" version="1.1" xmlns="http://www.w3.org/2000/svg" xmlns:xlink="http://www.w3.org/1999/xlink">
    <!-- Generator: sketchtool 52.5 (67469) - http://www.bohemiancoding.com/sketch -->
    <title>5E56AB66-1AD2-4CCC-9883-144B89AF4CD2</title>
    <desc>Created with sketchtool.</desc>
    <g id="graphics" stroke="none" stroke-width="1" fill="none" fill-rule="evenodd">
        <g id="Graphics" transform="translate(-301.000000, -388.000000)">
            <g id="AWS-Services-Report-Copy-7" transform="translate(323.500000, 406.500000) rotate(-270.000000) translate(-323.500000, -406.500000) translate(305.000000, 384.000000)">
                <path d="M30.4397849,21.0072603 C23.9353544,10.9606102 17.3984018,9.75631415 10.828927,17.3943721 C0.974714777,28.851459 0.551926787,41.0246138 8.6499427,39.2018954 C12.1227043,38.420239 27.2278676,39.5767536 32.2437205,34.7815998 C34.0981737,33.0087431 32.9013183,26.1780926 30.4397849,21.0072603 Z" id="Path-3" fill="#439BC3" fill-rule="nonzero" opacity="0.12" transform="translate(18.059653, 25.915125) scale(-1, 1) rotate(-15.000000) translate(-18.059653, -25.915125) "></path>
                <path d="M4.73741857,2.19255787 L6.25,2.19255787 C6.66421355,2.19255787 7,2.52834432 7,2.94255787 C7,3.35677145 6.66421355,3.69255787 6.25,3.69255787 L4.73741857,3.69255787 L4.73741857,5.25 C4.73741857,5.66421355 4.40163212,6 3.98741857,6 C3.573205,6 3.23741857,5.66421355 3.23741857,5.25 L3.23741857,3.69255787 L1.75,3.69255787 C1.33578644,3.69255787 1,3.35677145 1,2.94255787 C1,2.52834432 1.33578644,2.19255787 1.75,2.19255787 L3.23741857,2.19255787 L3.23741857,0.75 C3.23741857,0.335786445 3.573205,0 3.98741857,0 C4.40163212,0 4.73741857,0.335786445 4.73741857,0.75 L4.73741857,2.19255787 Z" id="Combined-Shape" fill="#74CAC8" fill-rule="nonzero" opacity="0.551729911"></path>
                <path d="M34.1145155,41.8271315 L35.375,41.8271315 C35.720178,41.8271315 36,42.1069537 36,42.4521315 C36,42.7973095 35.720178,43.0771315 35.375,43.0771315 L34.1145155,43.0771315 L34.1145155,44.375 C34.1145155,44.720178 33.8346935,45 33.4895155,45 C33.1443375,45 32.8645155,44.720178 32.8645155,44.375 L32.8645155,43.0771315 L31.625,43.0771315 C31.279822,43.0771315 31,42.7973095 31,42.4521315 C31,42.1069537 31.279822,41.8271315 31.625,41.8271315 L32.8645155,41.8271315 L32.8645155,40.625 C32.8645155,40.279822 33.1443375,40 33.4895155,40 C33.8346935,40 34.1145155,40.279822 34.1145155,40.625 L34.1145155,41.8271315 Z" id="Combined-Shape-Copy" fill="#74CAC8" fill-rule="nonzero" opacity="0.551729911"></path>
                <g id="Group-13" transform="translate(1.000000, 6.000000)" stroke="#113B58" stroke-width="1.5">
                    <path d="M16,0.484848485 L16,24.7272727" id="Line" stroke-linecap="round"></path>
                    <path d="M27.3939394,4.36363636 L27.3939394,28.6060606" id="Line-Copy" stroke-linecap="round"></path>
                    <path d="M13.3636364,3.63636364 L18.6363636,3.63636364 C19.1886484,3.63636364 19.6363636,4.08407889 19.6363636,4.63636364 L19.6363636,16.6969697 C19.6363636,17.2492544 19.1886484,17.6969697 18.6363636,17.6969697 L13.3636364,17.6969697 C12.8113516,17.6969697 12.3636364,17.2492544 12.3636364,16.6969697 L12.3636364,4.63636364 C12.3636364,4.08407889 12.8113516,3.63636364 13.3636364,3.63636364 Z" id="Rectangle-15-Copy-4" fill="#74CAC8" fill-rule="nonzero"></path>
                    <path d="M25,10.4242424 L30.2727273,10.4242424 C30.825012,10.4242424 31.2727273,10.8719577 31.2727273,11.4242424 L31.2727273,16.6969697 C31.2727273,17.2492544 30.825012,17.6969697 30.2727273,17.6969697 L25,17.6969697 C24.4477153,17.6969697 24,17.2492544 24,16.6969697 L24,11.4242424 C24,10.8719577 24.4477153,10.4242424 25,10.4242424 Z" id="Rectangle-15-Copy-5" fill="#FFFFFF" fill-rule="nonzero"></path>
                    <path d="M4.12121212,8.24242424 L4.12121212,32.4848485" id="Line-Copy-2" stroke-linecap="round"></path>
                    <path d="M1.72727273,22.5454545 L7,22.5454545 C7.55228475,22.5454545 8,22.9931698 8,23.5454545 L8,27.3636364 C8,27.9159211 7.55228475,28.3636364 7,28.3636364 L1.72727273,28.3636364 C1.17498798,28.3636364 0.727272727,27.9159211 0.727272727,27.3636364 L0.727272727,23.5454545 C0.727272727,22.9931698 1.17498798,22.5454545 1.72727273,22.5454545 Z" id="Rectangle-15-Copy-6" fill="#FFFFFF" fill-rule="nonzero"></path>
                </g>
            </g>
        </g>
    </g>
</svg>