<?xml version="1.0" encoding="UTF-8"?>
<svg width="51px" height="37px" viewBox="0 0 51 37" version="1.1" xmlns="http://www.w3.org/2000/svg" xmlns:xlink="http://www.w3.org/1999/xlink">
    <!-- Generator: sketchtool 52.5 (67469) - http://www.bohemiancoding.com/sketch -->
    <title>5D438EE5-83E8-44AE-8704-2807DE7BEB19</title>
    <desc>Created with sketchtool.</desc>
    <g id="graphics" stroke="none" stroke-width="1" fill="none" fill-rule="evenodd">
        <g id="Graphics" transform="translate(-182.000000, -384.000000)" fill-rule="nonzero">
            <g id="Group" transform="translate(180.000000, 381.000000)">
                <path d="M31.7695192,12.3849198 C25.0605076,2.02227657 18.3179509,0.780102283 11.5418491,8.65839689 C1.37769649,20.4758388 0.941610728,33.0318708 9.29433022,31.1518232 C12.8763191,30.3455817 28.4565788,31.5384717 33.6301933,26.5924978 C35.5429738,24.7638802 34.3084742,17.7183882 31.7695192,12.3849198 Z" id="Path-3" fill="#439BC3" opacity="0.12" transform="translate(19.000000, 17.447149) scale(1, -1) rotate(165.000000) translate(-19.000000, -17.447149) "></path>
                <rect id="Rectangle-15-Copy-2" stroke="#113B58" stroke-width="1.5" fill="#FFFFFF" x="7.75" y="8.75" width="44.5" height="30.5" rx="1"></rect>
                <circle id="Oval" stroke="#113B58" stroke-width="1.5" fill="#FFFFFF" cx="41" cy="20" r="6"></circle>
                <path d="M47.6576126,14.6511344 L49.3625163,21.3674868 C49.4304551,21.6351213 49.2685697,21.9071572 49.0009352,21.975096 C48.9910294,21.9776105 48.9810488,21.9798208 48.9710075,21.9817236 C47.240292,22.309693 45.7650068,22.1664187 44.5451518,21.5519008 C43.3692102,20.9595049 42.3136338,20.1817716 41.3784227,19.2187009 L41.3784201,19.2187034 C41.186043,19.0205955 41.1906887,18.7040448 41.3887967,18.5116677 C41.4037418,18.4971549 41.4195793,18.4835903 41.4362166,18.4710532 L46.872076,14.3748393 C47.0926131,14.2086527 47.4061146,14.2527125 47.5723012,14.4732496 C47.6122702,14.5262902 47.6412718,14.5867621 47.6576126,14.6511344 Z" id="Triangle" stroke="#113B58" stroke-width="1.5" fill="#74CAC8" transform="translate(45.307564, 18.213522) rotate(-143.000000) translate(-45.307564, -18.213522) "></path>
                <path d="M35.2815369,30 L47.25,30 C47.6642136,30 48,30.3357864 48,30.75 L48,30.75 C48,31.1642136 47.6642136,31.5 47.25,31.5 L35.2815369,31.5 C34.8673233,31.5 34.5315369,31.1642136 34.5315369,30.75 L34.5315369,30.75 C34.5315369,30.3357864 34.8673233,30 35.2815369,30 Z" id="Rectangle-14-Copy" fill="#113B58"></path>
                <path d="M35.2815369,33.4799679 L47.25,33.4799679 C47.6642136,33.4799679 48,33.8157544 48,34.2299679 L48,34.2299679 C48,34.6441815 47.6642136,34.9799679 47.25,34.9799679 L35.2815369,34.9799679 C34.8673233,34.9799679 34.5315369,34.6441815 34.5315369,34.2299679 L34.5315369,34.2299679 C34.5315369,33.8157544 34.8673233,33.4799679 35.2815369,33.4799679 Z" id="Rectangle-14-Copy-2" fill="#113B58"></path>
                <path d="M20,24.75 C19.8619288,24.75 19.75,24.8619288 19.75,25 L19.75,34 C19.75,34.1380712 19.8619288,34.25 20,34.25 L23,34.25 C23.1380712,34.25 23.25,34.1380712 23.25,34 L23.25,25 C23.25,24.8619288 23.1380712,24.75 23,24.75 L20,24.75 Z" id="Rectangle-15-Copy-4" stroke="#113B58" stroke-width="1.5" fill="#FFFFFF"></path>
                <path d="M13,13.75 C12.8619288,13.75 12.75,13.8619288 12.75,14 L12.75,34 C12.75,34.1380712 12.8619288,34.25 13,34.25 L16,34.25 C16.1380712,34.25 16.25,34.1380712 16.25,34 L16.25,14 C16.25,13.8619288 16.1380712,13.75 16,13.75 L13,13.75 Z" id="Rectangle-15-Copy-5" stroke="#113B58" stroke-width="1.5" fill="#74CAC8"></path>
                <path d="M27,20.75 C26.8619288,20.75 26.75,20.8619288 26.75,21 L26.75,34 C26.75,34.1380712 26.8619288,34.25 27,34.25 L30,34.25 C30.1380712,34.25 30.25,34.1380712 30.25,34 L30.25,21 C30.25,20.8619288 30.1380712,20.75 30,20.75 L27,20.75 Z" id="Rectangle-15-Copy-6" stroke="#113B58" stroke-width="1.5" fill="#74CAC8"></path>
            </g>
            <path d="M181.114516,412.827132 L182.375,412.827132 C182.720178,412.827132 183,413.106954 183,413.452132 C183,413.797309 182.720178,414.077132 182.375,414.077132 L181.114516,414.077132 L181.114516,415.375 C181.114516,415.720178 180.834694,416 180.489516,416 C180.144338,416 179.864516,415.720178 179.864516,415.375 L179.864516,414.077132 L178.625,414.077132 C178.279822,414.077132 178,413.797309 178,413.452132 C178,413.106954 178.279822,412.827132 178.625,412.827132 L179.864516,412.827132 L179.864516,411.625 C179.864516,411.279822 180.144338,411 180.489516,411 C180.834694,411 181.114516,411.279822 181.114516,411.625 L181.114516,412.827132 Z" id="Combined-Shape-Copy" fill="#74CAC8" opacity="0.551729911"></path>
        </g>
    </g>
</svg>