<?xml version="1.0" encoding="UTF-8"?>
<svg width="263px" height="288px" viewBox="0 0 263 288" version="1.1" xmlns="http://www.w3.org/2000/svg" xmlns:xlink="http://www.w3.org/1999/xlink">
    <!-- Generator: Sketch 52.5 (67469) - http://www.bohemiancoding.com/sketch -->
    <title>girl</title>
    <desc>Created with Sketch.</desc>
    <defs>
        <linearGradient x1="69.9766953%" y1="40.3317323%" x2="34.5023589%" y2="40.3317323%" id="linearGradient-1">
            <stop stop-color="#DFCFC1" offset="0%"></stop>
            <stop stop-color="#AB8367" offset="100%"></stop>
        </linearGradient>
        <path d="M3.60132079,9.15283266 C6.62435311,9.15283266 10.1507529,7.13542416 11.4777553,4.64682465 C12.8047576,2.15822514 11.4298536,0.140816641 8.40682132,0.140816641 C5.38378901,0.140816641 1.85738918,2.15822514 0.530386847,4.64682465 C-0.796615483,7.13542416 0.578288476,9.15283266 3.60132079,9.15283266 Z" id="path-2"></path>
        <linearGradient x1="63.0289007%" y1="4.08355884%" x2="50%" y2="100%" id="linearGradient-4">
            <stop stop-color="#FFF3E9" offset="0%"></stop>
            <stop stop-color="#A78872" offset="100%"></stop>
        </linearGradient>
        <linearGradient x1="73.1173632%" y1="0%" x2="50%" y2="100%" id="linearGradient-5">
            <stop stop-color="#F8E1CF" offset="0%"></stop>
            <stop stop-color="#A78872" offset="100%"></stop>
        </linearGradient>
        <linearGradient x1="83.5113404%" y1="50%" x2="9.90312993%" y2="71.8136994%" id="linearGradient-6">
            <stop stop-color="#AA8C76" offset="0%"></stop>
            <stop stop-color="#CEB7A4" offset="100%"></stop>
        </linearGradient>
        <linearGradient x1="100%" y1="50%" x2="50%" y2="59.2381077%" id="linearGradient-7">
            <stop stop-color="#A78872" offset="0%"></stop>
            <stop stop-color="#CEB7A4" offset="100%"></stop>
        </linearGradient>
        <linearGradient x1="30.042703%" y1="59.3633755%" x2="55.0880716%" y2="83.7109379%" id="linearGradient-8">
            <stop stop-color="#FFFFFF" offset="0%"></stop>
            <stop stop-color="#B7E3F6" offset="100%"></stop>
        </linearGradient>
        <linearGradient x1="85.1071562%" y1="30.4950391%" x2="34.3852533%" y2="63.1453044%" id="linearGradient-9">
            <stop stop-color="#F0D7C2" offset="0%"></stop>
            <stop stop-color="#A78872" offset="100%"></stop>
        </linearGradient>
        <linearGradient x1="17.5779955%" y1="82.3369269%" x2="72.0544416%" y2="27.7127261%" id="linearGradient-10">
            <stop stop-color="#D3EAFB" offset="0%"></stop>
            <stop stop-color="#F8FEFD" offset="100%"></stop>
        </linearGradient>
        <linearGradient x1="50%" y1="-29.9185545%" x2="50%" y2="86.9220125%" id="linearGradient-11">
            <stop stop-color="#0F5786" offset="0%"></stop>
            <stop stop-color="#0E3D61" offset="100%"></stop>
        </linearGradient>
        <linearGradient x1="50%" y1="0%" x2="50%" y2="100%" id="linearGradient-12">
            <stop stop-color="#126294" offset="0%"></stop>
            <stop stop-color="#114D76" offset="100%"></stop>
        </linearGradient>
    </defs>
    <g id="Page-1" stroke="none" stroke-width="1" fill="none" fill-rule="evenodd">
        <g id="Bill-Analysis" transform="translate(-89.000000, -278.000000)">
            <g id="girl" transform="translate(65.000000, 189.000000)">
                <g transform="translate(92.000000, 114.500000) rotate(-1.000000) translate(-92.000000, -114.500000) translate(2.000000, 2.000000)" id="Group">
                    <g transform="translate(-0.000000, 80.852804)">
                        <g id="Group-18" transform="translate(63.433721, 33.649470) rotate(8.000000) translate(-63.433721, -33.649470) translate(48.170564, 25.238255)"></g>
                        <polygon id="Path-11" fill="url(#linearGradient-1)" points="47.4578536 23.6595196 48.4159128 31.2761345 56.5003084 29.7092337 51.1374383 21.7256179"></polygon>
                        <g id="Group-17" transform="translate(82.736713, 23.831542) rotate(-4.000000) translate(-82.736713, -23.831542) translate(61.236713, 12.831542)">
                            <path d="M19.121345,1.25973023 C19.0461208,1.25942084 18.9743787,1.29139885 18.9243213,1.34755069 L2.3236522,19.9693318 C2.28103227,20.0171406 2.25736192,20.078882 2.2570985,20.1429295 C2.25650224,20.287903 2.37354313,20.4059106 2.51851665,20.4065069 L23.1547105,20.4913814 C23.2299347,20.4916908 23.3016768,20.4597128 23.3517342,20.4035609 L39.9524033,1.78177981 C39.9950232,1.73397096 40.0186936,1.67222956 40.018957,1.60818212 C40.0195533,1.4632086 39.9025124,1.34520097 39.7575389,1.34460471 L19.121345,1.25973023 Z" id="Rectangle" stroke="#3991D2" stroke-width="1.575" fill="#0067A5"></path>
                            <g id="Group-18" transform="translate(16.916650, 4.909039)">
                                <mask id="mask-3" fill="white">
                                    <use xlink:href="#path-2"></use>
                                </mask>
                                <use id="Mask" fill="#124B75" xlink:href="#path-2"></use>
                                <path d="M16.8818478,-1.01948924 L13.0795805,4.71579029 L5.54922275,4.57151631 C8.49059558,2.49230642 10.7259583,1.06065342 12.255311,0.276557278 C13.7846637,-0.50753886 15.3268426,-0.939554367 16.8818478,-1.01948924 Z" id="Path-11" fill="#E04E7D" mask="url(#mask-3)"></path>
                            </g>
                        </g>
                        <g id="Path-11" transform="translate(80.000000, 22.079439)"></g>
                        <path d="M78.5980263,33.1872071 C79.7813051,33.1841069 81.2963544,31.7031312 81.8969945,30.3178081 C82.2365829,29.5345777 82.8183057,29.3336107 82.6439481,27.6510895 C82.4695904,25.9685682 83.236833,24.5246712 82.8462562,23.7045472 C82.6367452,23.2646207 81.4588843,26.6083128 81.0816481,26.72257 C80.8247479,26.8003799 80.9914199,25.3940573 81.2149854,22.9523714 C81.2748256,22.2988222 81.1059332,20.8940111 80.6656193,21.1904057 C79.8188185,21.7604245 79.8035365,23.9849172 79.3343457,24.3183301 C78.6561308,24.8002782 77.8896306,24.8542925 77.8853276,26.491197 C77.8816373,27.8950676 77.5407508,29.9567766 78.1601911,30.8653652 C78.7626783,31.749087 77.6847367,33.1896001 78.5980263,33.1872071 Z" id="Oval" fill="url(#linearGradient-4)" transform="translate(80.373522, 27.168545) rotate(29.000000) translate(-80.373522, -27.168545) "></path>
                        <path d="M86.0446862,39.5954264 C87.8969642,39.5905732 88.4972767,37.4823451 88.5289086,33.8275686 C88.5605405,30.172792 88.6498008,29.7889301 87.5003567,28.236182 C86.4621524,26.8337043 86.5484983,28.6195784 86.14485,31.3750938 C85.9325395,32.8244371 85.4843524,33.0298654 85.2727263,33.4624509 C84.8673145,34.2911537 84.5548989,30.4489418 83.8654199,30.8155623 C82.2412248,31.6792046 84.1924082,39.6002796 86.0446862,39.5954264 Z" id="Oval-Copy" fill="url(#linearGradient-5)" transform="translate(85.901733, 33.671051) rotate(29.000000) translate(-85.901733, -33.671051) "></path>
                        <g id="Group-3" transform="translate(1.321638, 56.096645)">
                            <g id="Group-14" transform="translate(1.034742, 0.996193)">
                                <path d="M21.7685952,7.88676856 C14.2871149,8.0348357 13.393645,10.2449068 16.5193602,16.8592165 C21.2079327,26.7806808 38.3773356,31.585718 40.1415745,35.0678886 C40.8877646,36.540683 39.5908593,41.2389149 42.6431824,47.0151325 C44.5893488,50.6980587 46.4561598,54.9452023 49.0112831,61.2304757 L55.7823651,63.4665864 C50.451091,48.690442 47.4741181,35.7172139 47.4828945,32.8646854 C47.4916709,30.0121569 42.2578957,23.0950605 29.3843604,5.81552662 L21.7685952,7.88676856 Z" id="Path-5-Copy" fill="url(#linearGradient-6)" transform="translate(35.303456, 34.641057) rotate(48.000000) translate(-35.303456, -34.641057) "></path>
                                <polygon id="Path-6" fill="#D8D8D8" points="31.0074152 78.1950737 28.2218934 67.7686883 25.0895616 61.5995302 21.9989452 63.0859449 24.2093044 69.8973019"></polygon>
                                <path d="M30.9577248,77.9913011 C30.6749608,78.999654 30.3736349,80.1289835 26.8994738,76.0061482 C23.4253128,71.883313 21.5688311,67.6632982 21.0472978,66.2304594 C20.699609,65.2752335 21.0307299,64.2445509 22.0406605,63.1384114 C23.3409773,64.7812957 24.3664217,66.7844573 25.1169936,69.1478961 C25.5269246,70.4387076 27.1456581,70.9648513 28.2692978,72.6042806 C29.2030102,73.9665993 31.2404888,76.9829481 30.9577248,77.9913011 Z" id="Path-7" fill="#A4A1A1"></path>
                            </g>
                            <g id="Group" transform="translate(24.187135, 61.579620)"></g>
                        </g>
                        <g id="Group-2" transform="translate(50.644597, 94.661203) rotate(51.000000) translate(-50.644597, -94.661203) translate(19.591966, 55.233633)">
                            <g id="Group-15" transform="translate(31.149108, 39.296976) rotate(-26.000000) translate(-31.149108, -39.296976) translate(13.780687, 4.600714)">
                                <path d="M5.31314713,5.45381435 C0.0568210632,2.73834793 2.54158386,4.32567983 1.1595466,12.5711978 C-1.89331762,30.7852123 23.7543077,27.5100991 25.5352172,31.0052305 C26.617467,33.1292043 19.9920365,38.3846241 19.834708,48.6851344 C19.8167526,49.8606986 19.2395178,50.8651937 18.9133137,52.018032 L21.8784422,58.6700396 L25.1670051,49.9942154 C30.0540269,38.5545378 33.1153005,31.3811625 33.6868908,28.6862505 C35.0837564,22.100362 17.576817,15.148589 12.378928,10.9443388 C10.456459,9.38937275 6.35008996,2.88098094 6.13616207,2.66449571 C4.11839352,0.622606328 3.94441067,0.481882397 5.61421358,2.24232393 L5.31314713,5.45381435 Z" id="Path-5" fill="url(#linearGradient-7)"></path>
                                <polygon id="Path-6" fill="#D8D8D8" transform="translate(21.756733, 59.449202) rotate(-11.000000) translate(-21.756733, -59.449202) " points="26.2737047 67.6344354 23.4790631 57.3496625 20.3376765 51.2639691 17.2397622 52.7294301 21.1000517 58.8112059"></polygon>
                                <path d="M26.4046073,67.6111248 C27.047564,69.008485 22.3900056,66.2886012 20.656797,64.2254397 C20.1302239,63.5986224 19.7715793,60.9873248 19.1255722,59.9873618 C17.645255,57.6959591 15.8381049,56.6245239 15.4739101,55.6405289 C15.1251578,54.6982567 15.7879715,53.8043749 17.4623512,52.9588834 C18.4896314,54.0839342 19.1814862,54.9372991 19.5379157,55.5189782 C20.3522853,56.8479974 20.7051183,58.2991831 21.4505871,59.1865677 C23.3029054,61.3915138 25.7616505,66.2137645 26.4046073,67.6111248 Z" id="Path-7" fill="#A4A1A1" transform="translate(20.924405, 60.476678) rotate(-11.000000) translate(-20.924405, -60.476678) "></path>
                            </g>
                            <g id="Group-Copy" transform="translate(22.688775, 67.485634) rotate(-11.000000) translate(-22.688775, -67.485634) translate(16.372986, 59.074419)"></g>
                        </g>
                        <path d="M47.2749763,30.2812648 C47.2749763,32.8916532 44.5343855,34.0128625 45.4033069,43.609203 C46.2722281,53.2055434 41.1547378,58.7874352 39.4877904,61.1888464 C35.041004,67.5949053 11.1803023,80.4463396 27.8263238,83.7750916 C30.0952249,84.2288102 31.3093717,87.8795869 34.7201328,90.0912914 C39.6766269,93.3053248 41.3347918,84.1978143 52.9994436,87.9494944 C64.6640954,91.7011744 68.47095,86.3969725 64.3840771,81.37393 C62.1833916,78.6691391 59.8477293,62.503814 59.8477293,61.5438153 C59.8477293,57.8610693 62.3267579,43.860087 62.5441649,42.8106207 C62.9807911,40.7029398 68.9954699,57.9708121 73.2495018,55.5179961 C77.5035336,53.0651801 84.8975109,40.4100088 86.2080945,38.5588107 C86.7906585,37.7359396 85.431341,38.3635665 84.3523458,37.0204959 C83.2733508,35.6774252 82.9210414,34.777322 82.4946531,35.9085074 C82.0682648,37.0396927 80.335756,39.6799418 79.1570215,41.1653514 C77.9782869,42.650761 76.359453,44.4781864 73.4171681,45.9236187 C71.6317946,45.4704288 69.145528,33.4111544 64.7261068,29.9434832 C62.7052211,28.3578078 57.1820734,26.3903335 55.6010624,27.1803318 C54.0200515,27.9703303 55.7000036,28.6121583 52.7662043,29.7349662 C49.832405,30.8577742 47.2749763,27.6708764 47.2749763,30.2812648 Z" id="Path" fill="url(#linearGradient-8)"></path>
                        <g id="Group-16" transform="translate(49.188570, 33.485881) rotate(33.000000) translate(-49.188570, -33.485881) translate(29.688570, 6.485881)">
                            <path d="M18.2730045,19.8466808 C21.8248997,18.1166109 24.2826291,15.9334836 22.7740817,11.6566409 C21.2655344,7.37979828 17.6202815,3.42570143 13.5859307,4.63330765 C9.55157992,5.84091388 6.65585788,11.7529273 8.1644053,16.02977 C9.67295271,20.3066126 14.7211093,21.5767507 18.2730045,19.8466808 Z" id="Combined-Shape" fill="url(#linearGradient-9)"></path>
                            <path d="M18.535087,3.32845194 C18.4772532,0.49225059 16.097261,-0.50450658 11.3951103,0.338180433 C8.08653949,0.931119669 5.24597131,2.7816348 3.40547089,6.06882797 C-0.514220173,13.0695227 0.313538532,19.1072609 3.1844,22.8853343 C16.7056423,40.6793818 -1.17638567,53.3492257 18.4218262,51.9715365 C24.0181373,51.5781344 27.134222,58.6471688 36.2037611,48.3118731 C46.4251737,36.6639471 23.8611905,28.5827061 24.510675,21.3029513 C25.1639478,13.9807351 15.8347052,11.9668021 18.535087,3.32845194 Z" id="Path-9" fill="#1B84B4"></path>
                        </g>
                        <path d="M70.2490661,39.9636737 C72.5323131,37.9717081 73.9682562,36.7014832 74.5568953,36.1529988 C77.2457765,33.6475432 78.6288826,32.0188453 78.8860837,31.4512633 C79.3985726,30.3203216 76.0595814,28.0950578 75.7467435,28.0896036 C75.4339057,28.0841493 74.025914,30.3289677 72.8580135,31.3461659 C72.0794131,32.024298 70.4162758,33.1220619 67.8686015,34.6394576 L70.2490661,39.9636737 Z" id="Path-10" fill="url(#linearGradient-10)"></path>
                    </g>
                </g>
                <g id="Group-20" transform="translate(112.000000, 170.000000)">
                    <path d="M86.5,205 C134.272631,205 173,184.295743 173,158.755747 C173,133.215751 134.272631,112.511494 86.5,112.511494 C38.7273691,112.511494 0,133.215751 0,158.755747 C0,184.295743 38.7273691,205 86.5,205 Z" id="Oval" stroke="#FFFFFF" stroke-width="3.6" stroke-linecap="round" stroke-dasharray="10,15"></path>
                    <g id="1" transform="translate(27.631944, 0.000000)">
                        <g id="Group-10" transform="translate(70.881944, 49.247126)">
                            <path d="M5.47838199,104.656819 C44.865306,99.8831857 74.4861111,79.3091976 74.4861111,54.6522989 C74.4861111,35.8566311 74.4861111,17.691983 74.4861111,0.158354661 L5.47838199,43.5680591 C3.84822178,84.4914722 3.84822178,104.854392 5.47838199,104.656819 Z" id="Oval-Copy-8" fill="url(#linearGradient-11)"></path>
                            <polygon id="Path-12" fill="#0F3C5D" points="5.32251061 104.73152 0.171878391 87.683908 0.171878391 32.9929003 5.32251061 49.8881696"></polygon>
                        </g>
                        <path d="M0.507766778,13.3689867 C15.8916801,5.0655954 36.3774846,0 58.8680556,0 C106.640686,0 145.368056,22.8553489 145.368056,51.0488506 C145.368056,75.743141 115.657344,96.3421282 76.1810706,101.074979 L70.9040536,82.0017955 C71.1254397,81.9701234 71.2913263,81.9461433 71.4017132,81.9298551 C94.5773223,78.5101814 111.729167,66.2498704 111.729167,51.6494253 C111.729167,34.401636 87.793501,20.4195402 58.2673611,20.4195402 C45.5119939,20.4195402 33.7999556,23.0289655 24.6102903,27.3838276 C24.4984541,27.4368253 16.4642796,22.7652117 0.507766778,13.3689867 Z" id="Combined-Shape" fill="url(#linearGradient-12)"></path>
                        <g id="Group-19" transform="translate(0.000000, 13.212644)">
                            <polygon id="Path-14" fill="#14466B" points="25.6759169 13.7693541 0.507766778 0.242434447 0.975976824 55.6694519 25.0518934 67.5976591"></polygon>
                            <path d="M25.0265447,67.5543311 C25.0057203,31.5253408 25.0061313,13.5169563 25.0277778,13.5291777 C34.6732053,8.85809948 46.404293,6.20689655 58.6666667,6.20689655 C88.7545702,6.20689655 112.729167,20.41285 112.729167,37.9367816 C112.729167,49.2928129 102.661209,59.2554835 87.385984,64.8617893 C79.3419527,61.9422716 69.9054257,60.2586207 59.8680556,60.2586207 C46.526302,60.2586207 34.3987519,63.00077 25.0265447,67.5543311 Z" id="Combined-Shape" fill="url(#linearGradient-11)"></path>
                        </g>
                    </g>
                    <g id="4" transform="translate(1.201389, 27.425287)">
                        <polygon id="Path-21" fill="#4DBD7F" points="35.4521179 70.9092835 33.6388889 22.4317388 -3.55271368e-15 29.8972183 4.31923784e-15 65.7163854"></polygon>
                        <path d="M34.9112583,61.8233993 C36.147453,61.8233993 39.3274966,60.6132569 44.4513889,58.1929721 L44.4513889,13.8448697 L33.6388889,15.4448382 C33.2509404,46.363879 33.6750635,61.8233993 34.9112583,61.8233993 Z" id="Path-20" fill="#01A653"></path>
                        <path d="M33.6388889,30.0838469 L0,30.0838469 C0,23.1451757 2.00231481,17.1382556 6.00694444,12.0630865 C10.0115741,6.98791738 14.8861547,2.98017597 20.6306864,0.039862271 L44.4513889,13.8712621 C40.4279876,15.9330007 37.6200539,18.4045064 36.0275879,21.2857792 C34.4351219,24.1670521 33.6388889,27.0997413 33.6388889,30.0838469 Z" id="Path-19" fill="#89D2AA"></path>
                    </g>
                    <g id="3" transform="translate(0.000000, 69.465517)">
                        <path d="M58.8047011,60.2287093 L44.327613,32.7242642 L-3.41060513e-13,0.516480539 L-3.41060513e-13,35.0344828 C1.73286268,46.2858746 6.76094112,55.4948824 15.0842353,62.661506 C23.4075295,69.8281297 32.4406286,74.9656632 42.1835327,78.0741065 L58.8047011,60.2287093 Z" id="Path-18-Copy" fill="#E87B9F"></path>
                        <path d="M58.8047011,25.3953759 C52.4672965,22.9457662 46.926907,19.774372 42.1835327,15.8811933 C37.4401584,11.9880147 34.4918281,7.05907923 33.3385417,1.09438701 L0,0.201149425 C1.73286268,11.4525413 6.76094112,20.6615491 15.0842353,27.8281727 C23.4075295,34.9947963 32.4406286,40.1323298 42.1835327,43.2407732 L58.8047011,25.3953759 Z" id="Path-18" fill="#EFA6BE"></path>
                        <polygon id="Path-17" fill="#E04E7D" points="58.8680556 25.342591 58.8680556 59.0574713 42.4099664 78.0359841 42.4099664 42.9850597"></polygon>
                    </g>
                    <g id="2" transform="translate(49.256944, 105.701149)">
                        <path d="M45.8739319,49.2154555 L45.8739319,20.8858067 L1.06162771,17.9140176 L1.06162771,44.5492715 C7.81249859,47.0809911 14.8329683,48.6363857 22.1230367,49.2154555 C29.4131052,49.7945253 37.3300702,49.7945253 45.8739319,49.2154555 Z" id="Path-16" fill="#8FC252"></path>
                        <path d="M45.7935655,21.6353521 C38.0093712,22.4263434 30.720867,22.5817656 23.9280531,22.1016186 C17.1352392,21.6214717 9.49955636,20.2263866 1.02100457,17.9163636 L15.816625,0.539872093 C19.9690817,1.74239002 23.8734001,2.48499517 27.52958,2.76768757 C31.1857599,3.05037996 35.3907188,3.05037996 40.1444567,2.76768757 L45.7935655,21.6353521 Z" id="Path-15" fill="#C7E0A9"></path>
                    </g>
                </g>
            </g>
        </g>
    </g>
</svg>