<?xml version="1.0" encoding="UTF-8"?>
<svg width="345px" height="331px" viewBox="0 0 345 331" version="1.1" xmlns="http://www.w3.org/2000/svg" xmlns:xlink="http://www.w3.org/1999/xlink">
    <!-- Generator: Sketch 52.5 (67469) - http://www.bohemiancoding.com/sketch -->
    <title>il2</title>
    <desc>Created with Sketch.</desc>
    <defs>
        <linearGradient x1="31.4986886%" y1="33.9823639%" x2="50%" y2="62.7119184%" id="linearGradient-1">
            <stop stop-color="#FFFFFF" offset="0%"></stop>
            <stop stop-color="#A7D6EB" offset="100%"></stop>
        </linearGradient>
        <linearGradient x1="50%" y1="0%" x2="50%" y2="100%" id="linearGradient-2">
            <stop stop-color="#C1E1F1" offset="0%"></stop>
            <stop stop-color="#66B5F3" offset="100%"></stop>
        </linearGradient>
        <linearGradient x1="50%" y1="100%" x2="50%" y2="3.061617e-15%" id="linearGradient-3">
            <stop stop-color="#C0E2F2" offset="0%"></stop>
            <stop stop-color="#FFFFFF" offset="100%"></stop>
        </linearGradient>
        <linearGradient x1="50%" y1="96.1840679%" x2="50%" y2="0%" id="linearGradient-4">
            <stop stop-color="#E6F6FC" offset="0%"></stop>
            <stop stop-color="#B7E3F6" offset="100%"></stop>
        </linearGradient>
        <ellipse id="path-5" cx="12" cy="19.7142857" rx="12" ry="19.7142857"></ellipse>
        <linearGradient x1="50%" y1="0%" x2="50%" y2="100%" id="linearGradient-7">
            <stop stop-color="#D3BDAB" offset="0%"></stop>
            <stop stop-color="#A78872" offset="100%"></stop>
        </linearGradient>
        <linearGradient x1="84.6051324%" y1="3.66484745%" x2="40.4270725%" y2="73.8523046%" id="linearGradient-8">
            <stop stop-color="#309AD2" offset="0%"></stop>
            <stop stop-color="#1776BF" offset="100%"></stop>
        </linearGradient>
        <linearGradient x1="88.3487966%" y1="34.9775997%" x2="60.0401325%" y2="34.9775997%" id="linearGradient-9">
            <stop stop-color="#CBB3A0" offset="0%"></stop>
            <stop stop-color="#A78872" offset="100%"></stop>
        </linearGradient>
        <linearGradient x1="100%" y1="21.8152871%" x2="21.2328781%" y2="70.7132747%" id="linearGradient-10">
            <stop stop-color="#D3BDAB" offset="0%"></stop>
            <stop stop-color="#A78872" offset="100%"></stop>
        </linearGradient>
        <path d="M7.2181496,14.3004353 C10.4578091,14.2986333 14.736439,13.6587632 14.2961819,8.62660118 C13.8559248,3.59443914 10.4504314,1.2418885 7.21077192,1.24369053 C3.97111245,1.24549257 1.34307999,4.25699828 1.34089713,7.97007681 C1.33871427,11.6831553 3.97849012,14.3022373 7.2181496,14.3004353 Z" id="path-11"></path>
        <linearGradient x1="100%" y1="50%" x2="2.60792991%" y2="50%" id="linearGradient-13">
            <stop stop-color="#6BAB34" offset="0%"></stop>
            <stop stop-color="#A5D965" offset="100%"></stop>
        </linearGradient>
        <linearGradient x1="-1.11022302e-14%" y1="50%" x2="100%" y2="50%" id="linearGradient-14">
            <stop stop-color="#4FC1E8" offset="0%"></stop>
            <stop stop-color="#278ECC" offset="100%"></stop>
        </linearGradient>
        <linearGradient x1="50%" y1="-7.28826492%" x2="50%" y2="100%" id="linearGradient-15">
            <stop stop-color="#E3F4FB" offset="0%"></stop>
            <stop stop-color="#C5E6F5" offset="100%"></stop>
        </linearGradient>
        <linearGradient x1="50%" y1="67.5012807%" x2="50%" y2="3.061617e-15%" id="linearGradient-16">
            <stop stop-color="#E3F4FB" offset="0%"></stop>
            <stop stop-color="#C2E6F6" offset="100%"></stop>
        </linearGradient>
        <linearGradient x1="50%" y1="67.5012807%" x2="50%" y2="3.061617e-15%" id="linearGradient-17">
            <stop stop-color="#FFFFFF" offset="0%"></stop>
            <stop stop-color="#C2E6F6" offset="100%"></stop>
        </linearGradient>
        <linearGradient x1="50%" y1="65.2988929%" x2="50%" y2="0%" id="linearGradient-18">
            <stop stop-color="#3593DB" offset="0%"></stop>
            <stop stop-color="#75C9F0" offset="100%"></stop>
        </linearGradient>
        <linearGradient x1="-14.5408163%" y1="76.0663954%" x2="100%" y2="30.8851652%" id="linearGradient-19">
            <stop stop-color="#B4E2F6" offset="0%"></stop>
            <stop stop-color="#FDFEFF" offset="100%"></stop>
        </linearGradient>
        <linearGradient x1="25.129448%" y1="-18.9438283%" x2="83.1697289%" y2="100%" id="linearGradient-20">
            <stop stop-color="#C6E783" offset="0%"></stop>
            <stop stop-color="#94CB4C" offset="100%"></stop>
        </linearGradient>
        <linearGradient x1="-62.9694245%" y1="69.6933549%" x2="88.7129611%" y2="42.631989%" id="linearGradient-21">
            <stop stop-color="#8ACCEA" offset="0%"></stop>
            <stop stop-color="#FFFFFF" offset="100%"></stop>
        </linearGradient>
        <linearGradient x1="76.5460852%" y1="129.330014%" x2="2.99429617%" y2="53.1031967%" id="linearGradient-22">
            <stop stop-color="#A1D5EF" offset="0%"></stop>
            <stop stop-color="#A5E3FA" offset="100%"></stop>
        </linearGradient>
        <linearGradient x1="2.99429617%" y1="53.1031967%" x2="76.5460852%" y2="129.330014%" id="linearGradient-23">
            <stop stop-color="#8AC6E4" offset="0%"></stop>
            <stop stop-color="#A5E3FA" offset="100%"></stop>
        </linearGradient>
        <linearGradient x1="52.1298765%" y1="3.06370063%" x2="50%" y2="93.551245%" id="linearGradient-24">
            <stop stop-color="#EEEEEE" stop-opacity="0" offset="0%"></stop>
            <stop stop-color="#7AD6F5" offset="100%"></stop>
        </linearGradient>
    </defs>
    <g id="Page-1" stroke="none" stroke-width="1" fill="none" fill-rule="evenodd">
        <g id="Desktop5" transform="translate(-1031.000000, -255.000000)">
            <g id="il2" transform="translate(1031.000000, 209.000000)">
                <g transform="translate(220.930664, 137.047068) scale(-1, -1) rotate(138.000000) translate(-220.930664, -137.047068) translate(151.430664, 16.547068)">
                    <g id="magnifier" transform="translate(79.799033, 82.484916) rotate(5.000000) translate(-79.799033, -82.484916) translate(27.799033, 4.484916)">
                        <rect id="Rectangle" fill="#A1D5EF" transform="translate(19.906727, 91.676433) rotate(-4.000000) translate(-19.906727, -91.676433) " x="18.9067274" y="66.6764332" width="2" height="50"></rect>
                        <path d="M11.3022178,50.1234407 C20.8053337,43.5870758 32.8941173,37.3895938 47.5685687,31.5309946 C69.5802457,22.7430959 88.241099,17.4469563 92.4619898,17.8905898 C95.275917,18.1863454 76.7085772,39.4839452 36.7599705,81.7833891 L37.5293877,74.4628727 L34.5943758,63.2788955 L26.297602,52.8520859 L11.3022178,50.1234407 Z" id="Path-18" fill="url(#linearGradient-1)" transform="translate(52.020979, 49.824065) rotate(36.000000) translate(-52.020979, -49.824065) "></path>
                        <g id="money-copy-3" opacity="0.49593099" transform="translate(30.442699, 43.295840) scale(1, -1) translate(-30.442699, -43.295840) translate(19.442699, 32.795840)">
                            <path d="M0.235445205,13.3456756 C4.50523313,11.483416 7.37992098,9.78844047 8.85950878,8.26074906 C10.3390966,6.73305766 11.7678566,3.9846738 13.1457887,0.0155974912 L21.8413688,3.37165768 C21.0055383,7.18585128 19.3157285,10.5105239 16.7719392,13.3456756 C14.22815,16.1808273 10.3632679,18.6367101 5.17729292,20.7133239 L0.235445205,13.3456756 Z" id="Path-16" fill="#90C853"></path>
                            <path d="M1.5874893,13.6147323 C5.70717947,11.7523909 8.39330942,10.1665296 9.64587915,8.85714831 C10.8984489,7.54776706 12.1929616,5.0100176 13.5294173,1.24389992 L20.8417567,3.95035349 C19.7419798,7.56100865 18.1153478,10.5813377 15.9618606,13.0113405 C13.8083733,15.4413434 10.3752389,17.6480813 5.66245719,19.6315544 L1.5874893,13.6147323 Z" id="Path-16-Copy" stroke="#00A98E" stroke-width="0.5"></path>
                            <ellipse id="Oval" fill="#00A98E" transform="translate(12.526424, 11.139962) rotate(-47.000000) translate(-12.526424, -11.139962) " cx="12.526424" cy="11.1399622" rx="2.38727703" ry="3.73466075"></ellipse>
                            <ellipse id="Oval-Copy-13" fill="#00A98E" transform="translate(7.322179, 14.584253) rotate(-44.000000) translate(-7.322179, -14.584253) " cx="7.32217947" cy="14.5842526" rx="1.0454057" ry="1.19393944"></ellipse>
                            <ellipse id="Oval-Copy-14" fill="#00A98E" transform="translate(16.061905, 6.006788) rotate(-60.000000) translate(-16.061905, -6.006788) " cx="16.0619055" cy="6.0067878" rx="1.04015319" ry="1.19991484"></ellipse>
                        </g>
                        <ellipse id="Oval" stroke="url(#linearGradient-3)" stroke-width="2" fill="url(#linearGradient-2)" cx="18" cy="46.7142857" rx="12" ry="19.7142857"></ellipse>
                        <g id="money-copy-5" transform="translate(6.000000, 27.000000)">
                            <mask id="mask-6" fill="white">
                                <use xlink:href="#path-5"></use>
                            </mask>
                            <use id="Mask" fill="url(#linearGradient-4)" xlink:href="#path-5"></use>
                            <g mask="url(#mask-6)">
                                <g transform="translate(24.442699, 16.295840) scale(1, -1) translate(-24.442699, -16.295840) translate(13.442699, 5.795840)">
                                    <path d="M0.235445205,13.3456756 C4.50523313,11.483416 7.37992098,9.78844047 8.85950878,8.26074906 C10.3390966,6.73305766 11.7678566,3.9846738 13.1457887,0.0155974912 L21.8413688,3.37165768 C21.0055383,7.18585128 19.3157285,10.5105239 16.7719392,13.3456756 C14.22815,16.1808273 10.3632679,18.6367101 5.17729292,20.7133239 L0.235445205,13.3456756 Z" id="Path-16" stroke="none" fill="#90C853" fill-rule="evenodd"></path>
                                    <path d="M1.5874893,13.6147323 C5.70717947,11.7523909 8.39330942,10.1665296 9.64587915,8.85714831 C10.8984489,7.54776706 12.1929616,5.0100176 13.5294173,1.24389992 L20.8417567,3.95035349 C19.7419798,7.56100865 18.1153478,10.5813377 15.9618606,13.0113405 C13.8083733,15.4413434 10.3752389,17.6480813 5.66245719,19.6315544 L1.5874893,13.6147323 Z" id="Path-16-Copy" stroke="#00A98E" stroke-width="0.5" fill="none"></path>
                                    <ellipse id="Oval" stroke="none" fill="#00A98E" fill-rule="evenodd" transform="translate(12.526424, 11.139962) rotate(-47.000000) translate(-12.526424, -11.139962) " cx="12.526424" cy="11.1399622" rx="2.38727703" ry="3.73466075"></ellipse>
                                    <ellipse id="Oval-Copy-13" stroke="none" fill="#00A98E" fill-rule="evenodd" transform="translate(7.322179, 14.584253) rotate(-44.000000) translate(-7.322179, -14.584253) " cx="7.32217947" cy="14.5842526" rx="1.0454057" ry="1.19393944"></ellipse>
                                    <ellipse id="Oval-Copy-14" stroke="none" fill="#00A98E" fill-rule="evenodd" transform="translate(16.061905, 6.006788) rotate(-60.000000) translate(-16.061905, -6.006788) " cx="16.0619055" cy="6.0067878" rx="1.04015319" ry="1.19991484"></ellipse>
                                </g>
                            </g>
                        </g>
                        <path d="M21.012913,121.057625 C23.4724927,121.240817 24.470696,119.143259 24.4642826,116.389896 C24.4578693,113.636534 22.9689743,111.401026 21.1387425,111.396751 C20.7681664,111.395885 18.1046576,111.591135 18.3218931,112.306292 C18.5391287,113.021448 18.6212456,113.140721 19.179242,114.081098 C19.7372385,115.021475 21.8438477,114.789253 20.4018893,115.811657 C19.4878437,116.45975 18.4476734,111.763275 18.2646472,113.681357 C18.0816209,115.599438 18.5533333,120.874433 21.012913,121.057625 Z" id="Oval-Copy-15" fill="url(#linearGradient-7)" transform="translate(21.346809, 116.232758) scale(-1, 1) rotate(29.000000) translate(-21.346809, -116.232758) "></path>
                        <path d="M22.1044797,141.340913 C31.6618421,137.245644 37.334504,134.81415 39.1224654,134.046428 C40.9104268,133.278707 45.3000331,129.413441 52.2912842,122.45063 L56.1464549,124.294623 C49.2929236,132.497451 44.9465838,137.398042 43.1074354,138.996395 C41.2682871,140.594749 37.3836851,142.867334 31.4536295,145.814152 C28.3230524,147.909257 26.1914175,149.266795 25.058725,149.886765 C22.4259185,151.32781 20.9868869,151.882034 19.1882994,150.147626 C16.2290227,147.293947 17.2010828,144.358376 22.1044797,141.340913 Z" id="Path-2" fill="url(#linearGradient-8)" transform="translate(36.832039, 136.838939) scale(-1, 1) rotate(-13.000000) translate(-36.832039, -136.838939) "></path>
                        <path d="M22.1854707,114.460057 L22.1854707,114.460057 C22.3678236,114.259894 22.6779141,114.245456 22.8780772,114.427809 C22.9814861,114.522017 23.0397283,114.65591 23.0381441,114.795789 L22.8527632,131.164547 C22.8464882,131.718618 22.3955458,132.164482 21.8414386,132.164482 L21.8414386,132.164482 C21.3046483,132.164482 20.8694937,131.729328 20.8694937,131.192538 C20.8694937,131.183319 20.8696249,131.174102 20.8698871,131.164887 L21.2815786,116.699273 C21.3052152,115.868753 21.6259275,115.074251 22.1854707,114.460057 Z" id="Rectangle-Copy" fill="#A1D5EF" transform="translate(21.953835, 123.232219) rotate(-4.000000) translate(-21.953835, -123.232219) "></path>
                        <g id="money-copy-2" opacity="0.496210007" transform="translate(38.442699, 39.795840)">
                            <path d="M0.235445205,13.3456756 C4.50523313,11.483416 7.37992098,9.78844047 8.85950878,8.26074906 C10.3390966,6.73305766 11.7678566,3.9846738 13.1457887,0.0155974912 L21.8413688,3.37165768 C21.0055383,7.18585128 19.3157285,10.5105239 16.7719392,13.3456756 C14.22815,16.1808273 10.3632679,18.6367101 5.17729292,20.7133239 L0.235445205,13.3456756 Z" id="Path-16" fill="#90C853"></path>
                            <path d="M1.5874893,13.6147323 C5.70717947,11.7523909 8.39330942,10.1665296 9.64587915,8.85714831 C10.8984489,7.54776706 12.1929616,5.0100176 13.5294173,1.24389992 L20.8417567,3.95035349 C19.7419798,7.56100865 18.1153478,10.5813377 15.9618606,13.0113405 C13.8083733,15.4413434 10.3752389,17.6480813 5.66245719,19.6315544 L1.5874893,13.6147323 Z" id="Path-16-Copy" stroke="#00A98E" stroke-width="0.5"></path>
                            <ellipse id="Oval" fill="#00A98E" transform="translate(12.526424, 11.139962) rotate(-47.000000) translate(-12.526424, -11.139962) " cx="12.526424" cy="11.1399622" rx="2.38727703" ry="3.73466075"></ellipse>
                            <ellipse id="Oval-Copy-13" fill="#00A98E" transform="translate(7.322179, 14.584253) rotate(-44.000000) translate(-7.322179, -14.584253) " cx="7.32217947" cy="14.5842526" rx="1.0454057" ry="1.19393944"></ellipse>
                            <ellipse id="Oval-Copy-14" fill="#00A98E" transform="translate(16.061905, 6.006788) rotate(-60.000000) translate(-16.061905, -6.006788) " cx="16.0619055" cy="6.0067878" rx="1.04015319" ry="1.19991484"></ellipse>
                        </g>
                    </g>
                    <g id="money-3" transform="translate(13.942699, 62.795840) scale(-1, -1) translate(-13.942699, -62.795840) translate(0.442699, 49.795840)">
                        <path d="M0.288955479,16.5232174 C5.52914974,14.2175627 9.05717575,12.1190215 10.8730335,10.2275941 C12.6888912,8.33616662 14.4423694,4.93340566 16.133468,0.0193111796 L26.8053162,4.17443332 C25.7795243,8.89676825 23.7056667,13.0130296 20.5837436,16.5232174 C17.4618204,20.0334052 12.718556,23.074022 6.3539504,25.6450677 L0.288955479,16.5232174 Z" id="Path-16" fill="#90C853"></path>
                        <path d="M1.94828232,16.8563353 C7.00426571,14.5505792 10.3008797,12.5871318 11.8381244,10.9659931 C13.3753691,9.34485445 14.9640892,6.20287893 16.6042848,1.54006657 L25.5785196,4.89091384 C24.2287934,9.3612488 22.2324723,13.1007038 19.5895561,16.1092787 C16.94664,19.1178537 12.7332477,21.8500054 6.94937928,24.305734 L1.94828232,16.8563353 Z" id="Path-16-Copy" stroke="#00A98E" stroke-width="0.620000005"></path>
                        <ellipse id="Oval" fill="#00A98E" transform="translate(15.373338, 13.792334) rotate(-47.000000) translate(-15.373338, -13.792334) " cx="15.3733385" cy="13.7923342" rx="2.94330856" ry="4.6019982"></ellipse>
                        <ellipse id="Oval-Copy-13" fill="#00A98E" transform="translate(8.986311, 18.056694) rotate(-44.000000) translate(-8.986311, -18.056694) " cx="8.98631117" cy="18.0566937" rx="1.28835052" ry="1.47187879"></ellipse>
                        <ellipse id="Oval-Copy-14" fill="#00A98E" transform="translate(19.712339, 7.436975) rotate(-60.000000) translate(-19.712339, -7.436975) " cx="19.7123386" cy="7.43697537" rx="1.28491377" ry="1.47579691"></ellipse>
                    </g>
                    <g id="boy" transform="translate(66.757137, 182.315357) scale(-1, 1) translate(-66.757137, -182.315357) translate(17.757137, 124.315357)">
                        <g id="Group-8" transform="translate(61.123769, 15.478070) rotate(-9.000000) translate(-61.123769, -15.478070) translate(43.623769, 3.478070)"></g>
                        <polygon id="Path-13" fill="url(#linearGradient-9)" points="44.5445549 19.5479579 48.7265894 23.8646502 43.165785 28.7244881 38.5675622 20.090207"></polygon>
                        <g id="Line-2" transform="translate(33.000000, 8.000000)">
                            <mask id="mask-12" fill="white">
                                <use xlink:href="#path-11"></use>
                            </mask>
                            <use id="oval" fill="url(#linearGradient-10)" transform="translate(7.834247, 7.772063) rotate(-6.000000) translate(-7.834247, -7.772063) " xlink:href="#path-11"></use>
                        </g>
                        <path d="M44.7938106,17.4512618 C44.5267648,17.5215551 44.2532974,17.3620557 44.1830041,17.0950099 C44.1127108,16.8279641 44.2722102,16.5544967 44.539256,16.4842034 C45.0194699,16.3577987 45.6226884,15.9427752 46.3264881,15.2295978 C46.4743593,15.0797563 46.6849068,14.8258746 46.9581306,14.4679528 C47.041424,14.7287038 47.1017266,14.926571 47.1390385,15.0615545 C47.1763503,15.196538 47.2255332,15.3947572 47.2865869,15.6562122 C47.1761719,15.7842055 47.093396,15.8761379 47.038259,15.9320095 C46.2199337,16.7612385 45.4792587,17.2708342 44.7938106,17.4512618 Z" id="Path" fill="#BA958B" fill-rule="nonzero"></path>
                        <polygon id="Path-14" fill="#F1CBAF" points="40.7485786 12.6643258 44.2687683 14.7895063 45.4680086 12.7109554"></polygon>
                        <path d="M91.4373911,15.7908132 C93.0839836,15.7947757 94.1781833,13.4397126 94.1724135,10.8879571 C94.1666436,8.33620165 94.0600393,5.73441131 90.9741037,4.06144391 C87.888168,2.3884765 89.1955635,8.96981576 89.5308337,10.1878596 C89.866104,11.4059035 88.3955152,8.41108081 87.7199619,8.9950215 C87.0444086,9.57896219 86.7623426,10.0513908 88.2630656,11.8937851 C89.7637885,13.7361794 89.0578073,14.0804287 89.6733205,14.7769227 C90.0484812,15.2014421 91.0608078,15.789907 91.4373911,15.7908132 Z" id="Oval-Copy" fill="url(#linearGradient-7)" transform="translate(90.672436, 9.790818) rotate(52.000000) translate(-90.672436, -9.790818) "></path>
                        <path d="M22.4133321,50.8231536 C14.7741407,49.9177206 12.7655064,52.7529829 16.3874293,59.3289406 C21.8203135,69.1928772 37.2443951,75.3151285 39.0142075,78.7746458 C40.1940823,81.0809906 38.5875978,88.454108 34.1947538,100.893998 L37.7408271,104.408362 C44.8529682,90.8519393 48.4051729,82.6609312 48.397441,79.8353378 C48.3897092,77.0097444 41.3523272,67.233823 27.2852952,50.5075737 L22.4133321,50.8231536 Z" id="Path-5-Copy" fill="url(#linearGradient-13)" transform="translate(31.518750, 77.457968) rotate(48.000000) translate(-31.518750, -77.457968) "></path>
                        <path d="M43.5524355,50.5015733 C36.9218665,49.9238639 35.408295,52.9359381 39.011721,59.5377958 C44.4168599,69.4405825 56.4833382,73.9435298 58.2434385,77.4170457 C59.4168387,79.7327229 58.3837657,86.9509577 55.1442195,99.07175 L58.8662015,105.032515 L61.3612977,100.671278 C66.7561282,89.4650828 69.4535434,82.4414952 69.4535434,79.6005149 C69.4535434,76.7595345 63.0442769,66.714436 50.225744,49.4652194 L43.5524355,50.5015733 Z" id="Path-5" fill="url(#linearGradient-13)"></path>
                        <path d="M38.6036378,33.5548275 C39.7927648,40.3711349 38.9388773,46.0955632 36.0419752,50.7281125 C48.4767191,54.3561479 54.7674186,54.2022063 54.9140737,50.2662878 C55.1340563,44.36241 54.6447653,37.9197762 55.1484206,36.6075052 C55.6520758,35.2952341 69.6409226,30.9369808 73.090094,29.4836389 C75.3073988,28.549356 80.6576504,24.0448353 89.1408487,15.9700768 C89.4551193,15.6709374 90.0790879,15.5752094 89.6162506,14.8286724 C89.1534134,14.0821354 88.4475546,14.4419731 87.7382122,13.707683 C87.0288698,12.9733929 86.5586774,11.1657969 86.2605098,10.9126546 C85.9623422,10.6595124 85.457515,11.3092676 85.1771226,11.5333361 C77.6638197,17.5374017 73.367028,20.9200337 72.2867475,21.6812321 C71.1661516,22.470838 65.4533759,23.295397 55.1484206,24.1549092 C52.2574702,22.8874607 50.1378331,22.2537364 48.7895092,22.2537364 C46.7670233,22.2537364 46.3690876,23.4083546 44.8425636,24.1549092 C43.3160396,24.9014639 36.8199472,23.3303664 38.6036378,33.5548275 Z" id="Path" fill="url(#linearGradient-14)"></path>
                        <path d="M40.9747522,3.63279859 C41.5358764,5.69820513 42.3705196,10.6512963 40.3768005,13.7028446 C39.929906,14.3868528 38.8984177,16.4906362 37.9375571,16.8491117 C34.7225079,18.0485744 37.8912725,21.6049901 39.5532822,19.5732895 C40.4513389,18.4754727 42.221548,20.516459 41.8968307,22.1962839 C41.6442989,23.502679 39.5892257,24.5903747 38.3208723,23.8150892 C37.3790057,23.23937 34.9167777,24.3586827 33.1606363,23.894428 C28.5095137,22.6648541 26.1198978,19.6275275 25.7005608,14.5936448 C25.0794458,7.13754095 30.864202,6.29193051 32.8474628,5.90642367 C34.8307235,5.52091684 36.623078,1.82869499 36.9462074,1.85089519 C37.882294,1.91520782 36.9744277,4.71130452 37.5565938,4.99106132 C38.9915346,5.68061435 40.5755766,2.16349818 40.9747522,3.63279859 Z" id="Path-4" fill="#1C84B4"></path>
                        <rect id="Rectangle" fill="#0E6990" transform="translate(40.938097, 15.039735) rotate(48.000000) translate(-40.938097, -15.039735) " x="40.4380972" y="14.5397352" width="1" height="1"></rect>
                        <rect id="Rectangle-Copy-10" fill="#0E6990" transform="translate(42.572415, 10.876923) rotate(-42.000000) translate(-42.572415, -10.876923) " x="42.0724153" y="10.3769231" width="1" height="1"></rect>
                        <g id="Group" transform="translate(13.098339, 102.853671) rotate(32.000000) translate(-13.098339, -102.853671) translate(7.098339, 92.853671)">
                            <path d="M9.97511119,19.1434369 C10.8515045,18.4286533 11.1809978,17.3922116 10.9635909,16.0341118 C10.7461841,14.676012 9.81349014,11.5526107 8.16550913,6.66390806 L5.07120911,0.594742029 L2.01811794,2.05706436 L4.10982582,9.62127269 L9.97511119,19.1434369 Z" id="Path-6" fill="#D8D8D8"></path>
                            <path d="M10.4014229,17.1560336 C10.4065793,17.3953441 10.4086336,17.5692836 10.4075857,17.6778522 C10.3948776,18.994538 10.1451366,19.5864958 9.65836275,19.4537256 C9.11138283,19.3045338 7.07725468,16.5707716 3.5559783,11.252439 C1.59498023,7.87974245 0.44274754,5.72352255 0.0992802445,4.78377935 C-0.244187051,3.84403614 0.4091618,2.95233653 2.0593268,2.10868052 C3.98820963,4.15359957 5.00033529,6.28331694 5.09570378,8.49783263 C5.14468488,9.63520428 7.03078962,11.657804 8.62161543,12.8273469 C9.68216598,13.6070421 10.2754351,15.0499377 10.4014229,17.1560336 Z" id="Path-7" fill="#A4A1A1"></path>
                        </g>
                        <g id="Group-Copy" transform="translate(57.334697, 106.236689) rotate(-11.000000) translate(-57.334697, -106.236689) translate(51.834697, 97.736689)">
                            <polygon id="Path-6" fill="#D8D8D8" points="10.9172101 16.9131193 8.16550913 6.66050855 5.07120911 0.594170646 2.01811794 2.05581156 5.82084662 8.11808709"></polygon>
                            <path d="M10.868123,16.7127428 C9.40358656,16.9709874 8.07227836,16.4042597 6.87419844,15.0125597 C5.07707855,12.9250098 5.82176029,10.6666595 4.58143612,9.41007325 C2.0593268,6.85489612 1.2021597,4.94236061 0.981436124,4.33873159 C0.637968828,3.39942629 0.997265719,2.65565031 2.0593268,2.10740367 C3.86169562,4.30873181 5.30239873,6.32092052 6.38143612,8.1439698 C7.46047352,9.96701908 8.95603583,12.8232768 10.868123,16.7127428 Z" id="Path-7" fill="#A4A1A1"></path>
                        </g>
                    </g>
                </g>
                <path d="M2,301.710805 C1.17157288,301.710805 0.5,301.039232 0.5,300.210805 C0.5,299.382378 1.17157288,298.710805 2,298.710805 L12,298.710805 C12.8284271,298.710805 13.5,299.382378 13.5,300.210805 C13.5,301.039232 12.8284271,301.710805 12,301.710805 L2,301.710805 Z M24.5538022,291.212327 C24.8276987,290.430488 25.6835414,290.018719 26.4653804,290.292616 C27.2472194,290.566512 27.6589882,291.422355 27.3850917,292.204194 L24.0547038,301.710805 L22,301.710805 C21.1715729,301.710805 20.5,301.039232 20.5,300.210805 C20.5,299.407093 21.1320994,298.751016 21.9262869,298.712584 L24.5538022,291.212327 Z M30.6913145,282.766562 C30.4174181,283.548401 29.5615754,283.96017 28.7797364,283.686273 C27.9978974,283.412377 27.5861286,282.556534 27.860025,281.774695 L31.1662478,272.337064 C31.4401443,271.555225 32.295987,271.143456 33.077826,271.417352 C33.859665,271.691249 34.2714338,272.547092 33.9975373,273.328931 L30.6913145,282.766562 Z M37.3037601,263.891299 C37.0298637,264.673138 36.174021,265.084907 35.392182,264.81101 C34.610343,264.537114 34.1985742,263.681271 34.4724706,262.899432 L37.7786934,253.4618 C38.0525899,252.679961 38.9084326,252.268193 39.6902716,252.542089 C40.4721106,252.815986 40.8838794,253.671828 40.6099829,254.453667 L37.3037601,263.891299 Z M43.9162057,245.016036 C43.6423093,245.797875 42.7864666,246.209643 42.0046276,245.935747 C41.2227886,245.66185 40.8110198,244.806008 41.0849162,244.024169 L44.5482319,234.138115 L47.0592141,242.548349 C47.2962139,243.342151 46.8448361,244.177782 46.0510335,244.414782 C45.3901469,244.612098 44.7002671,244.332263 44.3509963,243.774923 L43.9162057,245.016036 Z M47.0454417,252.988646 C46.8084419,252.194844 47.2598197,251.359213 48.0536223,251.122213 C48.8474249,250.885213 49.6830554,251.336591 49.9200553,252.130394 L52.7808964,261.712439 C53.0178963,262.506242 52.5665184,263.341872 51.7727158,263.578872 C50.9789132,263.815872 50.1432827,263.364494 49.9062829,262.570691 L47.0454417,252.988646 Z M52.767124,272.152736 C52.5301242,271.358934 52.981502,270.523303 53.7753046,270.286303 C54.5691072,270.049304 55.4047377,270.500681 55.6417376,271.294484 L58.5025787,280.876529 C58.7395786,281.670332 58.2882007,282.505962 57.4943981,282.742962 C56.7005955,282.979962 55.864965,282.528584 55.6279652,281.734781 L52.767124,272.152736 Z M58.4888064,291.316827 C58.2518065,290.523024 58.7031843,289.687393 59.496987,289.450394 C60.2907896,289.213394 61.12642,289.664772 61.3634199,290.458574 L64.224261,300.040619 C64.4612609,300.834422 64.0098831,301.670052 63.2160805,301.907052 C62.4222779,302.144052 61.5866474,301.692674 61.3496475,300.898872 L58.4888064,291.316827 Z M64.2104887,310.480917 C63.9734888,309.687114 64.4248667,308.851484 65.2186693,308.614484 C66.0124719,308.377484 66.8481024,308.828862 67.0851022,309.622664 L69.9459434,319.204709 C70.1829432,319.998512 69.7315654,320.834143 68.9377628,321.071142 C68.1439602,321.308142 67.3083297,320.856764 67.0713298,320.062962 L64.2104887,310.480917 Z M73.19725,312.776945 C72.9218347,313.55825 72.0651934,313.968355 71.2838881,313.692939 C70.5025829,313.417524 70.0924781,312.560883 70.3678935,311.779577 L73.6924511,302.348389 C73.9678665,301.567084 74.8245078,301.156979 75.605813,301.432394 C76.3871183,301.70781 76.797223,302.564451 76.5218077,303.345756 L73.19725,312.776945 Z M79.5957091,293.733593 C79.3713037,294.531048 78.5429225,294.995596 77.745468,294.77119 C76.9480135,294.546785 76.4834654,293.718404 76.7078708,292.920949 L79.4166834,283.294822 C79.6410888,282.497367 80.46947,282.032819 81.2669245,282.257224 C82.064379,282.48163 82.5289271,283.310011 82.3045217,284.107465 L79.5957091,293.733593 Z M85.0133344,274.481338 C84.788929,275.278792 83.9605479,275.74334 83.1630934,275.518935 C82.3656389,275.29453 81.9010907,274.466148 82.1254961,273.668694 L84.8343088,264.042566 C85.0587142,263.245112 85.8870953,262.780564 86.6845499,263.004969 C87.4820044,263.229374 87.9465525,264.057756 87.7221471,264.85521 L85.0133344,274.481338 Z M88.493745,266.652 C88.1488619,265.898775 88.4798881,265.008583 89.2331126,264.6637 C89.9863371,264.318817 90.8765292,264.649843 91.2214123,265.403068 L95.3845191,274.495292 C95.7294022,275.248516 95.398376,276.138708 94.6451515,276.483592 C93.891927,276.828475 93.0017349,276.497448 92.6568518,275.744224 L88.493745,266.652 Z M100.990493,281.339938 C100.162066,281.339938 99.490493,280.668366 99.490493,279.839938 C99.490493,279.011511 100.162066,278.339938 100.990493,278.339938 L110.990493,278.339938 C111.81892,278.339938 112.490493,279.011511 112.490493,279.839938 C112.490493,280.668366 111.81892,281.339938 110.990493,281.339938 L100.990493,281.339938 Z M116.386343,284.103217 C116.203386,283.295246 116.71006,282.491939 117.518031,282.308982 C118.326003,282.126024 119.12931,282.632699 119.312267,283.44067 L121.520757,293.19375 C121.703714,294.001722 121.19704,294.805029 120.389068,294.987986 C119.581097,295.170943 118.77779,294.664269 118.594833,293.856297 L116.386343,284.103217 Z M120.803323,303.609377 C120.620365,302.801406 121.12704,301.998099 121.935011,301.815142 C122.742983,301.632185 123.546289,302.138859 123.729247,302.94683 L125.937737,312.699911 C126.120694,313.507882 125.61402,314.311189 124.806048,314.494146 C123.998077,314.677103 123.19477,314.170429 123.011813,313.362458 L120.803323,303.609377 Z M125.220303,323.115538 C125.037345,322.307566 125.544019,321.50426 126.351991,321.321302 C127.159963,321.138345 127.963269,321.645019 128.146227,322.452991 L130.354716,332.206071 C130.537674,333.014043 130.031,333.817349 129.223028,334.000306 C128.415056,334.183264 127.61175,333.676589 127.428792,332.868618 L125.220303,323.115538 Z M129.637282,342.621698 C129.454325,341.813726 129.960999,341.01042 130.768971,340.827463 C131.576942,340.644505 132.380249,341.151179 132.563206,341.959151 L134.771696,351.712231 C134.954654,352.520203 134.447979,353.323509 133.640008,353.506467 C132.832036,353.689424 132.028729,353.18275 131.845772,352.374778 L129.637282,342.621698 Z M135.550424,352.094343 C135.674808,351.275307 136.439601,350.712181 137.258637,350.836565 C138.077674,350.960949 138.6408,351.725742 138.516416,352.544778 L135.854023,370.075919 L134.054262,362.127858 C133.97375,361.772301 134.026787,361.417647 134.180281,361.116365 L135.550424,352.094343 Z M140.017866,342.658138 C139.893481,343.477174 139.128688,344.040301 138.309652,343.915917 C137.490616,343.791533 136.927489,343.02674 137.051874,342.207703 L138.553323,332.321064 C138.677707,331.502027 139.442501,330.938901 140.261537,331.063285 C141.080573,331.187669 141.643699,331.952462 141.519315,332.771498 L140.017866,342.658138 Z M143.020765,322.884858 C142.896381,323.703895 142.131587,324.267021 141.312551,324.142637 C140.493515,324.018253 139.930389,323.25346 140.054773,322.434424 L141.556222,312.547784 C141.680607,311.728748 142.4454,311.165621 143.264436,311.290005 C144.083472,311.414389 144.646598,312.179182 144.522214,312.998219 L143.020765,322.884858 Z M150.826615,311.699007 C149.998188,311.699007 149.326615,311.027434 149.326615,310.199007 C149.326615,309.37058 149.998188,308.699007 150.826615,308.699007 L160.826615,308.699007 C161.655042,308.699007 162.326615,309.37058 162.326615,310.199007 C162.326615,311.027434 161.655042,311.699007 160.826615,311.699007 L150.826615,311.699007 Z M168.967947,311.149062 C168.744743,310.351271 169.210538,309.52359 170.008329,309.300386 C170.806121,309.077181 171.633802,309.542976 171.857006,310.340768 L174.551321,319.970963 C174.774525,320.768755 174.30873,321.596436 173.510939,321.81964 C172.713147,322.042844 171.885466,321.577049 171.662262,320.779258 L168.967947,311.149062 Z M174.356577,330.409454 C174.133372,329.611662 174.599167,328.783981 175.396959,328.560777 C176.19475,328.337573 177.022431,328.803368 177.245636,329.601159 L179.93995,339.231355 C180.163155,340.029146 179.69736,340.856827 178.899568,341.080031 C178.101777,341.303236 177.274096,340.837441 177.050892,340.039649 L174.356577,330.409454 Z M179.745206,349.669845 C179.522002,348.872053 179.987797,348.044373 180.785588,347.821168 C181.58338,347.597964 182.411061,348.063759 182.634265,348.86155 L185.32858,358.491746 C185.551784,359.289538 185.085989,360.117218 184.288198,360.340423 C183.490406,360.563627 182.662725,360.097832 182.439521,359.30004 L179.745206,349.669845 Z M186.370577,349.382113 C186.290416,350.206653 185.557011,350.810091 184.732471,350.72993 C183.907931,350.649769 183.304493,349.916364 183.384654,349.091825 L184.352284,339.13875 C184.432445,338.31421 185.165849,337.710772 185.990389,337.790933 C186.814929,337.871094 187.418367,338.604499 187.338206,339.429039 L186.370577,349.382113 Z M188.305835,329.475964 C188.225674,330.300504 187.492269,330.903942 186.66773,330.823781 C185.84319,330.74362 185.239752,330.010215 185.319913,329.185675 L186.287542,319.232601 C186.367703,318.408061 187.101108,317.804623 187.925648,317.884784 C188.750188,317.964945 189.353626,318.69835 189.273465,319.52289 L188.305835,329.475964 Z M190.241094,309.569815 C190.160933,310.394355 189.427528,310.997793 188.602988,310.917632 C187.778449,310.837471 187.175011,310.104066 187.255172,309.279526 L188.222801,299.326452 C188.302962,298.501912 189.036367,297.898474 189.860907,297.978635 C190.685446,298.058796 191.288884,298.792201 191.208723,299.616741 L190.241094,309.569815 Z M192.176353,289.663666 C192.096192,290.488206 191.362787,291.091644 190.538247,291.011483 C189.713707,290.931322 189.110269,290.197917 189.19043,289.373377 L190.15806,279.420303 C190.238221,278.595763 190.971626,277.992325 191.796165,278.072486 C192.620705,278.152647 193.224143,278.886052 193.143982,279.710591 L192.176353,289.663666 Z M194.111611,269.757517 C194.03145,270.582057 193.298046,271.185495 192.473506,271.105334 C191.648966,271.025173 191.045528,270.291768 191.125689,269.467228 L192.093318,259.514153 C192.173479,258.689614 192.906884,258.086176 193.731424,258.166337 C194.555964,258.246498 195.159402,258.979903 195.079241,259.804442 L194.111611,269.757517 Z M194.408765,251.199184 C193.584225,251.119023 192.980787,250.385619 193.060948,249.561079 L193.949861,240.417682 L198.74861,253.667766 C199.030708,254.446684 198.627957,255.306807 197.84904,255.588905 C197.070123,255.871004 196.21,255.468252 195.927901,254.689335 L194.665027,251.202346 C194.581048,251.208483 194.495409,251.207608 194.408765,251.199184 Z M199.333131,264.091697 C199.051032,263.31278 199.453783,262.452657 200.2327,262.170559 C201.011618,261.88846 201.871741,262.291211 202.153839,263.070129 L205.559068,272.472491 C205.841167,273.251408 205.438416,274.111531 204.659498,274.393629 C203.880581,274.675728 203.020458,274.272977 202.73836,273.49406 L199.333131,264.091697 Z M212.371253,291.137262 L210.689035,295.447097 L206.143589,282.896422 C205.86149,282.117505 206.264242,281.257381 207.043159,280.975283 C207.822076,280.693185 208.682199,281.095936 208.964298,281.874853 L211.633336,289.24448 C212.327872,289.583435 212.657245,290.404551 212.371253,291.137262 Z M216.007298,281.821729 C215.706079,282.593453 214.836286,282.974872 214.064561,282.673652 C213.292837,282.372432 212.911418,281.502639 213.212638,280.730915 L216.848684,271.415381 C217.149904,270.643657 218.019697,270.262238 218.791421,270.563458 C219.563145,270.864678 219.944564,271.734471 219.643344,272.506195 L216.007298,281.821729 Z M220.534338,265.890027 C220.213023,265.126451 220.571547,264.246974 221.335123,263.925659 C222.098699,263.604344 222.978177,263.962868 223.299491,264.726444 L227.178103,273.943622 C227.499417,274.707198 227.140894,275.586676 226.377318,275.907991 C225.613742,276.229305 224.734264,275.870782 224.412949,275.107206 L220.534338,265.890027 Z M228.291561,284.324384 C227.970246,283.560808 228.32877,282.68133 229.092346,282.360015 C229.855922,282.038701 230.7354,282.397224 231.056714,283.1608 L234.935326,292.377978 C235.25664,293.141555 234.898117,294.021032 234.134541,294.342347 C233.370965,294.663662 232.491487,294.305138 232.170172,293.541562 L228.291561,284.324384 Z M244.238238,305.484939 C245.066665,305.484939 245.738238,306.156512 245.738238,306.984939 C245.738238,307.813366 245.066665,308.484939 244.238238,308.484939 L238.458382,308.484939 L236.048784,302.75874 C235.727469,301.995164 236.085993,301.115686 236.849569,300.794372 C237.613145,300.473057 238.492622,300.831581 238.813937,301.595157 L240.450767,305.484939 L244.238238,305.484939 Z M254.238238,308.484939 C253.409811,308.484939 252.738238,307.813366 252.738238,306.984939 C252.738238,306.156512 253.409811,305.484939 254.238238,305.484939 L264.238238,305.484939 C265.066665,305.484939 265.738238,306.156512 265.738238,306.984939 C265.738238,307.813366 265.066665,308.484939 264.238238,308.484939 L254.238238,308.484939 Z M274.238238,308.484939 C273.409811,308.484939 272.738238,307.813366 272.738238,306.984939 C272.738238,306.156512 273.409811,305.484939 274.238238,305.484939 L284.238238,305.484939 C285.066665,305.484939 285.738238,306.156512 285.738238,306.984939 C285.738238,307.813366 285.066665,308.484939 284.238238,308.484939 L274.238238,308.484939 Z M288.621296,298.241953 C288.415095,299.044307 287.5975,299.527586 286.795145,299.321385 C285.992791,299.115185 285.509512,298.29759 285.715713,297.495235 L288.204772,287.809958 C288.410972,287.007604 289.228567,286.524325 290.030922,286.730526 C290.833277,286.936726 291.316555,287.754322 291.110355,288.556676 L288.621296,298.241953 Z M293.599414,278.871399 C293.393213,279.673754 292.575618,280.157032 291.773263,279.950832 C290.970909,279.744632 290.48763,278.927036 290.693831,278.124682 L293.18289,268.439405 C293.38909,267.63705 294.206685,267.153772 295.00904,267.359972 C295.811394,267.566173 296.294673,268.383768 296.088473,269.186123 L293.599414,278.871399 Z M295.80583,259.92752 C295.424189,259.192237 295.710872,258.286791 296.446156,257.90515 C297.181439,257.523509 298.086885,257.810193 298.468526,258.545476 L303.075341,267.421131 C303.456981,268.156415 303.170298,269.061861 302.435014,269.443502 C301.699731,269.825143 300.794285,269.538459 300.412644,268.803176 L295.80583,259.92752 Z M310.696081,277.865608 C311.493323,278.09077 311.957084,278.919592 311.731922,279.716833 L309.73929,286.772232 L305.019458,277.678831 C304.637817,276.943548 304.924501,276.038102 305.659784,275.656461 C306.395068,275.27482 307.300514,275.561504 307.682155,276.296787 L308.923033,278.687508 C309.224244,278.023743 309.973147,277.661432 310.696081,277.865608 Z M314.449869,270.09328 C314.224707,270.890522 313.395885,271.354283 312.598644,271.129121 C311.801403,270.903959 311.337641,270.075138 311.562803,269.277896 L314.28075,259.654344 C314.505912,258.857103 315.334734,258.393341 316.131975,258.618503 C316.929216,258.843665 317.392978,259.672487 317.167816,260.469728 L314.449869,270.09328 Z M319.885763,250.846175 C319.660601,251.643416 318.831779,252.107178 318.034538,251.882016 C317.237297,251.656854 316.773535,250.828032 316.998697,250.030791 L319.716644,240.407239 C319.941806,239.609997 320.770628,239.146236 321.567869,239.371398 C322.36511,239.59656 322.828872,240.425381 322.60371,241.222623 L319.885763,250.846175 Z M322.586909,247.200764 C322.346993,246.407838 322.795297,245.570554 323.588223,245.330639 C324.381149,245.090723 325.218433,245.539026 325.458349,246.331953 L328.354388,255.903418 C328.594304,256.696345 328.146,257.533628 327.353074,257.773544 C326.560148,258.01346 325.722864,257.565156 325.482948,256.77223 L322.586909,247.200764 Z M328.378987,266.343696 C328.139072,265.55077 328.587375,264.713486 329.380301,264.47357 C330.173227,264.233654 331.010511,264.681958 331.250427,265.474884 L334.146466,275.04635 C334.386382,275.839276 333.938078,276.67656 333.145152,276.916476 C332.352226,277.156392 331.514942,276.708088 331.275026,275.915162 L328.378987,266.343696 Z M334.171065,285.486628 C333.93115,284.693701 334.379453,283.856418 335.172379,283.616502 C335.965306,283.376586 336.802589,283.82489 337.042505,284.617816 L339.938544,294.189282 C340.17846,294.982208 339.730156,295.819492 338.93723,296.059407 C338.144304,296.299323 337.30702,295.85102 337.067104,295.058093 L334.171065,285.486628 Z M339.963143,304.629559 C339.723228,303.836633 340.171531,302.999349 340.964457,302.759433 C341.757384,302.519518 342.594667,302.967821 342.834583,303.760748 L344.43572,309.052536 C344.675636,309.845462 344.227332,310.682746 343.434406,310.922662 C342.64148,311.162577 341.804196,310.714274 341.56428,309.921348 L339.963143,304.629559 Z" id="line-copy" fill="#D1EDFA" fill-rule="nonzero"></path>
                <g id="server" transform="translate(76.000000, 240.000000)">
                    <path d="M5.53761352,24.1037748 L85.2861605,22.4822726 C88.378316,22.4194007 90.935971,24.8751203 90.9988428,27.9672758 C90.9996142,28.0052174 91,28.0431659 91,28.0811153 L91,94.9851178 L86.3812449,108.553813 L49.0973251,135.580533 C46.9341908,137.148566 44.0246064,137.207917 41.7993275,135.7294 L0.898026316,108.553813 C0.322208516,58.9950098 0.0342996162,33.0110127 0.0342996162,30.601822 C0.0342996162,30.2224679 0.0414380395,29.8499227 0.055714886,29.4841865 L0.0557112548,29.4841864 C0.171317605,26.5226479 2.57443201,24.1640243 5.53761352,24.1037748 Z" id="Rectangle" fill="url(#linearGradient-15)"></path>
                    <g id="Group-9">
                        <path d="M3.95748573,24.2805108 L42.8785311,1.48504594 C44.9859331,0.250772649 48.7848977,0.442543369 51.3637561,1.91337783 L87.7853581,22.6861926 C90.3642165,24.1570271 90.7464074,26.3499502 88.6390055,27.5842235 L49.7179601,50.3796884 C47.6105581,51.6139617 43.8115935,51.4221909 41.2327352,49.9513565 L4.81113313,29.1785417 C2.23227475,27.7077072 1.85008379,25.5147841 3.95748573,24.2805108 Z" id="Rectangle" fill="url(#linearGradient-16)"></path>
                        <g id="Group-10" transform="translate(18.377193, 7.000000)">
                            <path d="M1.0734178,16.116402 L25.4293968,5.38926243 C26.7189221,4.64478013 29.0435193,4.76045136 30.6215301,5.64762135 L53.8151192,15.6097123 C54.6621935,16.0859441 54.2148409,19.255223 54.2595501,19.8256508 C54.2981295,20.3178703 54.0276711,20.7867784 53.4303615,21.1316235 L29.6144629,34.881269 C28.3249376,35.6257513 26.0003403,35.51008 24.4223295,34.62291 L2.13584744,22.0932757 C1.23019771,21.5841124 0.767286562,20.9314879 0.780997679,20.3270458 C0.791176913,19.8783036 0.523975063,16.4336121 1.0734178,16.116402 Z" id="Rectangle-Copy-6" fill="#C2E6F6"></path>
                            <path d="M1.61349817,15.1292461 L25.4293968,1.3796006 C26.7189221,0.635118293 29.0435193,0.750789521 30.6215301,1.63795952 L52.9080122,14.1675938 C54.486023,15.0547638 54.7198867,16.3774794 53.4303615,17.1219617 L29.6144629,30.8716071 C28.3249376,31.6160894 26.0003403,31.5004182 24.4223295,30.6132482 L2.13584744,18.0836139 C0.557836651,17.1964439 0.323972916,15.8737284 1.61349817,15.1292461 Z" id="Rectangle-Copy-7" fill="url(#linearGradient-17)"></path>
                            <path d="M10.9065602,15.0691391 L26.5468518,6.02331974 C27.3937042,5.53352875 28.9203054,5.60962824 29.956611,6.19329271 L44.5925097,14.4364732 C45.6288153,15.0201377 45.7823975,15.8903452 44.9355451,16.3801362 L29.2952534,25.4259556 C28.448401,25.9157466 26.9217998,25.8396471 25.8854942,25.2559826 L11.2495955,17.0128022 C10.21329,16.4291377 10.0597078,15.5589301 10.9065602,15.0691391 Z" id="Rectangle-Copy-5" fill="url(#linearGradient-18)"></path>
                        </g>
                        <path d="M3.99122807,30.849693 L40.7105263,51.6653087 C42.9148207,52.9148899 44.7017544,56.0820071 44.7017544,58.7392628 L44.7017544,132.834625 C44.7017544,135.491881 42.9148207,136.633027 40.7105263,135.383445 L3.99122807,114.56783 C1.78693367,113.318249 1.81500039e-13,110.151131 1.81500039e-13,107.493876 L1.81500039e-13,33.3985133 C1.81500039e-13,30.7412575 1.78693367,29.6001118 3.99122807,30.849693 Z" id="Rectangle" fill="url(#linearGradient-19)"></path>
                        <path d="M24.745614,73.4270279 L24.745614,76.5321664 C24.745614,76.8188585 24.8990252,77.0836328 25.1477476,77.2262142 L38.231448,84.7265115 C38.61476,84.946247 39.1036266,84.8136421 39.3233622,84.4303301 C39.3927872,84.3092234 39.4293144,84.1720584 39.4293144,84.0324637 L39.4293144,80.9580992 C39.4293144,80.6719127 39.2764393,80.4075249 39.0284076,80.2647561 L25.9447072,72.7336849 C25.5617844,72.5132718 25.0726841,72.6450119 24.852271,73.0279347 C24.7823925,73.1493342 24.745614,73.2869535 24.745614,73.4270279 Z" id="Path-15" fill="url(#linearGradient-20)"></path>
                        <path d="M3.99122807,61.3980424 L3.99122807,64.5031809 C3.99122807,64.789873 4.14463919,65.0546473 4.39336167,65.1972287 L17.477062,72.697526 C17.860374,72.9172615 18.3492407,72.7846566 18.5689762,72.4013446 C18.6384013,72.2802378 18.6749284,72.1430729 18.6749284,72.0034782 L18.6749284,68.9291137 C18.6749284,68.6429272 18.5220534,68.3785394 18.2740216,68.2357706 L5.19032128,60.7046994 C4.80739848,60.4842863 4.3182981,60.6160264 4.097885,60.9989492 C4.02800657,61.1203487 3.99122807,61.257968 3.99122807,61.3980424 Z" id="Path-15-Copy" fill="url(#linearGradient-20)"></path>
                    </g>
                    <g id="Group-9-Copy" transform="translate(49.000000, 83.342995) scale(-1, 1) translate(-49.000000, -83.342995) translate(7.000000, 30.342995)">
                        <path d="M3.99122807,0.506697865 L40.7105263,21.3223136 C42.9148207,22.5718948 44.7017544,25.7390119 44.7017544,28.3962677 L44.7017544,102.49163 C44.7017544,105.148886 42.9148207,106.290031 40.7105263,105.04045 L3.99122807,84.2248346 C1.78693367,82.9752534 1.81500039e-13,79.8081362 1.81500039e-13,77.1508805 L1.81500039e-13,3.05551811 C1.81500039e-13,0.39826235 1.78693367,-0.742883343 3.99122807,0.506697865 Z" id="Rectangle" fill="url(#linearGradient-21)"></path>
                        <path d="M54,58 L83.9119516,75.0739216" id="Line-5" stroke="url(#linearGradient-22)" stroke-width="5.6" stroke-linecap="round" transform="translate(68.955976, 66.536961) scale(1, -1) translate(-68.955976, -66.536961) "></path>
                        <path d="M54,20 L83.9119516,37.0739216" id="Line-5-Copy-2" stroke="url(#linearGradient-22)" stroke-width="5.6" stroke-linecap="round" transform="translate(68.955976, 28.536961) scale(1, -1) translate(-68.955976, -28.536961) "></path>
                        <path d="M54,72 L83.9119516,89.0739216" id="Line-5-Copy" stroke="url(#linearGradient-22)" stroke-width="5.6" stroke-linecap="round" transform="translate(68.955976, 80.536961) scale(1, -1) translate(-68.955976, -80.536961) "></path>
                        <path d="M7,30 L36.9119516,47.0739216" id="Line-5-Copy-8" stroke="url(#linearGradient-23)" stroke-width="5.6" stroke-linecap="round"></path>
                        <path d="M7,44 L36.9119516,61.0739216" id="Line-5-Copy-9" stroke="url(#linearGradient-23)" stroke-width="5.6" stroke-linecap="round"></path>
                        <path d="M7,58 L36.9119516,75.0739216" id="Line-5-Copy-10" stroke="url(#linearGradient-23)" stroke-width="5.6" stroke-linecap="round"></path>
                        <path d="M7,72 L36.9119516,89.0739216" id="Line-5-Copy-11" stroke="url(#linearGradient-23)" stroke-width="5.6" stroke-linecap="round"></path>
                    </g>
                </g>
                <path d="M86.6586057,211.142923 L157.937885,211.142923 L139.707031,263.125604 C137.074184,264.65198 135.204901,265.732671 134.099182,266.367676 C130.736052,268.299093 128.158497,269.820175 126.247009,270.950806 C125.020442,271.676312 124.103517,272.303619 123.312561,272.569031 C122.910529,272.703936 122.502249,272.73407 122.19342,272.73407 C121.742653,272.73407 121.23831,272.662711 120.585266,272.37384 C119.886141,272.064586 119.019812,271.51894 117.967773,270.950806 C115.091292,269.397413 110.848588,266.952409 105.392395,263.892517 C105.171594,263.768689 104.953076,263.513052 104.736842,263.125604 L86.6586057,211.142923 Z" id="shining" fill="url(#linearGradient-24)" opacity="0.710332961"></path>
                <g id="money-2" transform="translate(106.000000, 171.500000) rotate(4.000000) translate(-106.000000, -171.500000) translate(92.000000, 158.000000)">
                    <path d="M0.299657534,17.1587258 C5.73393307,14.764392 9.3926267,12.5851377 11.2757384,10.6209631 C13.1588502,8.65678842 14.977272,5.12315203 16.7310039,0.0200539173 L27.7981057,4.33498845 C26.7343215,9.23895164 24.5836544,13.5135308 21.3461045,17.1587258 C18.1085545,20.8039208 13.1896137,23.9614844 6.58928189,26.6314164 L0.299657534,17.1587258 Z" id="Path-16" fill="#90C853"></path>
                    <path d="M2.02044092,17.5046559 C7.26368296,15.1102169 10.6823938,13.0712523 12.2765735,11.3877621 C13.8707531,9.70427193 15.5183148,6.4414512 17.2192583,1.5992999 L26.5258722,5.07902591 C25.1261562,9.72129683 23.0558972,13.604577 20.3150952,16.7288664 C17.5742933,19.8531557 13.2048495,22.6903903 7.2067637,25.24057 L2.02044092,17.5046559 Z" id="Path-16-Copy" stroke="#00A98E" stroke-width="0.636363636"></path>
                    <ellipse id="Oval" fill="#00A98E" transform="translate(15.942721, 14.322809) rotate(-47.000000) translate(-15.942721, -14.322809) " cx="15.9427214" cy="14.3228085" rx="3.05452806" ry="4.77546915"></ellipse>
                    <ellipse id="Oval-Copy-13" fill="#00A98E" transform="translate(9.319138, 18.751182) rotate(-44.000000) translate(-9.319138, -18.751182) " cx="9.31913751" cy="18.7511819" rx="1.33694258" ry="1.52746874"></ellipse>
                    <ellipse id="Oval-Copy-14" fill="#00A98E" transform="translate(20.442425, 7.723013) rotate(-60.000000) translate(-20.442425, -7.723013) " cx="20.4424252" cy="7.72301288" rx="1.33386823" ry="1.53097487"></ellipse>
                </g>
                <g id="money-1" transform="translate(127.000000, 225.500000) scale(-1, 1) translate(-127.000000, -225.500000) translate(110.000000, 209.000000)">
                    <path d="M0.363869863,20.971776 C6.96263301,18.045368 11.4053324,15.381835 13.6919681,12.9811771 C15.9786038,10.5805192 18.1866874,6.26163026 20.316219,0.0245103433 L33.7548427,5.29831921 C32.4631047,11.292052 29.8515803,16.5165376 25.9202697,20.971776 C21.988959,25.4270143 16.0159594,29.2862587 8.00127087,32.549509 L0.363869863,20.971776 Z" id="Path-16" fill="#90C853"></path>
                    <path d="M2.45339255,21.3945794 C8.82018645,18.4680428 12.9714782,15.975975 14.9072678,13.9183759 C16.8430574,11.8607768 18.8436679,7.87288479 20.9090994,1.95469988 L32.2099877,6.20769834 C30.5103325,11.881585 27.9964466,16.6278163 24.6683299,20.4463922 C21.3402133,24.2649681 16.0344601,27.7326992 8.75107021,30.8495855 L2.45339255,21.3945794 Z" id="Path-16-Copy" stroke="#00A98E" stroke-width="0.772727273"></path>
                    <ellipse id="Oval" fill="#00A98E" transform="translate(19.359019, 17.505655) rotate(-47.000000) translate(-19.359019, -17.505655) " cx="19.3590189" cy="17.5056549" rx="3.72190442" ry="5.81631037"></ellipse>
                    <ellipse id="Oval-Copy-13" fill="#00A98E" transform="translate(11.316096, 22.918111) rotate(-44.000000) translate(-11.316096, -22.918111) " cx="11.3160955" cy="22.9181112" rx="1.62850886" ry="1.86101776"></ellipse>
                    <ellipse id="Oval-Copy-14" fill="#00A98E" transform="translate(24.822945, 9.439238) rotate(-60.000000) translate(-24.822945, -9.439238) " cx="24.8229449" cy="9.43923796" rx="1.62760555" ry="1.86204959"></ellipse>
                </g>
            </g>
        </g>
    </g>
</svg>