<?xml version="1.0" encoding="UTF-8"?>
<svg width="301px" height="263px" viewBox="0 0 301 263" version="1.1" xmlns="http://www.w3.org/2000/svg" xmlns:xlink="http://www.w3.org/1999/xlink">
    <!-- Generator: Sketch 52.5 (67469) - http://www.bohemiancoding.com/sketch -->
    <title>il1</title>
    <desc>Created with Sketch.</desc>
    <defs>
        <radialGradient cx="50%" cy="50%" fx="50%" fy="50%" r="43.9897776%" gradientTransform="translate(0.500000,0.500000),scale(1.000000,0.998354),rotate(87.422869),scale(1.000000,0.969652),translate(-0.500000,-0.500000)" id="radialGradient-1">
            <stop stop-color="#639E2A" offset="0%"></stop>
            <stop stop-color="#A2D662" offset="100%"></stop>
        </radialGradient>
        <linearGradient x1="105.635352%" y1="50%" x2="53.921376%" y2="50%" id="linearGradient-2">
            <stop stop-color="#B5E3F7" offset="0%"></stop>
            <stop stop-color="#FFFFFF" offset="100%"></stop>
        </linearGradient>
        <linearGradient x1="-1.11022302e-14%" y1="50%" x2="100%" y2="50%" id="linearGradient-3">
            <stop stop-color="#DBF3FB" offset="0%"></stop>
            <stop stop-color="#B4E2F6" offset="100%"></stop>
        </linearGradient>
        <linearGradient x1="100%" y1="50%" x2="0%" y2="50%" id="linearGradient-4">
            <stop stop-color="#5FCBEB" offset="0%"></stop>
            <stop stop-color="#319BD3" offset="100%"></stop>
        </linearGradient>
        <linearGradient x1="-1.11022302e-14%" y1="50%" x2="100%" y2="50%" id="linearGradient-5">
            <stop stop-color="#5FBCE2" offset="0%"></stop>
            <stop stop-color="#C4E9F8" offset="100%"></stop>
        </linearGradient>
        <linearGradient x1="47.4089592%" y1="-31.9036668%" x2="50%" y2="100%" id="linearGradient-6">
            <stop stop-color="#B2E5FF" offset="0%"></stop>
            <stop stop-color="#67ACE1" offset="100%"></stop>
        </linearGradient>
        <linearGradient x1="100%" y1="50%" x2="0%" y2="50%" id="linearGradient-7">
            <stop stop-color="#C1E7F7" offset="0%"></stop>
            <stop stop-color="#4A9BC2" offset="100%"></stop>
        </linearGradient>
        <linearGradient x1="29.6938004%" y1="0%" x2="74.6912802%" y2="100%" id="linearGradient-8">
            <stop stop-color="#E4F7FF" offset="0%"></stop>
            <stop stop-color="#B8E3F6" offset="100%"></stop>
        </linearGradient>
        <linearGradient x1="73.1173632%" y1="0%" x2="50%" y2="100%" id="linearGradient-9">
            <stop stop-color="#D3BDAB" offset="0%"></stop>
            <stop stop-color="#A78872" offset="100%"></stop>
        </linearGradient>
        <linearGradient x1="69.9766953%" y1="40.3317323%" x2="34.5023589%" y2="40.3317323%" id="linearGradient-10">
            <stop stop-color="#DFCFC1" offset="0%"></stop>
            <stop stop-color="#AB8367" offset="100%"></stop>
        </linearGradient>
        <linearGradient x1="85.1071562%" y1="30.4950391%" x2="34.3852533%" y2="63.1453044%" id="linearGradient-11">
            <stop stop-color="#D3BDAB" offset="0%"></stop>
            <stop stop-color="#A78872" offset="100%"></stop>
        </linearGradient>
        <linearGradient x1="95.7734023%" y1="50%" x2="2.60792991%" y2="50%" id="linearGradient-12">
            <stop stop-color="#1776BF" offset="0%"></stop>
            <stop stop-color="#59B4DD" offset="100%"></stop>
        </linearGradient>
        <linearGradient x1="100%" y1="50%" x2="50%" y2="59.2381077%" id="linearGradient-13">
            <stop stop-color="#1878C0" offset="0%"></stop>
            <stop stop-color="#5FBCE2" offset="100%"></stop>
        </linearGradient>
    </defs>
    <g id="Page-1" stroke="none" stroke-width="1" fill="none" fill-rule="evenodd">
        <g id="Desktop5" transform="translate(-113.000000, -237.000000)">
            <g id="il1" transform="translate(113.000000, 231.000000)">
                <g id="cogwheel-copy" transform="translate(203.000000, 0.000000)">
                    <g id="Star"></g>
                    <path d="M25.5445364,53.6195695 C23.7997033,53.1286775 22.1399639,52.4340881 20.5925072,51.5630347 C21.2576961,48.4608628 21.3726261,45.5033212 19.6593515,43.7872212 C17.9460769,42.0711213 14.9934045,42.1862408 11.8963435,42.8525259 C11.0267206,41.3025181 10.3332747,39.6400417 9.84319095,37.8923312 C12.5042067,36.16968 14.6741676,34.1594762 14.6741676,31.7320755 C14.6741676,29.3046814 12.5041757,27.2945864 9.84313186,25.5720305 C10.3332391,23.8241712 11.0267426,22.1615587 11.896447,20.6114334 C14.993464,21.2778065 17.9460817,21.3930248 19.6593515,19.6769297 C21.3726213,17.9608345 21.2575926,15.0033478 20.5923173,11.9012272 C22.1398899,11.0300849 23.7997652,10.3354377 25.544747,9.84452221 C27.2644668,12.5099543 29.2712525,14.6835248 31.6946501,14.6835248 C34.1180545,14.6835248 36.1249487,12.5099855 37.8447638,9.84458145 C39.5895969,10.3354734 41.2493363,11.0300629 42.796793,11.9011162 C42.1316041,15.0032881 42.0166741,17.9608297 43.7299487,19.6769297 C45.4432233,21.3930296 48.3958957,21.2779101 51.4929567,20.611625 C52.3625796,22.1616328 53.0560255,23.8241092 53.5461093,25.5718197 C50.8850935,27.2944709 48.7151326,29.3046747 48.7151326,31.7320755 C48.7151326,34.1594695 50.8851246,36.1695644 53.5461684,37.8921202 C53.0560612,39.6399797 52.3625576,41.3025923 51.4928532,42.8527178 C48.3958361,42.1863445 45.4432185,42.0711261 43.7299487,43.7872212 C42.0166789,45.5033164 42.1317077,48.4608031 42.7969831,51.5629237 C41.2494104,52.434066 39.589535,53.1287133 37.844553,53.6196288 C36.1248332,50.9541967 34.1180477,48.7806261 31.6946501,48.7806261 C29.2712457,48.7806261 27.2643515,50.9541654 25.5445364,53.6195695 Z" id="Combined-Shape" fill="url(#radialGradient-1)"></path>
                    <ellipse id="Oval" stroke="#9DD95B" stroke-width="3.78" fill="#EEF6F9" cx="32.0098536" cy="32.0477987" rx="7.88008685" ry="7.89308176"></ellipse>
                </g>
                <g id="browser-copy" transform="translate(15.000000, 8.000000)">
                    <path d="M9.5,-9.23705556e-14 L179.6,-9.23705556e-14 C184.570563,-7.56246469e-14 188.6,4.02943725 188.6,9 L188.6,61.2 C188.6,66.1705627 184.570563,70.2 179.6,70.2 L9.5,70.2 C4.52943725,70.2 0.5,66.1705627 0.5,61.2 L0.5,9 C0.5,4.02943725 4.52943725,-9.14574781e-14 9.5,-9.23705556e-14 Z" id="Rectangle" stroke="#D1EDFA" stroke-width="2.7" stroke-linecap="round" stroke-dasharray="9,9"></path>
                    <path d="M51.8,50.4 L275,50.4 C279.970563,50.4 284,54.4294373 284,59.4 L284,111.6 C284,116.570563 279.970563,120.6 275,120.6 L51.8,120.6 C46.8294373,120.6 42.8,116.570563 42.8,111.6 L42.8,59.4 C42.8,54.4294373 46.8294373,50.4 51.8,50.4 Z" id="Rectangle-Copy-4" stroke="#D1EDFA" stroke-width="2.7" stroke-linecap="round" stroke-dasharray="9,9"></path>
                    <g id="Group-6" transform="translate(79.700000, 32.200000)">
                        <rect id="Rectangle" fill="#B7E3F6" x="1" y="0" width="177" height="109" rx="5.05"></rect>
                        <path d="M1.42108547e-14,20 L176.9,20 L176.9,103 C176.9,105.761424 174.661424,108 171.9,108 L5,108 C2.23857625,108 1.45490316e-14,105.761424 1.42108547e-14,103 L1.42108547e-14,20 Z" id="Rectangle" fill="url(#linearGradient-2)"></path>
                        <path d="M4.5,2 L173,2 C175.485281,2 177.5,4.01471863 177.5,6.5 L177.5,22.6369427 L0,22.6369427 L0,6.5 C-3.04359188e-16,4.01471863 2.01471863,2 4.5,2 Z" id="Rectangle-Copy-2" fill="url(#linearGradient-3)"></path>
                        <ellipse id="Oval" fill="url(#linearGradient-4)" cx="13.4205882" cy="12.6624204" rx="4.47352941" ry="4.47133758"></ellipse>
                        <ellipse id="Oval-Copy-3" fill="url(#linearGradient-4)" cx="26.4970588" cy="12.6624204" rx="4.47352941" ry="4.47133758"></ellipse>
                        <ellipse id="Oval-Copy-4" fill="url(#linearGradient-4)" cx="39.5735294" cy="12.6624204" rx="4.47352941" ry="4.47133758"></ellipse>
                    </g>
                    <g id="Group-16-Copy" transform="translate(88.000000, 57.000000)">
                        <g id="Group-15" transform="translate(17.000000, 10.000000)">
                            <rect id="Rectangle" fill="#8BC543" x="0" y="4" width="26" height="8"></rect>
                            <rect id="Rectangle-Copy-9" fill="#F0CAAC" x="0" y="0" width="26" height="4"></rect>
                            <rect id="Rectangle-Copy-3" fill="#C2E6F6" x="0" y="11" width="26" height="12"></rect>
                            <rect id="Rectangle-Copy-8" fill="#429BC3" x="0" y="22" width="26" height="17"></rect>
                        </g>
                        <g id="Group-17">
                            <g id="Group-15-Copy-4"></g>
                        </g>
                        <circle id="Oval" fill="#3897D0" cx="20.5" cy="61.5" r="3.5"></circle>
                        <circle id="Oval-Copy-17" fill="#8BC543" cx="88.5" cy="61.5" r="3.5"></circle>
                        <circle id="Oval-Copy-18" fill="#F0CAAC" cx="88.5" cy="72.5" r="3.5"></circle>
                        <path d="M98,61.5 L112.5,61.5" id="Line-Copy-2" stroke="url(#linearGradient-5)" stroke-width="3" stroke-linecap="round"></path>
                        <path d="M98,72.5 L128.5,72.5" id="Line-Copy-3" stroke="url(#linearGradient-5)" stroke-width="3" stroke-linecap="round"></path>
                        <path d="M30,72.5 L51,72.5" id="Line-Copy" stroke="url(#linearGradient-5)" stroke-width="3" stroke-linecap="round"></path>
                        <g id="Group-15-Copy-5" transform="translate(57.000000, 10.000000)"></g>
                        <g id="Group-15-Copy-2" transform="translate(85.000000, 25.000000)">
                            <rect id="Rectangle" fill="#8BC543" x="0" y="2" width="26" height="5"></rect>
                            <rect id="Rectangle-Copy-9" fill="#F0CAAC" x="0" y="0" width="26" height="2"></rect>
                            <rect id="Rectangle-Copy-3" fill="#C2E6F6" x="0" y="7" width="26" height="9"></rect>
                            <rect id="Rectangle-Copy-8" fill="#429BC3" x="0" y="16" width="26" height="8"></rect>
                        </g>
                        <g id="Oval" transform="translate(24.000000, 2.000000)">
                            <path d="M61.9274315,29 C61.3088725,37.4952602 56.7794086,44.9859996 50.010177,49.9088962 L33,50 L33,29 L61.9274315,29 Z" id="Combined-Shape" fill="#429BC3"></path>
                            <path d="M14.1031431,0.472972597 L23.8666667,0.215545784 L23.8666667,13.4615385 L3.32119345,13.0628017 C5.76376501,8.09790715 9.46129628,3.69088615 14.1031431,0.472972597 Z" id="Combined-Shape" fill="#8BC543"></path>
                            <path d="M3.27026044,13.1667846 C3.8968318,13.0008616 4.57465305,12.8427026 5.30372418,12.6923077 L23.8666667,12.6923077 L23.8666667,28.3846154 L0.0347122101,28.3846154 C0.0116570458,27.9257854 -4.61852778e-14,27.4641662 -4.61852778e-14,27 C-4.61852778e-14,22.2471137 1.15846771,17.4970908 3.27026044,13.1667846 Z" id="Combined-Shape" fill="#C2E6F6"></path>
                            <path d="M0.0787125865,24.8461538 L23.8666667,24.8461538 L23.8666667,50 L11.9945963,49.9123669 C4.6960705,44.6066698 0,36.3163664 0,27 C0,26.2815058 0.0264737573,25.5630771 0.0787125865,24.8461538 Z" id="Combined-Shape" fill="#429BC3"></path>
                            <path d="M50.6990602,2 C53.2586395,4.19690667 55.431323,6.81043226 57.1670135,9.69230769 L33,9.69230769 L33,2 L50.6990602,2 Z" id="Combined-Shape" fill="#F0CAAC"></path>
                            <path d="M56.0759245,8 C58.1706752,11.0396507 59.7508253,14.4383725 60.7500938,18 L33,18 L33,8 L56.0759245,8 Z" id="Combined-Shape" fill="#8BC543"></path>
                            <path d="M60.1219372,16 C61.3511785,19.5299356 62,23.2640832 62,27 C62,28.3571245 61.9003492,29.6924759 61.7075192,31 L33,31 L33,16 L60.1219372,16 Z" id="Combined-Shape" fill="#C2E6F6"></path>
                        </g>
                    </g>
                    <g id="Group-22" transform="translate(207.000000, 88.000000)">
                        <rect id="Rectangle" fill="#8BC543" x="0" y="0" width="26" height="5"></rect>
                        <rect id="Rectangle-Copy-3" fill="#C2E6F6" x="0" y="5" width="26" height="5"></rect>
                        <rect id="Rectangle-Copy-8" fill="#429BC3" x="0" y="9" width="26" height="9"></rect>
                    </g>
                </g>
                <g id="girl" transform="translate(109.498629, 165.342928) rotate(-1.000000) translate(-109.498629, -165.342928) translate(24.998629, 61.842928)">
                    <g id="Group-19" transform="translate(73.000000, 0.000000)">
                        <circle id="Oval-Copy-20" stroke="url(#linearGradient-6)" stroke-width="6" cx="65" cy="33" r="31"></circle>
                        <path d="M-2.57356745,81.491316 C-4.78270645,81.491316 -6.57356745,79.700455 -6.57356745,77.491316 C-6.57356745,75.282177 -4.78270645,73.491316 -2.57356745,73.491316 L51.5561995,73.491316 C53.7653385,73.491316 55.5561995,75.282177 55.5561995,77.491316 C55.5561995,79.700455 53.7653385,81.491316 51.5561995,81.491316 L-2.57356745,81.491316 Z" id="Line-9" fill="url(#linearGradient-7)" fill-rule="nonzero" transform="translate(24.491316, 77.491316) rotate(-48.000000) translate(-24.491316, -77.491316) "></path>
                        <circle id="Oval-Copy-19" stroke="url(#linearGradient-8)" stroke-width="6" cx="61" cy="31" r="31"></circle>
                    </g>
                    <g transform="translate(-0.000000, 73.900000)">
                        <g id="Group-18" transform="translate(66.995134, 19.569587) rotate(8.000000) translate(-66.995134, -19.569587) translate(45.995134, 3.069587)">
                            <path d="M36.2385113,11.834325 C37.3629338,11.8319346 37.5978901,11.0027755 38.1680024,9.6858241 C38.4903311,8.94124947 39.2915097,8.1438945 39.1250317,6.5439871 C38.9585537,4.9440797 39.4384695,4.17805141 39.0669332,3.39805254 C38.8676357,2.97964972 37.7499356,6.15844423 37.3915165,6.26690801 C37.1474309,6.34077252 37.3051503,5.00364924 37.5164455,2.68207758 C37.5730014,2.06067856 37.4118477,0.724834437 36.9935741,1.0064538 C35.0263819,2.33094446 34.195383,2.06551864 34.18977,4.69872223 C34.1869246,6.03359077 34.0282631,9.3404849 34.6173213,10.2047082 C35.1902578,11.0452789 35.3706488,11.8361701 36.2385113,11.834325 Z" id="Oval" fill="url(#linearGradient-9)" transform="translate(36.690078, 6.401151) rotate(29.000000) translate(-36.690078, -6.401151) "></path>
                            <path d="M0.496623795,29.0033026 C4.03317338,26.671375 6.7057724,25.3056463 8.51442086,24.9061166 C12.8542892,23.9474414 16.635832,22.4923058 19.8590493,20.5407098 C27.7162595,15.7833201 31.6060318,9.72741268 32.8198242,8.94741211 C33.314129,8.62976469 32.9372559,9.47335062 34.142334,10.1058594 C35.3474121,10.7383681 36.2900798,9.70651735 35.9216309,10.507959 C35.3000488,11.8600098 30.3692642,18.3094769 24.9804687,22.853418 C21.3879385,25.882712 17.3733991,28.6623278 12.9368506,31.1922652 C10.6214092,32.7191897 8.07149541,33.0550525 5.28710937,32.1998535 C2.50272334,31.3446545 0.905894809,30.2791376 0.496623795,29.0033026 Z" id="Path-2" fill="#8BC543"></path>
                        </g>
                        <polygon id="Path-11" fill="url(#linearGradient-10)" points="43.0849609 25.502832 43.9951172 32.747079 51.675293 31.2567823 46.5805664 23.6634766"></polygon>
                        <path d="M46,26.9051758 C48.9150391,25.3666016 50.9320967,23.4251174 49.6940324,19.6216642 C48.4559682,15.8182111 45.4643105,12.3017801 42.1533203,13.3757204 C38.8423301,14.4496607 36.4658121,19.707293 37.7038764,23.5107462 C38.9419407,27.3141993 43.0849609,28.44375 46,26.9051758 Z" id="Combined-Shape" fill="url(#linearGradient-11)"></path>
                        <path d="M47.2179742,20.7988401 C46.991442,20.6409232 46.9358183,20.3292656 47.0937352,20.1027333 C47.2516521,19.8762011 47.5633097,19.8205774 47.7898419,19.9784943 C48.3229872,20.3501528 49.0138028,20.4577845 49.8897377,20.2842228 C49.9389835,20.274465 50.1243813,21.257419 50.0563093,21.2705419 C49.5270646,21.3725696 49.0339188,21.3920689 48.5797635,21.3272315 C48.0766789,21.2554086 47.6214389,21.0800976 47.2179742,20.7988401 Z" id="Line-6" fill="#C08574" fill-rule="nonzero"></path>
                        <rect id="Rectangle" fill="#1B7BA4" x="46.2223435" y="16.6045076" width="1" height="1"></rect>
                        <path d="M90.5071222,22.1509592 C92.2672678,22.1472172 93.6986979,20.0095505 93.7043109,17.3763469 C93.7099239,14.7431433 93.2279101,14.9672525 93.4764961,12.474787 C93.5844857,11.3920219 91.1574082,11.8523622 90.7751351,14.4722537 C90.5740675,15.8502617 89.7566214,16.5562491 89.5557251,16.9674733 C89.1708685,17.7552544 87.4360501,13.5680351 87.5259432,15.7732323 C87.6329859,18.3991297 88.7469767,22.1547012 90.5071222,22.1509592 Z" id="Oval-Copy" fill="url(#linearGradient-9)" transform="translate(90.613466, 17.040047) rotate(29.000000) translate(-90.613466, -17.040047) "></path>
                        <g id="Group-3" transform="translate(2.255556, 56.354142)">
                            <path d="M21.4496554,7.00849385 C14.3377401,7.14509769 12.2692834,10.3577054 15.2442853,16.6463171 C19.706788,26.0792345 34.5620017,26.9869026 36.2410352,30.2976717 C37.3603908,32.5048511 41.2469338,41.7813486 47.9006641,58.1271641 L53.8143171,59.8557639 C48.7381713,45.8081302 46.2034818,37.4286552 46.2102487,34.7173389 C46.2170156,32.0060226 40.0967465,22.4347313 27.8494413,6.00346503 L21.4496554,7.00849385 Z" id="Path-5-Copy" fill="url(#linearGradient-12)" transform="translate(33.871223, 32.929614) rotate(48.000000) translate(-33.871223, -32.929614) "></path>
                            <g id="Group" transform="translate(19.977778, 58.569061)">
                                <polygon id="Path-6" fill="#D8D8D8" points="10.4792664 15.8031424 7.8330207 5.88649143 4.85730553 0.0189365671 1.92121994 1.43268212 4.0210612 7.9110395"></polygon>
                                <path d="M10.4320606,15.609332 C10.1634348,16.5683877 9.87717511,17.6425055 6.57672214,13.7212311 C3.27626917,9.79995674 1.51261151,5.78625376 1.01715495,4.42346483 C0.68685057,3.51493888 1.00141543,2.53464516 1.96084952,1.48258365 C3.19615045,3.04514917 4.17032257,4.9503784 4.88336589,7.19827132 C5.27280034,8.42597648 6.81059722,8.9263976 7.87805495,10.485677 C8.76508171,11.7813934 10.7006864,14.6502763 10.4320606,15.609332 Z" id="Path-7" fill="#A4A1A1"></path>
                            </g>
                        </g>
                        <g id="Group-2" transform="translate(36.483805, 85.447758) rotate(51.000000) translate(-36.483805, -85.447758) translate(19.983805, 52.447758)">
                            <path d="M6.04748977,5.18718343 C1.05398001,2.60447314 -0.261326824,4.8609473 2.10156927,11.9566059 C5.6459134,22.6000939 20.8388827,24.2331185 22.5307467,27.5573768 C23.6586561,29.7735489 22.4709565,37.0793994 18.967648,49.4749282 L22.5453347,55.179558 L24.9437,51.0057238 C29.5863707,40.1253193 32.1792114,33.4035367 32.7222222,30.8403759 C34.0492445,24.5764642 19.2763931,12.613645 14.3383986,8.6149359 C12.512053,7.13599043 7.03258546,2.74013298 6.82935397,2.53423148 C4.91247384,0.592167796 4.74719014,0.458323702 6.3335029,2.1326992 L6.04748977,5.18718343 Z" id="Path-5" fill="url(#linearGradient-13)"></path>
                            <g id="Group-Copy" transform="translate(20.508878, 56.977288) rotate(-11.000000) translate(-20.508878, -56.977288) translate(14.508878, 48.977288)">
                                <polygon id="Path-6" fill="#D8D8D8" points="11.5112127 15.5786287 8.8583306 5.79766458 5.87515275 0.0103939148 2.93170388 1.40479557 6.59786936 7.18819074"></polygon>
                                <path d="M11.4638885,15.3874701 C12.0744326,16.7163246 7.65012974,14.1304922 6.00394081,12.1686406 C5.50380555,11.5726026 5.16362211,9.08914873 4.55009732,8.13824771 C3.14421296,5.95926996 1.42757023,4.94063546 1.08177527,4.00486246 C0.750642539,3.10876763 1.38052839,2.25848491 2.97143284,1.4540143 C3.94715639,2.52380333 4.60426888,3.33526967 4.9427703,3.88841333 C5.71617779,5.15223504 6.05108135,6.53234181 6.75912222,7.37615205 C8.51844064,9.47282611 10.8533444,14.0586156 11.4638885,15.3874701 Z" id="Path-7" fill="#A4A1A1"></path>
                            </g>
                        </g>
                        <path d="M42.8660971,31.7763729 C42.8660971,34.2591423 40.2625358,35.325537 41.0880111,44.452723 C41.9134863,53.579909 38.8537514,58.9189481 36.8115683,60.7460913 C33.3252023,63.8653464 38.7997239,65.0831741 45.8062777,62.7621243 C50.1856715,61.3113696 54.8102124,65.0132328 54.8102124,61.5105321 C54.8102124,58.0078314 57.1652896,44.6913416 57.3718262,43.6931825 C57.7866211,41.6885438 58.2498144,39.4437352 59.8516011,38.4430427 C61.4533877,37.4423502 71.2785527,35.6876573 74.9306641,33.1432129 C78.5827754,30.5987685 88.8438345,23.8841719 90.0888889,22.1234768 C90.6423247,21.340835 89.3509731,21.9377779 88.3259277,20.6603685 C87.3008824,19.382959 87.6924919,17.9196682 87.3008824,18.1254144 C86.5959054,18.4957994 75.7576598,26.9807886 74.4235077,27.77599 C73.5340729,28.3061243 71.0344238,29.016748 66.9245605,29.9078613 C62.1084931,30.1670586 58.9242483,30.0412447 57.3718262,29.5304199 C55.0431929,28.7641827 52.2778393,28.0756649 50.7758789,28.8270411 C49.2739185,29.5784174 50.869873,30.1888672 48.0827637,31.2567823 C45.2956543,32.3246974 42.8660971,29.2936035 42.8660971,31.7763729 Z" id="Path" fill="#6BAB34"></path>
                        <polygon id="Path-12" fill="#F0CAAC" points="48.2716064 16.5362793 50.5712891 18.1621338 49.4940186 19.0477869"></polygon>
                    </g>
                </g>
                <g id="hair" transform="translate(0.000000, 144.000000)">
                    <path d="M67.2813086,5.48964644 C69.3197909,1.78548367 70.9474585,0.0422677809 72.1643115,0.259998782 C83.0397215,2.20593136 68.3546128,8.97331822 68.0818244,9.24882106 C67.8545434,9.47836361 68.2442644,12.9601914 67.5033125,13.7778441 C65.9899025,14.0829352 65.616421,14.74254 66.382868,15.7566585 C67.5325386,17.2778361 68.3072919,15.7507233 68.458508,16.1351735 C68.6112858,16.5235941 69.7730581,20.611838 68.458508,20.98313 C65.24733,21.8901207 60.6064811,21.1827394 57.5355513,15.8587223 C57.1826274,15.2468642 55.4872292,29.5947305 40.5605241,19.226526 C39.1090361,18.2183112 28.3338956,24.3978461 24.5787675,24.3748762 C18.8285272,24.3397024 22.554031,14.5752111 9.70295679,17.3368968 C6.70665634,17.9807994 4.33274054,12.9077927 4.33274054,9.74168124 C4.33274054,6.57556977 10.6930152,5.98557526 18.720363,8.97612339 C26.7477108,11.9666715 27.4300525,4.92440146 32.5717257,4.88378841 C40.0763867,4.8245106 47.3462531,7.88423908 51.0499455,6.64345108 C54.6394939,5.44090289 57.63134,9.24706004 57.6541047,9.06680454 C58.4252471,2.96073203 62.6982676,2.66265169 65.5691453,3.45333483 C67.4830638,3.98045693 68.0537849,4.65922747 67.2813086,5.48964644 Z" id="hair4" fill="#1B7BA4"></path>
                    <path d="M67.2983717,5.55525024 C69.4785251,2.18036723 71.2011109,0.790714358 72.466129,1.38629162 C80.9595095,5.38502037 68.3716758,9.03892202 68.0988874,9.31442486 C67.8716065,9.54396741 68.2613275,13.0257952 67.5203756,13.8434479 C66.0069655,14.148539 65.633484,14.8081439 66.3999311,15.8222623 C67.5496016,17.3434399 68.324355,15.8163272 68.4755711,16.2007773 C68.6283488,16.5891979 68.8097277,20.4828045 68.4755711,21.0487338 C67.0496921,23.4636091 57.8061887,22.443639 56.2637145,16.2588425 C56.1088227,15.6377792 55.52261,18.2019878 40.5775871,19.2921298 C33.1460769,19.8342101 29.301497,20.7611851 27.1023103,21.6466171 C22.2347469,23.6063853 24.1337985,15.6980127 12.1976868,14.658966 C8.68362386,14.3530645 0.483441789,14.4544931 0.58345311,8.72484842 C0.68346443,2.99520371 13.8375169,3.42072778 21.8648647,6.41127591 C29.8922126,9.40182404 27.0891239,1.00384184 32.0452753,2.93347947 C45.7789264,8.28056598 45.8581546,4.9907377 50.2621616,5.55525024 C54.6661686,6.11976278 56.2409498,9.23930541 56.2637145,9.0590499 C57.0348568,2.9529774 63.4088986,1.92858004 65.5862083,3.51893864 C67.0377482,4.5791777 67.6084693,5.25794824 67.2983717,5.55525024 Z" id="hair5" fill="#1C84B4"></path>
                </g>
            </g>
        </g>
    </g>
</svg>