<?xml version="1.0" encoding="UTF-8"?>
<svg width="280px" height="278px" viewBox="0 0 280 278" version="1.1" xmlns="http://www.w3.org/2000/svg" xmlns:xlink="http://www.w3.org/1999/xlink">
    <!-- Generator: Sketch 52.5 (67469) - http://www.bohemiancoding.com/sketch -->
    <title>Group 12</title>
    <desc>Created with Sketch.</desc>
    <defs>
        <linearGradient x1="50%" y1="100%" x2="44.6021894%" y2="35.6820128%" id="linearGradient-1">
            <stop stop-color="#103653" offset="0%"></stop>
            <stop stop-color="#0E3E62" offset="100%"></stop>
        </linearGradient>
        <linearGradient x1="63.0289007%" y1="4.08355884%" x2="50%" y2="100%" id="linearGradient-2">
            <stop stop-color="#FFF3E9" offset="0%"></stop>
            <stop stop-color="#A78872" offset="100%"></stop>
        </linearGradient>
        <linearGradient x1="50%" y1="59.6495828%" x2="82.5990221%" y2="50%" id="linearGradient-3">
            <stop stop-color="#0E4065" offset="0%"></stop>
            <stop stop-color="#2074AA" offset="100%"></stop>
        </linearGradient>
        <linearGradient x1="50%" y1="59.6495828%" x2="82.5990221%" y2="50%" id="linearGradient-4">
            <stop stop-color="#004C84" offset="0%"></stop>
            <stop stop-color="#2074AA" offset="100%"></stop>
        </linearGradient>
        <linearGradient x1="7.47260338%" y1="36.7616041%" x2="52.131184%" y2="76.4806348%" id="linearGradient-5">
            <stop stop-color="#98C7DB" offset="0%"></stop>
            <stop stop-color="#F8FEFD" offset="100%"></stop>
        </linearGradient>
        <linearGradient x1="50%" y1="0%" x2="50%" y2="81.090331%" id="linearGradient-6">
            <stop stop-color="#E87B9F" offset="0%"></stop>
            <stop stop-color="#FBB9CF" offset="100%"></stop>
        </linearGradient>
        <linearGradient x1="77.8414091%" y1="52.9619186%" x2="25.1941554%" y2="36.4521214%" id="linearGradient-7">
            <stop stop-color="#E5CCB8" offset="0%"></stop>
            <stop stop-color="#C19F86" offset="100%"></stop>
        </linearGradient>
        <linearGradient x1="73.1173632%" y1="0%" x2="50%" y2="100%" id="linearGradient-8">
            <stop stop-color="#F8E1CF" offset="0%"></stop>
            <stop stop-color="#A78872" offset="100%"></stop>
        </linearGradient>
        <linearGradient x1="-48.3484984%" y1="38.4234234%" x2="50%" y2="71.1403183%" id="linearGradient-9">
            <stop stop-color="#FFFFFF" offset="0%"></stop>
            <stop stop-color="#B7E3F6" offset="100%"></stop>
        </linearGradient>
        <linearGradient x1="100%" y1="72.7806081%" x2="-10.5558104%" y2="40.279949%" id="linearGradient-10">
            <stop stop-color="#EDD5C2" offset="0%"></stop>
            <stop stop-color="#AC8469" offset="100%"></stop>
        </linearGradient>
        <path d="M168.931108,123.936343 C172.804609,122.770034 173.1896,122.150856 172.057027,117.689714 C170.924453,113.228572 165.727349,105.403809 161.93518,106.549957 C158.143011,107.696105 156.57475,116.268373 157.993872,120.331302 C159.412993,124.394232 165.057607,125.102652 168.931108,123.936343 Z" id="path-11"></path>
        <linearGradient x1="48.7757825%" y1="33.5838138%" x2="48.7757825%" y2="96.0069174%" id="linearGradient-13">
            <stop stop-color="#188ED5" offset="0%"></stop>
            <stop stop-color="#0961A3" offset="100%"></stop>
        </linearGradient>
        <ellipse id="path-14" cx="11.5" cy="5" rx="11.5" ry="5"></ellipse>
        <path d="M11.5,35 C17.8512746,35 23,32.8236064 23,30.1388889 C23,27.4541714 18.3907392,-4.54747351e-13 12.0394646,-4.54747351e-13 C5.68818996,-4.54747351e-13 1.77635684e-15,27.4541714 1.77635684e-15,30.1388889 C1.77635684e-15,32.8236064 5.14872538,35 11.5,35 Z" id="path-16"></path>
    </defs>
    <g id="Page-1" stroke="none" stroke-width="1" fill="none" fill-rule="evenodd">
        <g id="Idle-Resources" transform="translate(-1081.000000, -259.000000)">
            <g id="Group-12" transform="translate(942.000000, 151.000000)">
                <g id="boy">
                    <g id="boy_body" transform="translate(276.493622, 276.918865) rotate(37.000000) translate(-276.493622, -276.918865) translate(78.993622, 79.918865)">
                        <g id="il2" transform="translate(197.532103, 197.025320) rotate(-42.000000) translate(-197.532103, -197.025320) translate(58.032103, 58.025320)">
                            <g id="Group-11" transform="translate(0.000000, 0.000000)">
                                <path d="M159,156 C195.450793,156 225,126.450793 225,90 C225,53.5492065 195.450793,24 159,24 C122.549207,24 93,53.5492065 93,90 C93,126.450793 122.549207,156 159,156 Z M159,180 C109.294373,180 69,139.705627 69,90 C69,40.2943725 109.294373,1.54614099e-11 159,1.54614099e-11 C208.705627,1.54614099e-11 249,40.2943725 249,90 C249,139.705627 208.705627,180 159,180 Z" id="Oval-Copy-12" fill="url(#linearGradient-1)" fill-rule="nonzero"></path>
                                <path d="M53.5,229 C83.0472341,229 107,205.047234 107,175.5 C107,145.952766 83.0472341,122 53.5,122 C23.9527659,122 0,145.952766 0,175.5 C0,205.047234 23.9527659,229 53.5,229 Z" id="Oval" stroke="#FFFFFF" stroke-width="3" stroke-linecap="round" stroke-dasharray="12,12"></path>
                                <path d="M254.5,185 C268.030976,185 279,174.030976 279,160.5 C279,146.969024 268.030976,136 254.5,136 C240.969024,136 230,146.969024 230,160.5 C230,174.030976 240.969024,185 254.5,185 Z" id="Oval-Copy" stroke="#FFFFFF" stroke-width="3" stroke-linecap="round" stroke-dasharray="12,12"></path>
                                <rect id="Rectangle" fill="#D8D8D8" transform="translate(165.165120, 116.549249) scale(-1, 1) rotate(-5.000000) translate(-165.165120, -116.549249) " x="164.71467" y="116.098315" width="1" height="1"></rect>
                                <path d="M160.534557,223.686565 C161.131362,223.450085 161.541193,223.17198 161.764051,222.85225 C161.939484,222.600558 162.392944,222.114081 162.600293,221.492519 C162.637661,221.380502 163.071257,220.595316 163.901082,219.13696 L166.653814,221.548829 C166.457053,222.958327 166.284976,223.82946 166.137583,224.162225 C165.798986,224.926666 165.657672,225.752628 165.493572,226.145634 C165.222322,226.795257 165.012933,228.23025 164.865405,230.450612 L160.534557,223.686565 Z" id="Path-23" fill="#C0A48F" transform="translate(163.594186, 224.793786) scale(-1, 1) rotate(11.000000) translate(-163.594186, -224.793786) "></path>
                                <path d="M169.973727,239.013211 C170.554801,237.803956 168.170027,235.343067 167.653558,233.418082 C167.309245,232.134759 167.065511,230.603953 166.922355,228.825664 L163.830807,222.776141 L159.876635,224.629622 L162.999438,231.537423 C163.221719,233.213714 163.791786,234.56919 164.70964,235.603851 C165.838142,236.875966 168.507081,239.249482 169.664924,239.368006 C169.919658,239.394083 169.86894,239.23128 169.973727,239.013211 Z" id="Path-6" fill="#D8D8D8" transform="translate(164.970471, 231.073447) scale(-1, 1) rotate(-0.000000) translate(-164.970471, -231.073447) "></path>
                                <path d="M170.830865,239.279964 C172.430534,240.352993 167.249903,237.542496 165.542483,235.492481 C165.023745,234.869657 164.67332,232.272572 164.03723,231.278724 C162.579637,229.001334 161.114999,227.462691 160.75695,226.484355 C160.414082,225.547501 159.892735,225.331238 161.54595,224.487981 C162.558074,225.605754 163.003202,227.072762 163.35412,227.650909 C164.155898,228.971859 165.198222,234.141065 165.932599,235.022795 C167.757357,237.213692 169.231197,238.206935 170.830865,239.279964 Z" id="Path-7" fill="#A4A1A1" transform="translate(165.766488, 232.002190) scale(-1, 1) rotate(-0.000000) translate(-165.766488, -232.002190) "></path>
                                <path d="M154.04353,101.045202 C154.305299,101.044633 155.408932,100.159627 155.306899,99.4094271 C154.993319,97.1038298 151.131951,90.6518223 151.539901,89.7095705 C151.608869,89.550274 152.00374,89.3425239 152.105792,89.2134222 C152.456078,88.7702919 152.728374,88.0445629 152.961482,87.7703048 C154.595722,85.8475764 154.074693,85.5574774 153.366939,86.0265648 C153.123907,86.1876422 152.88206,86.903359 152.589826,87.0713199 C152.102517,87.3513991 151.627454,87.5432675 151.433622,87.3208207 C151.243169,87.1022523 151.785435,86.247267 152.513167,85.7249173 C152.849505,85.4835013 153.435604,85.1718668 154.271465,84.7900137 C153.332089,84.611117 152.728352,84.5929436 152.460255,84.7354934 C151.381719,85.3089615 150.646428,85.8529349 150.223767,86.1533702 C149.612812,86.5876493 148.424209,87.4467436 148.420989,88.9226663 C148.418227,90.1884728 148.826802,90.9568919 149.531013,92.1232047 C150.235224,93.2895175 153.220553,101.046994 154.04353,101.045202 Z" id="Oval" fill="url(#linearGradient-2)" transform="translate(151.867257, 92.842936) scale(-1, 1) rotate(23.000000) translate(-151.867257, -92.842936) "></path>
                                <path d="M135.924061,233.547051 C136.407994,233.272291 136.785708,233.087673 137.057203,232.993197 C137.55206,232.820995 138.59686,232.155679 138.792647,231.912336 C139.149556,231.468734 139.665013,230.634792 140.339016,229.410512 C142.219605,229.678694 143.204552,230.411701 143.293859,231.609532 C143.427819,233.406279 141.507445,235.317723 140.887686,236.769586 C140.474514,237.737494 140.184001,239.08148 140.016149,240.801543 L135.924061,233.547051 Z" id="Path-25" fill="#C0A48F" transform="translate(139.612296, 235.106028) scale(-1, 1) rotate(-30.000000) translate(-139.612296, -235.106028) "></path>
                                <path d="M133.966701,173.315024 C126.542554,173.473812 125.652508,175.670816 128.743849,182.236954 C133.380859,192.086162 150.410655,196.832924 152.155884,200.289549 C152.894034,201.751539 151.599773,206.42105 154.619594,212.154696 C156.545037,215.810478 159.495357,221.598879 162.021009,227.839027 L168.25473,228.631061 C162.987542,213.959948 160.761008,200.92309 159.90381,197.875444 C159.046613,194.827798 154.274611,188.391769 141.527101,171.245436 L133.966701,173.315024 Z" id="Path-5-Copy" fill="url(#linearGradient-3)" transform="translate(147.662634, 199.938248) scale(-1, 1) rotate(18.000000) translate(-147.662634, -199.938248) "></path>
                                <path d="M142.516855,250.002141 C142.997731,249.661874 142.971357,247.176781 141.124371,243.826546 C140.730722,243.112509 140.50251,241.484193 140.439734,238.941598 L137.327164,232.827595 C135.99997,233.28306 135.033876,233.707657 134.428881,234.101387 C133.823886,234.495116 133.39871,234.975955 133.153353,235.543903 L136.104638,242.009109 C139.727843,247.798873 141.865249,250.463217 142.516855,250.002141 Z" id="Path-6" fill="#D8D8D8" transform="translate(137.966683, 241.440375) scale(-1, 1) rotate(-30.000000) translate(-137.966683, -241.440375) "></path>
                                <path d="M142.445796,249.433555 C142.164178,250.433218 142.407114,251.148199 138.953763,247.062789 C135.500411,242.977379 133.63458,238.609515 132.968225,237.337999 C132.473676,236.394319 132.408392,235.988673 133.094869,235.257621 C134.387356,236.885626 134.970593,238.995341 135.716068,241.337833 C136.123216,242.617205 138.689198,243.610544 139.805983,245.235197 C140.733999,246.585236 142.727414,248.433892 142.445796,249.433555 Z" id="Path-7" fill="#A4A1A1" transform="translate(137.530578, 242.732993) scale(-1, 1) rotate(-30.000000) translate(-137.530578, -242.732993) "></path>
                                <path d="M149.045389,173.381193 C143.858496,170.677653 141.68517,161.786127 140.324945,169.988599 C137.320264,188.107527 164.278123,194.274204 166.03653,197.752021 C167.105105,199.865474 163.52315,203.888993 163.37202,214.136348 C163.360522,214.916013 162.837742,216.978273 161.803681,220.323129 L166.435734,224.928871 L168.650598,217.699832 C173.467522,206.321045 176.484883,199.185851 177.047736,196.505055 C178.423249,189.953664 157.969413,172.813397 152.839582,168.62877 C150.942285,167.081061 150.067401,170.82203 149.856257,170.606577 C147.864745,168.574417 147.69304,168.43435 149.341142,170.186375 L149.045389,173.381193 Z" id="Path-5" fill="url(#linearGradient-4)" transform="translate(158.602714, 195.760942) scale(-1, 1) rotate(19.000000) translate(-158.602714, -195.760942) "></path>
                                <path d="M146.516224,170.821256 C150.929833,174.024825 155.897243,175.149946 161.418454,174.196618 C166.939664,173.24329 169.842498,170.155897 170.126955,164.934439 C164.531713,152.694698 159.629702,142.895377 155.420923,135.536478 C151.212143,128.177578 148.919579,125.475586 148.54323,127.430502 C149.054058,129.983584 148.666756,131.376382 147.381322,131.608896 C146.095888,131.841411 143.967844,131.308149 140.997188,130.00911 L146.217076,169.621439" id="Path-22" fill="#6BAB34" transform="translate(155.562072, 150.669790) scale(-1, 1) rotate(9.000000) translate(-155.562072, -150.669790) "></path>
                                <path d="M139.061261,148.08846 C140.63656,151.653694 147.658548,162.592456 153.064411,170.493139 C154.934645,173.22649 156.228976,167.939485 156.304768,167.82627 C157.431284,166.143526 140.655431,143.995129 139.089977,134.009775 C137.524522,124.02442 155.738688,117.817501 152.053823,110.951673 C151.304848,109.556145 174.159094,108.031962 153.69669,102.645122 C153.526503,102.600319 126.799802,110.106128 129.20862,126.402185 C129.613762,129.143037 131.381356,127.4645 134.322137,135.359646 C137.262917,143.254793 137.485962,144.523227 139.061261,148.08846 Z" id="Path-10" fill="url(#linearGradient-5)" transform="translate(145.643630, 136.960787) scale(-1, 1) rotate(9.000000) translate(-145.643630, -136.960787) "></path>
                                <path d="M202.87291,105.681684 C200.60016,121.487278 188.12166,133.573835 167.13816,133.573835 C166.30766,133.573835 165.37166,133.539494 164.39891,133.48836 C160.18916,133.322924 155.97641,132.780998 151.88616,131.891157 C149.75566,131.480576 147.59666,130.987027 145.47466,130.425299 C143.27016,133.422687 138.81291,136.594033 137.69216,136.594033 C136.23591,136.594033 137.58416,131.25799 137.67516,127.889877 C135.17216,126.89175 132.88516,125.773808 130.99916,124.515998 C121.96516,118.475602 121.96516,115.455405 111.54891,115.455405 C106.90666,115.455405 107.03191,110.726961 107.03191,104.888848 C107.03191,99.0537423 106.90666,97.4224494 111.54891,94.3167766 C117.75841,90.1643491 125.00591,84.0126605 134.16791,78.9561038 C139.92516,69.980985 135.09516,61.1001143 140.03591,61.1001143 C143.52616,61.1001143 148.02016,66.7013544 150.41241,72.3509718 C155.49541,70.9991644 161.02791,70.1577001 167.13766,70.1577001 C170.38591,70.1577001 173.40966,70.4116183 176.24566,70.8565391 C177.01941,65.3094415 175.79066,61.1001143 179.18966,61.1001143 C183.61266,61.1001143 199.09516,75.3428452 202.56541,93.2985972 C202.73316,94.1170009 202.85841,94.9584652 202.96641,95.8139666 C203.00066,96.070642 203.04891,96.3273175 203.07441,96.5867502 C203.13416,97.1542436 203.16266,97.7390325 203.19091,98.3208135 C206.16916,97.5392568 209.30641,96.3473703 209.30641,98.8198768 C209.30716,100.830668 206.12416,103.714006 202.87291,105.681684" id="Path" fill="url(#linearGradient-6)" transform="translate(158.168996, 98.847073) scale(-1, 1) rotate(-171.000000) translate(-158.168996, -98.847073) "></path>
                                <path d="M128.185727,83.7461434 C128.185727,83.1946453 127.737934,82.7461434 127.185271,82.7461434 C126.633521,82.7461434 126.185727,83.1946453 126.185727,83.7461434 C126.185727,84.2985544 126.633521,84.7461434 127.185271,84.7461434 C127.737934,84.7461434 128.185727,84.2985544 128.185727,83.7461434" id="Path" fill="#113652" transform="translate(127.185727, 83.746143) scale(-1, 1) rotate(-171.000000) translate(-127.185727, -83.746143) "></path>
                                <path d="M131.094766,86.8294938 C131.094766,86.2779958 130.646973,85.8294938 130.09431,85.8294938 C129.54256,85.8294938 129.094766,86.2779958 129.094766,86.8294938 C129.094766,87.3819048 129.54256,87.8294938 130.09431,87.8294938 C130.646973,87.8294938 131.094766,87.3819048 131.094766,86.8294938" id="Path-Copy" fill="#113652" transform="translate(130.094766, 86.829494) scale(-1, 1) rotate(-171.000000) translate(-130.094766, -86.829494) "></path>
                                <path d="M160.64022,121.374685 C160.39017,123.099799 160.092263,124.747266 159.7465,126.317087 C159.400736,127.886908 158.8152,130.250419 157.98989,133.40762 L165.642334,132.337073 C167.722589,130.96861 168.580445,129.954333 168.215904,129.294241 C167.855917,128.642395 167.551067,127.691414 167.318226,127.097958 C166.731705,125.603058 166.244342,123.266506 165.856137,120.088301 L160.64022,121.374685 Z" id="Path-11" fill="url(#linearGradient-7)" transform="translate(163.143664, 126.747960) scale(-1, 1) rotate(-6.000000) translate(-163.143664, -126.747960) "></path>
                                <path d="M124.546334,131.945742 C125.091295,132.051904 127.887372,134.944317 128.427744,133.755768 C130.159787,129.946141 131.745773,121.186995 131.999069,120.857907 C132.630675,120.03731 137.071803,118.026977 137.089933,115.867353 C137.110652,113.399173 136.728057,113.778027 136.048379,113.820078 C135.21593,113.871581 131.204648,116.517267 131.01408,116.90733 C130.64901,117.654573 129.817591,114.214041 129.196483,114.544507 C128.525287,114.901623 128.570553,115.984613 128.682446,117.488672 C128.764899,118.596997 128.72955,120.091823 129.259906,120.883891 C129.578745,121.360066 124.207574,131.879749 124.546334,131.945742 Z" id="Oval-Copy" fill="url(#linearGradient-8)" transform="translate(130.810841, 123.908387) scale(-1, 1) rotate(9.000000) translate(-130.810841, -123.908387) "></path>
                                <path d="M143.351664,128.788662 C142.261261,130.540633 137.508346,132.96565 136.847088,141.633026 C136.268257,149.219981 142.229394,170.340027 144.044978,174.386131 C144.178559,174.683822 145.114022,175.289755 145.257105,175.363763 C151.468916,178.576747 161.237061,179.086515 161.35094,177.507099 C161.46482,175.927684 159.006167,166.870264 157.482793,161.992806 C155.959418,157.115349 152.420213,145.455094 152.615849,144.508722 C152.825061,143.496679 159.673025,145.104595 164.652884,145.400133 C167.567816,145.573124 171.881517,140.248388 177.593986,129.425925 L172.857463,126.757343 C166.781545,134.083929 163.367213,137.572976 162.614467,137.224485 C154.85057,133.630116 144.442067,127.036691 143.351664,128.788662 Z" id="Path" fill="url(#linearGradient-9)" transform="translate(157.200835, 152.564647) scale(-1, 1) rotate(9.000000) translate(-157.200835, -152.564647) "></path>
                                <path d="M167.848448,123.78149 C171.354657,122.684156 171.703138,122.10161 170.677914,117.904439 C169.65269,113.707268 164.948301,106.345536 161.515712,107.423901 C158.083123,108.502267 157.467539,116.713162 158.752137,120.535679 C160.036735,124.358197 164.34224,124.878824 167.848448,123.78149 Z" id="Combined-Shape" fill="url(#linearGradient-10)" transform="translate(164.657334, 115.802159) scale(-1, 1) rotate(9.000000) translate(-164.657334, -115.802159) "></path>
                                <mask id="mask-12" fill="white">
                                    <use xlink:href="#path-11"></use>
                                </mask>
                                <use id="Mask" fill="url(#linearGradient-10)" transform="translate(165.045817, 115.439652) scale(-1, 1) rotate(9.000000) translate(-165.045817, -115.439652) " xlink:href="#path-11"></use>
                                <path d="M158.54154,120.594859 C159.722438,120.580502 160.643245,120.350919 161.30396,119.90611 C161.964675,119.461302 162.348124,118.817135 162.454309,117.973608" id="Line-7" stroke="#D9A887" stroke-width="0.9" stroke-linecap="round" mask="url(#mask-12)" transform="translate(160.497924, 119.284233) scale(-1, 1) rotate(9.000000) translate(-160.497924, -119.284233) "></path>
                                <polygon id="Rectangle" fill="#1B84B4" mask="url(#mask-12)" transform="translate(165.244415, 115.642902) scale(-1, 1) rotate(9.000000) translate(-165.244415, -115.642902) " points="164.696333 115.306631 165.570474 115.088684 165.792498 115.979173 164.918357 116.19712"></polygon>
                                <polygon id="Rectangle-Copy-5" fill="#1B84B4" mask="url(#mask-12)" transform="translate(161.810122, 113.535893) scale(-1, 1) rotate(9.000000) translate(-161.810122, -113.535893) " points="161.263755 113.206499 162.137895 112.988552 162.35649 113.865287 161.482349 114.083235"></polygon>
                                <path d="M160.110471,114.390945 C161.460594,115.146831 162.556981,115.665408 163.399634,115.946676 C164.242287,116.227944 163.853024,116.98203 162.231844,118.208932 L160.110471,114.390945 Z" id="Path-24" fill="#FFE6D3" opacity="0.756324405" mask="url(#mask-12)" transform="translate(161.971199, 116.299939) scale(-1, 1) rotate(9.000000) translate(-161.971199, -116.299939) "></path>
                                <path d="M165.936955,115.002305 L167.029983,113.800304" id="Line-8" stroke="#227EA8" stroke-width="0.9" stroke-linecap="round" mask="url(#mask-12)" transform="translate(166.483469, 114.401305) scale(-1, 1) rotate(9.000000) translate(-166.483469, -114.401305) "></path>
                                <path d="M161.959224,112.627789 L163.052229,111.426297" id="Line-8-Copy" stroke="#227EA8" stroke-width="0.9" stroke-linecap="round" mask="url(#mask-12)" transform="translate(162.505726, 112.027043) scale(-1, 1) rotate(26.000000) translate(-162.505726, -112.027043) "></path>
                            </g>
                            <g id="Group-14" transform="translate(160.000000, 101.000000)" fill="url(#linearGradient-13)">
                                <path d="M16.9657215,4.58810367 C18.0741227,0.233426194 16.8240378,-0.135637672 14.1712395,3.60177123 C13.3160308,4.8066365 13.1063626,1.88735081 12.0605311,2.57041054 C11.0146995,3.25347027 9.73665299,5.2863269 9.06427238,5.64093143 C6.99990228,6.72965258 4.32820007,7.10100558 3.04078962,9.72725388 C0.388088029,15.1386229 5.66928042,24.2411881 12.724401,23.397385 C18.1692438,22.7461735 13.6260626,21.7761915 12.7249805,20.3232299 C11.6197582,18.5410996 9.92298095,20.8969907 9.51405973,18.3485232 C9.27349127,16.8492591 9.71371423,17.4555756 11.5521968,17.0008213 C12.8652064,16.6760444 8.68814412,13.4317503 10.3171318,12.7617283 C15.7833162,10.5134217 16.7648803,5.37716703 16.9657215,4.58810367 Z" id="Path-9" transform="translate(9.856681, 12.245646) scale(-1, 1) rotate(9.000000) translate(-9.856681, -12.245646) "></path>
                            </g>
                        </g>
                    </g>
                </g>
                <g id="Group-30-Copy-2" transform="translate(281.000000, 385.000000) scale(-1, 1) translate(-281.000000, -385.000000) translate(220.000000, 281.000000)">
                    <g id="boy">
                        <g id="Group-10" transform="translate(60.874409, 50.399944) scale(-1, 1) rotate(-14.000000) translate(-60.874409, -50.399944) translate(8.374409, 11.899944)">
                            <g id="pig" transform="translate(0.063277, 0.279142)">
                                <g id="Group" transform="translate(51.650000, 38.000000) scale(-1, 1) rotate(-180.000000) translate(-51.650000, -38.000000) translate(0.150000, 0.000000)">
                                    <g>
                                        <g></g>
                                    </g>
                                </g>
                            </g>
                        </g>
                        <g id="Group-18" transform="translate(40.819820, 58.289720)"></g>
                    </g>
                </g>
                <g id="money-1" transform="translate(183.000000, 108.000000)">
                    <g transform="translate(17.000000, 16.500000) scale(-1, 1) translate(-17.000000, -16.500000) ">
                        <path d="M0.363869863,20.971776 C6.96263301,18.045368 11.4053324,15.381835 13.6919681,12.9811771 C15.9786038,10.5805192 18.1866874,6.26163026 20.316219,0.0245103433 L33.7548427,5.29831921 C32.4631047,11.292052 29.8515803,16.5165376 25.9202697,20.971776 C21.988959,25.4270143 16.0159594,29.2862587 8.00127087,32.549509 L0.363869863,20.971776 Z" id="Path-16" fill="#90C853"></path>
                        <path d="M2.45339255,21.3945794 C8.82018645,18.4680428 12.9714782,15.975975 14.9072678,13.9183759 C16.8430574,11.8607768 18.8436679,7.87288479 20.9090994,1.95469988 L32.2099877,6.20769834 C30.5103325,11.881585 27.9964466,16.6278163 24.6683299,20.4463922 C21.3402133,24.2649681 16.0344601,27.7326992 8.75107021,30.8495855 L2.45339255,21.3945794 Z" id="Path-16-Copy" stroke="#00A98E" stroke-width="0.772727273"></path>
                        <ellipse id="Oval" fill="#00A98E" transform="translate(19.359019, 17.505655) rotate(-47.000000) translate(-19.359019, -17.505655) " cx="19.3590189" cy="17.505655" rx="3.72190442" ry="5.81631037"></ellipse>
                        <ellipse id="Oval-Copy-13" fill="#00A98E" transform="translate(11.316096, 22.918111) rotate(-44.000000) translate(-11.316096, -22.918111) " cx="11.3160958" cy="22.9181115" rx="1.62850886" ry="1.86101776"></ellipse>
                        <ellipse id="Oval-Copy-14" fill="#00A98E" transform="translate(24.822945, 9.439238) rotate(-60.000000) translate(-24.822945, -9.439238) " cx="24.8229449" cy="9.43923807" rx="1.62760555" ry="1.86204959"></ellipse>
                    </g>
                </g>
                <g id="money-3" transform="translate(287.000000, 178.000000)">
                    <g id="Oval" transform="translate(0.000000, 25.000000)">
                        <mask id="mask-15" fill="white">
                            <use xlink:href="#path-14"></use>
                        </mask>
                        <use id="Mask" fill="#C77892" xlink:href="#path-14"></use>
                        <ellipse stroke="#FED7E4" fill="#C77892" mask="url(#mask-15)" cx="11.5" cy="6" rx="11.5" ry="5"></ellipse>
                    </g>
                    <g>
                        <mask id="mask-17" fill="white">
                            <use xlink:href="#path-16"></use>
                        </mask>
                        <use id="Mask" fill="#C77892" opacity="0" xlink:href="#path-16"></use>
                        <g mask="url(#mask-17)" id="il2">
                            <g transform="translate(-9.000000, 4.000000)">
                                <g transform="translate(19.506480, 20.142794) rotate(-42.000000) translate(-19.506480, -20.142794) translate(5.506480, 6.642794)">
                                    <g id="money-3" transform="translate(14.258785, 13.997854) rotate(180.000000) translate(-14.258785, -13.997854) translate(0.758785, 0.997854)">
                                        <path d="M0.288955479,16.5232174 C5.52914974,14.2175627 9.05717575,12.1190215 10.8730335,10.2275941 C12.6888912,8.33616662 14.4423694,4.93340566 16.133468,0.0193111796 L26.8053162,4.17443332 C25.7795243,8.89676825 23.7056667,13.0130296 20.5837436,16.5232174 C17.4618204,20.0334052 12.718556,23.074022 6.3539504,25.6450677 L0.288955479,16.5232174 Z" id="Path-16" fill="#90C853"></path>
                                        <path d="M1.94828232,16.8563353 C7.00426571,14.5505792 10.3008797,12.5871318 11.8381244,10.9659931 C13.3753691,9.34485445 14.9640892,6.20287893 16.6042848,1.54006657 L25.5785196,4.89091384 C24.2287934,9.3612488 22.2324723,13.1007038 19.5895561,16.1092787 C16.94664,19.1178537 12.7332477,21.8500054 6.94937928,24.305734 L1.94828232,16.8563353 Z" id="Path-16-Copy" stroke="#00A98E" stroke-width="0.620000005"></path>
                                        <ellipse id="Oval" fill="#00A98E" transform="translate(15.373338, 13.792334) rotate(-47.000000) translate(-15.373338, -13.792334) " cx="15.3733385" cy="13.7923338" rx="2.94330856" ry="4.6019982"></ellipse>
                                        <ellipse id="Oval-Copy-13" fill="#00A98E" transform="translate(8.986311, 18.056694) rotate(-44.000000) translate(-8.986311, -18.056694) " cx="8.98631091" cy="18.0566937" rx="1.28835052" ry="1.47187879"></ellipse>
                                        <ellipse id="Oval-Copy-14" fill="#00A98E" transform="translate(19.712339, 7.436976) rotate(-60.000000) translate(-19.712339, -7.436976) " cx="19.7123391" cy="7.43697553" rx="1.28491377" ry="1.47579691"></ellipse>
                                    </g>
                                </g>
                            </g>
                        </g>
                    </g>
                </g>
                <g id="money-3" transform="translate(250.000000, 113.000000)">
                    <g id="il2" transform="translate(19.876551, 20.081417) rotate(-42.000000) translate(-19.876551, -20.081417) translate(5.876551, 6.581417)">
                        <g id="money-3" transform="translate(13.942699, 13.795840) rotate(180.000000) translate(-13.942699, -13.795840) translate(0.442699, 0.795840)">
                            <path d="M0.288955479,16.5232174 C5.52914974,14.2175627 9.05717575,12.1190215 10.8730335,10.2275941 C12.6888912,8.33616662 14.4423694,4.93340566 16.133468,0.0193111796 L26.8053162,4.17443332 C25.7795243,8.89676825 23.7056667,13.0130296 20.5837436,16.5232174 C17.4618204,20.0334052 12.718556,23.074022 6.3539504,25.6450677 L0.288955479,16.5232174 Z" id="Path-16" fill="#90C853"></path>
                            <path d="M1.94828232,16.8563353 C7.00426571,14.5505792 10.3008797,12.5871318 11.8381244,10.9659931 C13.3753691,9.34485445 14.9640892,6.20287893 16.6042848,1.54006657 L25.5785196,4.89091384 C24.2287934,9.3612488 22.2324723,13.1007038 19.5895561,16.1092787 C16.94664,19.1178537 12.7332477,21.8500054 6.94937928,24.305734 L1.94828232,16.8563353 Z" id="Path-16-Copy" stroke="#00A98E" stroke-width="0.620000005"></path>
                            <ellipse id="Oval" fill="#00A98E" transform="translate(15.373338, 13.792334) rotate(-47.000000) translate(-15.373338, -13.792334) " cx="15.3733385" cy="13.7923338" rx="2.94330856" ry="4.6019982"></ellipse>
                            <ellipse id="Oval-Copy-13" fill="#00A98E" transform="translate(8.986311, 18.056694) rotate(-44.000000) translate(-8.986311, -18.056694) " cx="8.98631091" cy="18.0566937" rx="1.28835052" ry="1.47187879"></ellipse>
                            <ellipse id="Oval-Copy-14" fill="#00A98E" transform="translate(19.712339, 7.436976) rotate(-60.000000) translate(-19.712339, -7.436976) " cx="19.7123391" cy="7.43697553" rx="1.28491377" ry="1.47579691"></ellipse>
                        </g>
                    </g>
                </g>
            </g>
        </g>
    </g>
</svg>