<?xml version="1.0" encoding="UTF-8"?>
<svg width="399px" height="307px" viewBox="0 0 399 307" version="1.1" xmlns="http://www.w3.org/2000/svg" xmlns:xlink="http://www.w3.org/1999/xlink">
    <!-- Generator: Sketch 52.5 (67469) - http://www.bohemiancoding.com/sketch -->
    <title>img</title>
    <desc>Created with Sketch.</desc>
    <defs>
        <linearGradient x1="-43.0618245%" y1="-23.0131523%" x2="70.4244156%" y2="86.9362473%" id="linearGradient-1">
            <stop stop-color="#275A7D" offset="0%"></stop>
            <stop stop-color="#27597D" offset="100%"></stop>
        </linearGradient>
        <path d="M119.026808,263.089077 C111.728981,264.448841 107.256469,265.488168 105.609272,266.207058 C103.138476,267.285393 103.473245,269.313266 105.33438,270.225548 C106.244672,270.67175 111.01235,272.10728 119.704666,272.832203 C122.860252,273.095373 129.986987,273.857373 130.830453,273.685878 C131.673919,273.514383 131.936024,271.799568 132.082658,270.964556 C132.823191,266.747579 132.19619,264.607475 131.678227,264.607727 C131.29471,264.607913 130.609694,264.677374 130.130985,265.211746 C129.447876,265.974286 129.131225,266.978968 128.583953,266.979233 C128.135081,266.979451 125.356063,267.167241 122.336639,265.375828 C121.862978,265.094807 122.85493,262.871658 121.889914,262.183381 C121.655668,262.016311 120.701299,262.318209 119.026808,263.089077 Z" id="path-2"></path>
        <path d="M90.7207875,263.241348 C83.422961,264.601112 78.950449,265.64044 77.3032518,266.35933 C74.8324559,267.437665 75.1672252,269.465538 77.0283604,270.37782 C77.9386523,270.824022 82.7063296,272.259552 91.3986465,272.984474 C94.5542321,273.247644 101.680967,274.009645 102.524433,273.83815 C103.367899,273.666655 103.630004,271.951839 103.776638,271.116827 C104.517171,266.899851 103.89017,264.759747 103.372207,264.759998 C102.98869,264.760185 102.303674,264.829646 101.824965,265.364018 C101.141856,266.126558 100.825205,267.131239 100.277933,267.131505 C99.8290615,267.131723 97.0500426,267.319513 94.0306195,265.5281 C93.5569582,265.247079 94.5489096,263.02393 93.583894,262.335653 C93.3496483,262.168582 92.3952795,262.470481 90.7207875,263.241348 Z" id="path-4"></path>
    </defs>
    <g id="Page-1" stroke="none" stroke-width="1" fill="none" fill-rule="evenodd">
        <g id="01" transform="translate(-126.000000, -166.000000)">
            <g id="img" transform="translate(126.000000, 166.000000)">
                <g id="Group" transform="translate(210.000000, 53.000000)">
                    <path d="M0.248157605,134.499293 C0.248157605,143.061305 22.6349405,150 50.2481576,150 C77.8627114,150 100.248158,143.061305 100.248158,134.499293 C100.248158,125.940109 77.8627114,119 50.2481576,119 C22.6349405,119 0.248157605,125.940109 0.248157605,134.499293" id="Fill-94" fill="#2284D1"></path>
                    <polygon id="Fill-95" fill="#2284D1" points="0.248157605 135 100.248158 135 100.248158 121 0.248157605 121"></polygon>
                    <path d="M0.248157605,121.5 C0.248157605,130.059575 22.6349405,137 50.2481576,137 C77.8627114,137 100.248158,130.059575 100.248158,121.5 C100.248158,112.939011 77.8627114,106 50.2481576,106 C22.6349405,106 0.248157605,112.939011 0.248157605,121.5" id="Fill-96" fill="#3FA8DF"></path>
                    <path d="M20.2481576,121.500715 C20.2481576,126.748212 33.6794523,131 50.2481576,131 C66.8168629,131 80.2481576,126.748212 80.2481576,121.500715 C80.2481576,116.253219 66.8168629,112 50.2481576,112 C33.6794523,112 20.2481576,116.253219 20.2481576,121.500715" id="Fill-97" fill="#D0B834"></path>
                    <path d="M50.2481576,115.542514 C35.6505934,115.542514 23.500739,118.750095 20.813421,123 C20.4506993,122.426027 20.2481576,121.835376 20.2481576,121.229438 C20.2481576,116.131775 33.6794523,112 50.2481576,112 C66.8168629,112 80.2481576,116.131775 80.2481576,121.229438 C80.2481576,121.835376 80.0456159,122.426027 79.6828942,123 C76.9955762,118.750095 64.8457218,115.542514 50.2481576,115.542514" id="Fill-98" fill="#B4A237"></path>
                    <path d="M4.2481576,117.500707 C4.2481576,126.059891 26.6349405,133 54.2494943,133 C81.8627114,133 104.248158,126.059891 104.248158,117.500707 C104.248158,108.940109 81.8627114,102 54.2494943,102 C26.6349405,102 4.2481576,108.940109 4.2481576,117.500707" id="Fill-99" fill="#2284D1"></path>
                    <polygon id="Fill-100" fill="#2284D1" points="4.2481576 117 104.248158 117 104.248158 103 4.2481576 103"></polygon>
                    <path d="M4.2481576,103.499293 C4.2481576,112.059891 26.6349405,119 54.2494943,119 C81.8627114,119 104.248158,112.059891 104.248158,103.499293 C104.248158,94.9386945 81.8627114,88 54.2494943,88 C26.6349405,88 4.2481576,94.9386945 4.2481576,103.499293" id="Fill-101" fill="#3FA8DF"></path>
                    <path d="M24.2481576,102.5 C24.2481576,107.747101 37.6797486,112 54.2488195,112 C70.8165666,112 84.2481576,107.747101 84.2481576,102.5 C84.2481576,97.2528987 70.8165666,93 54.2488195,93 C37.6797486,93 24.2481576,97.2528987 24.2481576,102.5" id="Fill-102" fill="#D0B834"></path>
                    <path d="M54.2488195,96.5420667 C39.6496094,96.5420667 27.5008108,99.7506316 24.8134335,104 C24.4507038,103.424709 24.2481576,102.835523 24.2481576,102.228272 C24.2481576,97.1312532 37.6797486,93 54.2488195,93 C70.8165666,93 84.2481576,97.1312532 84.2481576,102.228272 C84.2481576,102.835523 84.0456114,103.424709 83.6828817,104 C80.9968283,99.7506316 68.845382,96.5420667 54.2488195,96.5420667" id="Fill-103" fill="#B4A237"></path>
                    <path d="M4.2481576,100.499293 C4.2481576,109.058477 26.6349405,116 54.2481576,116 C81.8627114,116 104.248158,109.058477 104.248158,100.499293 C104.248158,91.9386945 81.8627114,85 54.2481576,85 C26.6349405,85 4.2481576,91.9386945 4.2481576,100.499293" id="Fill-104" fill="#2284D1"></path>
                    <polygon id="Fill-105" fill="#2284D1" points="4.2481576 101 104.248158 101 104.248158 87 4.2481576 87"></polygon>
                    <path d="M4.2481576,87.500707 C4.2481576,96.0613055 26.6349405,103 54.2481576,103 C81.8627114,103 104.248158,96.0613055 104.248158,87.500707 C104.248158,78.9386945 81.8627114,72 54.2481576,72 C26.6349405,72 4.2481576,78.9386945 4.2481576,87.500707" id="Fill-106" fill="#3FA8DF"></path>
                    <path d="M23.2481576,87.5007152 C23.2481576,92.7459911 36.6794523,97 53.2481576,97 C69.8168629,97 83.2481576,92.7459911 83.2481576,87.5007152 C83.2481576,82.2540089 69.8168629,78 53.2481576,78 C36.6794523,78 23.2481576,82.2540089 23.2481576,87.5007152" id="Fill-107" fill="#D0B834"></path>
                    <path d="M53.2481576,81.5420667 C38.6505934,81.5420667 26.500739,84.7520212 23.8147448,89 C23.4520231,88.426099 23.2481576,87.835523 23.2481576,87.2296614 C23.2481576,82.1326427 36.6794523,78 53.2481576,78 C69.8168629,78 83.2481576,82.1326427 83.2481576,87.2296614 C83.2481576,87.835523 83.0456159,88.426099 82.6828942,89 C79.9969,84.7520212 67.8457218,81.5420667 53.2481576,81.5420667" id="Fill-108" fill="#B4A237"></path>
                    <path d="M4.2481576,84.499293 C4.2481576,93.0598914 26.6349405,100 54.2481576,100 C81.8627114,100 104.248158,93.0598914 104.248158,84.499293 C104.248158,75.9386945 81.8627114,69 54.2481576,69 C26.6349405,69 4.2481576,75.9386945 4.2481576,84.499293" id="Fill-109" fill="#2284D1"></path>
                    <polygon id="Fill-110" fill="#2284D1" points="4.2481576 84 104.248158 84 104.248158 70 4.2481576 70"></polygon>
                    <path d="M4.2481576,70.500707 C4.2481576,79.0613055 26.6349405,86 54.2481576,86 C81.8627114,86 104.248158,79.0613055 104.248158,70.500707 C104.248158,61.9401086 81.8627114,55 54.2481576,55 C26.6349405,55 4.2481576,61.9401086 4.2481576,70.500707" id="Fill-111" fill="#3FA8DF"></path>
                    <path d="M23.2481576,70.5 C23.2481576,75.7456708 36.6794523,80 53.2481576,80 C69.8168629,80 83.2481576,75.7456708 83.2481576,70.5 C83.2481576,65.2528987 69.8168629,61 53.2481576,61 C36.6794523,61 23.2481576,65.2528987 23.2481576,70.5" id="Fill-112" fill="#D0B834"></path>
                    <path d="M53.2481576,64.5420667 C38.6505934,64.5420667 26.500739,67.7506316 23.8147448,72 C23.4520231,71.426099 23.2481576,70.8341334 23.2481576,70.2282719 C23.2481576,65.1312532 36.6794523,61 53.2481576,61 C69.8168629,61 83.2481576,65.1312532 83.2481576,70.2282719 C83.2481576,70.8341334 83.0456159,71.426099 82.6828942,72 C79.9969,67.7506316 67.8457218,64.5420667 53.2481576,64.5420667" id="Fill-113" fill="#B4A237"></path>
                    <path d="M0.248157605,64.499293 C0.248157605,73.0598914 22.6349405,80 50.2481576,80 C77.8627114,80 100.248158,73.0598914 100.248158,64.499293 C100.248158,55.9386945 77.8627114,49 50.2481576,49 C22.6349405,49 0.248157605,55.9386945 0.248157605,64.499293" id="Fill-114" fill="#2284D1"></path>
                    <polygon id="Fill-115" fill="#2284D1" points="0.248157605 66 100.248158 66 100.248158 52 0.248157605 52"></polygon>
                    <path d="M0.248157605,52.500707 C0.248157605,61.0613055 22.6349405,68 50.2481576,68 C77.8627114,68 100.248158,61.0613055 100.248158,52.500707 C100.248158,43.9401086 77.8627114,37 50.2481576,37 C22.6349405,37 0.248157605,43.9401086 0.248157605,52.500707" id="Fill-116" fill="#3FA8DF"></path>
                    <path d="M20.2481576,51.5 C20.2481576,56.7456708 33.6794523,61 50.2481576,61 C66.8168629,61 80.2481576,56.7456708 80.2481576,51.5 C80.2481576,46.2528987 66.8168629,42 50.2481576,42 C33.6794523,42 20.2481576,46.2528987 20.2481576,51.5" id="Fill-117" fill="#D0B834"></path>
                    <path d="M50.2481576,45.5420667 C35.6505934,45.5420667 23.500739,48.7506316 20.813421,53 C20.4506993,52.426099 20.2481576,51.8341334 20.2481576,51.2282719 C20.2481576,46.1312532 33.6794523,42 50.2481576,42 C66.8168629,42 80.2481576,46.1312532 80.2481576,51.2282719 C80.2481576,51.8341334 80.0456159,52.426099 79.6828942,53 C76.9955762,48.7506316 64.8457218,45.5420667 50.2481576,45.5420667" id="Fill-118" fill="#B4A237"></path>
                    <path d="M10.2481576,47.5014141 C10.2481576,56.060989 32.6336038,63 60.2481576,63 C87.8627114,63 110.248158,56.060989 110.248158,47.5014141 C110.248158,38.9404251 87.8627114,32 60.2481576,32 C32.6336038,32 10.2481576,38.9404251 10.2481576,47.5014141" id="Fill-119" fill="#2284D1"></path>
                    <polygon id="Fill-120" fill="#2284D1" points="10.2481576 48 110.248158 48 110.248158 34 10.2481576 34"></polygon>
                    <path d="M10.2481576,33.499293 C10.2481576,42.0598914 32.6336038,49 60.2481576,49 C87.8627114,49 110.248158,42.0598914 110.248158,33.499293 C110.248158,24.9386945 87.8627114,18 60.2481576,18 C32.6336038,18 10.2481576,24.9386945 10.2481576,33.499293" id="Fill-121" fill="#3FA8DF"></path>
                    <path d="M29.2481576,34.5 C29.2481576,39.7471013 42.6794523,44 59.2481576,44 C75.8168629,44 89.2481576,39.7471013 89.2481576,34.5 C89.2481576,29.2543292 75.8168629,25 59.2481576,25 C42.6794523,25 29.2481576,29.2543292 29.2481576,34.5" id="Fill-122" fill="#D0B834"></path>
                    <path d="M59.2481576,28.5425142 C44.6505934,28.5425142 32.500739,31.7514845 29.813421,36 C29.4506993,35.4274163 29.2481576,34.8353759 29.2481576,34.2294378 C29.2481576,29.1331649 42.6794523,25 59.2481576,25 C75.8168629,25 89.2481576,29.1331649 89.2481576,34.2294378 C89.2481576,34.8353759 89.0456159,35.4274163 88.6815704,36 C85.9955762,31.7514845 73.8457218,28.5425142 59.2481576,28.5425142" id="Fill-123" fill="#B4A237"></path>
                    <path d="M4.2481576,28.499293 C4.2481576,37.0598914 26.6349405,44 54.2494943,44 C81.8627114,44 104.248158,37.0598914 104.248158,28.499293 C104.248158,19.9401086 81.8627114,13 54.2494943,13 C26.6349405,13 4.2481576,19.9401086 4.2481576,28.499293" id="Fill-124" fill="#2284D1"></path>
                    <polygon id="Fill-125" fill="#2284D1" points="4.2481576 29 104.248158 29 104.248158 15 4.2481576 15"></polygon>
                    <path d="M4.2481576,15.499293 C4.2481576,24.0584774 26.6349405,31 54.2494943,31 C81.8627114,31 104.248158,24.0584774 104.248158,15.499293 C104.248158,6.93869452 81.8627114,0 54.2494943,0 C26.6349405,0 4.2481576,6.93869452 4.2481576,15.499293" id="Fill-126" fill="#3FA8DF"></path>
                    <path d="M24.2481576,14.5 C24.2481576,19.7471013 37.6797486,24 54.2488195,24 C70.8165666,24 84.2481576,19.7471013 84.2481576,14.5 C84.2481576,9.25432917 70.8165666,5 54.2488195,5 C37.6797486,5 24.2481576,9.25432917 24.2481576,14.5" id="Fill-127" fill="#2284D1"></path>
                    <path d="M54.2488195,9.5420667 C39.6496094,9.5420667 27.5008108,12.7506316 24.8134335,17 C24.4507038,16.426099 24.2481576,15.8341334 24.2481576,15.2282719 C24.2481576,10.1326427 37.6797486,6 54.2488195,6 C70.8165666,6 84.2481576,10.1326427 84.2481576,15.2282719 C84.2481576,15.8341334 84.0456114,16.426099 83.6828817,17 C80.9968283,12.7506316 68.845382,9.5420667 54.2488195,9.5420667" id="Fill-128" fill="#156BAF"></path>
                </g>
                <path d="M250,106.500723 C253.314349,106.500723 256,109.408408 256,113 C256,109.408408 258.684316,106.500723 262,106.500723 C258.684316,106.500723 256,103.591592 256,100 C256,103.591592 253.314349,106.500723 250,106.500723" id="Fill-90" fill="#FFFFFE" opacity="0.419852121"></path>
                <g id="Group-4" transform="translate(355.500000, 166.500000) scale(-1, 1) translate(-355.500000, -166.500000) translate(312.000000, 129.000000)">
                    <g id="Group-3-Copy-4" transform="translate(2.439252, 38.608696)">
                        <path d="M0.201773006,22.9233444 C0.201773006,29.8090431 18.4041105,35.3913043 40.8570654,35.3913043 C63.3089336,35.3913043 81.5101842,29.8090431 81.5101842,22.9233444 C81.5101842,16.038783 63.3089336,10.4565217 40.8570654,10.4565217 C18.4041105,10.4565217 0.201773006,16.038783 0.201773006,22.9233444" id="Fill-124" fill="#03A159"></path>
                        <polygon id="Fill-125" fill="#03A159" points="0.201773006 23.326087 81.5101842 23.326087 81.5101842 12.0652174 0.201773006 12.0652174"></polygon>
                        <path d="M0.201773006,12.4668226 C0.201773006,19.351384 18.4041105,24.9347826 40.8570654,24.9347826 C63.3089336,24.9347826 81.5101842,19.351384 81.5101842,12.4668226 C81.5101842,5.58112385 63.3089336,0 40.8570654,0 C18.4041105,0 0.201773006,5.58112385 0.201773006,12.4668226" id="Fill-126" fill="#04BB68"></path>
                        <path d="M16.4634552,11.6630435 C16.4634552,15.883538 27.3844685,19.3043478 40.8565168,19.3043478 C54.3274887,19.3043478 65.248502,15.883538 65.248502,11.6630435 C65.248502,7.44369955 54.3274887,4.02173913 40.8565168,4.02173913 C27.3844685,4.02173913 16.4634552,7.44369955 16.4634552,11.6630435" id="Fill-127" fill="#D0B834"></path>
                        <path d="M40.856445,7.15713085 C30.5687774,7.15713085 22.0078482,9.26869631 20.1141263,12.0652174 C19.8585205,11.6875316 19.7157917,11.2979574 19.7157917,10.8992382 C19.7157917,7.54579058 29.1806699,4.82608696 40.856445,4.82608696 C52.5312874,4.82608696 61.9961655,7.54579058 61.9961655,10.8992382 C61.9961655,11.2979574 61.8534367,11.6875316 61.5978309,12.0652174 C59.7050419,9.26869631 51.142247,7.15713085 40.856445,7.15713085" id="Fill-128" fill="#B4A237"></path>
                    </g>
                    <g id="Group-3-Copy-5" transform="translate(4.878505, 24.934783)">
                        <path d="M0.201773006,22.9233444 C0.201773006,29.8090431 18.4041105,35.3913043 40.8570654,35.3913043 C63.3089336,35.3913043 81.5101842,29.8090431 81.5101842,22.9233444 C81.5101842,16.038783 63.3089336,10.4565217 40.8570654,10.4565217 C18.4041105,10.4565217 0.201773006,16.038783 0.201773006,22.9233444" id="Fill-124" fill="#03A159"></path>
                        <polygon id="Fill-125" fill="#03A159" points="0.201773006 23.326087 81.5101842 23.326087 81.5101842 12.0652174 0.201773006 12.0652174"></polygon>
                        <path d="M0.201773006,12.4668226 C0.201773006,19.351384 18.4041105,24.9347826 40.8570654,24.9347826 C63.3089336,24.9347826 81.5101842,19.351384 81.5101842,12.4668226 C81.5101842,5.58112385 63.3089336,0 40.8570654,0 C18.4041105,0 0.201773006,5.58112385 0.201773006,12.4668226" id="Fill-126" fill="#04BB68"></path>
                        <path d="M16.4634552,11.6630435 C16.4634552,15.883538 27.3844685,19.3043478 40.8565168,19.3043478 C54.3274887,19.3043478 65.248502,15.883538 65.248502,11.6630435 C65.248502,7.44369955 54.3274887,4.02173913 40.8565168,4.02173913 C27.3844685,4.02173913 16.4634552,7.44369955 16.4634552,11.6630435" id="Fill-127" fill="#D0B834"></path>
                        <path d="M40.856445,7.15713085 C30.5687774,7.15713085 22.0078482,9.26869631 20.1141263,12.0652174 C19.8585205,11.6875316 19.7157917,11.2979574 19.7157917,10.8992382 C19.7157917,7.54579058 29.1806699,4.82608696 40.856445,4.82608696 C52.5312874,4.82608696 61.9961655,7.54579058 61.9961655,10.8992382 C61.9961655,11.2979574 61.8534367,11.6875316 61.5978309,12.0652174 C59.7050419,9.26869631 51.142247,7.15713085 40.856445,7.15713085" id="Fill-128" fill="#B4A237"></path>
                    </g>
                    <g id="Group-3-Copy-6" transform="translate(4.878505, 12.065217)">
                        <path d="M0.201773006,22.9233444 C0.201773006,29.8090431 18.4041105,35.3913043 40.8570654,35.3913043 C63.3089336,35.3913043 81.5101842,29.8090431 81.5101842,22.9233444 C81.5101842,16.038783 63.3089336,10.4565217 40.8570654,10.4565217 C18.4041105,10.4565217 0.201773006,16.038783 0.201773006,22.9233444" id="Fill-124" fill="#03A159"></path>
                        <polygon id="Fill-125" fill="#03A159" points="0.201773006 23.326087 81.5101842 23.326087 81.5101842 12.0652174 0.201773006 12.0652174"></polygon>
                        <path d="M0.201773006,12.4668226 C0.201773006,19.351384 18.4041105,24.9347826 40.8570654,24.9347826 C63.3089336,24.9347826 81.5101842,19.351384 81.5101842,12.4668226 C81.5101842,5.58112385 63.3089336,0 40.8570654,0 C18.4041105,0 0.201773006,5.58112385 0.201773006,12.4668226" id="Fill-126" fill="#04BB68"></path>
                        <path d="M16.4634552,11.6630435 C16.4634552,15.883538 27.3844685,19.3043478 40.8565168,19.3043478 C54.3274887,19.3043478 65.248502,15.883538 65.248502,11.6630435 C65.248502,7.44369955 54.3274887,4.02173913 40.8565168,4.02173913 C27.3844685,4.02173913 16.4634552,7.44369955 16.4634552,11.6630435" id="Fill-127" fill="#D0B834"></path>
                        <path d="M40.856445,7.15713085 C30.5687774,7.15713085 22.0078482,9.26869631 20.1141263,12.0652174 C19.8585205,11.6875316 19.7157917,11.2979574 19.7157917,10.8992382 C19.7157917,7.54579058 29.1806699,4.82608696 40.856445,4.82608696 C52.5312874,4.82608696 61.9961655,7.54579058 61.9961655,10.8992382 C61.9961655,11.2979574 61.8534367,11.6875316 61.5978309,12.0652174 C59.7050419,9.26869631 51.142247,7.15713085 40.856445,7.15713085" id="Fill-128" fill="#B4A237"></path>
                    </g>
                    <g id="Group-3-Copy-7">
                        <path d="M0.201773006,22.9233444 C0.201773006,29.8090431 18.4041105,35.3913043 40.8570654,35.3913043 C63.3089336,35.3913043 81.5101842,29.8090431 81.5101842,22.9233444 C81.5101842,16.038783 63.3089336,10.4565217 40.8570654,10.4565217 C18.4041105,10.4565217 0.201773006,16.038783 0.201773006,22.9233444" id="Fill-124" fill="#03A159"></path>
                        <polygon id="Fill-125" fill="#03A159" points="0.201773006 23.326087 81.5101842 23.326087 81.5101842 12.0652174 0.201773006 12.0652174"></polygon>
                        <path d="M0.201773006,12.4668226 C0.201773006,19.351384 18.4041105,24.9347826 40.8570654,24.9347826 C63.3089336,24.9347826 81.5101842,19.351384 81.5101842,12.4668226 C81.5101842,5.58112385 63.3089336,0 40.8570654,0 C18.4041105,0 0.201773006,5.58112385 0.201773006,12.4668226" id="Fill-126" fill="#04BB68"></path>
                        <path d="M16.4634552,11.6630435 C16.4634552,15.883538 27.3844685,19.3043478 40.8565168,19.3043478 C54.3274887,19.3043478 65.248502,15.883538 65.248502,11.6630435 C65.248502,7.44369955 54.3274887,4.02173913 40.8565168,4.02173913 C27.3844685,4.02173913 16.4634552,7.44369955 16.4634552,11.6630435" id="Fill-127" fill="#03A159"></path>
                        <path d="M40.856445,7.15713085 C30.5687774,7.15713085 22.0078482,9.26869631 20.1141263,12.0652174 C19.8585205,11.6875316 19.7157917,11.2979574 19.7157917,10.8992382 C19.7157917,7.54579058 29.1806699,4.82608696 40.856445,4.82608696 C52.5312874,4.82608696 61.9961655,7.54579058 61.9961655,10.8992382 C61.9961655,11.2979574 61.8534367,11.6875316 61.5978309,12.0652174 C59.7050419,9.26869631 51.142247,7.15713085 40.856445,7.15713085" id="Fill-128" fill="#048349"></path>
                    </g>
                </g>
                <g id="Group-5" transform="translate(132.000000, 142.000000)">
                    <g id="Group-3" transform="translate(2.439252, 38.608696)">
                        <path d="M0.201773006,22.9233444 C0.201773006,29.8090431 18.4041105,35.3913043 40.8570654,35.3913043 C63.3089336,35.3913043 81.5101842,29.8090431 81.5101842,22.9233444 C81.5101842,16.038783 63.3089336,10.4565217 40.8570654,10.4565217 C18.4041105,10.4565217 0.201773006,16.038783 0.201773006,22.9233444" id="Fill-124" fill="#03A159"></path>
                        <polygon id="Fill-125" fill="#03A159" points="0.201773006 23.326087 81.5101842 23.326087 81.5101842 12.0652174 0.201773006 12.0652174"></polygon>
                        <path d="M0.201773006,12.4668226 C0.201773006,19.351384 18.4041105,24.9347826 40.8570654,24.9347826 C63.3089336,24.9347826 81.5101842,19.351384 81.5101842,12.4668226 C81.5101842,5.58112385 63.3089336,0 40.8570654,0 C18.4041105,0 0.201773006,5.58112385 0.201773006,12.4668226" id="Fill-126" fill="#04BB68"></path>
                        <path d="M16.4634552,11.6630435 C16.4634552,15.883538 27.3844685,19.3043478 40.8565168,19.3043478 C54.3274887,19.3043478 65.248502,15.883538 65.248502,11.6630435 C65.248502,7.44369955 54.3274887,4.02173913 40.8565168,4.02173913 C27.3844685,4.02173913 16.4634552,7.44369955 16.4634552,11.6630435" id="Fill-127" fill="#D0B834"></path>
                        <path d="M40.856445,7.15713085 C30.5687774,7.15713085 22.0078482,9.26869631 20.1141263,12.0652174 C19.8585205,11.6875316 19.7157917,11.2979574 19.7157917,10.8992382 C19.7157917,7.54579058 29.1806699,4.82608696 40.856445,4.82608696 C52.5312874,4.82608696 61.9961655,7.54579058 61.9961655,10.8992382 C61.9961655,11.2979574 61.8534367,11.6875316 61.5978309,12.0652174 C59.7050419,9.26869631 51.142247,7.15713085 40.856445,7.15713085" id="Fill-128" fill="#B4A237"></path>
                    </g>
                    <g id="Group-3-Copy" transform="translate(4.878505, 24.934783)">
                        <path d="M0.201773006,22.9233444 C0.201773006,29.8090431 18.4041105,35.3913043 40.8570654,35.3913043 C63.3089336,35.3913043 81.5101842,29.8090431 81.5101842,22.9233444 C81.5101842,16.038783 63.3089336,10.4565217 40.8570654,10.4565217 C18.4041105,10.4565217 0.201773006,16.038783 0.201773006,22.9233444" id="Fill-124" fill="#03A159"></path>
                        <polygon id="Fill-125" fill="#03A159" points="0.201773006 23.326087 81.5101842 23.326087 81.5101842 12.0652174 0.201773006 12.0652174"></polygon>
                        <path d="M0.201773006,12.4668226 C0.201773006,19.351384 18.4041105,24.9347826 40.8570654,24.9347826 C63.3089336,24.9347826 81.5101842,19.351384 81.5101842,12.4668226 C81.5101842,5.58112385 63.3089336,0 40.8570654,0 C18.4041105,0 0.201773006,5.58112385 0.201773006,12.4668226" id="Fill-126" fill="#04BB68"></path>
                        <path d="M16.4634552,11.6630435 C16.4634552,15.883538 27.3844685,19.3043478 40.8565168,19.3043478 C54.3274887,19.3043478 65.248502,15.883538 65.248502,11.6630435 C65.248502,7.44369955 54.3274887,4.02173913 40.8565168,4.02173913 C27.3844685,4.02173913 16.4634552,7.44369955 16.4634552,11.6630435" id="Fill-127" fill="#D0B834"></path>
                        <path d="M40.856445,7.15713085 C30.5687774,7.15713085 22.0078482,9.26869631 20.1141263,12.0652174 C19.8585205,11.6875316 19.7157917,11.2979574 19.7157917,10.8992382 C19.7157917,7.54579058 29.1806699,4.82608696 40.856445,4.82608696 C52.5312874,4.82608696 61.9961655,7.54579058 61.9961655,10.8992382 C61.9961655,11.2979574 61.8534367,11.6875316 61.5978309,12.0652174 C59.7050419,9.26869631 51.142247,7.15713085 40.856445,7.15713085" id="Fill-128" fill="#B4A237"></path>
                    </g>
                    <g id="Group-3-Copy-2" transform="translate(4.878505, 12.065217)">
                        <path d="M0.201773006,22.9233444 C0.201773006,29.8090431 18.4041105,35.3913043 40.8570654,35.3913043 C63.3089336,35.3913043 81.5101842,29.8090431 81.5101842,22.9233444 C81.5101842,16.038783 63.3089336,10.4565217 40.8570654,10.4565217 C18.4041105,10.4565217 0.201773006,16.038783 0.201773006,22.9233444" id="Fill-124" fill="#03A159"></path>
                        <polygon id="Fill-125" fill="#03A159" points="0.201773006 23.326087 81.5101842 23.326087 81.5101842 12.0652174 0.201773006 12.0652174"></polygon>
                        <path d="M0.201773006,12.4668226 C0.201773006,19.351384 18.4041105,24.9347826 40.8570654,24.9347826 C63.3089336,24.9347826 81.5101842,19.351384 81.5101842,12.4668226 C81.5101842,5.58112385 63.3089336,0 40.8570654,0 C18.4041105,0 0.201773006,5.58112385 0.201773006,12.4668226" id="Fill-126" fill="#04BB68"></path>
                        <path d="M16.4634552,11.6630435 C16.4634552,15.883538 27.3844685,19.3043478 40.8565168,19.3043478 C54.3274887,19.3043478 65.248502,15.883538 65.248502,11.6630435 C65.248502,7.44369955 54.3274887,4.02173913 40.8565168,4.02173913 C27.3844685,4.02173913 16.4634552,7.44369955 16.4634552,11.6630435" id="Fill-127" fill="#D0B834"></path>
                        <path d="M40.856445,7.15713085 C30.5687774,7.15713085 22.0078482,9.26869631 20.1141263,12.0652174 C19.8585205,11.6875316 19.7157917,11.2979574 19.7157917,10.8992382 C19.7157917,7.54579058 29.1806699,4.82608696 40.856445,4.82608696 C52.5312874,4.82608696 61.9961655,7.54579058 61.9961655,10.8992382 C61.9961655,11.2979574 61.8534367,11.6875316 61.5978309,12.0652174 C59.7050419,9.26869631 51.142247,7.15713085 40.856445,7.15713085" id="Fill-128" fill="#B4A237"></path>
                    </g>
                    <g id="Group-3-Copy-3">
                        <path d="M0.201773006,22.9233444 C0.201773006,29.8090431 18.4041105,35.3913043 40.8570654,35.3913043 C63.3089336,35.3913043 81.5101842,29.8090431 81.5101842,22.9233444 C81.5101842,16.038783 63.3089336,10.4565217 40.8570654,10.4565217 C18.4041105,10.4565217 0.201773006,16.038783 0.201773006,22.9233444" id="Fill-124" fill="#03A159"></path>
                        <polygon id="Fill-125" fill="#03A159" points="0.201773006 23.326087 81.5101842 23.326087 81.5101842 12.0652174 0.201773006 12.0652174"></polygon>
                        <path d="M0.201773006,12.4668226 C0.201773006,19.351384 18.4041105,24.9347826 40.8570654,24.9347826 C63.3089336,24.9347826 81.5101842,19.351384 81.5101842,12.4668226 C81.5101842,5.58112385 63.3089336,0 40.8570654,0 C18.4041105,0 0.201773006,5.58112385 0.201773006,12.4668226" id="Fill-126" fill="#04BB68"></path>
                        <path d="M16.4634552,11.6630435 C16.4634552,15.883538 27.3844685,19.3043478 40.8565168,19.3043478 C54.3274887,19.3043478 65.248502,15.883538 65.248502,11.6630435 C65.248502,7.44369955 54.3274887,4.02173913 40.8565168,4.02173913 C27.3844685,4.02173913 16.4634552,7.44369955 16.4634552,11.6630435" id="Fill-127" fill="#03A159"></path>
                        <path d="M40.856445,7.15713085 C30.5687774,7.15713085 22.0078482,9.26869631 20.1141263,12.0652174 C19.8585205,11.6875316 19.7157917,11.2979574 19.7157917,10.8992382 C19.7157917,7.54579058 29.1806699,4.82608696 40.856445,4.82608696 C52.5312874,4.82608696 61.9961655,7.54579058 61.9961655,10.8992382 C61.9961655,11.2979574 61.8534367,11.6875316 61.5978309,12.0652174 C59.7050419,9.26869631 51.142247,7.15713085 40.856445,7.15713085" id="Fill-128" fill="#048349"></path>
                    </g>
                </g>
                <path d="M382,142.498686 C386.695864,142.498686 390.499343,146.303773 390.499343,151 C390.499343,146.303773 394.304136,142.498686 399,142.498686 C394.304136,142.498686 390.499343,138.696227 390.499343,134 C390.499343,138.696227 386.695864,142.498686 382,142.498686" id="Fill-89-Copy" fill="#FFFFFE" opacity="0.405808222"></path>
                <path d="M319,200.498995 C322.867182,200.498995 325.999459,203.408768 325.999459,207 C325.999459,203.408768 329.132818,200.498995 333,200.498995 C329.132818,200.498995 325.999459,197.591232 325.999459,194 C325.999459,197.591232 322.867182,200.498995 319,200.498995" id="Fill-89-Copy-2" fill="#FFFFFE" opacity="0.405808222"></path>
                <g id="Group-2" transform="translate(0.000000, 265.000000)">
                    <path d="M115,7.99949465 C111.685195,7.99949465 109,10.6839047 109,14 C109,10.6839047 106.315816,7.99949465 103,7.99949465 C106.315816,7.99949465 109,5.31407395 109,2 C109,5.31407395 111.685195,7.99949465 115,7.99949465" id="Fill-92" fill="#FFFFFE"></path>
                    <path d="M5,31 C16.8922888,27.3659652 36.2918816,25 58.2036738,25 C62.2310717,25 66.1736184,25.0790485 70,25.2327539 C52.102474,28.3112534 29.6866258,30.3829826 5,31" id="Fill-143" fill="#008460"></path>
                    <path d="M105,31.4995211 C105,37.299594 88.4347698,42 68,42 C47.5652302,42 31,37.299594 31,31.4995211 C31,25.700406 47.5652302,21 68,21 C88.4347698,21 105,25.700406 105,31.4995211" id="Fill-144" fill="#2284D1"></path>
                    <polygon id="Fill-145" fill="#2284D1" points="31 31 105 31 105 21 31 21"></polygon>
                    <path d="M105,22.5004789 C105,28.299594 88.4347698,33 68,33 C47.5652302,33 31,28.299594 31,22.5004789 C31,16.7023218 47.5652302,12 68,12 C88.4347698,12 105,16.7023218 105,22.5004789" id="Fill-146" fill="#3FA8DF"></path>
                    <path d="M91,22.4995106 C91,26.0899029 80.7018864,29 67.9994926,29 C55.2981136,29 45,26.0899029 45,22.4995106 C45,18.9091183 55.2981136,16 67.9994926,16 C80.7018864,16 91,18.9091183 91,22.4995106" id="Fill-147" fill="#2284D1"></path>
                    <path d="M67.9994926,17.576374 C79.1917264,17.576374 88.5053944,19.9091598 90.565626,23 C90.8437066,22.5825648 91,22.1519899 91,21.7113076 C91,18.0039166 80.7018864,15 67.9994926,15 C55.2981136,15 45,18.0039166 45,21.7113076 C45,22.1519899 45.1562934,22.5825648 45.4333591,23 C47.4935907,19.9091598 56.8082736,17.576374 67.9994926,17.576374" id="Fill-148" fill="#156BAF"></path>
                    <path d="M72.7921371,12.552691 C74.8804292,18.2010307 60.9975029,28.5762226 41.7822393,35.7262086 C22.5679677,42.8781848 5.29813916,44.0952249 3.20786292,38.4478804 C1.11957081,32.7995407 15.0024971,22.4243488 34.2177607,15.2723725 C53.4320323,8.12238655 70.7028529,6.90435136 72.7921371,12.552691" id="Fill-149" fill="#2284D1"></path>
                    <polyline id="Fill-150" fill="#2284D1" points="72.5538827 12.383241 69.2056305 3.41863064 0 29.0363901 3.34724491 38 74 11.9646104"></polyline>
                    <path d="M69.7921338,3.55227424 C71.8804555,9.20056217 57.9973326,19.5766542 38.7827889,26.7265747 C19.5672531,33.8774903 2.29618785,35.0955144 0.207866163,29.4482215 C-1.88045553,23.7999336 12.0026674,13.4238416 31.2172111,6.27292596 C50.4327469,-0.876994544 67.7028201,-2.0960137 69.7921338,3.55227424" id="Fill-151" fill="#3FA8DF"></path>
                    <path d="M55.8721748,8.15320083 C57.1557225,11.5757379 48.6275743,17.8643261 36.8241667,22.1977478 C25.020759,26.5321649 14.4113725,27.2698322 13.1278249,23.8472951 C11.8442772,20.4237626 20.3724254,14.1361699 32.1768389,9.8017527 C43.9802466,5.46833104 54.5896331,4.72966831 55.8721748,8.15320083" id="Fill-152" fill="#2284D1"></path>
                    <path d="M33.0712785,13.2174603 C43.4715649,9.37618948 52.9362481,8.34777833 55.9201183,10.5107463 C56.0348052,10.0270826 56.0307811,9.57446154 55.8768592,9.16590093 C54.5941773,5.72217559 43.9836317,6.46519513 32.1789343,10.8241763 C20.3732309,15.1841589 11.8441509,21.5088374 13.1278388,24.9525627 C13.2807546,25.3621247 13.5745139,25.7086002 13.9769239,26 C14.8209789,22.4220905 22.669986,17.0587312 33.0712785,13.2174603" id="Fill-153" fill="#156BAF"></path>
                </g>
                <g id="Group-Copy" transform="translate(209.333099, 52.949886) scale(-1, 1) rotate(-8.000000) translate(-209.333099, -52.949886) translate(194.833099, 45.949886)">
                    <g id="Mask" transform="translate(0.529308, 0.386111)">
                        <g id="Path-14" transform="translate(0.682927, -0.000000)"></g>
                    </g>
                </g>
                <path d="M172.786853,126.278481 C174.028559,126.301496 175.281534,126.514382 176.545817,126.917146 C177.810099,127.31991 178.905042,127.924047 179.830677,128.729574 L177.087649,131.629459 C176.56839,131.031067 175.919327,130.576526 175.140438,130.265823 C174.36155,129.955119 173.577029,129.79977 172.786853,129.79977 L172.786853,136.773303 C173.644759,137.049484 174.502652,137.37169 175.360558,137.739931 C176.218464,138.108172 176.991696,138.57422 177.680279,139.13809 C178.368861,139.701959 178.927621,140.386647 179.356574,141.192175 C179.785527,141.997703 180,142.987336 180,144.161105 C180,145.357889 179.802459,146.410812 179.407371,147.319908 C179.012282,148.229003 178.481743,148.988489 177.815737,149.598389 C177.149731,150.208288 176.382142,150.674337 175.512948,150.996548 C174.643754,151.318759 173.735065,151.491369 172.786853,151.514384 L172.786853,154 L170.958167,154 L170.958167,151.514384 C169.46812,151.468354 168.040179,151.186424 166.674303,150.668585 C165.308426,150.150745 164.083671,149.362491 163,148.303797 L165.98008,145.403913 C166.589644,146.140395 167.357233,146.744532 168.282869,147.216341 C169.208504,147.68815 170.100261,147.935558 170.958167,147.958573 L170.958167,140.294591 C169.964802,140.018411 169.039181,139.701958 168.181275,139.345224 C167.323369,138.988491 166.572712,138.53395 165.929283,137.981588 C165.285853,137.429226 164.783534,136.767553 164.422311,135.996548 C164.061087,135.225543 163.880478,134.287693 163.880478,133.182969 C163.880478,132.147291 164.078019,131.220948 164.473108,130.403913 C164.868196,129.586877 165.398735,128.890682 166.064741,128.315305 C166.730747,127.739928 167.487048,127.285387 168.333665,126.951669 C169.180283,126.61795 170.055108,126.416571 170.958167,126.347526 L170.958167,124 L172.786853,124 L172.786853,126.278481 Z M171,130 C170.213479,130.085107 169.516857,130.3617 168.910112,130.829787 C168.303368,131.297875 168,131.999995 168,132.93617 C168,133.829792 168.286514,134.505317 168.859551,134.962766 C169.432587,135.420215 170.146063,135.765956 171,136 L171,130 Z M173,148 C173.90323,147.954692 174.62903,147.61489 175.177419,146.980583 C175.725809,146.346275 176,145.519423 176,144.5 C176,143.503231 175.715057,142.750003 175.145161,142.240291 C174.575266,141.73058 173.860219,141.317154 173,141 L173,148 Z" id="$-copy-2" fill="#C1E6FF"></path>
                <g id="Group-Copy-2" transform="translate(183.333099, 52.949886) scale(-1, 1) rotate(-8.000000) translate(-183.333099, -52.949886) translate(168.833099, 45.949886)">
                    <g id="Mask" transform="translate(0.529308, 0.386111)">
                        <g id="Path-14" transform="translate(0.682927, -0.000000)"></g>
                    </g>
                </g>
                <g id="Group-7" transform="translate(96.000000, 3.000000)">
                    <path d="M106,251.754886 C106,258.833036 106,263.549051 106,265.902931 C106,268.256811 111.666667,268.629086 123,267.019755 C116.578332,263.663901 113.367499,259.621371 113.367499,254.892166 C113.367499,250.162961 113.367499,248.280593 113.367499,249.245061 L106,251.754886 Z" id="Path-29" fill="#FBD5C3"></path>
                    <path d="M79.768164,253.031292 C77.9227213,259.284156 77,263.579481 77,265.917268 C77,268.255055 82.6666667,268.624785 94,267.026456 C89.1580664,265.347299 86.471224,263.489547 85.9394726,261.453201 C85.6640282,260.398385 86.6677126,258.449319 87.729321,256.369216 C89.7844393,252.34244 91.0782717,249.552702 91.6108182,248 L79.768164,253.031292 Z" id="Path-29-Copy" fill="#FBD5C3"></path>
                    <path d="M113.048527,75 C113.240022,86.0835787 112.188791,92.6000755 109.894836,94.5494904 C107.60088,96.4989052 105.107951,97.3340883 102.416049,97.0550396 C102.446148,99.1956781 102.599022,100.641051 102.87467,101.391158 C103.150318,102.141265 103.799996,102.879835 104.823703,103.606867 C98.2354337,105.441918 94.0435851,106.180246 92.2481576,105.821851 C90.4527301,105.463456 89.3700109,104.189506 89,102 C90.3482731,100.025418 91.4309923,97.3587511 92.2481576,94 C93.065323,90.6412489 94.2832117,83.9745822 95.9018237,74 L113.048527,75 Z" id="Path-24" fill="#FBD5C3"></path>
                    <path d="M120.25064,160.358485 C123.674712,197.192355 122.07226,229.07286 115.443284,256 C110.911041,256 106.634321,256 102.613123,256 C105.12506,212.907117 105.12506,190.044246 102.613123,187.411387 C98.8452171,183.462099 91.9408626,177.075454 94.5908974,160.358485 C96.3575874,149.213838 104.910835,149.213838 120.25064,160.358485 Z" id="Path-25" fill="#29658E"></path>
                    <path d="M89.8758255,149 C85.572474,154.939096 83.029918,159.381125 82.2481576,162.326087 C79.5511144,172.486094 82.1032585,181.235517 84.6706863,185.219086 C88.3543994,190.934662 85.797504,214.861633 77,257 L88.9192676,257 C98.3335029,233.433038 104.733353,215.016201 108.118818,201.749491 C111.504282,188.48278 114.464677,171.773873 117,151.622771 L89.8758255,149 Z" id="Path-26" fill="#275A7D"></path>
                    <path d="M47,30.9992246 C47,40.388268 71.4015933,48 101.501457,48 C131.599864,48 156,40.388268 156,30.9992246 C156,21.611732 131.599864,14 101.501457,14 C71.4015933,14 47,21.611732 47,30.9992246" id="Fill-124" fill="#2284D1"></path>
                    <polygon id="Fill-125" fill="#2284D1" points="47 32 156 32 156 17 47 17"></polygon>
                    <path d="M47,16.9992246 C47,26.3867171 71.4015933,34 101.501457,34 C131.599864,34 156,26.3867171 156,16.9992246 C156,7.61018109 131.599864,0 101.501457,0 C71.4015933,0 47,7.61018109 47,16.9992246" id="Fill-126" fill="#3FA8DF"></path>
                    <path d="M69,15.5 C69,21.2994278 83.5508903,26 101.500717,26 C119.44911,26 134,21.2994278 134,15.5 C134,9.70215329 119.44911,5 101.500717,5 C83.5508903,5 69,9.70215329 69,15.5" id="Fill-127" fill="#2284D1"></path>
                    <path d="M101.500629,9.22006064 C87.6313792,9.22006064 76.0900205,12.1369378 73.5370121,16 C73.1924189,15.4782719 73,14.9401213 73,14.389338 C73,9.75694795 85.7600115,6 101.500629,6 C117.239989,6 130,9.75694795 130,14.389338 C130,14.9401213 129.807581,15.4782719 129.462988,16 C126.911237,12.1369378 115.367363,9.22006064 101.500629,9.22006064" id="Fill-128" fill="#156BAF"></path>
                    <path d="M125.192942,56.1579267 C125.663351,52.3037405 125.20502,49.9521581 123.817951,49.1031796 C121.737348,47.8297118 119.49973,40.4312605 122.346336,42.5564347 C124.244074,43.9732174 125.568633,45.0679186 126.320015,45.8405381 C130.131594,36.7938402 133.294772,33.9848151 135.80955,37.4134629 C138.324327,40.8421108 136.854831,45.4116128 131.401061,51.1219691 L130.133501,61 L125.192942,61 L125.192942,56.1579267 Z" id="Path-27" fill="#FBD5C3"></path>
                    <path d="M68.5491136,59 L67.62906,50.1133288 C59.4484472,45.8051532 57.0844377,42.6783166 60.5370317,40.7328191 C63.9896256,38.7873215 67.8331696,40.715523 72.0676635,46.5174233 C75.3558878,41.4941595 77,39.8826764 77,41.6829739 C77,43.4832715 75.3558878,49.2556135 72.0676635,59 L68.5491136,59 Z" id="Path-28" fill="#FBD5C3"></path>
                    <path d="M123.187051,56.3254545 C118.564455,84.3390398 113.584824,99.360941 108.248158,101.391158 C106.803143,101.940882 104.774985,101.428104 102.088304,102 C99.0792843,102.64051 95.3652993,104.32119 93.129502,104 C91.7094201,103.795994 90.8115324,102.726484 89.4127816,101.391158 C88.9704588,100.968892 88.1388649,100.308168 86.9179997,99.408987 C80.0653559,69.8029957 75.715494,55 73.8684138,55 C72.0213336,55 69.8662097,55.4418182 67.4030419,56.3254545 C65.5825682,86.0924322 69.9291783,105.402152 80.4428722,114.254614 C79.0779603,120.674393 82.8800247,153.935968 82.8800247,160.074021 C82.8800247,166.212074 118.965491,164.320484 121.973796,160.074021 C123.979332,157.243045 123.200058,141.96991 119.635974,114.254614 C126.576715,107.249918 130.481066,96.6498593 131.349028,82.4544382 C132.216991,68.259017 132.216991,59.5493558 131.349028,56.3254545 L123.187051,56.3254545 Z" id="Path-22" fill="#B6E5FD"></path>
                    <path d="M91.2481576,68.7067178 C92.7498071,64.5062639 95.8122272,62.8016572 100.435418,63.5928977 C107.370204,64.7797586 105.443018,65.3784377 109.086477,65 C112.729935,64.6215623 116.029768,59.7912841 116.029768,63.9485969 C116.029768,66.7201387 114.901841,68.2081181 112.645986,68.4125351 C113.662502,68.4752025 114.397861,68.5732634 114.852065,68.7067178 C116.979938,69.3319307 117.789997,70.4120781 116.580017,71.4664118 C115.428818,72.469526 115.450039,73.6618795 114,74.4645653 C112.168484,75.4784222 110.431632,76.4582818 108.523208,77.5 C105.77608,78.9995271 103.124376,80.7260781 103.124376,83.6999843 C103.124376,90.3755132 93.8229169,99.1414965 92.171553,94.5192669 C90.5201892,89.8970374 86.1364139,85.2232322 86.1364139,77.5 C86.1364139,72.3511785 87.8403285,69.4200845 91.2481576,68.7067178 Z" id="Path-23" fill="url(#linearGradient-1)"></path>
                    <path d="M0,268.998454 C5.24831852,268.998454 9.49926556,273.475027 9.49926556,279 C9.49926556,273.475027 13.7516815,268.998454 19,268.998454 C13.7516815,268.998454 9.49926556,264.524973 9.49926556,259 C9.49926556,264.524973 5.24831852,268.998454 0,268.998454" id="Fill-89" fill="#FFFFFE"></path>
                    <path d="M104.913376,267.174325 C104.074039,268.505843 103.967873,269.555473 104.594877,270.323215 C104.806894,270.582821 106.203549,271.947585 108.751807,272.562888 C115.540487,274.202085 128.27307,276.38507 131.377761,275.555456 C131.831243,275.43428 132.730833,273.690009 131.847693,271.448747 C131.471136,270.493111 129.22283,271.630411 128.610388,271.367149 C127.25699,270.785382 122.370478,270.43589 113.950852,270.318674 L104.913376,267.174325 Z" id="Path-13" fill="#E2F6FD" transform="translate(118.207107, 271.455885) scale(-1, 1) rotate(-8.000000) translate(-118.207107, -271.455885) "></path>
                    <mask id="mask-3" fill="white">
                        <use xlink:href="#path-2"></use>
                    </mask>
                    <use id="Mask" fill="#275A7D" transform="translate(118.134676, 267.924748) scale(-1, 1) rotate(-8.000000) translate(-118.134676, -267.924748) " xlink:href="#path-2"></use>
                    <path d="M114.074305,266.626059 C114.586624,267.644241 116.285597,268.012201 119.171225,267.72994 C121.940416,267.459069 124.819697,266.537068 130.435894,266.292327 C130.557177,266.287042 130.099327,266.169499 130.099499,265.815391 C130.09967,265.461283 130.407464,262.990966 129.779755,262.611714 C129.469181,262.42407 127.35633,263.298211 124.967225,263.935331 C122.527645,264.585912 119.754511,265.172346 118.357396,265.489134 C116.513847,265.907148 115.08615,266.286123 114.074305,266.626059 Z" id="Path-12" fill="#437394" transform="translate(122.265324, 265.203851) scale(-1, 1) rotate(-8.000000) translate(-122.265324, -265.203851) "></path>
                    <path d="M125.728125,266.679626 C126.331841,266.942586 126.764802,267.205613 127.027008,267.468707 C127.289214,267.731801 127.507602,268.101988 127.682174,268.579268" id="Path-16" stroke="#FFFFFF" stroke-linecap="round" transform="translate(126.705150, 267.629447) scale(-1, 1) rotate(-8.000000) translate(-126.705150, -267.629447) "></path>
                    <path d="M122.416594,265.622619 C123.746083,266.187007 124.490352,266.933797 124.649402,267.862989" id="Path-16-Copy" stroke="#FFFFFF" stroke-linecap="round" transform="translate(123.532998, 266.742804) scale(-1, 1) rotate(-8.000000) translate(-123.532998, -266.742804) "></path>
                    <path d="M119.70365,264.58824 C121.029215,265.268995 121.773485,266.015785 121.936458,266.82861" id="Path-16-Copy-2" stroke="#FFFFFF" stroke-linecap="round" transform="translate(120.820054, 265.708425) scale(-1, 1) rotate(-8.000000) translate(-120.820054, -265.708425) "></path>
                    <path d="M116.81339,263.548428 C118.13298,264.207524 118.877249,264.954314 119.046198,265.788798" id="Path-16-Copy-3" stroke="#FFFFFF" stroke-linecap="round" transform="translate(117.929794, 264.668613) scale(-1, 1) rotate(-8.000000) translate(-117.929794, -264.668613) "></path>
                    <path d="M76.6073561,267.326596 C75.7680191,268.658114 75.6618528,269.707745 76.2888572,270.475487 C76.500874,270.735093 77.8975287,272.099857 80.4457871,272.71516 C87.2344675,274.354357 99.96705,276.537342 103.071741,275.707728 C103.525223,275.586552 104.424813,273.842281 103.541673,271.601019 C103.165116,270.645382 100.91681,271.782683 100.304368,271.519421 C98.9509696,270.937654 94.0644577,270.588162 85.6448324,270.470946 L76.6073561,267.326596 Z" id="Path-13" fill="#E2F6FD" transform="translate(89.901087, 271.608157) scale(-1, 1) rotate(-8.000000) translate(-89.901087, -271.608157) "></path>
                    <mask id="mask-5" fill="white">
                        <use xlink:href="#path-4"></use>
                    </mask>
                    <use id="Mask" fill="#275A7D" transform="translate(89.828656, 268.077020) scale(-1, 1) rotate(-8.000000) translate(-89.828656, -268.077020) " xlink:href="#path-4"></use>
                    <path d="M85.768285,266.77833 C86.2806036,267.796512 87.9795769,268.164473 90.8652048,267.882212 C93.6343959,267.61134 96.5136767,266.689339 102.129874,266.444599 C102.251157,266.439314 101.793307,266.321771 101.793479,265.967663 C101.79365,265.613555 102.101444,263.143238 101.473735,262.763985 C101.163161,262.576341 99.0503101,263.450483 96.6612055,264.087603 C94.2216251,264.738184 91.4484913,265.324617 90.0513759,265.641405 C88.2078265,266.05942 86.7801296,266.438395 85.768285,266.77833 Z" id="Path-12" fill="#437394" transform="translate(93.959304, 265.356123) scale(-1, 1) rotate(-8.000000) translate(-93.959304, -265.356123) "></path>
                    <path d="M97.3619615,266.880317 C97.9494045,267.099068 98.3742289,267.33999 98.6364348,267.603084 C98.8986407,267.866178 99.1879161,268.220333 99.5042611,268.665551" id="Path-16" stroke="#FFFFFF" stroke-linecap="round" transform="translate(98.433111, 267.772934) scale(-1, 1) rotate(-8.000000) translate(-98.433111, -267.772934) "></path>
                    <path d="M94.222561,265.688479 C95.5520491,266.252868 96.2963185,266.999658 96.4553689,267.92885" id="Path-16-Copy" stroke="#FFFFFF" stroke-linecap="round" transform="translate(95.338965, 266.808665) scale(-1, 1) rotate(-8.000000) translate(-95.338965, -266.808665) "></path>
                    <path d="M91.1930745,264.573794 C92.5186402,265.254549 93.2629095,266.001339 93.4258825,266.814164" id="Path-16-Copy-2" stroke="#FFFFFF" stroke-linecap="round" transform="translate(92.309479, 265.693979) scale(-1, 1) rotate(-8.000000) translate(-92.309479, -265.693979) "></path>
                    <path d="M88.0937924,263.511567 C89.4133825,264.170663 90.1576519,264.917453 90.3266004,265.751937" id="Path-16-Copy-3" stroke="#FFFFFF" stroke-linecap="round" transform="translate(89.210196, 264.631752) scale(-1, 1) rotate(-8.000000) translate(-89.210196, -264.631752) "></path>
                </g>
                <path d="M144,26.9986083 C148.695864,26.9986083 152.499343,31.0275244 152.499343,36 C152.499343,31.0275244 156.304136,26.9986083 161,26.9986083 C156.304136,26.9986083 152.499343,22.9724756 152.499343,18 C152.499343,22.9724756 148.695864,26.9986083 144,26.9986083" id="Fill-89" fill="#FFFFFE" opacity="0.25562686"></path>
                <path d="M181,3.49945879 C182.933591,3.49945879 184.499729,5.06625947 184.499729,7 C184.499729,5.06625947 186.066409,3.49945879 188,3.49945879 C186.066409,3.49945879 184.499729,1.93374053 184.499729,0 C184.499729,1.93374053 182.933591,3.49945879 181,3.49945879" id="Fill-89-Copy-3" fill="#FFFFFE" opacity="0.25562686"></path>
                <path d="M138,163.500723 C141.314349,163.500723 144,166.408408 144,170 C144,166.408408 146.684316,163.500723 150,163.500723 C146.684316,163.500723 144,160.591592 144,157 C144,160.591592 141.314349,163.500723 138,163.500723" id="Fill-90-Copy" fill="#FFFFFE" opacity="0.419852121"></path>
                <path d="M359.786853,115.278481 C361.028559,115.301496 362.281534,115.514382 363.545817,115.917146 C364.810099,116.31991 365.905042,116.924047 366.830677,117.729574 L364.087649,120.629459 C363.56839,120.031067 362.919327,119.576526 362.140438,119.265823 C361.36155,118.955119 360.577029,118.79977 359.786853,118.79977 L359.786853,125.773303 C360.644759,126.049484 361.502652,126.37169 362.360558,126.739931 C363.218464,127.108172 363.991696,127.57422 364.680279,128.13809 C365.368861,128.701959 365.927621,129.386647 366.356574,130.192175 C366.785527,130.997703 367,131.987336 367,133.161105 C367,134.357889 366.802459,135.410812 366.407371,136.319908 C366.012282,137.229003 365.481743,137.988489 364.815737,138.598389 C364.149731,139.208288 363.382142,139.674337 362.512948,139.996548 C361.643754,140.318759 360.735065,140.491369 359.786853,140.514384 L359.786853,143 L357.958167,143 L357.958167,140.514384 C356.46812,140.468354 355.040179,140.186424 353.674303,139.668585 C352.308426,139.150745 351.083671,138.362491 350,137.303797 L352.98008,134.403913 C353.589644,135.140395 354.357233,135.744532 355.282869,136.216341 C356.208504,136.68815 357.100261,136.935558 357.958167,136.958573 L357.958167,129.294591 C356.964802,129.018411 356.039181,128.701958 355.181275,128.345224 C354.323369,127.988491 353.572712,127.53395 352.929283,126.981588 C352.285853,126.429226 351.783534,125.767553 351.422311,124.996548 C351.061087,124.225543 350.880478,123.287693 350.880478,122.182969 C350.880478,121.147291 351.078019,120.220948 351.473108,119.403913 C351.868196,118.586877 352.398735,117.890682 353.064741,117.315305 C353.730747,116.739928 354.487048,116.285387 355.333665,115.951669 C356.180283,115.61795 357.055108,115.416571 357.958167,115.347526 L357.958167,113 L359.786853,113 L359.786853,115.278481 Z M358,119 C357.213479,119.085107 356.516857,119.3617 355.910112,119.829787 C355.303368,120.297875 355,120.999995 355,121.93617 C355,122.829792 355.286514,123.505317 355.859551,123.962766 C356.432587,124.420215 357.146063,124.765956 358,125 L358,119 Z M360,137 C360.90323,136.954692 361.62903,136.61489 362.177419,135.980583 C362.725809,135.346275 363,134.519423 363,133.5 C363,132.503231 362.715057,131.750003 362.145161,131.240291 C361.575266,130.73058 360.860219,130.317154 360,130 L360,137 Z" id="$-copy" fill="#C1E6FF"></path>
            </g>
        </g>
    </g>
</svg>