<?xml version="1.0" encoding="UTF-8"?>
<svg width="17px" height="9px" viewBox="0 0 17 9" version="1.1" xmlns="http://www.w3.org/2000/svg" xmlns:xlink="http://www.w3.org/1999/xlink">
    <!-- Generator: Sketch 52.5 (67469) - http://www.bohemiancoding.com/sketch -->
    <title>Shape Copy 5</title>
    <desc>Created with Sketch.</desc>
    <g id="Metricly-concept" stroke="none" stroke-width="1" fill="none" fill-rule="evenodd">
        <g id="Monitoring-1440" transform="translate(-713.000000, -716.000000)" fill="#FFFFFF" fill-rule="nonzero">
            <g id="btn_down" transform="translate(713.000000, 716.000000)">
                <path d="M15.387642,8.73626703 C15.5718036,8.91178897 15.8135746,9 16.0553457,9 C16.2971167,9 16.5388878,8.91178897 16.7230494,8.73626703 C17.0923169,8.38432304 17.0923169,7.81545193 16.7230494,7.46350794 L9.16864809,0.263507938 C9.08176162,0.179797475 8.9769312,0.114089261 8.86076776,0.0681835229 C8.63032971,-0.022727841 8.36967029,-0.022727841 8.13923224,0.0681835229 C8.0230688,0.114089261 7.9191828,0.179797475 7.83135191,0.263507938 L0.27695064,7.46350794 C-0.0923168801,7.81545193 -0.0923168801,8.38432304 0.27695064,8.73626703 C0.461112191,8.91178897 0.702883253,9 0.944654315,9 C1.18642538,9 1.42819644,8.91178897 1.61235799,8.73626703 L7.55558179,3.07185898 C7.97532322,2.73570446 8.29012929,2.5676272 8.5,2.5676272 C8.70987071,2.5676272 9.02467678,2.73570446 9.44441821,3.07185898 L15.387642,8.73626703 Z" id="Shape-Copy-5" transform="translate(8.500000, 4.500000) rotate(-180.000000) translate(-8.500000, -4.500000) "></path>
            </g>
        </g>
    </g>
</svg>