<svg height="11" viewBox="0 0 16 11" width="16" xmlns="http://www.w3.org/2000/svg"><path d="m153.646399 10.2536011c.097497.0955055.225493.1435031.35349.1435031.127996 0 .255993-.0479976.35349-.1435031.195495-.1915007.195495-.50103636 0-.69253707l-3.999389-3.91768338c-.045999-.04554876-.101497-.08130209-.162995-.10628045-.121997-.04946693-.259993-.04946693-.38199 0-.061498.02497836-.116496.06073169-.162995.10628045l-3.999389 3.91768338c-.195495.19150071-.195495.50103637 0 .69253707.097497.0955055.225494.1435031.35349.1435031.127997 0 .255993-.0479976.35349-.1435031l3.146413-3.08213292v11.82854572c0 .2761347.223851.4999861.499986.4999861s.499986-.2238514.499986-.4999861v-11.82854572z" fill="#fff" stroke="#fff" stroke-width=".3" transform="matrix(0 1 -1 0 20.5 -144.5)"/></svg>