<svg height="24" viewBox="0 0 27 24" width="27" xmlns="http://www.w3.org/2000/svg"><g fill="none" fill-rule="evenodd" opacity=".951637" transform=""><g stroke="#439bc3" stroke-width=".7"><path d="m2 15.6176998 3.98730133-5.6176998" stroke-linecap="round"/><path d="m5.85555186 10.2851741h5.34570824" stroke-linecap="round"/><path d="m19.377586 2.86660198 2.122414-1.82632648" stroke-linecap="round"/><path d="m12.8240522 9.46982095 5.2121162-5.46862351" stroke-linecap="round"/></g><path d="m12.3816872 16.8448276c-4.07679325 0-7.3816872-3.3231279-7.3816872-7.42241381 0-4.09928594 3.30489395-7.42241379 7.3816872-7.42241379 4.0767933 0 7.3816873 3.32312785 7.3816873 7.42241379 0 4.09928591-3.304894 7.42241381-7.3816873 7.42241381zm0-2.9689655c2.446076 0 4.4290124-1.9938767 4.4290124-4.45344831 0-2.45957156-1.9829364-4.45344827-4.4290124-4.45344827-2.44607593 0-4.4290123 1.99387671-4.4290123 4.45344827 0 2.45957161 1.98293637 4.45344831 4.4290123 4.45344831z" fill="#fff"/><path d="m17.685502 13.718223h1.714506v3.649063h-1.714506z" fill="#2d516c" stroke="#fff" stroke-width=".5" transform="matrix(.70710678 -.70710678 .70710678 .70710678 -5.55934 17.664075)"/><path d="m20.0175686 14.0473099h4.4290123v8.1550235c0 1.223038-.9914682 2.2145062-2.2145062 2.2145062-1.2230379 0-2.2145061-.9914682-2.2145061-2.2145062z" fill="#fff" transform="matrix(.70710678 -.70710678 .70710678 .70710678 -7.087507 21.353395)"/><path d="m1.32655172 17.1043589c.40767932 0 .73816872-.3323127.73816872-.7422413s-.3304894-.7422414-.73816872-.7422414c-.40767933 0-.73816873.3323128-.73816873.7422414s.3304894.7422413.73816873.7422413z" stroke="#439bc3" stroke-width=".7"/><path d="m12 10.9929207c.4076793 0 .7381687-.3323128.7381687-.7422414 0-.40992862-.3304894-.7422414-.7381687-.7422414s-.7381687.33231278-.7381687.7422414c0 .4099286.3304894.7422414.7381687.7422414z" stroke="#439bc3" stroke-width=".7"/><path d="m18.6027666 4.24775601c.4076793 0 .7381687-.33231278.7381687-.74224138 0-.40992859-.3304894-.74224138-.7381687-.74224138-.4076794 0-.7381688.33231279-.7381688.74224138 0 .4099286.3304894.74224138.7381688.74224138z" stroke="#439bc3" stroke-width=".7"/><path d="m19.6615611.6490846h2.3777963v1.96272066" stroke="#439bc3" stroke-linecap="round" stroke-linejoin="round" stroke-width=".7"/></g></svg>