<?xml version="1.0" encoding="utf-8"?>
<!-- Generator: Adobe Illustrator 19.2.1, SVG Export Plug-In . SVG Version: 6.00 Build 0)  -->
<svg version="1.1" id="Layer_1" xmlns="http://www.w3.org/2000/svg" xmlns:xlink="http://www.w3.org/1999/xlink" x="0px" y="0px"
	 width="480px" height="340px" viewBox="0 0 480 340" style="enable-background:new 0 0 480 340;" xml:space="preserve">
<style type="text/css">
	.st0{fill:#F9FCFE;}
	.st1{fill:#EDF4F8;}
	.st2{opacity:0.5;}
	.st3{fill:#A6C2D5;}
	.st4{fill:#275A7D;}
	.st5{fill:#FFFFFF;}
	.st6{fill:none;stroke:#E0E1E5;stroke-width:2;stroke-linecap:round;stroke-miterlimit:10;}
	.st7{fill:none;stroke:#DEEBF0;stroke-width:0.5;stroke-miterlimit:10;}
	
		.st8{opacity:0.5;fill:none;stroke:#74CAC8;stroke-width:2;stroke-linecap:round;stroke-linejoin:round;stroke-miterlimit:10;enable-background:new    ;}
	.st9{fill:none;stroke:#206797;stroke-width:0.6;stroke-miterlimit:10;}
	.st10{fill:#74CAC8;}
	.st11{fill:none;stroke:#74CAC8;stroke-width:0.6;stroke-miterlimit:10;}
	.st12{fill:none;stroke:#275A7D;stroke-width:0.6;stroke-miterlimit:10;}
	.st13{fill:#E0E1E5;}
	.st14{fill:#33CFB9;}
	.st15{fill:#C7EAE9;}
	.st16{fill:#B6EEE6;}
	.st17{fill:none;stroke:#275A7D;stroke-miterlimit:10;}
	.st18{fill:none;stroke:#33CFB9;stroke-width:2;stroke-miterlimit:10;}
	.st19{fill:#88C8C7;}
	.st20{fill:#206797;}
	.st21{fill:#004C6C;}
	.st22{fill:#18A98F;}
	.st23{fill:none;stroke:#85E2D5;stroke-width:0.5;stroke-linecap:round;stroke-linejoin:round;stroke-miterlimit:10;}
	.st24{fill:url(#SVGID_1_);}
	.st25{fill:url(#SVGID_2_);}
	.st26{fill:#00ADE9;}
	.st27{fill:#96CA4F;}
	.st28{fill:url(#SVGID_3_);}
	.st29{fill:none;stroke:#66CEF2;stroke-width:2;stroke-linecap:round;stroke-linejoin:round;stroke-miterlimit:10;}
	.st30{fill:#98E4FF;}
	.st31{fill:#387EB5;}
	.st32{fill:#96E3E2;}
	.st33{opacity:0.3;}
	.st34{fill:url(#SVGID_4_);}
	.st35{fill:url(#SVGID_5_);}
	.st36{fill:#C9A797;}
	.st37{fill:#E4D3CB;}
	.st38{opacity:0.7;}
	.st39{fill:url(#SVGID_6_);}
	.st40{fill:#1B75BB;}
	.st41{fill:url(#SVGID_7_);}
	.st42{fill:#27597D;}
	.st43{fill:url(#SVGID_8_);}
	.st44{fill:#14588C;}
	.st45{fill:none;stroke:#F9FCFE;stroke-linecap:round;stroke-linejoin:round;stroke-miterlimit:10;}
	.st46{fill:url(#SVGID_9_);}
	.st47{fill:url(#SVGID_10_);}
</style>
<g>
	<g id="Rectangle-Copy-4_6_">
		
			<image style="overflow:visible;opacity:0.25;" width="345" height="167" xlink:href="DDE6D6F0.png"  transform="matrix(1 0 0 1 120 112)">
		</image>
		<g>
			<path class="st0" d="M152.6,135.9h280.3c1.1,0,1.9,1,1.9,2.2v101.6c0,1.2-0.9,2.2-1.9,2.2H152.6c-1.1,0-1.9-1-1.9-2.2V138.1
				C150.7,136.9,151.6,135.9,152.6,135.9z"/>
		</g>
	</g>
	<path class="st0" d="M169.1,152c-1.2,0-2.1,1.1-1.8,2.2l4.8,24.6l40.8,47.3v27.7l18.9-9.4v-18.4l41.7-47.3l4.8-24.6
		c0.2-1.2-0.7-2.2-1.8-2.2H169.1z"/>
	<g>
		<g id="Rectangle-Copy-4_4_">
			
				<image style="overflow:visible;opacity:0.25;" width="356" height="176" xlink:href="DDE6D6F1.png"  transform="matrix(1 0 0 1 26 3)">
			</image>
			<g>
				<path class="st1" d="M60.4,26.7h287.5c2,0,3.6,1.6,3.6,3.6v109.5c0,1-0.8,1.7-1.7,1.7H58.5c-1,0-1.7-0.8-1.7-1.7V30.2
					C56.8,28.3,58.4,26.7,60.4,26.7z"/>
			</g>
		</g>
		<path id="Rectangle-2-Copy_3_" class="st1" d="M60.4,20.7h287.5c2,0,3.6,1.6,3.6,3.6v10.1H56.8V24.3
			C56.8,22.3,58.4,20.7,60.4,20.7z"/>
		<g class="st2">
			<circle id="Oval-3-Copy-3_4_" class="st3" cx="66.7" cy="27" r="1.7"/>
			<circle id="Oval-3-Copy-4_3_" class="st3" cx="74.3" cy="27" r="1.7"/>
			<circle id="Oval-3-Copy-5_3_" class="st3" cx="82" cy="27" r="1.7"/>
		</g>
		<rect id="Rectangle-3-Copy_3_" x="56.8" y="32.6" class="st4" width="294.7" height="17.8"/>
		<g>
			<path class="st5" d="M97.8,43.3L97.8,43.3c0-0.3,0.2-0.5,0.5-0.5c0.3,0,0.5,0.2,0.5,0.5v0c0,0.3-0.2,0.5-0.5,0.5
				C98.1,43.8,97.8,43.6,97.8,43.3 M98.8,43.3L98.8,43.3c0-0.2-0.2-0.4-0.4-0.4c-0.2,0-0.4,0.2-0.4,0.4v0c0,0.2,0.2,0.4,0.4,0.4
				C98.6,43.7,98.8,43.5,98.8,43.3 M98.2,43h0.2c0.1,0,0.2,0.1,0.2,0.2c0,0.1-0.1,0.1-0.1,0.2l0.1,0.2h-0.1l-0.1-0.2h-0.1v0.2h-0.1
				V43z M98.4,43.3c0.1,0,0.1,0,0.1-0.1c0-0.1,0-0.1-0.1-0.1h-0.1v0.2H98.4z"/>
			<path class="st5" d="M66.6,40.6c0-0.1,0.1-0.2,0.2-0.2h0c0.1,0,0.1,0,0.2,0.1l1.2,1.8l1.2-1.8c0-0.1,0.1-0.1,0.2-0.1h0
				c0.1,0,0.2,0.1,0.2,0.2v3.1c0,0.1-0.1,0.2-0.2,0.2c-0.1,0-0.2-0.1-0.2-0.2v-2.6l-1.1,1.6c0,0.1-0.1,0.1-0.2,0.1s-0.1,0-0.2-0.1
				L67,41.1v2.6c0,0.1-0.1,0.2-0.2,0.2c-0.1,0-0.2-0.1-0.2-0.2V40.6z"/>
			<path class="st5" d="M71.8,43.6v-3c0-0.1,0.1-0.2,0.2-0.2h2.1c0.1,0,0.2,0.1,0.2,0.2c0,0.1-0.1,0.2-0.2,0.2h-1.9v1.2h1.7
				c0.1,0,0.2,0.1,0.2,0.2c0,0.1-0.1,0.2-0.2,0.2h-1.7v1.2h2c0.1,0,0.2,0.1,0.2,0.2c0,0.1-0.1,0.2-0.2,0.2H72
				C71.9,43.8,71.8,43.7,71.8,43.6"/>
			<path class="st5" d="M77,40.8h-1c-0.1,0-0.2-0.1-0.2-0.2c0-0.1,0.1-0.2,0.2-0.2h2.4c0.1,0,0.2,0.1,0.2,0.2c0,0.1-0.1,0.2-0.2,0.2
				h-1v2.9c0,0.1-0.1,0.2-0.2,0.2c-0.1,0-0.2-0.1-0.2-0.2V40.8z"/>
			<path class="st5" d="M80.2,40.6c0-0.1,0.1-0.2,0.2-0.2h1.3c0.4,0,0.8,0.1,1,0.3c0.2,0.2,0.3,0.4,0.3,0.7v0c0,0.6-0.4,0.9-0.9,1
				l0.9,1.1c0,0,0.1,0.1,0.1,0.1c0,0.1-0.1,0.2-0.2,0.2c-0.1,0-0.1,0-0.2-0.1l-1-1.3h-1v1.2c0,0.1-0.1,0.2-0.2,0.2
				c-0.1,0-0.2-0.1-0.2-0.2V40.6z M81.6,42.2c0.5,0,0.9-0.3,0.9-0.7v0c0-0.4-0.3-0.7-0.9-0.7h-1.1v1.4H81.6z"/>
			<path class="st5" d="M84.8,40.6c0-0.1,0.1-0.2,0.2-0.2c0.1,0,0.2,0.1,0.2,0.2v3.1c0,0.1-0.1,0.2-0.2,0.2c-0.1,0-0.2-0.1-0.2-0.2
				V40.6z"/>
			<path class="st5" d="M87,42.1L87,42.1c0-1,0.7-1.8,1.7-1.8c0.6,0,0.9,0.2,1.2,0.4c0,0,0.1,0.1,0.1,0.2c0,0.1-0.1,0.2-0.2,0.2
				c-0.1,0-0.1,0-0.1,0c-0.3-0.2-0.6-0.4-1-0.4c-0.8,0-1.3,0.6-1.3,1.4v0c0,0.8,0.6,1.4,1.3,1.4c0.4,0,0.7-0.1,1-0.4
				c0,0,0.1-0.1,0.1-0.1c0.1,0,0.2,0.1,0.2,0.2c0,0.1,0,0.1-0.1,0.1c-0.3,0.3-0.7,0.5-1.3,0.5C87.7,43.9,87,43.1,87,42.1"/>
			<path class="st5" d="M91.7,40.6c0-0.1,0.1-0.2,0.2-0.2c0.1,0,0.2,0.1,0.2,0.2v2.9h1.8c0.1,0,0.2,0.1,0.2,0.2
				c0,0.1-0.1,0.2-0.2,0.2h-2c-0.1,0-0.2-0.1-0.2-0.2V40.6z"/>
			<path class="st5" d="M96.1,42.5l-1.3-1.8c0,0,0-0.1,0-0.1c0-0.1,0.1-0.2,0.2-0.2c0.1,0,0.1,0,0.2,0.1l1.1,1.6l1.1-1.6
				c0-0.1,0.1-0.1,0.2-0.1c0.1,0,0.2,0.1,0.2,0.2c0,0,0,0.1-0.1,0.1l-1.3,1.8v1.2c0,0.1-0.1,0.2-0.2,0.2c-0.1,0-0.2-0.1-0.2-0.2
				V42.5z"/>
		</g>
	</g>
	<path id="Rectangle_7_" class="st0" d="M67.8,55.9H340c1.3,0,2.3,1.2,2.3,2.7v73.1c0,1.5-1,2.7-2.3,2.7H67.8
		c-1.3,0-2.3-1.2-2.3-2.7V58.6C65.4,57.1,66.5,55.9,67.8,55.9z"/>
	<g>
		<line class="st6" x1="80.5" y1="83.7" x2="86.2" y2="83.7"/>
		<line class="st6" x1="80.5" y1="96.3" x2="86.2" y2="96.3"/>
		<line class="st6" x1="80.5" y1="109" x2="86.2" y2="109"/>
		<line class="st6" x1="80.5" y1="121.6" x2="86.2" y2="121.6"/>
		<g>
			<line class="st7" x1="90.9" y1="121.6" x2="332.5" y2="121.6"/>
			<line class="st7" x1="90.9" y1="109" x2="332.5" y2="109"/>
			<line class="st7" x1="90.9" y1="96.3" x2="332.5" y2="96.3"/>
			<line class="st7" x1="90.9" y1="83.7" x2="332.5" y2="83.7"/>
		</g>
		<line class="st7" x1="166.5" y1="83.7" x2="166.5" y2="121.6"/>
		<line class="st7" x1="196.7" y1="83.7" x2="196.7" y2="121.6"/>
		<line class="st7" x1="211.7" y1="83.7" x2="211.7" y2="121.6"/>
		<line class="st7" x1="226.8" y1="83.7" x2="226.8" y2="121.6"/>
		<line class="st7" x1="121.2" y1="83.7" x2="121.2" y2="121.6"/>
		<line class="st7" x1="136.3" y1="83.7" x2="136.3" y2="121.6"/>
		<line class="st7" x1="151.4" y1="83.7" x2="151.4" y2="121.6"/>
		<line class="st7" x1="181.6" y1="83.7" x2="181.6" y2="121.6"/>
		<line class="st7" x1="106.1" y1="83.7" x2="106.1" y2="121.6"/>
		<line class="st7" x1="91" y1="83.7" x2="91" y2="121.6"/>
		<line class="st7" x1="241.9" y1="83.7" x2="241.9" y2="121.6"/>
		<line class="st7" x1="257" y1="83.7" x2="257" y2="121.6"/>
		<line class="st7" x1="272.1" y1="83.7" x2="272.1" y2="121.6"/>
		<line class="st7" x1="287.2" y1="83.7" x2="287.2" y2="121.6"/>
		<line class="st7" x1="302.3" y1="83.7" x2="302.3" y2="121.6"/>
		<line class="st7" x1="317.4" y1="83.7" x2="317.4" y2="121.6"/>
		<line class="st7" x1="332.5" y1="83.7" x2="332.5" y2="121.6"/>
	</g>
	<line class="st8" x1="71.8" y1="87.1" x2="71.8" y2="120.2"/>
	<circle class="st4" cx="175.6" cy="93.3" r="2.5"/>
	<circle class="st4" cx="175.6" cy="106" r="2"/>
	<circle class="st9" cx="326.1" cy="109.2" r="2"/>
	<circle class="st9" cx="326.1" cy="117.8" r="1"/>
	<polygon class="st10" points="125.5,92.6 129.2,86.6 133,92.6 	"/>
	<polygon class="st10" points="139.2,95.6 143,89.6 146.7,95.6 	"/>
	<polygon class="st10" points="231.4,93.8 235.1,87.8 238.8,93.8 	"/>
	<g>
		<polygon class="st11" points="126.1,112.2 129.2,107.2 132.3,112.2 		"/>
		<line class="st11" x1="129.2" y1="92.6" x2="129.2" y2="107.2"/>
	</g>
	<g>
		<polygon class="st11" points="139.9,115.2 143,110.2 146.1,115.2 		"/>
		<line class="st11" x1="143" y1="95.6" x2="143" y2="110.2"/>
	</g>
	<g>
		<polygon class="st11" points="232,117 235.1,112 238.2,117 		"/>
		<line class="st11" x1="235.1" y1="93.8" x2="235.1" y2="112"/>
	</g>
	<line class="st12" x1="178.1" y1="93.3" x2="324.1" y2="109.2"/>
	<line class="st12" x1="177.6" y1="106" x2="324.6" y2="117.8"/>
	<g>
		<circle class="st13" cx="136.2" cy="125.8" r="1.5"/>
		<circle class="st13" cx="151.4" cy="125.8" r="1.5"/>
		<circle class="st13" cx="121" cy="125.8" r="1.5"/>
		<circle class="st13" cx="105.8" cy="125.8" r="1.5"/>
		<circle class="st13" cx="212.1" cy="125.8" r="1.5"/>
		<circle class="st13" cx="196.9" cy="125.8" r="1.5"/>
		<circle class="st13" cx="181.8" cy="125.8" r="1.5"/>
		<circle class="st13" cx="166.6" cy="125.8" r="1.5"/>
		<circle class="st13" cx="288" cy="125.8" r="1.5"/>
		<circle class="st13" cx="272.8" cy="125.8" r="1.5"/>
		<circle class="st13" cx="242.5" cy="125.8" r="1.5"/>
		<circle class="st13" cx="257.7" cy="125.8" r="1.5"/>
		<circle class="st13" cx="303.2" cy="125.8" r="1.5"/>
		<circle class="st13" cx="318.4" cy="125.8" r="1.5"/>
		<circle class="st13" cx="227.3" cy="125.8" r="1.5"/>
	</g>
	<g>
		<path class="st10" d="M296.2,163.8c-0.5,0-0.8,0.2-1.1,0.5c-0.3,0.3-0.4,0.8-0.4,1.4c0,0.6,0.1,1.1,0.4,1.4s0.6,0.5,1.1,0.5
			c0.2,0,0.4,0,0.6-0.1c0.2,0,0.4-0.1,0.6-0.2v0.7c-0.4,0.1-0.8,0.2-1.3,0.2c-0.7,0-1.3-0.2-1.7-0.7c-0.4-0.4-0.6-1.1-0.6-1.9
			c0-0.5,0.1-1,0.3-1.4s0.5-0.7,0.8-0.9s0.8-0.3,1.3-0.3c0.5,0,1,0.1,1.4,0.3l-0.3,0.7c-0.2-0.1-0.3-0.1-0.5-0.2
			C296.6,163.8,296.4,163.8,296.2,163.8z"/>
		<path class="st10" d="M301.1,168.2l-0.1-0.5h0c-0.1,0.2-0.3,0.3-0.5,0.4s-0.4,0.2-0.7,0.2c-0.5,0-0.8-0.1-1-0.3
			c-0.2-0.2-0.3-0.6-0.3-1v-2.5h0.8v2.3c0,0.3,0.1,0.5,0.2,0.7c0.1,0.1,0.3,0.2,0.6,0.2c0.3,0,0.6-0.1,0.7-0.3
			c0.2-0.2,0.2-0.5,0.2-1v-1.9h0.8v3.8H301.1z"/>
		<path class="st10" d="M304.8,164.3c0.2,0,0.3,0,0.4,0l-0.1,0.7c-0.1,0-0.2,0-0.4,0c-0.3,0-0.6,0.1-0.8,0.3
			c-0.2,0.2-0.3,0.5-0.3,0.8v2h-0.8v-3.8h0.6l0.1,0.7h0c0.1-0.2,0.3-0.4,0.5-0.5C304.3,164.4,304.6,164.3,304.8,164.3z"/>
		<path class="st10" d="M307.8,164.3c0.2,0,0.3,0,0.4,0l-0.1,0.7c-0.1,0-0.2,0-0.4,0c-0.3,0-0.6,0.1-0.8,0.3
			c-0.2,0.2-0.3,0.5-0.3,0.8v2h-0.8v-3.8h0.6l0.1,0.7h0c0.1-0.2,0.3-0.4,0.5-0.5C307.4,164.4,307.6,164.3,307.8,164.3z"/>
		<path class="st10" d="M310.6,168.2c-0.6,0-1-0.2-1.4-0.5c-0.3-0.3-0.5-0.8-0.5-1.4c0-0.6,0.2-1.1,0.5-1.5c0.3-0.4,0.7-0.5,1.3-0.5
			c0.5,0,0.9,0.2,1.2,0.5c0.3,0.3,0.4,0.7,0.4,1.3v0.4h-2.5c0,0.4,0.1,0.6,0.3,0.8c0.2,0.2,0.5,0.3,0.8,0.3c0.2,0,0.4,0,0.6-0.1
			s0.4-0.1,0.6-0.2v0.7c-0.2,0.1-0.4,0.2-0.6,0.2C311,168.2,310.8,168.2,310.6,168.2z M310.4,164.9c-0.3,0-0.5,0.1-0.6,0.2
			c-0.2,0.2-0.2,0.4-0.3,0.7h1.7c0-0.3-0.1-0.5-0.2-0.7C310.9,165,310.7,164.9,310.4,164.9z"/>
		<path class="st10" d="M316.3,168.2h-0.8v-2.3c0-0.3-0.1-0.5-0.2-0.7c-0.1-0.1-0.3-0.2-0.6-0.2c-0.3,0-0.6,0.1-0.7,0.3
			s-0.2,0.5-0.2,1v1.9h-0.8v-3.8h0.6l0.1,0.5h0c0.1-0.2,0.3-0.3,0.5-0.4c0.2-0.1,0.4-0.1,0.7-0.1c0.9,0,1.4,0.5,1.4,1.4V168.2z"/>
		<path class="st10" d="M318.8,167.6c0.2,0,0.4,0,0.6-0.1v0.6c-0.1,0-0.2,0.1-0.3,0.1c-0.1,0-0.3,0-0.4,0c-0.8,0-1.1-0.4-1.1-1.2v-2
			h-0.5v-0.4l0.6-0.3l0.3-0.8h0.5v0.8h1.1v0.6h-1.1v2c0,0.2,0,0.3,0.1,0.4C318.5,167.5,318.6,167.6,318.8,167.6z"/>
		<path class="st10" d="M323.8,168.2h-0.8v-4.3h-1.5v-0.7h3.8v0.7h-1.5V168.2z"/>
		<path class="st10" d="M325.3,164.4h0.9l0.8,2.1c0.1,0.3,0.2,0.6,0.2,0.9h0c0-0.1,0.1-0.3,0.1-0.5s0.3-1,0.9-2.5h0.9l-1.6,4.3
			c-0.3,0.8-0.8,1.2-1.5,1.2c-0.2,0-0.4,0-0.5-0.1v-0.6c0.1,0,0.3,0,0.4,0c0.4,0,0.7-0.2,0.8-0.7l0.1-0.4L325.3,164.4z"/>
		<path class="st10" d="M331.6,168.2c-0.5,0-0.9-0.2-1.1-0.5h0c0,0.3,0,0.5,0,0.6v1.5h-0.8v-5.5h0.6c0,0.1,0.1,0.2,0.1,0.5h0
			c0.3-0.4,0.6-0.6,1.1-0.6c0.5,0,0.8,0.2,1.1,0.5c0.3,0.3,0.4,0.8,0.4,1.4c0,0.6-0.1,1.1-0.4,1.4S332.1,168.2,331.6,168.2z
			 M331.4,165c-0.3,0-0.6,0.1-0.7,0.3c-0.1,0.2-0.2,0.5-0.2,0.9v0.1c0,0.5,0.1,0.8,0.2,1c0.1,0.2,0.4,0.3,0.7,0.3
			c0.3,0,0.5-0.1,0.6-0.3s0.2-0.6,0.2-1c0-0.4-0.1-0.7-0.2-1S331.7,165,331.4,165z"/>
		<path class="st10" d="M335.7,168.2c-0.6,0-1-0.2-1.4-0.5c-0.3-0.3-0.5-0.8-0.5-1.4c0-0.6,0.2-1.1,0.5-1.5c0.3-0.4,0.7-0.5,1.3-0.5
			c0.5,0,0.9,0.2,1.2,0.5c0.3,0.3,0.4,0.7,0.4,1.3v0.4h-2.5c0,0.4,0.1,0.6,0.3,0.8c0.2,0.2,0.5,0.3,0.8,0.3c0.2,0,0.4,0,0.6-0.1
			s0.4-0.1,0.6-0.2v0.7c-0.2,0.1-0.4,0.2-0.6,0.2C336.2,168.2,335.9,168.2,335.7,168.2z M335.5,164.9c-0.3,0-0.5,0.1-0.6,0.2
			c-0.2,0.2-0.2,0.4-0.3,0.7h1.7c0-0.3-0.1-0.5-0.2-0.7C336,165,335.8,164.9,335.5,164.9z"/>
	</g>
	<g>
		<g>
			<path class="st14" d="M371,164.7c0,0.5-0.2,0.9-0.5,1.2c-0.3,0.3-0.8,0.4-1.5,0.4h-0.5v1.9h-0.8v-5h1.4c0.6,0,1.1,0.1,1.4,0.4
				C370.8,163.8,371,164.2,371,164.7z M368.5,165.6h0.4c0.4,0,0.7-0.1,0.9-0.2c0.2-0.1,0.3-0.4,0.3-0.7c0-0.3-0.1-0.5-0.3-0.6
				s-0.4-0.2-0.8-0.2h-0.6V165.6z"/>
			<path class="st14" d="M373.8,164.3c0.2,0,0.3,0,0.4,0l-0.1,0.7c-0.1,0-0.2,0-0.4,0c-0.3,0-0.6,0.1-0.8,0.3
				c-0.2,0.2-0.3,0.5-0.3,0.8v2h-0.8v-3.8h0.6l0.1,0.7h0c0.1-0.2,0.3-0.4,0.5-0.5C373.4,164.4,373.6,164.3,373.8,164.3z"/>
			<path class="st14" d="M378.3,166.3c0,0.6-0.2,1.1-0.5,1.4s-0.8,0.5-1.3,0.5c-0.4,0-0.7-0.1-0.9-0.2c-0.3-0.2-0.5-0.4-0.6-0.7
				c-0.1-0.3-0.2-0.6-0.2-1c0-0.6,0.2-1.1,0.5-1.4c0.3-0.3,0.8-0.5,1.3-0.5c0.5,0,1,0.2,1.3,0.5
				C378.1,165.2,378.3,165.7,378.3,166.3z M375.5,166.3c0,0.9,0.3,1.3,1,1.3c0.6,0,1-0.4,1-1.3c0-0.9-0.3-1.3-1-1.3
				c-0.3,0-0.6,0.1-0.7,0.3S375.5,165.9,375.5,166.3z"/>
			<path class="st14" d="M381.1,168.2c-0.5,0-0.9-0.2-1.1-0.5h0c0,0.3,0,0.5,0,0.6v1.5h-0.8v-5.5h0.6c0,0.1,0.1,0.2,0.1,0.5h0
				c0.3-0.4,0.6-0.6,1.1-0.6c0.5,0,0.8,0.2,1.1,0.5c0.3,0.3,0.4,0.8,0.4,1.4c0,0.6-0.1,1.1-0.4,1.4S381.6,168.2,381.1,168.2z
				 M380.9,165c-0.3,0-0.6,0.1-0.7,0.3c-0.1,0.2-0.2,0.5-0.2,0.9v0.1c0,0.5,0.1,0.8,0.2,1c0.1,0.2,0.4,0.3,0.7,0.3
				c0.3,0,0.5-0.1,0.6-0.3s0.2-0.6,0.2-1c0-0.4-0.1-0.7-0.2-1S381.2,165,380.9,165z"/>
			<path class="st14" d="M386.9,166.3c0,0.6-0.2,1.1-0.5,1.4s-0.8,0.5-1.3,0.5c-0.4,0-0.7-0.1-0.9-0.2c-0.3-0.2-0.5-0.4-0.6-0.7
				c-0.1-0.3-0.2-0.6-0.2-1c0-0.6,0.2-1.1,0.5-1.4c0.3-0.3,0.8-0.5,1.3-0.5c0.5,0,1,0.2,1.3,0.5
				C386.7,165.2,386.9,165.7,386.9,166.3z M384.2,166.3c0,0.9,0.3,1.3,1,1.3c0.6,0,1-0.4,1-1.3c0-0.9-0.3-1.3-1-1.3
				c-0.3,0-0.6,0.1-0.7,0.3S384.2,165.9,384.2,166.3z"/>
			<path class="st14" d="M390.4,167.1c0,0.4-0.1,0.7-0.4,0.8c-0.3,0.2-0.7,0.3-1.2,0.3c-0.5,0-0.9-0.1-1.2-0.2v-0.7
				c0.4,0.2,0.9,0.3,1.2,0.3c0.5,0,0.7-0.1,0.7-0.4c0-0.1,0-0.2-0.1-0.2c-0.1-0.1-0.1-0.1-0.3-0.2c-0.1-0.1-0.3-0.1-0.5-0.2
				c-0.4-0.2-0.7-0.3-0.9-0.5c-0.2-0.2-0.2-0.4-0.2-0.7c0-0.3,0.1-0.6,0.4-0.8s0.6-0.3,1.1-0.3c0.4,0,0.9,0.1,1.3,0.3l-0.3,0.6
				c-0.4-0.2-0.8-0.3-1-0.3c-0.4,0-0.6,0.1-0.6,0.4c0,0.1,0.1,0.2,0.2,0.3s0.4,0.2,0.7,0.3c0.3,0.1,0.5,0.2,0.7,0.3
				c0.1,0.1,0.2,0.2,0.3,0.3S390.4,166.9,390.4,167.1z"/>
			<path class="st14" d="M392.9,168.2c-0.6,0-1-0.2-1.4-0.5c-0.3-0.3-0.5-0.8-0.5-1.4c0-0.6,0.2-1.1,0.5-1.5
				c0.3-0.4,0.7-0.5,1.3-0.5c0.5,0,0.9,0.2,1.2,0.5c0.3,0.3,0.4,0.7,0.4,1.3v0.4h-2.5c0,0.4,0.1,0.6,0.3,0.8
				c0.2,0.2,0.5,0.3,0.8,0.3c0.2,0,0.4,0,0.6-0.1s0.4-0.1,0.6-0.2v0.7c-0.2,0.1-0.4,0.2-0.6,0.2
				C393.4,168.2,393.1,168.2,392.9,168.2z M392.7,164.9c-0.3,0-0.5,0.1-0.6,0.2c-0.2,0.2-0.2,0.4-0.3,0.7h1.7c0-0.3-0.1-0.5-0.2-0.7
				C393.2,165,393,164.9,392.7,164.9z"/>
			<path class="st14" d="M396.5,168.2c-0.5,0-0.8-0.2-1.1-0.5s-0.4-0.8-0.4-1.4c0-0.6,0.1-1.1,0.4-1.4c0.3-0.3,0.6-0.5,1.1-0.5
				c0.5,0,0.9,0.2,1.1,0.5h0c0-0.3-0.1-0.5-0.1-0.6v-1.4h0.8v5.3h-0.6l-0.1-0.5h0C397.4,168.1,397,168.2,396.5,168.2z M396.8,167.6
				c0.3,0,0.6-0.1,0.7-0.3s0.2-0.5,0.2-0.9v-0.1c0-0.5-0.1-0.8-0.2-1c-0.2-0.2-0.4-0.3-0.7-0.3c-0.3,0-0.5,0.1-0.7,0.3
				c-0.2,0.2-0.2,0.6-0.2,1c0,0.4,0.1,0.7,0.2,1C396.2,167.5,396.5,167.6,396.8,167.6z"/>
			<path class="st14" d="M403.3,168.2h-0.8v-4.3H401v-0.7h3.8v0.7h-1.5V168.2z"/>
			<path class="st14" d="M404.8,164.4h0.9l0.8,2.1c0.1,0.3,0.2,0.6,0.2,0.9h0c0-0.1,0.1-0.3,0.1-0.5s0.3-1,0.9-2.5h0.9l-1.6,4.3
				c-0.3,0.8-0.8,1.2-1.5,1.2c-0.2,0-0.4,0-0.5-0.1v-0.6c0.1,0,0.3,0,0.4,0c0.4,0,0.7-0.2,0.8-0.7l0.1-0.4L404.8,164.4z"/>
			<path class="st14" d="M411.1,168.2c-0.5,0-0.9-0.2-1.1-0.5h0c0,0.3,0,0.5,0,0.6v1.5h-0.8v-5.5h0.6c0,0.1,0.1,0.2,0.1,0.5h0
				c0.3-0.4,0.6-0.6,1.1-0.6c0.5,0,0.8,0.2,1.1,0.5c0.3,0.3,0.4,0.8,0.4,1.4c0,0.6-0.1,1.1-0.4,1.4S411.6,168.2,411.1,168.2z
				 M410.9,165c-0.3,0-0.6,0.1-0.7,0.3c-0.1,0.2-0.2,0.5-0.2,0.9v0.1c0,0.5,0.1,0.8,0.2,1c0.1,0.2,0.4,0.3,0.7,0.3
				c0.3,0,0.5-0.1,0.6-0.3s0.2-0.6,0.2-1c0-0.4-0.1-0.7-0.2-1S411.2,165,410.9,165z"/>
			<path class="st14" d="M415.2,168.2c-0.6,0-1-0.2-1.4-0.5c-0.3-0.3-0.5-0.8-0.5-1.4c0-0.6,0.2-1.1,0.5-1.5
				c0.3-0.4,0.7-0.5,1.3-0.5c0.5,0,0.9,0.2,1.2,0.5c0.3,0.3,0.4,0.7,0.4,1.3v0.4h-2.5c0,0.4,0.1,0.6,0.3,0.8
				c0.2,0.2,0.5,0.3,0.8,0.3c0.2,0,0.4,0,0.6-0.1s0.4-0.1,0.6-0.2v0.7c-0.2,0.1-0.4,0.2-0.6,0.2
				C415.7,168.2,415.4,168.2,415.2,168.2z M415,164.9c-0.3,0-0.5,0.1-0.6,0.2c-0.2,0.2-0.2,0.4-0.3,0.7h1.7c0-0.3-0.1-0.5-0.2-0.7
				C415.5,165,415.3,164.9,415,164.9z"/>
		</g>
	</g>
	<path class="st15" d="M338.4,188h-44c-0.6,0-1-0.4-1-1v-10c0-0.6,0.4-1,1-1h44c0.6,0,1,0.4,1,1v10C339.4,187.6,339,188,338.4,188z"
		/>
	<path class="st15" d="M321.7,204.8h-27.2c-0.6,0-1-0.4-1-1v-10c0-0.6,0.4-1,1-1h27.2c0.6,0,1,0.4,1,1v10
		C322.7,204.3,322.2,204.8,321.7,204.8z"/>
	<path class="st16" d="M386.1,188H368c-0.6,0-1-0.4-1-1v-10c0-0.6,0.4-1,1-1h18.1c0.6,0,1,0.4,1,1v10
		C387.1,187.6,386.7,188,386.1,188z"/>
	<path class="st16" d="M413.5,204.8H368c-0.6,0-1-0.4-1-1v-10c0-0.6,0.4-1,1-1h45.5c0.6,0,1,0.4,1,1v10
		C414.5,204.3,414.1,204.8,413.5,204.8z"/>
	<g>
		<g>
			<line class="st17" x1="344.1" y1="182" x2="356.4" y2="182"/>
			<g>
				<polygon class="st4" points="355.8,184 359.3,182 355.8,180 				"/>
			</g>
		</g>
	</g>
	<g>
		<g>
			<line class="st17" x1="344.1" y1="198.8" x2="356.4" y2="198.8"/>
			<g>
				<polygon class="st4" points="355.8,200.8 359.3,198.8 355.8,196.8 				"/>
			</g>
		</g>
	</g>
	<line class="st8" x1="298.2" y1="182" x2="311.4" y2="182"/>
	<path class="st15" d="M338.4,222.3h-44c-0.6,0-1-0.4-1-1v-10c0-0.6,0.4-1,1-1h44c0.6,0,1,0.4,1,1v10
		C339.4,221.8,339,222.3,338.4,222.3z"/>
	<path class="st16" d="M386.1,222.3H368c-0.6,0-1-0.4-1-1v-10c0-0.6,0.4-1,1-1h18.1c0.6,0,1,0.4,1,1v10
		C387.1,221.8,386.7,222.3,386.1,222.3z"/>
	<g>
		<g>
			<line class="st17" x1="344.1" y1="216.3" x2="356.4" y2="216.3"/>
			<g>
				<polygon class="st4" points="355.8,218.3 359.3,216.3 355.8,214.3 				"/>
			</g>
		</g>
	</g>
	<line class="st8" x1="298.2" y1="216.3" x2="311.4" y2="216.3"/>
	<line class="st8" x1="298.2" y1="198.8" x2="311.4" y2="198.8"/>
	<line class="st18" x1="371.5" y1="182" x2="379.7" y2="182"/>
	<line class="st18" x1="371.5" y1="216.3" x2="381.7" y2="216.3"/>
	<line class="st18" x1="371.5" y1="198.8" x2="398.5" y2="198.8"/>
	<circle class="st19" cx="263.5" cy="157.2" r="1.1"/>
	<rect x="256.2" y="140.7" class="st20" width="3" height="3"/>
	<rect x="193.9" y="165" class="st14" width="3" height="3"/>
	<g>
		<path class="st14" d="M238.2,269.7h-32.7c-0.6,0-1-0.4-1-1V263c0-0.6,0.4-1,1-1h32.7c0.6,0,1,0.4,1,1v5.8
			C239.2,269.3,238.7,269.7,238.2,269.7z"/>
		<g>
			<circle class="st21" cx="209.1" cy="265.8" r="1"/>
			<circle class="st21" cx="212.3" cy="265.8" r="1"/>
			<circle class="st22" cx="215.5" cy="265.8" r="1"/>
		</g>
		<g>
			<line class="st23" x1="233" y1="264.1" x2="233" y2="267.6"/>
			<line class="st23" x1="231.6" y1="264.1" x2="231.6" y2="267.6"/>
			<line class="st23" x1="235.7" y1="264.1" x2="235.7" y2="267.6"/>
			<line class="st23" x1="234.4" y1="264.1" x2="234.4" y2="267.6"/>
			<line class="st23" x1="230.3" y1="264.1" x2="230.3" y2="267.6"/>
			<line class="st23" x1="228.9" y1="264.1" x2="228.9" y2="267.6"/>
			<line class="st23" x1="227.5" y1="264.1" x2="227.5" y2="267.6"/>
			<line class="st23" x1="226.1" y1="264.1" x2="226.1" y2="267.6"/>
		</g>
		<path class="st14" d="M238.2,288.6h-32.7c-0.6,0-1-0.4-1-1v-5.8c0-0.6,0.4-1,1-1h32.7c0.6,0,1,0.4,1,1v5.8
			C239.2,288.2,238.7,288.6,238.2,288.6z"/>
		<g>
			<circle class="st22" cx="209.1" cy="284.8" r="1"/>
			<circle class="st21" cx="212.3" cy="284.8" r="1"/>
			<circle class="st22" cx="215.5" cy="284.8" r="1"/>
		</g>
		<g>
			<line class="st23" x1="233" y1="283.1" x2="233" y2="286.5"/>
			<line class="st23" x1="231.6" y1="283.1" x2="231.6" y2="286.5"/>
			<line class="st23" x1="235.7" y1="283.1" x2="235.7" y2="286.5"/>
			<line class="st23" x1="234.4" y1="283.1" x2="234.4" y2="286.5"/>
			<line class="st23" x1="230.3" y1="283.1" x2="230.3" y2="286.5"/>
			<line class="st23" x1="228.9" y1="283.1" x2="228.9" y2="286.5"/>
			<line class="st23" x1="227.5" y1="283.1" x2="227.5" y2="286.5"/>
			<line class="st23" x1="226.1" y1="283.1" x2="226.1" y2="286.5"/>
		</g>
		<linearGradient id="SVGID_1_" gradientUnits="userSpaceOnUse" x1="206.1891" y1="270.5768" x2="236.5849" y2="270.5768">
			<stop  offset="0" style="stop-color:#275A7D"/>
			<stop  offset="1" style="stop-color:#00A98F"/>
		</linearGradient>
		<rect x="206.2" y="269.7" class="st24" width="30.4" height="1.7"/>
		<path class="st14" d="M238.2,279.2h-32.7c-0.6,0-1-0.4-1-1v-5.8c0-0.6,0.4-1,1-1h32.7c0.6,0,1,0.4,1,1v5.8
			C239.2,278.7,238.7,279.2,238.2,279.2z"/>
		<g>
			<circle class="st22" cx="209.1" cy="275.3" r="1"/>
			<circle class="st21" cx="212.3" cy="275.3" r="1"/>
			<circle class="st22" cx="215.5" cy="275.3" r="1"/>
		</g>
		<g>
			<line class="st23" x1="233" y1="273.6" x2="233" y2="277"/>
			<line class="st23" x1="231.6" y1="273.6" x2="231.6" y2="277"/>
			<line class="st23" x1="235.7" y1="273.6" x2="235.7" y2="277"/>
			<line class="st23" x1="234.4" y1="273.6" x2="234.4" y2="277"/>
			<line class="st23" x1="230.3" y1="273.6" x2="230.3" y2="277"/>
			<line class="st23" x1="228.9" y1="273.6" x2="228.9" y2="277"/>
			<line class="st23" x1="227.5" y1="273.6" x2="227.5" y2="277"/>
			<line class="st23" x1="226.1" y1="273.6" x2="226.1" y2="277"/>
		</g>
		<linearGradient id="SVGID_2_" gradientUnits="userSpaceOnUse" x1="206.1891" y1="280.0384" x2="236.5849" y2="280.0384">
			<stop  offset="0" style="stop-color:#275A7D"/>
			<stop  offset="1" style="stop-color:#00A98F"/>
		</linearGradient>
		<rect x="206.2" y="279.2" class="st25" width="30.4" height="1.7"/>
		<g class="st2">
			<image style="overflow:visible;" width="128" height="75" xlink:href="DDE6D6F7.png"  transform="matrix(1 0 0 1 158 269)">
			</image>
		</g>
	</g>
	<polygon class="st26" points="224.1,214.8 227.8,208.8 231.5,214.8 	"/>
	<g>
		<circle class="st20" cx="208" cy="196.1" r="2"/>
		<circle class="st20" cx="249.8" cy="177" r="2"/>
		<polyline class="st9" points="208.7,194.7 225.7,183 231.6,189 249.8,177 		"/>
	</g>
	<rect x="234" y="132.9" class="st27" width="3" height="3"/>
	<rect x="225.3" y="140.5" class="st14" width="3" height="3"/>
	<g>
		<path class="st26" d="M242.1,170H224c-0.8,0-1.5-0.6-1.5-1.4v-1.8c0-2.7,1.1-5.3,3.1-7.2c2-1.9,4.6-3,7.4-3c0,0,0,0,0,0l0,0.4
			v-0.4c2.8,0,5.5,1.1,7.4,3c2,1.9,3.1,4.5,3.1,7.2v1.8C243.6,169.4,242.9,170,242.1,170z M233,157.5c-2.6,0-5,1-6.8,2.7
			c-1.8,1.8-2.8,4.1-2.8,6.6v1.8c0,0.3,0.3,0.6,0.6,0.6h18.1c0.3,0,0.6-0.2,0.6-0.6v-1.8c0-2.5-1-4.8-2.8-6.6
			C238,158.5,235.6,157.5,233,157.5L233,157.5C233,157.5,233,157.5,233,157.5z"/>
		<path class="st26" d="M233,164.9c0.7,0,1.2,0.5,1.2,1.2s-0.5,1.2-1.2,1.2s-1.2-0.5-1.2-1.2S232.4,164.9,233,164.9 M233,164.1
			c-1.1,0-2.1,0.9-2.1,2.1s0.9,2.1,2.1,2.1s2.1-0.9,2.1-2.1S234.2,164.1,233,164.1L233,164.1z"/>
		<path class="st26" d="M225.6,166.8h1.6c0.3,0,0.5-0.2,0.5-0.5c0-0.3-0.2-0.5-0.5-0.5h-1.6c-0.3,0-0.5,0.2-0.5,0.5
			C225.1,166.6,225.4,166.8,225.6,166.8"/>
		<path class="st26" d="M240.4,165.8h-1.6c-0.3,0-0.5,0.2-0.5,0.5c0,0.3,0.2,0.5,0.5,0.5h1.6c0.3,0,0.5-0.2,0.5-0.5
			C240.9,166.1,240.7,165.8,240.4,165.8"/>
		<path class="st26" d="M232.5,159.9v1.6c0,0.3,0.2,0.5,0.5,0.5c0.3,0,0.5-0.2,0.5-0.5v-1.6c0-0.3-0.2-0.5-0.5-0.5
			C232.7,159.4,232.5,159.7,232.5,159.9"/>
		<path class="st26" d="M227.6,162l1.1,1.1c0.2,0.2,0.5,0.2,0.7,0c0.2-0.2,0.2-0.5,0-0.7l-1.1-1.1c-0.2-0.2-0.5-0.2-0.7,0
			C227.3,161.5,227.3,161.8,227.6,162"/>
		<path class="st14" d="M233.1,166.6c-0.1,0-0.3-0.1-0.4-0.2c-0.2-0.2-0.2-0.6,0-0.8l4.8-4.6c0.2-0.2,0.5-0.2,0.8,0
			c0.2,0.2,0.2,0.6,0,0.8l-4.8,4.6C233.4,166.6,233.3,166.6,233.1,166.6z"/>
	</g>
	<linearGradient id="SVGID_3_" gradientUnits="userSpaceOnUse" x1="221.3502" y1="158.3943" x2="260.0168" y2="234.3943">
		<stop  offset="0" style="stop-color:#C7EAE9;stop-opacity:0.5"/>
		<stop  offset="0.7959" style="stop-color:#33CFB9;stop-opacity:0.6"/>
		<stop  offset="1" style="stop-color:#C7EAE9"/>
	</linearGradient>
	<path class="st28" d="M169.1,152c-1.2,0-2.1,1.1-1.8,2.2l4.8,24.6l40.8,47.3v27.7l18.9-9.4v-18.4l41.7-47.3l4.8-24.6
		c0.2-1.2-0.7-2.2-1.8-2.2H169.1z"/>
	<g>
		<line class="st29" x1="244" y1="189.3" x2="244" y2="196"/>
		<line class="st29" x1="247.3" y1="192.7" x2="240.6" y2="192.7"/>
	</g>
	<polygon class="st14" points="253.3,166.5 257,160.5 260.8,166.5 	"/>
	<g>
		<path class="st30" d="M203.4,179.8l1.7-2.4c0.4,0.4,0.9,0.7,1.5,1c0.6,0.3,1.1,0.4,1.6,0.4c0.4,0,0.7-0.1,1-0.2
			c0.3-0.2,0.4-0.4,0.4-0.8c0-0.3-0.2-0.5-0.6-0.7c-0.4-0.2-0.9-0.5-1.5-0.7c-0.6-0.2-1.2-0.5-1.7-0.8c-0.6-0.3-1.1-0.8-1.5-1.3
			c-0.4-0.6-0.6-1.2-0.6-1.9c0-1,0.3-1.8,1-2.5c0.6-0.7,1.5-1.1,2.5-1.3v-1.7h2v1.7c1.3,0.1,2.4,0.6,3.3,1.4l-1.4,2.6
			c-0.4-0.3-0.8-0.6-1.4-0.8c-0.5-0.2-1-0.3-1.5-0.3c-0.4,0-0.7,0.1-1,0.3c-0.3,0.2-0.4,0.4-0.4,0.8c0,0.3,0.2,0.5,0.6,0.8
			c0.4,0.2,0.9,0.5,1.5,0.7c0.6,0.2,1.2,0.5,1.7,0.8c0.6,0.3,1.1,0.7,1.5,1.3c0.4,0.6,0.6,1.2,0.6,2c0,1-0.3,1.9-1,2.6
			c-0.7,0.7-1.5,1.2-2.7,1.4v1.7h-2v-1.7C205.6,181.3,204.3,180.7,203.4,179.8z"/>
	</g>
	<g>
		<ellipse class="st31" cx="198.6" cy="158.5" rx="1.2" ry="1.2"/>
		<ellipse class="st19" cx="216.9" cy="166" rx="1.2" ry="1.2"/>
		<ellipse class="st32" cx="198.6" cy="182.9" rx="1.2" ry="1.2"/>
		<rect x="185.4" y="155.3" class="st27" width="1.7" height="1.6"/>
	</g>
	<ellipse class="st19" cx="234.9" cy="198.3" rx="1.2" ry="1.2"/>
	<ellipse class="st32" cx="216.2" cy="215.2" rx="1.2" ry="1.2"/>
	<rect x="202.9" y="187.5" class="st27" width="1.7" height="1.6"/>
	<g class="st33">
		<linearGradient id="SVGID_4_" gradientUnits="userSpaceOnUse" x1="225.4576" y1="180.4673" x2="120.2076" y2="340.9673">
			<stop  offset="0" style="stop-color:#004C6C;stop-opacity:0.4"/>
			<stop  offset="0.155" style="stop-color:#034E6E;stop-opacity:0.338"/>
			<stop  offset="0.2901" style="stop-color:#0E5674;stop-opacity:0.284"/>
			<stop  offset="0.4177" style="stop-color:#20627E;stop-opacity:0.2329"/>
			<stop  offset="0.5409" style="stop-color:#39748D;stop-opacity:0.1837"/>
			<stop  offset="0.6608" style="stop-color:#5A8BA0;stop-opacity:0.1357"/>
			<stop  offset="0.7782" style="stop-color:#82A7B7;stop-opacity:8.871314e-002"/>
			<stop  offset="0.8915" style="stop-color:#B0C8D1;stop-opacity:4.341507e-002"/>
			<stop  offset="1" style="stop-color:#E4ECEF;stop-opacity:0"/>
		</linearGradient>
		<path class="st34" d="M163.3,282.9c-4.1,1.2-9.9,2.9-12.8,3.8c-1.2,0.3-2.3,0.9-3.3,1.6l-24.9,17.5l1.7,6.7l32.5-5.8
			c4.5-0.8,8.4-3.2,11.2-6.8l3.8-5.1c2.1-2.8,2.1-6.6-0.1-9.3C169.4,283,166.2,282,163.3,282.9z"/>
		<linearGradient id="SVGID_5_" gradientUnits="userSpaceOnUse" x1="196.9921" y1="161.8006" x2="91.7421" y2="322.3006">
			<stop  offset="0" style="stop-color:#004C6C;stop-opacity:0.4"/>
			<stop  offset="0.155" style="stop-color:#034E6E;stop-opacity:0.338"/>
			<stop  offset="0.2901" style="stop-color:#0E5674;stop-opacity:0.284"/>
			<stop  offset="0.4177" style="stop-color:#20627E;stop-opacity:0.2329"/>
			<stop  offset="0.5409" style="stop-color:#39748D;stop-opacity:0.1837"/>
			<stop  offset="0.6608" style="stop-color:#5A8BA0;stop-opacity:0.1357"/>
			<stop  offset="0.7782" style="stop-color:#82A7B7;stop-opacity:8.871314e-002"/>
			<stop  offset="0.8915" style="stop-color:#B0C8D1;stop-opacity:4.341507e-002"/>
			<stop  offset="1" style="stop-color:#E4ECEF;stop-opacity:0"/>
		</linearGradient>
		<path class="st35" d="M208.6,238.9l-6,0.5l1.5-0.9c0.4-0.2,0.5-0.7,0.3-1.1c-0.1-0.1-0.2-0.2-0.3-0.2l-1.5,0.1l-2.4-0.4
			c-0.4-0.1-0.8,0-1.2,0.2c-0.7,0.4-2,1.2-2.9,2c-1.2,1-3.8,3.2-4.3,3.7l-3.8,0.4l-3.8-1l-22.9,5.7l-6.7-3.9c0,0-1.1-1.1,0.7-10.8
			c1.5-7.9-11.7-10.6-8-14.7c3.3-3.7,0-13.2-7.7-11.5c-4.6,1-9.3-5.8-17.5,1.2c-5.3,4.6-3.5,10.9-3.4,19.5c0.1,6.6-4.6,8.8-6.8,13
			c-1.8,1.3-11.4,8.2-11.7,8.6l-11,17.3l-10.8-6l-4.2-0.6l-2.6-1.7l-3.7,4.3l1,2.1l0.6,4.5l16.9,11.5c4.1,2.9,9.8,1.8,12.6-2.4
			l8-12.2l0.9,6.3l-2.2,6.1c-0.1,0.2-0.1,0.4-0.1,0.7v5c0,0.7,0.4,1.4,1.1,1.8l1.9,1l-0.2,1.7l11.8,3.3l19.8-2.7l3.9-1.7v-2.5
			l2.9-3.4c0.2-0.4,0.3-0.9,0.2-1.3l-0.6-3.5c0-0.2-0.1-0.4-0.2-0.6l-1.5-5.2l2.8-12.3l0.4,0.3c6.4,4.3,14.6,5,21.7,1.9l17.3-7.5
			l3.3-3.9l3.1-0.9L193,248l1.7-0.2l6.6-0.2c0.2,0,0.4,0,0.5-0.1c0.6-0.1,0.8-0.3,0.9-0.9l0-1.6l2.4-2.5l1-1.1l2.7-1.5
			c0.2-0.1,0.4-0.3,0.4-0.5C209.1,239.1,208.9,238.9,208.6,238.9z"/>
	</g>
	<path class="st36" d="M67.8,251.2l-0.9-2.1c-0.3-0.8-0.8-1.4-1.4-1.9l-1.7-1.4l-1.2-1.6c-0.3-0.3-0.7-0.4-1-0.2l0,0
		c-0.3,0.2-0.6,0.5-0.5,0.9l0.1,0.9l1.3,2.4C62.4,248.2,67.1,250,67.8,251.2z"/>
	<path class="st37" d="M55,250l-1.2-4.4l-0.6-3.4c0,0,1.2-0.6,1.9,0.2s3.4,4.7,3.4,4.7s6.1,1.1,7.9,2c1.9,0.9,2.7,4.6,2.7,4.6
		l3.5,3.3l-1.9,2.1l-8.2-3.8L55,250z"/>
	<g class="st38">
		<image style="overflow:visible;" width="175" height="79" xlink:href="DDE6D6F2.png"  transform="matrix(1 0 0 1 38 271)">
		</image>
	</g>
	<polygon class="st4" points="87.7,282.9 107.1,285.1 106.3,283.3 140.6,282.4 143.1,283.8 159.1,283.8 122.1,301 94.8,286.8 	"/>
	<linearGradient id="SVGID_6_" gradientUnits="userSpaceOnUse" x1="120.267" y1="292.5366" x2="171.036" y2="292.5366">
		<stop  offset="0" style="stop-color:#275A7D"/>
		<stop  offset="1" style="stop-color:#173E5C"/>
	</linearGradient>
	<path class="st39" d="M169.4,280.5L169.4,280.5c-1.9-2.4-5.2-3.4-8.1-2.5c-4.1,1.2-9.9,2.9-12.8,3.8c-1.2,0.3-2.3,0.9-3.3,1.6
		l-24.9,17.5l1.7,6.7l32.5-5.8c4.5-0.8,8.4-3.2,11.2-6.8l3.8-5.1C171.6,287,171.5,283.2,169.4,280.5z"/>
	<path class="st21" d="M146.5,237.8c0,0-4.2,2-2.3-7.7c1.5-7.9-11.7-10.6-8-14.7c3.3-3.7,0-13.2-7.7-11.5c-4.6,1-9.3-5.8-17.5,1.2
		c-5.3,4.6-3.5,10.9-3.4,19.5c0.1,8.6-8.1,9.7-7.9,17.6s0.1,8.7,1.1,12.3c1,3.6-3.3,4.2-2.6,7.6c0.6,3.4,5.1,4.5,5.1,4.5l8.5,7
		L146.5,237.8z"/>
	<path class="st40" d="M145.7,235.2l-17.6-3.6l-2.8,0c-5.8,0-9.8,1.7-15.2,3.8c0,0-11.7,8.4-12,8.8l-11,17.3l-10.8-6l-4.2-0.6
		l-2.6-1.7l-3.7,4.3l1,2.1l0.6,4.5l16.9,11.5c4.1,2.9,9.8,1.8,12.6-2.4l8-12.2l0.9,6.3l-2.3,6.4v6.6l3,1.6l-0.2,1.7l11.8,3.3
		l19.8-2.7l3.7-1.2l0.2-3l3.3-4l-0.8-4.5l-1.7-5.5l4.9-21.7L145.7,235.2z"/>
	<linearGradient id="SVGID_7_" gradientUnits="userSpaceOnUse" x1="115.0936" y1="264.7307" x2="129.5742" y2="290.4008">
		<stop  offset="0.2755" style="stop-color:#3DA5D5;stop-opacity:0.2"/>
		<stop  offset="0.9608" style="stop-color:#3DA5D5;stop-opacity:0.9567"/>
		<stop  offset="1" style="stop-color:#3DA5D5"/>
	</linearGradient>
	<path class="st41" d="M145.7,235.2l-17.6-3.6H126c-5.8,0-10.5,1.7-15.9,3.8c0,0-11.7,8.4-12,8.8l-11,17.3l-10.8-6l-4.2-0.6
		l-2.6-1.7l-3.7,4.3l1,2.1l0.6,4.5l16.9,11.5c4.1,2.9,9.8,1.8,12.6-2.4l8-12.2l0.9,6.3l-2.2,6.1c-0.1,0.2-0.1,0.4-0.1,0.7v5
		c0,0.7,0.4,1.4,1.1,1.8l1.9,1l-0.2,1.7l11.8,3.3l19.8-2.7l3.9-1.7v-2.5l2.9-3.4c0.2-0.4,0.3-0.9,0.2-1.3l-0.6-3.5
		c0-0.2-0.1-0.4-0.2-0.6l-1.5-5.2l4.9-21.7L145.7,235.2z"/>
	<g>
		<path class="st37" d="M117,225.3c0,0,0.8,3.2,2.7,10.5c0,0,3.7,1.5,6.3-0.5c2.6-2.1,2.1-5.6,2.1-5.6L117,225.3z"/>
		<path class="st36" d="M127.1,234.1c0,0-2.5,2.4-6.4-0.9c-0.9-0.7-1.6-1.4-2.2-2c-1-4-1.5-5.8-1.5-5.8l11,4.4
			C128,229.8,128.4,232.1,127.1,234.1z"/>
		<path class="st37" d="M133.5,216.5c0,0,0.7,7.4-3.2,12.4c-3.4,4.4-9.5,2.8-11.8-0.9c-2.3-3.7-2.9-6.3-2.9-6.3s-4.3-1.4-3.2-5
			c0.8-2.6,4.1,1.3,4.1,1.3s4.6,0.1,5.7-4.9C122.9,210.2,127.3,218.7,133.5,216.5z"/>
		<path class="st5" d="M127.6,226.6l1-0.1c0.2,0,0.3,0.2,0.2,0.3c-0.4,0.6-1.3,1.8-2.8,2l-0.9,0c-1.5-0.2-2-1.5-2.1-2.1
			c0-0.1,0.1-0.3,0.2-0.2l1.1,0.2C125.4,226.8,126.5,226.8,127.6,226.6z"/>
		<path class="st36" d="M126,219.1l2.4,4.1c0.2,0.4,0,1-0.5,1.1l-1.8,0.1c-0.5,0-0.9-0.4-0.8-0.9L126,219.1z"/>
		
			<ellipse transform="matrix(0.9443 -0.3292 0.3292 0.9443 -66.0784 52.5812)" class="st42" cx="122.3" cy="221.4" rx="0.7" ry="0.7"/>
		
			<ellipse transform="matrix(0.9443 -0.3292 0.3292 0.9443 -65.3455 55.4618)" class="st42" cx="131.1" cy="220.7" rx="0.7" ry="0.7"/>
		<path class="st36" d="M120.7,219.3c0.1,0,0.2,0,0.2-0.1c0.2-0.4,0.5-0.7,0.8-0.8c0.7-0.2,1.6,0.2,1.6,0.2c0.1,0.1,0.2,0,0.3-0.1
			c0.1-0.1,0-0.2-0.1-0.3c0,0-1-0.6-1.9-0.2c-0.5,0.2-0.8,0.5-1.1,1C120.5,219.1,120.5,219.3,120.7,219.3
			C120.6,219.3,120.7,219.3,120.7,219.3z"/>
		<path class="st36" d="M113.6,218c0,0.1,0.1,0.1,0.2,0.1c0.7-0.1,1.2,1,1.2,1c0,0.1,0.1,0.1,0.2,0.1c0.1,0,0.1-0.1,0.1-0.2
			c0-0.1-0.6-1.4-1.6-1.2C113.6,217.8,113.5,217.9,113.6,218C113.6,218,113.6,218,113.6,218z"/>
	</g>
	
		<linearGradient id="SVGID_8_" gradientUnits="userSpaceOnUse" x1="1473.9794" y1="8.4839" x2="1483.6958" y2="8.4839" gradientTransform="matrix(-0.9435 0.3313 0.3313 0.9435 1515.7598 -258.7821)">
		<stop  offset="0" style="stop-color:#3DA5D5;stop-opacity:0.2"/>
		<stop  offset="1" style="stop-color:#3DA5D5"/>
	</linearGradient>
	<path class="st43" d="M124.3,240.8c2.1-0.3,3.7-1.3,3.8-1.4c0.2-0.1,0.3-0.4,0.1-0.7c-0.1-0.2-0.4-0.3-0.7-0.1c0,0-4.6,2.8-8.7,0.2
		c-0.2-0.1-0.5-0.1-0.7,0.1c-0.1,0.2-0.1,0.5,0.1,0.7C120.4,240.9,122.6,241.1,124.3,240.8z"/>
	<g>
		<path class="st44" d="M121.2,307.2c0,0,1.2,1-0.4,2.2c-1.6,1.2-5.4,1.4-6.4,2.1c-1.1,0.7-3.8,2.1-4.6,2.5c-1.9,1-4.8,1.6-6.4,0.8
			c-1.6-0.7-4.2-3.3-3.5-5.8c0.8-2.4,1.3-4.1,2.9-4.9c1.6-0.8,8.2-0.9,9.4-1.5c1.2-0.6,4.6-1.3,5.7-0.9c1.2,0.4,0.3,1.9,0.5,3.2
			C119.4,309.6,121.2,307.2,121.2,307.2z"/>
		<path class="st40" d="M120.8,302.9c0,0,3,3.7,0.4,4.8c-2.6,1.1-7.1,1.5-8.4,1.9c-1.3,0.4-7.7,3.7-7.7,3.7l0-7.5c0,0,2.4,1,5.3,0.5
			s5.5-1.5,6.5-2.1C118,303.5,119.2,300.6,120.8,302.9z"/>
		<path class="st10" d="M109.8,313.9c0,0-4,2-6,0.7c-2-1.3-5.2-6.7,0.2-10.4c0,0,1.3-0.4,3.4-0.5c2.1-0.1,3.3-0.8,3.3-0.8
			s-6.2,0.2-7.9,0.5c-1.7,0.3-5.2,2.7-4.8,5.2c0.4,2.4,0.9,4.9,3.4,6S107.8,315.3,109.8,313.9z"/>
		<path class="st1" d="M104,304.2c0,0,2.6,2.9,1.9,6.1c-0.7,3.3-1.7,4.4-1.7,4.4s-2.1-0.6-3.2-3.7C99.5,307.1,102.2,305.1,104,304.2
			z"/>
		<path class="st45" d="M107.4,305.7c0,0,2.7,2.2,1.3,6.6"/>
		<path class="st45" d="M109.5,305.2c0,0,2.7,2.2,1.3,6.6"/>
		<path class="st45" d="M111.6,304.3c0,0,2.7,2.2,1.3,6.6"/>
		<path class="st44" d="M117.8,304.5l1.3,2.9l2.3-1c0,0-1-2.7-1.6-3.1S117.8,304.5,117.8,304.5z"/>
	</g>
	<linearGradient id="SVGID_9_" gradientUnits="userSpaceOnUse" x1="79.5151" y1="297.833" x2="130.2841" y2="297.833">
		<stop  offset="0" style="stop-color:#275A7D"/>
		<stop  offset="1" style="stop-color:#173E5C"/>
	</linearGradient>
	<path class="st46" d="M81.2,285.7L81.2,285.7c1.9-2.4,5.2-3.4,8.1-2.5c4.1,1.2,9.9,2.9,12.8,3.8c1.2,0.3,2.3,0.9,3.3,1.6l24.9,17.5
		l-1.7,6.7L96.1,307c-4.5-0.8-8.4-3.2-11.2-6.8l-3.8-5.1C79,292.3,79,288.5,81.2,285.7z"/>
	<g>
		<path class="st44" d="M129.9,310.9c0,0-0.8,1.3,1.1,1.9c1.9,0.6,5.5-0.5,6.8-0.2s4.3,0.7,5.2,0.8c2.1,0.4,5-0.1,6.3-1.3
			c1.3-1.2,2.9-4.6,1.4-6.6s-2.6-3.5-4.3-3.7c-1.8-0.2-8,1.8-9.3,1.7c-1.3-0.1-4.8,0.3-5.7,1c-1,0.7,0.4,1.9,0.5,3.2
			C132.4,312.6,129.9,310.9,129.9,310.9z"/>
		<path class="st40" d="M128.9,306.8c0,0-1.6,4.4,1.2,4.6c2.8,0.2,7.2-0.9,8.5-1c1.3-0.1,8.5,0.9,8.5,0.9l-2.5-7.1
			c0,0-1.9,1.7-4.9,2.2s-5.6,0.4-6.9,0.2C131.7,306.4,129.6,304.1,128.9,306.8z"/>
		<path class="st10" d="M142.9,313.5c0,0,4.4,0.5,5.9-1.4c1.4-1.9,2.7-8.1-3.6-9.8c0,0-1.4,0-3.4,0.7c-2,0.6-3.4,0.4-3.4,0.4
			s5.9-1.9,7.6-2.1c1.7-0.3,5.8,0.9,6.2,3.3c0.5,2.4,0.8,4.9-1.2,6.8C148.9,313.3,145.3,314.1,142.9,313.5z"/>
		<path class="st1" d="M145.1,302.4c0,0-1.5,3.6,0.3,6.4c1.8,2.9,3.1,3.6,3.1,3.6s1.7-1.3,1.8-4.6
			C150.4,303.6,147.1,302.6,145.1,302.4z"/>
		<path class="st45" d="M142.4,304.9c0,0-1.8,2.9,0.9,6.7"/>
		<path class="st45" d="M140.3,305.2c0,0-1.8,2.9,0.9,6.7"/>
		<path class="st45" d="M138,305c0,0-1.8,2.9,0.9,6.7"/>
		<path class="st44" d="M132.2,307.3l-0.2,3.2l-2.5-0.2c0,0,0-2.9,0.5-3.5C130.4,306.3,132.2,307.3,132.2,307.3z"/>
	</g>
	<path class="st40" d="M185.9,238.2l3.9-0.4l1.3,5.7l-3.1,0.9l-3.3,3.9l-17.3,7.5c-7.1,3.1-15.2,2.3-21.7-1.9l-18.6-12.4l8.8-5.9
		c3-2,7-2.2,10.1-0.3l13,7.7l22.9-5.7L185.9,238.2z"/>
	<path class="st36" d="M56.9,245l0.6-2.1l0.1,0.1c0.6,0.3,0.9,0.9,1,1.5l0.1,1.3l2.2,1.9l-2.6-0.5L56.9,245z"/>
	<path class="st36" d="M57.9,246.5l1.3,2c0,0,1,1.8,2.5,1.4c4.3-1,6.4,1.3,6.4,1.3l-1.4-2.5L57.9,246.5z"/>
	<path class="st36" d="M55,242.4c0,0,0.6,1.7,0.7,3c0,0,0.7,1.5,0.8,2.5c0,0,3.1,2,4.9,1.9c1.8-0.1-4-4.6-4-4.6s-0.2-2-1.3-2.4
		L55,242.4z"/>
	<path class="st36" d="M197.6,234.7l9-0.8c0.3,0,0.6,0.2,0.5,0.5l0,0c0,0.2-0.1,0.4-0.4,0.5l-2.7,1.5c-0.5,0.2-0.9,0.6-1,1.1
		l-2.4,2.5c-0.3,1.4,0,2.5-1.4,2.6l-6.6,0.2l-6,0.9l2.9-5.7c0,0,3-2.6,4.4-3.7c0.9-0.8,2.2-1.5,2.9-2c0.4-0.2,0.8-0.3,1.2-0.2
		l2.4,0.4l1.5-0.1c0.1,0,0.3,0,0.3,0.2l0,0c0.2,0.4,0,0.9-0.3,1.1l-1.6,1L197.6,234.7z"/>
	<path class="st37" d="M203.3,236.4l-7,0.4c-0.5,0-0.8,0.5-0.7,0.9l0,0c0.1,0.4,0.4,0.7,0.9,0.7l2.7,0.1l-3.3,0.5l0,0
		c0.1,0.7,0.7,1.3,1.4,1.4l1.6,0.2l-2.8,0.3l0.5,0.8l2.8,0.9c1-0.2,1.3-0.2,1.4-1l0-1.6l2.4-2.5l1-1.1L203.3,236.4z"/>
	<linearGradient id="SVGID_10_" gradientUnits="userSpaceOnUse" x1="127.1554" y1="245.7712" x2="191.1151" y2="245.7712">
		<stop  offset="0.2755" style="stop-color:#3DA5D5;stop-opacity:0.2"/>
		<stop  offset="0.9608" style="stop-color:#3DA5D5;stop-opacity:0.9567"/>
		<stop  offset="1" style="stop-color:#3DA5D5"/>
	</linearGradient>
	<path class="st47" d="M185.9,238.2l3.9-0.4l1.3,5.7l-3.1,0.9l-3.3,3.9l-17.3,7.5c-7.1,3.1-15.2,2.3-21.7-1.9l-18.6-12.4l8.8-5.9
		c3-2,7-2.2,10.1-0.3l13,7.7l22.9-5.7L185.9,238.2z"/>
	<g>
		<polygon class="st10" points="88,72.2 78.7,72.2 78.6,70.5 76.9,70.2 76.9,61.2 88,61.2 		"/>
		<path class="st4" d="M89.4,74.9h-1.8c-0.4,0-0.6-0.3-0.6-0.6c0-0.4,0.3-0.6,0.6-0.6h1.7V72c0-0.4,0.3-0.6,0.6-0.6s0.6,0.3,0.6,0.6
			v1.7C90.5,74.3,90,74.9,89.4,74.9z M84.6,74.9H81c-0.4,0-0.6-0.3-0.6-0.6c0-0.4,0.3-0.6,0.6-0.6h3.6c0.4,0,0.6,0.3,0.6,0.6
			C85.2,74.6,84.9,74.9,84.6,74.9z M89.9,69.4c-0.4,0-0.6-0.3-0.6-0.6v-4.1c0-0.4,0.3-0.6,0.6-0.6s0.6,0.3,0.6,0.6v4.1
			C90.5,69.2,90.2,69.4,89.9,69.4z M75,68.7c-0.4,0-0.6-0.3-0.6-0.6v-3.6c0-0.4,0.3-0.6,0.6-0.6c0.3,0,0.6,0.3,0.6,0.6V68
			C75.6,68.4,75.3,68.7,75,68.7z M89.9,62c-0.4,0-0.6-0.3-0.6-0.6v-1.5h-1.2c-0.4,0-0.6-0.3-0.6-0.6c0-0.4,0.3-0.6,0.6-0.6h1.3
			c0.7,0,1.1,0.5,1.1,1.1v1.6C90.5,61.7,90.2,62,89.9,62z M89.4,59.9L89.4,59.9L89.4,59.9z M75,62c-0.4,0-0.6-0.3-0.6-0.6v-1.6
			c0-0.7,0.5-1.1,1.1-1.1H77c0.4,0,0.6,0.3,0.6,0.6c0,0.4-0.3,0.6-0.6,0.6h-1.3v1.5C75.6,61.7,75.3,62,75,62z M84.5,59.9h-3.9
			c-0.4,0-0.6-0.3-0.6-0.6c0-0.4,0.3-0.6,0.6-0.6h3.9c0.4,0,0.6,0.3,0.6,0.6C85.1,59.6,84.8,59.9,84.5,59.9z"/>
		<path class="st4" d="M78.6,71.1c-0.2,0-0.3-0.1-0.5-0.2c-0.3-0.3-0.3-0.7,0-0.9l6.3-6.4c0.3-0.3,0.7-0.3,0.9,0
			c0.3,0.3,0.3,0.7,0,0.9L79,70.9C78.8,71,78.7,71.1,78.6,71.1z"/>
		<path class="st4" d="M85.5,67.8c-0.4,0-0.7-0.3-0.7-0.7V64h-3.1c-0.4,0-0.7-0.3-0.7-0.7c0-0.4,0.3-0.7,0.7-0.7h3.7
			c0.4,0,0.7,0.3,0.7,0.7v3.7C86.1,67.5,85.9,67.8,85.5,67.8z"/>
		<path class="st4" d="M78.7,78.3h-7.5c-0.4,0-0.7-0.3-0.7-0.7v-7.5c0-0.4,0.3-0.7,0.7-0.7h7.5c0.4,0,0.7,0.3,0.7,0.7v7.5
			C79.3,78,79,78.3,78.7,78.3z M71.8,77h6.3v-6.3h-6.3V77z"/>
	</g>
</g>
</svg>
