<svg id="351e9a83-c8df-4855-b405-c1e9ad5f7160" data-name="Layer 1" xmlns="http://www.w3.org/2000/svg" viewBox="0 0 748.5 121.21"><defs><style>.\33 28dc029-af5e-449d-89c5-bf64bb43ac35{fill:#3a3a3a}.d0be0abc-e5b8-4d36-a9c2-493e825da66a{fill:#3e77f7}</style></defs><title>gotransverse_logo</title><path class="328dc029-af5e-449d-89c5-bf64bb43ac35" d="M213.8 76.94a32.74 32.74 0 0 1-2 11.93 22.42 22.42 0 0 1-5.54 8.41 22.8 22.8 0 0 1-8.69 5 37 37 0 0 1-11.31 1.64 46 46 0 0 1-12.7-1.92 34.83 34.83 0 0 1-11.32-5.45l7.7-11a22.76 22.76 0 0 0 7.47 4.47 23.81 23.81 0 0 0 8 1.45q6.76 0 10-3.57a13.56 13.56 0 0 0 3.24-9.48v-2.79h-.28a15.2 15.2 0 0 1-5.82 4.51 19.84 19.84 0 0 1-8.36 1.69 22.16 22.16 0 0 1-9.49-1.93 20.8 20.8 0 0 1-7-5.21 22.54 22.54 0 0 1-4.33-7.69 28.25 28.25 0 0 1-1.5-9.25 28.67 28.67 0 0 1 1.5-9.29 23.49 23.49 0 0 1 4.37-7.8 21.44 21.44 0 0 1 7-5.4 21.11 21.11 0 0 1 9.4-2 20.83 20.83 0 0 1 8.45 1.78 14.66 14.66 0 0 1 6.48 5.55h.19v-6h14.54zm-14.65-19.25a12.72 12.72 0 0 0-.8-4.51 11.38 11.38 0 0 0-2.3-3.8 10.86 10.86 0 0 0-3.57-2.59 11.28 11.28 0 0 0-4.69-.93 11 11 0 0 0-4.65.93 10.41 10.41 0 0 0-3.43 2.54 11.18 11.18 0 0 0-2.16 3.76 13.91 13.91 0 0 0-.75 4.6 13.64 13.64 0 0 0 .75 4.51 11.57 11.57 0 0 0 2.16 3.8 10.51 10.51 0 0 0 3.43 2.63 10.4 10.4 0 0 0 4.65 1 11 11 0 0 0 4.74-1 11.22 11.22 0 0 0 3.57-2.58 11.38 11.38 0 0 0 2.25-3.76 13 13 0 0 0 .8-4.6zm76.45.09a25.25 25.25 0 0 1-2.06 10.38 23.3 23.3 0 0 1-5.64 7.89 25.81 25.81 0 0 1-8.26 5 29.12 29.12 0 0 1-20 0 25.12 25.12 0 0 1-8.27-5 23.59 23.59 0 0 1-5.59-7.89 25.25 25.25 0 0 1-2.06-10.38 24.94 24.94 0 0 1 2.06-10.33 23.28 23.28 0 0 1 5.59-7.79 24.31 24.31 0 0 1 8.27-4.89 30.58 30.58 0 0 1 20 0 25 25 0 0 1 8.26 4.89 23 23 0 0 1 5.64 7.79 24.94 24.94 0 0 1 2.06 10.33zm-14.83 0a13.37 13.37 0 0 0-.76-4.41 11.57 11.57 0 0 0-2.16-3.8 11 11 0 0 0-3.47-2.68 11.65 11.65 0 0 0-9.58 0 10.42 10.42 0 0 0-3.43 2.68 11.37 11.37 0 0 0-2.07 3.8 14.27 14.27 0 0 0 0 8.83 12.12 12.12 0 0 0 2.12 3.9 10.71 10.71 0 0 0 16.53 0 12.09 12.09 0 0 0 2.11-3.9 14.15 14.15 0 0 0 .71-4.42z"/><path class="d0be0abc-e5b8-4d36-a9c2-493e825da66a" d="M302.09 46v18a8 8 0 0 0 1.27 4.95q1.26 1.65 4.55 1.65a15.88 15.88 0 0 0 2.4-.19 8.44 8.44 0 0 0 2.11-.56l.19 11.27a26.06 26.06 0 0 1-4 1 28.81 28.81 0 0 1-4.88.42 23.11 23.11 0 0 1-7.89-1.17 12.3 12.3 0 0 1-5.12-3.39 13.2 13.2 0 0 1-2.77-5.27 25.39 25.39 0 0 1-.85-6.83V46h-7.51V34.58H287v-12.3h15.12v12.3h11V46zm48.56 1.26a12.5 12.5 0 0 0-2-.37c-.66-.06-1.3-.1-1.93-.1a11 11 0 0 0-5.21 1.13 10.44 10.44 0 0 0-3.38 2.72 10 10 0 0 0-1.83 3.46 11.48 11.48 0 0 0-.57 3.28v24h-15.4V34.64h14.84v6.76h.19a15.28 15.28 0 0 1 5.07-5.86 13.09 13.09 0 0 1 7.57-2.27q.93 0 1.83.09a7.35 7.35 0 0 1 1.46.29zm4.69-6.26a27.13 27.13 0 0 1 9.66-5.95 33.12 33.12 0 0 1 11.23-2 30 30 0 0 1 10 1.46 14.87 14.87 0 0 1 6.62 4.51 19.16 19.16 0 0 1 3.71 7.7 45.66 45.66 0 0 1 1.17 11v23.64h-14.11v-5h-.29a11.64 11.64 0 0 1-5.4 4.51 19.24 19.24 0 0 1-7.84 1.59 24 24 0 0 1-5.82-.75 17 17 0 0 1-5.5-2.44 13.09 13.09 0 0 1-4.08-4.51 13.85 13.85 0 0 1-1.6-7 11.79 11.79 0 0 1 2.77-8.17 18.32 18.32 0 0 1 7.14-4.72 37.43 37.43 0 0 1 9.72-2.25 98.45 98.45 0 0 1 10.43-.57v-.75a5.75 5.75 0 0 0-2.45-5.12 10.56 10.56 0 0 0-6-1.64 15 15 0 0 0-6.35 1.46 20.45 20.45 0 0 0-5.21 3.38zm28.28 20h-2c-1.69 0-3.39.08-5.12.23a21.83 21.83 0 0 0-4.6.89 8.39 8.39 0 0 0-3.31 1.88 4.41 4.41 0 0 0-1.32 3.33 4 4 0 0 0 .61 2.26 4.82 4.82 0 0 0 1.55 1.5 6.62 6.62 0 0 0 2.16.8 12.21 12.21 0 0 0 2.35.23q4.69 0 7.19-2.58a9.69 9.69 0 0 0 2.49-7zm56.25 20.36V55.81a21.67 21.67 0 0 0-.32-3.76 10.48 10.48 0 0 0-1.08-3.14 5.64 5.64 0 0 0-2.12-2.16 6.72 6.72 0 0 0-3.43-.8 7.81 7.81 0 0 0-3.61.8 7.22 7.22 0 0 0-2.58 2.2 9.88 9.88 0 0 0-1.55 3.25 13.67 13.67 0 0 0-.52 3.8v25.36h-15.5V34.58h14.94v6.49h.18a15.38 15.38 0 0 1 2.21-3 13.34 13.34 0 0 1 3.19-2.49 19.71 19.71 0 0 1 4-1.69 15.64 15.64 0 0 1 4.6-.66 17.24 17.24 0 0 1 8 1.69 15.3 15.3 0 0 1 5.31 4.37 17.31 17.31 0 0 1 2.91 6.15 28.07 28.07 0 0 1 .89 7v28.92zm54.67-32.97a17.21 17.21 0 0 0-4.42-3 12.09 12.09 0 0 0-5.35-1.23 9.45 9.45 0 0 0-4 .85 3 3 0 0 0-1.77 2.91 2.89 2.89 0 0 0 2 2.82 44.39 44.39 0 0 0 6.52 1.88 35.21 35.21 0 0 1 5.31 1.59 18.81 18.81 0 0 1 4.84 2.73 13.07 13.07 0 0 1 3.47 4.13 12.08 12.08 0 0 1 1.32 5.82 14 14 0 0 1-6.46 12.4 20 20 0 0 1-6.44 2.71 31.08 31.08 0 0 1-7.14.84A35.26 35.26 0 0 1 471.2 81a23.49 23.49 0 0 1-9.16-5.4l8.64-9.11a17.54 17.54 0 0 0 5.07 3.76 14.16 14.16 0 0 0 6.39 1.5 8.46 8.46 0 0 0 3.71-.89 3.22 3.22 0 0 0 1.83-3.15 3.37 3.37 0 0 0-2.25-3.19 40.35 40.35 0 0 0-7.05-2.16 36.46 36.46 0 0 1-4.88-1.51 15.38 15.38 0 0 1-4.37-2.53 12.62 12.62 0 0 1-3.14-4 12 12 0 0 1-1.23-5.63 13.67 13.67 0 0 1 1.79-7.19 15.21 15.21 0 0 1 4.6-4.84A20.63 20.63 0 0 1 477.4 34a27.1 27.1 0 0 1 6.81-.89 32.76 32.76 0 0 1 10.28 1.65 22.18 22.18 0 0 1 8.5 4.93zm45.74 32.97h-16.63l-18.41-46.78h17l9.86 30.34h.29l9.86-30.34h16.43zM611 58.53v1.88a17 17 0 0 1-.09 1.79H577a8.24 8.24 0 0 0 1.17 3.57 10.28 10.28 0 0 0 2.54 2.77 12.45 12.45 0 0 0 7.47 2.46 13 13 0 0 0 6.2-1.37 12.22 12.22 0 0 0 4.13-3.52l10.7 6.76a21.58 21.58 0 0 1-8.68 7.38A28.78 28.78 0 0 1 588 82.86a30.07 30.07 0 0 1-10-1.64 24.24 24.24 0 0 1-8.22-4.79 22.34 22.34 0 0 1-5.54-7.75 26.08 26.08 0 0 1-2-10.52 26.24 26.24 0 0 1 2-10.38 23.44 23.44 0 0 1 5.35-7.89 23.79 23.79 0 0 1 8-5 27.32 27.32 0 0 1 10-1.79 25.15 25.15 0 0 1 9.41 1.72 20.63 20.63 0 0 1 7.42 5 23.3 23.3 0 0 1 4.84 8A30.67 30.67 0 0 1 611 58.53zm-14.18-5.91a9.29 9.29 0 0 0-2.3-6.3q-2.31-2.62-6.91-2.63a11.66 11.66 0 0 0-4.13.71 10.83 10.83 0 0 0-3.29 1.92 9.48 9.48 0 0 0-2.25 2.87 8.43 8.43 0 0 0-.94 3.43zm54.1-5.36a12.7 12.7 0 0 0-2-.37c-.66-.06-1.3-.1-1.93-.1a11 11 0 0 0-5.21 1.13 10.44 10.44 0 0 0-3.38 2.72 10 10 0 0 0-1.83 3.46 11.48 11.48 0 0 0-.57 3.28v24h-15.4V34.64h14.84v6.76h.19a15.19 15.19 0 0 1 5.07-5.86 13.09 13.09 0 0 1 7.61-2.27q.93 0 1.83.09a7.09 7.09 0 0 1 1.45.29zm34.37 1.13a17 17 0 0 0-4.41-3 12.13 12.13 0 0 0-5.36-1.23 9.45 9.45 0 0 0-4 .85 3 3 0 0 0-1.83 2.91 2.89 2.89 0 0 0 2 2.82 44.23 44.23 0 0 0 6.53 1.88 35.45 35.45 0 0 1 5.3 1.59 18.64 18.64 0 0 1 4.84 2.73 13.1 13.1 0 0 1 3.48 4.13 12.2 12.2 0 0 1 1.31 5.82 14 14 0 0 1-6.43 12.4 20.07 20.07 0 0 1-6.41 2.71 31.08 31.08 0 0 1-7.14.84A35.26 35.26 0 0 1 662 81a23.63 23.63 0 0 1-9.16-5.4l8.64-9.11a17.46 17.46 0 0 0 5.08 3.76 14.09 14.09 0 0 0 6.38 1.5 8.46 8.46 0 0 0 3.71-.89 3.22 3.22 0 0 0 1.83-3.15 3.37 3.37 0 0 0-2.25-3.19 40.18 40.18 0 0 0-7-2.16 36.59 36.59 0 0 1-4.89-1.51 15.52 15.52 0 0 1-4.37-2.53 12.62 12.62 0 0 1-3.14-4 12 12 0 0 1-1.22-5.63 13.67 13.67 0 0 1 1.78-7.19 15.32 15.32 0 0 1 4.6-4.84 20.63 20.63 0 0 1 6.16-2.66 27.22 27.22 0 0 1 6.81-.89 32.72 32.72 0 0 1 10.28 1.65 22.11 22.11 0 0 1 8.5 4.93zm63.21 10.14v1.88a17 17 0 0 1-.09 1.79H714.5a8.24 8.24 0 0 0 1.17 3.57 10.28 10.28 0 0 0 2.54 2.77 12.51 12.51 0 0 0 7.47 2.46 13 13 0 0 0 6.2-1.37 12.22 12.22 0 0 0 4.12-3.49l10.71 6.76a21.68 21.68 0 0 1-8.71 7.38 28.78 28.78 0 0 1-12.54 2.58 30.07 30.07 0 0 1-10-1.64 24.1 24.1 0 0 1-8.21-4.79 22.24 22.24 0 0 1-5.55-7.75 26.08 26.08 0 0 1-2-10.52 26.24 26.24 0 0 1 2-10.38 23.44 23.44 0 0 1 5.35-7.89 23.89 23.89 0 0 1 8-5 27.32 27.32 0 0 1 10-1.79 25.24 25.24 0 0 1 9.49 1.74 20.8 20.8 0 0 1 7.42 5 23.44 23.44 0 0 1 4.83 8 30.67 30.67 0 0 1 1.71 10.69zm-14.18-5.91a9.29 9.29 0 0 0-2.3-6.3q-2.31-2.62-6.91-2.63a11.66 11.66 0 0 0-4.13.71 10.83 10.83 0 0 0-3.29 1.92 9.48 9.48 0 0 0-2.25 2.87 8.43 8.43 0 0 0-.94 3.43zM81.39 31.5a30.88 30.88 0 0 0-24.78 56.57"/><path class="328dc029-af5e-449d-89c5-bf64bb43ac35" d="M56.61 88.07A30.88 30.88 0 0 0 81.39 31.5m27.16-10.44A55.91 55.91 0 0 0 13.3 55.73a6.14 6.14 0 1 0 6.14.25A49.78 49.78 0 0 1 104.2 25.4a3.07 3.07 0 0 0 4.35-4.34z"/><path class="d0be0abc-e5b8-4d36-a9c2-493e825da66a" d="M128 60.6a6.15 6.15 0 1 0-9.48 5.15A49.78 49.78 0 0 1 33.8 95.81a3.07 3.07 0 0 0-4.35 4.34A55.92 55.92 0 0 0 124.66 66a6.11 6.11 0 0 0 3.34-5.4z"/></svg>