<svg xmlns="http://www.w3.org/2000/svg" viewBox="0 0 738.49 111.87"><defs><style>.cls-1{fill:#fff;}</style></defs><title>gotransverse</title><g id="Layer_2" data-name="Layer 2"><g id="Layer_1-2" data-name="Layer 1"><path class="cls-1" d="M203.79,72.27a32.78,32.78,0,0,1-2,11.93,22.49,22.49,0,0,1-5.54,8.41,22.81,22.81,0,0,1-8.69,5,37,37,0,0,1-11.31,1.64,45.92,45.92,0,0,1-12.7-1.92,34.68,34.68,0,0,1-11.32-5.45l7.7-11a22.56,22.56,0,0,0,7.47,4.47,23.73,23.73,0,0,0,8,1.45q6.75,0,10-3.57a13.56,13.56,0,0,0,3.24-9.48V71h-.28a15.14,15.14,0,0,1-5.82,4.51,19.89,19.89,0,0,1-8.36,1.69,22,22,0,0,1-9.49-1.93,20.77,20.77,0,0,1-7-5.21,22.35,22.35,0,0,1-4.33-7.69,29.39,29.39,0,0,1,0-18.54,23.39,23.39,0,0,1,4.37-7.8,21.51,21.51,0,0,1,7-5.4,21.18,21.18,0,0,1,9.4-2,20.83,20.83,0,0,1,8.45,1.78,14.69,14.69,0,0,1,6.48,5.55h.19v-6h14.54ZM189.14,53a12.84,12.84,0,0,0-.8-4.51,11.49,11.49,0,0,0-2.3-3.8,10.88,10.88,0,0,0-3.57-2.59,11.29,11.29,0,0,0-4.69-.93,11.08,11.08,0,0,0-4.65.93,10.37,10.37,0,0,0-3.43,2.54,11.21,11.21,0,0,0-2.16,3.76,13.86,13.86,0,0,0-.75,4.6,13.55,13.55,0,0,0,.75,4.51,11.49,11.49,0,0,0,2.16,3.8A10.35,10.35,0,0,0,177.78,65a11.15,11.15,0,0,0,8.31-3.58,11.41,11.41,0,0,0,2.25-3.76A13.1,13.1,0,0,0,189.14,53Zm76.45.09a25.32,25.32,0,0,1-2.06,10.38,23.31,23.31,0,0,1-5.64,7.89,25.89,25.89,0,0,1-8.26,5,29.13,29.13,0,0,1-20,0,24.83,24.83,0,0,1-8.27-5,23.5,23.5,0,0,1-5.59-7.89,25.16,25.16,0,0,1-2.06-10.38,24.81,24.81,0,0,1,2.06-10.33A23.21,23.21,0,0,1,221.36,35a24.39,24.39,0,0,1,8.27-4.89,30.6,30.6,0,0,1,20,0A25,25,0,0,1,257.89,35a23,23,0,0,1,5.64,7.79A25.13,25.13,0,0,1,265.59,53.11Zm-14.83,0A13.54,13.54,0,0,0,250,48.7a11.67,11.67,0,0,0-2.16-3.8,11,11,0,0,0-3.47-2.68,11.68,11.68,0,0,0-9.58,0,10.43,10.43,0,0,0-3.43,2.68,11.26,11.26,0,0,0-2.07,3.8,14.18,14.18,0,0,0,0,8.83,12.13,12.13,0,0,0,2.12,3.9,10.7,10.7,0,0,0,15.07,1.46,11.19,11.19,0,0,0,1.46-1.46,12.11,12.11,0,0,0,2.11-3.9,14.1,14.1,0,0,0,.71-4.42Z"/><path class="cls-1" d="M292.08,41.33v18a7.93,7.93,0,0,0,1.27,5c.84,1.1,2.35,1.65,4.55,1.65a14.93,14.93,0,0,0,2.4-.19,8.23,8.23,0,0,0,2.11-.56l.19,11.27a26.29,26.29,0,0,1-4,1,28.54,28.54,0,0,1-4.88.42,23,23,0,0,1-7.89-1.17,12.22,12.22,0,0,1-5.12-3.39A13.06,13.06,0,0,1,277.94,68a25.38,25.38,0,0,1-.85-6.83V41.33h-7.51V29.91H277V17.61h15.12v12.3h11V41.33Zm48.56,1.26a12.56,12.56,0,0,0-2-.37c-.66-.06-1.3-.1-1.93-.1a11,11,0,0,0-5.21,1.13A10.39,10.39,0,0,0,328.12,46a9.94,9.94,0,0,0-1.83,3.46,11.47,11.47,0,0,0-.57,3.28v24h-15.4V30h14.84v6.76h.19a15.34,15.34,0,0,1,5.07-5.86A13.08,13.08,0,0,1,338,28.6q.93,0,1.83.09a8.2,8.2,0,0,1,1.46.29Zm4.69-6.26A27.05,27.05,0,0,1,355,30.38a33.1,33.1,0,0,1,11.23-2,30,30,0,0,1,10,1.46,14.91,14.91,0,0,1,6.62,4.51,19.21,19.21,0,0,1,3.71,7.7,46.28,46.28,0,0,1,1.17,11V76.69H373.61v-5h-.29a11.61,11.61,0,0,1-5.4,4.51,19.1,19.1,0,0,1-7.84,1.59,23.76,23.76,0,0,1-5.82-.75,16.78,16.78,0,0,1-5.5-2.44,13,13,0,0,1-4.08-4.51,13.84,13.84,0,0,1-1.6-7,11.83,11.83,0,0,1,2.77-8.17A18.37,18.37,0,0,1,353,50.2,37.24,37.24,0,0,1,362.71,48a100.79,100.79,0,0,1,10.43-.57v-.75a5.76,5.76,0,0,0-2.45-5.12,10.6,10.6,0,0,0-6-1.64,15.14,15.14,0,0,0-6.35,1.46,20.63,20.63,0,0,0-5.21,3.38Zm28.28,20h-2c-1.69,0-3.39.08-5.12.23a21.76,21.76,0,0,0-4.6.89,8.4,8.4,0,0,0-3.31,1.88,4.44,4.44,0,0,0-1.32,3.33,3.91,3.91,0,0,0,.61,2.26,4.63,4.63,0,0,0,1.55,1.5,6.71,6.71,0,0,0,2.16.8,12.32,12.32,0,0,0,2.35.23q4.68,0,7.19-2.58a9.74,9.74,0,0,0,2.49-7Zm56.25,20.36V51.14a22.54,22.54,0,0,0-.32-3.76,10.53,10.53,0,0,0-1.08-3.14,5.71,5.71,0,0,0-2.12-2.16,6.83,6.83,0,0,0-3.43-.8,7.9,7.9,0,0,0-3.61.8,7.21,7.21,0,0,0-2.58,2.2,9.84,9.84,0,0,0-1.55,3.25,13.61,13.61,0,0,0-.52,3.8V76.69h-15.5V29.91h14.94V36.4h.18a15.38,15.38,0,0,1,2.21-3,13.07,13.07,0,0,1,3.19-2.49,19.84,19.84,0,0,1,4-1.69,15.56,15.56,0,0,1,4.6-.66,17.41,17.41,0,0,1,8,1.69,15.39,15.39,0,0,1,5.31,4.37,17.59,17.59,0,0,1,2.91,6.15,28,28,0,0,1,.89,7V76.69Zm54.67-33a17.51,17.51,0,0,0-4.42-3,12.26,12.26,0,0,0-5.35-1.23,9.49,9.49,0,0,0-4,.85A3,3,0,0,0,469,43.25a2.88,2.88,0,0,0,2,2.82A44.58,44.58,0,0,0,477.51,48a35.23,35.23,0,0,1,5.31,1.59,19.09,19.09,0,0,1,4.84,2.73,13.16,13.16,0,0,1,3.47,4.13,12.12,12.12,0,0,1,1.32,5.82A14,14,0,0,1,486,74.62a19.89,19.89,0,0,1-6.44,2.71,30.7,30.7,0,0,1-7.14.84,35,35,0,0,1-11.22-1.84,23.34,23.34,0,0,1-9.16-5.4l8.64-9.11a17.35,17.35,0,0,0,5.07,3.76,14,14,0,0,0,6.39,1.5,8.41,8.41,0,0,0,3.71-.89A3.22,3.22,0,0,0,477.67,63a3.39,3.39,0,0,0-2.25-3.19,41.3,41.3,0,0,0-7.05-2.16,36.23,36.23,0,0,1-4.88-1.51,15,15,0,0,1-4.37-2.53,12.48,12.48,0,0,1-3.14-4A11.93,11.93,0,0,1,454.75,44a13.63,13.63,0,0,1,1.79-7.19,15.08,15.08,0,0,1,4.6-4.84,20.83,20.83,0,0,1,6.25-2.66,27.43,27.43,0,0,1,6.81-.89,33,33,0,0,1,10.28,1.65A22.25,22.25,0,0,1,493,35Zm45.74,33H513.64L495.23,29.91h17l9.86,30.34h.29l9.86-30.34h16.43ZM601,53.86v1.88a17.73,17.73,0,0,1-.09,1.79H567a8.2,8.2,0,0,0,1.17,3.57,10.32,10.32,0,0,0,2.54,2.77,12.42,12.42,0,0,0,7.47,2.46,13,13,0,0,0,6.2-1.37,12.28,12.28,0,0,0,4.13-3.52l10.7,6.76a21.56,21.56,0,0,1-8.68,7.38A28.8,28.8,0,0,1,578,78.19a30.09,30.09,0,0,1-10-1.64,24.11,24.11,0,0,1-8.22-4.79A22.37,22.37,0,0,1,554.23,64a26,26,0,0,1-2-10.52,26,26,0,0,1,2-10.38,23.34,23.34,0,0,1,5.35-7.89,23.79,23.79,0,0,1,8-5,27.51,27.51,0,0,1,10-1.79A25.23,25.23,0,0,1,587,30.15a20.72,20.72,0,0,1,7.42,5,23.51,23.51,0,0,1,4.84,8A30.77,30.77,0,0,1,601,53.86ZM586.81,48a9.34,9.34,0,0,0-2.3-6.3C583,39.91,580.66,39,577.6,39a11.84,11.84,0,0,0-4.13.71,10.77,10.77,0,0,0-3.29,1.92,9.36,9.36,0,0,0-2.25,2.87A8.26,8.26,0,0,0,567,48Zm54.1-5.36a13.79,13.79,0,0,0-2-.37c-.66-.06-1.3-.1-1.93-.1a11,11,0,0,0-5.21,1.13A10.39,10.39,0,0,0,628.39,46a9.94,9.94,0,0,0-1.83,3.46,11.47,11.47,0,0,0-.57,3.28v24h-15.4V30h14.84v6.76h.19a15.11,15.11,0,0,1,5.07-5.86,13.13,13.13,0,0,1,7.61-2.27q.93,0,1.83.09a7.17,7.17,0,0,1,1.45.29Zm34.37,1.13a17.2,17.2,0,0,0-4.41-3,12.3,12.3,0,0,0-5.36-1.23,9.49,9.49,0,0,0-4,.85,3,3,0,0,0-1.83,2.91,2.88,2.88,0,0,0,2,2.82A43.5,43.5,0,0,0,668.21,48a35.45,35.45,0,0,1,5.3,1.59,18.79,18.79,0,0,1,4.84,2.73,13.19,13.19,0,0,1,3.48,4.13,12.23,12.23,0,0,1,1.31,5.82,14,14,0,0,1-6.43,12.4,20,20,0,0,1-6.41,2.71,30.7,30.7,0,0,1-7.14.84A35.34,35.34,0,0,1,652,76.33a23.58,23.58,0,0,1-9.16-5.4l8.64-9.11a17.39,17.39,0,0,0,5.08,3.76,14,14,0,0,0,6.38,1.5,8.41,8.41,0,0,0,3.71-.89A3.22,3.22,0,0,0,668.47,63a3.39,3.39,0,0,0-2.25-3.19,41,41,0,0,0-7-2.16,35.92,35.92,0,0,1-4.89-1.51A15.4,15.4,0,0,1,650,53.65a12.48,12.48,0,0,1-3.14-4A11.93,11.93,0,0,1,645.6,44a13.63,13.63,0,0,1,1.78-7.19A15.41,15.41,0,0,1,652,32a20.84,20.84,0,0,1,6.16-2.66,27.43,27.43,0,0,1,6.81-.89,33,33,0,0,1,10.28,1.65,22.25,22.25,0,0,1,8.5,4.93Zm63.21,10.14v1.88a17.73,17.73,0,0,1-.09,1.79H704.49a8.2,8.2,0,0,0,1.17,3.57,10.32,10.32,0,0,0,2.54,2.77,12.48,12.48,0,0,0,7.47,2.46,13,13,0,0,0,6.2-1.37A12.26,12.26,0,0,0,726,61.47l10.71,6.76A21.64,21.64,0,0,1,728,75.61a28.85,28.85,0,0,1-12.54,2.58,30.09,30.09,0,0,1-10-1.64,23.9,23.9,0,0,1-8.21-4.79A22.17,22.17,0,0,1,691.69,64a26,26,0,0,1-2-10.52,26,26,0,0,1,2-10.38A23.34,23.34,0,0,1,697,35.22a23.89,23.89,0,0,1,8-5,27.51,27.51,0,0,1,10-1.79,25.46,25.46,0,0,1,9.49,1.74,20.93,20.93,0,0,1,7.42,5,23.58,23.58,0,0,1,4.83,8,30.66,30.66,0,0,1,1.71,10.69ZM724.31,48a9.34,9.34,0,0,0-2.3-6.3c-1.54-1.74-3.85-2.62-6.91-2.63a11.84,11.84,0,0,0-4.13.71,10.77,10.77,0,0,0-3.29,1.92,9.36,9.36,0,0,0-2.25,2.87,8.26,8.26,0,0,0-.94,3.43ZM71.38,26.83A30.88,30.88,0,0,0,46.6,83.4"/><path class="cls-1" d="M46.6,83.4A30.88,30.88,0,0,0,71.38,26.83M98.54,16.39A55.91,55.91,0,0,0,3.29,51.06a6.14,6.14,0,1,0,6.14.25A49.78,49.78,0,0,1,94.19,20.73a3.07,3.07,0,1,0,4.35-4.34Z"/><path class="cls-1" d="M118,55.93a6.15,6.15,0,1,0-9.48,5.15A49.78,49.78,0,0,1,23.79,91.14a3.07,3.07,0,0,0-4.35,4.34h0a55.92,55.92,0,0,0,95.21-34.15A6.12,6.12,0,0,0,118,55.93Z"/></g></g></svg>