<svg height="11" viewBox="0 0 19 11" width="19" xmlns="http://www.w3.org/2000/svg"><path d="m37.387642 37.736267c.1841616.175522.4259326.263733.6677037.263733.241771 0 .4835421-.088211.6677037-.263733.3692675-.351944.3692675-.9208151 0-1.2727591l-7.5544013-7.2c-.0868865-.0837104-.1917169-.1494186-.3078803-.1953244-.2304381-.0909113-.4910975-.0909113-.7215356 0-.1161634.0459058-.2200494.111614-.3078803.1953244l-7.5544013 7.2c-.3692675.351944-.3692675.9208151 0 1.2727591.1841616.175522.4259327.263733.6677037.263733.2417711 0 .4835421-.088211.6677037-.263733l5.9432238-5.664408c.4197414-.3361545.7345475-.5042318.9444182-.5042318s.5246768.1680773.9444182.5042318z" fill="#39a4d5" stroke="#39a4d5" stroke-width=".3" transform="matrix(-1 0 0 -1 40 39)"/></svg>