<svg height="38" viewBox="0 0 41 38" width="41" xmlns="http://www.w3.org/2000/svg"><g fill="none"><path d="m7.45555556 23.3666667h5.46666664" stroke="#979797" stroke-linecap="square"/><path d="m1 1h39v35.355556h-39z" fill="#fff" stroke="#3ba5d6" stroke-width="2"/><path d="m1.45555556 8.25h37.81111114" stroke="#3ba5d6" stroke-linecap="square" stroke-width="2"/><g stroke-linecap="round" stroke-linejoin="round"><path d="m5 4.20833333h17.3111111" stroke="#3ba5d6" stroke-width="2"/><g stroke="#08b79a" stroke-width="1.5"><path d="m11 14.1009259h23.6888889"/><path d="m11 18.0945988h13.6666667"/><path d="m11 23.1009259h23.6888889"/><path d="m11 26.0945988h13.6666667"/></g><path d="m2 32.7339506h37.3555556" stroke="#3ba5d6" stroke-width="2"/></g><g fill="#08b79a"><path d="m7.80041752 15.7591976c-.27600623-.1317223-.56944443-.2320821-.85997731-.3362054-.16850906-.0602159-.32975481-.1304677-.47211591-.2283185-.28036423-.1931926-.22661564-.506817.1016865-.6310123.09297052-.0351259.19029903-.0464164.28908021-.0514344.38059806-.0175629.74231149.042653 1.08659294.1856657.1714144.0715063.22806831.0489254.28617488-.1053778.0610119-.1630847.11185516-.3286784.16850907-.4930175.03776927-.1103958-.00871599-.1831567-.12928713-.2295731-.22080498-.0840513-.44742062-.1442672-.68565758-.1768841-.31087017-.0413984-.31087017-.0426529-.31232284-.3123699-.00145266-.3801127-.00145266-.3801127-.44306263-.3801127-.06391723 0-.12783446-.0012545-.19175169 0-.20627834.0050179-.24114229.0363804-.24695294.2157735-.00290533.0802879 0 .1605757-.00145267.242118-.00145266.2383546-.00290533.2345911-.26729024.3173879-.63917232.2007196-1.03429703.5770689-1.07642429 1.1792277-.03776928.5331614.28472221.8932022.79170207 1.1553922.31232284.1618301.65805696.2571719.98926443.3838762.12928713.0489254.2527636.1053778.36026077.1831566.31813349.2270641.26002692.6046678-.11766582.7476805-.20192034.0765244-.41546201.0953419-.63481432.0715064-.3384708-.0363804-.66241495-.1129048-.96747447-.249645-.17867771-.0802878-.23097363-.0589614-.29198553.1078868-.05229592.1442672-.09878118.2897889-.14526644.4353106-.06246457.1957016-.03922194.242118.17722505.3336963.27600623.1154138.57089709.1743752.87159862.2157736.23533162.032617.24259495.0413984.24550027.252154.00145267.0953418.00145267.1919381.00290533.2872799.00145267.1204318.06827523.1906837.212089.1931927.16269841.002509.32684948.002509.48954789-.0012545.13364512-.002509.20192035-.0652339.20192035-.1819022 0-.1304677.00726332-.26219.00145266-.3926577-.00726332-.1329767.05955924-.2007196.207731-.2358455.34137613-.0802879.631909-.2383545.85561931-.4742001.62174035-.6523387.38495606-1.6070113-.49535854-2.0272679z"/><path d="m7.80041752 24.7591976c-.27600623-.1317223-.56944443-.2320821-.85997731-.3362054-.16850906-.0602159-.32975481-.1304677-.47211591-.2283185-.28036423-.1931926-.22661564-.506817.1016865-.6310123.09297052-.0351259.19029903-.0464164.28908021-.0514344.38059806-.0175629.74231149.042653 1.08659294.1856657.1714144.0715063.22806831.0489254.28617488-.1053778.0610119-.1630847.11185516-.3286784.16850907-.4930175.03776927-.1103958-.00871599-.1831567-.12928713-.2295731-.22080498-.0840513-.44742062-.1442672-.68565758-.1768841-.31087017-.0413984-.31087017-.0426529-.31232284-.3123699-.00145266-.3801127-.00145266-.3801127-.44306263-.3801127-.06391723 0-.12783446-.0012545-.19175169 0-.20627834.0050179-.24114229.0363804-.24695294.2157735-.00290533.0802879 0 .1605757-.00145267.242118-.00145266.2383546-.00290533.2345911-.26729024.3173879-.63917232.2007196-1.03429703.5770689-1.07642429 1.1792277-.03776928.5331614.28472221.8932022.79170207 1.1553922.31232284.1618301.65805696.2571719.98926443.3838762.12928713.0489254.2527636.1053778.36026077.1831566.31813349.2270641.26002692.6046678-.11766582.7476805-.20192034.0765244-.41546201.0953419-.63481432.0715064-.3384708-.0363804-.66241495-.1129048-.96747447-.249645-.17867771-.0802878-.23097363-.0589614-.29198553.1078868-.05229592.1442672-.09878118.2897889-.14526644.4353106-.06246457.1957016-.03922194.242118.17722505.3336963.27600623.1154138.57089709.1743752.87159862.2157736.23533162.032617.24259495.0413984.24550027.252154.00145267.0953418.00145267.1919381.00290533.2872799.00145267.1204318.06827523.1906837.212089.1931927.16269841.002509.32684948.002509.48954789-.0012545.13364512-.002509.20192035-.0652339.20192035-.1819022 0-.1304677.00726332-.26219.00145266-.3926577-.00726332-.1329767.05955924-.2007196.207731-.2358455.34137613-.0802879.631909-.2383545.85561931-.4742001.62174035-.6523387.38495606-1.6070113-.49535854-2.0272679z"/></g></g></svg>