<?xml version="1.0" encoding="utf-8"?>
<!-- Generator: Adobe Illustrator 18.1.1, SVG Export Plug-In . SVG Version: 6.00 Build 0)  -->
<svg version="1.1" id="Layer_1" xmlns="http://www.w3.org/2000/svg" xmlns:xlink="http://www.w3.org/1999/xlink" x="0px" y="0px"
	 width="46px" height="46px" viewBox="0 0 46 46" style="enable-background:new 0 0 46 46;" xml:space="preserve">
<style type="text/css">
	.st0{opacity:0.12;fill:#439BC3;enable-background:new    ;}
	.st1{fill:#FFFFFF;}
	.st2{fill:#E8F3F7;}
	.st3{fill:#113B58;}
	.st4{opacity:0.5517;fill:#74CAC8;enable-background:new    ;}
	.st5{fill:#74CAC8;}
	.st6{fill:none;stroke:#74CAC8;stroke-width:1.5;stroke-linejoin:round;}
	.st7{fill:none;stroke:#74CAC8;stroke-width:1.5;stroke-linejoin:round;stroke-dasharray:3.6,1.8;}
	.st8{fill:#FFFFFF;stroke:#113B58;stroke-width:1.5;}
	.st9{fill:#FFFFFF;enable-background:new    ;}
	.st10{fill:none;stroke:#113B58;stroke-width:1.5;stroke-linecap:round;}
	.st11{fill:none;stroke:#113B58;stroke-width:1.5;}
	.st12{filter:url(#Adobe_OpacityMaskFilter);}
	.st13{mask:url(#mask-2);fill:#FFFFFF;stroke:#113B58;stroke-width:1.5;}
	.st14{filter:url(#Adobe_OpacityMaskFilter_1_);}
	.st15{mask:url(#mask-4);fill:#FFFFFF;stroke:#113B58;stroke-width:1.5;}
	.st16{filter:url(#Adobe_OpacityMaskFilter_2_);}
	.st17{mask:url(#mask-6);fill:#FFFFFF;stroke:#113B58;stroke-width:1.5;}
	.st18{filter:url(#Adobe_OpacityMaskFilter_3_);}
	.st19{mask:url(#mask-8);fill:#FFFFFF;stroke:#113B58;stroke-width:1.5;}
	.st20{fill:#74CAC8;stroke:#113B58;stroke-width:1.5;}
	.st21{fill:#74CAC8;stroke:#113B58;stroke-width:1.5;stroke-linecap:round;}
	.st22{fill:#FFFFFF;stroke:#113B58;stroke-width:1.5;stroke-linecap:round;}
	.st23{fill:#74CAC8;stroke:#74CAC8;stroke-width:1.5;stroke-linejoin:round;}
	.st24{fill:#E8F3F7;stroke:#113B58;stroke-width:1.5;stroke-linecap:round;}
	.st25{fill:none;stroke:#113B58;stroke-width:1.5;stroke-linecap:round;stroke-linejoin:round;}
	.st26{fill:none;stroke:#113B58;stroke-width:1.5;stroke-linecap:round;stroke-dasharray:3.9081,3.9081;}
	.st27{fill:none;stroke:#FFFFFF;stroke-width:1.5;stroke-linecap:round;}
	.st28{fill:none;stroke:#FFFFFF;stroke-width:2;stroke-linecap:round;}
	.st29{fill:none;stroke:#74CAC8;stroke-width:1.5;stroke-linecap:round;}
	.st30{fill:none;stroke:#113B58;stroke-width:1.5;stroke-linejoin:round;}
	.st31{fill:none;stroke:#113B58;stroke-width:1.5;stroke-linejoin:round;stroke-dasharray:3.6923,1.8462;}
	.st32{fill:none;stroke:#113B58;stroke-width:1.5;stroke-linejoin:round;stroke-dasharray:4.5714,2.2857;}
	.st33{fill:#E8F3F7;stroke:#E8F3F7;stroke-width:1.5;stroke-linejoin:round;}
	.st34{fill:#FFFFFF;stroke:#74CAC8;stroke-width:1.5;stroke-linecap:round;}
	.st35{fill:#74CAC8;stroke:#113B58;stroke-width:1.5;stroke-linejoin:round;}
	.st36{fill:none;}
	.st37{opacity:0.55;fill:#FFFFFF;enable-background:new    ;}
</style>
<path id="Combined-Shape-Copy_25_" class="st4" d="M6.4,5.4v1.3c0,0.3-0.3,0.6-0.6,0.6C5.4,7.3,5.1,7,5.1,6.7V5.4H3.8
	c-0.3,0-0.6-0.3-0.6-0.6c0-0.3,0.3-0.6,0.6-0.6h1.3V2.9c0-0.3,0.3-0.6,0.6-0.6c0.3,0,0.6,0.3,0.6,0.6v1.2h1.2c0.3,0,0.6,0.3,0.6,0.6
	c0,0.3-0.3,0.6-0.6,0.6H6.4z"/>
<path id="Path-3_29_" class="st0" d="M39,20.3c8,8.9,7.5,15.5-1.6,19.9c-13.6,6.6-25.5,3.8-21.6-3.5c1.7-3.2,4.4-18,10.4-21.6
	C28.3,13.6,34.6,16.6,39,20.3z"/>
<path class="st8" d="M36.6,36.5h-24c-0.6,0-1-0.4-1-1V5.8c0-0.6,0.4-1,1-1h24c0.6,0,1,0.4,1,1v29.7C37.6,36,37.1,36.5,36.6,36.5z"/>
<path class="st2" d="M23.8,18.2h-9c-0.6,0-1-0.4-1-1v-9c0-0.6,0.4-1,1-1h9c0.6,0,1,0.4,1,1v9C24.8,17.8,24.4,18.2,23.8,18.2z"/>
<g>
	<path class="st5" d="M34,10.6h-6.6c-0.4,0-0.7-0.3-0.7-0.8s0.3-0.8,0.7-0.8H34c0.4,0,0.7,0.3,0.7,0.8S34.4,10.6,34,10.6z"/>
	<path class="st5" d="M30.3,13.5h-2.8c-0.4,0-0.7-0.3-0.7-0.8S27,12,27.4,12h2.8c0.4,0,0.7,0.3,0.7,0.8S30.6,13.5,30.3,13.5z"/>
	<path class="st5" d="M34,17.7h-6.6c-0.4,0-0.7-0.3-0.7-0.8s0.3-0.8,0.7-0.8H34c0.4,0,0.7,0.3,0.7,0.8S34.4,17.7,34,17.7z"/>
	<path class="st5" d="M30.3,20.6h-2.8c-0.4,0-0.7-0.3-0.7-0.8s0.3-0.8,0.7-0.8h2.8c0.4,0,0.7,0.3,0.7,0.8S30.6,20.6,30.3,20.6z"/>
	<path class="st5" d="M34,24.7h-6.6c-0.4,0-0.7-0.3-0.7-0.8s0.3-0.8,0.7-0.8H34c0.4,0,0.7,0.3,0.7,0.8S34.4,24.7,34,24.7z"/>
	<path class="st5" d="M30.3,27.6h-2.8c-0.4,0-0.7-0.3-0.7-0.8s0.3-0.8,0.7-0.8h2.8c0.4,0,0.7,0.3,0.7,0.8S30.6,27.6,30.3,27.6z"/>
</g>
<path id="Combined-Shape-Copy_23_" class="st4" d="M42.5,42.9v1.3c0,0.3-0.3,0.6-0.6,0.6c-0.3,0-0.6-0.3-0.6-0.6v-1.3H40
	c-0.3,0-0.6-0.3-0.6-0.6c0-0.3,0.3-0.6,0.6-0.6h1.3v-1.2c0-0.3,0.3-0.6,0.6-0.6c0.3,0,0.6,0.3,0.6,0.6v1.2h1.2
	c0.3,0,0.6,0.3,0.6,0.6c0,0.3-0.3,0.6-0.6,0.6H42.5z"/>
<g>
	<path class="st5" d="M18.3,14.4L17.8,15C17.7,15,17.7,15,17.6,15c0,0-0.1,0-0.2-0.1c-0.1-0.1-0.1-0.1-0.1-0.2s0-0.1,0.1-0.2
		l0.5-0.5L16,12.1l0.5,0.5l2.1-2.1c0.4-0.4,1-0.7,1.6-0.7c0.4,0,0.8,0.1,1.1,0.3l0.5,0.3l0.3,0.5c0.5,0.9,0.4,2-0.3,2.7l-2.1,2.1
		L18.3,14.4z"/>
	<g>
		<path class="st3" d="M20.3,10.7c0.3,0,0.5,0.1,0.8,0.2l0.3,0.2l0.2,0.3c0.3,0.6,0.3,1.3-0.2,1.8l-1.6,1.6l-0.4-0.4L19,14.1L18,13
			l-0.4-0.4l1.6-1.6C19.5,10.8,19.9,10.7,20.3,10.7 M22.6,9.1c-0.2,0-0.4,0.1-0.5,0.2l-0.3,0.3c-0.5-0.3-1-0.4-1.5-0.4
			c-0.8,0-1.5,0.3-2.1,0.9l-1.6,1.6c-0.1-0.1-0.3-0.2-0.5-0.2c-0.2,0-0.4,0.1-0.5,0.2c-0.3,0.3-0.3,0.8,0,1.1l1.4,1.4
			c-0.4,0.4-0.4,1,0,1.4c0.2,0.2,0.5,0.3,0.7,0.3c0.3,0,0.5-0.1,0.7-0.3l1.4,1.4c0.1,0.1,0.3,0.2,0.5,0.2c0.2,0,0.4-0.1,0.5-0.2
			c0.3-0.3,0.3-0.8,0-1.1l0,0l1.6-1.6c1-1,1.1-2.5,0.5-3.6l0.3-0.3c0.3-0.3,0.3-0.8,0-1.1C23,9.2,22.8,9.1,22.6,9.1L22.6,9.1z"/>
	</g>
</g>
<path class="st21" d="M7.6,27.7h16c0.6,0,1,0.4,1,1v10c0,0.6-0.4,1-1,1h-16c-0.6,0-1-0.4-1-1v-10C6.6,28.1,7.1,27.7,7.6,27.7z"/>
<polyline class="st25" points="6.6,28.4 11.8,34.7 19.5,34.7 24.4,28.4 "/>
<line class="st25" x1="20.3" y1="34" x2="24.6" y2="38.3"/>
<line class="st25" x1="11" y1="34" x2="6.6" y2="38.3"/>
</svg>
