<?xml version="1.0" encoding="utf-8"?>
<!-- Generator: Adobe Illustrator 18.1.1, SVG Export Plug-In . SVG Version: 6.00 Build 0)  -->
<svg version="1.1" id="Layer_1" xmlns="http://www.w3.org/2000/svg" xmlns:xlink="http://www.w3.org/1999/xlink" x="0px" y="0px"
	 width="46px" height="46px" viewBox="0 0 46 46" style="enable-background:new 0 0 46 46;" xml:space="preserve">
<style type="text/css">
	.st0{opacity:0.12;fill:#439BC3;enable-background:new    ;}
	.st1{fill:#FFFFFF;}
	.st2{fill:#E8F3F7;}
	.st3{fill:#113B58;}
	.st4{opacity:0.5517;fill:#74CAC8;enable-background:new    ;}
	.st5{fill:#74CAC8;}
	.st6{fill:none;stroke:#74CAC8;stroke-width:1.5;stroke-linejoin:round;}
	.st7{fill:none;stroke:#74CAC8;stroke-width:1.5;stroke-linejoin:round;stroke-dasharray:3.6,1.8;}
	.st8{fill:#FFFFFF;stroke:#113B58;stroke-width:1.5;}
	.st9{fill:#FFFFFF;enable-background:new    ;}
	.st10{fill:none;stroke:#113B58;stroke-width:1.5;stroke-linecap:round;}
	.st11{fill:none;stroke:#113B58;stroke-width:1.5;}
	.st12{filter:url(#Adobe_OpacityMaskFilter);}
	.st13{mask:url(#mask-2);fill:#FFFFFF;stroke:#113B58;stroke-width:1.5;}
	.st14{filter:url(#Adobe_OpacityMaskFilter_1_);}
	.st15{mask:url(#mask-4);fill:#FFFFFF;stroke:#113B58;stroke-width:1.5;}
	.st16{filter:url(#Adobe_OpacityMaskFilter_2_);}
	.st17{mask:url(#mask-6);fill:#FFFFFF;stroke:#113B58;stroke-width:1.5;}
	.st18{filter:url(#Adobe_OpacityMaskFilter_3_);}
	.st19{mask:url(#mask-8);fill:#FFFFFF;stroke:#113B58;stroke-width:1.5;}
	.st20{fill:#74CAC8;stroke:#113B58;stroke-width:1.5;}
	.st21{fill:#74CAC8;stroke:#113B58;stroke-width:1.5;stroke-linecap:round;}
	.st22{fill:#FFFFFF;stroke:#113B58;stroke-width:1.5;stroke-linecap:round;}
	.st23{fill:#74CAC8;stroke:#74CAC8;stroke-width:1.5;stroke-linejoin:round;}
	.st24{fill:#E8F3F7;stroke:#113B58;stroke-width:1.5;stroke-linecap:round;}
	.st25{fill:none;stroke:#113B58;stroke-width:1.5;stroke-linecap:round;stroke-linejoin:round;}
	.st26{fill:none;stroke:#113B58;stroke-width:1.5;stroke-linecap:round;stroke-dasharray:3.9081,3.9081;}
	.st27{fill:none;stroke:#FFFFFF;stroke-width:1.5;stroke-linecap:round;}
	.st28{fill:none;stroke:#FFFFFF;stroke-width:2;stroke-linecap:round;}
	.st29{fill:none;stroke:#74CAC8;stroke-width:1.5;stroke-linecap:round;}
	.st30{fill:none;stroke:#113B58;stroke-width:1.5;stroke-linejoin:round;}
	.st31{fill:none;stroke:#113B58;stroke-width:1.5;stroke-linejoin:round;stroke-dasharray:3.6923,1.8462;}
	.st32{fill:none;stroke:#113B58;stroke-width:1.5;stroke-linejoin:round;stroke-dasharray:4.5714,2.2857;}
	.st33{fill:#E8F3F7;stroke:#E8F3F7;stroke-width:1.5;stroke-linejoin:round;}
	.st34{fill:#FFFFFF;stroke:#74CAC8;stroke-width:1.5;stroke-linecap:round;}
	.st35{fill:#74CAC8;stroke:#113B58;stroke-width:1.5;stroke-linejoin:round;}
	.st36{fill:none;}
	.st37{opacity:0.55;fill:#FFFFFF;enable-background:new    ;}
</style>
<g>
	<path class="st5" d="M34.5,8.4H33V7.2h-1.3V5.7h2c0.4,0,0.8,0.3,0.8,0.8V8.4z"/>
	<path class="st5" d="M33.7,30.3L33.7,30.3c-0.4,0-0.8-0.3-0.8-0.7v-2.2c0-0.4,0.3-0.8,0.8-0.8l0,0c0.4,0,0.8,0.3,0.8,0.8v2.2
		C34.5,30,34.2,30.3,33.7,30.3z M33.7,24.9L33.7,24.9c-0.4,0-0.8-0.3-0.8-0.7V22c0-0.4,0.3-0.8,0.8-0.8l0,0c0.4,0,0.8,0.3,0.8,0.8
		v2.2C34.5,24.5,34.2,24.9,33.7,24.9z M33.7,19.4L33.7,19.4c-0.4,0-0.8-0.3-0.8-0.7v-2.2c0-0.4,0.3-0.8,0.8-0.8l0,0
		c0.4,0,0.8,0.3,0.8,0.8v2.2C34.5,19,34.2,19.4,33.7,19.4z M33.7,13.9L33.7,13.9c-0.4,0-0.8-0.3-0.8-0.7V11c0-0.4,0.3-0.8,0.8-0.8
		l0,0c0.4,0,0.8,0.3,0.8,0.8v2.2C34.5,13.6,34.2,13.9,33.7,13.9z"/>
	<path class="st5" d="M33.7,34.9h-2v-1.5H33v-1.3h1.5v2C34.5,34.6,34.2,34.9,33.7,34.9z"/>
	<path class="st5" d="M29.1,34.9h-2.2c-0.4,0-0.8-0.3-0.8-0.8l0,0c0-0.4,0.3-0.8,0.8-0.8h2.2c0.4,0,0.7,0.3,0.7,0.8l0,0
		C29.9,34.6,29.6,34.9,29.1,34.9z M23.6,34.9h-2.2c-0.4,0-0.8-0.3-0.8-0.8l0,0c0-0.4,0.3-0.8,0.8-0.8h2.2c0.4,0,0.7,0.3,0.7,0.8l0,0
		C24.4,34.6,24,34.9,23.6,34.9z M18.1,34.9h-2.2c-0.4,0-0.8-0.3-0.8-0.8l0,0c0-0.4,0.3-0.8,0.8-0.8h2.2c0.4,0,0.7,0.3,0.7,0.8l0,0
		C18.8,34.6,18.5,34.9,18.1,34.9z M12.5,34.9h-2.2c-0.4,0-0.8-0.3-0.8-0.8l0,0c0-0.4,0.3-0.8,0.8-0.8h2.2c0.4,0,0.7,0.3,0.7,0.8l0,0
		C13.3,34.6,12.9,34.9,12.5,34.9z"/>
	<path class="st5" d="M7.7,34.9h-2c-0.4,0-0.8-0.3-0.8-0.8v-2h1.5v1.3h1.3V34.9z"/>
	<path class="st5" d="M5.7,30.3L5.7,30.3C5.3,30.3,5,30,5,29.6v-2.2c0-0.4,0.3-0.8,0.7-0.8h0c0.4,0,0.7,0.3,0.7,0.8v2.2
		C6.5,30,6.2,30.3,5.7,30.3z M5.7,24.9L5.7,24.9c-0.4,0-0.8-0.3-0.8-0.7V22c0-0.4,0.3-0.8,0.7-0.8h0c0.4,0,0.7,0.3,0.7,0.8v2.2
		C6.5,24.5,6.2,24.9,5.7,24.9z M5.7,19.4L5.7,19.4C5.3,19.4,5,19,5,18.6v-2.2c0-0.4,0.3-0.8,0.7-0.8h0c0.4,0,0.7,0.3,0.7,0.8v2.2
		C6.5,19,6.2,19.4,5.7,19.4z M5.7,13.9L5.7,13.9c-0.4,0-0.8-0.3-0.8-0.7V11c0-0.4,0.3-0.8,0.7-0.8h0c0.4,0,0.7,0.3,0.7,0.8v2.2
		C6.5,13.6,6.2,13.9,5.7,13.9z"/>
	<path class="st5" d="M6.5,8.4H5v-2C5,6,5.3,5.7,5.7,5.7h2v1.5H6.5V8.4z"/>
	<path class="st5" d="M29.1,7.2h-2.2c-0.4,0-0.8-0.3-0.8-0.7v0c0-0.4,0.3-0.7,0.8-0.7h2.2c0.4,0,0.7,0.3,0.7,0.7v0
		C29.9,6.8,29.6,7.2,29.1,7.2z M23.6,7.2h-2.2c-0.4,0-0.8-0.3-0.8-0.7v0c0-0.4,0.3-0.7,0.8-0.7h2.2c0.4,0,0.7,0.3,0.7,0.7v0
		C24.4,6.8,24,7.2,23.6,7.2z M18.1,7.2h-2.2c-0.4,0-0.8-0.3-0.8-0.7v0c0-0.4,0.3-0.7,0.8-0.7h2.2c0.4,0,0.7,0.3,0.7,0.7v0
		C18.8,6.8,18.5,7.2,18.1,7.2z M12.5,7.2h-2.2c-0.4,0-0.8-0.3-0.8-0.7v0c0-0.4,0.3-0.7,0.8-0.7h2.2c0.4,0,0.7,0.3,0.7,0.7v0
		C13.3,6.8,12.9,7.2,12.5,7.2z"/>
</g>
<rect x="8.7" y="9.4" class="st2" width="22" height="21.7"/>
<path id="Path-3_27_" class="st0" d="M44.5,29.7c-3.1,11.6-8.9,14.7-17.5,9.5c-12.9-7.9-17.1-19.3-8.8-20.1C21.7,18.8,36.4,12,42,16
	C45.6,18.6,45.3,24,44.5,29.7z"/>
<path id="Combined-Shape-Copy_22_" class="st4" d="M3.7,43.8v1.3c0,0.3-0.3,0.6-0.6,0.6c-0.3,0-0.6-0.3-0.6-0.6v-1.3H1.2
	c-0.3,0-0.6-0.3-0.6-0.6c0-0.3,0.3-0.6,0.6-0.6h1.3v-1.2c0-0.3,0.3-0.6,0.6-0.6c0.3,0,0.6,0.3,0.6,0.6v1.2h1.2
	c0.3,0,0.6,0.3,0.6,0.6c0,0.3-0.3,0.6-0.6,0.6H3.7z"/>
<path class="st8" d="M39.1,13.9v22c0,0.6-0.4,1-1,1h-25c-0.6,0-1-0.4-1-1v-22c0-0.6,0.4-1,1-1h25C38.6,12.9,39.1,13.3,39.1,13.9z"/>
<path id="Combined-Shape_39_" class="st4" d="M42.8,4.6v1.5c0,0.4-0.3,0.8-0.8,0.8c-0.4,0-0.8-0.3-0.8-0.8V4.6h-1.6
	c-0.4,0-0.8-0.3-0.8-0.8s0.3-0.8,0.8-0.8h1.6V1.6c0-0.4,0.3-0.8,0.8-0.8c0.4,0,0.8,0.3,0.8,0.8v1.5h1.4c0.4,0,0.8,0.3,0.8,0.8
	s-0.3,0.8-0.8,0.8H42.8z"/>
<g>
	<path class="st3" d="M22.9,24h-6.3c-0.3,0-0.6-0.3-0.6-0.8s0.3-0.8,0.6-0.8h6.3c0.3,0,0.6,0.3,0.6,0.8S23.2,24,22.9,24z"/>
	<path class="st3" d="M22.9,27.3h-6.3c-0.3,0-0.6-0.3-0.6-0.8s0.3-0.8,0.6-0.8h6.3c0.3,0,0.6,0.3,0.6,0.8S23.2,27.3,22.9,27.3z"/>
	<path class="st3" d="M22.9,30.5h-6.3c-0.3,0-0.6-0.3-0.6-0.8s0.3-0.8,0.6-0.8h6.3c0.3,0,0.6,0.3,0.6,0.8S23.2,30.5,22.9,30.5z"/>
	<path class="st3" d="M22.9,33.8h-6.3c-0.3,0-0.6-0.3-0.6-0.8s0.3-0.8,0.6-0.8h6.3c0.3,0,0.6,0.3,0.6,0.8S23.2,33.8,22.9,33.8z"/>
</g>
<g>
	<path class="st5" d="M28.7,24h-2.8c-0.4,0-0.7-0.3-0.7-0.8s0.3-0.8,0.7-0.8h2.8c0.4,0,0.7,0.3,0.7,0.8S29.1,24,28.7,24z"/>
	<path class="st5" d="M28.7,27.3h-2.8c-0.4,0-0.7-0.3-0.7-0.8s0.3-0.8,0.7-0.8h2.8c0.4,0,0.7,0.3,0.7,0.8S29.1,27.3,28.7,27.3z"/>
	<path class="st5" d="M28.7,30.5h-2.8c-0.4,0-0.7-0.3-0.7-0.8s0.3-0.8,0.7-0.8h2.8c0.4,0,0.7,0.3,0.7,0.8S29.1,30.5,28.7,30.5z"/>
	<path class="st5" d="M28.7,33.8h-2.8c-0.4,0-0.7-0.3-0.7-0.8s0.3-0.8,0.7-0.8h2.8c0.4,0,0.7,0.3,0.7,0.8S29.1,33.8,28.7,33.8z"/>
</g>
<g>
	<path class="st5" d="M34.6,24h-2.8c-0.4,0-0.7-0.3-0.7-0.8s0.3-0.8,0.7-0.8h2.8c0.4,0,0.7,0.3,0.7,0.8S35,24,34.6,24z"/>
	<path class="st5" d="M34.6,27.3h-2.8c-0.4,0-0.7-0.3-0.7-0.8s0.3-0.8,0.7-0.8h2.8c0.4,0,0.7,0.3,0.7,0.8S35,27.3,34.6,27.3z"/>
	<path class="st5" d="M34.6,30.5h-2.8c-0.4,0-0.7-0.3-0.7-0.8s0.3-0.8,0.7-0.8h2.8c0.4,0,0.7,0.3,0.7,0.8S35,30.5,34.6,30.5z"/>
	<path class="st5" d="M34.6,33.8h-2.8c-0.4,0-0.7-0.3-0.7-0.8s0.3-0.8,0.7-0.8h2.8c0.4,0,0.7,0.3,0.7,0.8S35,33.8,34.6,33.8z"/>
</g>
<circle class="st2" cx="34.5" cy="15.7" r="1"/>
<circle class="st2" cx="31.2" cy="15.7" r="1"/>
<circle class="st2" cx="27.8" cy="15.7" r="1"/>
<path class="st2" d="M34.3,20.7H17.2c-0.7,0-1.2-0.6-1.2-1.2v0c0-0.7,0.6-1.3,1.2-1.3h17.1c0.7,0,1.3,0.6,1.3,1.3v0
	C35.5,20.1,34.9,20.7,34.3,20.7z"/>
<path class="st23" d="M31.6,41.5v-8c0-0.6,0.4-1,1-1h8c0.6,0,1,0.4,1,1v8c0,0.6-0.4,1-1,1h-8C32,42.5,31.6,42.1,31.6,41.5z"/>
<g>
	<path class="st1" d="M36.5,40c-0.4,0-0.8-0.3-0.8-0.8v-3.6c0-0.4,0.3-0.8,0.8-0.8s0.8,0.3,0.8,0.8v3.6C37.3,39.6,36.9,40,36.5,40z"
		/>
	<path class="st1" d="M36.5,40.6c-0.2,0-0.4-0.1-0.5-0.2l-1.8-1.8c-0.3-0.3-0.3-0.8,0-1.1s0.8-0.3,1.1,0l1.2,1.2l1.2-1.2
		c0.3-0.3,0.8-0.3,1.1,0c0.3,0.3,0.3,0.8,0,1.1L37,40.3C36.9,40.5,36.7,40.6,36.5,40.6z"/>
</g>
</svg>
