<?xml version="1.0" encoding="utf-8"?>
<!-- Generator: Adobe Illustrator 18.1.1, SVG Export Plug-In . SVG Version: 6.00 Build 0)  -->
<svg version="1.1" id="Layer_1" xmlns="http://www.w3.org/2000/svg" xmlns:xlink="http://www.w3.org/1999/xlink" x="0px" y="0px"
	 width="46px" height="46px" viewBox="0 0 46 46" style="enable-background:new 0 0 46 46;" xml:space="preserve">
<style type="text/css">
	.st0{opacity:0.12;fill:#439BC3;enable-background:new    ;}
	.st1{fill:#FFFFFF;}
	.st2{fill:#E8F3F7;}
	.st3{fill:#113B58;}
	.st4{opacity:0.5517;fill:#74CAC8;enable-background:new    ;}
	.st5{fill:#74CAC8;}
	.st6{fill:none;stroke:#74CAC8;stroke-width:1.5;stroke-linejoin:round;}
	.st7{fill:none;stroke:#74CAC8;stroke-width:1.5;stroke-linejoin:round;stroke-dasharray:3.6,1.8;}
	.st8{fill:#FFFFFF;stroke:#113B58;stroke-width:1.5;}
	.st9{fill:#FFFFFF;enable-background:new    ;}
	.st10{fill:none;stroke:#113B58;stroke-width:1.5;stroke-linecap:round;}
	.st11{fill:none;stroke:#113B58;stroke-width:1.5;}
	.st12{filter:url(#Adobe_OpacityMaskFilter);}
	.st13{mask:url(#mask-2);fill:#FFFFFF;stroke:#113B58;stroke-width:1.5;}
	.st14{filter:url(#Adobe_OpacityMaskFilter_1_);}
	.st15{mask:url(#mask-4);fill:#FFFFFF;stroke:#113B58;stroke-width:1.5;}
	.st16{filter:url(#Adobe_OpacityMaskFilter_2_);}
	.st17{mask:url(#mask-6);fill:#FFFFFF;stroke:#113B58;stroke-width:1.5;}
	.st18{filter:url(#Adobe_OpacityMaskFilter_3_);}
	.st19{mask:url(#mask-8);fill:#FFFFFF;stroke:#113B58;stroke-width:1.5;}
	.st20{fill:#74CAC8;stroke:#113B58;stroke-width:1.5;}
	.st21{fill:#74CAC8;stroke:#113B58;stroke-width:1.5;stroke-linecap:round;}
	.st22{fill:#FFFFFF;stroke:#113B58;stroke-width:1.5;stroke-linecap:round;}
	.st23{fill:#74CAC8;stroke:#74CAC8;stroke-width:1.5;stroke-linejoin:round;}
	.st24{fill:#E8F3F7;stroke:#113B58;stroke-width:1.5;stroke-linecap:round;}
	.st25{fill:none;stroke:#113B58;stroke-width:1.5;stroke-linecap:round;stroke-linejoin:round;}
	.st26{fill:none;stroke:#113B58;stroke-width:1.5;stroke-linecap:round;stroke-dasharray:3.9081,3.9081;}
	.st27{fill:none;stroke:#FFFFFF;stroke-width:1.5;stroke-linecap:round;}
	.st28{fill:none;stroke:#FFFFFF;stroke-width:2;stroke-linecap:round;}
	.st29{fill:none;stroke:#74CAC8;stroke-width:1.5;stroke-linecap:round;}
	.st30{fill:none;stroke:#113B58;stroke-width:1.5;stroke-linejoin:round;}
	.st31{fill:none;stroke:#113B58;stroke-width:1.5;stroke-linejoin:round;stroke-dasharray:3.6923,1.8462;}
	.st32{fill:none;stroke:#113B58;stroke-width:1.5;stroke-linejoin:round;stroke-dasharray:4.5714,2.2857;}
	.st33{fill:#E8F3F7;stroke:#E8F3F7;stroke-width:1.5;stroke-linejoin:round;}
	.st34{fill:#FFFFFF;stroke:#74CAC8;stroke-width:1.5;stroke-linecap:round;}
	.st35{fill:#74CAC8;stroke:#113B58;stroke-width:1.5;stroke-linejoin:round;}
	.st36{fill:none;}
	.st37{opacity:0.55;fill:#FFFFFF;enable-background:new    ;}
</style>
<path id="Path-3_23_" class="st0" d="M45.4,17c-3.1,11.6-8.9,14.7-17.5,9.5C15,18.6,10.8,7.1,19.1,6.4c3.5-0.3,18.2-7.1,23.8-3.1
	C46.5,5.9,46.2,11.3,45.4,17z"/>
<path id="Combined-Shape_34_" class="st4" d="M4.9,4.9v1.5c0,0.4-0.3,0.8-0.8,0.8S3.4,6.8,3.4,6.4V4.9H1.9c-0.4,0-0.8-0.3-0.8-0.8
	s0.3-0.8,0.8-0.8h1.6V1.9c0-0.4,0.3-0.8,0.7-0.8s0.8,0.3,0.8,0.8v1.5h1.4c0.4,0,0.8,0.3,0.8,0.8S6.8,4.9,6.4,4.9H4.9z"/>
<path id="Combined-Shape-Copy_12_" class="st4" d="M43.2,42.9v1.3c0,0.3-0.3,0.6-0.6,0.6c-0.3,0-0.6-0.3-0.6-0.6v-1.3h-1.3
	c-0.3,0-0.6-0.3-0.6-0.6c0-0.3,0.3-0.6,0.6-0.6h1.3v-1.2c0-0.3,0.3-0.6,0.6-0.6c0.3,0,0.6,0.3,0.6,0.6v1.2h1.2
	c0.3,0,0.6,0.3,0.6,0.6c0,0.3-0.3,0.6-0.6,0.6H43.2z"/>
<path class="st8" d="M4.7,36.9v-26c0-0.6,0.4-1,1-1h35c0.6,0,1,0.4,1,1v26c0,0.6-0.4,1-1,1h-35C5.1,37.9,4.7,37.4,4.7,36.9z"/>
<path class="st5" d="M37.5,22.8h-12c-0.6,0-1-0.4-1-1v-8c0-0.6,0.4-1,1-1h12c0.6,0,1,0.4,1,1v8C38.5,22.4,38.1,22.8,37.5,22.8z"/>
<path class="st36" d="M35.7,21.4L35.7,21.4C35.7,21.4,35.7,21.3,35.7,21.4C35.7,21.3,35.7,21.4,35.7,21.4z"/>
<path class="st2" d="M27.2,21.2c0,0.1,0,0.1,0,0.2h1.3c0-0.1,0-0.1,0-0.2v-5.1c0-0.4-0.3-0.8-0.7-0.8c-0.4,0-0.7,0.3-0.7,0.8v1
	c0,0.1,0.1,0.2,0.1,0.3V21.2z"/>
<path class="st3" d="M27.1,21.4c0-0.1,0-0.1,0-0.2v-3.9c0-0.1,0-0.2-0.1-0.3c-0.1-0.3-0.4-0.5-0.6-0.5c-0.4,0-0.7,0.3-0.7,0.8v3.9
	c0,0.1,0,0.1,0,0.2H27.1z"/>
<path class="st2" d="M31.6,21.2c0,0.1,0,0.1,0,0.2h1.3c0-0.1,0-0.1,0-0.2v-3.7c0-0.4-0.3-0.8-0.7-0.8c-0.4,0-0.7,0.3-0.7,0.8v1.9
	c0,0.1,0.1,0.2,0.1,0.3V21.2z"/>
<path class="st3" d="M31.6,21.4c0-0.1,0-0.1,0-0.2v-1.5c0-0.1,0-0.2-0.1-0.3c-0.1-0.3-0.4-0.4-0.6-0.4c-0.4,0-0.7,0.3-0.7,0.8v1.5
	c0,0.1,0,0.1,0,0.2H31.6z"/>
<path class="st2" d="M35.8,21.2c0,0,0,0.1,0,0.1c0,0,0,0,0,0h1.3c0-0.1,0-0.1,0-0.2V18c0-0.4-0.3-0.8-0.7-0.8
	c-0.4,0-0.7,0.3-0.7,0.8v1.8c0,0.1,0,0.1,0,0.2V21.2z"/>
<path class="st3" d="M35.7,21.3c0,0,0-0.1,0-0.1v-1.1c0-0.1,0-0.1,0-0.2c-0.1-0.3-0.3-0.5-0.7-0.5c-0.4,0-0.7,0.3-0.7,0.8v1.1
	c0,0.1,0,0.1,0,0.2L35.7,21.3C35.7,21.4,35.7,21.3,35.7,21.3z"/>
<path class="st5" d="M20.5,34.8h-12c-0.6,0-1-0.4-1-1v-8c0-0.6,0.4-1,1-1h12c0.6,0,1,0.4,1,1v8C21.5,34.4,21.1,34.8,20.5,34.8z"/>
<g>
	<rect x="8.4" y="27.4" class="st1" width="2.5" height="6.5"/>
	<rect x="11.6" y="29.3" class="st2" width="2.5" height="4.5"/>
	<rect x="14.8" y="30.5" class="st37" width="2.5" height="3.4"/>
	<rect x="18" y="32.5" class="st3" width="2.5" height="1.4"/>
</g>
<g>
	<path class="st2" d="M25.5,34.1c-0.1,0-0.3-0.1-0.3-0.3v-8c0-0.1,0.1-0.3,0.3-0.3h12c0.1,0,0.3,0.1,0.3,0.3v8
		c0,0.1-0.1,0.3-0.3,0.3H25.5z"/>
	<g>
		<path class="st3" d="M37,26.3v7H26v-7H37 M37.5,24.8h-12c-0.6,0-1,0.4-1,1v8c0,0.6,0.4,1,1,1h12c0.6,0,1-0.4,1-1v-8
			C38.5,25.3,38.1,24.8,37.5,24.8L37.5,24.8z"/>
	</g>
</g>
<g>
	<path class="st3" d="M12.6,18.2c0,2.5,2,4.5,4.5,4.5s4.5-2,4.5-4.5s-2-4.5-4.5-4.5S12.6,15.8,12.6,18.2z M18.2,18.2
		c0,0.6-0.5,1.1-1.1,1.1c-0.6,0-1.1-0.5-1.1-1.1s0.5-1.1,1.1-1.1C17.7,17.1,18.2,17.6,18.2,18.2z"/>
	<path class="st9" d="M20.9,20.7L18,18.9c-0.2,0.3-0.5,0.5-0.9,0.5c-0.6,0-1.1-0.5-1.1-1.1h-3.4c0,2.5,2,4.5,4.5,4.5
		C18.7,22.7,20.1,21.9,20.9,20.7z"/>
	<path class="st4" d="M20.9,20.7L18,18.9c-0.2,0.3-0.5,0.5-0.9,0.5c-0.6,0-1.1-0.5-1.1-1.1h-3.4c0,2.5,2,4.5,4.5,4.5
		C18.7,22.7,20.1,21.9,20.9,20.7z"/>
	<path class="st5" d="M14.1,21.6l2.2-2.5c-0.2-0.2-0.4-0.5-0.4-0.8h-3.4C12.6,19.6,13.2,20.8,14.1,21.6z"/>
</g>
<line class="st29" x1="8.8" y1="13.8" x2="11.2" y2="13.8"/>
<circle class="st3" cx="9.5" cy="17.1" r="1"/>
<circle class="st3" cx="9.5" cy="20.4" r="1"/>
<rect x="27.5" y="27.6" class="st5" width="8" height="4.4"/>
</svg>
