<?xml version="1.0" encoding="utf-8"?>
<!-- Generator: Adobe Illustrator 18.1.1, SVG Export Plug-In . SVG Version: 6.00 Build 0)  -->
<svg version="1.1" id="Layer_1" xmlns="http://www.w3.org/2000/svg" xmlns:xlink="http://www.w3.org/1999/xlink" x="0px" y="0px"
	 width="46px" height="46px" viewBox="0 0 46 46" style="enable-background:new 0 0 46 46;" xml:space="preserve">
<style type="text/css">
	.st0{opacity:0.12;fill:#439BC3;enable-background:new    ;}
	.st1{fill:#FFFFFF;}
	.st2{fill:#E8F3F7;}
	.st3{fill:#113B58;}
	.st4{opacity:0.5517;fill:#74CAC8;enable-background:new    ;}
	.st5{fill:#74CAC8;}
	.st6{fill:none;stroke:#74CAC8;stroke-width:1.5;stroke-linejoin:round;}
	.st7{fill:none;stroke:#74CAC8;stroke-width:1.5;stroke-linejoin:round;stroke-dasharray:3.6,1.8;}
	.st8{fill:#FFFFFF;stroke:#113B58;stroke-width:1.5;}
	.st9{fill:#FFFFFF;enable-background:new    ;}
	.st10{fill:none;stroke:#113B58;stroke-width:1.5;stroke-linecap:round;}
	.st11{fill:none;stroke:#113B58;stroke-width:1.5;}
	.st12{filter:url(#Adobe_OpacityMaskFilter);}
	.st13{mask:url(#mask-2);fill:#FFFFFF;stroke:#113B58;stroke-width:1.5;}
	.st14{filter:url(#Adobe_OpacityMaskFilter_1_);}
	.st15{mask:url(#mask-4);fill:#FFFFFF;stroke:#113B58;stroke-width:1.5;}
	.st16{filter:url(#Adobe_OpacityMaskFilter_2_);}
	.st17{mask:url(#mask-6);fill:#FFFFFF;stroke:#113B58;stroke-width:1.5;}
	.st18{filter:url(#Adobe_OpacityMaskFilter_3_);}
	.st19{mask:url(#mask-8);fill:#FFFFFF;stroke:#113B58;stroke-width:1.5;}
	.st20{fill:#74CAC8;stroke:#113B58;stroke-width:1.5;}
	.st21{fill:#74CAC8;stroke:#113B58;stroke-width:1.5;stroke-linecap:round;}
	.st22{fill:#FFFFFF;stroke:#113B58;stroke-width:1.5;stroke-linecap:round;}
	.st23{fill:#74CAC8;stroke:#74CAC8;stroke-width:1.5;stroke-linejoin:round;}
	.st24{fill:#E8F3F7;stroke:#113B58;stroke-width:1.5;stroke-linecap:round;}
	.st25{fill:none;stroke:#113B58;stroke-width:1.5;stroke-linecap:round;stroke-linejoin:round;}
	.st26{fill:none;stroke:#113B58;stroke-width:1.5;stroke-linecap:round;stroke-dasharray:3.9081,3.9081;}
	.st27{fill:none;stroke:#FFFFFF;stroke-width:1.5;stroke-linecap:round;}
	.st28{fill:none;stroke:#FFFFFF;stroke-width:2;stroke-linecap:round;}
	.st29{fill:none;stroke:#74CAC8;stroke-width:1.5;stroke-linecap:round;}
	.st30{fill:none;stroke:#113B58;stroke-width:1.5;stroke-linejoin:round;}
	.st31{fill:none;stroke:#113B58;stroke-width:1.5;stroke-linejoin:round;stroke-dasharray:3.6923,1.8462;}
	.st32{fill:none;stroke:#113B58;stroke-width:1.5;stroke-linejoin:round;stroke-dasharray:4.5714,2.2857;}
	.st33{fill:#E8F3F7;stroke:#E8F3F7;stroke-width:1.5;stroke-linejoin:round;}
	.st34{fill:#FFFFFF;stroke:#74CAC8;stroke-width:1.5;stroke-linecap:round;}
	.st35{fill:#74CAC8;stroke:#113B58;stroke-width:1.5;stroke-linejoin:round;}
	.st36{fill:none;}
	.st37{opacity:0.55;fill:#FFFFFF;enable-background:new    ;}
</style>
<circle class="st1" cx="26.9" cy="21.7" r="11.9"/>
<circle class="st2" cx="26.9" cy="21.7" r="9"/>
<path class="st21" d="M19.9,23.7V13.3c0-0.6-0.4-1-1-1h-6.3c-0.6,0-1,0.4-1,1v10.4H19.9z"/>
<path class="st24" d="M11.6,23.7v-5.2c0-0.6-0.4-1-1-1H4.3c-0.6,0-1,0.4-1,1v5.2H11.6z"/>
<path class="st22" d="M33.4,32.3l2.9-2.9l5.9,5.9c0.4,0.4,0.4,1,0,1.4l-1.5,1.5c-0.4,0.4-1,0.4-1.4,0L33.4,32.3z"/>
<path id="Combined-Shape_24_" class="st3" d="M28,22.5v1.6c0,0.4-0.3,0.8-0.8,0.8s-0.8-0.3-0.8-0.8v-1.6h-1.6
	c-0.4,0-0.8-0.3-0.8-0.8s0.3-0.8,0.8-0.8h1.6v-1.5c0-0.4,0.3-0.8,0.8-0.8S28,19,28,19.4v1.5h1.5c0.4,0,0.8,0.3,0.8,0.8
	s-0.3,0.8-0.8,0.8H28z"/>
<path class="st5" d="M42.8,27.7h-2.6c-0.4,0-0.8-0.3-0.8-0.8v0c0-0.4,0.3-0.8,0.8-0.8h2.6c0.4,0,0.8,0.3,0.8,0.8v0
	C43.6,27.3,43.2,27.7,42.8,27.7z M36.6,27.7H34c-0.4,0-0.8-0.3-0.8-0.8v0c0-0.4,0.3-0.8,0.8-0.8h2.6c0.4,0,0.8,0.3,0.8,0.8v0
	C37.3,27.3,37,27.7,36.6,27.7z M30.3,27.7h-2.6c-0.4,0-0.8-0.3-0.8-0.8v0c0-0.4,0.3-0.8,0.8-0.8h2.6c0.4,0,0.8,0.3,0.8,0.8v0
	C31.1,27.3,30.8,27.7,30.3,27.7z M24.1,27.7h-2.6c-0.4,0-0.8-0.3-0.8-0.8v0c0-0.4,0.3-0.8,0.8-0.8h2.6c0.4,0,0.8,0.3,0.8,0.8v0
	C24.9,27.3,24.5,27.7,24.1,27.7z M17.9,27.7h-2.6c-0.4,0-0.8-0.3-0.8-0.8v0c0-0.4,0.3-0.8,0.8-0.8h2.6c0.4,0,0.8,0.3,0.8,0.8v0
	C18.7,27.3,18.3,27.7,17.9,27.7z M11.7,27.7H9.1c-0.4,0-0.8-0.3-0.8-0.8v0c0-0.4,0.3-0.8,0.8-0.8h2.6c0.4,0,0.8,0.3,0.8,0.8v0
	C12.4,27.3,12.1,27.7,11.7,27.7z M5.4,27.7H2.8c-0.4,0-0.8-0.3-0.8-0.8v0c0-0.4,0.3-0.8,0.8-0.8h2.6c0.4,0,0.8,0.3,0.8,0.8v0
	C6.2,27.3,5.9,27.7,5.4,27.7z"/>
<circle class="st10" cx="26.9" cy="21.7" r="11.9"/>
<path id="Combined-Shape-Copy_26_" class="st4" d="M6.7,40v1.3c0,0.3-0.3,0.6-0.6,0.6c-0.3,0-0.6-0.3-0.6-0.6V40H4.2
	c-0.3,0-0.6-0.3-0.6-0.6c0-0.3,0.3-0.6,0.6-0.6h1.3v-1.2c0-0.3,0.3-0.6,0.6-0.6c0.3,0,0.6,0.3,0.6,0.6v1.2h1.2
	c0.3,0,0.6,0.3,0.6,0.6c0,0.3-0.3,0.6-0.6,0.6H6.7z"/>
<path id="Combined-Shape_25_" class="st4" d="M42,6v1.5c0,0.4-0.3,0.7-0.8,0.7c-0.4,0-0.8-0.3-0.8-0.7V6h-1.6
	c-0.4,0-0.8-0.3-0.8-0.8s0.3-0.8,0.8-0.8h1.6V3c0-0.4,0.3-0.8,0.8-0.8C41.6,2.3,42,2.6,42,3v1.5h1.4c0.4,0,0.8,0.3,0.8,0.8
	S43.8,6,43.4,6H42z"/>
</svg>
