<?xml version="1.0" encoding="utf-8"?>
<!-- Generator: Adobe Illustrator 18.1.1, SVG Export Plug-In . SVG Version: 6.00 Build 0)  -->
<svg version="1.1" id="Layer_1" xmlns="http://www.w3.org/2000/svg" xmlns:xlink="http://www.w3.org/1999/xlink" x="0px" y="0px"
	 width="46px" height="46px" viewBox="0 0 46 46" style="enable-background:new 0 0 46 46;" xml:space="preserve">
<style type="text/css">
	.st0{opacity:0.12;fill:#439BC3;enable-background:new    ;}
	.st1{fill:#FFFFFF;}
	.st2{fill:#E8F3F7;}
	.st3{fill:#113B58;}
	.st4{opacity:0.5517;fill:#74CAC8;enable-background:new    ;}
	.st5{fill:#74CAC8;}
	.st6{fill:none;stroke:#74CAC8;stroke-width:1.5;stroke-linejoin:round;}
	.st7{fill:none;stroke:#74CAC8;stroke-width:1.5;stroke-linejoin:round;stroke-dasharray:3.6,1.8;}
	.st8{fill:#FFFFFF;stroke:#113B58;stroke-width:1.5;}
	.st9{fill:#FFFFFF;enable-background:new    ;}
	.st10{fill:none;stroke:#113B58;stroke-width:1.5;stroke-linecap:round;}
	.st11{fill:none;stroke:#113B58;stroke-width:1.5;}
	.st12{filter:url(#Adobe_OpacityMaskFilter);}
	.st13{mask:url(#mask-2);fill:#FFFFFF;stroke:#113B58;stroke-width:1.5;}
	.st14{filter:url(#Adobe_OpacityMaskFilter_1_);}
	.st15{mask:url(#mask-4);fill:#FFFFFF;stroke:#113B58;stroke-width:1.5;}
	.st16{filter:url(#Adobe_OpacityMaskFilter_2_);}
	.st17{mask:url(#mask-6);fill:#FFFFFF;stroke:#113B58;stroke-width:1.5;}
	.st18{filter:url(#Adobe_OpacityMaskFilter_3_);}
	.st19{mask:url(#mask-8);fill:#FFFFFF;stroke:#113B58;stroke-width:1.5;}
	.st20{fill:#74CAC8;stroke:#113B58;stroke-width:1.5;}
	.st21{fill:#74CAC8;stroke:#113B58;stroke-width:1.5;stroke-linecap:round;}
	.st22{fill:#FFFFFF;stroke:#113B58;stroke-width:1.5;stroke-linecap:round;}
	.st23{fill:#74CAC8;stroke:#74CAC8;stroke-width:1.5;stroke-linejoin:round;}
	.st24{fill:#E8F3F7;stroke:#113B58;stroke-width:1.5;stroke-linecap:round;}
	.st25{fill:none;stroke:#113B58;stroke-width:1.5;stroke-linecap:round;stroke-linejoin:round;}
	.st26{fill:none;stroke:#113B58;stroke-width:1.5;stroke-linecap:round;stroke-dasharray:3.9081,3.9081;}
	.st27{fill:none;stroke:#FFFFFF;stroke-width:1.5;stroke-linecap:round;}
	.st28{fill:none;stroke:#FFFFFF;stroke-width:2;stroke-linecap:round;}
	.st29{fill:none;stroke:#74CAC8;stroke-width:1.5;stroke-linecap:round;}
	.st30{fill:none;stroke:#113B58;stroke-width:1.5;stroke-linejoin:round;}
	.st31{fill:none;stroke:#113B58;stroke-width:1.5;stroke-linejoin:round;stroke-dasharray:3.6923,1.8462;}
	.st32{fill:none;stroke:#113B58;stroke-width:1.5;stroke-linejoin:round;stroke-dasharray:4.5714,2.2857;}
	.st33{fill:#E8F3F7;stroke:#E8F3F7;stroke-width:1.5;stroke-linejoin:round;}
	.st34{fill:#FFFFFF;stroke:#74CAC8;stroke-width:1.5;stroke-linecap:round;}
	.st35{fill:#74CAC8;stroke:#113B58;stroke-width:1.5;stroke-linejoin:round;}
	.st36{fill:none;}
	.st37{opacity:0.55;fill:#FFFFFF;enable-background:new    ;}
</style>
<path id="Path-3_22_" class="st0" d="M42.3,23.9C39,36.3,32.7,39.7,23.5,34.1C9.7,25.7,5.2,13.4,14.1,12.6
	c3.8-0.3,19.5-7.6,25.5-3.3C43.4,12.1,43.1,17.9,42.3,23.9z"/>
<line class="st10" x1="41.3" y1="24" x2="3.6" y2="24"/>
<path class="st22" d="M20.1,24h-4.3v-7.3c0-0.6,0.4-1,1-1h2.3c0.6,0,1,0.4,1,1V24z"/>
<path class="st21" d="M29.1,24.2h-4.3v13.7c0,0.6,0.4,1,1,1h2.3c0.6,0,1-0.4,1-1V24.2z"/>
<path class="st21" d="M36.9,24.2h-4.3v7.3c0,0.6,0.4,1,1,1h2.3c0.6,0,1-0.4,1-1V24.2z"/>
<path class="st24" d="M12.3,24H8V12.5c0-0.6,0.4-1,1-1h2.3c0.6,0,1,0.4,1,1V24z"/>
<path id="Combined-Shape_38_" class="st4" d="M42.3,5.5V7c0,0.4-0.3,0.8-0.8,0.8S40.8,7.4,40.8,7V5.5h-1.6c-0.4,0-0.8-0.3-0.8-0.8
	S38.8,4,39.2,4h1.6V2.5c0-0.4,0.3-0.8,0.8-0.8s0.8,0.3,0.8,0.8V4h1.4c0.4,0,0.8,0.3,0.8,0.7s-0.3,0.8-0.8,0.8H42.3z"/>
<g>
	<line class="st10" x1="26.9" y1="15.5" x2="34.6" y2="15.5"/>
	<polyline class="st25" points="32.9,13 35.4,15.5 32.9,18 	"/>
</g>
<g>
	<line class="st10" x1="18.6" y1="32.5" x2="11.4" y2="32.5"/>
	<polyline class="st25" points="12.6,35 10.1,32.5 12.6,30 	"/>
</g>
<path id="Combined-Shape_35_" class="st4" d="M5.9,41.6v1.5c0,0.4-0.3,0.8-0.8,0.8s-0.8-0.3-0.8-0.8v-1.5H2.8
	c-0.4,0-0.8-0.3-0.8-0.8c0-0.4,0.3-0.8,0.8-0.8h1.6v-1.5c0-0.4,0.3-0.8,0.8-0.8s0.8,0.3,0.8,0.8v1.5h1.4c0.4,0,0.8,0.3,0.8,0.8
	c0,0.4-0.3,0.8-0.8,0.8H5.9z"/>
</svg>
