<?xml version="1.0" encoding="UTF-8"?>
<svg width="35px" height="35px" viewBox="0 0 35 35" version="1.1" xmlns="http://www.w3.org/2000/svg" xmlns:xlink="http://www.w3.org/1999/xlink">
    <!-- Generator: sketchtool 50.2 (55047) - http://www.bohemiancoding.com/sketch -->
    <title>F4979301-1137-452E-8AB2-1A804B63AC0F</title>
    <desc>Created with sketchtool.</desc>
    <defs></defs>
    <g id="Use-Cases" stroke="none" stroke-width="1" fill="none" fill-rule="evenodd" opacity="0.7">
        <g id="Use_case_asset" transform="translate(-888.000000, -279.000000)" fill="#00B199" fill-rule="nonzero">
            <g id="pie-chart" transform="translate(888.000000, 279.000000)">
                <path d="M15.8126507,0 C7.12348233,0.00996881497 0.0820790021,7.05137214 0.0721101871,15.7405405 C0.0721101871,16.074896 0.343160083,16.3459459 0.677515593,16.3459459 L15.8126507,16.3459459 C16.1470062,16.3459459 16.4180561,16.074896 16.4180561,15.7405405 L16.4180561,0.605405405 C16.4180561,0.271049896 16.1470062,0 15.8126507,0 Z M15.2072453,15.1351351 L1.29572765,15.1351351 C1.61938669,7.58946985 7.66274428,1.54611227 15.2084096,1.22245322 L15.2072453,15.1351351 Z" id="Shape"></path>
                <path d="M34.8437734,17.0023597 C34.59579,13.1197609 33.0028898,9.44483368 30.3388877,6.60939709 C27.1707692,3.24917879 22.7593867,1.34098753 18.1411331,1.33305613 C17.819657,1.33305613 17.5590125,1.59370062 17.5590125,1.91517672 L17.5590125,17.4869023 L1.9872869,17.4869023 C1.66581081,17.4869023 1.40516632,17.7475468 1.40516632,18.0690229 C1.41178794,21.3443971 2.37614345,24.5462786 4.17955301,27.280499 C4.12323285,27.5951351 4.33112266,27.896237 4.64524948,27.9551767 C7.70465696,32.160052 12.5550312,34.6915489 17.7540229,34.7968399 C17.9737006,35.0032744 18.3165696,35.0014553 18.5340644,34.7927651 C18.7581809,34.787526 18.9822973,34.7857796 19.2081601,34.7718087 C28.4327339,34.1825572 35.4330249,26.2269335 34.8437734,17.0023597 Z M2.57988565,18.6511435 L16.2847505,18.6511435 L5.02712058,26.4824116 C3.51782744,24.1414865 2.67200624,21.4349168 2.57988565,18.6511435 Z M17.5590125,33.629106 C13.7980769,33.5029314 10.2130146,32.0060083 7.47901247,29.4203742 C6.83096674,28.8092204 6.23545738,28.144657 5.69888773,27.4335967 L17.5590125,19.1832017 L17.5590125,33.629106 Z M33.7045634,18.6516528 C33.6994699,18.7889605 33.6924844,18.9261227 33.6837526,19.0632848 C33.1888046,26.8839293 26.9560395,33.1166944 19.135395,33.6116424 C18.9980146,33.6197921 18.8606341,33.6215385 18.7232536,33.6267775 L18.7232536,2.50777547 C27.318264,2.82881497 34.0256029,10.0567152 33.7045634,18.6516528 Z" id="Shape"></path>
                <path d="M25.7087006,6.42661123 L20.4696154,6.42661123 C20.1481393,6.42661123 19.8874948,6.68725572 19.8874948,7.00873181 C19.8874948,7.3302079 20.1481393,7.59085239 20.4696154,7.59085239 L25.7087006,7.59085239 C26.0301767,7.59085239 26.2908212,7.3302079 26.2908212,7.00873181 C26.2908212,6.68725572 26.0301767,6.42661123 25.7087006,6.42661123 Z" id="Shape"></path>
                <path d="M27.4550624,8.75509356 L20.4696154,8.75509356 C20.1481393,8.75509356 19.8874948,9.01573805 19.8874948,9.33721414 C19.8874948,9.65869023 20.1481393,9.91933472 20.4696154,9.91933472 L27.4550624,9.91933472 C27.7765385,9.91933472 28.037183,9.65869023 28.037183,9.33721414 C28.037183,9.01573805 27.7765385,8.75509356 27.4550624,8.75509356 Z" id="Shape"></path>
                <path d="M27.4550624,11.0835759 L20.4696154,11.0835759 C20.1481393,11.0835759 19.8874948,11.3442204 19.8874948,11.6656965 C19.8874948,11.9871726 20.1481393,12.247817 20.4696154,12.247817 L27.4550624,12.247817 C27.7765385,12.247817 28.037183,11.9871726 28.037183,11.6656965 C28.037183,11.3442204 27.7765385,11.0835759 27.4550624,11.0835759 Z" id="Shape"></path>
                <path d="M15.8126507,29.7114345 L11.7378067,29.7114345 C11.4163306,29.7114345 11.1556861,29.972079 11.1556861,30.2935551 C11.1556861,30.6150312 11.4163306,30.8756757 11.7378067,30.8756757 L15.8126507,30.8756757 C16.1341268,30.8756757 16.3947713,30.6150312 16.3947713,30.2935551 C16.3947713,29.972079 16.1341268,29.7114345 15.8126507,29.7114345 Z" id="Shape"></path>
                <path d="M15.8126507,27.3829522 L11.7378067,27.3829522 C11.4163306,27.3829522 11.1556861,27.6435967 11.1556861,27.9650728 C11.1556861,28.2865489 11.4163306,28.5471933 11.7378067,28.5471933 L15.8126507,28.5471933 C16.1341268,28.5471933 16.3947713,28.2865489 16.3947713,27.9650728 C16.3947713,27.6435967 16.1341268,27.3829522 15.8126507,27.3829522 Z" id="Shape"></path>
                <path d="M15.8126507,25.0544699 L12.9020478,25.0544699 C12.5805717,25.0544699 12.3199272,25.3151143 12.3199272,25.6365904 C12.3199272,25.9580665 12.5805717,26.218711 12.9020478,26.218711 L15.8126507,26.218711 C16.1341268,26.218711 16.3947713,25.9580665 16.3947713,25.6365904 C16.3947713,25.3151143 16.1341268,25.0544699 15.8126507,25.0544699 Z" id="Shape"></path>
            </g>
        </g>
    </g>
</svg>