<?xml version="1.0" encoding="UTF-8"?>
<svg width="15px" height="10px" viewBox="0 0 15 10" version="1.1" xmlns="http://www.w3.org/2000/svg" xmlns:xlink="http://www.w3.org/1999/xlink">
    <!-- Generator: sketchtool 50.2 (55047) - http://www.bohemiancoding.com/sketch -->
    <title>44251ECB-4553-4027-9948-61FBD908CB55</title>
    <desc>Created with sketchtool.</desc>
    <defs></defs>
    <g id="Use-Cases" stroke="none" stroke-width="1" fill="none" fill-rule="evenodd">
        <g id="Use_case_asset" transform="translate(-797.000000, -419.000000)" fill="#4992C0" fill-rule="nonzero" stroke="#4992C0" stroke-width="0.3">
            <path d="M808.146399,421.753601 C808.243896,421.849107 808.371892,421.897104 808.499889,421.897104 C808.627885,421.897104 808.755882,421.849107 808.853379,421.753601 C809.048874,421.5621 809.048874,421.252565 808.853379,421.061064 L804.85399,417.143381 C804.807991,417.097832 804.752493,417.062079 804.690995,417.0371 C804.568998,416.987633 804.431002,416.987633 804.309005,417.0371 C804.247507,417.062079 804.192509,417.097832 804.14601,417.143381 L800.146621,421.061064 C799.951126,421.252565 799.951126,421.5621 800.146621,421.753601 C800.244118,421.849107 800.372115,421.897104 800.500111,421.897104 C800.628108,421.897104 800.756104,421.849107 800.853601,421.753601 L804.000014,418.671468 L804.000014,430.500014 C804.000014,430.776149 804.223865,431 804.5,431 L804.5,431 C804.776135,431 804.999986,430.776149 804.999986,430.500014 L804.999986,418.671468 L808.146399,421.753601 Z" id="Shape-Copy-5" transform="translate(804.500000, 424.000000) rotate(-270.000000) translate(-804.500000, -424.000000) "></path>
        </g>
    </g>
</svg>