<?xml version="1.0" encoding="UTF-8"?>
<svg width="12px" height="7px" viewBox="0 0 12 7" version="1.1" xmlns="http://www.w3.org/2000/svg" xmlns:xlink="http://www.w3.org/1999/xlink">
    <!-- Generator: Sketch 50.2 (55047) - http://www.bohemiancoding.com/sketch -->
    <title>Shape Copy 5</title>
    <desc>Created with Sketch.</desc>
    <defs></defs>
    <g id="Use-Cases" stroke="none" stroke-width="1" fill="none" fill-rule="evenodd">
        <g id="Use-Cases_1440" transform="translate(-1276.000000, -3667.000000)" fill="#FFFFFF" fill-rule="nonzero" stroke="#FFFFFF" stroke-width="0.3">
            <g id="block_7" transform="translate(0.000000, 3346.000000)">
                <g id="1" transform="translate(850.000000, 300.000000)">
                    <path d="M436.088423,27.32966 C436.197194,27.4367392 436.339992,27.4905533 436.482789,27.4905533 C436.625587,27.4905533 436.768385,27.4367392 436.877156,27.32966 C437.095257,27.1149525 437.095257,26.7679062 436.877156,26.5531987 L432.41529,22.160756 C432.363973,22.1096875 432.302056,22.0696015 432.233447,22.0415961 C432.097343,21.9861346 431.943389,21.9861346 431.807285,22.0415961 C431.738675,22.0696015 431.677317,22.1096875 431.625441,22.160756 L427.163576,26.5531987 C426.945475,26.7679062 426.945475,27.1149525 427.163576,27.32966 C427.272347,27.4367392 427.415145,27.4905533 427.557942,27.4905533 C427.70074,27.4905533 427.843538,27.4367392 427.952309,27.32966 L431.462563,23.8740228 L432.020366,23.4038791 L432.578169,23.8740228 L436.088423,27.32966 Z" id="Shape-Copy-5" transform="translate(432.020366, 24.745277) rotate(-180.000000) translate(-432.020366, -24.745277) "></path>
                </g>
            </g>
        </g>
    </g>
</svg>