<?xml version="1.0" encoding="UTF-8"?>
<svg width="26px" height="30px" viewBox="0 0 26 30" version="1.1" xmlns="http://www.w3.org/2000/svg" xmlns:xlink="http://www.w3.org/1999/xlink">
    <!-- Generator: sketchtool 50.2 (55047) - http://www.bohemiancoding.com/sketch -->
    <title>3C279FA5-ACF4-43BB-8341-6079CA94AB6E</title>
    <desc>Created with sketchtool.</desc>
    <defs></defs>
    <g id="Use-Cases" stroke="none" stroke-width="1" fill="none" fill-rule="evenodd">
        <g id="Use_case_asset" transform="translate(-743.000000, -132.000000)" fill-rule="nonzero">
            <g id="chart_green" transform="translate(743.000000, 132.000000)">
                <path d="M13.5109265,0.000113254607 C9.95942571,-0.0143282617 6.54414135,1.3528616 4,3.80748064 L13.5012141,13 L23,3.80748064 C20.4591517,1.3553436 17.0486175,-0.0116897245 13.5012141,0.000113254607" id="Shape" fill="#119A98" opacity="0.915513393"></path>
                <path d="M22.1939977,7 L13.0046968,16.5187116 L22.1939977,26.0374232 C17.6247262,30.7332487 10.5507883,31.3149114 5.35359987,27.4221442 C10.5469474,31.319538 17.6206015,30.7452215 22.1939977,26.0548568 C24.6265036,23.5599863 26,20.1249078 26,16.5361452 C26,12.9473825 24.6265036,9.51230405 22.1939977,7.01743354 L22.1939977,7 Z M3.8060023,7 C1.37349645,9.49487051 0,12.929949 0,16.5187116 C0,20.1074743 1.37349645,23.5425527 3.8060023,26.0374232 C4.02440378,26.2665497 4.24985047,26.4832237 4.48234236,26.6924262 C4.24750206,26.4832237 4.01266177,26.2665497 3.8060023,26.0374232 L12.9953032,16.5187116 L3.8060023,7 Z M4.53165883,26.7347647 L4.58097529,26.7820843 L4.53165883,26.7347647 Z M5.17277284,27.2727139 L5.27140577,27.3474291 L5.17277284,27.2727139 Z" id="Shape" fill="#06AFA1" opacity="0.301395089"></path>
                <path d="M12.9893347,16.4931984 L3.83140661,26.0339371 C4.05722131,26.2526432 4.45891374,26.6158554 4.69929712,26.8177379 L4.75028754,26.8609985 C4.76845675,26.8740069 4.78551134,26.8884761 4.80127796,26.904259 C5.0028115,27.0676877 5.20677316,27.2263097 5.41316294,27.3849316 L5.51514377,27.4570325 L5.59041534,27.5123099 C10.9589837,31.2726283 17.501636,30.558131 22.2305016,26.0339371 L12.9893347,16.4931984 Z" id="Shape" fill="#119A98" opacity="0.915513393"></path>
            </g>
        </g>
    </g>
</svg>