<?xml version="1.0" encoding="UTF-8"?>
<svg width="36px" height="33px" viewBox="0 0 36 33" version="1.1" xmlns="http://www.w3.org/2000/svg" xmlns:xlink="http://www.w3.org/1999/xlink">
    <!-- Generator: sketchtool 50.2 (55047) - http://www.bohemiancoding.com/sketch -->
    <title>23C75C61-E825-4F58-8554-0E9B0F4B6159</title>
    <desc>Created with sketchtool.</desc>
    <defs></defs>
    <g id="Use-Cases" stroke="none" stroke-width="1" fill="none" fill-rule="evenodd" opacity="0.7">
        <g id="Use_case_asset" transform="translate(-817.000000, -283.000000)" fill="#00B199" fill-rule="nonzero">
            <g id="presentation" transform="translate(817.000000, 283.000000)">
                <path d="M35.4,0.0684638009 L0.6,0.0684638009 C0.26865,0.0684638009 0,0.33589819 0,0.665748869 L0,3.05488914 C0,3.38473982 0.26865,3.65217421 0.6,3.65217421 L0.6,25.7517217 C0.6,26.0815724 0.86865,26.3490068 1.2,26.3490068 L6.189,26.3490068 L3.0732,32.0357579 C2.9145,32.3253665 3.021675,32.6882919 3.3126,32.8462738 C3.603525,33.0042557 3.9681,32.8975656 4.1268,32.607957 L7.5564,26.3490068 L28.4136,26.3490068 L31.254,32.5691335 C31.384425,32.872405 31.737075,33.012991 32.041725,32.8831561 C32.346375,32.7533213 32.4876,32.402267 32.357175,32.0989955 C32.35365,32.0907828 32.3499,32.0826448 32.346,32.0745814 L29.7318,26.3490068 L34.8,26.3490068 C35.13135,26.3490068 35.4,26.0815724 35.4,25.7517217 L35.4,3.65217421 C35.73135,3.65217421 36,3.38473982 36,3.05488914 L36,0.665748869 C36,0.33589819 35.73135,0.0684638009 35.4,0.0684638009 Z M34.2,25.1544367 L1.8,25.1544367 L1.8,3.65217421 L34.2,3.65217421 L34.2,25.1544367 Z M34.8,2.45760407 L1.2,2.45760407 L1.2,1.26303394 L34.8,1.26303394 L34.8,2.45760407 Z" id="Shape"></path>
                <path d="M22.2,6.04131448 C18.556725,6.04557014 15.604275,8.98466063 15.6,12.6114502 C15.6,12.9413009 15.86865,13.2087353 16.2,13.2087353 L22.2,13.2087353 C22.53135,13.2087353 22.8,12.9413009 22.8,12.6114502 L22.8,6.63859955 C22.8,6.30874887 22.53135,6.04131448 22.2,6.04131448 Z M21.6,12.0141652 L16.833,12.0141652 C17.1174,9.51997738 19.094475,7.55184842 21.6,7.26873529 L21.6,12.0141652 Z" id="Shape"></path>
                <path d="M24.6,6.63859955 C24.26865,6.63859955 24,6.90603394 24,7.23588462 L24,14.4033054 L16.8,14.4033054 C16.46865,14.4033054 16.2,14.6707398 16.2,15.0005905 C16.2,19.6187986 19.9608,23.3625814 24.6,23.3625814 C29.2392,23.3625814 33,19.6187986 33,15.0005905 C33,10.3823824 29.2392,6.63859955 24.6,6.63859955 Z M24.000375,22.1432986 C20.4975,21.8517489 17.718075,19.0849751 17.4252,15.5978756 L24.6,15.5978756 C24.93135,15.5978756 25.2,15.3304412 25.2,15.0005905 L25.2,7.85825566 C29.162625,8.18803167 32.10645,11.653181 31.775175,15.5978756 C31.4439,19.5425701 27.963,22.4730747 24.000375,22.1432986 Z" id="Shape"></path>
                <path d="M12,4.84674434 L3.6,4.84674434 C3.26865,4.84674434 3,5.11417873 3,5.44402941 C3,5.77388009 3.26865,6.04131448 3.6,6.04131448 L12,6.04131448 C12.33135,6.04131448 12.6,5.77388009 12.6,5.44402941 C12.6,5.11417873 12.33135,4.84674434 12,4.84674434 Z" id="Shape"></path>
                <path d="M12,7.23588462 L3.6,7.23588462 C3.26865,7.23588462 3,7.503319 3,7.83316968 C3,8.16302036 3.26865,8.43045475 3.6,8.43045475 L12,8.43045475 C12.33135,8.43045475 12.6,8.16302036 12.6,7.83316968 C12.6,7.503319 12.33135,7.23588462 12,7.23588462 Z" id="Shape"></path>
                <path d="M12,9.62502489 L3.6,9.62502489 C3.26865,9.62502489 3,9.89245928 3,10.22231 C3,10.5521606 3.26865,10.819595 3.6,10.819595 L12,10.819595 C12.33135,10.819595 12.6,10.5521606 12.6,10.22231 C12.6,9.89245928 12.33135,9.62502489 12,9.62502489 Z" id="Shape"></path>
                <path d="M12,22.7652964 L3.6,22.7652964 C3.26865,22.7652964 3,23.0327308 3,23.3625814 C3,23.6924321 3.26865,23.9598665 3.6,23.9598665 L12,23.9598665 C12.33135,23.9598665 12.6,23.6924321 12.6,23.3625814 C12.6,23.0327308 12.33135,22.7652964 12,22.7652964 Z" id="Shape"></path>
                <ellipse id="Oval" cx="4.2" cy="20.3761561" rx="1.2" ry="1.19457014"></ellipse>
                <ellipse id="Oval" cx="11.4" cy="20.3761561" rx="1.2" ry="1.19457014"></ellipse>
                <ellipse id="Oval" cx="7.8" cy="20.3761561" rx="1.2" ry="1.19457014"></ellipse>
            </g>
        </g>
    </g>
</svg>