<?xml version="1.0" encoding="UTF-8"?>
<svg width="36px" height="37px" viewBox="0 0 36 37" version="1.1" xmlns="http://www.w3.org/2000/svg" xmlns:xlink="http://www.w3.org/1999/xlink">
    <!-- Generator: sketchtool 50.2 (55047) - http://www.bohemiancoding.com/sketch -->
    <title>7A29460E-1565-409C-B82D-63EAF26D808C</title>
    <desc>Created with sketchtool.</desc>
    <defs></defs>
    <g id="Use-Cases" stroke="none" stroke-width="1" fill="none" fill-rule="evenodd">
        <g id="Use_case_asset" transform="translate(-743.000000, -279.000000)" fill="#00B199" fill-rule="nonzero">
            <g id="career" transform="translate(743.000000, 279.000000)">
                <path d="M28.6666667,6 L24.6666667,6 C24.2985,6 24,6.30174457 24,6.67391304 L24,14.7608696 L16,14.7608696 C15.6318333,14.7608696 15.3333333,15.0626141 15.3333333,15.4347826 L15.3333333,23.5217391 L6.66666667,23.5217391 C6.2985,23.5217391 6,23.8234837 6,24.1956522 L6,36.326087 C6,36.6982554 6.2985,37 6.66666667,37 C7.03483333,37 7.33333333,36.6982554 7.33333333,36.326087 L7.33333333,24.8695652 L16,24.8695652 C16.3681667,24.8695652 16.6666667,24.5678207 16.6666667,24.1956522 L16.6666667,16.1086957 L24.6666667,16.1086957 C25.0348333,16.1086957 25.3333333,15.8069511 25.3333333,15.4347826 L25.3333333,7.34782609 L34.6666667,7.34782609 L34.6666667,36.326087 C34.6666667,36.6982554 34.9651667,37 35.3333333,37 C35.7015,37 36,36.6982554 36,36.326087 L36,6.67391304 C36,6.30174457 35.7015,6 35.3333333,6 L30,6 L28.6666667,6 Z" id="Shape"></path>
                <path d="M0.5,34 C0.223875,34 0,34.26865 0,34.6 L0,36.4 C0,36.73135 0.223875,37 0.5,37 C0.776125,37 1,36.73135 1,36.4 L1,34.6 C1,34.26865 0.7761875,34 0.5,34 Z" id="Shape"></path>
                <path d="M22.8099915,2.21606696 L20.7798501,0.194108055 C20.7737597,0.188042178 20.7656391,0.18602022 20.7595487,0.180628329 C20.7018588,0.124181976 20.6344412,0.0786036526 20.5605948,0.0458310686 C20.5551811,0.0458310686 20.5490907,0.0458310686 20.5430003,0.0417871508 C20.4741447,0.0160071747 20.4013979,0.00185346233 20.3278053,0 C20.3061505,0 20.2851723,0 20.2601339,0.00336993151 C20.2015982,0.00657136645 20.1438237,0.0176921405 20.0882486,0.0363952604 C20.0665938,0.0438091097 20.0456157,0.0498749864 20.0246375,0.0593107947 C19.9492685,0.0915778889 19.8804975,0.137240461 19.8216234,0.194108055 L17.791482,2.21606696 C17.5318777,2.48380802 17.5393216,2.9105256 17.8081461,3.1690836 C18.0703727,3.42132297 18.4861287,3.42132297 18.7483553,3.1690836 L19.6246997,2.29761931 L19.6246997,8.0844657 L10.1507067,8.0844657 C9.77699155,8.0844657 9.47399295,8.38624307 9.47399295,8.75845201 L9.47399295,17.5202739 L0.676713782,17.5202739 C0.302998596,17.5202739 0,17.8220513 0,18.1942602 L0,30.3260137 C0,30.6982226 0.302998596,31 0.676713782,31 C1.05042897,31 1.35342756,30.6982226 1.35342756,30.3260137 L1.35342756,18.8682465 L10.1507067,18.8682465 C10.5244219,18.8682465 10.8274205,18.5664692 10.8274205,18.1942602 L10.8274205,9.43243831 L20.3014135,9.43243831 C20.6751287,9.43243831 20.9781272,9.13066094 20.9781272,8.75845201 L20.9781272,2.29761931 L21.8531182,3.1690836 C22.1219427,3.42772584 22.5503025,3.42031199 22.8099915,3.15257093 C23.0633362,2.89140124 23.0633362,2.47723666 22.8099915,2.21606696 Z" id="Shape"></path>
                <path d="M14.3,26 L8.7,26 C8.313425,26 8,26.223875 8,26.5 C8,26.776125 8.313425,27 8.7,27 L14.3,27 C14.686575,27 15,26.776125 15,26.5 C15,26.223875 14.6866625,26 14.3,26 Z" id="Shape"></path>
                <path d="M24.3,17 L18.7,17 C18.313425,17 18,17.223875 18,17.5 C18,17.776125 18.313425,18 18.7,18 L24.3,18 C24.686575,18 25,17.776125 25,17.5 C25,17.223875 24.6866625,17 24.3,17 Z" id="Shape"></path>
                <path d="M33.3,8 L27.7,8 C27.313425,8 27,8.223875 27,8.5 C27,8.776125 27.313425,9 27.7,9 L33.3,9 C33.686575,9 34,8.776125 34,8.5 C34,8.223875 33.6866625,8 33.3,8 Z" id="Shape"></path>
            </g>
        </g>
    </g>
</svg>