<?xml version="1.0" encoding="utf-8"?>
<!-- Generator: Adobe Illustrator 19.2.1, SVG Export Plug-In . SVG Version: 6.00 Build 0)  -->
<svg version="1.1" id="Layer_2" xmlns="http://www.w3.org/2000/svg" xmlns:xlink="http://www.w3.org/1999/xlink" x="0px" y="0px"
	 width="46px" height="46px" viewBox="0 0 46 46" style="enable-background:new 0 0 46 46;" xml:space="preserve">
<style type="text/css">
	.st0{opacity:0.12;fill:#439BC3;enable-background:new    ;}
	.st1{fill:#FFFFFF;stroke:#113B58;stroke-width:1.5;}
	.st2{fill:#74CAC8;stroke:#113B58;stroke-width:1.5;stroke-linecap:round;}
	.st3{fill:#E8F3F7;}
	.st4{fill:#74CAC8;}
	.st5{fill:none;stroke:#113B58;stroke-width:1.5;stroke-linecap:round;stroke-linejoin:round;}
	.st6{opacity:0.5517;fill:#74CAC8;enable-background:new    ;}
</style>
<path id="Path-3_5_" class="st0" d="M37.4,19.3c8,8.9,7.5,15.5-1.6,19.9c-13.6,6.6-25.5,3.8-21.6-3.5c1.7-3.2,4.4-18,10.4-21.6
	C26.8,12.6,33,15.6,37.4,19.3z"/>
<path class="st1" d="M35,35.5H11c-0.6,0-1-0.4-1-1V4.8c0-0.6,0.4-1,1-1h24c0.6,0,1,0.4,1,1v29.7C36,35,35.6,35.5,35,35.5z"/>
<g>
	<g>
		<path class="st2" d="M21.4,29.8l-0.5-1.2c0,0,1.1-2.6,1-2.7l-1.5-1.5c-0.1-0.1-2.6,1.1-2.6,1.1l-1.2-0.5c0,0-1-2.6-1.2-2.6h-2.1
			c-0.1,0-1.1,2.6-1.1,2.6l-1.2,0.5c0,0-2.6-1.1-2.7-1L7,26.1c-0.1,0.1,1.1,2.6,1.1,2.6l-0.5,1.2c0,0-2.6,1-2.6,1.2v2.1
			c0,0.1,2.6,1.1,2.6,1.1l0.5,1.2c0,0-1.1,2.6-1,2.7l1.5,1.5c0.1,0.1,2.6-1.1,2.6-1.1l1.2,0.5c0,0,1,2.6,1.2,2.6h2.1
			c0.1,0,1.1-2.6,1.1-2.6l1.2-0.5c0,0,2.6,1.1,2.7,1l1.5-1.5c0.1-0.1-1.1-2.6-1.1-2.6l0.5-1.2c0,0,2.6-1,2.6-1.2v-2.1
			C24,30.8,21.4,29.8,21.4,29.8L21.4,29.8z M17.6,32c0,1.7-1.4,3-3,3c-1.7,0-3-1.4-3-3c0-1.7,1.4-3,3-3C16.2,29,17.6,30.3,17.6,32
			L17.6,32z M17.6,32"/>
	</g>
</g>
<g>
	<path class="st3" d="M20.2,13.2h-4c-0.6,0-1-0.4-1-1v-4c0-0.6,0.4-1,1-1h4c0.6,0,1,0.4,1,1v4C21.2,12.8,20.8,13.2,20.2,13.2z"/>
	<path class="st3" d="M20.2,20.4h-4c-0.6,0-1-0.4-1-1v-4c0-0.6,0.4-1,1-1h4c0.6,0,1,0.4,1,1v4C21.2,20,20.8,20.4,20.2,20.4z"/>
	<g>
		<path class="st4" d="M31.9,9.6h-7c-0.4,0-0.8-0.3-0.8-0.8s0.3-0.8,0.8-0.8h7c0.4,0,0.8,0.3,0.8,0.8S32.3,9.6,31.9,9.6z"/>
		<path class="st4" d="M27.9,12.5h-3c-0.4,0-0.8-0.3-0.8-0.8s0.3-0.8,0.8-0.8h3c0.4,0,0.8,0.3,0.8,0.8S28.3,12.5,27.9,12.5z"/>
		<path class="st4" d="M31.9,16.7h-7c-0.4,0-0.8-0.3-0.8-0.8s0.3-0.8,0.8-0.8h7c0.4,0,0.8,0.3,0.8,0.8S32.3,16.7,31.9,16.7z"/>
		<path class="st4" d="M27.9,19.6h-3c-0.4,0-0.8-0.3-0.8-0.8s0.3-0.8,0.8-0.8h3c0.4,0,0.8,0.3,0.8,0.8S28.3,19.6,27.9,19.6z"/>
		<path class="st4" d="M31.9,23.7h-7c-0.4,0-0.8-0.3-0.8-0.8s0.3-0.8,0.8-0.8h7c0.4,0,0.8,0.3,0.8,0.8S32.3,23.7,31.9,23.7z"/>
		<path class="st4" d="M27.9,26.6h-3c-0.4,0-0.8-0.3-0.8-0.8s0.3-0.8,0.8-0.8h3c0.4,0,0.8,0.3,0.8,0.8S28.3,26.6,27.9,26.6z"/>
	</g>
	<polyline class="st5" points="21.1,8.3 18.5,10.9 17.5,9.9 	"/>
	<polyline class="st5" points="21.1,15.7 18.5,18.3 17.5,17.3 	"/>
</g>
<path id="Combined-Shape-Copy_5_" class="st6" d="M41,40.9v1.3c0,0.3-0.3,0.6-0.6,0.6c-0.3,0-0.6-0.3-0.6-0.6v-1.3h-1.3
	c-0.3,0-0.6-0.3-0.6-0.6c0-0.3,0.3-0.6,0.6-0.6h1.3v-1.2c0-0.3,0.3-0.6,0.6-0.6c0.3,0,0.6,0.3,0.6,0.6v1.2h1.2
	c0.3,0,0.6,0.3,0.6,0.6c0,0.3-0.3,0.6-0.6,0.6H41z"/>
</svg>
