<svg xmlns="http://www.w3.org/2000/svg" xmlns:xlink="http://www.w3.org/1999/xlink" viewBox="0 0 76.43 16.77"><defs><style>.cls-1{fill:none;}.cls-2{fill:#fff;}.cls-3{opacity:0.8;}.cls-4{clip-path:url(#clip-path);}.cls-5{clip-path:url(#clip-path-2);}.cls-6{clip-path:url(#clip-path-3);}.cls-7{clip-path:url(#clip-path-4);}.cls-8{clip-path:url(#clip-path-5);}.cls-9{clip-path:url(#clip-path-6);}.cls-10{clip-path:url(#clip-path-7);}.cls-11{clip-path:url(#clip-path-8);}</style><clipPath id="clip-path"><rect class="cls-1" y="2.77" width="2.99" height="11.21"/></clipPath><clipPath id="clip-path-2"><rect class="cls-1" y="2.77" width="2.99" height="11.21"/></clipPath><clipPath id="clip-path-3"><rect class="cls-1" y="2.77" width="8.58" height="8.58"/></clipPath><clipPath id="clip-path-4"><rect class="cls-1" y="2.77" width="8.58" height="8.58"/></clipPath><clipPath id="clip-path-5"><rect class="cls-1" x="9.93" y="2.77" width="2.99" height="11.21"/></clipPath><clipPath id="clip-path-6"><rect class="cls-1" x="9.93" y="2.77" width="2.99" height="11.21"/></clipPath><clipPath id="clip-path-7"><rect class="cls-1" x="4.34" y="2.77" width="8.58" height="8.58"/></clipPath><clipPath id="clip-path-8"><rect class="cls-1" x="4.34" y="2.77" width="8.58" height="8.58"/></clipPath></defs><title>logo-white</title><g id="Layer_2" data-name="Layer 2"><g id="Layer_1-2" data-name="Layer 1"><path class="cls-2" d="M74.77,10.29h0a.83.83,0,0,1,.83-.83.82.82,0,0,1,.83.82h0a.83.83,0,0,1-1.66,0m1.5,0h0a.66.66,0,0,0-.67-.67.67.67,0,0,0-.67.68h0a.67.67,0,1,0,1.34,0m-1-.44h.38c.18,0,.32.09.32.27a.25.25,0,0,1-.19.25l.22.32h-.2l-.19-.29h-.18v.29h-.16Zm.36.42c.11,0,.17-.06.17-.14s-.06-.14-.17-.14h-.2v.28Z"/><path class="cls-2" d="M24.52,5.91a.31.31,0,0,1,.3-.3h.07a.33.33,0,0,1,.29.16l2,3,2-3a.32.32,0,0,1,.29-.16h.07a.31.31,0,0,1,.3.3v4.95a.31.31,0,0,1-.3.31.32.32,0,0,1-.32-.31V6.75L27.4,9.34a.29.29,0,0,1-.52,0L25.12,6.76v4.11a.3.3,0,0,1-.6,0Z"/><path class="cls-2" d="M32.91,10.82V5.94a.31.31,0,0,1,.31-.31h3.42a.29.29,0,0,1,0,.57H33.53V8.07h2.75a.3.3,0,0,1,.29.29.28.28,0,0,1-.29.28H33.53v1.93h3.15a.28.28,0,0,1,0,.56H33.22a.31.31,0,0,1-.31-.31"/><path class="cls-2" d="M41.2,6.2H39.61a.28.28,0,0,1-.29-.28.29.29,0,0,1,.29-.29h3.82a.3.3,0,0,1,.29.29.29.29,0,0,1-.29.28h-1.6v4.66a.32.32,0,0,1-.63,0Z"/><path class="cls-2" d="M46.41,5.94a.31.31,0,0,1,.31-.31h2.06a2.18,2.18,0,0,1,1.56.55,1.52,1.52,0,0,1,.43,1.09h0a1.62,1.62,0,0,1-1.47,1.6l1.36,1.76a.31.31,0,0,1,.11.23.33.33,0,0,1-.32.3.37.37,0,0,1-.29-.16L48.61,9H47v1.87a.31.31,0,1,1-.62,0Zm2.31,2.5c.83,0,1.42-.43,1.42-1.14h0c0-.68-.52-1.09-1.41-1.09H47V8.44Z"/><path class="cls-2" d="M53.72,5.91a.31.31,0,1,1,.62,0v4.95a.31.31,0,0,1-.62,0Z"/><path class="cls-2" d="M57.28,8.4v0a2.77,2.77,0,0,1,2.78-2.84,2.87,2.87,0,0,1,2,.71.35.35,0,0,1,.12.25.32.32,0,0,1-.31.31.34.34,0,0,1-.2-.07,2.26,2.26,0,0,0-1.58-.63,2.16,2.16,0,0,0-2.14,2.26h0a2.17,2.17,0,0,0,2.14,2.27A2.25,2.25,0,0,0,61.69,10a.29.29,0,0,1,.2-.09.31.31,0,0,1,.3.3.3.3,0,0,1-.11.22,2.83,2.83,0,0,1-2,.81A2.74,2.74,0,0,1,57.28,8.4"/><path class="cls-2" d="M64.9,5.91a.31.31,0,0,1,.3-.32.32.32,0,0,1,.32.32v4.65h2.85a.28.28,0,0,1,.28.29.27.27,0,0,1-.28.28H65.2a.31.31,0,0,1-.3-.31Z"/><path class="cls-2" d="M72,9,70,6.11a.38.38,0,0,1-.07-.21.32.32,0,0,1,.32-.31.37.37,0,0,1,.3.19L72.35,8.4l1.83-2.62c.08-.11.15-.19.29-.19a.3.3,0,0,1,.3.31.49.49,0,0,1-.08.23L72.65,9v1.9a.31.31,0,0,1-.31.31.32.32,0,0,1-.32-.31Z"/><path class="cls-2" d="M18.73,16.77a.23.23,0,0,1-.23-.23V.22A.22.22,0,0,1,18.73,0,.22.22,0,0,1,19,.22V16.54a.22.22,0,0,1-.22.23"/><g class="cls-3"><g class="cls-4"><g class="cls-5"><path class="cls-2" d="M1.5,2.77h0A1.5,1.5,0,0,0,0,4.27v8.21A1.5,1.5,0,0,0,1.5,14,1.5,1.5,0,0,0,3,12.48V4.27A1.5,1.5,0,0,0,1.5,2.77"/></g></g></g><g class="cls-3"><g class="cls-6"><g class="cls-7"><path class="cls-2" d="M2.55,3.21a1.48,1.48,0,0,0-2.11,0,1.48,1.48,0,0,0,0,2.11l6,6L8.58,9.23Z"/></g></g></g><g class="cls-3"><g class="cls-8"><g class="cls-9"><path class="cls-2" d="M11.43,2.77h0a1.5,1.5,0,0,0-1.5,1.5v8.21a1.5,1.5,0,1,0,3,0V4.27a1.5,1.5,0,0,0-1.49-1.5"/></g></g></g><g class="cls-3"><g class="cls-10"><g class="cls-11"><path class="cls-2" d="M6.46,11.35l6-6a1.5,1.5,0,0,0-2.12-2.11L6.46,7.11,4.34,9.23Z"/></g></g></g></g></g></svg>