<svg xmlns="http://www.w3.org/2000/svg" viewBox="0 0 39.69 28.31"><defs><style>.cls-1{isolation:isolate;}.cls-2{fill:#3ca5d5;}.cls-2,.cls-3,.cls-4{mix-blend-mode:multiply;}.cls-3{fill:#96ca4f;}.cls-4{fill:#00a98f;}</style></defs><title>email-icon</title><g class="cls-1"><g id="Layer_2" data-name="Layer 2"><g id="Layer_1-2" data-name="Layer 1"><path class="cls-2" d="M28,4.28H2.14A2.14,2.14,0,0,1,2.14,0H28a2.14,2.14,0,1,1,0,4.28Z"/><path class="cls-3" d="M37.55,28.31H2.14a2.14,2.14,0,0,1,0-4.28H37.55a2.14,2.14,0,0,1,0,4.28Z"/><path class="cls-4" d="M2.14,28.31A2.14,2.14,0,0,1,0,26.17v-24a2.14,2.14,0,0,1,4.28,0v24A2.14,2.14,0,0,1,2.14,28.31Z"/><path class="cls-4" d="M37.55,28.31a2.14,2.14,0,0,1-2.14-2.14v-24a2.14,2.14,0,0,1,4.28,0v24A2.14,2.14,0,0,1,37.55,28.31Z"/><path class="cls-2" d="M19.84,21.05a2.14,2.14,0,0,1-1.47-.58L6.54,9.26A2.14,2.14,0,0,1,9.48,6.15L21.31,17.36a2.14,2.14,0,0,1-1.47,3.69Z"/><path class="cls-3" d="M19.84,21.05a2.14,2.14,0,0,1-1.47-3.69L36.08.59A2.14,2.14,0,1,1,39,3.69L21.31,20.47A2.12,2.12,0,0,1,19.84,21.05Z"/></g></g></g></svg>