<svg height="50" viewBox="0 0 63 50" width="63" xmlns="http://www.w3.org/2000/svg"><g fill="none" fill-rule="evenodd" transform=""><path d="m37.991513 9.2242087c11.1596522 12.3589565 10.4236522 21.5777391-2.2066087 27.6549565-18.9453913 9.1186087-35.45739126 5.3022609-30.09252169-4.9238261 2.30121739-4.3853913 6.18573909-25.10191301 14.43756519-30.11617388 3.0497392-1.8546087 11.7996522 2.21356521 17.8615652 7.38504348" fill="#009cc6" opacity=".15"/><path d="m59.9425391 5.5584v2.10504348c0 .576-.4674782 1.04347826-1.0434782 1.04347826s-1.0434783-.46747826-1.0434783-1.04347826v-2.10504348h-2.1676522c-.576 0-1.0434782-.46747826-1.0434782-1.04347826s.4674782-1.04347826 1.0434782-1.04347826h2.1676522v-2.06886957c0-.576.4674783-1.04347826 1.0434783-1.04347826s1.0434782.46747826 1.0434782 1.04347826v2.06886957h2.0062609c.5773913 0 1.0434783.46747826 1.0434783 1.04347826s-.466087 1.04347826-1.0434783 1.04347826z" fill="#17cbc9"/><path d="m4.7986087 46.4307478v1.7544348c0 .4786087-.38817392.8695652-.86956522.8695652-.48 0-.86956522-.3909565-.86956522-.8695652v-1.7544348h-1.80591304c-.48 0-.86956522-.3881739-.86956522-.8695652 0-.48.38956522-.8695652.86956522-.8695652h1.80591304v-1.7238261c0-.48.38956522-.8695652.86956522-.8695652.4813913 0 .86956522.3895652.86956522.8695652v1.7238261h1.67234782c.48139131 0 .86956522.3895652.86956522.8695652 0 .4813913-.38817391.8695652-.86956522.8695652z" fill="#17cbc9"/><path d="m53.9710609 22.6195478h-33.728" stroke="#003858" stroke-linecap="round" stroke-width="1.5"/><path d="m48.5743304 38.471513h-33.728" stroke="#003858" stroke-linecap="round" stroke-width="1.5"/><path d="m49.5866435 18.9510957v7.3363478c0 .768-.6233044 1.3913043-1.3913044 1.3913043h-16.7805217c-.768 0-1.3913044-.6233043-1.3913044-1.3913043v-7.3363478c0-.768.6233044-1.3913044 1.3913044-1.3913044h16.7805217c.768 0 1.3913044.6233044 1.3913044 1.3913044" fill="#17cbc9"/><path d="m49.5866435 18.9510957v7.3363478c0 .768-.6233044 1.3913043-1.3913044 1.3913043h-16.7805217c-.768 0-1.3913044-.6233043-1.3913044-1.3913043v-7.3363478c0-.768.6233044-1.3913044 1.3913044-1.3913044h16.7805217c.768 0 1.3913044.6233044 1.3913044 1.3913044z" stroke="#003858" stroke-width="1.5"/><path d="m40.1423304 35.141287v7.3349565c0 .7693913-.6233043 1.3913043-1.3913043 1.3913043h-7.3349565c-.7693913 0-1.3913044-.621913-1.3913044-1.3913043v-7.3349565c0-.7693913.6219131-1.3913044 1.3913044-1.3913044h7.3349565c.768 0 1.3913043.6219131 1.3913043 1.3913044" fill="#fff"/><path d="m40.1423304 35.141287v7.3349565c0 .7693913-.6233043 1.3913043-1.3913043 1.3913043h-7.3349565c-.7693913 0-1.3913044-.621913-1.3913044-1.3913043v-7.3349565c0-.7693913.6219131-1.3913044 1.3913044-1.3913044h7.3349565c.768 0 1.3913043.6219131 1.3913043 1.3913044z" stroke="#003858" stroke-width="1.5"/><path d="m43.1776 6.09238261h-33.728" stroke="#003858" stroke-linecap="round" stroke-width="1.5"/><path d="m23.2781913 2.76229565v7.33495655c0 .7693913-.6233043 1.3913043-1.3913043 1.3913043h-5.312c-.7693913 0-1.3913044-.621913-1.3913044-1.3913043v-7.33495655c0-.7693913.6219131-1.39130435 1.3913044-1.39130435h5.312c.768 0 1.3913043.62191305 1.3913043 1.39130435" fill="#fff"/><path d="m23.2781913 2.76229565v7.33495655c0 .7693913-.6233043 1.3913043-1.3913043 1.3913043h-5.312c-.7693913 0-1.3913044-.621913-1.3913044-1.3913043v-7.33495655c0-.7693913.6219131-1.39130435 1.3913044-1.39130435h5.312c.768 0 1.3913043.62191305 1.3913043 1.39130435z" stroke="#003858" stroke-width="1.5"/></g></svg>