<svg height="52" viewBox="0 0 63 52" width="63" xmlns="http://www.w3.org/2000/svg"><g fill="none" fill-rule="evenodd" transform=""><path d="m58.2591304 29.012313c-4.3033043 16.0862609-12.4382608 20.4827827-24.4090434 13.188174-17.9533913-10.9412174-23.7328696-26.8730435-12.2309566-27.9318261 4.9307826-.4535652 25.2730435-9.88243481 33.1241739-4.2615652 5.0045218 3.584 4.5579131 11.1053913 3.5158261 19.0052173" fill="#009cc6" opacity=".15"/><path d="m59.085287 34.2907826h-49.0754783v-30.98573912" stroke="#003858" stroke-linecap="round" stroke-width="1.5"/><path d="m4.4738087 49.3764174v1.7544348c0 .4786087-.38817392.8695652-.86956522.8695652-.48 0-.86956522-.3909565-.86956522-.8695652v-1.7544348h-1.80591304c-.48 0-.86956522-.3881739-.86956522-.8695652 0-.48.38956522-.8695652.86956522-.8695652h1.80591304v-1.7238261c0-.4813913.38956522-.8695652.86956522-.8695652.4813913 0 .86956522.3881739.86956522.8695652v1.7238261h1.67234782c.48139131 0 .86956522.3895652.86956522.8695652 0 .4813913-.38817391.8695652-.86956522.8695652z" fill="#17cbc9"/><path d="m22.1830261 34.2907826h-5.5652174v-14.9189565c0-.768.6233043-1.3913044 1.3913043-1.3913044h2.7826087c.7693913 0 1.3913044.6233044 1.3913044 1.3913044z" fill="#fff"/><path d="m27.7482435 34.2907826h-5.5652174v-10.7450435h4.173913c.7693913 0 1.3913044.6233044 1.3913044 1.3913044z" fill="#fff"/><path d="m27.7482435 34.2907826h-5.5652174v-10.7450435h4.173913c.7693913 0 1.3913044.6233044 1.3913044 1.3913044z" stroke="#003858" stroke-linecap="round" stroke-width="1.5"/><path d="m42.7047652 34.2907826h-5.5652174v-23.2681739c0-.768.6233044-1.39130435 1.3913044-1.39130435h2.7826087c.7693913 0 1.3913043.62330435 1.3913043 1.39130435z" fill="#17cbc9"/><path d="m42.7047652 34.2907826h-5.5652174v-23.2681739c0-.768.6233044-1.39130435 1.3913044-1.39130435h2.7826087c.7693913 0 1.3913043.62330435 1.3913043 1.39130435z" stroke="#003858" stroke-linecap="round" stroke-width="1.5"/><path d="m48.2699826 34.2907826h-5.5652174v-10.7450435h4.1739131c.7693913 0 1.3913043.6233044 1.3913043 1.3913044z" fill="#17cbc9"/><g stroke="#003858" stroke-linecap="round" stroke-width="1.5"><path d="m48.2699826 34.2907826h-5.5652174v-10.7450435h4.1739131c.7693913 0 1.3913043.6233044 1.3913043 1.3913044z"/><path d="m22.1830261 35.1970783v8"/><path d="m42.7047652 35.1970783v8"/></g><path d="m26.3569391 44.5883826c0 2.3053913-1.8685217 4.1739131-4.173913 4.1739131-2.304 0-4.1739131-1.8685218-4.1739131-4.1739131 0-2.304 1.8699131-4.173913 4.1739131-4.173913 2.3053913 0 4.173913 1.869913 4.173913 4.173913" fill="#e4f3f7"/><path d="m26.3569391 44.5883826c0 2.3053913-1.8685217 4.1739131-4.173913 4.1739131-2.304 0-4.1739131-1.8685218-4.1739131-4.1739131 0-2.304 1.8699131-4.173913 4.1739131-4.173913 2.3053913 0 4.173913 1.869913 4.173913 4.173913z" stroke="#003858" stroke-linecap="round" stroke-width="1.5"/><path d="m46.8786783 44.5883826c0 2.3053913-1.8685218 4.1739131-4.1739131 4.1739131-2.304 0-4.173913-1.8685218-4.173913-4.1739131 0-2.304 1.869913-4.173913 4.173913-4.173913 2.3053913 0 4.1739131 1.869913 4.1739131 4.173913" fill="#17cbc9"/><path d="m46.8786783 44.5883826c0 2.3053913-1.8685218 4.1739131-4.1739131 4.1739131-2.304 0-4.173913-1.8685218-4.173913-4.1739131 0-2.304 1.869913-4.173913 4.173913-4.173913 2.3053913 0 4.1739131 1.869913 4.1739131 4.173913z" stroke="#003858" stroke-linecap="round" stroke-width="1.5"/><path d="m7.22650435 3.82608696 2.78260865-2.7826087 2.7826087 2.7826087" stroke="#003858" stroke-linecap="round" stroke-linejoin="round" stroke-width="1.5"/><path d="m57.6939826 31.5081739 2.7826087 2.7826087-2.7826087 2.7826087" stroke="#003858" stroke-linecap="round" stroke-linejoin="round" stroke-width="1.5"/><path d="m22.1830261 34.2907826h-5.5652174v-14.9189565c0-.768.6233043-1.3913044 1.3913043-1.3913044h2.7826087c.7693913 0 1.3913044.6233044 1.3913044 1.3913044z" fill="#e4f3f7"/><path d="m22.1830261 34.2907826h-5.5652174v-14.9189565c0-.768.6233043-1.3913044 1.3913043-1.3913044h2.7826087c.7693913 0 1.3913044.6233044 1.3913044 1.3913044z" stroke="#003858" stroke-linecap="round" stroke-width="1.5"/><path d="m59.6178783 5.72146087v2.10504348c0 .576-.4674783 1.04347826-1.0434783 1.04347826s-1.0434783-.46747826-1.0434783-1.04347826v-2.10504348h-2.1676521c-.576 0-1.0434783-.46747826-1.0434783-1.04347826s.4674783-1.04347826 1.0434783-1.04347826h2.1676521v-2.06886957c0-.5773913.4674783-1.04347826 1.0434783-1.04347826s1.0434783.46608696 1.0434783 1.04347826v2.06886957h2.0062608c.576 0 1.0434783.46747826 1.0434783 1.04347826s-.4674783 1.04347826-1.0434783 1.04347826z" fill="#17cbc9"/></g></svg>