<?xml version="1.0" encoding="UTF-8"?>
<svg width="64px" height="59px" viewBox="0 0 64 59" version="1.1" xmlns="http://www.w3.org/2000/svg" xmlns:xlink="http://www.w3.org/1999/xlink">
    <!-- Generator: Sketch 52.5 (67469) - http://www.bohemiancoding.com/sketch -->
    <title>Group 45</title>
    <desc>Created with Sketch.</desc>
    <defs>
        <polygon id="path-1" points="0 1.49463415 9.36491707 1.49463415 9.36491707 10.8604878 0 10.8604878"></polygon>
    </defs>
    <g id="Main" stroke="none" stroke-width="1" fill="none" fill-rule="evenodd">
        <g id="Main_1440" transform="translate(-991.000000, -4841.000000)">
            <g id="part-8" transform="translate(1.000000, 4520.000000)">
                <g id="main" transform="translate(164.000000, 259.000000)">
                    <g id="item3" transform="translate(823.000000, 62.000000)">
                        <g id="Group-45" transform="translate(3.000000, -0.000000)">
                            <path d="M62.4065561,23.7210537 C57.5784585,41.7706146 48.4514341,46.7017366 35.0208,38.5175415 C14.8779707,26.2420293 8.39367805,8.36885854 21.2967024,7.1809561 C26.830361,6.67207805 49.6533854,-3.90665366 58.4619707,2.3996878 C64.0768,6.42076098 63.5757268,14.8593951 62.4065561,23.7210537" id="Fill-102" fill="#009CC6" opacity="0.15"></path>
                            <path d="M21.7206634,42.7454439 L21.7206634,11.5274927 C21.7206634,10.6642732 22.4184195,9.96651707 23.281639,9.96651707 L54.5011512,9.96651707 C55.3643707,9.96651707 56.0621268,10.6642732 56.0621268,11.5274927 L56.0621268,42.7454439 C56.0621268,43.6086634 55.3643707,44.3064195 54.5011512,44.3064195 L23.281639,44.3064195 C22.4184195,44.3064195 21.7206634,43.6086634 21.7206634,42.7454439" id="Fill-104" fill="#FFFFFF"></path>
                            <path d="M11.0301659,54.1539902 L11.0301659,22.934478 C11.0301659,22.0712585 11.7294829,21.3735024 12.5911415,21.3735024 L43.8106537,21.3735024 C44.6738732,21.3735024 45.3716293,22.0712585 45.3716293,22.934478 L45.3716293,54.1539902 C45.3716293,55.0156488 44.6738732,55.7149659 43.8106537,55.7149659 L12.5911415,55.7149659 C11.7294829,55.7149659 11.0301659,55.0156488 11.0301659,54.1539902" id="Fill-106" fill="#17CBC9"></path>
                            <g id="Group-110" transform="translate(0.000000, 0.469229)">
                                <mask id="mask-2" fill="white">
                                    <use xlink:href="#path-1"></use>
                                </mask>
                                <g id="Clip-109"></g>
                                <path d="M5.94325854,7.328 L5.94325854,9.6897561 C5.94325854,10.336 5.41877073,10.8604878 4.77252683,10.8604878 C4.12628293,10.8604878 3.60179512,10.336 3.60179512,9.6897561 L3.60179512,7.328 L1.16979512,7.328 C0.52355122,7.328 -0.000936585366,6.8035122 -0.000936585366,6.15726829 C-0.000936585366,5.51102439 0.52355122,4.98653659 1.16979512,4.98653659 L3.60179512,4.98653659 L3.60179512,2.66536585 C3.60179512,2.01912195 4.12628293,1.49463415 4.77252683,1.49463415 C5.41877073,1.49463415 5.94325854,2.01912195 5.94325854,2.66536585 L5.94325854,4.98653659 L8.19418537,4.98653659 C8.84042927,4.98653659 9.36491707,5.51102439 9.36491707,6.15726829 C9.36491707,6.8035122 8.84042927,7.328 8.19418537,7.328 L5.94325854,7.328 Z" id="Fill-108" fill="#17CBC9" mask="url(#mask-2)"></path>
                            </g>
                            <path d="M58.6733268,55.2149854 L58.6733268,57.1833756 C58.6733268,57.7203512 58.2378146,58.1589854 57.6977171,58.1589854 C57.1591805,58.1589854 56.7221073,57.7203512 56.7221073,57.1833756 L56.7221073,55.2149854 L54.695961,55.2149854 C54.1574244,55.2149854 53.7203512,54.7794732 53.7203512,54.2393756 C53.7203512,53.700839 54.1574244,53.2637659 54.695961,53.2637659 L56.7221073,53.2637659 L56.7221073,51.3297171 C56.7221073,50.7911805 57.1591805,50.3541073 57.6977171,50.3541073 C58.2378146,50.3541073 58.6733268,50.7911805 58.6733268,51.3297171 L58.6733268,53.2637659 L60.5496195,53.2637659 C61.0897171,53.2637659 61.5252293,53.700839 61.5252293,54.2393756 C61.5252293,54.7794732 61.0897171,55.2149854 60.5496195,55.2149854 L58.6733268,55.2149854 Z" id="Fill-111" fill="#17CBC9"></path>
                            <polygon id="Fill-113" fill="#FFFFFF" points="21.7209756 44.3061073 45.3713171 44.3061073 45.3713171 21.3738146 21.7209756 21.3738146"></polygon>
                            <polygon id="Fill-115" fill="#009CC6" points="21.7209756 44.3061073 45.3713171 44.3061073 45.3713171 21.3738146 21.7209756 21.3738146"></polygon>
                            <path d="M11.0301659,54.1539902 L11.0301659,22.934478 C11.0301659,22.0712585 11.7294829,21.3735024 12.5911415,21.3735024 L43.8106537,21.3735024 C44.6738732,21.3735024 45.3716293,22.0712585 45.3716293,22.934478 L45.3716293,54.1539902 C45.3716293,55.0156488 44.6738732,55.7149659 43.8106537,55.7149659 L12.5911415,55.7149659 C11.7294829,55.7149659 11.0301659,55.0156488 11.0301659,54.1539902 Z" id="Stroke-116" stroke="#003858" stroke-width="1.5" stroke-linecap="round"></path>
                            <path d="M21.7206634,42.7454439 L21.7206634,11.5274927 C21.7206634,10.6642732 22.4184195,9.96651707 23.281639,9.96651707 L54.5011512,9.96651707 C55.3643707,9.96651707 56.0621268,10.6642732 56.0621268,11.5274927 L56.0621268,42.7454439 C56.0621268,43.6086634 55.3643707,44.3064195 54.5011512,44.3064195 L23.281639,44.3064195 C22.4184195,44.3064195 21.7206634,43.6086634 21.7206634,42.7454439 Z" id="Stroke-117" stroke="#003858" stroke-width="1.5" stroke-linecap="round"></path>
                            <path d="M31.0971317,36.1173854 L30.2698146,36.9447024 C30.1699122,37.0446049 30.0544,37.0602146 29.993522,37.0602146 C29.9326439,37.0602146 29.8171317,37.0446049 29.7172293,36.9447024 C29.5658146,36.7932878 29.5658146,36.5450927 29.7172293,36.393678 L30.5445463,35.5648 L27.5100098,32.5302634 L28.3373268,33.3575805 L31.6497171,30.0451902 C32.3053268,29.3880195 33.1794732,29.0274341 34.1098146,29.0274341 C34.7404488,29.0274341 35.3617171,29.1960195 35.9064976,29.5160195 L36.6869854,29.9749463 L37.1443512,30.7585561 C37.9576195,32.1384585 37.7406439,33.8883122 36.6151805,35.0137756 L33.3043512,38.3246049 L31.0971317,36.1173854 Z" id="Fill-118" fill="#17CBC9"></path>
                            <path d="M37.7206634,27.7713171 C37.4225171,27.7713171 37.1212488,27.8852683 36.8933463,28.1147317 L36.4999805,28.5080976 C35.7632,28.0741463 34.9358829,27.8571707 34.1101268,27.8571707 C32.9191024,27.8571707 31.729639,28.3082927 30.8211512,29.2183415 L28.336078,31.7018537 C28.1097366,31.4739512 27.8084683,31.36 27.510322,31.36 C27.2106146,31.36 26.9109073,31.4739512 26.6830049,31.7034146 C26.225639,32.1607805 26.225639,32.9006829 26.6830049,33.3580488 L28.8902244,35.5652683 C28.2798829,36.1756098 28.2798829,37.1637073 28.8902244,37.7724878 C29.1946146,38.078439 29.5942244,38.2298537 29.9938341,38.2298537 C30.3934439,38.2298537 30.7930537,38.078439 31.0974439,37.7724878 L33.3046634,39.9797073 C33.5325659,40.2091707 33.8338341,40.323122 34.1319805,40.323122 C34.4332488,40.323122 34.7313951,40.2091707 34.9592976,39.9797073 C35.4166634,39.5239024 35.4166634,38.782439 34.9592976,38.3250732 L37.4428098,35.841561 C38.9850537,34.300878 39.2098341,31.9594146 38.1530537,30.1642927 L38.5479805,29.7693659 C39.0053463,29.312 39.0053463,28.5720976 38.5479805,28.1147317 C38.320078,27.8852683 38.0203707,27.7713171 37.7206634,27.7713171 M34.1101268,30.1986341 C34.5315902,30.1986341 34.9483707,30.3110244 35.312078,30.526439 L35.828761,30.8308293 L36.1362732,31.3521951 C36.6779317,32.2731707 36.534322,33.4392195 35.7881756,34.1853659 L33.3046634,36.668878 L32.752078,36.1178537 L31.0974439,34.4616585 L30.5448585,33.9106341 L29.9922732,33.3564878 L32.4773463,30.8729756 C32.9112976,30.4390244 33.4919805,30.1986341 34.1101268,30.1986341" id="Fill-119" fill="#003858"></path>
                        </g>
                    </g>
                </g>
            </g>
        </g>
    </g>
</svg>