<svg id="Layer_1" data-name="Layer 1" xmlns="http://www.w3.org/2000/svg" xmlns:xlink="http://www.w3.org/1999/xlink" viewBox="0 0 650 500"><defs><style>.cls-1{opacity:0.25;}.cls-1,.cls-32,.cls-34,.cls-69,.cls-70{isolation:isolate;}.cls-2{fill:#edf4f8;}.cls-3,.cls-32,.cls-34,.cls-69{opacity:0.5;}.cls-4{fill:#a6c2d5;}.cls-5{fill:#206797;}.cls-6{fill:#fff;}.cls-7{fill:#e0e1e5;}.cls-8{fill:url(#linear-gradient);}.cls-9{fill:#004c6c;}.cls-10{fill:url(#linear-gradient-2);}.cls-11{opacity:0.2;}.cls-12{fill:#00ade9;}.cls-13{fill:#3ba5d6;}.cls-14{fill:#33cfb9;}.cls-15{fill:#cfd0d6;}.cls-16,.cls-18,.cls-26,.cls-30,.cls-31,.cls-32,.cls-33,.cls-45,.cls-66{fill:none;}.cls-16{stroke:#deebf0;stroke-width:0.5px;}.cls-16,.cls-26,.cls-31,.cls-33{stroke-miterlimit:10;}.cls-17{fill:#e2f1f9;}.cls-19{fill:#98e4ff;}.cls-20{fill:url(#linear-gradient-3);}.cls-21{fill:#acdfde;}.cls-22{fill:#c7eaf5;}.cls-23{fill:url(#linear-gradient-4);}.cls-24{fill:#96ca4f;}.cls-25{fill:url(#linear-gradient-5);}.cls-26,.cls-32{stroke:#00ade9;}.cls-27{fill:#56adaf;}.cls-28{fill:#88c8c7;}.cls-29{fill:#96e3e2;}.cls-30{stroke:#fff;}.cls-30,.cls-31,.cls-32,.cls-33,.cls-45,.cls-66{stroke-linecap:round;}.cls-30,.cls-32,.cls-45,.cls-66{stroke-linejoin:round;}.cls-31{stroke:#e0e1e5;}.cls-31,.cls-32,.cls-33{stroke-width:2px;}.cls-33{stroke:#cfd0d6;}.cls-34{fill:url(#linear-gradient-6);}.cls-35{fill:url(#linear-gradient-7);}.cls-36{fill:url(#linear-gradient-8);}.cls-37{fill:url(#linear-gradient-9);}.cls-38{fill:url(#linear-gradient-10);}.cls-39{fill:url(#linear-gradient-11);}.cls-40{fill:url(#linear-gradient-12);}.cls-41{fill:#cbb3a1;}.cls-42{fill:url(#linear-gradient-13);}.cls-43{fill:url(#linear-gradient-14);}.cls-44{fill:#007054;}.cls-45{stroke:#8bc8e5;}.cls-46{fill:url(#linear-gradient-15);}.cls-47{fill:url(#linear-gradient-16);}.cls-48{fill:url(#linear-gradient-17);}.cls-49{fill:#bb917d;}.cls-50{fill:#d4b9ac;}.cls-51{fill:#1b75bb;}.cls-52{fill:url(#linear-gradient-18);}.cls-53{fill:#e4d3cb;}.cls-54{fill:url(#linear-gradient-19);}.cls-55{fill:#c9a797;}.cls-56{fill:#27597d;}.cls-57{fill:#127f6b;}.cls-58{fill:url(#linear-gradient-20);}.cls-59{fill:url(#linear-gradient-21);}.cls-60{fill:url(#linear-gradient-22);}.cls-61{fill:#d8d8d8;}.cls-62{fill:#a4a1a1;}.cls-63{fill:url(#linear-gradient-23);}.cls-64{fill:#8c6d5e;}.cls-65{fill:#143b57;}.cls-66{stroke:#8c6d5e;stroke-width:0.4px;}.cls-67{fill:#007f6b;}.cls-68{fill:url(#linear-gradient-24);}.cls-69{fill:url(#linear-gradient-25);}.cls-70{fill:#0d645f;opacity:0.4;}.cls-71{fill:url(#linear-gradient-26);}</style><linearGradient id="linear-gradient" x1="187.9" y1="345.32" x2="259.92" y2="345.32" gradientTransform="matrix(1, 0, 0, -1, 0, 500)" gradientUnits="userSpaceOnUse"><stop offset="0" stop-color="#e4ecef" stop-opacity="0.5"/><stop offset="1" stop-color="#98e4ff"/></linearGradient><linearGradient id="linear-gradient-2" x1="192.9" y1="342.8" x2="229.9" y2="342.8" gradientTransform="matrix(1, 0, 0, -1, 0, 500)" gradientUnits="userSpaceOnUse"><stop offset="0" stop-color="#3da5d5" stop-opacity="0.7"/><stop offset="0.04" stop-color="#3da5d5" stop-opacity="0.67"/><stop offset="0.72" stop-color="#3da5d5" stop-opacity="0.2"/></linearGradient><linearGradient id="linear-gradient-3" x1="160.36" y1="196.85" x2="189.46" y2="196.85" gradientTransform="matrix(1, 0, 0, -1, 0, 500)" gradientUnits="userSpaceOnUse"><stop offset="0" stop-color="#fff" stop-opacity="0"/><stop offset="1" stop-color="#98e4ff"/></linearGradient><linearGradient id="linear-gradient-4" x1="434" y1="178" x2="474.3" y2="178" gradientTransform="matrix(1, 0, 0, -1, 0, 500)" gradientUnits="userSpaceOnUse"><stop offset="0" stop-color="#96ca4f"/><stop offset="1" stop-color="#71983b"/></linearGradient><linearGradient id="linear-gradient-5" x1="438" y1="145.1" x2="485.5" y2="145.1" xlink:href="#linear-gradient-4"/><linearGradient id="linear-gradient-6" x1="406.88" y1="129.65" x2="537.76" y2="129.65" gradientTransform="matrix(1, 0, 0, -1, 0, 500)" gradientUnits="userSpaceOnUse"><stop offset="0" stop-color="#004c6c" stop-opacity="0.4"/><stop offset="0.15" stop-color="#034e6e" stop-opacity="0.34"/><stop offset="0.29" stop-color="#0e5674" stop-opacity="0.28"/><stop offset="0.42" stop-color="#20627e" stop-opacity="0.23"/><stop offset="0.54" stop-color="#39748d" stop-opacity="0.18"/><stop offset="0.66" stop-color="#5a8ba0" stop-opacity="0.14"/><stop offset="0.78" stop-color="#82a7b7" stop-opacity="0.09"/><stop offset="0.89" stop-color="#b0c8d1" stop-opacity="0.04"/><stop offset="1" stop-color="#e4ecef" stop-opacity="0"/></linearGradient><linearGradient id="linear-gradient-7" x1="44.1" y1="120.85" x2="132.62" y2="120.85" gradientTransform="matrix(1, 0, 0, -1, 0, 500)" gradientUnits="userSpaceOnUse"><stop offset="0" stop-color="#98e4ff" stop-opacity="0.5"/><stop offset="1" stop-color="#e4ecef" stop-opacity="0.5"/></linearGradient><linearGradient id="linear-gradient-8" x1="254.95" y1="292.33" x2="254.95" y2="325" gradientTransform="matrix(1, 0, 0, -1, 0, 500)" gradientUnits="userSpaceOnUse"><stop offset="0" stop-color="#fff" stop-opacity="0.5"/><stop offset="1" stop-color="#98e4ff"/></linearGradient><linearGradient id="linear-gradient-9" x1="203" y1="292.33" x2="203" xlink:href="#linear-gradient-8"/><linearGradient id="linear-gradient-10" x1="138.75" y1="292.33" x2="138.75" xlink:href="#linear-gradient-8"/><linearGradient id="linear-gradient-11" x1="189.9" y1="292.33" x2="189.9" xlink:href="#linear-gradient-8"/><linearGradient id="linear-gradient-12" x1="187.9" y1="349.32" x2="259.92" y2="349.32" gradientTransform="matrix(1, 0, 0, -1, 0, 500)" gradientUnits="userSpaceOnUse"><stop offset="0" stop-color="#00a98f"/><stop offset="1" stop-color="#275a7d"/></linearGradient><linearGradient id="linear-gradient-13" x1="161.2" y1="412.45" x2="250.2" y2="412.45" gradientTransform="matrix(1, 0, 0, -1, 0, 500)" gradientUnits="userSpaceOnUse"><stop offset="0" stop-color="#e4ecef" stop-opacity="0"/><stop offset="0.11" stop-color="#b0c8d1" stop-opacity="0.04"/><stop offset="0.22" stop-color="#82a7b7" stop-opacity="0.09"/><stop offset="0.34" stop-color="#5a8ba0" stop-opacity="0.14"/><stop offset="0.46" stop-color="#39748d" stop-opacity="0.18"/><stop offset="0.58" stop-color="#20627e" stop-opacity="0.23"/><stop offset="0.71" stop-color="#0e5674" stop-opacity="0.28"/><stop offset="0.84" stop-color="#034e6e" stop-opacity="0.34"/><stop offset="1" stop-color="#004c6c" stop-opacity="0.4"/></linearGradient><linearGradient id="linear-gradient-14" x1="153.23" y1="55.41" x2="180.24" y2="55.41" gradientTransform="matrix(0.71, -0.7, -0.7, -0.71, 67.82, 615.25)" gradientUnits="userSpaceOnUse"><stop offset="0" stop-color="#3da5d5"/><stop offset="1" stop-color="#1b75bb"/></linearGradient><linearGradient id="linear-gradient-15" x1="101.63" y1="38.1" x2="121.21" y2="38.1" gradientTransform="matrix(1, 0, 0, -1, 0, 500)" xlink:href="#linear-gradient-14"/><linearGradient id="linear-gradient-16" x1="69.44" y1="83.25" x2="128.42" y2="83.25" gradientTransform="matrix(1, 0, 0, -1, 0, 500)" gradientUnits="userSpaceOnUse"><stop offset="0" stop-color="#275a7d"/><stop offset="1" stop-color="#00a98f"/></linearGradient><linearGradient id="linear-gradient-17" x1="90.71" y1="64.66" x2="107.46" y2="105.13" xlink:href="#linear-gradient-16"/><linearGradient id="linear-gradient-18" x1="163.3" y1="449.85" x2="243.38" y2="449.85" gradientTransform="matrix(1, 0, 0, -1, 0, 500)" gradientUnits="userSpaceOnUse"><stop offset="0" stop-color="#3da5d5"/><stop offset="0.04" stop-color="#3da5d5" stop-opacity="0.96"/><stop offset="0.72" stop-color="#3da5d5" stop-opacity="0.2"/></linearGradient><linearGradient id="linear-gradient-19" x1="216.41" y1="457.14" x2="226.13" y2="457.14" gradientTransform="matrix(1, 0, 0, -1, 0, 500)" gradientUnits="userSpaceOnUse"><stop offset="0" stop-color="#3da5d5" stop-opacity="0.2"/><stop offset="1" stop-color="#3da5d5"/></linearGradient><linearGradient id="linear-gradient-20" x1="31.8" y1="137.15" x2="130" y2="137.15" xlink:href="#linear-gradient-4"/><linearGradient id="linear-gradient-21" x1="63.15" y1="136.45" x2="82.75" y2="136.45" gradientTransform="matrix(1, 0, 0, -1, 0, 500)" xlink:href="#linear-gradient-14"/><linearGradient id="linear-gradient-22" x1="77.26" y1="145.3" x2="52.92" y2="127.3" xlink:href="#linear-gradient-3"/><linearGradient id="linear-gradient-23" x1="508.1" y1="76.19" x2="614.5" y2="76.19" xlink:href="#linear-gradient-18"/><linearGradient id="linear-gradient-24" x1="418.42" y1="127.65" x2="534.99" y2="127.65" xlink:href="#linear-gradient-16"/><linearGradient id="linear-gradient-25" x1="135.9" y1="172.76" x2="129.9" y2="187.76" xlink:href="#linear-gradient-6"/><linearGradient id="linear-gradient-26" x1="19.33" y1="145.25" x2="59.99" y2="145.25" xlink:href="#linear-gradient-4"/></defs><title>home-hero</title><g id="Rectangle-Copy-4"><image class="cls-1" width="608" height="411" transform="translate(6 45)" xlink:href="blue-shadow.png"/><path class="cls-2" d="M42.2,68.3H577.4a6.23,6.23,0,0,1,6.2,6.2V415.3a3,3,0,0,1-3,3H39a3,3,0,0,1-3-3V74.5A6.23,6.23,0,0,1,42.2,68.3Z"/></g><path id="Rectangle-2-Copy" class="cls-2" d="M42.2,58H577.4a6.23,6.23,0,0,1,6.2,6.2V81.8H36V64.2A6.17,6.17,0,0,1,42.2,58Z"/><g class="cls-3"><circle id="Oval-3-Copy-3" class="cls-4" cx="53.2" cy="68.9" r="3"/><circle id="Oval-3-Copy-4" class="cls-4" cx="66.5" cy="68.9" r="3"/><circle id="Oval-3-Copy-5" class="cls-4" cx="79.8" cy="68.9" r="3"/></g><rect id="Rectangle-3-Copy" class="cls-5" x="36" y="78.7" width="547.6" height="31"/><path class="cls-6" d="M107.4,97.3h0a.9.9,0,1,1,1.8,0h0a.9.9,0,1,1-1.8,0m1.7,0h0a.7.7,0,0,0-1.4,0h0a.7.7,0,1,0,1.4,0m-1.1-.5h.4c.2,0,.4.1.4.3s-.1.2-.2.3l.2.3h-.2l-.2-.3h-.2v.3H108Zm.4.4a.35.35,0,0,0,.2-.1c0-.1-.1-.1-.2-.1h-.2v.3h.2Z"/><path class="cls-6" d="M53,92.5a.32.32,0,0,1,.3-.3h.1c.1,0,.2.1.3.2l2.1,3.2,2.1-3.2c.1-.1.2-.2.3-.2h.1a.32.32,0,0,1,.3.3v5.4a.3.3,0,0,1-.6,0V93.5l-1.9,2.8c-.1.1-.2.2-.3.2s-.2-.1-.3-.2l-1.9-2.8v4.4a.3.3,0,0,1-.6,0Z"/><path class="cls-6" d="M62.1,97.8V92.5a.32.32,0,0,1,.3-.3h3.7a.3.3,0,0,1,0,.6H62.7v2h3a.3.3,0,0,1,0,.6h-3v2.1h3.4a.3.3,0,0,1,0,.6H62.4c-.1.1-.3-.1-.3-.3"/><path class="cls-6" d="M71.1,92.8H69.4a.3.3,0,1,1,0-.6h4.1a.3.3,0,0,1,0,.6H71.8v5a.3.3,0,0,1-.6,0v-5Z"/><path class="cls-6" d="M76.7,92.6a.32.32,0,0,1,.3-.3h2.2a2.35,2.35,0,0,1,1.7.6,1.66,1.66,0,0,1,.5,1.2h0c0,1-.7,1.5-1.6,1.7l1.5,1.9a.31.31,0,0,1,.1.2.32.32,0,0,1-.3.3c-.1,0-.2-.1-.3-.2l-1.7-2.2H77.4v2a.3.3,0,0,1-.6,0V92.6Zm2.5,2.7c.9,0,1.5-.5,1.5-1.2h0c0-.7-.6-1.2-1.5-1.2H77.4v2.4Z"/><path class="cls-6" d="M84.7,92.5a.3.3,0,0,1,.6,0v5.4a.3.3,0,0,1-.6,0Z"/><path class="cls-6" d="M88.5,95.2h0a3,3,0,0,1,3-3.1,2.71,2.71,0,0,1,2.1.8.37.37,0,0,1,.1.3.32.32,0,0,1-.3.3c-.1,0-.2,0-.2-.1a2.61,2.61,0,0,0-1.7-.7,2.35,2.35,0,0,0-2.3,2.4h0a2.38,2.38,0,0,0,2.3,2.5,2.87,2.87,0,0,0,1.8-.7c.1-.1.1-.1.2-.1a.32.32,0,0,1,.3.3.35.35,0,0,1-.1.2,3.17,3.17,0,0,1-2.2.9,2.89,2.89,0,0,1-3-3"/><path class="cls-6" d="M96.8,92.5a.3.3,0,1,1,.6,0v5h3.1a.3.3,0,1,1,0,.6H97.1a.32.32,0,0,1-.3-.3Z"/><path class="cls-6" d="M104.5,95.8l-2.2-3.1c0-.1-.1-.1-.1-.2a.32.32,0,0,1,.3-.3c.1,0,.2.1.3.2l2,2.8,2-2.8c.1-.1.2-.2.3-.2a.32.32,0,0,1,.3.3.35.35,0,0,1-.1.2l-2.2,3.1v2.1a.3.3,0,1,1-.6,0V95.8Z"/><path id="Rectangle" class="cls-6" d="M53,120.4H302.9a2.09,2.09,0,0,1,2,2.1V238.3a2,2,0,0,1-2,2.1H53a2.09,2.09,0,0,1-2-2.1V122.5A2.09,2.09,0,0,1,53,120.4Z"/><circle class="cls-7" cx="284.4" cy="130.5" r="1.4"/><circle class="cls-7" cx="289.2" cy="130.5" r="1.4"/><circle class="cls-7" cx="294.1" cy="130.5" r="1.4"/><path class="cls-8" d="M259.3,126.5a3.94,3.94,0,0,0-5.5-1.2L226.3,143a23.52,23.52,0,1,0,8.6,18.2,23.86,23.86,0,0,0-3.3-12.1L258.1,132A4,4,0,0,0,259.3,126.5Zm-47.9,53.2a18.5,18.5,0,1,1,18.5-18.5A18.52,18.52,0,0,1,211.4,179.7Z"/><path class="cls-9" d="M193.5,36.1s-2.6-3.3-.4-6.5,4.7-5,4.8-10.6,5.4-10.4,10-9.5,9.5-4.4,15.2-.3,6,8.4,8.7,16.6,10.8,6.5,13.3,14,2.8,8.3,3.1,12,4.5,2.9,5,6.3a6.39,6.39,0,0,1-1.4,5.3Z"/><path class="cls-10" d="M211.4,175.7a18.5,18.5,0,1,1,18.5-18.5A18.52,18.52,0,0,1,211.4,175.7Z"/><g class="cls-11"><path id="Rectangle-2" data-name="Rectangle" class="cls-7" d="M53,124.4H302.9a2.09,2.09,0,0,1,2,2.1V242.3a2,2,0,0,1-2,2.1H53a2.09,2.09,0,0,1-2-2.1V126.5A2.09,2.09,0,0,1,53,124.4Z"/><path id="Rectangle-3" data-name="Rectangle" class="cls-7" d="M53,252.7H302.9a2.25,2.25,0,0,1,2,2.4V384.6a2.25,2.25,0,0,1-2,2.4H53a2.25,2.25,0,0,1-2-2.4V255.1A2.25,2.25,0,0,1,53,252.7Z"/><path id="Rectangle-4" data-name="Rectangle" class="cls-7" d="M316.1,124.4H566a2.09,2.09,0,0,1,2,2.1V242.3a2,2,0,0,1-2,2.1H316.1a2.09,2.09,0,0,1-2-2.1V126.5A2.09,2.09,0,0,1,316.1,124.4Z"/><path id="Rectangle-5" data-name="Rectangle" class="cls-7" d="M316.1,252.7H566a2.25,2.25,0,0,1,2,2.4V384.6a2.25,2.25,0,0,1-2,2.4H316.1a2.25,2.25,0,0,1-2-2.4V255.1A2.25,2.25,0,0,1,316.1,252.7Z"/></g><path id="Rectangle-6" data-name="Rectangle" class="cls-6" d="M53,248.7H302.9a2.25,2.25,0,0,1,2,2.4V380.6a2.25,2.25,0,0,1-2,2.4H53a2.25,2.25,0,0,1-2-2.4V251.1A2.25,2.25,0,0,1,53,248.7Z"/><path id="Rectangle-7" data-name="Rectangle" class="cls-6" d="M316.1,120.4H566a2.09,2.09,0,0,1,2,2.1V238.3a2,2,0,0,1-2,2.1H316.1a2.09,2.09,0,0,1-2-2.1V122.5A2.09,2.09,0,0,1,316.1,120.4Z"/><path id="Rectangle-8" data-name="Rectangle" class="cls-6" d="M316.1,248.7H566a2.25,2.25,0,0,1,2,2.4V380.6a2.25,2.25,0,0,1-2,2.4H316.1a2.25,2.25,0,0,1-2-2.4V251.1A2.25,2.25,0,0,1,316.1,248.7Z"/><g id="graphics"><g id="Icons"><g id="_01_idle_color" data-name="01_idle_color"><g id="idle"><g id="Group-2"><g id="Group"><path class="cls-12" d="M340.9,146.85H329a3,3,0,0,1-3-3v-.6a3,3,0,0,1,3-3h17.3v1.1H329a1.9,1.9,0,0,0-1.9,1.9v.6a1.9,1.9,0,0,0,1.9,1.9h11.9Z"/><path id="Path-Copy-2" class="cls-12" d="M331.2,143.65a.43.43,0,0,0-.4-.4H330a.4.4,0,1,0,0,.8h.7C331,144.15,331.2,144,331.2,143.65Z"/><path class="cls-12" d="M330.7,144.25H330a.6.6,0,1,1,0-1.2h.7a.65.65,0,0,1,.6.6A.58.58,0,0,1,330.7,144.25Zm-.7-.8a.3.3,0,0,0,0,.6h.7a.3.3,0,1,0,0-.6Z"/><path id="Path" class="cls-12" d="M342.3,143.65a.43.43,0,0,0-.4-.4H333a.4.4,0,1,0,0,.8h8.8C342.1,144.15,342.3,144,342.3,143.65Z"/><path class="cls-12" d="M341.9,144.25H333a.6.6,0,1,1,0-1.2h8.8a.65.65,0,0,1,.6.6A.47.47,0,0,1,341.9,144.25Zm-8.9-.8a.3.3,0,0,0,0,.6h8.8a.3.3,0,1,0,0-.6Z"/><path id="Path-Copy" class="cls-13" d="M342.3,146.25c0-.2-.2-.3-.4-.3H333c-.2,0-.4-.1-.4.1s.2.5.4.5h8.8A.35.35,0,0,0,342.3,146.25Z"/><path class="cls-12" d="M341.9,146.85H333a.68.68,0,0,1-.7-.7.37.37,0,0,1,.1-.3.6.6,0,0,1,.4-.1h8.9c.4,0,.7.2.7.5C342.6,146.65,342.3,146.85,341.9,146.85Zm-9-.6a.22.22,0,0,0,.2.2h8.8c.2,0,.2-.1.2-.1H333A.1.1,0,0,0,332.9,146.25Z"/></g><g id="Group-Copy"><path class="cls-12" d="M346.3,141.42h-17a3.3,3.3,0,0,1,0-6.6h17a3.3,3.3,0,1,1,0,6.6Zm-17-5.5a2.2,2.2,0,1,0,0,4.4h17a2.2,2.2,0,0,0,0-4.4Z"/><path id="Path-Copy-2-2" data-name="Path-Copy-2" class="cls-12" d="M331.2,138.22a.43.43,0,0,0-.4-.4H330a.4.4,0,1,0,0,.8h.7A.46.46,0,0,0,331.2,138.22Z"/><path class="cls-12" d="M330.7,138.82H330a.6.6,0,1,1,0-1.2h.7a.6.6,0,0,1,0,1.2Zm-.7-.9a.3.3,0,0,0,0,.6h.7a.3.3,0,1,0,0-.6Z"/><path id="Path-2" data-name="Path" class="cls-12" d="M346.2,138.22a.43.43,0,0,0-.4-.4H333.7a.4.4,0,1,0,0,.8h12.1A.43.43,0,0,0,346.2,138.22Z"/><path class="cls-12" d="M345.7,138.82H333.6a.6.6,0,1,1,0-1.2h12.1a.6.6,0,0,1,0,1.2Zm-12-.9a.3.3,0,1,0,0,.6h12.1a.3.3,0,1,0,0-.6Z"/></g><g id="Group-Copy-2"><path class="cls-12" d="M346.3,135.9h-17a3.3,3.3,0,0,1,0-6.6h17a3.3,3.3,0,1,1,0,6.6Zm-17-5.5a2.2,2.2,0,1,0,0,4.4h17a2.2,2.2,0,0,0,0-4.4Z"/><path id="Path-Copy-2-3" data-name="Path-Copy-2" class="cls-12" d="M331.2,132.7a.43.43,0,0,0-.4-.4H330a.4.4,0,1,0,0,.8h.7C331,133.2,331.2,133,331.2,132.7Z"/><path class="cls-12" d="M330.7,133.3H330a.6.6,0,1,1,0-1.2h.7a.6.6,0,0,1,0,1.2Zm-.7-.8a.3.3,0,1,0,0,.6h.7a.3.3,0,1,0,0-.6Z"/><path id="Path-3" data-name="Path" class="cls-12" d="M346.2,132.7a.43.43,0,0,0-.4-.4H333.7a.4.4,0,1,0,0,.8h12.1C346,133.2,346.2,133,346.2,132.7Z"/><path class="cls-12" d="M345.7,133.3H333.6a.6.6,0,1,1,0-1.2h12.1a.6.6,0,0,1,0,1.2Zm-12-.8a.3.3,0,1,0,0,.6h12.1a.3.3,0,1,0,0-.6Z"/></g></g></g><g id="clock-circular-outline-copy"><path id="Shape" class="cls-14" d="M347.9,142.7a4,4,0,1,0,4,4A4,4,0,0,0,347.9,142.7Zm0,7a3.1,3.1,0,1,1,3.1-3.1A3.12,3.12,0,0,1,347.9,149.7Z"/><path class="cls-14" d="M347.9,150.7a4.1,4.1,0,1,1,4.1-4.1A4.06,4.06,0,0,1,347.9,150.7Zm0-7.9a3.8,3.8,0,1,0,3.8,3.8A3.8,3.8,0,0,0,347.9,142.8Zm0,7a3.2,3.2,0,1,1,3.2-3.2A3.16,3.16,0,0,1,347.9,149.8Zm0-6.2a3,3,0,1,0,3,3A3,3,0,0,0,347.9,143.6Z"/><path id="Path-4" data-name="Path" class="cls-14" d="M349.5,146.5h-1.3v-1.6a.3.3,0,1,0-.6,0v1.9a.27.27,0,0,0,.3.3h1.6a.3.3,0,1,0,0-.6Z"/><path class="cls-14" d="M349.5,147.3h-1.6a.43.43,0,0,1-.4-.4V145a.4.4,0,0,1,.8,0v1.4h1.2a.43.43,0,0,1,.4.4C350,147.1,349.8,147.3,349.5,147.3Zm-1.6-2.6a.22.22,0,0,0-.2.2v1.9a.22.22,0,0,0,.2.2h1.6a.2.2,0,1,0,0-.4h-1.4v-1.7A.22.22,0,0,0,347.9,144.7Z"/></g></g></g></g><path class="cls-12" d="M348.4,275.3h-1.9a.58.58,0,0,1-.6-.6.65.65,0,0,1,.6-.6h1.9v-1.8a.58.58,0,0,1,.6-.6.65.65,0,0,1,.6.6v1.8A1.15,1.15,0,0,1,348.4,275.3Zm-5.1,0h-4a.58.58,0,0,1-.6-.6.65.65,0,0,1,.6-.6h4a.58.58,0,0,1,.6.6A.65.65,0,0,1,343.3,275.3Zm5.7-5.8a.58.58,0,0,1-.6-.6v-4.4a.58.58,0,0,1,.6-.6.65.65,0,0,1,.6.6v4.4C349.7,269.2,349.4,269.5,349,269.5Zm-16.2-.9a.58.58,0,0,1-.6-.6v-3.9a.58.58,0,0,1,.6-.6.65.65,0,0,1,.6.6V268C333.5,268.3,333.2,268.6,332.8,268.6Zm16.2-7.2a.58.58,0,0,1-.6-.6v-1.6H347a.58.58,0,0,1-.6-.6.65.65,0,0,1,.6-.6h1.4a1.16,1.16,0,0,1,1.2,1.2v1.7C349.7,261.1,349.4,261.4,349,261.4Zm-.6-2.3Zm-15.6,2.2a.58.58,0,0,1-.6-.6V259a1.16,1.16,0,0,1,1.2-1.2h1.5a.58.58,0,0,1,.6.6.65.65,0,0,1-.6.6h-1.4v1.6A.68.68,0,0,1,332.8,261.3Zm10.4-2.2h-4.3a.58.58,0,0,1-.6-.6.65.65,0,0,1,.6-.6h4.3a.58.58,0,0,1,.6.6A.65.65,0,0,1,343.2,259.1Z"/><path class="cls-12" d="M336.7,271.1a.76.76,0,0,1-.4-.2.61.61,0,0,1,0-.8l6.8-6.8a.57.57,0,0,1,.8.8l-6.8,6.8A.4.4,0,0,1,336.7,271.1Z"/><path id="Combined-Shape" class="cls-14" d="M328.9,270.1a.22.22,0,0,0-.2.2v8a.22.22,0,0,0,.2.2h8a.22.22,0,0,0,.2-.2v-8a.22.22,0,0,0-.2-.2Zm1.1.3h5.6a1,1,0,0,1,1,1V277a1,1,0,0,1-1,1H330a1,1,0,0,1-1-1v-5.6A1.17,1.17,0,0,1,330,270.4Z"/><path class="cls-14" d="M336.8,278.8h-8a.65.65,0,0,1-.6-.6v-8a.65.65,0,0,1,.6-.6h8a.65.65,0,0,1,.6.6v8A.58.58,0,0,1,336.8,278.8Zm-6.8-8a.65.65,0,0,0-.6.6V277a.65.65,0,0,0,.6.6h5.6a.65.65,0,0,0,.6-.6v-5.6a.65.65,0,0,0-.6-.6Z"/><path class="cls-12" d="M344.2,267.5a.65.65,0,0,1-.6-.6v-3.5h-3.5a.6.6,0,1,1,0-1.2h4a.65.65,0,0,1,.6.6v4A.51.51,0,0,1,344.2,267.5Z"/><g id="list-2"><path id="Path-5" data-name="Path" class="cls-12" d="M67.3,262.1a.4.4,0,1,0,0,.8H79.4a.4.4,0,0,0,0-.8Z"/><path class="cls-12" d="M79.4,263.2H67.3a.7.7,0,0,1,0-1.4H79.4a.7.7,0,0,1,0,1.4Zm-12.1-.7h0l12.1.1Z"/><path id="Path-6" data-name="Path" class="cls-12" d="M79.8,268a.43.43,0,0,0-.4-.4h-12a.4.4,0,0,0,0,.8H79.5C79.6,268.3,79.8,268.2,79.8,268Z"/><path class="cls-12" d="M79.4,268.7h-12a.7.7,0,0,1,0-1.4H79.5a.68.68,0,0,1,.7.7A.77.77,0,0,1,79.4,268.7Zm-12-.8,12.1.1H67.4Z"/><path id="Path-Copy-2-4" data-name="Path-Copy" class="cls-12" d="M77,273.4a.43.43,0,0,0-.4-.4H67.3a.4.4,0,0,0,0,.8h9.3A.37.37,0,0,0,77,273.4Z"/><path class="cls-12" d="M76.7,274.1H67.4a.7.7,0,1,1,0-1.4h9.3a.68.68,0,0,1,.7.7A.75.75,0,0,1,76.7,274.1Zm-9.3-.7,9.3.1H67.4Z"/><path id="Path-7" data-name="Path" class="cls-12" d="M72.8,277.6H68a3.8,3.8,0,0,1-3.8-3.8V262.2a3.8,3.8,0,0,1,3.8-3.8H79.1a3.8,3.8,0,0,1,3.8,3.8v6.7a.4.4,0,0,0,.8,0v-6.7a4.48,4.48,0,0,0-4.5-4.5H68a4.48,4.48,0,0,0-4.5,4.5v11.6a4.48,4.48,0,0,0,4.5,4.5h4.8a.43.43,0,0,0,.4-.4C73.2,277.7,73,277.6,72.8,277.6Z"/><path class="cls-12" d="M72.8,278.7H68a4.91,4.91,0,0,1-4.9-4.9V262.2a4.91,4.91,0,0,1,4.9-4.9H79.1a4.91,4.91,0,0,1,4.9,4.9v6.7a.7.7,0,1,1-1.4,0v-6.7a3.48,3.48,0,0,0-3.5-3.5H68a3.48,3.48,0,0,0-3.5,3.5v11.6a3.48,3.48,0,0,0,3.5,3.5h4.8a.7.7,0,1,1,0,1.4ZM68,258a4.23,4.23,0,0,0-4.2,4.2v11.6A4.23,4.23,0,0,0,68,278h4.8v-.1H68a4.12,4.12,0,0,1-4.1-4.1V262.2A4.14,4.14,0,0,1,68,258l11.1.1a4.12,4.12,0,0,1,4.1,4.1v6.7l.1-6.7a4.23,4.23,0,0,0-4.2-4.2Z"/></g><g id="add"><path id="Path-8" data-name="Path" class="cls-14" d="M80.87,277.45h0a1.32,1.32,0,0,1-1.3-1.3.3.3,0,1,0-.6,0,2,2,0,0,0,1.6,1.9v.7a.3.3,0,0,0,.6,0v-.7a1.86,1.86,0,0,0,1.6-2,2,2,0,0,0-1.9-1.8,1.3,1.3,0,1,1,1.3-1.3.3.3,0,1,0,.6,0,2,2,0,0,0-1.6-1.9v-.6a.3.3,0,0,0-.6,0v.6a1.86,1.86,0,0,0-1.6,2,2,2,0,0,0,1.9,1.8,1.3,1.3,0,0,1,0,2.6Z"/><path class="cls-14" d="M80.87,279.25a.65.65,0,0,1-.6-.6v-.5a2.25,2.25,0,0,1-1.6-2.1.6.6,0,1,1,1.2,0,1,1,0,0,0,1,1v0a1,1,0,0,0,0-2,2.19,2.19,0,0,1-.6-4.3v-.3a.6.6,0,1,1,1.2,0v.4a2.25,2.25,0,0,1,1.6,2.1.6.6,0,1,1-1.2,0,1,1,0,0,0-1-1,1,1,0,0,0,0,2,2.19,2.19,0,0,1,.6,4.3v.5A.56.56,0,0,1,80.87,279.25Zm-1.6-3.1a1.62,1.62,0,0,0,1.4,1.6h.2v.9H81v-.9h.2a1.75,1.75,0,0,0,1.4-1.8,1.71,1.71,0,0,0-1.6-1.5,1.6,1.6,0,1,1,1.6-1.6h.1a1.62,1.62,0,0,0-1.4-1.6h-.2v-.8H81v.8h-.2a1.75,1.75,0,0,0-1.4,1.8,1.71,1.71,0,0,0,1.6,1.5,1.55,1.55,0,0,1,.1,3.1h0a1.52,1.52,0,0,1-1.8-1.5Z"/></g><path id="Combined-Shape-2" data-name="Combined-Shape" class="cls-14" d="M66.7,141.3a1.69,1.69,0,0,1-1.7-1.7,1.7,1.7,0,0,1,3.4,0A1.69,1.69,0,0,1,66.7,141.3Zm0-1.1a.58.58,0,0,0,.6-.6.53.53,0,0,0-.6-.6.6.6,0,1,0,0,1.2Z"/><path id="Combined-Shape-3" data-name="Combined-Shape" class="cls-14" d="M72.1,135.3a1.69,1.69,0,0,1-1.7-1.7,1.7,1.7,0,0,1,3.4,0A1.69,1.69,0,0,1,72.1,135.3Zm0-1.1a.6.6,0,1,0-.6-.6C71.6,133.9,71.8,134.2,72.1,134.2Z"/><path id="Combined-Shape-4" data-name="Combined-Shape" class="cls-14" d="M77.9,141.3a1.69,1.69,0,0,1-1.7-1.7,1.63,1.63,0,0,1,1.7-1.7,1.7,1.7,0,0,1,0,3.4Zm0-1.1a.58.58,0,0,0,.6-.6.53.53,0,0,0-.6-.6.6.6,0,1,0,0,1.2Z"/><rect class="cls-14" x="66.39" y="135.82" width="5.8" height="1.2" transform="translate(-79.82 102.12) rotate(-50.12)"/><rect class="cls-14" x="74.37" y="133.29" width="1.2" height="6" transform="translate(-73.06 88.52) rotate(-43.3)"/><path class="cls-14" d="M78.5,139.3a.76.76,0,0,1-.4-.2.63.63,0,0,1,0-.9l5.4-6a.56.56,0,0,1,.9,0,.63.63,0,0,1,0,.9l-5.4,6A.55.55,0,0,1,78.5,139.3Z"/><path class="cls-12" d="M72.1,149.4a10.39,10.39,0,0,1-6.7-2.4A10.67,10.67,0,0,1,71,128.1a10.82,10.82,0,0,1,9.7,4.2.86.86,0,1,1-1.4,1,8.64,8.64,0,0,0-8.1-3.5,9.06,9.06,0,0,0-8,9.9,8.86,8.86,0,0,0,3.3,6,9.28,9.28,0,0,0,6.6,2,9.09,9.09,0,0,0,8.1-9,1,1,0,0,1,.8-.9h0a.79.79,0,0,1,.8.8,10.73,10.73,0,0,1-9.6,10.7C72.9,149.3,72.5,149.4,72.1,149.4Z"/><path class="cls-12" d="M84.8,152a1.42,1.42,0,0,1-.6-.2l-5.6-5.6a.85.85,0,1,1,1.2-1.2l5.6,5.6a.91.91,0,0,1,0,1.2A1.42,1.42,0,0,1,84.8,152Z"/><path class="cls-12" d="M99.5,140.9l-2.1-6h0a21.75,21.75,0,0,1,.1,2.5v3.5H96.4v-7.1H98l2,5.7h0l2-5.7h1.7v7.1h-1.1V135h0l-2.1,6h-1Z"/><path class="cls-12" d="M110.3,138.2a2.82,2.82,0,0,1-.7,2.1,2.94,2.94,0,0,1-3.2.4,2.93,2.93,0,0,1-.9-1,3.34,3.34,0,0,1-.3-1.5,2.82,2.82,0,0,1,.7-2.1,2.49,2.49,0,0,1,1.9-.7,2.43,2.43,0,0,1,2.5,2.8Zm-3.9,0c0,1.2.5,1.9,1.4,1.9s1.4-.6,1.4-1.9-.5-1.9-1.4-1.9a1.1,1.1,0,0,0-1,.5A2.59,2.59,0,0,0,106.4,138.2Z"/><path class="cls-12" d="M116.4,140.9h-1.2v-3.3a1.22,1.22,0,0,0-.3-.9,1,1,0,0,0-.8-.3,1.37,1.37,0,0,0-1.1.4c-.3.3-.3.8-.3,1.4v2.7h-1.1v-5.4h.9l.2.7h.1a1.34,1.34,0,0,1,.7-.6,3,3,0,0,1,1-.2c1.3,0,1.9.7,1.9,2Z"/><path class="cls-12" d="M117.9,134.1a.7.7,0,1,1,1.4,0c0,.2-.1.3-.2.5s-.3.2-.5.2a.76.76,0,0,1-.5-.2A1.06,1.06,0,0,1,117.9,134.1Zm1.3,6.8H118v-5.4h1.1v5.4Z"/><path class="cls-12" d="M122.8,140.1a2,2,0,0,0,.8-.1v.9a.75.75,0,0,1-.5.1c-.2,0-.4.1-.6.1-1.1,0-1.6-.6-1.6-1.7v-2.9h-.7V136l.8-.4.4-1.1h.7v1.2h1.5v.9h-1.5v2.9a.85.85,0,0,0,.2.6C122.4,140.2,122.6,140.1,122.8,140.1Z"/><path class="cls-12" d="M129.5,138.2a2.82,2.82,0,0,1-.7,2.1,2.94,2.94,0,0,1-3.2.4,2.93,2.93,0,0,1-.9-1,3.34,3.34,0,0,1-.3-1.5,2.82,2.82,0,0,1,.7-2.1,2.49,2.49,0,0,1,1.9-.7,2.43,2.43,0,0,1,2.5,2.8Zm-3.9,0c0,1.2.5,1.9,1.4,1.9s1.4-.6,1.4-1.9-.5-1.9-1.4-1.9a1.1,1.1,0,0,0-1,.5A2.59,2.59,0,0,0,125.6,138.2Z"/><path class="cls-12" d="M133.6,135.4h.6l-.1,1.1c-.2,0-.3-.1-.5-.1a1.37,1.37,0,0,0-1.1.4,1.59,1.59,0,0,0-.4,1.2v2.8H131v-5.4h.9l.2,1h.1a2.7,2.7,0,0,1,.7-.8A.84.84,0,0,1,133.6,135.4Z"/><path class="cls-12" d="M135.1,134.1a.7.7,0,1,1,1.4,0c0,.2-.1.3-.2.5s-.3.2-.5.2a.76.76,0,0,1-.5-.2A1.06,1.06,0,0,1,135.1,134.1Zm1.2,6.8h-1.1v-5.4h1.1Z"/><path class="cls-12" d="M142.7,140.9h-1.2v-3.3a1.22,1.22,0,0,0-.3-.9,1,1,0,0,0-.8-.3,1.37,1.37,0,0,0-1.1.4c-.3.3-.3.8-.3,1.4v2.7h-1.1v-5.4h.9l.2.7h.1a1.34,1.34,0,0,1,.7-.6,3,3,0,0,1,1-.2c1.3,0,1.9.7,1.9,2v3.5Z"/><path class="cls-12" d="M148.8,135.5v.6l-.9.2a.76.76,0,0,1,.2.4,4.33,4.33,0,0,1,.1.5,1.49,1.49,0,0,1-.6,1.3,2.54,2.54,0,0,1-1.6.5h-.5c-.2.2-.4.3-.4.5s.1.2.2.3.3.1.6.1h.9a2.12,2.12,0,0,1,1.4.4,1.17,1.17,0,0,1,.5,1.1,1.6,1.6,0,0,1-.8,1.4,4.2,4.2,0,0,1-2.2.5,2.86,2.86,0,0,1-1.7-.4,1.25,1.25,0,0,1-.6-1.1,1.14,1.14,0,0,1,.3-.8,1.93,1.93,0,0,1,.9-.5,1.38,1.38,0,0,1-.4-.3.75.75,0,0,1-.1-.5.76.76,0,0,1,.2-.5,2.18,2.18,0,0,1,.5-.4,1.34,1.34,0,0,1-.7-.6,1.69,1.69,0,0,1-.3-1,1.82,1.82,0,0,1,.6-1.4,2.07,2.07,0,0,1,1.6-.5h.5c.2,0,.3,0,.4.1h1.9Zm-4.2,6.2a.86.86,0,0,0,.3.6c.2.2.5.2.9.2a2.65,2.65,0,0,0,1.4-.3c.3-.2.5-.4.5-.7a.55.55,0,0,0-.3-.5,2.22,2.22,0,0,0-.9-.1h-.9a1.88,1.88,0,0,0-.8.2C144.6,141.2,144.6,141.5,144.6,141.7Zm.5-4.5a1.14,1.14,0,0,0,.3.8.91.91,0,0,0,.7.3c.7,0,1-.4,1-1.1a1.55,1.55,0,0,0-.2-.8.78.78,0,0,0-.7-.3,1,1,0,0,0-1.1,1.1Z"/><circle class="cls-7" cx="284.4" cy="258.8" r="1.4"/><circle class="cls-7" cx="289.2" cy="258.8" r="1.4"/><circle class="cls-7" cx="294.1" cy="258.8" r="1.4"/><path class="cls-12" d="M99.5,262.9a1.86,1.86,0,0,0-1.6.7,3.63,3.63,0,0,0,0,4,1.86,1.86,0,0,0,1.6.7,2.77,2.77,0,0,0,.9-.1c.3-.1.6-.1.9-.2v1a5.82,5.82,0,0,1-1.9.3,3,3,0,0,1-2.4-1,3.65,3.65,0,0,1-.8-2.7,3.81,3.81,0,0,1,.4-1.9,3.74,3.74,0,0,1,1.2-1.3,3.42,3.42,0,0,1,1.8-.4,4.55,4.55,0,0,1,2,.5l-.4,1a6.89,6.89,0,0,0-.8-.3A1.61,1.61,0,0,0,99.5,262.9Z"/><path class="cls-12" d="M107.4,266.5a2.82,2.82,0,0,1-.7,2.1,2.94,2.94,0,0,1-3.2.4,2.19,2.19,0,0,1-.9-1,3.34,3.34,0,0,1-.3-1.5,2.82,2.82,0,0,1,.7-2.1,2.35,2.35,0,0,1,1.9-.7,2.43,2.43,0,0,1,2.5,2.8Zm-3.9,0c0,1.2.5,1.9,1.4,1.9s1.4-.6,1.4-1.9-.5-1.9-1.4-1.9a1.1,1.1,0,0,0-1,.5A2,2,0,0,0,103.5,266.5Z"/><path class="cls-12" d="M112.4,267.6a1.43,1.43,0,0,1-.6,1.2,2.67,2.67,0,0,1-1.7.4,4,4,0,0,1-1.7-.3v-1a3.92,3.92,0,0,0,1.8.4c.7,0,1.1-.2,1.1-.6,0-.1,0-.3-.1-.3a1.38,1.38,0,0,0-.4-.3,4.88,4.88,0,0,0-.7-.3,5,5,0,0,1-1.3-.7,1.4,1.4,0,0,1-.3-.9,1.25,1.25,0,0,1,.6-1.1,2.41,2.41,0,0,1,1.5-.4,3.92,3.92,0,0,1,1.8.4l-.4.9a5.62,5.62,0,0,0-1.5-.4c-.6,0-.9.2-.9.5a.52.52,0,0,0,.2.4,4.34,4.34,0,0,0,1,.5,4.61,4.61,0,0,1,1,.5.66.66,0,0,1,.4.5A1.42,1.42,0,0,1,112.4,267.6Z"/><path class="cls-12" d="M115.6,268.3a2,2,0,0,0,.8-.1v.9a.75.75,0,0,1-.5.1c-.2,0-.4.1-.6.1-1.1,0-1.6-.6-1.6-1.7v-2.9H113v-.5l.8-.4.4-1.1h.7v1.2h1.5v.9h-1.5v2.9a.85.85,0,0,0,.2.6C115.2,268.4,115.4,268.3,115.6,268.3Z"/><circle class="cls-15" cx="89" cy="175.6" r="1.5"/><circle class="cls-15" cx="89" cy="187" r="1.5"/><circle class="cls-15" cx="89" cy="198.3" r="1.5"/><circle class="cls-15" cx="89" cy="209.6" r="1.5"/><circle class="cls-7" cx="136.2" cy="216.8" r="1.5"/><circle class="cls-7" cx="118.1" cy="216.8" r="1.5"/><circle class="cls-7" cx="99.9" cy="216.8" r="1.5"/><circle class="cls-7" cx="208.9" cy="216.8" r="1.5"/><circle class="cls-7" cx="190.7" cy="216.8" r="1.5"/><circle class="cls-7" cx="172.6" cy="216.8" r="1.5"/><circle class="cls-7" cx="154.4" cy="216.8" r="1.5"/><circle class="cls-7" cx="281.5" cy="216.8" r="1.5"/><circle class="cls-7" cx="263.4" cy="216.8" r="1.5"/><circle class="cls-7" cx="245.2" cy="216.8" r="1.5"/><circle class="cls-7" cx="227" cy="216.8" r="1.5"/><line class="cls-16" x1="97.7" y1="209.6" x2="283" y2="209.6"/><line class="cls-16" x1="97.7" y1="198.3" x2="283" y2="198.3"/><line class="cls-16" x1="97.7" y1="187" x2="283" y2="187"/><line class="cls-16" x1="97.7" y1="175.6" x2="283" y2="175.6"/><polygon class="cls-17" points="99.6 197.2 100.3 190.3 105.4 188.1 112.4 190.6 121.2 188.2 126.5 190.5 136.2 187.3 146 190.6 156.1 187.2 162.6 190.5 172.5 187.3 183.7 190.6 192.2 188.2 200.4 190.5 206.4 187.6 219.8 184.5 233.3 182.2 238.5 184.3 246.7 182.2 254.7 184.4 263.6 182.2 272.9 186.2 280.2 182.6 280.2 189.3 273.1 192.8 263.1 188.5 254.6 190.5 246.7 188.4 238.1 190.6 232.7 188.4 220.9 190.4 208.4 193.3 201 196.9 192.2 194.5 183.6 196.9 172.6 193.6 162.1 197 155.7 193.7 146 196.9 136.2 193.6 126.2 197 120.8 194.5 112.2 196.9 105.6 194.6 99.6 197.2"/><polygon class="cls-17" points="99.6 207.6 100.3 200.8 105.4 198.6 112.4 201 121.2 198.6 126.5 200.9 136.2 197.7 146 201 156.1 197.6 162.6 200.9 172.5 197.7 183.7 201 192.2 198.7 200.4 201 206.4 198 219.8 194.9 233.3 192.7 238.5 194.7 246.7 192.7 254.7 194.8 263.6 192.6 272.9 196.7 280.2 193.1 280.2 199.8 273.1 203.3 263.1 198.9 254.6 201 246.7 198.9 238.1 201 232.7 198.9 220.9 200.8 208.4 203.7 201 207.4 192.2 204.9 183.6 207.3 172.6 204 162.1 207.4 155.7 204.1 146 207.3 136.2 204 126.2 207.4 120.8 204.9 112.2 207.3 105.6 205 99.6 207.6"/><path class="cls-18" d="M155,314.5l-1.4-3.5a11.74,11.74,0,1,0,4.8-.4c-.3,0-.6-.1-.9-.1l-1.2,4.2Z"/><path class="cls-19" d="M191,326.6a34.63,34.63,0,0,0-.8-12.9l-21.9,5.5A11.83,11.83,0,0,1,155.5,334c-.1,0-.3-.1-.4-.1l-7.6,21.4a43.56,43.56,0,0,0,5.2,1.1A34.44,34.44,0,0,0,191,326.6Z"/><path class="cls-17" d="M166.9,289.4,160.3,311a11.63,11.63,0,0,1,7.1,5.9l22-5.8A33.91,33.91,0,0,0,166.9,289.4Z"/><path class="cls-20" d="M166.9,289.4,160.3,311a11.63,11.63,0,0,1,7.1,5.9l22-5.8A33.91,33.91,0,0,0,166.9,289.4Z"/><path class="cls-21" d="M157.6,310.5l6.1-21.9a20,20,0,0,0-2.4-.4,34.19,34.19,0,0,0-16.3,1.9l8.6,20.9A10.75,10.75,0,0,1,157.6,310.5Z"/><circle class="cls-7" cx="547.5" cy="130.5" r="1.4"/><circle class="cls-7" cx="552.3" cy="130.5" r="1.4"/><circle class="cls-7" cx="557.1" cy="130.5" r="1.4"/><path class="cls-12" d="M359.3,141.7v-7.14h1.17v7.14Z"/><path class="cls-12" d="M364.05,141.8a1.9,1.9,0,0,1-1.58-.74,4,4,0,0,1,0-4.12,1.9,1.9,0,0,1,1.59-.74,1.85,1.85,0,0,1,1.62.79h.06a6.19,6.19,0,0,1-.08-.92v-2h1.15v7.6h-.9l-.2-.71h-.05A1.84,1.84,0,0,1,364.05,141.8Zm.31-.93a1.24,1.24,0,0,0,1-.4,2.13,2.13,0,0,0,.33-1.29V139a2.44,2.44,0,0,0-.33-1.45,1.22,1.22,0,0,0-1-.43,1,1,0,0,0-.93.49,2.5,2.5,0,0,0-.33,1.4,2.39,2.39,0,0,0,.32,1.37A1.08,1.08,0,0,0,364.36,140.87Z"/><path class="cls-12" d="M369.61,141.7h-1.15v-7.6h1.15Z"/><path class="cls-12" d="M373.61,141.8a2.61,2.61,0,0,1-2-.74,2.75,2.75,0,0,1-.71-2,3.1,3.1,0,0,1,.65-2.08,2.28,2.28,0,0,1,1.82-.76,2.25,2.25,0,0,1,1.69.65,2.5,2.5,0,0,1,.62,1.79v.62h-3.6a1.78,1.78,0,0,0,.42,1.21,1.49,1.49,0,0,0,1.13.42,4.13,4.13,0,0,0,.89-.09,4.66,4.66,0,0,0,.89-.3v.93a3.53,3.53,0,0,1-.85.28A4.88,4.88,0,0,1,373.61,141.8Zm-.21-4.73a1.16,1.16,0,0,0-.88.35,1.64,1.64,0,0,0-.39,1h2.45a1.52,1.52,0,0,0-.32-1A1.11,1.11,0,0,0,373.4,137.07Z"/><circle class="cls-7" cx="547.5" cy="258.8" r="1.4"/><circle class="cls-7" cx="552.3" cy="258.8" r="1.4"/><circle class="cls-7" cx="557.1" cy="258.8" r="1.4"/><path class="cls-12" d="M363.6,267.2a1.8,1.8,0,0,1-.7,1.5,2.85,2.85,0,0,1-1.9.5,4,4,0,0,1-2-.4v-1.1a4.18,4.18,0,0,0,1,.4,3.4,3.4,0,0,0,1,.1,1.33,1.33,0,0,0,1-.3,1,1,0,0,0,0-1.4,4.61,4.61,0,0,0-1.3-.7,4.21,4.21,0,0,1-1.4-.9,1.59,1.59,0,0,1-.4-1.2,1.68,1.68,0,0,1,.6-1.4,2.86,2.86,0,0,1,1.7-.5,4.48,4.48,0,0,1,2,.4l-.4,1a3.81,3.81,0,0,0-1.7-.4,2,2,0,0,0-.9.2,1.07,1.07,0,0,0-.2,1.2.78.78,0,0,0,.4.4,8.92,8.92,0,0,0,1,.5,6.66,6.66,0,0,1,1.2.6,2.65,2.65,0,0,1,.5.6A.87.87,0,0,1,363.6,267.2Z"/><path class="cls-12" d="M364.8,262.3a.7.7,0,1,1,1.4,0c0,.2-.1.3-.2.5s-.3.2-.5.2a.68.68,0,0,1-.7-.7Zm1.3,6.9H365v-5.4h1.1Z"/><path class="cls-12" d="M371.3,269.2h-4.1v-.7l2.7-3.8h-2.6v-.9h3.9v.8l-2.7,3.7h2.7v.9Z"/><path class="cls-12" d="M372.4,262.3a.7.7,0,1,1,1.4,0c0,.2-.1.3-.2.5s-.3.2-.5.2a.68.68,0,0,1-.7-.7Zm1.2,6.9h-1.1v-5.4h1.1Z"/><path class="cls-12" d="M380,269.2h-1.2v-3.3a1.22,1.22,0,0,0-.3-.9,1,1,0,0,0-.8-.3,1.37,1.37,0,0,0-1.1.4,2.65,2.65,0,0,0-.3,1.4v2.7h-1.1v-5.4h.9l.2.7h.1a1.34,1.34,0,0,1,.7-.6,3,3,0,0,1,1-.2c1.3,0,1.9.7,1.9,2v3.5Z"/><path class="cls-12" d="M386.2,263.8v.6l-.9.2a.76.76,0,0,1,.2.4.9.9,0,0,1,.1.5,1.49,1.49,0,0,1-.6,1.3,2.54,2.54,0,0,1-1.6.5h-.5c-.2.2-.4.3-.4.5s.1.2.2.3.3.1.6.1h.9a2.12,2.12,0,0,1,1.4.4,1.43,1.43,0,0,1,.5,1.1,1.6,1.6,0,0,1-.8,1.4,4.2,4.2,0,0,1-2.2.5,2.86,2.86,0,0,1-1.7-.4,1.25,1.25,0,0,1-.6-1.1,1.14,1.14,0,0,1,.3-.8,1.93,1.93,0,0,1,.9-.5,1.38,1.38,0,0,1-.4-.3.75.75,0,0,1-.1-.5.76.76,0,0,1,.2-.5,2.18,2.18,0,0,1,.5-.4,1.34,1.34,0,0,1-.7-.6,1.69,1.69,0,0,1-.3-1,1.82,1.82,0,0,1,.6-1.4,2.54,2.54,0,0,1,1.6-.5h.5c.2,0,.3,0,.4.1h1.9Zm-4.3,6.2a.86.86,0,0,0,.3.6,2,2,0,0,0,.9.2,2.65,2.65,0,0,0,1.4-.3c.3-.2.5-.4.5-.7a.55.55,0,0,0-.3-.5,2.22,2.22,0,0,0-.9-.1H383a1.88,1.88,0,0,0-.8.2A.71.71,0,0,0,381.9,270Zm.5-4.5a1.14,1.14,0,0,0,.3.8.91.91,0,0,0,.7.3c.7,0,1-.4,1-1.1a1.55,1.55,0,0,0-.2-.8,1,1,0,0,0-.8-.3,1.14,1.14,0,0,0-.8.3A1.88,1.88,0,0,0,382.4,265.5Z"/><path class="cls-12" d="M337.5,295.9a1.9,1.9,0,0,0-1.3.5,2.46,2.46,0,0,0-.5,1.5,2.07,2.07,0,0,0,.5,1.5,1.73,1.73,0,0,0,1.3.5,7.38,7.38,0,0,0,1.2-.2v.5a4.44,4.44,0,0,1-1.3.2,2.06,2.06,0,0,1-1.7-.7,2.71,2.71,0,0,1-.6-1.9,3.19,3.19,0,0,1,.3-1.4,2.36,2.36,0,0,1,.8-.9,2.77,2.77,0,0,1,1.3-.3,3.19,3.19,0,0,1,1.4.3l-.2.5C338.3,296,337.9,295.9,337.5,295.9Z"/><path class="cls-12" d="M340.2,296.7v2.4a1.45,1.45,0,0,0,.2.7c.1.2.4.2.7.2a1.22,1.22,0,0,0,.9-.3,1.49,1.49,0,0,0,.3-1v-2h.6v3.7h-.5l-.1-.5h0a1,1,0,0,1-.5.4,1.48,1.48,0,0,1-.7.1,1.33,1.33,0,0,1-1-.3,1.49,1.49,0,0,1-.3-1v-2.5h.4Z"/><path class="cls-12" d="M345.7,296.6h.4l-.1.5c-.2,0-.3-.1-.4-.1a.91.91,0,0,0-.8.4,1.4,1.4,0,0,0-.3.9v2H344v-3.7h.5l.1.7h0a2.65,2.65,0,0,1,.5-.6C345.3,296.7,345.5,296.6,345.7,296.6Z"/><path class="cls-12" d="M348.6,296.6h.4l-.1.5c-.2,0-.3-.1-.4-.1a.91.91,0,0,0-.8.4,1.4,1.4,0,0,0-.3.9v2h-.6v-3.7h.5l.1.7h0a2.65,2.65,0,0,1,.5-.6C348.1,296.7,348.3,296.6,348.6,296.6Z"/><path class="cls-12" d="M351.3,300.5a1.73,1.73,0,0,1-1.3-.5,2,2,0,0,1-.5-1.4,2,2,0,0,1,.4-1.4,1.35,1.35,0,0,1,1.2-.5,1.43,1.43,0,0,1,1.1.5,1.59,1.59,0,0,1,.4,1.2v.4H350a1.49,1.49,0,0,0,.3,1,1.22,1.22,0,0,0,.9.3,2.66,2.66,0,0,0,1.2-.3v.5c-.2.1-.4.1-.6.2Zm-.2-3.4a.91.91,0,0,0-.7.3,1.14,1.14,0,0,0-.3.8h2a1.55,1.55,0,0,0-.2-.8C351.8,297.2,351.4,297.1,351.1,297.1Z"/><path class="cls-12" d="M356.2,300.4V298a1.45,1.45,0,0,0-.2-.7c-.1-.2-.4-.2-.7-.2a1.22,1.22,0,0,0-.9.3,1.49,1.49,0,0,0-.3,1v2h-.6v-3.7h.5l.1.5h0a1,1,0,0,1,.5-.4,1.45,1.45,0,0,1,.7-.2,1.33,1.33,0,0,1,1,.3,1.49,1.49,0,0,1,.3,1v2.4h-.4Z"/><path class="cls-12" d="M359.1,300h.5v.4c-.1,0-.2.1-.3.1H359a1,1,0,0,1-1.1-1.1v-2.2h-.5v-.3l.5-.2.2-.8h.3v.9h1.1v.4h-1.1v2.2a.76.76,0,0,0,.2.5A1.09,1.09,0,0,0,359.1,300Z"/><path class="cls-12" d="M363.8,300.4h-.6V296h-1.6v-.5h3.7v.5h-1.6v4.4Z"/><path class="cls-12" d="M365.5,296.7h.6l.8,2.1a3,3,0,0,1,.3,1.1h0a3.93,3.93,0,0,1,.2-.6c.1-.3.4-1.1.9-2.6h.6l-1.6,4.3a2,2,0,0,1-.6.9,1.33,1.33,0,0,1-.8.3.9.9,0,0,1-.5-.1v-.5h.4a.76.76,0,0,0,.8-.7l.2-.5Z"/><path class="cls-12" d="M371.4,300.5a1.7,1.7,0,0,1-.7-.1,1,1,0,0,1-.5-.4h0v2.1h-.6v-5.4h.5l.1.5h0a.66.66,0,0,1,.5-.4,1.48,1.48,0,0,1,.7-.1,1.66,1.66,0,0,1,1.2.5,2.65,2.65,0,0,1,0,2.8A1.66,1.66,0,0,1,371.4,300.5Zm-.1-3.4c-.4,0-.7.1-.8.3a1.33,1.33,0,0,0-.3,1v.1a1.61,1.61,0,0,0,.3,1.1,1.14,1.14,0,0,0,.8.3.91.91,0,0,0,.8-.4,2.17,2.17,0,0,0,0-2.2A1.88,1.88,0,0,0,371.3,297.1Z"/><path class="cls-12" d="M375.5,300.5a1.73,1.73,0,0,1-1.3-.5,2,2,0,0,1-.5-1.4,2,2,0,0,1,.4-1.4,1.35,1.35,0,0,1,1.2-.5,1.43,1.43,0,0,1,1.1.5,1.59,1.59,0,0,1,.4,1.2v.4h-2.6a1.49,1.49,0,0,0,.3,1,1.22,1.22,0,0,0,.9.3,2.66,2.66,0,0,0,1.2-.3v.5c-.2.1-.4.1-.6.2Zm-.2-3.4a.91.91,0,0,0-.7.3,1.14,1.14,0,0,0-.3.8h2a1.55,1.55,0,0,0-.2-.8C376,297.2,375.6,297.1,375.3,297.1Z"/><path class="cls-15" d="M513,325h-.5v-5.2a7.57,7.57,0,0,1,.1-1.5.35.35,0,0,1-.2.1,8,8,0,0,0-1.5,1.2l-.3-.3,1.9-1.5h.4V325Z"/><path class="cls-15" d="M520.4,325h-4.5v-.4l1.9-2c.5-.6.9-1,1.1-1.3a9.22,9.22,0,0,0,.5-.8,1.88,1.88,0,0,0,.2-.8,1.16,1.16,0,0,0-.4-1,1.82,1.82,0,0,0-1.1-.4,2.72,2.72,0,0,0-1.7.6l-.3-.3a3.18,3.18,0,0,1,2-.8,2.46,2.46,0,0,1,1.5.5,1.62,1.62,0,0,1,.5,1.4,2.5,2.5,0,0,1-.4,1.4,7.55,7.55,0,0,1-1.3,1.6l-1.8,1.9h3.8Z"/><path class="cls-15" d="M526.2,321.4a5.06,5.06,0,0,1-.6,2.8,2.06,2.06,0,0,1-3.4,0,5.06,5.06,0,0,1-.6-2.8,5.3,5.3,0,0,1,.6-2.8,2.06,2.06,0,0,1,3.4,0A5.55,5.55,0,0,1,526.2,321.4Zm-4,0a5.67,5.67,0,0,0,.4,2.5,1.44,1.44,0,0,0,1.3.8,1.34,1.34,0,0,0,1.3-.8,5.19,5.19,0,0,0,.4-2.4,4.94,4.94,0,0,0-.4-2.4,1.44,1.44,0,0,0-1.3-.8,1.34,1.34,0,0,0-1.3.8A5.92,5.92,0,0,0,522.2,321.4Z"/><path class="cls-15" d="M527.6,324.6c0-.3.1-.5.4-.5s.4.2.4.5-.1.5-.4.5S527.6,324.9,527.6,324.6Z"/><path class="cls-15" d="M532.5,325H532v-5.2a7.57,7.57,0,0,1,.1-1.5.35.35,0,0,1-.2.1,8,8,0,0,0-1.5,1.2l-.3-.3,1.9-1.5h.4V325Z"/><path class="cls-15" d="M510.3,337.7a5.27,5.27,0,0,1,.4-2.3,3.14,3.14,0,0,1,1.1-1.4,3.1,3.1,0,0,1,1.7-.5,2,2,0,0,1,.8.1v.4a2.22,2.22,0,0,0-.9-.1,2.32,2.32,0,0,0-1.9.9,5.26,5.26,0,0,0-.8,2.5h.1a1.78,1.78,0,0,1,.8-.7,3.55,3.55,0,0,1,1-.2,2.06,2.06,0,0,1,2.2,2.2,2.35,2.35,0,0,1-.6,1.7,2.11,2.11,0,0,1-1.6.6,2.14,2.14,0,0,1-1.7-.8A4.27,4.27,0,0,1,510.3,337.7Zm2.3,2.7a1.66,1.66,0,0,0,1.2-.5,2,2,0,0,0,.4-1.4,1.84,1.84,0,0,0-.4-1.3,1.66,1.66,0,0,0-1.2-.5,2.92,2.92,0,0,0-.9.2,1.34,1.34,0,0,0-.7.6,1.08,1.08,0,0,0-.3.7,3,3,0,0,0,.2,1,2.7,2.7,0,0,0,.7.8A1.62,1.62,0,0,0,512.6,340.4Z"/><path class="cls-15" d="M520.5,337.2a5.06,5.06,0,0,1-.6,2.8,2.06,2.06,0,0,1-3.4,0,5.06,5.06,0,0,1-.6-2.8,5.3,5.3,0,0,1,.6-2.8,2.06,2.06,0,0,1,3.4,0A5.3,5.3,0,0,1,520.5,337.2Zm-4,0a5.67,5.67,0,0,0,.4,2.5,1.44,1.44,0,0,0,1.3.8,1.34,1.34,0,0,0,1.3-.8,5.19,5.19,0,0,0,.4-2.4,4.94,4.94,0,0,0-.4-2.4,1.44,1.44,0,0,0-1.3-.8,1.34,1.34,0,0,0-1.3.8A5.92,5.92,0,0,0,516.5,337.2Z"/><path class="cls-15" d="M521.9,340.4c0-.3.1-.5.4-.5s.4.2.4.5-.1.5-.4.5S521.9,340.7,521.9,340.4Z"/><path class="cls-15" d="M526.1,336.4a2.44,2.44,0,0,1,1.8.6,2.13,2.13,0,0,1,.7,1.5,2.06,2.06,0,0,1-.7,1.7,2.88,2.88,0,0,1-1.9.6,3.08,3.08,0,0,1-1-.1,6.89,6.89,0,0,1-.8-.3v-.5c.4.2.7.3.9.4a2.77,2.77,0,0,0,.9.1,2.46,2.46,0,0,0,1.5-.5,1.61,1.61,0,0,0,.6-1.3,1.76,1.76,0,0,0-.6-1.3,2,2,0,0,0-1.5-.5,5.85,5.85,0,0,0-1.3.2l-.3-.2.3-3.3h3.4v.5h-3l-.2,2.5C525.4,336.5,525.8,336.4,526.1,336.4Z"/><path class="cls-15" d="M534.2,340.7h-4.5v-.4l1.9-2c.5-.6.9-1,1.1-1.3a9.22,9.22,0,0,0,.5-.8,1.88,1.88,0,0,0,.2-.8,1.16,1.16,0,0,0-.4-1,1.82,1.82,0,0,0-1.1-.4,2.72,2.72,0,0,0-1.7.6l-.3-.3a3.18,3.18,0,0,1,2-.8,2.46,2.46,0,0,1,1.5.5,1.62,1.62,0,0,1,.5,1.4,2.5,2.5,0,0,1-.4,1.4,7.55,7.55,0,0,1-1.3,1.6l-1.8,1.9h3.8Z"/><path class="cls-12" d="M437.8,297.6a1.66,1.66,0,0,1-.5,1.2,2.08,2.08,0,0,1-1.5.4h-.6v2h-.6v-5h1.3C437.2,296.1,437.8,296.6,437.8,297.6Zm-2.6,1h.5a2.68,2.68,0,0,0,1.1-.2,1,1,0,0,0,.3-.8.78.78,0,0,0-.3-.7,1.5,1.5,0,0,0-1-.2h-.7v1.9Z"/><path class="cls-12" d="M440.5,297.3h.4l-.1.5c-.2,0-.3-.1-.4-.1a.91.91,0,0,0-.8.4,1.4,1.4,0,0,0-.3.9v2h-.6v-3.7h.5l.1.7h0a2.65,2.65,0,0,1,.5-.6C440,297.4,440.3,297.3,440.5,297.3Z"/><path class="cls-12" d="M444.9,299.2a2,2,0,0,1-.5,1.4,1.73,1.73,0,0,1-1.3.5,2.92,2.92,0,0,1-.9-.2,1.34,1.34,0,0,1-.6-.7,3,3,0,0,1-.2-1,2,2,0,0,1,.5-1.4,1.73,1.73,0,0,1,1.3-.5,1.66,1.66,0,0,1,1.2.5A2.17,2.17,0,0,1,444.9,299.2Zm-2.9,0a1.8,1.8,0,0,0,.3,1.1.91.91,0,0,0,.8.4c.3,0,.7-.1.8-.4a1.61,1.61,0,0,0,.3-1.1,1.8,1.8,0,0,0-.3-1.1,1,1,0,0,0-.9-.4c-.4,0-.7.1-.8.4A3.09,3.09,0,0,0,442,299.2Z"/><path class="cls-12" d="M447.6,301.2a1.7,1.7,0,0,1-.7-.1,1,1,0,0,1-.5-.4h0v2.1h-.6v-5.4h.5l.1.5h0a.66.66,0,0,1,.5-.4,1.48,1.48,0,0,1,.7-.1,1.66,1.66,0,0,1,1.2.5,2.65,2.65,0,0,1,0,2.8A1.66,1.66,0,0,1,447.6,301.2Zm-.1-3.4c-.4,0-.7.1-.8.3a1.33,1.33,0,0,0-.3,1v.1a1.61,1.61,0,0,0,.3,1.1,1.14,1.14,0,0,0,.8.3.91.91,0,0,0,.8-.4,2.17,2.17,0,0,0,0-2.2A1.55,1.55,0,0,0,447.5,297.8Z"/><path class="cls-12" d="M453.4,299.2a2,2,0,0,1-.5,1.4,1.73,1.73,0,0,1-1.3.5,2.92,2.92,0,0,1-.9-.2,1.34,1.34,0,0,1-.6-.7,3,3,0,0,1-.2-1,2,2,0,0,1,.5-1.4,1.73,1.73,0,0,1,1.3-.5,1.66,1.66,0,0,1,1.2.5A2.17,2.17,0,0,1,453.4,299.2Zm-2.9,0a1.8,1.8,0,0,0,.3,1.1.91.91,0,0,0,.8.4c.3,0,.7-.1.8-.4a1.61,1.61,0,0,0,.3-1.1,1.8,1.8,0,0,0-.3-1.1,1,1,0,0,0-.9-.4c-.4,0-.7.1-.8.4A3.09,3.09,0,0,0,450.5,299.2Z"/><path class="cls-12" d="M456.8,300.1a.91.91,0,0,1-.4.8,1.8,1.8,0,0,1-1.1.3,3.73,3.73,0,0,1-1.2-.2v-.5a1.42,1.42,0,0,0,.6.2c.2,0,.4.1.6.1a1.48,1.48,0,0,0,.7-.1c.2-.1.2-.2.2-.4a.76.76,0,0,0-.2-.4c-.1-.1-.4-.2-.7-.4a2.39,2.39,0,0,1-.7-.3c-.1-.1-.3-.2-.3-.3a.6.6,0,0,1-.1-.4.75.75,0,0,1,.4-.7,1.49,1.49,0,0,1,1-.3,5,5,0,0,1,1.2.2l-.2.5a2,2,0,0,0-1-.2c-.3,0-.5,0-.6.1s-.2.2-.2.3a.37.37,0,0,0,.1.3l.2.2a1.54,1.54,0,0,0,.7.3,3.6,3.6,0,0,1,.9.5C456.9,299.9,456.8,299.8,456.8,300.1Z"/><path class="cls-12" d="M459.3,301.2a1.73,1.73,0,0,1-1.3-.5,2,2,0,0,1-.5-1.4,2,2,0,0,1,.4-1.4,1.35,1.35,0,0,1,1.2-.5,1.43,1.43,0,0,1,1.1.5,1.59,1.59,0,0,1,.4,1.2v.4H458a1.49,1.49,0,0,0,.3,1,1.22,1.22,0,0,0,.9.3,2.66,2.66,0,0,0,1.2-.3v.5c-.2.1-.4.1-.6.2Zm-.1-3.4a.91.91,0,0,0-.7.3,1.14,1.14,0,0,0-.3.8h2a1.55,1.55,0,0,0-.2-.8C459.9,297.9,459.5,297.8,459.2,297.8Z"/><path class="cls-12" d="M464.2,300.6h0a1.43,1.43,0,0,1-1.2.6,1.29,1.29,0,0,1-1.1-.5,2.65,2.65,0,0,1,0-2.8,1.61,1.61,0,0,1,1.1-.5,1.43,1.43,0,0,1,1.2.6h0v-2.1h.6v5.3h-.5Zm-1.1.1c.4,0,.7-.1.8-.3a1.49,1.49,0,0,0,.3-1v-.1a1.61,1.61,0,0,0-.3-1.1,1.14,1.14,0,0,0-.8-.3.91.91,0,0,0-.8.4,2.17,2.17,0,0,0,0,2.2C462.5,300.8,462.7,300.7,463.1,300.7Z"/><path class="cls-12" d="M469.4,301.1h-.6v-4.5h-1.6v-.5h3.7v.5h-1.6v4.5Z"/><path class="cls-12" d="M471,297.4h.6l.8,2.1a3,3,0,0,1,.3,1.1h0a3.93,3.93,0,0,1,.2-.6c.1-.3.4-1.1.9-2.6h.6l-1.6,4.3a2,2,0,0,1-.6.9,1.33,1.33,0,0,1-.8.3.9.9,0,0,1-.5-.1v-.5h.4a.76.76,0,0,0,.8-.7l.2-.5Z"/><path class="cls-12" d="M476.9,301.2a1.7,1.7,0,0,1-.7-.1,1,1,0,0,1-.5-.4h0v2.1h-.6v-5.4h.5l.1.5h0a.66.66,0,0,1,.5-.4,1.48,1.48,0,0,1,.7-.1,1.66,1.66,0,0,1,1.2.5,2.65,2.65,0,0,1,0,2.8A1.66,1.66,0,0,1,476.9,301.2Zm-.1-3.4c-.4,0-.7.1-.8.3a1.33,1.33,0,0,0-.3,1v.1a1.61,1.61,0,0,0,.3,1.1,1.14,1.14,0,0,0,.8.3.91.91,0,0,0,.8-.4,2.17,2.17,0,0,0,0-2.2A1.55,1.55,0,0,0,476.8,297.8Z"/><path class="cls-12" d="M481,301.2a1.73,1.73,0,0,1-1.3-.5,2,2,0,0,1-.5-1.4,2,2,0,0,1,.4-1.4,1.35,1.35,0,0,1,1.2-.5,1.43,1.43,0,0,1,1.1.5,1.59,1.59,0,0,1,.4,1.2v.4h-2.6a1.49,1.49,0,0,0,.3,1,1.22,1.22,0,0,0,.9.3,2.66,2.66,0,0,0,1.2-.3v.5c-.2.1-.4.1-.6.2Zm-.1-3.4a.91.91,0,0,0-.7.3,1.14,1.14,0,0,0-.3.8h2a1.55,1.55,0,0,0-.2-.8C481.6,297.9,481.2,297.8,480.9,297.8Z"/><path class="cls-12" d="M513.2,299.1a1.23,1.23,0,0,1-.5,1,2.5,2.5,0,0,1-1.3.4,5.21,5.21,0,0,1-1.4-.2v-.6a1.45,1.45,0,0,0,.7.2c.2,0,.5.1.7.1a2,2,0,0,0,.9-.2.71.71,0,0,0,.3-.6c0-.2,0-.3-.1-.4l-.3-.3a4.88,4.88,0,0,0-.7-.3,2.89,2.89,0,0,1-1-.6,1.22,1.22,0,0,1-.3-.9,1,1,0,0,1,.4-.9,2,2,0,0,1,1.1-.3,3.19,3.19,0,0,1,1.4.3l-.2.5a2.66,2.66,0,0,0-1.2-.3,1.45,1.45,0,0,0-.7.2.6.6,0,0,0-.3.6c0,.2,0,.3.1.4l.3.3a4.88,4.88,0,0,0,.7.3,3.58,3.58,0,0,1,1.1.6A.78.78,0,0,1,513.2,299.1Z"/><path class="cls-12" d="M516.4,300.4l-.1-.5h0a2.65,2.65,0,0,1-.6.5,1.48,1.48,0,0,1-.7.1,1.22,1.22,0,0,1-.9-.3,1.14,1.14,0,0,1-.3-.8q0-1.2,1.8-1.2h.6V298a1.45,1.45,0,0,0-.2-.7.85.85,0,0,0-.6-.2,2.61,2.61,0,0,0-1.1.3l-.2-.4a1.42,1.42,0,0,1,.6-.2,2,2,0,0,1,1.7.2,1.33,1.33,0,0,1,.3,1v2.6h-.3Zm-1.3-.4a1,1,0,0,0,.8-.3,1.14,1.14,0,0,0,.3-.8v-.3h-.6a2.15,2.15,0,0,0-1,.2.6.6,0,0,0-.3.6.76.76,0,0,0,.2.5C514.6,300,514.9,300,515.1,300Z"/><path class="cls-12" d="M518.8,300.4l-1.4-3.7h.6l.8,2.2a4.28,4.28,0,0,1,.3,1h0c0-.1.1-.4.2-.8s.4-1.2.9-2.5h.6l-1.4,3.7h-.6Z"/><path class="cls-12" d="M521.5,295.7a.37.37,0,0,1,.1-.3c.1-.1.1-.1.2-.1s.2,0,.2.1a.5.5,0,0,1,0,.6c-.1.1-.1.1-.2.1s-.2,0-.2-.1S521.5,295.8,521.5,295.7Zm.6,4.7h-.6v-3.7h.6Z"/><path class="cls-12" d="M525.8,300.4V298a1.45,1.45,0,0,0-.2-.7c-.1-.2-.4-.2-.7-.2a1.22,1.22,0,0,0-.9.3,1.49,1.49,0,0,0-.3,1v2h-.6v-3.7h.5l.1.5h0a1,1,0,0,1,.5-.4,1.45,1.45,0,0,1,.7-.2,1.33,1.33,0,0,1,1,.3,1.49,1.49,0,0,1,.3,1v2.4h-.4Z"/><path class="cls-12" d="M530.6,296.7v.4l-.7.1c.1.1.1.2.2.3a.6.6,0,0,1,.1.4,1,1,0,0,1-.4.9,1.69,1.69,0,0,1-1,.3h-.3a.66.66,0,0,0-.4.5c0,.1,0,.2.1.2s.2.1.4.1h.7a1.22,1.22,0,0,1,.9.3.91.91,0,0,1,.3.7,1.05,1.05,0,0,1-.5.9,2.81,2.81,0,0,1-1.5.3,1.61,1.61,0,0,1-1.1-.3,1,1,0,0,1-.4-.8,1.42,1.42,0,0,1,.2-.6.71.71,0,0,1,.6-.3.22.22,0,0,1-.2-.2.37.37,0,0,1-.1-.3.6.6,0,0,1,.1-.4l.3-.3a1,1,0,0,1-.5-.4,1.45,1.45,0,0,1-.2-.7,1,1,0,0,1,.4-.9,1.49,1.49,0,0,1,1-.3.75.75,0,0,1,.5.1Zm-2.9,4.4a.55.55,0,0,0,.3.5,1.45,1.45,0,0,0,.7.2,3.09,3.09,0,0,0,1.1-.2.6.6,0,0,0,.3-.6.52.52,0,0,0-.2-.4c-.1-.1-.4-.1-.7-.1h-.7a.85.85,0,0,0-.6.2C527.8,300.8,527.7,300.8,527.7,301.1Zm.3-3.2a.85.85,0,0,0,.2.6,1.07,1.07,0,0,0,.6.2c.6,0,.8-.3.8-.8s-.3-.8-.8-.8a.71.71,0,0,0-.8.8Z"/><path class="cls-12" d="M533.8,299.4a.91.91,0,0,1-.4.8,1.8,1.8,0,0,1-1.1.3,3.73,3.73,0,0,1-1.2-.2v-.5a1.42,1.42,0,0,0,.6.2c.2,0,.4.1.6.1a1.48,1.48,0,0,0,.7-.1c.2-.1.2-.2.2-.4a.76.76,0,0,0-.2-.4c-.1-.1-.4-.2-.7-.4a2.39,2.39,0,0,1-.7-.3c-.1-.1-.3-.2-.3-.3a.6.6,0,0,1-.1-.4.75.75,0,0,1,.4-.7,1.49,1.49,0,0,1,1-.3,5,5,0,0,1,1.2.2l-.2.5a2,2,0,0,0-1-.2c-.3,0-.5,0-.6.1s-.2.2-.2.3a.37.37,0,0,0,.1.3l.2.2a1.54,1.54,0,0,0,.7.3,3.6,3.6,0,0,1,.9.5C533.9,299.2,533.8,299.2,533.8,299.4Z"/><path class="cls-22" d="M370.3,328h-34a.94.94,0,0,1-1-1V317a.94.94,0,0,1,1-1h34a.94.94,0,0,1,1,1v10A.94.94,0,0,1,370.3,328Z"/><path class="cls-22" d="M380.3,343.8h-44a.94.94,0,0,1-1-1v-10a.94.94,0,0,1,1-1h44a.94.94,0,0,1,1,1v10A.94.94,0,0,1,380.3,343.8Z"/><path class="cls-22" d="M363.6,360.9H336.4a.94.94,0,0,1-1-1v-10a.94.94,0,0,1,1-1h27.2a.94.94,0,0,1,1,1v10A1,1,0,0,1,363.6,360.9Z"/><path class="cls-23" d="M473.2,328H435a.94.94,0,0,1-1-1V317a.94.94,0,0,1,1-1h38.3a.94.94,0,0,1,1,1v10A1.09,1.09,0,0,1,473.2,328Z"/><path class="cls-24" d="M453.1,343.8H435a.94.94,0,0,1-1-1v-10a.94.94,0,0,1,1-1h18.1a.94.94,0,0,1,1,1v10A.94.94,0,0,1,453.1,343.8Z"/><path class="cls-25" d="M484.5,360.9H439a.94.94,0,0,1-1-1v-10a.94.94,0,0,1,1-1h45.5a.94.94,0,0,1,1,1v10A1,1,0,0,1,484.5,360.9Z"/><path class="cls-19" d="M412.4,328H396.8a6,6,0,0,1-6-6h0a6,6,0,0,1,6-6h15.6a6,6,0,0,1,6,6h0A6,6,0,0,1,412.4,328Z"/><circle class="cls-12" cx="412.4" cy="322" r="5"/><line class="cls-26" x1="393.1" y1="338.8" x2="405.3" y2="338.8"/><polygon class="cls-12" points="404.8 340.8 408.2 338.8 404.8 336.8 404.8 340.8"/><line class="cls-26" x1="393.1" y1="354.9" x2="405.3" y2="354.9"/><polygon class="cls-12" points="404.8 356.9 408.2 354.9 404.8 352.9 404.8 356.9"/><path class="cls-15" d="M216.4,294.9a1.82,1.82,0,0,1-.6,1.4,2.94,2.94,0,0,1-1.7.7v1.5h-.5V297c-.4,0-.8-.1-1.3-.1a8.11,8.11,0,0,1-1.1-.3V296a3.58,3.58,0,0,0,1.1.4,5,5,0,0,0,1.2.2v-3.2a6.45,6.45,0,0,1-1.4-.6,1.34,1.34,0,0,1-.6-.7,2.92,2.92,0,0,1-.2-.9,1.61,1.61,0,0,1,.6-1.3,3.38,3.38,0,0,1,1.6-.7V288h.5v1.2a5.09,5.09,0,0,1,2.2.5l-.2.6a6.53,6.53,0,0,0-2-.5v3.1a4.88,4.88,0,0,1,1.8.9A1.52,1.52,0,0,1,216.4,294.9ZM212,291a1,1,0,0,0,.4.9,4.4,4.4,0,0,0,1.2.6v-2.9a1.63,1.63,0,0,0-1.1.5A1.06,1.06,0,0,0,212,291Zm3.7,3.9a1,1,0,0,0-.4-.9,5.35,5.35,0,0,0-1.3-.6v3a2.2,2.2,0,0,0,1.2-.5A1.39,1.39,0,0,0,215.7,294.9Z"/><path class="cls-15" d="M224.5,288.3a2.88,2.88,0,0,1,1.9.6,1.86,1.86,0,0,1,.7,1.6,1.59,1.59,0,0,1-.4,1.2,3.88,3.88,0,0,1-1.4,1,3.84,3.84,0,0,1,1.7,1.1,2.39,2.39,0,0,1,.5,1.4,2.2,2.2,0,0,1-.8,1.8,2.82,2.82,0,0,1-2.1.7,3.28,3.28,0,0,1-2.1-.6,2.23,2.23,0,0,1-.7-1.9,2.69,2.69,0,0,1,.5-1.5,4.08,4.08,0,0,1,1.6-1.1,3.35,3.35,0,0,1-1.4-1,2,2,0,0,1-.4-1.3,2.66,2.66,0,0,1,.3-1.2,2.36,2.36,0,0,1,.9-.8A4.8,4.8,0,0,0,224.5,288.3Zm-2.2,7.1a1.82,1.82,0,0,0,.6,1.4,2.54,2.54,0,0,0,1.6.5,3.1,3.1,0,0,0,1.7-.5,1.68,1.68,0,0,0,.6-1.4,2.11,2.11,0,0,0-.5-1.3,5.37,5.37,0,0,0-1.9-1,3.39,3.39,0,0,0-1.6,1A1.9,1.9,0,0,0,222.3,295.4Zm2.2-6.6a2,2,0,0,0-1.4.4,1.35,1.35,0,0,0-.5,1.2,1.88,1.88,0,0,0,.2.8,1.7,1.7,0,0,0,.6.6,5.35,5.35,0,0,0,1.3.6,4.89,4.89,0,0,0,1.5-.9,1.59,1.59,0,0,0,.4-1.2,1.66,1.66,0,0,0-.5-1.2A7.58,7.58,0,0,0,224.5,288.8Z"/><path class="cls-15" d="M238.8,295.3h-1.6v2.4h-.6v-2.4h-4.7v-.4l4.6-6.5h.8v6.4h1.6v.5Zm-2.2-.5v-2.6a30.14,30.14,0,0,1,.1-3.2h-.1a5.75,5.75,0,0,1-.8,1.2l-3.3,4.6Z"/><path class="cls-15" d="M242.4,292.1a3.17,3.17,0,0,1,2.3.7,2.32,2.32,0,0,1,.8,2,2.79,2.79,0,0,1-.9,2.2,3.65,3.65,0,0,1-2.4.8,5.28,5.28,0,0,1-1.3-.1,2.32,2.32,0,0,1-1-.4v-.6c.5.2.9.4,1.2.5a4.1,4.1,0,0,0,1.1.1,2.71,2.71,0,0,0,1.9-.6,2.06,2.06,0,0,0,.7-1.7,1.86,1.86,0,0,0-.7-1.6,2.88,2.88,0,0,0-1.9-.6,11.14,11.14,0,0,0-1.7.2l-.4-.2.4-4.2h4.4v.6h-3.8l-.3,3.3A4.08,4.08,0,0,1,242.4,292.1Z"/><path class="cls-15" d="M250.7,297.7H250V291a12.75,12.75,0,0,1,.1-1.9l-.2.2c-.1.1-.7.6-1.9,1.5l-.4-.4,2.5-1.9h.5v9.2Z"/><path class="cls-15" d="M254.8,297.2c0-.4.2-.6.5-.6s.5.2.5.6-.2.6-.5.6S254.8,297.6,254.8,297.2Z"/><path class="cls-15" d="M260.2,292.1a3.17,3.17,0,0,1,2.3.7,2.32,2.32,0,0,1,.8,2,2.79,2.79,0,0,1-.9,2.2,3.65,3.65,0,0,1-2.4.8,5.28,5.28,0,0,1-1.3-.1,2.32,2.32,0,0,1-1-.4v-.6c.5.2.9.4,1.2.5a4.1,4.1,0,0,0,1.1.1,2.71,2.71,0,0,0,1.9-.6,2.06,2.06,0,0,0,.7-1.7,1.86,1.86,0,0,0-.7-1.6,2.88,2.88,0,0,0-1.9-.6,11.14,11.14,0,0,0-1.7.2l-.4-.2.4-4.2h4.4v.6h-3.8l-.3,3.3A4.08,4.08,0,0,1,260.2,292.1Z"/><path class="cls-15" d="M271.4,295.3h-1.6v2.4h-.6v-2.4h-4.7v-.4l4.6-6.5h.8v6.4h1.6v.5Zm-2.2-.5v-2.6a30.14,30.14,0,0,1,.1-3.2h-.1a5.75,5.75,0,0,1-.8,1.2l-3.3,4.6Z"/><circle class="cls-19" cx="212.9" cy="313.5" r="1.5"/><circle class="cls-27" cx="212.9" cy="324.9" r="1.5"/><circle class="cls-12" cx="212.9" cy="336.2" r="1.5"/><circle class="cls-28" cx="212.9" cy="347.5" r="1.5"/><circle class="cls-29" cx="212.9" cy="358.6" r="1.5"/><circle class="cls-12" cx="548.9" cy="176.8" r="5"/><line class="cls-30" x1="550.7" y1="175.2" x2="547.1" y2="178.7"/><line class="cls-30" x1="550.7" y1="178.7" x2="547.1" y2="175.2"/><path class="cls-17" d="M534.9,184.6H337.6a.94.94,0,0,1-1-1V171a.94.94,0,0,1,1-1H534.9a.94.94,0,0,1,1,1v12.6A.94.94,0,0,1,534.9,184.6Z"/><circle class="cls-12" cx="548.9" cy="196.7" r="5"/><line class="cls-30" x1="550.7" y1="195.1" x2="547.1" y2="198.6"/><line class="cls-30" x1="550.7" y1="198.6" x2="547.1" y2="195.1"/><path class="cls-17" d="M534.9,204.5H337.6a.94.94,0,0,1-1-1V190.9a.94.94,0,0,1,1-1H534.9a.94.94,0,0,1,1,1v12.6A.94.94,0,0,1,534.9,204.5Z"/><circle class="cls-12" cx="548.9" cy="216.6" r="5"/><line class="cls-30" x1="550.7" y1="214.9" x2="547.1" y2="218.5"/><line class="cls-30" x1="550.7" y1="218.5" x2="547.1" y2="214.9"/><path class="cls-17" d="M534.9,224.4H337.6a.94.94,0,0,1-1-1V210.8a.94.94,0,0,1,1-1H534.9a.94.94,0,0,1,1,1v12.6A.94.94,0,0,1,534.9,224.4Z"/><line class="cls-31" x1="221.3" y1="325.2" x2="258.5" y2="325.2"/><line class="cls-31" x1="221.3" y1="336.3" x2="258.5" y2="336.3"/><line class="cls-31" x1="221.3" y1="347.5" x2="258.5" y2="347.5"/><line class="cls-31" x1="221.3" y1="314" x2="258.5" y2="314"/><line class="cls-31" x1="221.3" y1="358.6" x2="258.5" y2="358.6"/><line class="cls-32" x1="344.7" y1="176.8" x2="365.5" y2="176.8"/><line class="cls-33" x1="382.1" y1="176.8" x2="399.7" y2="176.8"/><line class="cls-33" x1="412" y1="176.8" x2="420.3" y2="176.8"/><line class="cls-33" x1="472.3" y1="176.8" x2="480.6" y2="176.8"/><line class="cls-33" x1="431.4" y1="176.8" x2="452.3" y2="176.8"/><line class="cls-33" x1="496.2" y1="176.8" x2="503.5" y2="176.8"/><line class="cls-33" x1="512.4" y1="176.8" x2="524.1" y2="176.8"/><line class="cls-32" x1="344.7" y1="197.2" x2="365.5" y2="197.2"/><line class="cls-33" x1="382.1" y1="197.2" x2="399.7" y2="197.2"/><line class="cls-33" x1="412" y1="197.2" x2="420.3" y2="197.2"/><line class="cls-33" x1="472.3" y1="197.2" x2="480.6" y2="197.2"/><line class="cls-33" x1="431.4" y1="197.2" x2="452.3" y2="197.2"/><line class="cls-33" x1="496.2" y1="197.2" x2="503.5" y2="197.2"/><line class="cls-33" x1="512.4" y1="197.2" x2="524.1" y2="197.2"/><line class="cls-32" x1="344.7" y1="216.6" x2="365.5" y2="216.6"/><line class="cls-33" x1="382.1" y1="216.6" x2="399.7" y2="216.6"/><line class="cls-33" x1="412" y1="216.6" x2="420.3" y2="216.6"/><line class="cls-33" x1="472.3" y1="216.6" x2="480.6" y2="216.6"/><line class="cls-33" x1="431.4" y1="216.6" x2="452.3" y2="216.6"/><line class="cls-33" x1="496.2" y1="216.6" x2="503.5" y2="216.6"/><line class="cls-33" x1="512.4" y1="216.6" x2="524.1" y2="216.6"/><line class="cls-32" x1="340.1" y1="322" x2="353.3" y2="322"/><line class="cls-32" x1="340.1" y1="338.5" x2="353.3" y2="338.5"/><line class="cls-32" x1="340.1" y1="355.2" x2="353.3" y2="355.2"/><path class="cls-34" d="M407.1,325.4a5.59,5.59,0,0,0,.4,4.1c1.1,2,3.7,5.8,3.3,7.7s-2.7,5.1.1,6.2,19.4,19.9,23.2,22.9,16.7,8.3,23.7,12.5,19.8,20.3,21.8,23.8,14.5,15.8,14.5,15.8l43.8.2-61-84.9-19-11.6s-5.5,4.5-3.6,6,3.8,1.6,3.6,4.8,2.5,3.6,5.1,4,3.8,4.5,4.5,6.6,7.7-1.4,8.5,0-16.5,16.7-16.5,16.7l-52.4-34.8"/><path class="cls-35" d="M103.5,360.9,84,343.8,44.1,396.2l10.2,22h72.8s6.8-22,5.3-26.5-13.5-2.6-13.5-2.6l-35-11,3.7-12.5s11.9,2.3,17.4,3.5,13.6-1.8,13.6-1.8l12.8-26.6-5.6-.6Z"/><path class="cls-12" d="M146.4,327.2,125,334.6a34,34,0,0,0,19.5,19.5l8-21.2A10.7,10.7,0,0,1,146.4,327.2Z"/><polygon class="cls-18" points="192.2 188.2 200.4 190.5 206.4 187.6 219.8 184.5 228.7 183 217.6 154.5 211.4 161.5 205.9 159 179 189.2 183.7 190.6 192.2 188.2"/><polygon class="cls-18" points="263.1 188.5 254.6 190.5 246.7 188.4 238.1 190.6 232.7 188.4 232.4 188.5 233.4 190.2 238.4 192.2 246.7 190 254.7 192.2 263.4 190 273 194.2 280.2 190.7 280.2 189.3 273.1 192.8 263.1 188.5"/><polygon class="cls-36" points="232.4 188.5 232.7 188.4 238.1 190.6 246.7 188.4 254.6 190.5 263.1 188.5 273.1 192.8 280.2 189.3 280.2 182.6 272.9 186.2 263.6 182.2 254.7 184.4 246.7 182.2 238.5 184.3 233.3 182.2 229.7 182.8 230.5 184.8 232.4 188.5"/><polygon class="cls-37" points="228.7 183 219.8 184.5 206.4 187.6 200.4 190.5 192.2 188.2 183.7 190.6 179 189.2 174.6 194.2 183.6 196.9 192.2 194.5 201 196.9 208.4 193.3 220.9 190.4 231.4 188.6 229.6 185.2 228.7 183"/><polygon class="cls-38" points="172.5 187.3 162.6 190.5 156.1 187.2 146 190.6 136.2 187.3 126.5 190.5 121.2 188.2 112.4 190.6 105.4 188.1 100.3 190.3 99.6 197.2 105.6 194.6 112.2 196.9 120.8 194.5 126.2 197 136.2 193.6 146 196.9 155.7 193.7 162.1 197 172.6 193.6 173.5 193.9 177.9 188.9 172.5 187.3"/><polygon class="cls-39" points="272.9 196.7 263.6 192.6 254.7 194.8 246.7 192.7 238.5 194.7 233.3 192.7 219.8 194.9 206.4 198 200.4 201 192.2 198.7 183.7 201 172.5 197.7 162.6 200.9 156.1 197.6 146 201 136.2 197.7 126.5 200.9 121.2 198.6 112.4 201 105.4 198.6 100.3 200.8 99.6 207.6 105.6 205 112.2 207.3 120.8 204.9 126.2 207.4 136.2 204 146 207.3 155.7 204.1 162.1 207.4 172.6 204 183.6 207.3 192.2 204.9 201 207.4 208.4 203.7 220.9 200.8 232.7 198.9 238.1 201 246.7 198.9 254.6 201 263.1 198.9 273.1 203.3 280.2 199.8 280.2 193.1 272.9 196.7"/><polygon class="cls-12" points="273 194.2 263.4 190 254.7 192.2 246.7 190 238.4 192.2 233.4 190.2 232.4 188.5 230.5 184.8 229.7 182.8 217.9 152.6 211.1 160.3 205.6 157.8 177.9 188.9 173.5 193.9 172.3 195.3 162.4 198.4 155.9 195.1 146 198.4 136.2 195.2 126.4 198.4 121 196 112.4 198.5 105.5 196 99.7 198.5 100.1 199.4 105.5 197.1 112.3 199.5 121 197.1 126.3 199.5 136.2 196.2 146 199.5 155.9 196.2 162.3 199.5 172.8 196.1 174.6 194.2 179 189.2 205.9 159 211.4 161.5 217.6 154.5 228.7 183 229.6 185.2 231.4 188.6 232.6 191 238.3 193.2 246.7 191.1 254.7 193.2 263.3 191.1 273 195.3 280.2 191.8 280.2 190.7 273 194.2"/><path class="cls-40" d="M259.3,122.5a3.94,3.94,0,0,0-5.5-1.2L226.3,139a23.52,23.52,0,1,0,8.6,18.2,23.86,23.86,0,0,0-3.3-12.1L258.1,128A4,4,0,0,0,259.3,122.5Zm-47.9,53.2a18.5,18.5,0,1,1,18.5-18.5A18.52,18.52,0,0,1,211.4,175.7Z"/><g id="Layer_3" data-name="Layer 3"><polygon class="cls-41" points="143.8 458.5 135 443.1 131.5 452.4 136 460.8 143.8 458.5"/><path class="cls-42" d="M161.2,61.8s7.5,6.7,9.2,7.1,25,.3,26.9-.7,7.3-4.2,10.9-3.8,7.5,2.6,8.9,2.6,1.6-3.7,5.7-3.2,9.5,2,10.1,3.2,6.5,11.4,6.7,16.8-3.1,26.8-3,28.4,1.7,5.1,1.7,6.7-2.3,8.4-2.3,8.4,9.3-5.9,9.3-10.5,4.9-46.9,4.9-46.9L227.6,54.8l-49.8-7Z"/><path id="skeen2" class="cls-41" d="M110.6,448.2c-.2,2.8-.2,4.7.2,5.9a7.62,7.62,0,0,0,2.4,3.5l-9.6-4.6c.4-1.3.7-2.2.9-2.9a13.55,13.55,0,0,0,.1-3.8Z"/><polygon class="cls-43" points="135.8 460.1 137 466.1 138.8 469 162.4 454.5 159.3 452.4 145.8 457.4 142.3 456.1 135.8 460.1"/><polygon class="cls-44" points="138.8 469 137 466.1 135.8 460.1 138.6 458.4 139 464.3 141.1 467.6 138.8 469"/><polygon class="cls-29" points="138.8 469 141.9 469.5 163.1 456.3 162.4 454.5 138.8 469"/><line class="cls-45" x1="147.3" y1="459.1" x2="147.9" y2="456.6"/><line class="cls-45" x1="149.7" y1="458.1" x2="150.3" y2="455.5"/><line class="cls-45" x1="152.7" y1="456.8" x2="153.3" y2="454.3"/><path class="cls-29" d="M121.2,470.2l.3,1.6a7.21,7.21,0,0,1-6.7,1.9s-1.6-.5-3.9-3.1-9-9.5-9-9.5l-.3-3.3Z"/><path class="cls-46" d="M102.1,453.5l-.5,4.3,6.7,6.4,6.4,7.8a8.25,8.25,0,0,0,6.5-1.8l-7.7-12.3-3.4-6.2Z"/><path class="cls-44" d="M102.1,453.5l-.5,4.3,2,1.7s4,4.2,4.7,4.7-.1-3.5-1.7-5.1-3.3-5.7-3.3-5.7Z"/><line class="cls-45" x1="109.6" y1="459.9" x2="113.6" y2="458.9"/><line class="cls-45" x1="111.1" y1="462.5" x2="115.2" y2="461.4"/><path class="cls-47" d="M84.4,382.2l37.7,3.4a5.88,5.88,0,0,1,4.2,2.4l1,1.4a5.67,5.67,0,0,1,.9,4.7l-15.1,57.2-11-1.2,6.4-45.7-26.3-1L69.3,389.8Z"/><path class="cls-48" d="M46.1,400l1.5,4.7a7.92,7.92,0,0,0,3,4l13.6,9.6,34.8.3,35.8,40.3,8.5-7.5L111.4,404,70.7,389.2Z"/><path class="cls-49" d="M127.1,331.5l1.7-2.7a3.33,3.33,0,0,1,1.4-1.2l3.9-1.6-.4,1.1a2.18,2.18,0,0,1-.5.8l-1.5,1.4-.5.9Z"/><path class="cls-50" d="M128.1,339.7l1.2-2.5,9-3.5a3.25,3.25,0,0,0,1.3-1l4.1-7.8s-3.9.3-5,2.2c-.8,1.3-4.4,2.7-5.8,2.4a3.87,3.87,0,0,0-2.6.3l-3.2,1.5-3.8,5.8Z"/><path class="cls-51" d="M163.3,54.7s2.9-2.9,12.6-9.8c7.1-5,13.6-9.6,22.3-10.1l8.6-.5,16.1,1.8,20.4,14.3L233,66l-13.2-5.5a14,14,0,0,0-5.3-1.1H196.2Z"/><path class="cls-52" d="M163.3,54.7s2.9-2.9,12.6-9.8c7.1-5,13.6-9.6,22.3-10.1l8.6-.5,16.1,1.8,20.4,14.3L233,66l-13.2-5.5a14,14,0,0,0-5.3-1.1H196.2Z"/><path class="cls-53" d="M216.4,62.5l3.1,3.5,1.6,3.1s-1.7,1.2-2.6.6-4.6-3.5-4.6-3.5-6.1.7-8.2.4-4.4-3-4.4-3l.6-4.9,5.8.8Z"/><path class="cls-53" d="M223.2,29.6s.3,3.3,1,10.8c0,0-3,2.7-6.1,1.6a6.26,6.26,0,0,1-3.8-4.6Z"/><path class="cls-54" d="M220.8,44.7a11.56,11.56,0,0,1-4,0,.51.51,0,1,1,.2-1c.1,0,5.2,1.2,8.3-2.7a.5.5,0,1,1,.8.6A8.49,8.49,0,0,1,220.8,44.7Z"/><path class="cls-55" d="M216.6,41.1s3.2,1.4,5.8-3c.6-1,1-1.8,1.4-2.6-.4-4.1-.5-6-.5-6l-8.9,7.8A5.43,5.43,0,0,0,216.6,41.1Z"/><path class="cls-53" d="M204.7,26.6s1.8,7.2,7.1,10.7c4.7,3,9.9-.5,10.8-4.8a27.13,27.13,0,0,0,.7-6.9s3.6-2.8,1.4-5.7c-1.6-2.2-3.4,2.6-3.4,2.6a5.92,5.92,0,0,1-7-2.7C212.6,17.2,211.3,26.7,204.7,26.6Z"/><path class="cls-6" d="M213.6,34.3l-1,.2c-.2,0-.2.3-.1.4a4.11,4.11,0,0,0,3.3,1l.8-.3a2.47,2.47,0,0,0,1.3-2.7.19.19,0,0,0-.3-.1l-1,.5A11.73,11.73,0,0,1,213.6,34.3Z"/><path class="cls-55" d="M212.6,27.4l-.9,4.6a.77.77,0,0,0,.8.9l1.7-.5a.85.85,0,0,0,.5-1.2Z"/><circle class="cls-56" cx="217" cy="27.6" r="0.7"/><circle class="cls-56" cx="209.3" cy="30.1" r="0.7"/><path class="cls-55" d="M217.8,25.1h-.2a1.61,1.61,0,0,0-1.1-.5,2.1,2.1,0,0,0-1.4.7.21.21,0,1,1-.3-.3,2.74,2.74,0,0,1,1.7-.9,2,2,0,0,1,1.4.6c0,.2,0,.3-.1.4Z"/><path class="cls-55" d="M209.7,27.1c0,.1-.1.1-.2.1a1.31,1.31,0,0,0-1.1.2,2.33,2.33,0,0,0-.7,1.5.2.2,0,0,1-.4,0,2.79,2.79,0,0,1,.9-1.8,1.88,1.88,0,0,1,1.5-.3s.1.1,0,.3Z"/><path class="cls-55" d="M224,21.5c0,.1-.1.1-.2.1-.7.1-.8,1.3-.8,1.4a.2.2,0,0,1-.4,0c0-.1.1-1.6,1.1-1.7.2,0,.3.1.3.2Z"/><path class="cls-51" d="M60.5,306.5c.1-.6.4-.6.6-1.3s0-1.1-.5-3.6,1.6-3.9,4.1-5.5,6.4-1,9.1-.7a28.18,28.18,0,0,0,5.5-1c1.3-.7,3.2-2.2,5.6-1.3,4.8,1.9,5.4,5,4.6,7.4.1.6,1.3.7,1.1,2.2s-1.8,1-2.9,1-1.2.8-.3,1.6,1.5,2.8-1.2,2.4a3.82,3.82,0,0,1-2-.7l-.5,1.6L64.3,315s.5,2.8-.4,2.9-1.2-1.8-1.8-3.2A43.39,43.39,0,0,1,60.5,306.5Z"/><path class="cls-50" d="M73.5,330.6l3.4-3.7-12.5-13v5.9l-1.9,8.9s8.4,4,11.6,3.1S73.5,330.6,73.5,330.6Z"/><path class="cls-49" d="M77.8,325.8l-2.2,6.5s-.1-1.2-4.1-.9-5.6-11.8-5.6-11.8Z"/><path class="cls-57" d="M86.5,311.5a.37.37,0,0,0,.3-.1.53.53,0,0,0,.1-.8l-1.4-1.9a.52.52,0,0,0-.8-.1.53.53,0,0,0-.1.8l1.4,1.9A.76.76,0,0,0,86.5,311.5Z"/><path class="cls-50" d="M60,308.5c-.1-4.5,3.6-2.3,3.6-2.3,1.2,2.1,2.5,1.6,2.8,1.2s1.3-2.2,1.9-2.4h.2c.7.2,2.4,3.2,8,3.2,5.8,0,7-3.3,7.4-3.8a1.86,1.86,0,0,1,1.2-.7c0,1.8.1,7.1-.2,10.1-.4,3.8-4.2,14-10.1,13.7-8.2-.3-10.3-12-10.3-12l-.2-1.3C64.3,314,60.1,313,60,308.5Z"/><path class="cls-49" d="M62.3,308.2h-.2c-.3.1-.6.2-.7.5a2,2,0,0,0-.1,1.3c0,.1.1.1.2.2h.1a.19.19,0,0,0,.1-.3s-.2-.6,0-.9a1.38,1.38,0,0,1,.4-.3h.1c.6,0,1,1.3,1.1,1.7a.22.22,0,0,0,.2.2h0c.1,0,.2-.1.2-.3S63.4,308.2,62.3,308.2Z"/><circle class="cls-56" cx="75" cy="313.53" r="0.6"/><circle class="cls-56" cx="83.7" cy="313.1" r="0.6"/><path class="cls-57" d="M70.1,311.8c.1,0,.2-.1.3-.2a.61.61,0,0,0-.1-.8l-8-5.8a.57.57,0,0,0-.7.9l8,5.8A.44.44,0,0,0,70.1,311.8Z"/><path class="cls-57" d="M77.6,312.6a.52.52,0,0,0,.4-.2c.4-.6,1.7-.3,2.1-.2a.57.57,0,1,0,.3-1.1c-.2-.1-2.4-.7-3.4.6a.61.61,0,0,0,.1.8A4.33,4.33,0,0,1,77.6,312.6Z"/><path class="cls-57" d="M82.6,316.8a2.66,2.66,0,0,1-2.1-1c-1.2-1.5-.7-4.2-.7-4.3s.1-.2.2-.3,4.1-3.4,6.9-.8a.76.76,0,0,1,.2.4c0,.1.1,3.3-1.7,5a3.46,3.46,0,0,1-2.1,1Zm-1.7-4.9c-.1.8-.2,2.4.5,3.2a1.49,1.49,0,0,0,1.3.6,2.49,2.49,0,0,0,1.9-.7,6.21,6.21,0,0,0,1.3-3.9C84.1,309.6,81.5,311.4,80.9,311.9Z"/><path class="cls-57" d="M73.8,317.3a4.22,4.22,0,0,1-3.3-1.4c-1.5-1.8-.9-4.9-.9-5s.1-.3.2-.3c3.2-2.4,7.9.8,8.1.9s.2.3.2.5a6.75,6.75,0,0,1-1.5,4.2,3.86,3.86,0,0,1-2.2,1.1Zm-3.1-5.9a5.12,5.12,0,0,0,.7,3.8,3,3,0,0,0,2.4.9c2.7,0,3.1-2.9,3.2-3.8C76,311.7,72.9,310,70.7,311.4Z"/><path class="cls-49" d="M79.1,312.4l1.5,5.2a.66.66,0,0,1-.7.8l-2.6-.2Z"/><path class="cls-49" d="M73.4,309.5h-.3a1.58,1.58,0,0,0-1.2-.5,2.44,2.44,0,0,0-1.6.8.21.21,0,0,1-.3-.3,3.27,3.27,0,0,1,1.9-1,1.8,1.8,0,0,1,1.5.7c.2,0,.2.2,0,.3Z"/><path class="cls-49" d="M83.6,308.8h-.3a1.58,1.58,0,0,0-1.2-.5,2.44,2.44,0,0,0-1.6.8.21.21,0,1,1-.3-.3,3.27,3.27,0,0,1,1.9-1,1.8,1.8,0,0,1,1.5.7c.1,0,.1.2,0,.3Z"/><path class="cls-6" d="M72.3,320.3a.4.4,0,0,0-.5.5,4.12,4.12,0,0,0,3.1,2.7c1.7.2,2.6-.2,3-.6.2-.2.2-.5-.1-.6Z"/><path class="cls-58" d="M61.3,324.5l7.4,3.9a14,14,0,0,0,9,1.5h0v4.3l9.5,3.5L107.5,353l17.2-17.8,5.3,4-14,22.2a10.11,10.11,0,0,1-11.3,4.3l-20.5-6.1-3.1,10.8,3.8,10-.5,1.7-11.4,7L45.8,401.2l-1.6-5L39,393l-2.6-14,2.7-26.3-7.3-9,10-13.8,17.5-3.1Z"/><polygon class="cls-59" points="63.1 346.3 63.5 343.9 82.7 348.5 72.9 383.2 64.4 382.5 63.1 346.3"/><polygon class="cls-21" points="51.5 365.2 59 343.9 79.7 349.4 70.1 384.3 49.2 381.5 51.5 365.2"/><polygon class="cls-60" points="51.5 365.2 59 343.9 79.7 349.4 70.1 384.3 49.2 381.5 51.5 365.2"/><g id="Group-25"><path id="skeen1" class="cls-49" d="M609.8,456.3l9.3,5.9-3.2-9.8-7.8-1.5c-1.9.5-2.8,1.2-2.4,2.1C605.9,453.9,607.3,455,609.8,456.3Z"/><path id="Path-6-2" data-name="Path-6" class="cls-61" d="M625.7,473.8a8.69,8.69,0,0,1-3.7-3.2,68.6,68.6,0,0,1-4.9-9l-1.9-9.6,4.5-1.7,2.3,9.8Z"/><path id="Path-7-2" data-name="Path-7" class="cls-62" d="M625.6,473.6a6.18,6.18,0,0,0,2.3-5.8c-.3-3.9-3.3-5.3-3.3-7.8,0-5.1-1.1-7.8-1.5-8.6-.6-1.3-1.7-1.6-3.3-1a76.12,76.12,0,0,0,1.7,10.3C622.2,463.6,621.5,469,625.6,473.6Z"/></g><g id="Group-26"><path id="skeen2-2" data-name="skeen2" class="cls-49" d="M598.9,394.6a11.78,11.78,0,0,0,3.5-1.8c.5-.5,1.3-1.1,2.3-2l8.4,7a7.77,7.77,0,0,0-4.3-.7,20.18,20.18,0,0,0-5.6,2.4Z"/><path id="Path-6-3" data-name="Path-6" class="cls-61" d="M626.8,402.9c-1.1,1-4.1.1-5.7-.5a92.56,92.56,0,0,1-10.5-5.7l-6.5-5.2,2.5-3.3,8.6,4.4Z"/><path id="Path-7-3" data-name="Path-7" class="cls-62" d="M623.2,401.2c.3.1,3.7,2.1,3.7,1.5s-4.2-4.9-9.7-10.4a69.46,69.46,0,0,0-6.9-5.7c-1-.6-2.3-.1-3.8,1.6a13,13,0,0,0,7,5.3c1.4.3,3.1,2.9,4.9,4.9A8.32,8.32,0,0,0,623.2,401.2Z"/></g><path id="Path-5-Copy" class="cls-51" d="M535,386l9.8,4.8,21,21.5a351,351,0,0,0,34.1-19.5c1.3,1.2,7.4,6.9,8.7,9-18.7,16.4-33.3,26.9-37.8,27.9s-21.4-9.8-53.2-25.7Z"/><path id="Path-5-2" data-name="Path-5" class="cls-51" d="M513.2,395.2c2.6-10.5-.6-11.9,16.9-4.2,11.8,8.2,31.7,34.6,31.7,34.6l52.7,24.6s-3.5,9-3.9,11.3L558.7,445a222.07,222.07,0,0,1-50.6-40.1Z"/><path id="Path-5-3" data-name="Path-5" class="cls-63" d="M513.2,395.2c2.6-10.5-.6-11.9,16.9-4.2,11.8,8.2,31.7,34.6,31.7,34.6l52.7,24.6s-3.5,9-3.9,11.3L558.7,445a222.07,222.07,0,0,1-50.6-40.1Z"/><path class="cls-64" d="M417.1,329.9l-9.3-5.5a.69.69,0,0,0-.9.3h0a.62.62,0,0,0,.1.7l2.1,3a1.84,1.84,0,0,1,.5,1.6l1.3,3.9c-.4,1.6-1.7,2.4-.2,3.2l7.4,3.9,6,4-.2-7.6s-1.9-4.3-2.7-6.3a22.89,22.89,0,0,0-2.1-3.6,2.73,2.73,0,0,0-1.2-.9l-2.8-.8-1.6-.9a.45.45,0,0,0-.5,0h0a1,1,0,0,0-.2,1.3l1.2,1.9Z"/><path class="cls-49" d="M489.2,344.6l-9.3-22.5s-1.3-14-9.2-11-13.7,7.5-13.9,8.9.2,5.2,3,10.8c1.8,3.6,3.7,7.3,4.8,9.4a2.83,2.83,0,0,0,2.9,1.4,35.36,35.36,0,0,0,6.3-1.6l5.1,9.1Z"/><path class="cls-64" d="M459.8,330.8l-.5,4.6a.56.56,0,0,0,.7.6l2.2-.6Z"/><path class="cls-64" d="M462.8,336.8c2.2.6,3.9-1.7,3.9-1.7a.44.44,0,0,1,.5-.1c.2.1.2.3.1.5a5.61,5.61,0,0,1-1.9,1.6,3.79,3.79,0,0,1-2.2.4Z"/><circle class="cls-65" cx="461.87" cy="330.3" r="0.9"/><path class="cls-51" d="M469.4,326.8c-1.2.6.1-3.6-.4-4s-1.8-2.6-5.7.1-8.9,2.5-10.1.3.7-2.5,3-4.4-3.5-.3-2.9-3.5c.4-2.2,5.2-1.2,5.5-2.2.3-1.3-4-.8-3-3.6.8-2.5,3.7-1.6,5.9-.4s11.5-1.4,14-.7,5.5,3.3,6.1,7.9,3.1,10.4,3.1,11.2.6,3.6-3.1,5.2-6,1.5-8.6-.1c-1.6-1-1.3-1.9-.8-2.4a4.12,4.12,0,0,0,1.1-1.9c.3-1.3.5-3.2-1-3.8C470.2,323.2,470.4,326.3,469.4,326.8Z"/><path class="cls-65" d="M469.4,326.8c-1.2.6.1-3.6-.4-4s-1.8-2.6-5.7.1-8.9,2.5-10.1.3.7-2.5,3-4.4-3.5-.3-2.9-3.5c.4-2.2,5.2-1.2,5.5-2.2.3-1.3-4-.8-3-3.6.8-2.5,3.7-1.6,5.9-.4s11.5-1.4,14-.7,5.5,3.3,6.1,7.9,3.1,10.4,3.1,11.2.6,3.6-3.1,5.2-6,1.5-8.6-.1c-1.6-1-1.3-1.9-.8-2.4a4.12,4.12,0,0,0,1.1-1.9c.3-1.3.5-3.2-1-3.8C470.2,323.2,470.4,326.3,469.4,326.8Z"/><path class="cls-64" d="M473.8,339.9s3-2.2,3.4-3.6l1.4,2.8-4,2.3Z"/><path class="cls-66" d="M470.9,327.9s-.2-2.9,1.3-2.7"/><path class="cls-67" d="M507.5,339.4l23.3,8.6a9,9,0,0,1,5.6,10.6l-6,23.9-4-1.6-7.3-4.9,4.4-13.8a2.85,2.85,0,0,0-2.5-3l-6.2-.7Z"/><path class="cls-68" d="M534.4,381.2s-9.8-6.6-12.4-9.2-14.1-33-14.1-33-5.2-1.8-5.4-1.6-12.2,1.5-12.2,1.5l-3.3-4.5-13.8,7.9-.4,5.3-2.3,2.6-6.1,2.8c-1.2.9-21.5-5.8-21.5-5.8l-18.6-12.1-6,8.6s17.7,21.7,29.8,23.4l24.7,7.7,18.2,22c1.5,2.3,10.9,4.7,13.4,5.6l4,6.8,4.5,1.1L535,386Z"/><path class="cls-69" d="M147.3,323.7a11.71,11.71,0,0,1,6-8.8l-14.4-28a43.18,43.18,0,0,0-21.6,49.7l30.2-9.2A9.06,9.06,0,0,1,147.3,323.7Z"/><path class="cls-14" d="M145.3,320.7a11.71,11.71,0,0,1,6-8.8l-14.4-28a43.18,43.18,0,0,0-21.6,49.7l30.2-9.2A9.06,9.06,0,0,1,145.3,320.7Z"/><path class="cls-51" d="M202.4,58.4l-3.6-.9L197,54.7l-22.6-3.9-10.5,2.9a3.41,3.41,0,0,0-2.5,3h0a3.25,3.25,0,0,0,1.4,3l4.3,3.1a16.28,16.28,0,0,0,8,3l20.4,1.5,2.9-2.4,2.6.1Z"/><path class="cls-70" d="M87.7,395.4l23.7,8.6s2.5-2.8.2-4.6-7.8-2.7-12.7-4.1-19.4-3-19.4-3l8.2,3.1"/><path class="cls-70" d="M73.6,379.6,56,385.5s-11.3,1.5-13.5-1.2a33,33,0,0,0-6.1-5.3l.5-4.4Z"/><path class="cls-71" d="M41.7,329.9l-21,29a7.61,7.61,0,0,0-.4,8.2h0a7.67,7.67,0,0,0,4,3.3l26.2,8.8,7.4.4,2-6-2.7-1.4L54.5,367l-16.3-7.2,7.3-8.8A14.28,14.28,0,0,0,48,337.1l-1.5-4.5a3.45,3.45,0,0,0-2.3-2.1Z"/><path class="cls-50" d="M60,373.6l6.1-2.9,4.4-.5a.75.75,0,0,1,.7,1.2l-.3.4a1.38,1.38,0,0,1-.4.3l-4.1,1.5h5.2l4.3-3.8c.3-.3.8,0,.8.4v2l-1.4,3.3-1,2.4a3.25,3.25,0,0,1-2.6,1.9l-7.6.9L58,379.6Z"/><path class="cls-24" d="M69.5,336.2a9.83,9.83,0,0,1-3.6-1.9.5.5,0,1,1,.6-.8s4.1,3.4,8.6,1.4a.45.45,0,1,1,.4.8A7.58,7.58,0,0,1,69.5,336.2Z"/><path class="cls-53" d="M238.2,130.6a.52.52,0,0,1,1,.1c.5,2.7,1.3,7.3,1.3,7.7s-2.3,2.5-2.3,2.5l2,1.1,4.5-2.1,1.6-6.1V127l-1.2-3.5-1.4-4.8-2.4-.4-2.5,3.8-3.4,6.9a3.08,3.08,0,0,0-.2,2.3l.4,1.7,2.1-1.2Z"/><path class="cls-51" d="M239.6,116.8l-.4,4.4,6.5,1.5,1-3.5,4.4-3.7L259.6,96a25.76,25.76,0,0,0-2.1-24.5l-14-21.1-12,12.9L245,86.6l-6.5,25.9Z"/></g></svg>