<?xml version="1.0" encoding="UTF-8"?>
<svg width="37px" height="37px" viewBox="0 0 37 37" version="1.1" xmlns="http://www.w3.org/2000/svg" xmlns:xlink="http://www.w3.org/1999/xlink">
    <!-- Generator: Sketch 51.2 (57519) - http://www.bohemiancoding.com/sketch -->
    <title>Group</title>
    <desc>Created with Sketch.</desc>
    <defs></defs>
    <g id="demo-page" stroke="none" stroke-width="1" fill="none" fill-rule="evenodd">
        <g id="Demo-page_1440" transform="translate(-440.000000, -416.000000)">
            <g id="block1">
                <g id="monitoring" transform="translate(440.000000, 417.000000)">
                    <g id="Group">
                        <circle id="Oval-2-Copy" stroke="#00A98D" stroke-width="1.3" fill="#FFFFFF" fill-rule="nonzero" cx="18.5" cy="17.5" r="17.5"></circle>
                        <rect id="Rectangle-6" fill-opacity="0" fill="#D8D8D8" fill-rule="nonzero" x="0" y="3" width="30" height="30"></rect>
                        <g id="monit_icon" transform="translate(7.000000, 6.000000)">
                            <path d="M1.22631624,14.5821732 L4.72736131,9.64955874" id="Path-4" stroke="#04AB8F" stroke-width="0.7" stroke-linecap="round"></path>
                            <path d="M5.16774901,10.5052006 L8.91387709,10.9661834" id="Path-5" stroke="#04AB8F" stroke-width="0.7" stroke-linecap="round"></path>
                            <path d="M13.9326567,7.31339983 L16.2459187,4.54036595" id="Path-7" stroke="#04AB8F" stroke-width="0.5" stroke-linecap="round"></path>
                            <path d="M17.5241606,3.28474983 L19.1651138,1.30344828" id="Path-7-Copy" stroke="#04AB8F" stroke-width="0.7" stroke-linecap="round"></path>
                            <path d="M10.3703704,10.8500822 L14.3114884,6.79188926" id="Path-6" stroke="#04AB8F" stroke-width="0.7" stroke-linecap="round"></path>
                            <path d="M10.3703704,15.6413793 C6.79074699,15.6413793 3.88888889,12.723511 3.88888889,9.12413793 C3.88888889,5.52476491 6.79074699,2.60689655 10.3703704,2.60689655 C13.9499937,2.60689655 16.8518519,5.52476491 16.8518519,9.12413793 C16.8518519,12.723511 13.9499937,15.6413793 10.3703704,15.6413793 Z M10.3703704,13.0344828 C12.5181444,13.0344828 14.2592593,11.2837617 14.2592593,9.12413793 C14.2592593,6.96451412 12.5181444,5.2137931 10.3703704,5.2137931 C8.22259634,5.2137931 6.48148148,6.96451412 6.48148148,9.12413793 C6.48148148,11.2837617 8.22259634,13.0344828 10.3703704,13.0344828 Z" id="Combined-Shape" stroke="#46AAD8" stroke-width="0.7" fill="#FFFFFF"></path>
                            <rect id="Rectangle-11-Copy" stroke="#46AAD8" stroke-width="0.5" fill="#F5F7F9" transform="translate(15.879630, 14.663793) rotate(-45.000000) translate(-15.879630, -14.663793) " x="15.1574074" y="13.5312774" width="1.44444444" height="2.26503134"></rect>
                            <path d="M17.2411686,13.4336089 L17.2411686,20.2441175 C17.2411686,21.1247048 17.9550257,21.8385619 18.8356131,21.8385619 C19.7162004,21.8385619 20.4300575,21.1247048 20.4300575,20.2441175 L20.4300575,13.4336089 L17.2411686,13.4336089 Z" id="Rectangle-11" stroke="#46AAD8" stroke-width="0.7" fill="#FFFFFF" transform="translate(18.835613, 17.636085) rotate(-45.000000) translate(-18.835613, -17.636085) "></path>
                            <ellipse id="Oval-4" stroke="#04AB8F" stroke-width="0.7" cx="0.648148148" cy="14.9896552" rx="1" ry="1"></ellipse>
                            <ellipse id="Oval-4-Copy-2" stroke="#04AB8F" stroke-width="0.7" cx="9.72222222" cy="11.0793103" rx="1" ry="1"></ellipse>
                            <path d="M16.9259703,4.62430093 C17.2839326,4.62430093 17.5741184,4.3325141 17.5741184,3.97257679 C17.5741184,3.61263949 17.2839326,3.32085265 16.9259703,3.32085265 C16.5680079,3.32085265 16.2778221,3.61263949 16.2778221,3.97257679 C16.2778221,4.3325141 16.5680079,4.62430093 16.9259703,4.62430093 Z" id="Oval-4-Copy-3" stroke="#04AB8F" stroke-width="0.7"></path>
                            <polyline id="Path-2" stroke="#04AB8F" stroke-width="0.7" stroke-linecap="round" stroke-linejoin="round" points="17.5370452 0.848782862 19.6248663 0.848782862 19.6248663 2.57214734"></polyline>
                        </g>
                    </g>
                </g>
            </g>
        </g>
    </g>
</svg>