<?xml version="1.0" encoding="utf-8"?>
<!-- Generator: Adobe Illustrator 19.2.1, SVG Export Plug-In . SVG Version: 6.00 Build 0)  -->
<svg version="1.1" id="Layer_1" xmlns="http://www.w3.org/2000/svg" xmlns:xlink="http://www.w3.org/1999/xlink" x="0px" y="0px"
	 width="574px" height="300px" viewBox="0 0 574 300" style="enable-background:new 0 0 574 300;" xml:space="preserve">
<style type="text/css">
	.st0{opacity:0.1;fill:#74CBD2;}
	.st1{opacity:0.1;fill:#12AF96;}
	.st2{fill:url(#SVGID_1_);}
	.st3{fill:url(#SVGID_2_);}
	.st4{fill:url(#SVGID_3_);}
	.st5{fill:none;}
	.st6{fill:url(#SVGID_4_);}
	.st7{fill:url(#SVGID_5_);}
	.st8{fill:url(#SVGID_6_);}
	.st9{fill:#C9A797;}
	.st10{fill:url(#SVGID_7_);}
	.st11{fill:#E4D3CB;}
	.st12{fill:#006B76;}
	.st13{fill:#12AF96;}
	.st14{fill:#FFFFFF;}
	
		.st15{clip-path:url(#SVGID_9_);fill:none;stroke:#C9A797;stroke-width:2;stroke-linecap:round;stroke-linejoin:round;stroke-miterlimit:10;}
	.st16{fill:url(#SVGID_10_);}
	.st17{fill:url(#SVGID_11_);}
	.st18{fill:#1B75BB;}
	.st19{clip-path:url(#SVGID_13_);}
	.st20{fill:none;stroke:#977D71;stroke-width:2;stroke-linecap:round;stroke-linejoin:round;stroke-miterlimit:10;}
	.st21{opacity:0.5;fill:none;stroke:#3BA5D6;stroke-width:2;stroke-linecap:round;stroke-miterlimit:10;stroke-dasharray:6,8;}
</style>
<path id="Path-3_5_" class="st0" d="M400.6,153.9c-25.3,107.5-73,136.9-143.2,88.1C152,168.9,118.1,62.5,185.6,55.4
	c28.9-3,148.3-66,194.4-28.5C409.3,50.8,406.7,101.1,400.6,153.9z"/>
<path class="st1" d="M182.2,219.2c0,0-37.4-6-34.1-59.6c2.2-35.9,14-40.8,24.2-92s58.2-62.4,76.1-50c32.2,22.1,48.4,27.2,96.5,27.2
	s69.1,12.2,79,46.4c7.5,25.8-2.6,93.6-32.6,121.5c-20.4,18.9-59.2,7-79,6.3C285.2,218.1,245.9,234,182.2,219.2z"/>
<linearGradient id="SVGID_1_" gradientUnits="userSpaceOnUse" x1="408.3575" y1="133.3609" x2="408.3575" y2="36.164">
	<stop  offset="0" style="stop-color:#1B75BB"/>
	<stop  offset="1" style="stop-color:#3DA5D5"/>
</linearGradient>
<path class="st2" d="M329.9,13.9h141.5c11,0,20,9,20,20v81.5c0,13.9,2.1,22.5,13.2,25.7c1.4,0.4,2.3,1.6,2.3,3v0.2
	c0,1.7-1.4,3.1-3.1,3.1H329.9c-11,0-20-9-20-20V33.9C309.9,22.8,318.8,13.9,329.9,13.9z"/>
<linearGradient id="SVGID_2_" gradientUnits="userSpaceOnUse" x1="197.9194" y1="256.3712" x2="162.8394" y2="157.768">
	<stop  offset="0" style="stop-color:#B1E0F4"/>
	<stop  offset="0.8345" style="stop-color:#C3E7F6"/>
	<stop  offset="1" style="stop-color:#C7E9F7"/>
</linearGradient>
<path class="st3" d="M262.8,158.5H131.3c-11,0-20,9-20,20v81.5c0,13.9-2.1,22.5-13.2,25.7c-1.4,0.4-2.3,1.6-2.3,3v0.2
	c0,1.7,1.4,3.1,3.1,3.1h163.9c11,0,20-9,20-20v-93.5C282.8,167.4,273.9,158.5,262.8,158.5z"/>
<radialGradient id="SVGID_3_" cx="329.2024" cy="10.8381" r="61.7488" gradientTransform="matrix(0.9915 -0.1298 0.1298 0.9915 -41.2512 150.5168)" gradientUnits="userSpaceOnUse">
	<stop  offset="0" style="stop-color:#12AF96"/>
	<stop  offset="0.4327" style="stop-color:#11AD95"/>
	<stop  offset="0.621" style="stop-color:#10A692"/>
	<stop  offset="0.7618" style="stop-color:#0C998C"/>
	<stop  offset="0.879" style="stop-color:#078783"/>
	<stop  offset="0.9804" style="stop-color:#017079"/>
	<stop  offset="1" style="stop-color:#006B76"/>
</radialGradient>
<path class="st4" d="M278.6,57.3c-33.8,4.4-57.6,35.4-53.2,69.2s35.4,57.6,69.2,53.2c33.8-4.4,57.6-35.4,53.2-69.2
	S312.4,52.9,278.6,57.3z M291,152.2c-18.6,2.4-35.6-10.7-38.1-29.3s10.7-35.6,29.3-38.1c18.6-2.4,35.6,10.7,38.1,29.3
	C322.7,132.7,309.6,149.8,291,152.2z"/>
<path class="st5" d="M256.5,127c2.2,9.9,8.6,18,17.1,22.5l2.8-19.6L256.5,127z"/>
<path class="st5" d="M307.2,90.5l-2.6,18.2l17.9,2.6C320.3,102.4,314.6,95,307.2,90.5z"/>
<path class="st5" d="M298.3,152.3c9.1-2.4,16.6-8.5,20.9-16.4l-18.2-2.6L298.3,152.3z"/>
<path class="st5" d="M282.6,86.3c-9.6,2-17.6,8-22.3,16l19.6,2.8L282.6,86.3z"/>
<radialGradient id="SVGID_4_" cx="287.9453" cy="117.9999" r="72.4431" gradientUnits="userSpaceOnUse">
	<stop  offset="0" style="stop-color:#1A66AD"/>
	<stop  offset="1" style="stop-color:#063280"/>
</radialGradient>
<path class="st6" d="M348.2,114.3l-28.7-4.1c0.3,1.3,0.6,2.6,0.8,3.9c1,7.5-0.6,14.7-3.9,20.8l28.5,4.1
	C347.5,131.3,348.8,122.9,348.2,114.3z"/>
<radialGradient id="SVGID_5_" cx="287.9453" cy="117.9999" r="72.4431" gradientUnits="userSpaceOnUse">
	<stop  offset="0" style="stop-color:#1A66AD"/>
	<stop  offset="1" style="stop-color:#063280"/>
</radialGradient>
<path class="st7" d="M282.2,84.9c8-1,15.6,0.8,22,4.6l4.1-28.8c-7.7-2.9-16-4.3-24.6-3.9l-4.1,28.5C280.4,85.2,281.3,85,282.2,84.9z
	"/>
<radialGradient id="SVGID_6_" cx="287.9453" cy="117.9999" r="72.4431" gradientUnits="userSpaceOnUse">
	<stop  offset="0" style="stop-color:#1A66AD"/>
	<stop  offset="1" style="stop-color:#063280"/>
</radialGradient>
<path class="st8" d="M252.9,122.9c-1-7.8,0.7-15.3,4.4-21.6l-28.7-4.1c-2.8,7.7-4.2,16-3.7,24.6l28.5,4.1
	C253.2,125,253,124,252.9,122.9z"/>
<path class="st9" d="M333.6,35.3l-34.1,7.5l0,0l0,1.7c0,3.6,2.7,6.8,6.2,7.4l17,2.8l30.4-18.9L333.6,35.3z"/>
<linearGradient id="SVGID_7_" gradientUnits="userSpaceOnUse" x1="194.7401" y1="283.4444" x2="174.8538" y2="227.5478">
	<stop  offset="0" style="stop-color:#1B75BB"/>
	<stop  offset="1" style="stop-color:#3DA5D5"/>
</linearGradient>
<path class="st10" d="M252.4,254.9c-23.3,10.5-59.8,6.7-96-8.9c-21.1-9.1-36.2-6.3-45.1-2.4v16.3c0,13.9-2.1,22.5-13.2,25.7
	c-1.4,0.4-2.3,1.6-2.3,3v0.2c0,1.7,1.4,3.1,3.1,3.1h163.9c11,0,20-9,20-20V247C273.4,248.2,262.4,250.5,252.4,254.9z"/>
<path class="st11" d="M358.4,81.1l-21.9,9.8l-10.1,13.4c-2.1,2.8-6.3,2.8-8.4,0.1v0L328.1,78l-8.7,7.6l-2,13.9
	c-0.7,4-4.6,6.6-8.5,5.7l0,0l-1-13.5l-0.5,3c-0.5,4.6-5.3,7.5-9.6,5.7l0,0l0-18.5l-2,9.3c-0.9,4.8-5.5,7.9-10.3,6.9l0,0l1.3-27.3
	c0.1-1.1,0.6-2.1,1.4-2.9l23.6-20c0.5-0.4,1.1-0.8,1.8-1l47.2-14.2c0.8-0.2,1.6-0.3,2.5-0.2l32.5,3.4l2.3,31.8l-22.5-0.3
	c-1.1,0-2.1,0.4-2.8,1.1l-9.1,8.9C362.1,79,360.4,80.3,358.4,81.1z"/>
<g>
	<path class="st12" d="M430.7,33l2.8,39.4l-18.4,2l-3.4-47.6l10.3-1.1C426.4,25.2,430.4,28.5,430.7,33z"/>
	<path class="st13" d="M411.7,26.8l-10.9,0.8c-3.1,0.2-5.4,2.9-5.2,6l2.6,36.4c0.2,3.1,2.9,5.4,6,5.2l10.9-0.8L411.7,26.8z"/>
	
		<ellipse transform="matrix(0.9974 -7.209670e-002 7.209670e-002 0.9974 -3.8029 29.6274)" class="st14" cx="408.5" cy="67.5" rx="2.1" ry="2.1"/>
</g>
<g>
	<defs>
		<path id="SVGID_8_" d="M358.4,81.1l-21.9,9.8l-10.1,13.4c-2.1,2.8-6.3,2.8-8.4,0.1v0L328.1,78l-8.7,7.6l-2,13.9
			c-0.7,4-4.6,6.6-8.5,5.7l0,0l-0.5-12.7l-1,2.3c-0.5,4.6-5.3,7.5-9.6,5.7l0,0l0-18.5l-2,9.3c-0.9,4.8-5.5,7.9-10.3,6.9l0,0
			l1.3-27.3c0.1-1.1,0.6-2.1,1.4-2.9l23.6-20c0.5-0.4,1.1-0.8,1.8-1l47.2-14.2c0.8-0.2,1.6-0.3,2.5-0.2l32.5,3.4l2.3,31.8l-22.5-0.3
			c-1.1,0-2.1,0.4-2.8,1.1l-9.1,8.9C362.1,79,360.4,80.3,358.4,81.1z"/>
	</defs>
	<clipPath id="SVGID_9_">
		<use xlink:href="#SVGID_8_"  style="overflow:visible;"/>
	</clipPath>
	<polyline class="st15" points="294.4,96.3 298,74.4 313.1,60.4 	"/>
	<polyline class="st15" points="305.6,99.5 309.2,78.3 324.3,65.1 	"/>
	<path class="st15" d="M376.3,60.8c0,0,1.4,7.2-7.6,16.6"/>
</g>
<radialGradient id="SVGID_10_" cx="287.9453" cy="117.9999" r="72.4431" gradientUnits="userSpaceOnUse">
	<stop  offset="0" style="stop-color:#1A66AD"/>
	<stop  offset="1" style="stop-color:#063280"/>
</radialGradient>
<path class="st16" d="M291,152.2c-7.3,1-14.4-0.5-20.4-3.7l-4.1,28.5c7.7,2.7,16.1,3.8,24.7,3.2l4.1-28.8
	C293.9,151.7,292.5,152,291,152.2z"/>
<g>
	<path class="st9" d="M245.4,232.8l14.7-11.3l34-33.6l0,0c-6.3-4.3-14.4-4.8-21.1-1.2l-15,8.1l0,0c-1.9-2-2.5-4.9-1.4-7.4l8.6-21.4
		l12.7-16.5c2.9-3.8,2.4-9.2-1.2-12.3l0,0l-21.9,20.3l-10,16.7c-0.2,0.4-0.8,0.2-0.8-0.2l0.5-20l5-16.2c1.5-4.9-1-9.9-6.1-10.7
		l-1.9-0.1l-10.7,27.1l-1.5,17.1c-0.1,0.4-0.6,0.5-0.8,0.1l-10.6-21.3l0.8-10.1c0.4-4.3-2.6-8.2-6.8-9l-1.6-0.3c0,0-4,14.2-4.7,16
		c-0.8,2.3-1.1,3.9-0.4,6.9l7.7,23.5c0.2,0.6-0.6,1.1-1,0.6l-6.5-8l-1.4-6c-1.3-4.5-4.9-5.9-9.3-4.1l-0.8,0.3l2.5,14.9
		c0.1,0.6,0.3,1.2,0.7,1.7l6.4,9.5l6.9,23.5c0.7,2.3,1,4.6,1,7l-3,21.6l34.4,9.3L245.4,232.8z"/>
	
		<linearGradient id="SVGID_11_" gradientUnits="userSpaceOnUse" x1="2542.1912" y1="260.962" x2="2589.0925" y2="260.962" gradientTransform="matrix(-1 0 0 1 2786.0076 0)">
		<stop  offset="0" style="stop-color:#063280"/>
		<stop  offset="1" style="stop-color:#1A66AD"/>
	</linearGradient>
	<path class="st17" d="M234.9,269.7l-38-10.5l2-7.2l44.9,12.7l0,0C242.8,268.5,238.8,270.7,234.9,269.7z"/>
	<path class="st18" d="M243.8,264.6l3.2-11c0.9-2.9-0.9-5.8-3.8-6.6l-34.4-9.5c-2.9-0.9-5.9,0.8-6.8,3.7l-3.2,10.8L243.8,264.6z"/>
	
		<ellipse transform="matrix(0.2831 -0.9591 0.9591 0.2831 -88.7682 376.7094)" class="st14" cx="207.6" cy="247.7" rx="2.1" ry="2.1"/>
	<g>
		<defs>
			<path id="SVGID_12_" d="M245.4,232.8l14.7-11.3l34-33.6l0,0c-6.3-4.3-14.4-4.8-21.1-1.2l-15,8.1l0,0c-1.9-2-2.5-4.9-1.4-7.4
				l8.6-21.4l12.7-16.5c2.9-3.8,2.4-9.2-1.2-12.3l0,0l-21.9,20.3l-10,16.7c-0.2,0.4-0.8,0.2-0.8-0.2l0.5-20l5-16.2
				c1.5-4.9-1-9.9-6.1-10.7l-1.9-0.1l-10.7,27.1l-1.5,17.1c-0.1,0.4-0.6,0.5-0.8,0.1l-10.6-21.3l0.8-10.1c0.4-4.3-2.6-8.2-6.8-9
				l-1.6-0.3c0,0-4,14.2-4.7,16c-0.8,2.3-1.1,3.9-0.4,6.9l7.7,23.5c0.2,0.6-0.6,1.1-1,0.6l-6.5-8l-1.4-6c-1.3-4.5-4.9-5.9-9.3-4.1
				l-0.8,0.3l2.5,14.9c0.1,0.6,0.3,1.2,0.7,1.7l6.4,9.5l6.9,23.5c0.7,2.3,1,4.6,1,7l-3,21.6l34.4,9.3L245.4,232.8z"/>
		</defs>
		<clipPath id="SVGID_13_">
			<use xlink:href="#SVGID_12_"  style="overflow:visible;"/>
		</clipPath>
		<g class="st19">
			<line class="st20" x1="259.2" y1="192.8" x2="254.1" y2="195.6"/>
			<path class="st20" d="M245.6,153.7c0,0-1.3,0.9-3,1.1"/>
		</g>
	</g>
</g>
<path class="st21" d="M200.1,140.6c-1.8-7.1-2.8-14.6-2.8-22.3c0-39.8,25.9-73.7,61.7-85.6"/>
<path class="st21" d="M372.3,87.7c3.4,9.5,5.3,19.8,5.3,30.6c0,43.2-30.3,79.2-70.8,88.1"/>
</svg>
