<?xml version="1.0" encoding="utf-8"?>
<!-- Generator: Adobe Illustrator 19.2.1, SVG Export Plug-In . SVG Version: 6.00 Build 0)  -->
<svg version="1.1" id="Layer_1" xmlns="http://www.w3.org/2000/svg" xmlns:xlink="http://www.w3.org/1999/xlink" x="0px" y="0px"
	 width="126px" height="126px" viewBox="0 0 126 126" style="enable-background:new 0 0 126 126;" xml:space="preserve">
<style type="text/css">
	.st0{opacity:0.15;fill:#74CBD2;}
	.st1{opacity:0.15;fill:#12AF96;}
	.st2{fill:url(#SVGID_1_);}
	.st3{clip-path:url(#SVGID_3_);fill:none;}
	.st4{clip-path:url(#SVGID_3_);fill:url(#SVGID_4_);}
	.st5{opacity:0.3;clip-path:url(#SVGID_3_);fill:#3BA5D6;}
	.st6{clip-path:url(#SVGID_3_);fill:url(#SVGID_5_);}
	.st7{clip-path:url(#SVGID_3_);fill:url(#SVGID_6_);}
	.st8{clip-path:url(#SVGID_3_);fill:url(#SVGID_7_);}
	
		.st9{fill:none;stroke:#1B75BB;stroke-width:0.5;stroke-linecap:round;stroke-linejoin:round;stroke-miterlimit:10;stroke-dasharray:2;}
	.st10{opacity:0.3;fill:#3BA5D6;}
	.st11{opacity:0.5;fill:#3BA5D6;}
	.st12{fill:#FFFFFF;}
	.st13{fill:url(#SVGID_8_);}
	.st14{fill:#27597D;}
	.st15{fill:#3BA5D6;}
	.st16{opacity:0.3;}
	.st17{fill:#C9A797;}
	.st18{fill:#E4D3CB;}
	
		.st19{clip-path:url(#SVGID_10_);fill:none;stroke:#C9A797;stroke-width:0.5;stroke-linecap:round;stroke-linejoin:round;stroke-miterlimit:10;}
	.st20{fill:#006B76;}
	.st21{fill:#12AF96;}
	.st22{fill:url(#SVGID_11_);}
</style>
<path id="Path-3_1_" class="st0" d="M113.7,70c-11.1,47.1-32,60-62.8,38.6c-46.2-32-61-78.7-31.5-81.8c12.7-1.3,65-28.9,85.2-12.5
	C117.6,24.8,116.4,46.8,113.7,70z"/>
<path class="st1" d="M18,98.6c0,0-16.4-2.6-15-26.1c1-15.8,6.1-17.9,10.6-40.3S39.1,4.8,47,10.2c14.1,9.7,21.2,11.9,42.3,11.9
	s30.3,5.4,34.6,20.3c3.3,11.3-1.1,41-14.3,53.3c-8.9,8.3-25.9,3.1-34.6,2.8C63.1,98.1,45.9,105.1,18,98.6z"/>
<linearGradient id="SVGID_1_" gradientUnits="userSpaceOnUse" x1="15.4542" y1="72.435" x2="109.2001" y2="72.435">
	<stop  offset="0" style="stop-color:#063280"/>
	<stop  offset="1" style="stop-color:#1A66AD"/>
</linearGradient>
<path class="st2" d="M16.5,99.9c-0.7-3.3-1.1-6.7-1.1-10.1C15.5,64,36.5,43,62.3,43c25.8,0,46.9,21,46.9,46.9
	c0,3.4-0.4,6.8-1.1,10.1l-3.9,2l-87.7,0L16.5,99.9z"/>
<g>
	<defs>
		<path id="SVGID_2_" d="M40,101.9c-1.9-3.6-3-7.8-3-12.2c0-14.4,11.7-26.1,26.1-26.1s26.1,11.7,26.1,26.1c0,4.4-1.1,8.6-3,12.2h25
			c1-3.9,1.5-8,1.5-12.2c0-27.4-22.2-49.6-49.6-49.6S13.5,62.3,13.5,89.7c0,4.2,0.5,8.3,1.5,12.2H40z"/>
	</defs>
	<clipPath id="SVGID_3_">
		<use xlink:href="#SVGID_2_"  style="overflow:visible;"/>
	</clipPath>
	<path class="st3" d="M40,101.9c-1.9-3.6-3-7.8-3-12.2c0-14.4,11.7-26.1,26.1-26.1s26.1,11.7,26.1,26.1c0,4.4-1.1,8.6-3,12.2h25
		c1-3.9,1.5-8,1.5-12.2c0-27.4-22.2-49.6-49.6-49.6S13.5,62.3,13.5,89.7c0,4.2,0.5,8.3,1.5,12.2H40z"/>
	<path class="st3" d="M40,101.9c-1.9-3.6-3-7.8-3-12.2c0-14.4,11.7-26.1,26.1-26.1s26.1,11.7,26.1,26.1c0,4.4-1.1,8.6-3,12.2h25
		c1-3.9,1.5-8,1.5-12.2c0-27.4-22.2-49.6-49.6-49.6S13.5,62.3,13.5,89.7c0,4.2,0.5,8.3,1.5,12.2H40z"/>
	<linearGradient id="SVGID_4_" gradientUnits="userSpaceOnUse" x1="25.4634" y1="87.2319" x2="26.3548" y2="95.2541">
		<stop  offset="0" style="stop-color:#1A66AD"/>
		<stop  offset="1" style="stop-color:#063280"/>
	</linearGradient>
	<path class="st4" d="M12.6,87.5c0,0.7-0.1,1.5-0.1,2.2c0,4.2,0.5,8.3,1.5,12.1h26.6c-2-3.6-3.2-7.7-3.2-12.1c0-0.7,0-1.5,0.1-2.2
		H12.6z"/>
	<path class="st5" d="M90.7,84.5c0.1,0.7,0.2,1.4,0.3,2.2c0.4,4.4-0.3,8.6-2,12.4l26.5-2.6c0.6-4,0.7-8.1,0.3-12.2
		c-0.1-0.7-0.2-1.5-0.3-2.2L90.7,84.5z"/>
	<linearGradient id="SVGID_5_" gradientUnits="userSpaceOnUse" x1="101.081" y1="88.9525" x2="99.4766" y2="98.4009">
		<stop  offset="0" style="stop-color:#1A66AD"/>
		<stop  offset="1" style="stop-color:#063280"/>
	</linearGradient>
	<path class="st6" d="M88.6,87.5c0.1,0.7,0.1,1.5,0.1,2.2c0,4.4-1.2,8.6-3.2,12.1h26.6c1-3.9,1.5-8,1.5-12.1c0-0.7,0-1.5-0.1-2.2
		H88.6z"/>
	<path class="st5" d="M11,78l24.4,5.2c1.2-4.6,3.7-8.7,7.1-11.9L22.2,56.5C16.8,62.5,12.9,69.9,11,78z"/>
	<linearGradient id="SVGID_6_" gradientUnits="userSpaceOnUse" x1="28.6207" y1="75.7425" x2="38.6207" y2="53.9925">
		<stop  offset="0" style="stop-color:#1B75BB"/>
		<stop  offset="1" style="stop-color:#3DA5D5"/>
	</linearGradient>
	<path class="st7" d="M14.7,74l24,6.9c1.5-4.5,4.3-8.4,7.9-11.4L27.4,53.3C21.6,59,17.2,66,14.7,74z"/>
	<linearGradient id="SVGID_7_" gradientUnits="userSpaceOnUse" x1="95.24" y1="82.0267" x2="93.74" y2="57.2767">
		<stop  offset="0" style="stop-color:#1B75BB"/>
		<stop  offset="1" style="stop-color:#3DA5D5"/>
	</linearGradient>
	<path class="st8" d="M111.4,73.9c-2.8-8.9-8-16.7-14.9-22.7l-18.7,17c4.5,3,7.9,7.4,9.6,12.6L111.4,73.9z"/>
</g>
<path class="st9" d="M83.6,98.6c1.2-2.7,1.9-5.8,1.9-8.9c0-6.6-2.9-12.6-7.5-16.7"/>
<path class="st9" d="M43.7,78.5c-1.9,3.3-3,7.1-3,11.2"/>
<path class="st10" d="M54.8,27.3c-6.4,1.4-12.3,3.9-17.5,7.4L50,56.4c2.8-2.2,6.2-3.8,10-4.7c3-0.6,6-0.7,8.9-0.2l0.9-25
	C65,26,59.9,26.3,54.8,27.3z"/>
<path class="st11" d="M69.9,22C63.4,21.2,57,21.7,51,23.3l4.9,24.6c3.4-1.2,7.1-1.6,11-1.1c3.1,0.4,5.9,1.3,8.5,2.7l9.1-23.3
	C79.9,24.1,75.1,22.6,69.9,22z"/>
<path class="st12" d="M63.1,24c-6.6,0-12.9,1.3-18.6,3.6l7.9,23.8c3.2-1.6,6.9-2.5,10.7-2.5c3.1,0,6.1,0.6,8.8,1.6L78,26.4
	C73.3,24.9,68.3,24,63.1,24z"/>
<linearGradient id="SVGID_8_" gradientUnits="userSpaceOnUse" x1="72.1807" y1="49.5021" x2="60.6807" y2="32.1688">
	<stop  offset="0" style="stop-color:#E0F3FB"/>
	<stop  offset="1" style="stop-color:#B1E0F4"/>
</linearGradient>
<path class="st13" d="M63.1,24c-6.6,0-12.9,1.3-18.6,3.6l7.9,23.8c3.2-1.6,6.9-2.5,10.7-2.5c3.1,0,6.1,0.6,8.8,1.6L78,26.4
	C73.3,24.9,68.3,24,63.1,24z"/>
<g>
	<path class="st14" d="M56.4,28.6c0-0.2,0.2-0.4,0.4-0.4H58c1,0,1.6,0.6,1.6,1.4v0c0,0.9-0.8,1.4-1.7,1.4h-0.8v1
		c0,0.2-0.2,0.4-0.4,0.4c-0.2,0-0.4-0.2-0.4-0.4V28.6z M58,30.4c0.6,0,0.9-0.3,0.9-0.7v0c0-0.5-0.4-0.7-0.9-0.7h-0.9v1.5H58z"/>
	<path class="st14" d="M60.3,28.4c0-0.2,0.2-0.4,0.4-0.4s0.4,0.2,0.4,0.4v3.7c0,0.2-0.2,0.4-0.4,0.4c-0.2,0-0.4-0.2-0.4-0.4V28.4z"
		/>
	<path class="st14" d="M61.8,31.5L61.8,31.5c0-0.7,0.5-1,1.3-1c0.4,0,0.6,0.1,0.9,0.1v-0.1c0-0.4-0.3-0.7-0.8-0.7
		c-0.3,0-0.5,0-0.7,0.1c0,0-0.1,0-0.1,0c-0.2,0-0.3-0.1-0.3-0.3c0-0.1,0.1-0.2,0.2-0.3c0.3-0.1,0.6-0.2,1-0.2c0.5,0,0.8,0.1,1,0.4
		c0.2,0.2,0.3,0.6,0.3,1v1.6c0,0.2-0.2,0.3-0.4,0.3c-0.2,0-0.4-0.1-0.4-0.3V32c-0.2,0.3-0.5,0.5-1,0.5
		C62.3,32.5,61.8,32.1,61.8,31.5z M64,31.3v-0.2c-0.2-0.1-0.4-0.1-0.7-0.1c-0.5,0-0.7,0.2-0.7,0.5v0c0,0.3,0.3,0.5,0.6,0.5
		C63.6,32,64,31.7,64,31.3z"/>
	<path class="st14" d="M65.5,29.6c0-0.2,0.2-0.4,0.4-0.4s0.4,0.2,0.4,0.4v0.2c0.2-0.3,0.5-0.6,1-0.6c0.7,0,1.1,0.5,1.1,1.2v1.7
		c0,0.2-0.2,0.4-0.4,0.4s-0.4-0.2-0.4-0.4v-1.5c0-0.5-0.2-0.8-0.7-0.8c-0.4,0-0.7,0.3-0.7,0.8v1.5c0,0.2-0.2,0.4-0.4,0.4
		c-0.2,0-0.4-0.2-0.4-0.4V29.6z"/>
</g>
<g>
	<path class="st14" d="M61.6,36.2l-0.8,0.2c-0.1,0-0.2,0-0.2,0c-0.3,0-0.6-0.3-0.6-0.6c0-0.3,0.2-0.5,0.4-0.6l1.1-0.4
		c0.3-0.1,0.5-0.1,0.6-0.1h0c0.4,0,0.7,0.3,0.7,0.7v6.4c0,0.4-0.3,0.7-0.7,0.7c-0.4,0-0.7-0.3-0.7-0.7V36.2z"/>
</g>
<g>
	<path class="st15" d="M21.8,70.5c-0.2-0.1-0.2-0.3-0.1-0.4l0.6-0.9c0.4-0.7,1.1-0.9,1.8-0.5l0,0c0.7,0.4,0.7,1.2,0.3,1.9L24,71.1
		l0.7,0.5c0.2,0.1,0.2,0.3,0.1,0.4c-0.1,0.2-0.3,0.2-0.4,0.1L21.8,70.5z M23.9,70.1c0.3-0.4,0.2-0.8-0.1-1l0,0
		c-0.4-0.2-0.7-0.1-1,0.3l-0.4,0.6l1.1,0.7L23.9,70.1z"/>
	<path class="st15" d="M23.4,67.5c-0.1-0.1-0.2-0.3-0.1-0.4c0.1-0.2,0.3-0.2,0.4-0.1l2.7,1.7c0.1,0.1,0.2,0.3,0.1,0.4
		c-0.1,0.1-0.3,0.2-0.4,0.1L23.4,67.5z"/>
	<path class="st15" d="M26.4,67.8L26.4,67.8c-0.5-0.3-0.5-0.9-0.2-1.4c0.2-0.3,0.3-0.4,0.5-0.6l-0.1,0c-0.3-0.2-0.6-0.1-0.9,0.3
		c-0.1,0.2-0.2,0.4-0.2,0.6c0,0,0,0.1,0,0.1c-0.1,0.1-0.2,0.2-0.4,0.1c-0.1-0.1-0.1-0.2-0.1-0.3c0.1-0.3,0.1-0.5,0.3-0.8
		c0.2-0.3,0.5-0.6,0.7-0.6c0.3-0.1,0.6,0,0.9,0.2l1.1,0.7c0.1,0.1,0.2,0.3,0.1,0.4c-0.1,0.2-0.3,0.2-0.4,0.1l-0.1-0.1
		c0.1,0.3,0.1,0.6-0.1,1C27.4,67.9,26.9,68.1,26.4,67.8z M27.2,66.1L27.1,66c-0.1,0.1-0.3,0.3-0.4,0.5c-0.2,0.3-0.2,0.6,0.1,0.8l0,0
		c0.2,0.1,0.5,0,0.6-0.2C27.6,66.7,27.5,66.3,27.2,66.1z"/>
	<path class="st15" d="M26.7,64.2c-0.2-0.1-0.2-0.3-0.1-0.4c0.1-0.2,0.3-0.2,0.4-0.1l0.1,0.1c-0.1-0.3-0.2-0.6,0-1
		c0.3-0.5,0.9-0.6,1.4-0.3l1.2,0.8c0.1,0.1,0.2,0.3,0.1,0.4c-0.1,0.2-0.3,0.2-0.4,0.1l-1.1-0.7c-0.4-0.2-0.7-0.2-0.9,0.1
		c-0.2,0.3-0.1,0.7,0.3,0.9l1.1,0.7c0.1,0.1,0.2,0.3,0.1,0.4c-0.1,0.1-0.3,0.2-0.4,0.1L26.7,64.2z"/>
</g>
<g>
	<path class="st15" d="M29.5,72.8l-0.2,0.8c0,0.1-0.1,0.2-0.1,0.2c-0.2,0.3-0.5,0.4-0.8,0.2c-0.2-0.1-0.3-0.4-0.3-0.7l0.3-1.2
		c0.1-0.3,0.1-0.4,0.2-0.6l0,0c0.2-0.3,0.6-0.4,0.9-0.2l5.5,3.4c0.3,0.2,0.4,0.6,0.2,0.9c-0.2,0.3-0.6,0.4-0.9,0.2L29.5,72.8z"/>
	<path class="st15" d="M36,72.9c-0.2,0.1-0.4,0.1-0.6,0c-0.3-0.2-0.4-0.6-0.2-0.9c0.1-0.1,0.2-0.2,0.3-0.3c0.6-0.2,1.1-0.6,1.4-1.1
		c0.4-0.7,0.3-1.5-0.3-1.9l0,0c-0.7-0.4-1.4-0.1-1.9,0.7c-0.4,0.6-0.4,1.1-0.5,1.2c-0.1,0.2-0.3,0.3-0.5,0.4
		c-0.2,0.1-0.4,0.1-0.6-0.1l-2.2-1.6c-0.3-0.2-0.4-0.6-0.2-0.8l1.8-2.9c0.2-0.3,0.5-0.4,0.8-0.2c0.3,0.2,0.4,0.5,0.2,0.8l-1.5,2.4
		l1.4,1c0.1-0.4,0.2-0.7,0.4-1.1c0.8-1.3,2-1.8,3.4-1l0,0c1.3,0.8,1.6,2.3,0.7,3.7C37.5,72.2,36.8,72.7,36,72.9z"/>
</g>
<g class="st16">
	<path class="st15" d="M19,101.9c-0.2,0-0.3-0.1-0.3-0.3l-0.1-1.1c0-0.9,0.4-1.4,1.1-1.4h0c0.8,0,1.3,0.6,1.3,1.4l0,0.7l0.9,0
		c0.2,0,0.3,0.1,0.3,0.3c0,0.2-0.1,0.3-0.3,0.3L19,101.9z M20.5,100.4c0-0.5-0.3-0.8-0.7-0.8l0,0c-0.4,0-0.6,0.3-0.6,0.8l0,0.7
		l1.3-0.1L20.5,100.4z"/>
	<path class="st15" d="M18.6,98.5c-0.2,0-0.3-0.1-0.3-0.3s0.1-0.3,0.3-0.3l3.2-0.2c0.2,0,0.3,0.1,0.3,0.3c0,0.2-0.1,0.3-0.3,0.3
		L18.6,98.5z"/>
	<path class="st15" d="M21.3,97.1L21.3,97.1c-0.6,0-0.9-0.4-0.9-1.1c0-0.3,0-0.5,0.1-0.7l-0.1,0c-0.4,0-0.6,0.3-0.6,0.7
		c0,0.2,0.1,0.4,0.1,0.6c0,0,0,0.1,0,0.1c0,0.1-0.1,0.3-0.2,0.3c-0.1,0-0.2-0.1-0.3-0.2c-0.1-0.3-0.2-0.5-0.2-0.9
		c0-0.4,0.1-0.7,0.3-0.9c0.2-0.2,0.5-0.3,0.8-0.3l1.3-0.1c0.2,0,0.3,0.1,0.3,0.3c0,0.2-0.1,0.3-0.3,0.3l-0.1,0
		c0.2,0.2,0.4,0.5,0.4,0.9C22.1,96.6,21.8,97,21.3,97.1z M21,95.2l-0.2,0c-0.1,0.2-0.1,0.4-0.1,0.6c0,0.4,0.2,0.6,0.5,0.6h0
		c0.3,0,0.4-0.3,0.4-0.6C21.6,95.5,21.4,95.2,21,95.2z"/>
	<path class="st15" d="M19.5,93.9c-0.2,0-0.3-0.1-0.3-0.3c0-0.2,0.1-0.3,0.3-0.3l0.1,0c-0.3-0.2-0.5-0.4-0.5-0.8c0-0.6,0.4-1,1-1
		l1.5-0.1c0.2,0,0.3,0.1,0.3,0.3S21.7,92,21.6,92l-1.3,0.1c-0.4,0-0.7,0.2-0.6,0.6c0,0.4,0.3,0.6,0.7,0.6l1.3-0.1
		c0.2,0,0.3,0.1,0.3,0.3c0,0.2-0.1,0.3-0.3,0.3L19.5,93.9z"/>
</g>
<g class="st16">
	<path class="st15" d="M26.7,99.4l0.3,0.8c0,0.1,0,0.2,0,0.2c0,0.3-0.2,0.6-0.5,0.6c-0.3,0-0.5-0.2-0.6-0.4l-0.4-1.1
		c-0.1-0.3-0.1-0.4-0.2-0.6l0,0c0-0.4,0.3-0.7,0.6-0.7l6.4-0.3c0.4,0,0.7,0.3,0.7,0.6c0,0.4-0.3,0.7-0.6,0.7L26.7,99.4z"/>
	<path class="st15" d="M31,92.4l0.2,3.4c0,0.4-0.2,0.7-0.6,0.7c-0.3,0-0.5-0.1-0.7-0.3l-4.4-3.4C25.1,92.6,25,92.4,25,92
		c0-0.4,0.2-0.7,0.6-0.7l4.2-0.2l0-0.6c0-0.3,0.2-0.6,0.5-0.6c0.3,0,0.6,0.2,0.6,0.5l0,0.6L32,91c0.4,0,0.6,0.3,0.7,0.6
		c0,0.4-0.2,0.7-0.6,0.7L31,92.4z M29.9,92.4l-3,0.1l3.1,2.3L29.9,92.4z"/>
</g>
<g>
	<path class="st15" d="M98.1,59.3c0.2-0.1,0.3,0,0.4,0.1l0.6,1c0.4,0.7,0.3,1.4-0.3,1.8l0,0c-0.7,0.4-1.4,0.1-1.8-0.6l-0.4-0.6
		l-0.8,0.5c-0.2,0.1-0.3,0-0.4-0.1c-0.1-0.2,0-0.3,0.1-0.4L98.1,59.3z M97.5,61.3c0.2,0.4,0.6,0.5,1,0.3l0,0c0.4-0.2,0.4-0.6,0.2-1
		L98.2,60l-1.1,0.7L97.5,61.3z"/>
	<path class="st15" d="M100,62.1c0.1-0.1,0.3,0,0.4,0.1s0,0.3-0.1,0.4l-2.8,1.7c-0.2,0.1-0.3,0-0.4-0.1c-0.1-0.1,0-0.3,0.1-0.4
		L100,62.1z"/>
	<path class="st15" d="M98.4,64.6L98.4,64.6c0.5-0.3,1-0.1,1.3,0.5c0.2,0.3,0.2,0.5,0.3,0.7l0.1,0c0.3-0.2,0.4-0.5,0.2-0.9
		c-0.1-0.2-0.3-0.4-0.4-0.5c0,0,0-0.1-0.1-0.1c-0.1-0.1,0-0.3,0.1-0.4c0.1-0.1,0.2,0,0.3,0c0.2,0.2,0.4,0.4,0.6,0.7
		c0.2,0.4,0.3,0.7,0.2,0.9c-0.1,0.3-0.3,0.5-0.6,0.7L99.2,67c-0.1,0.1-0.3,0-0.4-0.1c-0.1-0.2-0.1-0.3,0.1-0.4l0.1-0.1
		c-0.3,0-0.6-0.2-0.8-0.6C97.9,65.4,97.9,64.9,98.4,64.6z M99.5,66.1l0.2-0.1c0-0.2-0.1-0.4-0.2-0.6c-0.2-0.3-0.5-0.5-0.7-0.3l0,0
		c-0.2,0.1-0.2,0.4-0.1,0.7C98.8,66.2,99.2,66.3,99.5,66.1z"/>
	<path class="st15" d="M101.5,66.5c0.2-0.1,0.3,0,0.4,0.1c0.1,0.2,0,0.3-0.1,0.4l-0.1,0.1c0.3,0,0.6,0.1,0.8,0.5
		c0.3,0.5,0.1,1.1-0.4,1.4l-1.3,0.8c-0.2,0.1-0.3,0-0.4-0.1c-0.1-0.2,0-0.3,0.1-0.4l1.1-0.7c0.4-0.2,0.5-0.5,0.3-0.8
		c-0.2-0.3-0.5-0.4-0.9-0.2l-1.1,0.7c-0.2,0.1-0.3,0-0.4-0.1c-0.1-0.1,0-0.3,0.1-0.4L101.5,66.5z"/>
</g>
<g>
	<path class="st15" d="M88.8,69.1l2.9,1c1.3,0.4,1.9,0.5,2.5,0.2c0.6-0.4,0.7-1.1,0.4-1.7c-0.3-0.5-0.8-0.7-1.5-0.8
		c-0.1,0-0.3-0.1-0.4-0.3c-0.2-0.3-0.1-0.7,0.2-0.8c0.1-0.1,0.3-0.1,0.4-0.1c1,0.1,1.7,0.5,2.3,1.5c0.8,1.3,0.5,2.6-0.6,3.3l0,0
		c-1,0.6-1.9,0.4-3.5-0.2l-1.9-0.7l1.6,2.6c0.2,0.3,0.1,0.6-0.2,0.8c-0.3,0.2-0.6,0.1-0.8-0.2l-2.2-3.7c-0.2-0.4-0.2-0.7,0.2-0.9
		C88.3,69,88.5,69,88.8,69.1z"/>
</g>
<g class="st16">
	<path class="st15" d="M108.9,91.7c0.2,0,0.3,0.2,0.3,0.3l-0.1,1.1c-0.1,0.8-0.6,1.3-1.3,1.3l0,0c-0.8-0.1-1.2-0.7-1.1-1.5l0.1-0.7
		l-0.9-0.1c-0.2,0-0.3-0.2-0.3-0.3c0-0.2,0.2-0.3,0.3-0.3L108.9,91.7z M107.3,93c0,0.5,0.2,0.8,0.6,0.8l0,0c0.4,0,0.7-0.3,0.7-0.7
		l0.1-0.7l-1.3-0.1L107.3,93z"/>
	<path class="st15" d="M108.8,95.2c0.2,0,0.3,0.2,0.3,0.3s-0.2,0.3-0.3,0.3l-3.2-0.3c-0.2,0-0.3-0.2-0.3-0.3c0-0.2,0.2-0.3,0.3-0.3
		L108.8,95.2z"/>
	<path class="st15" d="M106,96.2L106,96.2c0.6,0,0.9,0.5,0.8,1.2c0,0.3-0.1,0.5-0.2,0.7l0.1,0c0.4,0,0.6-0.2,0.6-0.6
		c0-0.2,0-0.4-0.1-0.6c0,0,0-0.1,0-0.1c0-0.1,0.1-0.3,0.3-0.2c0.1,0,0.2,0.1,0.2,0.2c0.1,0.3,0.1,0.5,0.1,0.9c0,0.4-0.2,0.7-0.4,0.9
		c-0.2,0.2-0.5,0.3-0.9,0.2l-1.3-0.1c-0.2,0-0.3-0.2-0.3-0.3c0-0.2,0.1-0.3,0.3-0.3l0.1,0c-0.2-0.2-0.4-0.5-0.3-0.9
		C105.2,96.6,105.5,96.2,106,96.2z M106.1,98.1l0.2,0c0.1-0.2,0.1-0.4,0.2-0.6c0-0.4-0.1-0.7-0.4-0.7l0,0c-0.3,0-0.4,0.2-0.5,0.5
		C105.5,97.7,105.7,98.1,106.1,98.1z"/>
	<path class="st15" d="M107.5,99.6c0.2,0,0.3,0.2,0.3,0.3s-0.2,0.3-0.3,0.3l-0.1,0c0.2,0.2,0.4,0.5,0.4,0.9c0,0.6-0.5,0.9-1.1,0.9
		l-1.5-0.1c-0.2,0-0.3-0.2-0.3-0.3s0.2-0.3,0.3-0.3l1.3,0.1c0.4,0,0.7-0.2,0.7-0.5c0-0.4-0.2-0.6-0.6-0.7l-1.3-0.1
		c-0.2,0-0.3-0.2-0.3-0.3c0-0.2,0.2-0.3,0.3-0.3L107.5,99.6z"/>
</g>
<g class="st16">
	<path class="st15" d="M95.2,94.2c0.1-0.1,0.3-0.2,0.5-0.2c0.3,0,0.6,0.3,0.6,0.7c0,0.2-0.1,0.3-0.2,0.4c-0.5,0.4-0.8,1-0.9,1.7
		c-0.1,0.7,0.4,1.3,1,1.4l0,0c0.7,0.1,1.2-0.6,1.3-1.6l0-0.3c0-0.3,0.3-0.6,0.6-0.5c0.2,0,0.3,0.1,0.5,0.3l1.8,1.9l0.2-2.7
		c0-0.3,0.3-0.6,0.6-0.5c0.3,0,0.6,0.3,0.5,0.6l-0.3,3.9c0,0.4-0.3,0.6-0.6,0.6c-0.3,0-0.5-0.2-0.7-0.4l-1.7-1.9
		c-0.2,1.1-0.9,2.2-2.3,2.1l0,0c-1.4-0.1-2.3-1.3-2.2-2.8C94.1,95.6,94.6,94.8,95.2,94.2z"/>
</g>
<g>
	<path class="st17" d="M74.3,74.2l4.6-12.7l0,0l0,0c-1.9-1.1-4.3-0.6-5.6,1.1l-3,4L74.3,74.2z"/>
	<path class="st18" d="M69.9,42.4L69.9,42.4l-4.6,14.2l-8.8,0.1h0c-3.6,2.1-5.6,6.1-5.2,10.2l0.9,9.4c0.2,2.1,1,4,2.3,5.6l2,2.4
		h11.6l3.5-4c1.2-1.4,2-3.1,2.4-4.9l0.3-1.3c1.4-3.8-2.4-7-2.3-8.3l1.5-19C73.7,44.7,72.1,42.7,69.9,42.4z"/>
	<g>
		<defs>
			<path id="SVGID_9_" d="M69.9,42.4L69.9,42.4l-4.6,14.2l-8.8,0.1h0c-3.6,2.1-5.6,6.1-5.2,10.2l0.9,9.4c0.2,2.1,1,4,2.3,5.6l2,2.4
				h11.6l3.5-4c1.2-1.4,2-3.1,2.4-4.9l0.3-1.3c1.4-3.8-2.4-7-2.3-8.3l1.5-19C73.7,44.7,72.1,42.7,69.9,42.4z"/>
		</defs>
		<clipPath id="SVGID_10_">
			<use xlink:href="#SVGID_9_"  style="overflow:visible;"/>
		</clipPath>
		<line class="st19" x1="65.3" y1="55.7" x2="63.5" y2="60.9"/>
	</g>
	<rect x="50.6" y="91.2" class="st20" width="23.2" height="15.7"/>
	<path class="st21" d="M73.8,91.2v-5.3c0-1.5-1.2-2.7-2.7-2.7H53.4c-1.5,0-2.7,1.2-2.7,2.7v5.3H73.8z"/>
	<circle class="st12" cx="54.2" cy="88.2" r="1"/>
</g>
<linearGradient id="SVGID_11_" gradientUnits="userSpaceOnUse" x1="80.7124" y1="27.5325" x2="96.0696" y2="27.5325">
	<stop  offset="0" style="stop-color:#3DA5D5"/>
	<stop  offset="1" style="stop-color:#1B75BB"/>
</linearGradient>
<path class="st22" d="M94.9,27.5c0-0.5-0.1-1.1-0.2-1.6l1.4-1.1l-1.4-2.5L93,23c-0.8-0.8-1.7-1.4-2.8-1.7l-0.3-1.8H87l-0.3,1.7
	c-1.1,0.3-2.1,0.8-2.9,1.6l-1.7-0.6l-1.4,2.5l1.3,1.1c-0.2,0.6-0.2,1.1-0.2,1.7c0,0.5,0.1,1.1,0.2,1.6l-1.4,1.1l1.4,2.5l1.6-0.6
	c0.8,0.8,1.7,1.4,2.8,1.7l0.3,1.8h2.8l0.3-1.7c1.1-0.3,2.1-0.8,2.9-1.6l1.7,0.6l1.4-2.5l-1.3-1.1C94.8,28.7,94.9,28.1,94.9,27.5z
	 M88.4,31.2c-2,0-3.7-1.6-3.7-3.7c0-2,1.6-3.7,3.7-3.7c2,0,3.7,1.6,3.7,3.7C92.1,29.6,90.4,31.2,88.4,31.2z"/>
<path class="st9" d="M38.8,60.6c0,0,3-5.8,11.3-8.4"/>
</svg>
