<?xml version="1.0" encoding="UTF-8"?>
<svg width="49px" height="35px" viewBox="0 0 49 35" version="1.1" xmlns="http://www.w3.org/2000/svg" xmlns:xlink="http://www.w3.org/1999/xlink">
    <!-- Generator: sketchtool 52.5 (67469) - http://www.bohemiancoding.com/sketch -->
    <title>71F09DAD-2252-4F7E-9771-1F5BEBDF9686</title>
    <desc>Created with sketchtool.</desc>
    <g id="Customer-Page" stroke="none" stroke-width="1" fill="none" fill-rule="evenodd" opacity="0.149096">
        <g id="Proactive-help_1440" transform="translate(-696.000000, -1817.000000)" fill="#1E2949" fill-rule="nonzero">
            <g id="block_4" transform="translate(345.000000, 1616.000000)">
                <g id="quotes" transform="translate(351.000000, 201.000000)">
                    <path d="M11.2377875,12.7272727 C17.4166727,12.7272727 22.4256293,17.7132813 22.4256293,23.8636364 C22.4256293,30.0139915 17.4166727,35 11.2377875,35 C5.05890232,35 0.0499457223,30.0139915 0.0499457223,23.8636364 L0,22.2727273 C0,9.97181818 10.0179132,0 22.3756836,0 L22.3756836,6.36363636 C18.1066229,6.36363636 14.0929847,8.01848011 11.0742652,11.0233097 C10.4931967,11.601804 9.962873,12.2172869 9.48449287,12.8637926 C10.055772,12.774304 10.6412358,12.7272727 11.2377875,12.7272727 Z M37.8121582,12.7272727 C43.9909435,12.7272727 49,17.7132813 49,23.8636364 C49,30.0139915 43.9909435,35 37.8121582,35 C31.6333729,35 26.6243164,30.0139915 26.6243164,23.8636364 L26.5743707,22.2727273 C26.5743707,9.97181818 36.592184,0 48.9500543,0 L48.9500543,6.36363636 C44.6810935,6.36363636 40.6672555,8.01848011 37.6486359,11.0233097 C37.0674675,11.601804 36.5371438,12.2172869 36.0587637,12.8637926 C36.6300429,12.774304 37.2155066,12.7272727 37.8121582,12.7272727 Z" id="Shape"></path>
                </g>
            </g>
        </g>
    </g>
</svg>