<?xml version="1.0" encoding="utf-8"?>
<!-- Generator: Adobe Illustrator 19.2.1, SVG Export Plug-In . SVG Version: 6.00 Build 0)  -->
<svg version="1.1" id="Layer_1" xmlns="http://www.w3.org/2000/svg" xmlns:xlink="http://www.w3.org/1999/xlink" x="0px" y="0px"
	 width="574px" height="300px" viewBox="0 0 574 300" style="enable-background:new 0 0 574 300;" xml:space="preserve">
<style type="text/css">
	.st0{opacity:0.1;fill:#74CBD2;}
	.st1{opacity:0.1;fill:#12AF96;}
	.st2{fill:#715E55;}
	.st3{fill:#977D71;}
	.st4{fill:url(#SVGID_1_);}
	.st5{fill:url(#SVGID_2_);}
	.st6{fill:#12AF96;}
	.st7{fill:#81D13B;}
	.st8{opacity:0.5;fill:#12AF96;}
	.st9{fill:#C9A797;}
	.st10{fill:#E4D3CB;}
	.st11{opacity:0.8;fill:url(#SVGID_3_);}
	.st12{fill:url(#SVGID_4_);}
	.st13{fill:url(#SVGID_5_);}
	.st14{fill:url(#SVGID_6_);}
	.st15{fill:#1E2949;}
	.st16{fill:url(#SVGID_7_);}
	.st17{fill:url(#SVGID_8_);}
	.st18{fill:#1B75BB;}
	.st19{fill:#FFFFFF;}
	.st20{fill:url(#SVGID_9_);}
	.st21{fill:url(#SVGID_10_);}
	.st22{fill:url(#SVGID_11_);}
	.st23{fill:url(#SVGID_12_);}
	.st24{fill:url(#SVGID_13_);}
	.st25{fill:url(#SVGID_14_);}
	
		.st26{clip-path:url(#SVGID_16_);fill:none;stroke:#977D71;stroke-width:2;stroke-linecap:round;stroke-linejoin:round;stroke-miterlimit:10;}
	.st27{fill:url(#SVGID_17_);}
	.st28{opacity:0.5;fill:none;stroke:#3BA5D6;stroke-width:2;stroke-linecap:round;stroke-miterlimit:10;stroke-dasharray:6,8;}
	.st29{fill:url(#SVGID_18_);}
	.st30{fill:#62B7DE;}
</style>
<path id="Path-3_11_" class="st0" d="M395.6,163.9c-25.3,107.5-73,136.9-143.2,88.1C147,178.9,113.1,72.5,180.6,65.4
	c28.9-3,148.3-66,194.4-28.5C404.3,60.8,401.7,111.1,395.6,163.9z"/>
<path class="st1" d="M167.8,229.2c0,0-37.4-6-34.1-59.6c2.2-35.9,14-40.8,24.2-92C168,26.5,216,15.3,234,27.6
	c32.2,22.1,48.4,27.2,96.5,27.2s69.1,12.2,79,46.4c7.5,25.8-2.6,93.6-32.6,121.5c-20.4,18.9-59.2,7-79,6.3
	C270.8,228.1,231.5,244,167.8,229.2z"/>
<path class="st2" d="M174.2,91.6l10.4,36.1l-2.1,0.4c-4.6,0.8-9.3-1.2-11.9-5.1l-7.9-11.8L174.2,91.6z"/>
<path class="st3" d="M187.8,91.6l8.9,31.4l-1.1,0c-5.7,0.3-11.2-2.3-14.6-6.9l-6.5-8.8L187.8,91.6z"/>
<g>
	
		<linearGradient id="SVGID_1_" gradientUnits="userSpaceOnUse" x1="3070.9138" y1="1065.9434" x2="3150.2844" y2="1065.9434" gradientTransform="matrix(-0.6047 -0.6062 -0.869 0.8669 2994.7815 1098.4692)">
		<stop  offset="0" style="stop-color:#12AF96"/>
		<stop  offset="1" style="stop-color:#006B76"/>
	</linearGradient>
	<path class="st4" d="M233.9,138.7c0,0-47.7,23.1-74.9,15.7c0,0-11.4-18.9-0.2-36.9l0.6-0.6c0,0,18.2,13.9,48.9,2.8l26.1,18.3
		C234.5,138.1,234.1,138.4,233.9,138.7z"/>
	
		<linearGradient id="SVGID_2_" gradientUnits="userSpaceOnUse" x1="3070.9138" y1="1061.1429" x2="3150.2844" y2="1061.1429" gradientTransform="matrix(-0.6047 -0.6062 -0.869 0.8669 2994.7815 1098.4692)">
		<stop  offset="0" style="stop-color:#12AF96"/>
		<stop  offset="1" style="stop-color:#006B76"/>
	</linearGradient>
	<path class="st5" d="M234.5,138.1c0,0-47.7,23.1-74.9,15.7c0,0-11.4-18.9-0.2-36.9c0,0,25.1,1.9,59.2-10.4
		C218.6,106.6,217.2,123.6,234.5,138.1z"/>
	<ellipse transform="matrix(0.7079 -0.7063 0.7063 0.7079 -37.4542 174.2953)" class="st6" cx="192" cy="132.4" rx="8.4" ry="9.6"/>
	<path class="st6" d="M179.9,121l-17.7,0.7c0,0-8.2,12.7,1.3,27.2c0,0,10.8,2.4,17,0.1c0,0-2-7.2-12.7-5.9c0,0-6.2-9-1-16.2
		C166.8,126.8,172.2,128.7,179.9,121z"/>
	
		<ellipse transform="matrix(0.7079 -0.7063 0.7063 0.7079 -44.601 161.6606)" class="st7" cx="173.2" cy="134.8" rx="3.3" ry="3.1"/>
	
		<ellipse transform="matrix(0.7079 -0.7063 0.7063 0.7079 -28.9923 185.761)" class="st7" cx="210.1" cy="127.9" rx="3.3" ry="3.1"/>
	<path class="st8" d="M227.6,137c0,0-13.7,7-16.6,6.3c0,0,3-4.5,10-9.2c0,0-7.8-6.3-7.9-17.6c0,0-6.6,4.2-11.7-0.4l14.1-4.4
		C215.5,111.7,214.6,122.3,227.6,137z"/>
</g>
<path class="st9" d="M117.4,142.9l44,14.3c0.9,0.2,1.9,0.3,2.8,0.1l12.4-1.8c2.1-0.3,4-1.6,5-3.5v0c1.8-3.5,0.2-7.8-3.4-9.3
	c-5.9-2.4-13.6-5.6-13.6-5.6l-10.4-6.8l16.8-15.9c1.4-2.1,3.6-3.6,6.1-4.2l18.3-1.9l11.2,9.7c6.7,5.8,16.7,6.1,23.7,0.6l0.1-0.1
	l-24-28.3c-0.7-0.8-1.5-1.4-2.4-1.8l-12.9-6l-6.4,0l-0.8-1.8c-0.7-1.4-1.9-2.6-3.3-3.3l-9.5-0.8l0,0c-1-1.3-2.3-2.2-3.8-2.7
	l-4.1-1.3c-1.6-0.5-3.3-0.4-4.8,0.2l-16,6.9c-2.7,1.6-26.4,26.7-26.4,26.7l-21.7,1.8l-1,34.7H117.4z"/>
<polygon class="st10" points="442.2,243.8 434.8,231.5 465.6,214.9 473,228.3 "/>
<linearGradient id="SVGID_3_" gradientUnits="userSpaceOnUse" x1="478.0827" y1="87.0372" x2="536.5027" y2="87.0372" gradientTransform="matrix(0.9903 -0.1392 0.1392 0.9903 -45.4544 241.972)">
	<stop  offset="0" style="stop-color:#006B76"/>
	<stop  offset="1" style="stop-color:#12AF96"/>
</linearGradient>
<path class="st11" d="M491.5,239.2l6.1,11.9l-42,22.9c-4.5,2.5-10.1,0.9-12.7-3.5l-2-3.4L491.5,239.2z"/>
<path class="st6" d="M440.9,267.5l50.6-28.3l-5.5-9.8c-2.7-4.8-8.8-6.5-13.6-3.8l-33.1,18.5c-4.8,2.7-6.5,8.8-3.8,13.6L440.9,267.5z
	"/>
<linearGradient id="SVGID_4_" gradientUnits="userSpaceOnUse" x1="473.3375" y1="74.0338" x2="532.0885" y2="74.0338" gradientTransform="matrix(0.9903 -0.1392 0.1392 0.9903 -45.4544 241.972)">
	<stop  offset="0" style="stop-color:#006B76"/>
	<stop  offset="1" style="stop-color:#12AF96"/>
</linearGradient>
<path class="st12" d="M440.9,267.5l50.6-28.3l-5.5-9.8c-2.7-4.8-8.8-6.5-13.6-3.8l-33.1,18.5c-4.8,2.7-6.5,8.8-3.8,13.6L440.9,267.5
	z"/>
<g>
	
		<linearGradient id="SVGID_5_" gradientUnits="userSpaceOnUse" x1="516.1278" y1="65.8495" x2="520.9827" y2="65.8495" gradientTransform="matrix(0.9903 -0.1392 0.1392 0.9903 -45.4544 241.972)">
		<stop  offset="0" style="stop-color:#0F3D68"/>
		<stop  offset="1" style="stop-color:#27597D"/>
	</linearGradient>
	<circle class="st13" cx="477.2" cy="235" r="2.4"/>
</g>
<polygon class="st9" points="437.6,236.2 434.8,231.5 465.6,214.9 "/>
<linearGradient id="SVGID_6_" gradientUnits="userSpaceOnUse" x1="404.2613" y1="22.0006" x2="438.5825" y2="22.0006" gradientTransform="matrix(0.9903 -0.1392 0.1392 0.9903 -45.4544 241.972)">
	<stop  offset="0" style="stop-color:#063280"/>
	<stop  offset="1" style="stop-color:#1A66AD"/>
</linearGradient>
<path class="st14" d="M374.8,214.1l-18.1-15.4l11.7-1.6c3.2-0.4,6.4,0.3,9,2.1l15.5,10.5C387.1,211.7,380.9,213.1,374.8,214.1z"/>
<path class="st15" d="M352.9,215.5l-20.4-17.3l15.1-2.1c3.6-0.5,7.3,0.6,10.1,2.9l17.1,14.5C366.5,214.8,358.7,215.3,352.9,215.5z"
	/>
<linearGradient id="SVGID_7_" gradientUnits="userSpaceOnUse" x1="360.7665" y1="31.8844" x2="512.2751" y2="31.8844" gradientTransform="matrix(0.9903 -0.1392 0.1392 0.9903 -45.4544 241.972)">
	<stop  offset="0" style="stop-color:#0F3D68"/>
	<stop  offset="1" style="stop-color:#27597D"/>
</linearGradient>
<path class="st16" d="M432.5,233.4l-4-12.1l-75.1,10.6c-2.1,0.3-4.3,0.1-6.3-0.6l-3.5-1.2c-2-0.7-3.9-1.9-5.3-3.4l-25-26.4
	c-0.9-1-0.4-2.7,1-2.8l11.8-1.7c4.1-0.6,8.2,0.7,11.3,3.4l14.5,12.7c15.1-0.8,27.1,1.8,41.3-12.6l36.5-14.2l11.7,0.6
	c4,0.2,7.9,2,10.6,4.9l15.8,23.5L432.5,233.4z"/>
<g>
	
		<linearGradient id="SVGID_8_" gradientUnits="userSpaceOnUse" x1="2075.5491" y1="1754.1884" x2="2135.0068" y2="1754.1884" gradientTransform="matrix(-0.2608 0.9654 -0.9654 -0.2608 2329.3347 -1448.5741)">
		<stop  offset="0" style="stop-color:#063280"/>
		<stop  offset="1" style="stop-color:#1A66AD"/>
	</linearGradient>
	<path class="st17" d="M77.7,110.1l0.5,44.7l14.8-0.2l-0.3-57.5l-2.4,0C83.3,97.2,77.6,103,77.7,110.1z"/>
	<path class="st18" d="M92.7,97.1l14.1-0.3c3.7-0.1,6.6,2.9,6.7,6.6l0.3,44c0.1,3.7-2.9,6.8-6.6,6.9L93,154.6L92.7,97.1z"/>
	
		<ellipse transform="matrix(0.9997 -2.318719e-002 2.318719e-002 0.9997 -3.3488 2.3852)" class="st19" cx="101.2" cy="145.6" rx="2.6" ry="2.6"/>
</g>
<g>
	<path class="st6" d="M322.8,182.1c0,0,37.3,26.1,67.8,22.6c0,0,19.9-15.7,16.8-33.2L407,171c0,0-24.5,10.4-50.2-3l-34.4,13.5
		C322.4,181.6,322.6,181.9,322.8,182.1z"/>
	
		<linearGradient id="SVGID_9_" gradientUnits="userSpaceOnUse" x1="628.3873" y1="-454.5137" x2="707.7579" y2="-454.5137" gradientTransform="matrix(0.8785 -0.4778 0.4778 0.8785 -2.1003 900.0933)">
		<stop  offset="0" style="stop-color:#006B76"/>
		<stop  offset="1" style="stop-color:#12AF96"/>
	</linearGradient>
	<path class="st20" d="M322.4,181.6c0,0,37.3,26.1,67.8,22.6c0,0,19.9-15.7,16.8-33.2c0,0-26-1.1-54.5-16
		C352.5,155,346.2,170.4,322.4,181.6z"/>
	
		<ellipse transform="matrix(0.8785 -0.4778 0.4778 0.8785 -41.9433 197.5686)" class="st6" cx="367.4" cy="181.2" rx="11.2" ry="6.8"/>
	
		<ellipse transform="matrix(0.8785 -0.4778 0.4778 0.8785 -41.7939 206.5871)" class="st7" cx="385.2" cy="185.5" rx="3.6" ry="2.7"/>
	
		<ellipse transform="matrix(0.8785 -0.4778 0.4778 0.8785 -40.9866 189.1526)" class="st7" cx="351.4" cy="175.2" rx="3.6" ry="2.7"/>
</g>
<g>
	<path class="st6" d="M321.8,175.4c0,0,37.3,26.1,67.8,22.6c0,0,19.9-15.7,16.8-33.2l-0.3-0.6c0,0-24.5,10.4-50.2-3l-34.4,13.5
		C321.5,174.8,321.7,175.2,321.8,175.4z"/>
	<path class="st6" d="M321.5,174.8c0,0,37.3,26.1,67.8,22.6c0,0,19.9-15.7,16.8-33.2c0,0-26-1.1-54.5-16
		C351.6,148.3,345.3,163.7,321.5,174.8z"/>
	
		<linearGradient id="SVGID_10_" gradientUnits="userSpaceOnUse" x1="418.8546" y1="-48.5011" x2="414.2437" y2="-2.8773" gradientTransform="matrix(0.9903 -0.1392 0.1392 0.9903 -45.4544 241.972)">
		<stop  offset="0" style="stop-color:#B1E0F4"/>
		<stop  offset="1" style="stop-color:#FFFFFF;stop-opacity:0"/>
	</linearGradient>
	<path class="st21" d="M321.5,174.8c0,0,37.3,26.1,67.8,22.6c0,0,19.9-15.7,16.8-33.2c0,0-26-1.1-54.5-16
		C351.6,148.3,345.3,163.7,321.5,174.8z"/>
	
		<ellipse transform="matrix(0.8785 -0.4778 0.4778 0.8785 -38.8431 196.299)" class="st6" cx="366.5" cy="174.5" rx="11.2" ry="6.8"/>
	<path class="st6" d="M383.8,165.6l17.4,2.6c0,0,2.5,12.4-13.6,24.4c0,0-11.9,0.9-17-1.9c0,0,5.3-6.2,15.3-3.9
		c0,0,10.2-7.4,8.3-14.5C394.3,172.3,388,173.4,383.8,165.6z"/>
	
		<ellipse transform="matrix(0.8785 -0.4778 0.4778 0.8785 -38.6938 205.3176)" class="st7" cx="384.3" cy="178.7" rx="3.6" ry="2.7"/>
	
		<ellipse transform="matrix(0.8785 -0.4778 0.4778 0.8785 -37.8864 187.8831)" class="st7" cx="350.4" cy="168.4" rx="3.6" ry="2.7"/>
	<path class="st8" d="M328.9,174.6c0,0,10.5,7.9,13.8,7.6c0,0-0.9-4.4-5.8-9.5c0,0,10.7-4.8,15.8-15c0,0,4.7,4.5,11.9,1l-12.1-5.6
		C352.4,153.2,348.4,162.8,328.9,174.6z"/>
</g>
<g>
	<path class="st6" d="M244.8,144c0,0,42.9,15.2,71.4,3.7c0,0,15-20.5,7.3-36.5l-0.5-0.5c0,0-20.8,16.6-49.2,10.5l-29.6,22.2
		C244.3,143.5,244.6,143.8,244.8,144z"/>
	<path class="st6" d="M244.3,143.5c0,0,42.9,15.2,71.4,3.7c0,0,15-20.5,7.3-36.5c0,0-25.3,5.9-56.8-0.9
		C266.2,109.9,264.3,126.4,244.3,143.5z"/>
	
		<linearGradient id="SVGID_11_" gradientUnits="userSpaceOnUse" x1="324.2444" y1="-58.794" x2="406.0275" y2="-81.1205" gradientTransform="matrix(0.9903 -0.1392 0.1392 0.9903 -45.4544 241.972)">
		<stop  offset="0" style="stop-color:#FFFFFF;stop-opacity:0"/>
		<stop  offset="1" style="stop-color:#B1E0F4"/>
	</linearGradient>
	<path class="st22" d="M244.3,143.5c0,0,42.9,15.2,71.4,3.7c0,0,15-20.5,7.3-36.5c0,0-25.3,5.9-56.8-0.9
		C266.2,109.9,264.3,126.4,244.3,143.5z"/>
	
		<ellipse transform="matrix(0.7192 -0.6948 0.6948 0.7192 -10.3752 236.6579)" class="st6" cx="287.6" cy="131.2" rx="11.2" ry="6.8"/>
	
		<linearGradient id="SVGID_12_" gradientUnits="userSpaceOnUse" x1="864.6525" y1="-745.0481" x2="884.2089" y2="-745.0481" gradientTransform="matrix(0.4157 0.9095 0.9095 -0.4157 590.8597 -947.4811)">
		<stop  offset="0" style="stop-color:#B1E0F4"/>
		<stop  offset="0.1384" style="stop-color:#C0E6F6"/>
		<stop  offset="0.5025" style="stop-color:#E2F4FB"/>
		<stop  offset="0.8028" style="stop-color:#F7FCFE"/>
		<stop  offset="1" style="stop-color:#FFFFFF"/>
	</linearGradient>
	<path class="st23" d="M291.4,149.3l-2.3,8c-2.4,8.4-12,12.5-19.7,8.3l-10-5.5l0,0c3.6-3.4,8.4-5.1,13.4-4.6l0.8,0.1l-4.7-2.6
		l0.7-1.1c3.2-4.6,9-6.4,14.2-4.4C286,148.3,288.6,149,291.4,149.3z"/>
	<path class="st8" d="M301.8,118l17.5-2.1c0,0,5.7,11.3-6.6,27.1c0,0-11.2,4.1-16.9,2.8c0,0,3.4-7.4,13.7-7.9c0,0,7.9-9.8,4.2-16.2
		C313.8,121.6,308,124.3,301.8,118z"/>
	
		<ellipse transform="matrix(0.7192 -0.6948 0.6948 0.7192 -4.7621 249.1693)" class="st7" cx="305.9" cy="130.5" rx="3.6" ry="2.7"/>
	
		<ellipse transform="matrix(0.7192 -0.6948 0.6948 0.7192 -14.0817 224.3257)" class="st7" cx="270.5" cy="129.6" rx="3.6" ry="2.7"/>
	<path class="st6" d="M251.3,141.3c0,0,12.2,4.8,15.3,3.6c0,0-2.1-4-8.1-7.6c0,0,9-7.5,11.3-18.7c0,0,5.7,3.1,11.7-2.2l-13.2-2.1
		C268.3,114.3,267.1,124.7,251.3,141.3z"/>
	
		<linearGradient id="SVGID_13_" gradientUnits="userSpaceOnUse" x1="872.5997" y1="-842.6192" x2="892.1561" y2="-842.6192" gradientTransform="matrix(0.6929 -0.721 0.721 0.6929 286.9917 1322.1769)">
		<stop  offset="0" style="stop-color:#B1E0F4"/>
		<stop  offset="0.1384" style="stop-color:#C0E6F6"/>
		<stop  offset="0.5025" style="stop-color:#E2F4FB"/>
		<stop  offset="0.8028" style="stop-color:#F7FCFE"/>
		<stop  offset="1" style="stop-color:#FFFFFF"/>
	</linearGradient>
	<path class="st24" d="M301.9,114.8l0.5-8.3c0.5-8.8-7.2-15.7-15.8-14.3l-11.3,1.8v0c2.2,4.4,6.3,7.6,11.1,8.8l0.8,0.2l-5.3,0.9
		l0.3,1.3c1.5,5.3,6.4,9,11.9,8.8C296.5,113.8,299.2,114,301.9,114.8z"/>
</g>
<linearGradient id="SVGID_14_" gradientUnits="userSpaceOnUse" x1="422.7066" y1="12.5724" x2="478.5561" y2="12.5724" gradientTransform="matrix(0.9903 -0.1392 0.1392 0.9903 -45.4544 241.972)">
	<stop  offset="0" style="stop-color:#0F3D68"/>
	<stop  offset="1" style="stop-color:#27597D"/>
</linearGradient>
<path class="st25" d="M398.9,201.7l-21.4-8.2c-1.6-0.6-2.8-1.9-3.3-3.4v0c-1.2-3.7,1.6-7.5,5.5-7.3l32.7-1.2l17.3,3.3l-5,8
	C419.4,201.7,408.5,205.4,398.9,201.7z"/>
<g>
	<defs>
		<path id="SVGID_15_" d="M118.7,146.5l42.7,10.7c0.9,0.2,1.9,0.3,2.8,0.1l12.3-1.7c2.2-0.3,4-1.6,5-3.6v0c1.8-3.5,0.2-7.8-3.4-9.3
			l-13.6-5.5l-10.4-6.8l16.8-15.9c1.4-2.1,3.6-3.6,6.1-4.2l18.3-1.9l11.2,9.7c6.7,5.8,16.7,6.1,23.7,0.6l0.1-0.1l-25-29.5l-14.3-6.7
			l-6.4,0l-0.8-1.8c-0.7-1.4-1.9-2.6-3.3-3.3l-9.5-0.8l0,0c-1-1.3-2.3-2.2-3.8-2.7l-2.8-0.9c-2.4-0.8-5.1-0.7-7.4,0.3l-14.7,6.3
			c-2.7,1.6-26.4,26.7-26.4,26.7l-21.7,1.8l0.5,38.4L118.7,146.5z"/>
	</defs>
	<clipPath id="SVGID_16_">
		<use xlink:href="#SVGID_15_"  style="overflow:visible;"/>
	</clipPath>
	<path class="st26" d="M115.3,110.8c0,0-1-5.3,2.3-11.2"/>
	<line class="st26" x1="190.1" y1="80.1" x2="178.4" y2="84"/>
	<line class="st26" x1="173.9" y1="75.8" x2="166.2" y2="78.1"/>
</g>
<linearGradient id="SVGID_17_" gradientUnits="userSpaceOnUse" x1="380.3551" y1="-301.28" x2="399.2665" y2="-301.28" gradientTransform="matrix(0.7826 0.6225 0.6225 -0.7826 79.1879 -319.577)">
	<stop  offset="0" style="stop-color:#B1E0F4"/>
	<stop  offset="0.1384" style="stop-color:#C0E6F6"/>
	<stop  offset="0.5025" style="stop-color:#E2F4FB"/>
	<stop  offset="0.8028" style="stop-color:#F7FCFE"/>
	<stop  offset="1" style="stop-color:#FFFFFF"/>
</linearGradient>
<path class="st27" d="M205.8,145.3l1.6,7.9c1.6,8.3-4.9,16-13.3,15.8l-11-0.3v0c1.6-4.5,5-8.1,9.5-9.9l0.7-0.3l-5.2-0.1l0.2-1.2
	c0.7-5.3,5-9.4,10.3-10C200.7,146.9,203.2,146.4,205.8,145.3z"/>
<path class="st28" d="M219.2,170.5c0,0,19.8,19.7,50.1,5"/>
<path class="st28" d="M323.2,104.6c0,0,50.2-17.1,64.2,38.2"/>
<linearGradient id="SVGID_18_" gradientUnits="userSpaceOnUse" x1="493.5393" y1="-24.9699" x2="525.0165" y2="18.9325" gradientTransform="matrix(0.9903 -0.1392 0.1392 0.9903 -45.4544 241.972)">
	<stop  offset="0" style="stop-color:#B1E0F4"/>
	<stop  offset="1" style="stop-color:#E0F3FB"/>
</linearGradient>
<circle class="st29" cx="454.6" cy="164" r="31.1"/>
<ellipse transform="matrix(0.9903 -0.1392 0.1392 0.9903 -18.4059 64.8602)" class="st28" cx="454.6" cy="164" rx="38.3" ry="38.3"/>
<g>
	<g>
		<path class="st30" d="M446.8,171.7l5.9-7.3l-5.5-6.8c-0.3-0.4-0.5-0.8-0.5-1.3c0-1,0.7-1.7,1.7-1.7c0.7,0,1.2,0.3,1.6,0.8l5,6.6
			l4.9-6.4c0.4-0.6,0.9-1,1.7-1s1.6,0.6,1.6,1.6c0,0.5-0.2,0.9-0.5,1.3l-5.5,6.9l5.8,7.2c0.3,0.4,0.5,0.8,0.5,1.3
			c0,1-0.7,1.7-1.7,1.7c-0.7,0-1.2-0.3-1.6-0.8l-5.3-6.9l-5.2,6.8c-0.5,0.6-0.9,1-1.7,1c-0.8,0-1.6-0.6-1.6-1.6
			C446.3,172.6,446.5,172.2,446.8,171.7z"/>
	</g>
</g>
</svg>
