<?xml version="1.0" encoding="utf-8"?>
<!-- Generator: Adobe Illustrator 19.2.1, SVG Export Plug-In . SVG Version: 6.00 Build 0)  -->
<svg version="1.1" id="Layer_2" xmlns="http://www.w3.org/2000/svg" xmlns:xlink="http://www.w3.org/1999/xlink" x="0px" y="0px"
	 width="46px" height="46px" viewBox="0 0 46 46" style="enable-background:new 0 0 46 46;" xml:space="preserve">
<style type="text/css">
	.st0{opacity:0.12;fill:#439BC3;enable-background:new    ;}
	.st1{fill:#FFFFFF;enable-background:new    ;}
	.st2{fill:#113B58;}
	.st3{fill:#74CAC8;}
	.st4{fill:none;stroke:#113B58;stroke-width:1.5;stroke-linecap:round;}
	.st5{fill:none;stroke:#113B58;stroke-width:1.5;stroke-linecap:round;stroke-linejoin:round;}
	.st6{opacity:0.5517;fill:#74CAC8;enable-background:new    ;}
</style>
<path id="Path-3_7_" class="st0" d="M41.1,28.6c-3.1,11.6-8.9,14.7-17.5,9.5C10.6,30.2,6.5,18.8,14.7,18c3.5-0.3,18.2-7.1,23.8-3.1
	C42.1,17.5,41.8,22.9,41.1,28.6z"/>
<rect x="10.8" y="11.2" transform="matrix(1.106908e-010 1 -1 1.106908e-010 44.3686 -3.4235)" class="st1" width="26.2" height="18.6"/>
<path class="st0" d="M16,31V9.6c0-0.6,0.4-1,1-1h13.6c0.6,0,1,0.4,1,1V31c0,0.6-0.4,1-1,1H17C16.5,32,16,31.6,16,31z"/>
<g>
	<path class="st2" d="M15.9,35.1h-2c-0.4,0-0.8-0.3-0.8-0.8v-2h1.5v1.3h1.3V35.1z"/>
	<path class="st2" d="M13.9,30.5L13.9,30.5c-0.4,0-0.8-0.3-0.8-0.8v-2.2c0-0.4,0.3-0.8,0.7-0.8h0c0.4,0,0.7,0.3,0.7,0.8v2.2
		C14.6,30.2,14.3,30.5,13.9,30.5z M13.9,25L13.9,25c-0.4,0-0.8-0.3-0.8-0.8V22c0-0.4,0.3-0.8,0.7-0.8h0c0.4,0,0.7,0.3,0.7,0.8v2.2
		C14.6,24.6,14.3,25,13.9,25z M13.9,19.4L13.9,19.4c-0.4,0-0.8-0.3-0.8-0.8v-2.2c0-0.4,0.3-0.8,0.7-0.8h0c0.4,0,0.7,0.3,0.7,0.8v2.2
		C14.6,19.1,14.3,19.4,13.9,19.4z M13.9,13.9L13.9,13.9c-0.4,0-0.8-0.3-0.8-0.7V11c0-0.4,0.3-0.7,0.7-0.7h0c0.4,0,0.7,0.3,0.7,0.7
		v2.2C14.6,13.6,14.3,13.9,13.9,13.9z"/>
	<path class="st2" d="M14.6,8.4h-1.5v-2c0-0.4,0.3-0.8,0.8-0.8h2v1.5h-1.3V8.4z"/>
	<path class="st2" d="M28.9,7.1h-3.1c-0.4,0-0.8-0.3-0.8-0.7v0c0-0.4,0.3-0.7,0.8-0.7h3.1c0.4,0,0.7,0.3,0.7,0.7v0
		C29.6,6.8,29.3,7.1,28.9,7.1z M22,7.1h-3.1c-0.4,0-0.8-0.3-0.8-0.7v0c0-0.4,0.3-0.7,0.8-0.7H22c0.4,0,0.7,0.3,0.7,0.7v0
		C22.8,6.8,22.4,7.1,22,7.1z"/>
	<path class="st2" d="M34.6,8.4h-1.5V7.1h-1.3V5.6h2c0.4,0,0.8,0.3,0.8,0.8V8.4z"/>
	<path class="st2" d="M33.9,30.5L33.9,30.5c-0.4,0-0.8-0.3-0.8-0.8v-2.2c0-0.4,0.3-0.8,0.8-0.8l0,0c0.4,0,0.8,0.3,0.8,0.8v2.2
		C34.6,30.2,34.3,30.5,33.9,30.5z M33.9,25L33.9,25c-0.4,0-0.8-0.3-0.8-0.8V22c0-0.4,0.3-0.8,0.8-0.8l0,0c0.4,0,0.8,0.3,0.8,0.8v2.2
		C34.6,24.6,34.3,25,33.9,25z M33.9,19.4L33.9,19.4c-0.4,0-0.8-0.3-0.8-0.8v-2.2c0-0.4,0.3-0.8,0.8-0.8l0,0c0.4,0,0.8,0.3,0.8,0.8
		v2.2C34.6,19.1,34.3,19.4,33.9,19.4z M33.9,13.9L33.9,13.9c-0.4,0-0.8-0.3-0.8-0.7V11c0-0.4,0.3-0.7,0.8-0.7l0,0
		c0.4,0,0.8,0.3,0.8,0.7v2.2C34.6,13.6,34.3,13.9,33.9,13.9z"/>
	<path class="st2" d="M33.9,35.1h-2v-1.5h1.3v-1.3h1.5v2C34.6,34.8,34.3,35.1,33.9,35.1z"/>
	<path class="st2" d="M28.9,35.1h-3.1c-0.4,0-0.8-0.3-0.8-0.8l0,0c0-0.4,0.3-0.8,0.8-0.8h3.1c0.4,0,0.7,0.3,0.7,0.8l0,0
		C29.6,34.8,29.3,35.1,28.9,35.1z M22,35.1h-3.1c-0.4,0-0.8-0.3-0.8-0.8l0,0c0-0.4,0.3-0.8,0.8-0.8H22c0.4,0,0.7,0.3,0.7,0.8l0,0
		C22.8,34.8,22.4,35.1,22,35.1z"/>
</g>
<path class="st3" d="M7.6,38.7v-16c0-0.6,0.4-1,1-1h10c0.6,0,1,0.4,1,1v16c0,0.6-0.4,1-1,1h-10C8.1,39.7,7.6,39.2,7.6,38.7z"/>
<path class="st4" d="M7.6,38.7v-16c0-0.6,0.4-1,1-1h10c0.6,0,1,0.4,1,1v16c0,0.6-0.4,1-1,1h-10C8.1,39.7,7.6,39.2,7.6,38.7z"/>
<line class="st4" x1="21.4" y1="19" x2="28" y2="12.3"/>
<polyline class="st5" points="26.4,11.2 29.2,11.2 29.2,14 "/>
<polyline class="st5" points="23.8,19.4 21,19.4 21,16.5 "/>
<path id="Combined-Shape_8_" class="st6" d="M7.4,8.6v1.5c0,0.4-0.3,0.8-0.8,0.8c-0.4,0-0.8-0.3-0.8-0.8V8.6H4.4
	C4,8.6,3.6,8.2,3.6,7.8c0-0.4,0.3-0.8,0.8-0.8h1.6V5.6c0-0.4,0.3-0.8,0.8-0.8c0.4,0,0.8,0.3,0.8,0.8v1.5h1.4c0.4,0,0.8,0.3,0.8,0.8
	c0,0.4-0.3,0.8-0.8,0.8H7.4z"/>
<path id="Combined-Shape-Copy_7_" class="st6" d="M40.2,39.9v1.3c0,0.3-0.3,0.6-0.6,0.6c-0.3,0-0.6-0.3-0.6-0.6v-1.3h-1.3
	c-0.3,0-0.6-0.3-0.6-0.6c0-0.3,0.3-0.6,0.6-0.6H39v-1.2c0-0.3,0.3-0.6,0.6-0.6c0.3,0,0.6,0.3,0.6,0.6v1.2h1.2c0.3,0,0.6,0.3,0.6,0.6
	c0,0.3-0.3,0.6-0.6,0.6H40.2z"/>
<g>
	<circle class="st2" cx="15.9" cy="31.6" r="1"/>
	<line class="st4" x1="11.2" y1="26.1" x2="16.2" y2="26.1"/>
	<line class="st4" x1="11.2" y1="28.6" x2="16.2" y2="28.6"/>
</g>
</svg>
