<?xml version="1.0" encoding="utf-8"?>
<!-- Generator: Adobe Illustrator 19.2.1, SVG Export Plug-In . SVG Version: 6.00 Build 0)  -->
<svg version="1.1" id="Layer_1" xmlns="http://www.w3.org/2000/svg" xmlns:xlink="http://www.w3.org/1999/xlink" x="0px" y="0px"
	 width="32px" height="32px" viewBox="0 0 32 32" style="enable-background:new 0 0 32 32;" xml:space="preserve">
<style type="text/css">
	.st0{fill:none;stroke:#275A7D;stroke-width:1.4;}
	.st1{fill:#275A7D;stroke:#275A7D;stroke-width:0.4;}
	.st2{fill:#275A7D;stroke:#275A7D;stroke-width:0.6;}
	.st3{fill:#74CAC8;stroke:#74CAC8;stroke-width:0.3;}
	.st4{fill:#275A7D;}
	.st5{fill:none;stroke:#275A7D;stroke-width:1.4;stroke-linecap:round;stroke-linejoin:round;}
	.st6{fill:#74CAC8;stroke:#74CAC8;}
	.st7{fill:#275A7D;stroke:#275A7D;stroke-width:0.8;}
	.st8{fill:#74CAC8;stroke:#74CAC8;stroke-width:0.6;}
	.st9{fill:none;stroke:#275A7D;stroke-width:1.8;stroke-linecap:round;stroke-linejoin:round;}
	.st10{fill:#74CAC8;}
	.st11{fill:none;stroke:#74CAC8;stroke-width:1.3;stroke-linecap:round;stroke-linejoin:round;}
	.st12{fill:none;stroke:#275A7D;stroke-width:1.3;stroke-linecap:round;stroke-linejoin:round;}
	.st13{fill:#FFFFFF;}
	.st14{fill:none;stroke:#275A7D;stroke-width:1.1339;stroke-linecap:round;stroke-linejoin:round;}
	.st15{fill:#E2F1F9;}
	.st16{fill:none;stroke:#00ADE9;stroke-width:1.4;}
	.st17{fill:#00ADE9;stroke:#00ADE9;stroke-width:0.4;}
	.st18{fill:#3BA5D6;stroke:#00ADE9;stroke-width:0.6;}
	.st19{fill:#33CFB9;stroke:#33CFB9;stroke-width:0.3;}
	.st20{fill:#00ADE9;}
	.st21{fill:none;stroke:#00ADE9;stroke-width:1.4;stroke-linecap:round;stroke-linejoin:round;}
	.st22{fill:#33CFB9;stroke:#33CFB9;}
	.st23{fill:#33CFB9;}
	.st24{fill:none;stroke:#33CFB9;stroke-width:1.3;}
	.st25{fill:none;stroke:#33CFB9;stroke-width:1.3;stroke-linecap:round;}
	.st26{fill:#00ADE9;stroke:#00ADE9;stroke-width:0.8;}
	.st27{fill:#33CFB9;stroke:#33CFB9;stroke-width:0.6;}
	.st28{fill:none;stroke:#00ADE9;stroke-width:1.8;stroke-linecap:round;stroke-linejoin:round;}
	.st29{fill:none;stroke:#143B57;stroke-width:1.4;}
	.st30{fill:#143B57;stroke:#143B57;stroke-width:0.4;}
	.st31{fill:#3BA5D6;stroke:#143B57;stroke-width:0.6;}
	.st32{fill:#143B57;}
	.st33{fill:none;stroke:#143B57;stroke-width:1.4;stroke-linecap:round;stroke-linejoin:round;}
	.st34{fill:#143B57;stroke:#003366;stroke-width:0.4;}
	.st35{fill:none;stroke:#33CFB9;stroke-width:1.3;stroke-linecap:round;stroke-linejoin:round;}
	.st36{fill:#143B57;stroke:#143B57;stroke-width:0.8;}
	.st37{fill:none;stroke:#143B57;stroke-width:1.8;stroke-linecap:round;stroke-linejoin:round;}
	.st38{fill:none;stroke:#275A7D;stroke-width:1.7008;stroke-linecap:round;stroke-linejoin:round;}
	.st39{fill:none;stroke:#275A7D;stroke-width:1.3;}
	.st40{fill:none;stroke:#275A7D;stroke-width:1.3;stroke-linejoin:round;}
</style>
<g>
	<path class="st10" d="M19.8,18.5c0-1.1,0.9-2,2-2H23c0.6,0,1-0.4,1-1V8.3c0-1.1-0.9-2-2-2H10c-1.1,0-2,0.9-2,2v14c0,1.1,0.9,2,2,2
		h8.8c0.6,0,1-0.4,1-1V18.5z"/>
	<g id="add_3_" transform="translate(18.067542, 14.454034)">
		<path id="Path_23_" class="st7" d="M5.9,12.5C5.9,12.5,5.9,12.5,5.9,12.5C5.9,12.5,5.9,12.5,5.9,12.5c-0.9,0-1.5-0.7-1.5-1.5
			c0-0.2-0.2-0.3-0.3-0.3c-0.2,0-0.3,0.2-0.3,0.3c0,1.1,0.8,2,1.8,2.2v0.8c0,0.2,0.2,0.3,0.3,0.3s0.3-0.2,0.3-0.3v-0.8
			c1.1-0.2,1.9-1.2,1.8-2.3c-0.1-1.1-1-2-2.2-2c-0.8,0-1.5-0.7-1.5-1.5c0-0.8,0.7-1.5,1.5-1.5c0.8,0,1.5,0.7,1.5,1.5
			c0,0.2,0.2,0.3,0.3,0.3c0.2,0,0.3-0.2,0.3-0.3c0-1.1-0.8-2-1.8-2.2V4.4c0-0.2-0.2-0.3-0.3-0.3S5.6,4.2,5.6,4.4v0.7
			C4.5,5.3,3.7,6.3,3.7,7.5c0.1,1.1,1,2,2.2,2c0.8,0,1.5,0.7,1.5,1.5C7.4,11.8,6.8,12.5,5.9,12.5L5.9,12.5z"/>
	</g>
	<path class="st5" d="M17.4,27.3H10c-2.8,0-5-2.2-5-5v-14c0-2.8,2.2-5,5-5h12c2.8,0,5,2.2,5,5v8.5"/>
	<line class="st5" x1="10.7" y1="9.8" x2="21.1" y2="9.8"/>
	<line class="st5" x1="10.7" y1="13.8" x2="21.1" y2="13.8"/>
	<line class="st5" x1="10.7" y1="18.5" x2="17.4" y2="18.5"/>
</g>
</svg>
