<svg xmlns="http://www.w3.org/2000/svg" viewBox="0 0 23.6 23.6"><defs><style>.cls-1{fill:#74cac8;}.cls-2{fill:#275a7d;}.cls-3{fill:none;stroke:#275a7d;stroke-linecap:round;stroke-linejoin:round;stroke-width:1.6px;}</style></defs><title>cost</title><g id="Layer_2" data-name="Layer 2"><g id="Layer_1-2" data-name="Layer 1"><path class="cls-1" d="M18.55,11.8A6.78,6.78,0,1,1,16.7,7.16,6.75,6.75,0,0,1,18.55,11.8Z"/><path class="cls-2" d="M11.8,2.9a8.9,8.9,0,0,1,8.9,8.9,8.9,8.9,0,1,1-8.9-8.9m0-1.6a10.43,10.43,0,1,0,4.31.92A10.5,10.5,0,0,0,11.8,1.3Z"/><path class="cls-2" d="M9.42,14.35l.9-1.3a3.16,3.16,0,0,0,.79.51,2.13,2.13,0,0,0,.88.21.92.92,0,0,0,.51-.13.45.45,0,0,0,.22-.42c0-.14-.11-.27-.33-.4a8.5,8.5,0,0,0-.79-.38,7.81,7.81,0,0,1-.93-.44,2.39,2.39,0,0,1-.79-.7,1.67,1.67,0,0,1-.33-1,1.93,1.93,0,0,1,.52-1.36,2.34,2.34,0,0,1,1.34-.71V7.28h1.06v.89a3,3,0,0,1,1.79.76l-.72,1.39a3.08,3.08,0,0,0-.73-.44A2.22,2.22,0,0,0,12,9.71a1,1,0,0,0-.52.13.46.46,0,0,0-.22.41c0,.15.11.29.32.41a5.36,5.36,0,0,0,.79.37,9.53,9.53,0,0,1,.93.42,2.2,2.2,0,0,1,.8.69,1.67,1.67,0,0,1,.32,1,2,2,0,0,1-.52,1.39,2.32,2.32,0,0,1-1.43.73v.89H11.41V15.3A3.37,3.37,0,0,1,9.42,14.35Z"/><line class="cls-3" x1="11.8" y1="0.8" x2="11.8" y2="1.8"/><line class="cls-3" x1="11.8" y1="22.8" x2="11.8" y2="21.8"/><line class="cls-3" x1="22.8" y1="11.8" x2="21.8" y2="11.8"/><line class="cls-3" x1="0.8" y1="11.8" x2="1.8" y2="11.8"/><line class="cls-3" x1="19.58" y1="4.02" x2="18.87" y2="4.73"/><line class="cls-3" x1="4.02" y1="19.58" x2="4.73" y2="18.87"/><line class="cls-3" x1="19.58" y1="19.58" x2="18.87" y2="18.87"/><line class="cls-3" x1="4.02" y1="4.02" x2="4.73" y2="4.73"/><line class="cls-3" x1="16.01" y1="1.64" x2="15.63" y2="2.56"/><line class="cls-3" x1="7.59" y1="21.96" x2="7.97" y2="21.04"/><line class="cls-3" x1="21.96" y1="16.01" x2="21.04" y2="15.63"/><line class="cls-3" x1="1.64" y1="7.59" x2="2.56" y2="7.97"/><line class="cls-3" x1="21.96" y1="7.59" x2="21.04" y2="7.98"/><line class="cls-3" x1="1.64" y1="16.01" x2="2.56" y2="15.62"/><line class="cls-3" x1="16.01" y1="21.96" x2="15.62" y2="21.04"/><line class="cls-3" x1="7.59" y1="1.64" x2="7.98" y2="2.56"/></g></g></svg>