<?xml version="1.0" encoding="utf-8"?>
<!-- Generator: Adobe Illustrator 19.2.1, SVG Export Plug-In . SVG Version: 6.00 Build 0)  -->
<svg version="1.1" id="Layer_1" xmlns="http://www.w3.org/2000/svg" xmlns:xlink="http://www.w3.org/1999/xlink" x="0px" y="0px"
	 width="32px" height="32px" viewBox="0 0 32 32" style="enable-background:new 0 0 32 32;" xml:space="preserve">
<style type="text/css">
	.st0{fill:none;stroke:#275A7D;stroke-width:1.4;}
	.st1{fill:#275A7D;stroke:#275A7D;stroke-width:0.4;}
	.st2{fill:#275A7D;stroke:#275A7D;stroke-width:0.6;}
	.st3{fill:#74CAC8;stroke:#74CAC8;stroke-width:0.3;}
	.st4{fill:#275A7D;}
	.st5{fill:none;stroke:#275A7D;stroke-width:1.4;stroke-linecap:round;stroke-linejoin:round;}
	.st6{fill:#74CAC8;stroke:#74CAC8;}
	.st7{fill:#275A7D;stroke:#275A7D;stroke-width:0.8;}
	.st8{fill:#74CAC8;stroke:#74CAC8;stroke-width:0.6;}
	.st9{fill:none;stroke:#275A7D;stroke-width:1.8;stroke-linecap:round;stroke-linejoin:round;}
	.st10{fill:#74CAC8;}
	.st11{fill:none;stroke:#74CAC8;stroke-width:1.3;stroke-linecap:round;stroke-linejoin:round;}
	.st12{fill:none;stroke:#275A7D;stroke-width:1.3;stroke-linecap:round;stroke-linejoin:round;}
	.st13{fill:#FFFFFF;}
	.st14{fill:none;stroke:#275A7D;stroke-width:1.1339;stroke-linecap:round;stroke-linejoin:round;}
	.st15{fill:#E2F1F9;}
	.st16{fill:none;stroke:#00ADE9;stroke-width:1.4;}
	.st17{fill:#00ADE9;stroke:#00ADE9;stroke-width:0.4;}
	.st18{fill:#3BA5D6;stroke:#00ADE9;stroke-width:0.6;}
	.st19{fill:#33CFB9;stroke:#33CFB9;stroke-width:0.3;}
	.st20{fill:#00ADE9;}
	.st21{fill:none;stroke:#00ADE9;stroke-width:1.4;stroke-linecap:round;stroke-linejoin:round;}
	.st22{fill:#33CFB9;stroke:#33CFB9;}
	.st23{fill:#33CFB9;}
	.st24{fill:none;stroke:#33CFB9;stroke-width:1.3;}
	.st25{fill:none;stroke:#33CFB9;stroke-width:1.3;stroke-linecap:round;}
	.st26{fill:#00ADE9;stroke:#00ADE9;stroke-width:0.8;}
	.st27{fill:#33CFB9;stroke:#33CFB9;stroke-width:0.6;}
	.st28{fill:none;stroke:#00ADE9;stroke-width:1.8;stroke-linecap:round;stroke-linejoin:round;}
	.st29{fill:none;stroke:#143B57;stroke-width:1.4;}
	.st30{fill:#143B57;stroke:#143B57;stroke-width:0.4;}
	.st31{fill:#3BA5D6;stroke:#143B57;stroke-width:0.6;}
	.st32{fill:#143B57;}
	.st33{fill:none;stroke:#143B57;stroke-width:1.4;stroke-linecap:round;stroke-linejoin:round;}
	.st34{fill:#143B57;stroke:#003366;stroke-width:0.4;}
	.st35{fill:none;stroke:#33CFB9;stroke-width:1.3;stroke-linecap:round;stroke-linejoin:round;}
	.st36{fill:#143B57;stroke:#143B57;stroke-width:0.8;}
	.st37{fill:none;stroke:#143B57;stroke-width:1.8;stroke-linecap:round;stroke-linejoin:round;}
	.st38{fill:none;stroke:#275A7D;stroke-width:1.7008;stroke-linecap:round;stroke-linejoin:round;}
	.st39{fill:none;stroke:#275A7D;stroke-width:1.3;}
	.st40{fill:none;stroke:#275A7D;stroke-width:1.3;stroke-linejoin:round;}
</style>
<g>
	<path id="Rectangle_28_" class="st0" d="M4.5,10.3h20.9c1.9,0,3.4,1.5,3.4,3.5l0,0c0,1.9-1.5,3.5-3.4,3.5H4.5
		c-1.9,0-3.4-1.5-3.4-3.5l0,0C1.1,11.9,2.7,10.3,4.5,10.3z"/>
	<path id="Rectangle_27_" class="st0" d="M4.5,3.4h20.9c1.9,0,3.4,1.5,3.4,3.5l0,0c0,1.9-1.5,3.5-3.4,3.5H4.5
		c-1.9,0-3.4-1.5-3.4-3.5l0,0C1.1,5,2.7,3.4,4.5,3.4z"/>
	<path class="st10" d="M4.5,8.3c-0.8,0-1.4-0.7-1.4-1.5s0.6-1.5,1.4-1.5h20.9c0.8,0,1.4,0.7,1.4,1.5s-0.6,1.5-1.4,1.5H4.5z"/>
	<path class="st10" d="M4.5,15.3c-0.8,0-1.4-0.7-1.4-1.5s0.6-1.5,1.4-1.5h20.9c0.8,0,1.4,0.7,1.4,1.5s-0.6,1.5-1.4,1.5H4.5z"/>
	<path id="Path-Copy-2_22_" class="st1" d="M6.8,13.9c0-0.3-0.2-0.5-0.5-0.5H5.4c-0.3,0-0.5,0.2-0.5,0.5s0.2,0.5,0.5,0.5h0.9
		C6.6,14.4,6.8,14.2,6.8,13.9z"/>
	<path class="st5" d="M4.5,17.3c-1.9,0-3.4,1.5-3.4,3.5c0,1.9,1.5,3.5,3.4,3.5H20"/>
	<path id="Path-Copy-2_21_" class="st1" d="M6.8,7c0-0.3-0.2-0.5-0.5-0.5H5.4C5.1,6.4,4.9,6.6,4.9,7c0,0.3,0.2,0.5,0.5,0.5h0.9
		C6.6,7.5,6.8,7.3,6.8,7z"/>
	<path class="st10" d="M22.5,19.3h-18c-0.8,0-1.4,0.7-1.4,1.5s0.6,1.5,1.4,1.5h16.3C21.1,21.1,21.7,20.1,22.5,19.3z"/>
	<g>
		<circle class="st5" cx="26.8" cy="24.1" r="4.5"/>
		<line class="st39" x1="30.2" y1="20.9" x2="23.3" y2="27.9"/>
	</g>
	<path id="Path-Copy-2_23_" class="st1" d="M6.8,20.8c0-0.3-0.2-0.5-0.5-0.5H5.4c-0.3,0-0.5,0.2-0.5,0.5s0.2,0.5,0.5,0.5h0.9
		C6.6,21.3,6.8,21.1,6.8,20.8z"/>
</g>
</svg>
