<svg xmlns="http://www.w3.org/2000/svg" viewBox="0 0 25.7 25.5"><defs><style>.cls-1,.cls-4,.cls-5,.cls-6{fill:none;stroke:#fff;}.cls-1,.cls-6{stroke-linecap:round;}.cls-1,.cls-5,.cls-6{stroke-linejoin:round;}.cls-1{stroke-width:1.7px;}.cls-2{fill:#74cac8;opacity:0.46;}.cls-3{fill:#fff;}.cls-4,.cls-5,.cls-6{stroke-width:1.3px;}</style></defs><title>monitoring-light</title><g id="Layer_2" data-name="Layer 2"><g id="Layer_1-2" data-name="Layer 1"><circle class="cls-1" cx="11.35" cy="11.35" r="10.5"/><circle class="cls-2" cx="11.35" cy="11.35" r="7"/><path id="Combined-Shape" class="cls-3" d="M5.55,14.15a1.8,1.8,0,1,1,1.8-1.8A1.79,1.79,0,0,1,5.55,14.15Zm0-1.2a.6.6,0,1,0,0-1.2.65.65,0,0,0-.6.6A.58.58,0,0,0,5.55,13Z"/><path id="Combined-Shape-2" data-name="Combined-Shape" class="cls-3" d="M11.35,7.75A1.8,1.8,0,1,1,13.15,6,1.86,1.86,0,0,1,11.35,7.75Zm0-1.2A.65.65,0,0,0,12,6a.6.6,0,1,0-1.2,0A.58.58,0,0,0,11.35,6.55Z"/><path id="Combined-Shape-3" data-name="Combined-Shape" class="cls-3" d="M17.45,14.15a1.8,1.8,0,1,1,1.8-1.8A1.79,1.79,0,0,1,17.45,14.15Zm0-1.2a.6.6,0,1,0-.6-.6A.58.58,0,0,0,17.45,13Z"/><path id="Path-13" class="cls-4" d="M6.35,11.35l4-4.8"/><path id="Path-13-Copy" class="cls-5" d="M12.15,6.45l4.4,4.6"/><path id="Path-13-Copy-2" class="cls-6" d="M24,5l-5.8,6.4"/><line class="cls-1" x1="18.85" y1="18.65" x2="24.85" y2="24.65"/></g></g></svg>