<svg xmlns="http://www.w3.org/2000/svg" viewBox="0 0 22 22"><defs><style>.cls-1{fill:#74cac8;}.cls-2{fill:none;stroke:#275a7d;stroke-linecap:round;stroke-linejoin:round;stroke-width:1.6px;}.cls-3{fill:#275a7d;}</style></defs><title>monitoring</title><g id="Layer_2" data-name="Layer 2"><g id="Layer_1-2" data-name="Layer 1"><path class="cls-1" d="M11.21,6.85A3,3,0,1,1,9.44,4.11a2.88,2.88,0,0,1,.94.67A3,3,0,0,1,11.21,6.85Z"/><path class="cls-1" d="M17.21,14.85a3,3,0,1,1-1.77-2.74,2.88,2.88,0,0,1,.94.67A3,3,0,0,1,17.21,14.85Z"/><polyline class="cls-2" points="21 11 16.49 11 13.86 15.46 8.47 6.44 5.3 11 1 11"/><path class="cls-3" d="M11,1.6a9.49,9.49,0,0,1,3.86.82,9.65,9.65,0,0,1,3,2.11A9.4,9.4,0,1,1,11,1.6M11,0a11,11,0,1,0,4.51,1A10.77,10.77,0,0,0,11,0Z"/></g></g></svg>