<?xml version="1.0" encoding="utf-8"?>
<!-- Generator: Adobe Illustrator 19.2.1, SVG Export Plug-In . SVG Version: 6.00 Build 0)  -->
<svg version="1.1" id="Layer_1" xmlns="http://www.w3.org/2000/svg" xmlns:xlink="http://www.w3.org/1999/xlink" x="0px" y="0px"
	 width="32px" height="32px" viewBox="0 0 32 32" style="enable-background:new 0 0 32 32;" xml:space="preserve">
<style type="text/css">
	.st0{fill:none;stroke:#275A7D;stroke-width:1.4;}
	.st1{fill:#275A7D;stroke:#275A7D;stroke-width:0.4;}
	.st2{fill:#275A7D;stroke:#275A7D;stroke-width:0.6;}
	.st3{fill:#74CAC8;stroke:#74CAC8;stroke-width:0.3;}
	.st4{fill:#275A7D;}
	.st5{fill:none;stroke:#275A7D;stroke-width:1.4;stroke-linecap:round;stroke-linejoin:round;}
	.st6{fill:#74CAC8;stroke:#74CAC8;}
	.st7{fill:#275A7D;stroke:#275A7D;stroke-width:0.8;}
	.st8{fill:#74CAC8;stroke:#74CAC8;stroke-width:0.6;}
	.st9{fill:none;stroke:#275A7D;stroke-width:1.8;stroke-linecap:round;stroke-linejoin:round;}
	.st10{fill:#74CAC8;}
	.st11{fill:none;stroke:#74CAC8;stroke-width:1.3;stroke-linecap:round;stroke-linejoin:round;}
	.st12{fill:none;stroke:#275A7D;stroke-width:1.3;stroke-linecap:round;stroke-linejoin:round;}
	.st13{fill:#FFFFFF;}
	.st14{fill:none;stroke:#275A7D;stroke-width:1.1339;stroke-linecap:round;stroke-linejoin:round;}
	.st15{fill:#E2F1F9;}
	.st16{fill:none;stroke:#00ADE9;stroke-width:1.4;}
	.st17{fill:#00ADE9;stroke:#00ADE9;stroke-width:0.4;}
	.st18{fill:#3BA5D6;stroke:#00ADE9;stroke-width:0.6;}
	.st19{fill:#33CFB9;stroke:#33CFB9;stroke-width:0.3;}
	.st20{fill:#00ADE9;}
	.st21{fill:none;stroke:#00ADE9;stroke-width:1.4;stroke-linecap:round;stroke-linejoin:round;}
	.st22{fill:#33CFB9;stroke:#33CFB9;}
	.st23{fill:#33CFB9;}
	.st24{fill:none;stroke:#33CFB9;stroke-width:1.3;}
	.st25{fill:none;stroke:#33CFB9;stroke-width:1.3;stroke-linecap:round;}
	.st26{fill:#00ADE9;stroke:#00ADE9;stroke-width:0.8;}
	.st27{fill:#33CFB9;stroke:#33CFB9;stroke-width:0.6;}
	.st28{fill:none;stroke:#00ADE9;stroke-width:1.8;stroke-linecap:round;stroke-linejoin:round;}
	.st29{fill:none;stroke:#143B57;stroke-width:1.4;}
	.st30{fill:#143B57;stroke:#143B57;stroke-width:0.4;}
	.st31{fill:#3BA5D6;stroke:#143B57;stroke-width:0.6;}
	.st32{fill:#143B57;}
	.st33{fill:none;stroke:#143B57;stroke-width:1.4;stroke-linecap:round;stroke-linejoin:round;}
	.st34{fill:#143B57;stroke:#003366;stroke-width:0.4;}
	.st35{fill:none;stroke:#33CFB9;stroke-width:1.3;stroke-linecap:round;stroke-linejoin:round;}
	.st36{fill:#143B57;stroke:#143B57;stroke-width:0.8;}
	.st37{fill:none;stroke:#143B57;stroke-width:1.8;stroke-linecap:round;stroke-linejoin:round;}
	.st38{fill:none;stroke:#275A7D;stroke-width:1.7008;stroke-linecap:round;stroke-linejoin:round;}
	.st39{fill:none;stroke:#275A7D;stroke-width:1.3;}
	.st40{fill:none;stroke:#275A7D;stroke-width:1.3;stroke-linejoin:round;}
</style>
<g>
	<circle class="st38" cx="14.5" cy="14.6" r="10.5"/>
	<circle class="st10" cx="14.5" cy="14.6" r="7"/>
	<path id="Combined-Shape_101_" class="st4" d="M8.7,17.4c-1,0-1.8-0.8-1.8-1.8s0.8-1.8,1.8-1.8s1.8,0.8,1.8,1.8S9.7,17.4,8.7,17.4z
		 M8.7,16.2c0.3,0,0.6-0.3,0.6-0.6C9.3,15.3,9,15,8.7,15c-0.3,0-0.6,0.3-0.6,0.6C8.1,16,8.4,16.2,8.7,16.2z"/>
	<path id="Combined-Shape_100_" class="st4" d="M14.5,11c-1,0-1.8-0.8-1.8-1.8s0.8-1.8,1.8-1.8s1.8,0.8,1.8,1.8S15.4,11,14.5,11z
		 M14.5,9.8c0.3,0,0.6-0.3,0.6-0.6s-0.3-0.6-0.6-0.6c-0.3,0-0.6,0.3-0.6,0.6S14.1,9.8,14.5,9.8z"/>
	<path id="Combined-Shape_49_" class="st4" d="M20.6,17.4c-1,0-1.8-0.8-1.8-1.8s0.8-1.8,1.8-1.8s1.8,0.8,1.8,1.8
		S21.6,17.4,20.6,17.4z M20.6,16.2c0.3,0,0.6-0.3,0.6-0.6c0-0.3-0.3-0.6-0.6-0.6S20,15.3,20,15.6C20,16,20.3,16.2,20.6,16.2z"/>
	<path id="Path-13_3_" class="st39" d="M9.5,14.6l4-4.8"/>
	<path id="Path-13-Copy_3_" class="st40" d="M15.3,9.7l4.4,4.6"/>
	<path id="Path-13-Copy-2_3_" class="st12" d="M27.1,8.2l-5.8,6.4"/>
	<line class="st38" x1="22" y1="21.9" x2="28" y2="27.9"/>
</g>
</svg>
