<?xml version="1.0" encoding="utf-8"?>
<!-- Generator: Adobe Illustrator 19.2.1, SVG Export Plug-In . SVG Version: 6.00 Build 0)  -->
<svg version="1.1" id="Layer_1" xmlns="http://www.w3.org/2000/svg" xmlns:xlink="http://www.w3.org/1999/xlink" x="0px" y="0px"
	 width="32px" height="32px" viewBox="0 0 32 32" style="enable-background:new 0 0 32 32;" xml:space="preserve">
<style type="text/css">
	.st0{fill:none;stroke:#275A7D;stroke-width:1.4;}
	.st1{fill:#275A7D;stroke:#275A7D;stroke-width:0.4;}
	.st2{fill:#275A7D;stroke:#275A7D;stroke-width:0.6;}
	.st3{fill:#74CAC8;stroke:#74CAC8;stroke-width:0.3;}
	.st4{fill:#275A7D;}
	.st5{fill:none;stroke:#275A7D;stroke-width:1.4;stroke-linecap:round;stroke-linejoin:round;}
	.st6{fill:#74CAC8;stroke:#74CAC8;}
	.st7{fill:#275A7D;stroke:#275A7D;stroke-width:0.8;}
	.st8{fill:#74CAC8;stroke:#74CAC8;stroke-width:0.6;}
	.st9{fill:none;stroke:#275A7D;stroke-width:1.8;stroke-linecap:round;stroke-linejoin:round;}
	.st10{fill:#74CAC8;}
	.st11{fill:none;stroke:#74CAC8;stroke-width:1.3;stroke-linecap:round;stroke-linejoin:round;}
	.st12{fill:none;stroke:#275A7D;stroke-width:1.3;stroke-linecap:round;stroke-linejoin:round;}
	.st13{fill:#FFFFFF;}
	.st14{fill:none;stroke:#275A7D;stroke-width:1.1339;stroke-linecap:round;stroke-linejoin:round;}
	.st15{fill:#E2F1F9;}
	.st16{fill:none;stroke:#00ADE9;stroke-width:1.4;}
	.st17{fill:#00ADE9;stroke:#00ADE9;stroke-width:0.4;}
	.st18{fill:#3BA5D6;stroke:#00ADE9;stroke-width:0.6;}
	.st19{fill:#33CFB9;stroke:#33CFB9;stroke-width:0.3;}
	.st20{fill:#00ADE9;}
	.st21{fill:none;stroke:#00ADE9;stroke-width:1.4;stroke-linecap:round;stroke-linejoin:round;}
	.st22{fill:#33CFB9;stroke:#33CFB9;}
	.st23{fill:#33CFB9;}
	.st24{fill:none;stroke:#33CFB9;stroke-width:1.3;}
	.st25{fill:none;stroke:#33CFB9;stroke-width:1.3;stroke-linecap:round;}
	.st26{fill:#00ADE9;stroke:#00ADE9;stroke-width:0.8;}
	.st27{fill:#33CFB9;stroke:#33CFB9;stroke-width:0.6;}
	.st28{fill:none;stroke:#00ADE9;stroke-width:1.8;stroke-linecap:round;stroke-linejoin:round;}
	.st29{fill:none;stroke:#143B57;stroke-width:1.4;}
	.st30{fill:#143B57;stroke:#143B57;stroke-width:0.4;}
	.st31{fill:#3BA5D6;stroke:#143B57;stroke-width:0.6;}
	.st32{fill:#143B57;}
	.st33{fill:none;stroke:#143B57;stroke-width:1.4;stroke-linecap:round;stroke-linejoin:round;}
	.st34{fill:#143B57;stroke:#003366;stroke-width:0.4;}
	.st35{fill:none;stroke:#33CFB9;stroke-width:1.3;stroke-linecap:round;stroke-linejoin:round;}
	.st36{fill:#143B57;stroke:#143B57;stroke-width:0.8;}
	.st37{fill:none;stroke:#143B57;stroke-width:1.8;stroke-linecap:round;stroke-linejoin:round;}
	.st38{fill:none;stroke:#275A7D;stroke-width:1.7008;stroke-linecap:round;stroke-linejoin:round;}
	.st39{fill:none;stroke:#275A7D;stroke-width:1.3;}
	.st40{fill:none;stroke:#275A7D;stroke-width:1.3;stroke-linejoin:round;}
</style>
<g>
	<path id="Rectangle_2_" class="st0" d="M10.9,25c-1.4,0-2.5,1.2-2.5,2.6s1.1,2.6,2.5,2.6H26c1.4,0,2.5-1.2,2.5-2.6S27.4,25,26,25
		H10.9z"/>
	<path id="Path-Copy-2_28_" class="st1" d="M12.4,27.6c0-0.2-0.2-0.4-0.4-0.4h-0.7c-0.2,0-0.4,0.2-0.4,0.4c0,0.2,0.2,0.4,0.4,0.4H12
		C12.2,28.1,12.4,27.9,12.4,27.6z"/>
	<path id="Path_27_" class="st1" d="M26.2,27.6c0-0.2-0.2-0.4-0.4-0.4H14.4c-0.2,0-0.4,0.2-0.4,0.4c0,0.2,0.2,0.4,0.4,0.4h11.4
		C26,28.1,26.2,27.9,26.2,27.6z"/>
	<path id="Rectangle_1_" class="st0" d="M10.9,19.6c-1.4,0-2.5,1.2-2.5,2.6s1.1,2.6,2.5,2.6H26c1.4,0,2.5-1.2,2.5-2.6
		s-1.1-2.6-2.5-2.6H10.9z"/>
	<path id="Path-Copy-2_27_" class="st1" d="M12.4,22.3c0-0.2-0.2-0.4-0.4-0.4h-0.7c-0.2,0-0.4,0.2-0.4,0.4c0,0.2,0.2,0.4,0.4,0.4H12
		C12.2,22.7,12.4,22.5,12.4,22.3z"/>
	<path id="Path_26_" class="st1" d="M26.2,22.3c0-0.2-0.2-0.4-0.4-0.4H14.4c-0.2,0-0.4,0.2-0.4,0.4c0,0.2,0.2,0.4,0.4,0.4h11.4
		C26,22.7,26.2,22.5,26.2,22.3z"/>
	<path class="st5" d="M11.6,19.6h12.9c3.4,0,6.2-2.8,6.2-6.2S28,7.3,24.5,7.3c-0.3,0-0.6,0-0.8,0.1C22.4,3.1,17.9,1,13.5,2
		c-2.3,0.5-3.7,1.7-4.9,3.2"/>
	<path class="st10" d="M24.5,9.8c-0.2,0-0.3,0-0.4,0h-1.9c-0.1,0-0.3-0.1-0.3-0.2l-0.5-1.5c-0.7-2.3-2.9-3.9-5.6-3.9
		c-0.5,0-1.1,0.1-1.6,0.2c-1.6,0.4-2.6,1.2-3.6,2.4c0,0-0.1,0.1-0.1,0.2c1.9,1.3,3.1,3.5,3.1,5.9c0,1.6-0.5,3.1-1.4,4.3h12.5
		c2.1,0,3.7-1.6,3.7-3.7C28.2,11.5,26.6,9.8,24.5,9.8z"/>
	<circle class="st5" cx="6.3" cy="12.8" r="5"/>
	<polyline class="st12" points="6.3,10.1 6.3,12.8 8.7,12.8 	"/>
</g>
</svg>
