<?xml version="1.0" encoding="utf-8"?>
<!-- Generator: Adobe Illustrator 19.2.1, SVG Export Plug-In . SVG Version: 6.00 Build 0)  -->
<svg version="1.1" id="Layer_1" xmlns="http://www.w3.org/2000/svg" xmlns:xlink="http://www.w3.org/1999/xlink" x="0px" y="0px"
	 width="32px" height="32px" viewBox="0 0 32 32" style="enable-background:new 0 0 32 32;" xml:space="preserve">
<style type="text/css">
	.st0{fill:none;stroke:#275A7D;stroke-width:1.4;}
	.st1{fill:#275A7D;stroke:#275A7D;stroke-width:0.4;}
	.st2{fill:#275A7D;stroke:#275A7D;stroke-width:0.6;}
	.st3{fill:#74CAC8;stroke:#74CAC8;stroke-width:0.3;}
	.st4{fill:#275A7D;}
	.st5{fill:none;stroke:#275A7D;stroke-width:1.4;stroke-linecap:round;stroke-linejoin:round;}
	.st6{fill:#74CAC8;stroke:#74CAC8;}
	.st7{fill:#275A7D;stroke:#275A7D;stroke-width:0.8;}
	.st8{fill:#74CAC8;stroke:#74CAC8;stroke-width:0.6;}
	.st9{fill:none;stroke:#275A7D;stroke-width:1.8;stroke-linecap:round;stroke-linejoin:round;}
	.st10{fill:#74CAC8;}
	.st11{fill:none;stroke:#74CAC8;stroke-width:1.3;stroke-linecap:round;stroke-linejoin:round;}
	.st12{fill:none;stroke:#275A7D;stroke-width:1.3;stroke-linecap:round;stroke-linejoin:round;}
	.st13{fill:#FFFFFF;}
	.st14{fill:none;stroke:#275A7D;stroke-width:1.1339;stroke-linecap:round;stroke-linejoin:round;}
	.st15{fill:#E2F1F9;}
	.st16{fill:none;stroke:#00ADE9;stroke-width:1.4;}
	.st17{fill:#00ADE9;stroke:#00ADE9;stroke-width:0.4;}
	.st18{fill:#3BA5D6;stroke:#00ADE9;stroke-width:0.6;}
	.st19{fill:#33CFB9;stroke:#33CFB9;stroke-width:0.3;}
	.st20{fill:#00ADE9;}
	.st21{fill:none;stroke:#00ADE9;stroke-width:1.4;stroke-linecap:round;stroke-linejoin:round;}
	.st22{fill:#33CFB9;stroke:#33CFB9;}
	.st23{fill:#33CFB9;}
	.st24{fill:none;stroke:#33CFB9;stroke-width:1.3;}
	.st25{fill:none;stroke:#33CFB9;stroke-width:1.3;stroke-linecap:round;}
	.st26{fill:#00ADE9;stroke:#00ADE9;stroke-width:0.8;}
	.st27{fill:#33CFB9;stroke:#33CFB9;stroke-width:0.6;}
	.st28{fill:none;stroke:#00ADE9;stroke-width:1.8;stroke-linecap:round;stroke-linejoin:round;}
	.st29{fill:none;stroke:#143B57;stroke-width:1.4;}
	.st30{fill:#143B57;stroke:#143B57;stroke-width:0.4;}
	.st31{fill:#3BA5D6;stroke:#143B57;stroke-width:0.6;}
	.st32{fill:#143B57;}
	.st33{fill:none;stroke:#143B57;stroke-width:1.4;stroke-linecap:round;stroke-linejoin:round;}
	.st34{fill:#143B57;stroke:#003366;stroke-width:0.4;}
	.st35{fill:none;stroke:#33CFB9;stroke-width:1.3;stroke-linecap:round;stroke-linejoin:round;}
	.st36{fill:#143B57;stroke:#143B57;stroke-width:0.8;}
	.st37{fill:none;stroke:#143B57;stroke-width:1.8;stroke-linecap:round;stroke-linejoin:round;}
	.st38{fill:none;stroke:#275A7D;stroke-width:1.7008;stroke-linecap:round;stroke-linejoin:round;}
	.st39{fill:none;stroke:#275A7D;stroke-width:1.3;}
	.st40{fill:none;stroke:#275A7D;stroke-width:1.3;stroke-linejoin:round;}
</style>
<g>
	<polygon class="st10" points="25.5,21.5 13.1,21.5 13.2,18.8 10.7,18.7 10.7,6.7 25.5,6.7 	"/>
	<path class="st4" d="M27.4,24.9H25c-0.4,0-0.8-0.4-0.8-0.8s0.4-0.8,0.8-0.8h2.3v-2.2c0-0.4,0.4-0.8,0.8-0.8s0.8,0.4,0.8,0.8v2.3
		C28.9,24.2,28.3,24.9,27.4,24.9z M21,24.9h-4.9c-0.4,0-0.8-0.4-0.8-0.8s0.4-0.8,0.8-0.8H21c0.4,0,0.8,0.4,0.8,0.8
		S21.5,24.9,21,24.9z M28.1,17.7c-0.4,0-0.8-0.4-0.8-0.8v-5.5c0-0.4,0.4-0.8,0.8-0.8s0.8,0.4,0.8,0.8v5.5
		C28.9,17.3,28.6,17.7,28.1,17.7z M8.1,16.6c-0.4,0-0.8-0.4-0.8-0.8V11c0-0.4,0.4-0.8,0.8-0.8c0.4,0,0.8,0.4,0.8,0.8v4.8
		C8.9,16.3,8.6,16.6,8.1,16.6z M28.1,7.7c-0.4,0-0.8-0.4-0.8-0.8v-2h-1.7c-0.4,0-0.8-0.4-0.8-0.8s0.4-0.8,0.8-0.8h1.8
		c0.8,0,1.5,0.7,1.5,1.5v2.1C28.9,7.3,28.6,7.7,28.1,7.7z M27.4,4.9L27.4,4.9L27.4,4.9z M8.1,7.6c-0.4,0-0.8-0.4-0.8-0.8v-2
		c0-0.8,0.7-1.5,1.5-1.5h1.8c0.4,0,0.8,0.4,0.8,0.8s-0.4,0.8-0.8,0.8H8.9v2C8.9,7.3,8.6,7.6,8.1,7.6z M20.9,4.9h-5.3
		c-0.4,0-0.8-0.4-0.8-0.8s0.4-0.8,0.8-0.8h5.3c0.4,0,0.8,0.4,0.8,0.8S21.4,4.9,20.9,4.9z"/>
	<path id="Line-5_3_" class="st5" d="M12.9,19.1l8.4-8.5"/>
	<polyline id="Path-8_3_" class="st5" points="17.3,9.6 22.3,9.6 22.3,14.6 	"/>
	<rect x="3.1" y="18.7" class="st5" width="10.1" height="10.1"/>
</g>
</svg>
