<?xml version="1.0" encoding="utf-8"?>
<!-- Generator: Adobe Illustrator 19.2.1, SVG Export Plug-In . SVG Version: 6.00 Build 0)  -->
<svg version="1.1" id="Layer_1" xmlns="http://www.w3.org/2000/svg" xmlns:xlink="http://www.w3.org/1999/xlink" x="0px" y="0px"
	 width="650px" height="500px" viewBox="0 0 650 500" style="enable-background:new 0 0 650 500;" xml:space="preserve">
<style type="text/css">
	.st0{fill:#EDF4F8;}
	.st1{opacity:0.5;}
	.st2{fill:#A6C2D5;}
	.st3{fill:#275A7D;}
	.st4{fill:#FFFFFF;}
	.st5{fill:#E0E1E5;}
	.st6{fill:url(#SVGID_1_);}
	.st7{fill:#004C6C;}
	.st8{opacity:0.5;fill:url(#SVGID_2_);enable-background:new    ;}
	.st9{opacity:0.2;}
	.st10{fill:#CFD0D6;}
	.st11{fill:none;stroke:#DEEBF0;stroke-width:0.5;stroke-miterlimit:10;}
	.st12{fill:#E2F1F9;}
	.st13{fill:none;}
	.st14{fill:#74CAC8;}
	.st15{fill:url(#SVGID_3_);}
	.st16{fill:#C7EAE9;}
	.st17{fill:url(#SVGID_4_);}
	.st18{fill:#96CA4F;}
	.st19{fill:url(#SVGID_5_);}
	.st20{fill:none;stroke:#275A7D;stroke-miterlimit:10;}
	.st21{fill:#275A7D;stroke:#275A7D;stroke-miterlimit:10;}
	.st22{fill:#98E4FF;}
	.st23{fill:#56ADAF;}
	.st24{fill:#00ADE9;}
	.st25{fill:#88C8C7;}
	.st26{fill:#96E3E2;}
	.st27{fill:none;stroke:#FFFFFF;stroke-linecap:round;stroke-linejoin:round;}
	.st28{fill:none;stroke:#E0E1E5;stroke-width:2;stroke-linecap:round;stroke-miterlimit:10;}
	
		.st29{opacity:0.5;fill:none;stroke:#74CAC8;stroke-width:2;stroke-linecap:round;stroke-linejoin:round;stroke-miterlimit:10;enable-background:new    ;}
	.st30{opacity:0.2;fill:none;stroke:#00ADE9;stroke-width:2;stroke-linecap:round;stroke-miterlimit:10;enable-background:new    ;}
	.st31{opacity:0.5;fill:url(#SVGID_6_);enable-background:new    ;}
	.st32{fill:url(#SVGID_7_);}
	.st33{fill:url(#SVGID_8_);}
	.st34{fill:#CBB3A1;}
	.st35{fill:url(#SVGID_9_);}
	.st36{fill:url(#SVGID_10_);}
	.st37{fill:#007054;}
	.st38{fill:none;stroke:#8BC8E5;stroke-linecap:round;stroke-linejoin:round;stroke-miterlimit:10;}
	.st39{fill:url(#SVGID_11_);}
	.st40{fill:url(#SVGID_12_);}
	.st41{fill:url(#SVGID_13_);}
	.st42{fill:#BB917D;}
	.st43{fill:#D4B9AC;}
	.st44{fill:#1B75BB;}
	.st45{fill:url(#SVGID_14_);}
	.st46{fill:#E4D3CB;}
	.st47{fill:url(#SVGID_15_);}
	.st48{fill:#C9A797;}
	.st49{fill:#27597D;}
	.st50{fill:#127F6B;}
	.st51{fill:url(#SVGID_16_);}
	.st52{fill:url(#SVGID_17_);}
	.st53{fill:#ACDFDE;}
	.st54{fill:url(#SVGID_18_);}
	.st55{fill:#D8D8D8;}
	.st56{fill:#A4A1A1;}
	.st57{fill:url(#Path-5_2_);}
	.st58{fill:#8C6D5E;}
	.st59{fill:#143B57;}
	.st60{fill:none;stroke:#8C6D5E;stroke-width:0.4;stroke-linecap:round;stroke-linejoin:round;stroke-miterlimit:10;}
	.st61{fill:#007F6B;}
	.st62{fill:url(#SVGID_19_);}
	.st63{opacity:0.5;fill:url(#SVGID_20_);enable-background:new    ;}
	.st64{fill:#33CFB9;}
	.st65{opacity:0.4;fill:#0D645F;enable-background:new    ;}
	.st66{fill:url(#SVGID_21_);}
</style>
<g id="Layer_1_1_">
	<g>
		<g id="Rectangle-Copy-4_2_">
			
				<image style="overflow:visible;opacity:0.25;enable-background:new    ;" width="608" height="411" xlink:href="43EEB874.png"  transform="matrix(1 0 0 1 6 45)">
			</image>
			<g>
				<path class="st0" d="M42.2,68.3h535.2c3.4,0,6.2,2.8,6.2,6.2v340.8c0,1.7-1.3,3-3,3H39c-1.7,0-3-1.3-3-3V74.5
					C36,71.1,38.8,68.3,42.2,68.3z"/>
			</g>
		</g>
		<path id="Rectangle-2-Copy_2_" class="st0" d="M42.2,58h535.2c3.4,0,6.2,2.8,6.2,6.2v17.6H36V64.2C36,60.7,38.8,58,42.2,58z"/>
		<g class="st1">
			<circle id="Oval-3-Copy-3_2_" class="st2" cx="53.2" cy="68.9" r="3"/>
			<circle id="Oval-3-Copy-4_2_" class="st2" cx="66.5" cy="68.9" r="3"/>
			<circle id="Oval-3-Copy-5_2_" class="st2" cx="79.8" cy="68.9" r="3"/>
		</g>
		<rect id="Rectangle-3-Copy_2_" x="36" y="78.7" class="st3" width="547.6" height="31"/>
		<g>
			<path class="st4" d="M107.4,97.3L107.4,97.3c0-0.5,0.4-0.9,0.9-0.9s0.9,0.4,0.9,0.9l0,0c0,0.5-0.4,0.9-0.9,0.9
				C107.8,98.2,107.4,97.8,107.4,97.3 M109.1,97.3L109.1,97.3c0-0.4-0.3-0.7-0.7-0.7c-0.4,0-0.7,0.3-0.7,0.7l0,0
				c0,0.4,0.3,0.7,0.7,0.7C108.8,98,109.1,97.7,109.1,97.3 M108,96.8h0.4c0.2,0,0.4,0.1,0.4,0.3c0,0.1-0.1,0.2-0.2,0.3l0.2,0.3h-0.2
				l-0.2-0.3h-0.2v0.3H108V96.8z M108.4,97.2c0.1,0,0.2-0.1,0.2-0.1c0-0.1-0.1-0.1-0.2-0.1h-0.2v0.3h0.2V97.2z"/>
			<path class="st4" d="M53,92.5c0-0.2,0.2-0.3,0.3-0.3h0.1c0.1,0,0.2,0.1,0.3,0.2l2.1,3.2l2.1-3.2c0.1-0.1,0.2-0.2,0.3-0.2h0.1
				c0.2,0,0.3,0.2,0.3,0.3v5.4c0,0.2-0.2,0.3-0.3,0.3c-0.2,0-0.3-0.2-0.3-0.3v-4.4l-1.9,2.8c-0.1,0.1-0.2,0.2-0.3,0.2
				s-0.2-0.1-0.3-0.2l-1.9-2.8v4.4c0,0.2-0.1,0.3-0.3,0.3S53,98.1,53,97.9V92.5z"/>
			<path class="st4" d="M62.1,97.8v-5.3c0-0.2,0.2-0.3,0.3-0.3h3.7c0.2,0,0.3,0.1,0.3,0.3c0,0.2-0.1,0.3-0.3,0.3h-3.4v2h3
				c0.2,0,0.3,0.1,0.3,0.3c0,0.2-0.1,0.3-0.3,0.3h-3v2.1h3.4c0.2,0,0.3,0.1,0.3,0.3c0,0.2-0.1,0.3-0.3,0.3h-3.7
				C62.3,98.2,62.1,98,62.1,97.8"/>
			<path class="st4" d="M71.1,92.8h-1.7c-0.2,0-0.3-0.1-0.3-0.3c0-0.2,0.1-0.3,0.3-0.3h4.1c0.2,0,0.3,0.1,0.3,0.3
				c0,0.2-0.1,0.3-0.3,0.3h-1.7v5c0,0.2-0.2,0.3-0.3,0.3c-0.2,0-0.3-0.2-0.3-0.3L71.1,92.8L71.1,92.8z"/>
			<path class="st4" d="M76.7,92.6c0-0.2,0.2-0.3,0.3-0.3h2.2c0.7,0,1.3,0.2,1.7,0.6c0.3,0.3,0.5,0.7,0.5,1.2l0,0
				c0,1-0.7,1.5-1.6,1.7l1.5,1.9c0.1,0.1,0.1,0.2,0.1,0.2c0,0.2-0.2,0.3-0.3,0.3c-0.1,0-0.2-0.1-0.3-0.2l-1.7-2.2h-1.7v2
				c0,0.2-0.2,0.3-0.3,0.3c-0.2,0-0.3-0.2-0.3-0.3L76.7,92.6L76.7,92.6z M79.2,95.3c0.9,0,1.5-0.5,1.5-1.2l0,0
				c0-0.7-0.6-1.2-1.5-1.2h-1.8v2.4C77.4,95.3,79.2,95.3,79.2,95.3z"/>
			<path class="st4" d="M84.7,92.5c0-0.2,0.2-0.3,0.3-0.3c0.2,0,0.3,0.2,0.3,0.3v5.4c0,0.2-0.2,0.3-0.3,0.3c-0.2,0-0.3-0.2-0.3-0.3
				V92.5z"/>
			<path class="st4" d="M88.5,95.2L88.5,95.2c0-1.7,1.3-3.1,3-3.1c1,0,1.6,0.3,2.1,0.8c0.1,0.1,0.1,0.2,0.1,0.3
				c0,0.2-0.2,0.3-0.3,0.3c-0.1,0-0.2,0-0.2-0.1c-0.5-0.4-1-0.7-1.7-0.7c-1.3,0-2.3,1.1-2.3,2.4l0,0c0,1.4,1,2.5,2.3,2.5
				c0.7,0,1.3-0.3,1.8-0.7c0.1-0.1,0.1-0.1,0.2-0.1c0.2,0,0.3,0.2,0.3,0.3c0,0.1-0.1,0.2-0.1,0.2c-0.6,0.5-1.2,0.9-2.2,0.9
				C89.8,98.3,88.5,96.9,88.5,95.2"/>
			<path class="st4" d="M96.8,92.5c0-0.2,0.2-0.3,0.3-0.3c0.2,0,0.3,0.2,0.3,0.3v5h3.1c0.2,0,0.3,0.1,0.3,0.3c0,0.2-0.1,0.3-0.3,0.3
				h-3.4c-0.2,0-0.3-0.2-0.3-0.3V92.5z"/>
			<path class="st4" d="M104.5,95.8l-2.2-3.1c0-0.1-0.1-0.1-0.1-0.2c0-0.2,0.2-0.3,0.3-0.3c0.1,0,0.2,0.1,0.3,0.2l2,2.8l2-2.8
				c0.1-0.1,0.2-0.2,0.3-0.2c0.2,0,0.3,0.2,0.3,0.3c0,0.1-0.1,0.2-0.1,0.2l-2.2,3.1v2.1c0,0.2-0.2,0.3-0.3,0.3
				c-0.2,0-0.3-0.2-0.3-0.3L104.5,95.8L104.5,95.8z"/>
		</g>
	</g>
	<path id="Rectangle_15_" class="st4" d="M53,120.4h249.9c1.1,0,2,1,2,2.1v115.8c0,1.2-0.9,2.1-2,2.1H53c-1.1,0-2-1-2-2.1V122.5
		C51,121.4,51.9,120.4,53,120.4z"/>
	<g>
		<circle class="st5" cx="284.4" cy="130.5" r="1.4"/>
		<circle class="st5" cx="289.2" cy="130.5" r="1.4"/>
		<circle class="st5" cx="294.1" cy="130.5" r="1.4"/>
	</g>
	
		<linearGradient id="SVGID_1_" gradientUnits="userSpaceOnUse" x1="187.9" y1="-314.4146" x2="259.9243" y2="-314.4146" gradientTransform="matrix(1 0 0 1 0 469.09)">
		<stop  offset="0" style="stop-color:#E4ECEF;stop-opacity:0.5"/>
		<stop  offset="1" style="stop-color:#98E4FF"/>
	</linearGradient>
	<path class="st6" d="M259.3,126.5c-1.2-1.9-3.7-2.4-5.5-1.2L226.3,143c-4.1-3.3-9.2-5.3-14.9-5.3c-13,0-23.5,10.5-23.5,23.5
		s10.5,23.5,23.5,23.5s23.5-10.5,23.5-23.5c0-4.4-1.2-8.5-3.3-12.1l26.5-17.1C259.9,130.8,260.5,128.3,259.3,126.5z M211.4,179.7
		c-10.2,0-18.5-8.3-18.5-18.5s8.3-18.5,18.5-18.5s18.5,8.3,18.5,18.5S221.6,179.7,211.4,179.7z"/>
	<path class="st7" d="M193.5,36.1c0,0-2.6-3.3-0.4-6.5s4.7-5,4.8-10.6c0.1-5.5,5.4-10.4,10-9.5s9.5-4.4,15.2-0.3s6,8.4,8.7,16.6
		c2.8,8.2,10.8,6.5,13.3,14s2.8,8.3,3.1,12s4.5,2.9,5,6.3c0.5,3.4-1.4,5.3-1.4,5.3L193.5,36.1z"/>
	
		<linearGradient id="SVGID_2_" gradientUnits="userSpaceOnUse" x1="192.9" y1="-311.89" x2="229.9" y2="-311.89" gradientTransform="matrix(1 0 0 1 0 469.09)">
		<stop  offset="0" style="stop-color:#3DA5D5;stop-opacity:0.7"/>
		<stop  offset="3.924756e-002" style="stop-color:#3DA5D5;stop-opacity:0.6729"/>
		<stop  offset="0.7245" style="stop-color:#3DA5D5;stop-opacity:0.2"/>
	</linearGradient>
	<path class="st8" d="M211.4,175.7c-10.2,0-18.5-8.3-18.5-18.5s8.3-18.5,18.5-18.5s18.5,8.3,18.5,18.5S221.6,175.7,211.4,175.7z"/>
	<g class="st9">
		<path id="Rectangle_4_" class="st5" d="M53,124.4h249.9c1.1,0,2,1,2,2.1v115.8c0,1.2-0.9,2.1-2,2.1H53c-1.1,0-2-1-2-2.1V126.5
			C51,125.4,51.9,124.4,53,124.4z"/>
		<path id="Rectangle_3_" class="st5" d="M53,252.7h249.9c1.1,0,2,1.1,2,2.4v129.5c0,1.3-0.9,2.4-2,2.4H53c-1.1,0-2-1.1-2-2.4V255.1
			C51,253.8,51.9,252.7,53,252.7z"/>
		<path id="Rectangle_2_" class="st5" d="M316.1,124.4H566c1.1,0,2,1,2,2.1v115.8c0,1.2-0.9,2.1-2,2.1H316.1c-1.1,0-2-1-2-2.1V126.5
			C314.1,125.4,315,124.4,316.1,124.4z"/>
		<path id="Rectangle_1_" class="st5" d="M316.1,252.7H566c1.1,0,2,1.1,2,2.4v129.5c0,1.3-0.9,2.4-2,2.4H316.1c-1.1,0-2-1.1-2-2.4
			V255.1C314.1,253.8,315,252.7,316.1,252.7z"/>
	</g>
	<path id="Rectangle_16_" class="st4" d="M53,248.7h249.9c1.1,0,2,1.1,2,2.4v129.5c0,1.3-0.9,2.4-2,2.4H53c-1.1,0-2-1.1-2-2.4V251.1
		C51,249.8,51.9,248.7,53,248.7z"/>
	<path id="Rectangle_18_" class="st4" d="M316.1,120.4H566c1.1,0,2,1,2,2.1v115.8c0,1.2-0.9,2.1-2,2.1H316.1c-1.1,0-2-1-2-2.1V122.5
		C314.1,121.4,315,120.4,316.1,120.4z"/>
	<path id="Rectangle_17_" class="st4" d="M316.1,248.7H566c1.1,0,2,1.1,2,2.4v129.5c0,1.3-0.9,2.4-2,2.4H316.1c-1.1,0-2-1.1-2-2.4
		V251.1C314.1,249.8,315,248.7,316.1,248.7z"/>
	<g>
		<path class="st3" d="M99.5,140.9l-2.1-6l0,0c0.1,0.9,0.1,1.7,0.1,2.5v3.5h-1.1v-7.1H98l2,5.7l0,0l2-5.7h1.7v7.1h-1.1v-3.5
			c0-0.4,0-0.8,0-1.4s0-0.9,0-1l0,0l-2.1,6h-1V140.9z"/>
		<path class="st3" d="M110.3,138.2c0,0.9-0.2,1.6-0.7,2.1s-1.1,0.7-1.9,0.7c-0.5,0-1-0.1-1.3-0.3s-0.7-0.6-0.9-1s-0.3-0.9-0.3-1.5
			c0-0.9,0.2-1.6,0.7-2.1s1.1-0.7,1.9-0.7s1.4,0.3,1.9,0.8S110.3,137.3,110.3,138.2z M106.4,138.2c0,1.2,0.5,1.9,1.4,1.9
			s1.4-0.6,1.4-1.9c0-1.2-0.5-1.9-1.4-1.9c-0.5,0-0.8,0.2-1,0.5S106.4,137.6,106.4,138.2z"/>
		<path class="st3" d="M116.4,140.9h-1.2v-3.3c0-0.4-0.1-0.7-0.3-0.9s-0.4-0.3-0.8-0.3c-0.5,0-0.8,0.1-1.1,0.4s-0.3,0.8-0.3,1.4v2.7
			h-1.1v-5.4h0.9l0.2,0.7h0.1c0.2-0.3,0.4-0.5,0.7-0.6s0.6-0.2,1-0.2c1.3,0,1.9,0.7,1.9,2C116.4,137.4,116.4,140.9,116.4,140.9z"/>
		<path class="st3" d="M117.9,134.1c0-0.2,0.1-0.4,0.2-0.5s0.3-0.2,0.5-0.2s0.4,0.1,0.5,0.2s0.2,0.3,0.2,0.5s-0.1,0.3-0.2,0.5
			s-0.3,0.2-0.5,0.2s-0.4-0.1-0.5-0.2S117.9,134.2,117.9,134.1z M119.2,140.9H118v-5.4h1.1L119.2,140.9L119.2,140.9z"/>
		<path class="st3" d="M122.8,140.1c0.3,0,0.6,0,0.8-0.1v0.9c-0.1,0.1-0.3,0.1-0.5,0.1s-0.4,0.1-0.6,0.1c-1.1,0-1.6-0.6-1.6-1.7
			v-2.9h-0.7V136l0.8-0.4l0.4-1.1h0.7v1.2h1.5v0.9h-1.5v2.9c0,0.3,0.1,0.5,0.2,0.6S122.6,140.1,122.8,140.1z"/>
		<path class="st3" d="M129.5,138.2c0,0.9-0.2,1.6-0.7,2.1s-1.1,0.7-1.9,0.7c-0.5,0-1-0.1-1.3-0.3s-0.7-0.6-0.9-1s-0.3-0.9-0.3-1.5
			c0-0.9,0.2-1.6,0.7-2.1s1.1-0.7,1.9-0.7s1.4,0.3,1.9,0.8S129.5,137.3,129.5,138.2z M125.6,138.2c0,1.2,0.5,1.9,1.4,1.9
			s1.4-0.6,1.4-1.9c0-1.2-0.5-1.9-1.4-1.9c-0.5,0-0.8,0.2-1,0.5S125.6,137.6,125.6,138.2z"/>
		<path class="st3" d="M133.6,135.4c0.2,0,0.4,0,0.6,0l-0.1,1.1c-0.2,0-0.3-0.1-0.5-0.1c-0.5,0-0.8,0.1-1.1,0.4s-0.4,0.7-0.4,1.2
			v2.8H131v-5.4h0.9l0.2,1h0.1c0.2-0.3,0.4-0.6,0.7-0.8S133.2,135.4,133.6,135.4z"/>
		<path class="st3" d="M135.1,134.1c0-0.2,0.1-0.4,0.2-0.5s0.3-0.2,0.5-0.2s0.4,0.1,0.5,0.2s0.2,0.3,0.2,0.5s-0.1,0.3-0.2,0.5
			s-0.3,0.2-0.5,0.2s-0.4-0.1-0.5-0.2S135.1,134.2,135.1,134.1z M136.3,140.9h-1.1v-5.4h1.1V140.9z"/>
		<path class="st3" d="M142.7,140.9h-1.2v-3.3c0-0.4-0.1-0.7-0.3-0.9s-0.4-0.3-0.8-0.3c-0.5,0-0.8,0.1-1.1,0.4s-0.3,0.8-0.3,1.4v2.7
			h-1.1v-5.4h0.9l0.2,0.7h0.1c0.2-0.3,0.4-0.5,0.7-0.6s0.6-0.2,1-0.2c1.3,0,1.9,0.7,1.9,2L142.7,140.9L142.7,140.9z"/>
		<path class="st3" d="M148.8,135.5v0.6l-0.9,0.2c0.1,0.1,0.2,0.3,0.2,0.4s0.1,0.3,0.1,0.5c0,0.6-0.2,1-0.6,1.3s-0.9,0.5-1.6,0.5
			c-0.2,0-0.3,0-0.5,0c-0.2,0.2-0.4,0.3-0.4,0.5c0,0.1,0.1,0.2,0.2,0.3s0.3,0.1,0.6,0.1h0.9c0.6,0,1,0.1,1.4,0.4s0.5,0.6,0.5,1.1
			c0,0.6-0.3,1.1-0.8,1.4s-1.2,0.5-2.2,0.5c-0.7,0-1.3-0.1-1.7-0.4s-0.6-0.6-0.6-1.1c0-0.3,0.1-0.6,0.3-0.8s0.5-0.4,0.9-0.5
			c-0.2-0.1-0.3-0.2-0.4-0.3s-0.1-0.3-0.1-0.5s0.1-0.4,0.2-0.5s0.3-0.3,0.5-0.4c-0.3-0.1-0.5-0.3-0.7-0.6s-0.3-0.6-0.3-1
			c0-0.6,0.2-1,0.6-1.4s0.9-0.5,1.6-0.5c0.2,0,0.3,0,0.5,0s0.3,0,0.4,0.1L148.8,135.5L148.8,135.5z M144.6,141.7
			c0,0.2,0.1,0.4,0.3,0.6s0.5,0.2,0.9,0.2c0.6,0,1.1-0.1,1.4-0.3s0.5-0.4,0.5-0.7c0-0.2-0.1-0.4-0.3-0.5s-0.5-0.1-0.9-0.1h-0.9
			c-0.3,0-0.6,0.1-0.8,0.2S144.6,141.5,144.6,141.7z M145.1,137.2c0,0.3,0.1,0.6,0.3,0.8s0.4,0.3,0.7,0.3c0.7,0,1-0.4,1-1.1
			c0-0.4-0.1-0.6-0.2-0.8s-0.4-0.3-0.7-0.3s-0.6,0.1-0.8,0.3S145.1,136.9,145.1,137.2z"/>
	</g>
	<g>
		<circle class="st5" cx="284.4" cy="258.8" r="1.4"/>
		<circle class="st5" cx="289.2" cy="258.8" r="1.4"/>
		<circle class="st5" cx="294.1" cy="258.8" r="1.4"/>
	</g>
	<g>
		<path class="st3" d="M99.5,262.9c-0.7,0-1.2,0.2-1.6,0.7s-0.6,1.1-0.6,2s0.2,1.5,0.6,2s0.9,0.7,1.6,0.7c0.3,0,0.6,0,0.9-0.1
			s0.6-0.1,0.9-0.2v1c-0.6,0.2-1.2,0.3-1.9,0.3c-1,0-1.8-0.3-2.4-1c-0.6-0.6-0.8-1.5-0.8-2.7c0-0.7,0.1-1.4,0.4-1.9s0.7-1,1.2-1.3
			s1.1-0.4,1.8-0.4c0.7,0,1.4,0.2,2,0.5l-0.4,1c-0.2-0.1-0.5-0.2-0.8-0.3C100.1,263,99.8,262.9,99.5,262.9z"/>
		<path class="st3" d="M107.4,266.5c0,0.9-0.2,1.6-0.7,2.1s-1.1,0.7-1.9,0.7c-0.5,0-1-0.1-1.3-0.3c-0.4-0.2-0.7-0.6-0.9-1
			c-0.2-0.4-0.3-0.9-0.3-1.5c0-0.9,0.2-1.6,0.7-2.1c0.4-0.5,1.1-0.7,1.9-0.7s1.4,0.3,1.9,0.8S107.4,265.6,107.4,266.5z M103.5,266.5
			c0,1.2,0.5,1.9,1.4,1.9s1.4-0.6,1.4-1.9c0-1.2-0.5-1.9-1.4-1.9c-0.5,0-0.8,0.2-1,0.5C103.6,265.4,103.5,265.9,103.5,266.5z"/>
		<path class="st3" d="M112.4,267.6c0,0.5-0.2,0.9-0.6,1.2c-0.4,0.3-0.9,0.4-1.7,0.4c-0.7,0-1.3-0.1-1.7-0.3v-1
			c0.6,0.3,1.2,0.4,1.8,0.4c0.7,0,1.1-0.2,1.1-0.6c0-0.1,0-0.3-0.1-0.3c-0.1-0.1-0.2-0.2-0.4-0.3s-0.4-0.2-0.7-0.3
			c-0.6-0.2-1-0.5-1.3-0.7c-0.2-0.2-0.3-0.6-0.3-0.9c0-0.5,0.2-0.8,0.6-1.1c0.4-0.3,0.9-0.4,1.5-0.4s1.2,0.1,1.8,0.4L112,265
			c-0.6-0.2-1.1-0.4-1.5-0.4c-0.6,0-0.9,0.2-0.9,0.5c0,0.2,0.1,0.3,0.2,0.4s0.5,0.3,1,0.5c0.4,0.2,0.8,0.3,1,0.5
			c0.2,0.1,0.4,0.3,0.4,0.5C112.3,267.2,112.4,267.4,112.4,267.6z"/>
		<path class="st3" d="M115.6,268.3c0.3,0,0.6,0,0.8-0.1v0.9c-0.1,0.1-0.3,0.1-0.5,0.1s-0.4,0.1-0.6,0.1c-1.1,0-1.6-0.6-1.6-1.7
			v-2.9H113v-0.5l0.8-0.4l0.4-1.1h0.7v1.2h1.5v0.9h-1.5v2.9c0,0.3,0.1,0.5,0.2,0.6S115.4,268.3,115.6,268.3z"/>
	</g>
	<g>
		<circle class="st10" cx="89" cy="175.6" r="1.5"/>
		<circle class="st10" cx="89" cy="187" r="1.5"/>
		<circle class="st10" cx="89" cy="198.3" r="1.5"/>
		<circle class="st10" cx="89" cy="209.6" r="1.5"/>
	</g>
	<g>
		<circle class="st5" cx="136.2" cy="216.8" r="1.5"/>
		<circle class="st5" cx="118.1" cy="216.8" r="1.5"/>
		<circle class="st5" cx="99.9" cy="216.8" r="1.5"/>
		<circle class="st5" cx="208.9" cy="216.8" r="1.5"/>
		<circle class="st5" cx="190.7" cy="216.8" r="1.5"/>
		<circle class="st5" cx="172.6" cy="216.8" r="1.5"/>
		<circle class="st5" cx="154.4" cy="216.8" r="1.5"/>
		<circle class="st5" cx="281.5" cy="216.8" r="1.5"/>
		<circle class="st5" cx="263.4" cy="216.8" r="1.5"/>
		<circle class="st5" cx="245.2" cy="216.8" r="1.5"/>
		<circle class="st5" cx="227" cy="216.8" r="1.5"/>
	</g>
	<g>
		<line class="st11" x1="97.7" y1="209.6" x2="283" y2="209.6"/>
		<line class="st11" x1="97.7" y1="198.3" x2="283" y2="198.3"/>
		<line class="st11" x1="97.7" y1="187" x2="283" y2="187"/>
		<line class="st11" x1="97.7" y1="175.6" x2="283" y2="175.6"/>
	</g>
	<polygon class="st12" points="99.6,197.2 100.3,190.3 105.4,188.1 112.4,190.6 121.2,188.2 126.5,190.5 136.2,187.3 146,190.6 
		156.1,187.2 162.6,190.5 172.5,187.3 183.7,190.6 192.2,188.2 200.4,190.5 206.4,187.6 219.8,184.5 233.3,182.2 238.5,184.3 
		246.7,182.2 254.7,184.4 263.6,182.2 272.9,186.2 280.2,182.6 280.2,189.3 273.1,192.8 263.1,188.5 254.6,190.5 246.7,188.4 
		238.1,190.6 232.7,188.4 220.9,190.4 208.4,193.3 201,196.9 192.2,194.5 183.6,196.9 172.6,193.6 162.1,197 155.7,193.7 146,196.9 
		136.2,193.6 126.2,197 120.8,194.5 112.2,196.9 105.6,194.6 	"/>
	<polygon class="st12" points="99.6,207.6 100.3,200.8 105.4,198.6 112.4,201 121.2,198.6 126.5,200.9 136.2,197.7 146,201 
		156.1,197.6 162.6,200.9 172.5,197.7 183.7,201 192.2,198.7 200.4,201 206.4,198 219.8,194.9 233.3,192.7 238.5,194.7 246.7,192.7 
		254.7,194.8 263.6,192.6 272.9,196.7 280.2,193.1 280.2,199.8 273.1,203.3 263.1,198.9 254.6,201 246.7,198.9 238.1,201 
		232.7,198.9 220.9,200.8 208.4,203.7 201,207.4 192.2,204.9 183.6,207.3 172.6,204 162.1,207.4 155.7,204.1 146,207.3 136.2,204 
		126.2,207.4 120.8,204.9 112.2,207.3 105.6,205 	"/>
	<path class="st13" d="M155,314.5l-1.4-3.5c-4.3,1.3-7.7,5-8.3,9.8c-0.8,6.4,3.7,12.3,10.2,13.1c6.4,0.8,12.3-3.7,13.1-10.2
		c0.8-6.4-3.7-12.3-10.2-13.1c-0.3,0-0.6-0.1-0.9-0.1l-1.2,4.2L155,314.5z"/>
	<path class="st14" d="M191,326.6c0.6-4.5,0.2-8.8-0.8-12.9l-21.9,5.5c0.4,1.5,0.5,3,0.3,4.6c-0.8,6.4-6.7,11-13.1,10.2
		c-0.1,0-0.3-0.1-0.4-0.1l-7.6,21.4c1.7,0.5,3.4,0.8,5.2,1.1C171.4,358.7,188.6,345.4,191,326.6z"/>
	<path class="st12" d="M166.9,289.4l-6.6,21.6c3.1,0.9,5.7,3.1,7.1,5.9l22-5.8C185.9,300.8,177.7,292.6,166.9,289.4z"/>
	
		<linearGradient id="SVGID_3_" gradientUnits="userSpaceOnUse" x1="160.3631" y1="-165.94" x2="189.4631" y2="-165.94" gradientTransform="matrix(1 0 0 1 0 469.09)">
		<stop  offset="0" style="stop-color:#FFFFFF;stop-opacity:0"/>
		<stop  offset="1" style="stop-color:#98E4FF"/>
	</linearGradient>
	<path class="st15" d="M166.9,289.4l-6.6,21.6c3.1,0.9,5.7,3.1,7.1,5.9l22-5.8C185.9,300.8,177.7,292.6,166.9,289.4z"/>
	<path class="st5" d="M157.6,310.5l6.1-21.9c-0.8-0.2-1.6-0.3-2.4-0.4c-5.7-0.7-11.3,0-16.3,1.9l8.6,20.9
		C154.9,310.6,156.2,310.4,157.6,310.5z"/>
	<g>
		<circle class="st5" cx="547.5" cy="130.5" r="1.4"/>
		<circle class="st5" cx="552.3" cy="130.5" r="1.4"/>
		<circle class="st5" cx="557.1" cy="130.5" r="1.4"/>
	</g>
	<g>
		<circle class="st5" cx="547.5" cy="258.8" r="1.4"/>
		<circle class="st5" cx="552.3" cy="258.8" r="1.4"/>
		<circle class="st5" cx="557.1" cy="258.8" r="1.4"/>
	</g>
	<g>
		<path class="st3" d="M363.6,267.2c0,0.6-0.2,1.1-0.7,1.5s-1.1,0.5-1.9,0.5s-1.5-0.1-2-0.4v-1.1c0.3,0.2,0.7,0.3,1,0.4
			s0.7,0.1,1,0.1c0.5,0,0.8-0.1,1-0.3s0.3-0.4,0.3-0.7c0-0.3-0.1-0.5-0.3-0.7c-0.2-0.2-0.6-0.4-1.3-0.7c-0.7-0.3-1.1-0.6-1.4-0.9
			s-0.4-0.7-0.4-1.2c0-0.6,0.2-1.1,0.6-1.4s1-0.5,1.7-0.5s1.4,0.1,2,0.4l-0.4,1c-0.6-0.3-1.2-0.4-1.7-0.4c-0.4,0-0.7,0.1-0.9,0.2
			c-0.2,0.2-0.3,0.4-0.3,0.7c0,0.2,0,0.3,0.1,0.5s0.2,0.3,0.4,0.4c0.2,0.1,0.5,0.3,1,0.5s0.9,0.4,1.2,0.6c0.2,0.2,0.4,0.4,0.5,0.6
			C363.6,266.6,363.6,266.9,363.6,267.2z"/>
		<path class="st3" d="M364.8,262.3c0-0.2,0.1-0.4,0.2-0.5s0.3-0.2,0.5-0.2s0.4,0.1,0.5,0.2s0.2,0.3,0.2,0.5s-0.1,0.3-0.2,0.5
			s-0.3,0.2-0.5,0.2s-0.4-0.1-0.5-0.2S364.8,262.5,364.8,262.3z M366.1,269.2H365v-5.4h1.1V269.2z"/>
		<path class="st3" d="M371.3,269.2h-4.1v-0.7l2.7-3.8h-2.6v-0.9h3.9v0.8l-2.7,3.7h2.7v0.9H371.3z"/>
		<path class="st3" d="M372.4,262.3c0-0.2,0.1-0.4,0.2-0.5s0.3-0.2,0.5-0.2s0.4,0.1,0.5,0.2s0.2,0.3,0.2,0.5s-0.1,0.3-0.2,0.5
			s-0.3,0.2-0.5,0.2s-0.4-0.1-0.5-0.2S372.4,262.5,372.4,262.3z M373.6,269.2h-1.1v-5.4h1.1V269.2z"/>
		<path class="st3" d="M380,269.2h-1.2v-3.3c0-0.4-0.1-0.7-0.3-0.9c-0.2-0.2-0.4-0.3-0.8-0.3c-0.5,0-0.8,0.1-1.1,0.4
			c-0.2,0.3-0.3,0.8-0.3,1.4v2.7h-1.1v-5.4h0.9l0.2,0.7h0.1c0.2-0.3,0.4-0.5,0.7-0.6c0.3-0.1,0.6-0.2,1-0.2c1.3,0,1.9,0.7,1.9,2
			L380,269.2L380,269.2z"/>
		<path class="st3" d="M386.2,263.8v0.6l-0.9,0.2c0.1,0.1,0.2,0.3,0.2,0.4c0.1,0.2,0.1,0.3,0.1,0.5c0,0.6-0.2,1-0.6,1.3
			s-0.9,0.5-1.6,0.5c-0.2,0-0.3,0-0.5,0c-0.2,0.2-0.4,0.3-0.4,0.5c0,0.1,0.1,0.2,0.2,0.3c0.1,0.1,0.3,0.1,0.6,0.1h0.9
			c0.6,0,1,0.1,1.4,0.4c0.3,0.3,0.5,0.6,0.5,1.1c0,0.6-0.3,1.1-0.8,1.4s-1.2,0.5-2.2,0.5c-0.7,0-1.3-0.1-1.7-0.4
			c-0.4-0.3-0.6-0.6-0.6-1.1c0-0.3,0.1-0.6,0.3-0.8c0.2-0.2,0.5-0.4,0.9-0.5c-0.2-0.1-0.3-0.2-0.4-0.3c-0.1-0.1-0.1-0.3-0.1-0.5
			s0.1-0.4,0.2-0.5s0.3-0.3,0.5-0.4c-0.3-0.1-0.5-0.3-0.7-0.6c-0.2-0.3-0.3-0.6-0.3-1c0-0.6,0.2-1,0.6-1.4c0.4-0.3,0.9-0.5,1.6-0.5
			c0.2,0,0.3,0,0.5,0s0.3,0,0.4,0.1L386.2,263.8L386.2,263.8z M381.9,270c0,0.2,0.1,0.4,0.3,0.6c0.2,0.1,0.5,0.2,0.9,0.2
			c0.6,0,1.1-0.1,1.4-0.3c0.3-0.2,0.5-0.4,0.5-0.7c0-0.2-0.1-0.4-0.3-0.5c-0.2-0.1-0.5-0.1-0.9-0.1H383c-0.3,0-0.6,0.1-0.8,0.2
			C382,269.5,381.9,269.8,381.9,270z M382.4,265.5c0,0.3,0.1,0.6,0.3,0.8c0.2,0.2,0.4,0.3,0.7,0.3c0.7,0,1-0.4,1-1.1
			c0-0.4-0.1-0.6-0.2-0.8c-0.2-0.2-0.4-0.3-0.8-0.3c-0.3,0-0.6,0.1-0.8,0.3C382.5,264.9,382.4,265.2,382.4,265.5z"/>
	</g>
	<g>
		<g>
			<path class="st14" d="M337.5,295.9c-0.5,0-1,0.2-1.3,0.5c-0.3,0.4-0.5,0.9-0.5,1.5c0,0.7,0.2,1.2,0.5,1.5s0.7,0.5,1.3,0.5
				c0.3,0,0.7-0.1,1.2-0.2v0.5c-0.3,0.1-0.8,0.2-1.3,0.2c-0.7,0-1.3-0.2-1.7-0.7c-0.4-0.4-0.6-1.1-0.6-1.9c0-0.5,0.1-1,0.3-1.4
				c0.2-0.4,0.5-0.7,0.8-0.9c0.4-0.2,0.8-0.3,1.3-0.3s1,0.1,1.4,0.3l-0.2,0.5C338.3,296,337.9,295.9,337.5,295.9z"/>
			<path class="st14" d="M340.2,296.7v2.4c0,0.3,0.1,0.5,0.2,0.7s0.4,0.2,0.7,0.2c0.4,0,0.7-0.1,0.9-0.3c0.2-0.2,0.3-0.6,0.3-1v-2
				h0.6v3.7h-0.5l-0.1-0.5l0,0c-0.1,0.2-0.3,0.3-0.5,0.4s-0.4,0.1-0.7,0.1c-0.5,0-0.8-0.1-1-0.3c-0.2-0.2-0.3-0.6-0.3-1v-2.5
				L340.2,296.7L340.2,296.7z"/>
			<path class="st14" d="M345.7,296.6c0.2,0,0.3,0,0.4,0l-0.1,0.5c-0.2,0-0.3-0.1-0.4-0.1c-0.3,0-0.6,0.1-0.8,0.4
				c-0.2,0.2-0.3,0.6-0.3,0.9v2H344v-3.7h0.5l0.1,0.7l0,0c0.1-0.2,0.3-0.4,0.5-0.6C345.3,296.7,345.5,296.6,345.7,296.6z"/>
			<path class="st14" d="M348.6,296.6c0.2,0,0.3,0,0.4,0l-0.1,0.5c-0.2,0-0.3-0.1-0.4-0.1c-0.3,0-0.6,0.1-0.8,0.4
				c-0.2,0.2-0.3,0.6-0.3,0.9v2h-0.6v-3.7h0.5l0.1,0.7l0,0c0.1-0.2,0.3-0.4,0.5-0.6C348.1,296.7,348.3,296.6,348.6,296.6z"/>
			<path class="st14" d="M351.3,300.5c-0.6,0-1-0.2-1.3-0.5s-0.5-0.8-0.5-1.4s0.1-1.1,0.4-1.4c0.3-0.4,0.7-0.5,1.2-0.5
				s0.8,0.2,1.1,0.5s0.4,0.7,0.4,1.2v0.4H350c0,0.4,0.1,0.8,0.3,1c0.2,0.2,0.5,0.3,0.9,0.3s0.8-0.1,1.2-0.3v0.5
				c-0.2,0.1-0.4,0.1-0.6,0.2C351.8,300.5,351.5,300.5,351.3,300.5z M351.1,297.1c-0.3,0-0.5,0.1-0.7,0.3c-0.2,0.2-0.3,0.5-0.3,0.8
				h2c0-0.4-0.1-0.6-0.2-0.8S351.4,297.1,351.1,297.1z"/>
			<path class="st14" d="M356.2,300.4V298c0-0.3-0.1-0.5-0.2-0.7s-0.4-0.2-0.7-0.2c-0.4,0-0.7,0.1-0.9,0.3s-0.3,0.6-0.3,1v2h-0.6
				v-3.7h0.5l0.1,0.5l0,0c0.1-0.2,0.3-0.3,0.5-0.4s0.4-0.2,0.7-0.2c0.5,0,0.8,0.1,1,0.3s0.3,0.6,0.3,1v2.4h-0.4V300.4z"/>
			<path class="st14" d="M359.1,300c0.1,0,0.2,0,0.3,0c0.1,0,0.2,0,0.2,0v0.4c-0.1,0-0.2,0.1-0.3,0.1c-0.1,0-0.2,0-0.3,0
				c-0.7,0-1.1-0.4-1.1-1.1v-2.2h-0.5v-0.3l0.5-0.2l0.2-0.8h0.3v0.9h1.1v0.4h-1.1v2.2c0,0.2,0.1,0.4,0.2,0.5
				C358.8,300,359,300,359.1,300z"/>
			<path class="st14" d="M363.8,300.4h-0.6V296h-1.6v-0.5h3.7v0.5h-1.6v4.4H363.8z"/>
			<path class="st14" d="M365.5,296.7h0.6l0.8,2.1c0.2,0.5,0.3,0.8,0.3,1.1l0,0c0-0.1,0.1-0.3,0.2-0.6s0.4-1.1,0.9-2.6h0.6l-1.6,4.3
				c-0.2,0.4-0.3,0.7-0.6,0.9s-0.5,0.3-0.8,0.3c-0.2,0-0.3,0-0.5-0.1v-0.5c0.1,0,0.3,0,0.4,0c0.4,0,0.7-0.2,0.8-0.7l0.2-0.5
				L365.5,296.7z"/>
			<path class="st14" d="M371.4,300.5c-0.2,0-0.5,0-0.7-0.1s-0.4-0.2-0.5-0.4l0,0c0,0.2,0,0.4,0,0.6v1.5h-0.6v-5.4h0.5l0.1,0.5l0,0
				c0.1-0.2,0.3-0.4,0.5-0.4c0.2-0.1,0.4-0.1,0.7-0.1c0.5,0,0.9,0.2,1.2,0.5c0.3,0.3,0.4,0.8,0.4,1.4s-0.1,1.1-0.4,1.4
				S371.9,300.5,371.4,300.5z M371.3,297.1c-0.4,0-0.7,0.1-0.8,0.3c-0.2,0.2-0.3,0.5-0.3,1v0.1c0,0.5,0.1,0.9,0.3,1.1
				c0.2,0.2,0.5,0.3,0.8,0.3s0.6-0.1,0.8-0.4s0.3-0.6,0.3-1.1s-0.1-0.8-0.3-1.1C371.9,297.2,371.6,297.1,371.3,297.1z"/>
			<path class="st14" d="M375.5,300.5c-0.6,0-1-0.2-1.3-0.5s-0.5-0.8-0.5-1.4s0.1-1.1,0.4-1.4c0.3-0.4,0.7-0.5,1.2-0.5
				s0.8,0.2,1.1,0.5s0.4,0.7,0.4,1.2v0.4h-2.6c0,0.4,0.1,0.8,0.3,1c0.2,0.2,0.5,0.3,0.9,0.3s0.8-0.1,1.2-0.3v0.5
				c-0.2,0.1-0.4,0.1-0.6,0.2C376,300.5,375.7,300.5,375.5,300.5z M375.3,297.1c-0.3,0-0.5,0.1-0.7,0.3c-0.2,0.2-0.3,0.5-0.3,0.8h2
				c0-0.4-0.1-0.6-0.2-0.8S375.6,297.1,375.3,297.1z"/>
		</g>
	</g>
	<g>
		<path class="st10" d="M513,325h-0.5v-5.2c0-0.5,0-1,0.1-1.5c0,0-0.1,0.1-0.2,0.1s-0.6,0.4-1.5,1.2l-0.3-0.3l1.9-1.5h0.4L513,325
			L513,325z"/>
		<path class="st10" d="M520.4,325h-4.5v-0.4l1.9-2c0.5-0.6,0.9-1,1.1-1.3s0.4-0.6,0.5-0.8s0.2-0.5,0.2-0.8c0-0.4-0.1-0.8-0.4-1
			s-0.6-0.4-1.1-0.4c-0.6,0-1.2,0.2-1.7,0.6l-0.3-0.3c0.6-0.5,1.3-0.8,2-0.8c0.6,0,1.1,0.2,1.5,0.5s0.5,0.8,0.5,1.4
			c0,0.5-0.1,0.9-0.4,1.4c-0.2,0.4-0.7,1-1.3,1.6l-1.8,1.9l0,0h3.8V325z"/>
		<path class="st10" d="M526.2,321.4c0,1.3-0.2,2.2-0.6,2.8c-0.4,0.6-1,0.9-1.7,0.9s-1.3-0.3-1.7-0.9s-0.6-1.5-0.6-2.8
			c0-1.2,0.2-2.2,0.6-2.8c0.4-0.6,0.9-0.9,1.7-0.9s1.3,0.3,1.7,0.9C526,319.3,526.2,320.2,526.2,321.4z M522.2,321.4
			c0,1.1,0.1,1.9,0.4,2.5c0.3,0.5,0.7,0.8,1.3,0.8s1.1-0.3,1.3-0.8c0.3-0.5,0.4-1.4,0.4-2.4c0-1.1-0.1-1.9-0.4-2.4
			c-0.3-0.5-0.7-0.8-1.3-0.8s-1.1,0.3-1.3,0.8S522.2,320.3,522.2,321.4z"/>
		<path class="st10" d="M527.6,324.6c0-0.3,0.1-0.5,0.4-0.5c0.3,0,0.4,0.2,0.4,0.5s-0.1,0.5-0.4,0.5
			C527.7,325.1,527.6,324.9,527.6,324.6z"/>
		<path class="st10" d="M532.5,325H532v-5.2c0-0.5,0-1,0.1-1.5c0,0-0.1,0.1-0.2,0.1s-0.6,0.4-1.5,1.2l-0.3-0.3l1.9-1.5h0.4
			L532.5,325L532.5,325z"/>
	</g>
	<g>
		<path class="st10" d="M510.3,337.7c0-0.9,0.1-1.7,0.4-2.3c0.3-0.6,0.6-1.1,1.1-1.4s1-0.5,1.7-0.5c0.3,0,0.6,0,0.8,0.1v0.4
			c-0.2-0.1-0.5-0.1-0.9-0.1c-0.8,0-1.4,0.3-1.9,0.9c-0.4,0.6-0.7,1.4-0.8,2.5h0.1c0.2-0.3,0.5-0.6,0.8-0.7s0.7-0.2,1-0.2
			c0.7,0,1.2,0.2,1.6,0.6c0.4,0.4,0.6,0.9,0.6,1.6s-0.2,1.3-0.6,1.7c-0.4,0.4-0.9,0.6-1.6,0.6c-0.7,0-1.3-0.3-1.7-0.8
			C510.5,339.5,510.3,338.7,510.3,337.7z M512.6,340.4c0.5,0,0.9-0.2,1.2-0.5s0.4-0.8,0.4-1.4c0-0.5-0.1-1-0.4-1.3s-0.7-0.5-1.2-0.5
			c-0.3,0-0.6,0.1-0.9,0.2s-0.5,0.3-0.7,0.6c-0.2,0.2-0.3,0.5-0.3,0.7c0,0.4,0.1,0.7,0.2,1c0.2,0.3,0.4,0.6,0.7,0.8
			C512,340.3,512.3,340.4,512.6,340.4z"/>
		<path class="st10" d="M520.5,337.2c0,1.3-0.2,2.2-0.6,2.8c-0.4,0.6-1,0.9-1.7,0.9s-1.3-0.3-1.7-0.9s-0.6-1.5-0.6-2.8
			c0-1.2,0.2-2.2,0.6-2.8c0.4-0.6,0.9-0.9,1.7-0.9s1.3,0.3,1.7,0.9C520.3,335,520.5,336,520.5,337.2z M516.5,337.2
			c0,1.1,0.1,1.9,0.4,2.5c0.3,0.5,0.7,0.8,1.3,0.8s1.1-0.3,1.3-0.8c0.3-0.5,0.4-1.4,0.4-2.4c0-1.1-0.1-1.9-0.4-2.4
			c-0.3-0.5-0.7-0.8-1.3-0.8s-1.1,0.3-1.3,0.8S516.5,336.1,516.5,337.2z"/>
		<path class="st10" d="M521.9,340.4c0-0.3,0.1-0.5,0.4-0.5c0.3,0,0.4,0.2,0.4,0.5s-0.1,0.5-0.4,0.5
			C522,340.8,521.9,340.7,521.9,340.4z"/>
		<path class="st10" d="M526.1,336.4c0.8,0,1.4,0.2,1.8,0.6c0.4,0.4,0.7,0.9,0.7,1.5c0,0.7-0.2,1.3-0.7,1.7s-1.1,0.6-1.9,0.6
			c-0.4,0-0.7,0-1-0.1s-0.6-0.2-0.8-0.3v-0.5c0.4,0.2,0.7,0.3,0.9,0.4c0.3,0.1,0.6,0.1,0.9,0.1c0.6,0,1.1-0.2,1.5-0.5
			s0.6-0.8,0.6-1.3s-0.2-0.9-0.6-1.3s-0.9-0.5-1.5-0.5c-0.4,0-0.9,0.1-1.3,0.2l-0.3-0.2l0.3-3.3h3.4v0.5h-3l-0.2,2.5
			C525.4,336.5,525.8,336.4,526.1,336.4z"/>
		<path class="st10" d="M534.2,340.7h-4.5v-0.4l1.9-2c0.5-0.6,0.9-1,1.1-1.3s0.4-0.6,0.5-0.8s0.2-0.5,0.2-0.8c0-0.4-0.1-0.8-0.4-1
			s-0.6-0.4-1.1-0.4c-0.6,0-1.2,0.2-1.7,0.6l-0.3-0.3c0.6-0.5,1.3-0.8,2-0.8c0.6,0,1.1,0.2,1.5,0.5s0.5,0.8,0.5,1.4
			c0,0.5-0.1,0.9-0.4,1.4c-0.2,0.4-0.7,1-1.3,1.6l-1.8,1.9l0,0h3.8V340.7z"/>
	</g>
	<g>
		<g>
			<path class="st14" d="M437.8,297.6c0,0.5-0.2,0.9-0.5,1.2c-0.3,0.3-0.8,0.4-1.5,0.4h-0.6v2h-0.6v-5h1.3
				C437.2,296.1,437.8,296.6,437.8,297.6z M435.2,298.6h0.5c0.5,0,0.9-0.1,1.1-0.2c0.2-0.2,0.3-0.4,0.3-0.8c0-0.3-0.1-0.6-0.3-0.7
				c-0.2-0.2-0.6-0.2-1-0.2h-0.7v1.9L435.2,298.6L435.2,298.6z"/>
			<path class="st14" d="M440.5,297.3c0.2,0,0.3,0,0.4,0l-0.1,0.5c-0.2,0-0.3-0.1-0.4-0.1c-0.3,0-0.6,0.1-0.8,0.4
				c-0.2,0.2-0.3,0.6-0.3,0.9v2h-0.6v-3.7h0.5l0.1,0.7l0,0c0.1-0.2,0.3-0.4,0.5-0.6C440,297.4,440.3,297.3,440.5,297.3z"/>
			<path class="st14" d="M444.9,299.2c0,0.6-0.2,1.1-0.5,1.4s-0.7,0.5-1.3,0.5c-0.3,0-0.6-0.1-0.9-0.2c-0.3-0.2-0.5-0.4-0.6-0.7
				c-0.1-0.3-0.2-0.6-0.2-1c0-0.6,0.2-1.1,0.5-1.4s0.7-0.5,1.3-0.5c0.5,0,0.9,0.2,1.2,0.5C444.7,298.2,444.9,298.6,444.9,299.2z
				 M442,299.2c0,0.5,0.1,0.8,0.3,1.1c0.2,0.3,0.5,0.4,0.8,0.4s0.7-0.1,0.8-0.4c0.2-0.2,0.3-0.6,0.3-1.1s-0.1-0.8-0.3-1.1
				s-0.5-0.4-0.9-0.4s-0.7,0.1-0.8,0.4S442,298.7,442,299.2z"/>
			<path class="st14" d="M447.6,301.2c-0.2,0-0.5,0-0.7-0.1s-0.4-0.2-0.5-0.4l0,0c0,0.2,0,0.4,0,0.6v1.5h-0.6v-5.4h0.5l0.1,0.5l0,0
				c0.1-0.2,0.3-0.4,0.5-0.4c0.2-0.1,0.4-0.1,0.7-0.1c0.5,0,0.9,0.2,1.2,0.5c0.3,0.3,0.4,0.8,0.4,1.4s-0.1,1.1-0.4,1.4
				S448.1,301.2,447.6,301.2z M447.5,297.8c-0.4,0-0.7,0.1-0.8,0.3c-0.2,0.2-0.3,0.5-0.3,1v0.1c0,0.5,0.1,0.9,0.3,1.1
				c0.2,0.2,0.5,0.3,0.8,0.3s0.6-0.1,0.8-0.4s0.3-0.6,0.3-1.1s-0.1-0.8-0.3-1.1C448.1,297.9,447.9,297.8,447.5,297.8z"/>
			<path class="st14" d="M453.4,299.2c0,0.6-0.2,1.1-0.5,1.4s-0.7,0.5-1.3,0.5c-0.3,0-0.6-0.1-0.9-0.2c-0.3-0.2-0.5-0.4-0.6-0.7
				c-0.1-0.3-0.2-0.6-0.2-1c0-0.6,0.2-1.1,0.5-1.4s0.7-0.5,1.3-0.5c0.5,0,0.9,0.2,1.2,0.5C453.2,298.2,453.4,298.6,453.4,299.2z
				 M450.5,299.2c0,0.5,0.1,0.8,0.3,1.1c0.2,0.3,0.5,0.4,0.8,0.4s0.7-0.1,0.8-0.4c0.2-0.2,0.3-0.6,0.3-1.1s-0.1-0.8-0.3-1.1
				s-0.5-0.4-0.9-0.4s-0.7,0.1-0.8,0.4S450.5,298.7,450.5,299.2z"/>
			<path class="st14" d="M456.8,300.1c0,0.3-0.1,0.6-0.4,0.8c-0.3,0.2-0.6,0.3-1.1,0.3s-0.9-0.1-1.2-0.2v-0.5
				c0.2,0.1,0.4,0.2,0.6,0.2s0.4,0.1,0.6,0.1c0.3,0,0.5,0,0.7-0.1s0.2-0.2,0.2-0.4c0-0.1-0.1-0.3-0.2-0.4s-0.4-0.2-0.7-0.4
				c-0.3-0.1-0.6-0.2-0.7-0.3c-0.1-0.1-0.3-0.2-0.3-0.3c-0.1-0.1-0.1-0.3-0.1-0.4c0-0.3,0.1-0.5,0.4-0.7c0.2-0.2,0.6-0.3,1-0.3
				s0.8,0.1,1.2,0.2l-0.2,0.5c-0.4-0.2-0.7-0.2-1-0.2s-0.5,0-0.6,0.1s-0.2,0.2-0.2,0.3c0,0.1,0,0.2,0.1,0.3c0.1,0.1,0.1,0.1,0.2,0.2
				s0.3,0.2,0.7,0.3c0.4,0.2,0.7,0.3,0.9,0.5S456.8,299.8,456.8,300.1z"/>
			<path class="st14" d="M459.3,301.2c-0.6,0-1-0.2-1.3-0.5s-0.5-0.8-0.5-1.4s0.1-1.1,0.4-1.4c0.3-0.4,0.7-0.5,1.2-0.5
				s0.8,0.2,1.1,0.5s0.4,0.7,0.4,1.2v0.4H458c0,0.4,0.1,0.8,0.3,1c0.2,0.2,0.5,0.3,0.9,0.3s0.8-0.1,1.2-0.3v0.5
				c-0.2,0.1-0.4,0.1-0.6,0.2C459.8,301.2,459.6,301.2,459.3,301.2z M459.2,297.8c-0.3,0-0.5,0.1-0.7,0.3c-0.2,0.2-0.3,0.5-0.3,0.8
				h2c0-0.4-0.1-0.6-0.2-0.8S459.5,297.8,459.2,297.8z"/>
			<path class="st14" d="M464.2,300.6L464.2,300.6c-0.3,0.4-0.7,0.6-1.2,0.6s-0.9-0.2-1.1-0.5c-0.3-0.3-0.4-0.8-0.4-1.4
				s0.1-1.1,0.4-1.4s0.7-0.5,1.1-0.5c0.5,0,0.9,0.2,1.2,0.6l0,0v-0.3v-0.3v-1.5h0.6v5.3h-0.5L464.2,300.6z M463.1,300.7
				c0.4,0,0.7-0.1,0.8-0.3c0.2-0.2,0.3-0.6,0.3-1v-0.1c0-0.5-0.1-0.9-0.3-1.1s-0.5-0.3-0.8-0.3s-0.6,0.1-0.8,0.4s-0.3,0.6-0.3,1.1
				s0.1,0.8,0.3,1.1S462.7,300.7,463.1,300.7z"/>
			<path class="st14" d="M469.4,301.1h-0.6v-4.5h-1.6v-0.5h3.7v0.5h-1.6v4.5H469.4z"/>
			<path class="st14" d="M471,297.4h0.6l0.8,2.1c0.2,0.5,0.3,0.8,0.3,1.1l0,0c0-0.1,0.1-0.3,0.2-0.6s0.4-1.1,0.9-2.6h0.6l-1.6,4.3
				c-0.2,0.4-0.3,0.7-0.6,0.9s-0.5,0.3-0.8,0.3c-0.2,0-0.3,0-0.5-0.1v-0.5c0.1,0,0.3,0,0.4,0c0.4,0,0.7-0.2,0.8-0.7l0.2-0.5
				L471,297.4z"/>
			<path class="st14" d="M476.9,301.2c-0.2,0-0.5,0-0.7-0.1s-0.4-0.2-0.5-0.4l0,0c0,0.2,0,0.4,0,0.6v1.5h-0.6v-5.4h0.5l0.1,0.5l0,0
				c0.1-0.2,0.3-0.4,0.5-0.4c0.2-0.1,0.4-0.1,0.7-0.1c0.5,0,0.9,0.2,1.2,0.5c0.3,0.3,0.4,0.8,0.4,1.4s-0.1,1.1-0.4,1.4
				S477.4,301.2,476.9,301.2z M476.8,297.8c-0.4,0-0.7,0.1-0.8,0.3c-0.2,0.2-0.3,0.5-0.3,1v0.1c0,0.5,0.1,0.9,0.3,1.1
				c0.2,0.2,0.5,0.3,0.8,0.3s0.6-0.1,0.8-0.4s0.3-0.6,0.3-1.1s-0.1-0.8-0.3-1.1C477.4,297.9,477.2,297.8,476.8,297.8z"/>
			<path class="st14" d="M481,301.2c-0.6,0-1-0.2-1.3-0.5s-0.5-0.8-0.5-1.4s0.1-1.1,0.4-1.4c0.3-0.4,0.7-0.5,1.2-0.5
				s0.8,0.2,1.1,0.5s0.4,0.7,0.4,1.2v0.4h-2.6c0,0.4,0.1,0.8,0.3,1c0.2,0.2,0.5,0.3,0.9,0.3s0.8-0.1,1.2-0.3v0.5
				c-0.2,0.1-0.4,0.1-0.6,0.2C481.5,301.2,481.3,301.2,481,301.2z M480.9,297.8c-0.3,0-0.5,0.1-0.7,0.3c-0.2,0.2-0.3,0.5-0.3,0.8h2
				c0-0.4-0.1-0.6-0.2-0.8S481.2,297.8,480.9,297.8z"/>
		</g>
	</g>
	<g>
		<g>
			<path class="st14" d="M513.2,299.1c0,0.4-0.2,0.8-0.5,1s-0.8,0.4-1.3,0.4c-0.6,0-1-0.1-1.4-0.2v-0.6c0.2,0.1,0.4,0.2,0.7,0.2
				c0.2,0,0.5,0.1,0.7,0.1c0.4,0,0.7-0.1,0.9-0.2s0.3-0.4,0.3-0.6s0-0.3-0.1-0.4s-0.2-0.2-0.3-0.3c-0.2-0.1-0.4-0.2-0.7-0.3
				c-0.5-0.2-0.8-0.4-1-0.6s-0.3-0.5-0.3-0.9s0.1-0.7,0.4-0.9c0.3-0.2,0.7-0.3,1.1-0.3c0.5,0,1,0.1,1.4,0.3l-0.2,0.5
				c-0.4-0.2-0.8-0.3-1.2-0.3c-0.3,0-0.5,0.1-0.7,0.2s-0.3,0.3-0.3,0.6c0,0.2,0,0.3,0.1,0.4s0.2,0.2,0.3,0.3
				c0.2,0.1,0.4,0.2,0.7,0.3c0.5,0.2,0.9,0.4,1.1,0.6C513.1,298.5,513.2,298.8,513.2,299.1z"/>
			<path class="st14" d="M516.4,300.4l-0.1-0.5l0,0c-0.2,0.2-0.4,0.4-0.6,0.5s-0.4,0.1-0.7,0.1c-0.4,0-0.7-0.1-0.9-0.3
				s-0.3-0.5-0.3-0.8c0-0.8,0.6-1.2,1.8-1.2h0.6V298c0-0.3-0.1-0.5-0.2-0.7c-0.1-0.1-0.3-0.2-0.6-0.2s-0.7,0.1-1.1,0.3l-0.2-0.4
				c0.2-0.1,0.4-0.2,0.6-0.2c0.2-0.1,0.4-0.1,0.7-0.1c0.4,0,0.8,0.1,1,0.3c0.2,0.2,0.3,0.5,0.3,1v2.6h-0.3V300.4z M515.1,300
				c0.4,0,0.6-0.1,0.8-0.3c0.2-0.2,0.3-0.5,0.3-0.8v-0.3h-0.6c-0.5,0-0.8,0.1-1,0.2s-0.3,0.3-0.3,0.6c0,0.2,0.1,0.4,0.2,0.5
				S514.9,300,515.1,300z"/>
			<path class="st14" d="M518.8,300.4l-1.4-3.7h0.6l0.8,2.2c0.2,0.5,0.3,0.9,0.3,1l0,0c0-0.1,0.1-0.4,0.2-0.8
				c0.1-0.4,0.4-1.2,0.9-2.5h0.6l-1.4,3.7L518.8,300.4L518.8,300.4z"/>
			<path class="st14" d="M521.5,295.7c0-0.1,0-0.2,0.1-0.3s0.1-0.1,0.2-0.1c0.1,0,0.2,0,0.2,0.1c0.1,0.1,0.1,0.2,0.1,0.3
				c0,0.1,0,0.2-0.1,0.3c-0.1,0.1-0.1,0.1-0.2,0.1c-0.1,0-0.2,0-0.2-0.1S521.5,295.8,521.5,295.7z M522.1,300.4h-0.6v-3.7h0.6V300.4
				z"/>
			<path class="st14" d="M525.8,300.4V298c0-0.3-0.1-0.5-0.2-0.7c-0.1-0.2-0.4-0.2-0.7-0.2c-0.4,0-0.7,0.1-0.9,0.3s-0.3,0.6-0.3,1v2
				h-0.6v-3.7h0.5l0.1,0.5l0,0c0.1-0.2,0.3-0.3,0.5-0.4s0.4-0.2,0.7-0.2c0.5,0,0.8,0.1,1,0.3s0.3,0.6,0.3,1v2.4h-0.4L525.8,300.4
				L525.8,300.4z"/>
			<path class="st14" d="M530.6,296.7v0.4l-0.7,0.1c0.1,0.1,0.1,0.2,0.2,0.3s0.1,0.3,0.1,0.4c0,0.4-0.1,0.7-0.4,0.9s-0.6,0.3-1,0.3
				c-0.1,0-0.2,0-0.3,0c-0.2,0.1-0.4,0.3-0.4,0.5c0,0.1,0,0.2,0.1,0.2s0.2,0.1,0.4,0.1h0.7c0.4,0,0.7,0.1,0.9,0.3
				c0.2,0.2,0.3,0.4,0.3,0.7c0,0.4-0.2,0.7-0.5,0.9c-0.3,0.2-0.8,0.3-1.5,0.3c-0.5,0-0.9-0.1-1.1-0.3s-0.4-0.4-0.4-0.8
				c0-0.2,0.1-0.4,0.2-0.6c0.1-0.2,0.4-0.3,0.6-0.3c-0.1,0-0.2-0.1-0.2-0.2c-0.1-0.1-0.1-0.2-0.1-0.3c0-0.1,0-0.3,0.1-0.4
				s0.2-0.2,0.3-0.3c-0.2-0.1-0.4-0.2-0.5-0.4s-0.2-0.4-0.2-0.7c0-0.4,0.1-0.7,0.4-0.9c0.2-0.2,0.6-0.3,1-0.3c0.2,0,0.4,0,0.5,0.1
				L530.6,296.7L530.6,296.7z M527.7,301.1c0,0.2,0.1,0.4,0.3,0.5s0.4,0.2,0.7,0.2c0.5,0,0.8-0.1,1.1-0.2c0.2-0.1,0.3-0.3,0.3-0.6
				c0-0.2-0.1-0.3-0.2-0.4c-0.1-0.1-0.4-0.1-0.7-0.1h-0.7c-0.3,0-0.5,0.1-0.6,0.2S527.7,300.8,527.7,301.1z M528,297.9
				c0,0.3,0.1,0.5,0.2,0.6c0.1,0.1,0.4,0.2,0.6,0.2c0.6,0,0.8-0.3,0.8-0.8c0-0.6-0.3-0.8-0.8-0.8c-0.3,0-0.5,0.1-0.6,0.2
				S528,297.6,528,297.9z"/>
			<path class="st14" d="M533.8,299.4c0,0.3-0.1,0.6-0.4,0.8c-0.3,0.2-0.6,0.3-1.1,0.3s-0.9-0.1-1.2-0.2v-0.5
				c0.2,0.1,0.4,0.2,0.6,0.2s0.4,0.1,0.6,0.1c0.3,0,0.5,0,0.7-0.1s0.2-0.2,0.2-0.4c0-0.1-0.1-0.3-0.2-0.4c-0.1-0.1-0.4-0.2-0.7-0.4
				c-0.3-0.1-0.6-0.2-0.7-0.3c-0.1-0.1-0.3-0.2-0.3-0.3c-0.1-0.1-0.1-0.3-0.1-0.4c0-0.3,0.1-0.5,0.4-0.7c0.2-0.2,0.6-0.3,1-0.3
				s0.8,0.1,1.2,0.2l-0.2,0.5c-0.4-0.2-0.7-0.2-1-0.2s-0.5,0-0.6,0.1s-0.2,0.2-0.2,0.3c0,0.1,0,0.2,0.1,0.3c0.1,0.1,0.1,0.1,0.2,0.2
				c0.1,0.1,0.3,0.2,0.7,0.3c0.4,0.2,0.7,0.3,0.9,0.5S533.8,299.2,533.8,299.4z"/>
		</g>
	</g>
	<path class="st16" d="M370.3,328h-34c-0.6,0-1-0.4-1-1v-10c0-0.6,0.4-1,1-1h34c0.6,0,1,0.4,1,1v10C371.3,327.6,370.9,328,370.3,328
		z"/>
	<path class="st16" d="M380.3,343.8h-44c-0.6,0-1-0.4-1-1v-10c0-0.6,0.4-1,1-1h44c0.6,0,1,0.4,1,1v10
		C381.3,343.4,380.9,343.8,380.3,343.8z"/>
	<path class="st16" d="M363.6,360.9h-27.2c-0.6,0-1-0.4-1-1v-10c0-0.6,0.4-1,1-1h27.2c0.6,0,1,0.4,1,1v10
		C364.6,360.5,364.1,360.9,363.6,360.9z"/>
	
		<linearGradient id="SVGID_4_" gradientUnits="userSpaceOnUse" x1="434" y1="-147.09" x2="474.3" y2="-147.09" gradientTransform="matrix(1 0 0 1 0 469.09)">
		<stop  offset="0" style="stop-color:#96CA4F"/>
		<stop  offset="1" style="stop-color:#71983B"/>
	</linearGradient>
	<path class="st17" d="M473.2,328H435c-0.6,0-1-0.4-1-1v-10c0-0.6,0.4-1,1-1h38.3c0.6,0,1,0.4,1,1v10
		C474.2,327.6,473.8,328,473.2,328z"/>
	<path class="st18" d="M453.1,343.8H435c-0.6,0-1-0.4-1-1v-10c0-0.6,0.4-1,1-1h18.1c0.6,0,1,0.4,1,1v10
		C454.1,343.4,453.7,343.8,453.1,343.8z"/>
	
		<linearGradient id="SVGID_5_" gradientUnits="userSpaceOnUse" x1="438" y1="-114.19" x2="485.5" y2="-114.19" gradientTransform="matrix(1 0 0 1 0 469.09)">
		<stop  offset="0" style="stop-color:#96CA4F"/>
		<stop  offset="1" style="stop-color:#71983B"/>
	</linearGradient>
	<path class="st19" d="M484.5,360.9H439c-0.6,0-1-0.4-1-1v-10c0-0.6,0.4-1,1-1h45.5c0.6,0,1,0.4,1,1v10
		C485.5,360.5,485,360.9,484.5,360.9z"/>
	<path class="st14" d="M412.4,328h-15.6c-3.3,0-6-2.7-6-6l0,0c0-3.3,2.7-6,6-6h15.6c3.3,0,6,2.7,6,6l0,0
		C418.4,325.4,415.7,328,412.4,328z"/>
	<circle class="st3" cx="412.4" cy="322" r="5"/>
	<g>
		<g>
			<line class="st20" x1="393.1" y1="338.8" x2="405.3" y2="338.8"/>
			<g>
				<polygon class="st21" points="404.8,340.8 408.2,338.8 404.8,336.8 				"/>
			</g>
		</g>
	</g>
	<g>
		<g>
			<line class="st20" x1="393.1" y1="354.9" x2="405.3" y2="354.9"/>
			<g>
				<polygon class="st21" points="404.8,356.9 408.2,354.9 404.8,352.9 				"/>
			</g>
		</g>
	</g>
	<g>
		<path class="st10" d="M216.4,294.9c0,0.6-0.2,1-0.6,1.4c-0.4,0.4-1,0.6-1.7,0.7v1.5h-0.5V297c-0.4,0-0.8-0.1-1.3-0.1
			c-0.5-0.1-0.8-0.2-1.1-0.3V296c0.3,0.2,0.7,0.3,1.1,0.4s0.8,0.2,1.2,0.2v-3.2c-0.6-0.2-1.1-0.4-1.4-0.6c-0.3-0.2-0.5-0.4-0.6-0.7
			c-0.1-0.3-0.2-0.6-0.2-0.9c0-0.5,0.2-1,0.6-1.3s0.9-0.6,1.6-0.7V288h0.5v1.2c0.8,0,1.6,0.2,2.2,0.5l-0.2,0.6
			c-0.6-0.3-1.3-0.4-2-0.5v3.1c0.9,0.3,1.5,0.6,1.8,0.9S216.4,294.4,216.4,294.9z M212,291c0,0.4,0.1,0.7,0.4,0.9s0.6,0.4,1.2,0.6
			v-2.9c-0.5,0.1-0.9,0.2-1.1,0.5C212.1,290.4,212,290.7,212,291z M215.7,294.9c0-0.4-0.1-0.7-0.4-0.9s-0.7-0.4-1.3-0.6v3
			c0.5-0.1,0.9-0.2,1.2-0.5S215.7,295.3,215.7,294.9z"/>
		<path class="st10" d="M224.5,288.3c0.8,0,1.4,0.2,1.9,0.6s0.7,0.9,0.7,1.6c0,0.5-0.1,0.9-0.4,1.2c-0.3,0.4-0.8,0.7-1.4,1
			c0.8,0.3,1.4,0.7,1.7,1.1s0.5,0.9,0.5,1.4c0,0.8-0.3,1.4-0.8,1.8c-0.5,0.5-1.2,0.7-2.1,0.7c-0.9,0-1.6-0.2-2.1-0.6s-0.7-1-0.7-1.9
			c0-0.6,0.2-1,0.5-1.5c0.3-0.4,0.9-0.8,1.6-1.1c-0.7-0.3-1.2-0.7-1.4-1c-0.3-0.4-0.4-0.8-0.4-1.3c0-0.4,0.1-0.8,0.3-1.2
			c0.2-0.3,0.5-0.6,0.9-0.8C223.6,288.4,224.1,288.3,224.5,288.3z M222.3,295.4c0,0.6,0.2,1,0.6,1.4c0.4,0.3,0.9,0.5,1.6,0.5
			c0.7,0,1.2-0.2,1.7-0.5c0.4-0.3,0.6-0.8,0.6-1.4c0-0.5-0.2-0.9-0.5-1.3c-0.3-0.3-1-0.7-1.9-1c-0.8,0.3-1.3,0.6-1.6,1
			S222.3,294.8,222.3,295.4z M224.5,288.8c-0.6,0-1.1,0.1-1.4,0.4c-0.4,0.3-0.5,0.7-0.5,1.2c0,0.3,0.1,0.6,0.2,0.8
			c0.1,0.2,0.3,0.4,0.6,0.6s0.7,0.4,1.3,0.6c0.7-0.3,1.2-0.6,1.5-0.9s0.4-0.7,0.4-1.2s-0.2-0.9-0.5-1.2
			C225.6,289,225.1,288.8,224.5,288.8z"/>
		<path class="st10" d="M238.8,295.3h-1.6v2.4h-0.6v-2.4h-4.7v-0.4l4.6-6.5h0.8v6.4h1.6v0.5H238.8z M236.6,294.8v-2.6
			c0-1.3,0-2.3,0.1-3.2h-0.1c-0.1,0.2-0.3,0.6-0.8,1.2l-3.3,4.6H236.6z"/>
		<path class="st10" d="M242.4,292.1c1,0,1.8,0.2,2.3,0.7c0.6,0.5,0.8,1.1,0.8,2s-0.3,1.7-0.9,2.2c-0.6,0.5-1.4,0.8-2.4,0.8
			c-0.5,0-0.9,0-1.3-0.1c-0.4-0.1-0.8-0.2-1-0.4v-0.6c0.5,0.2,0.9,0.4,1.2,0.5c0.4,0.1,0.7,0.1,1.1,0.1c0.8,0,1.5-0.2,1.9-0.6
			c0.5-0.4,0.7-1,0.7-1.7s-0.2-1.2-0.7-1.6s-1.1-0.6-1.9-0.6c-0.5,0-1.1,0.1-1.7,0.2l-0.4-0.2l0.4-4.2h4.4v0.6h-3.8l-0.3,3.3
			C241.5,292.2,242,292.1,242.4,292.1z"/>
		<path class="st10" d="M250.7,297.7H250V291c0-0.6,0-1.2,0.1-1.9c-0.1,0.1-0.1,0.1-0.2,0.2c-0.1,0.1-0.7,0.6-1.9,1.5l-0.4-0.4
			l2.5-1.9h0.5L250.7,297.7L250.7,297.7z"/>
		<path class="st10" d="M254.8,297.2c0-0.4,0.2-0.6,0.5-0.6s0.5,0.2,0.5,0.6s-0.2,0.6-0.5,0.6C254.9,297.8,254.8,297.6,254.8,297.2z
			"/>
		<path class="st10" d="M260.2,292.1c1,0,1.8,0.2,2.3,0.7c0.6,0.5,0.8,1.1,0.8,2s-0.3,1.7-0.9,2.2s-1.4,0.8-2.4,0.8
			c-0.5,0-0.9,0-1.3-0.1s-0.8-0.2-1-0.4v-0.6c0.5,0.2,0.9,0.4,1.2,0.5c0.4,0.1,0.7,0.1,1.1,0.1c0.8,0,1.5-0.2,1.9-0.6
			c0.5-0.4,0.7-1,0.7-1.7s-0.2-1.2-0.7-1.6s-1.1-0.6-1.9-0.6c-0.5,0-1.1,0.1-1.7,0.2l-0.4-0.2l0.4-4.2h4.4v0.6h-3.8l-0.3,3.3
			C259.3,292.2,259.8,292.1,260.2,292.1z"/>
		<path class="st10" d="M271.4,295.3h-1.6v2.4h-0.6v-2.4h-4.7v-0.4l4.6-6.5h0.8v6.4h1.6L271.4,295.3L271.4,295.3z M269.2,294.8v-2.6
			c0-1.3,0-2.3,0.1-3.2h-0.1c-0.1,0.2-0.3,0.6-0.8,1.2l-3.3,4.6H269.2z"/>
	</g>
	<circle class="st22" cx="212.9" cy="313.5" r="1.5"/>
	<circle class="st23" cx="212.9" cy="324.9" r="1.5"/>
	<circle class="st24" cx="212.9" cy="336.2" r="1.5"/>
	<circle class="st25" cx="212.9" cy="347.5" r="1.5"/>
	<circle class="st26" cx="212.9" cy="358.6" r="1.5"/>
	<g>
		<g>
			<circle class="st14" cx="548.9" cy="176.8" r="5"/>
		</g>
		<g>
			<line class="st27" x1="550.7" y1="175.2" x2="547.1" y2="178.7"/>
			<line class="st27" x1="550.7" y1="178.7" x2="547.1" y2="175.2"/>
		</g>
	</g>
	<path class="st16" d="M534.9,184.6H337.6c-0.6,0-1-0.4-1-1V171c0-0.6,0.4-1,1-1h197.3c0.6,0,1,0.4,1,1v12.6
		C535.9,184.2,535.5,184.6,534.9,184.6z"/>
	<g>
		<g>
			<circle class="st14" cx="548.9" cy="196.7" r="5"/>
		</g>
		<g>
			<line class="st27" x1="550.7" y1="195.1" x2="547.1" y2="198.6"/>
			<line class="st27" x1="550.7" y1="198.6" x2="547.1" y2="195.1"/>
		</g>
	</g>
	<path class="st16" d="M534.9,204.5H337.6c-0.6,0-1-0.4-1-1v-12.6c0-0.6,0.4-1,1-1h197.3c0.6,0,1,0.4,1,1v12.6
		C535.9,204.1,535.5,204.5,534.9,204.5z"/>
	<g>
		<g>
			<circle class="st14" cx="548.9" cy="216.6" r="5"/>
		</g>
		<g>
			<line class="st27" x1="550.7" y1="214.9" x2="547.1" y2="218.5"/>
			<line class="st27" x1="550.7" y1="218.5" x2="547.1" y2="214.9"/>
		</g>
	</g>
	<path class="st16" d="M534.9,224.4H337.6c-0.6,0-1-0.4-1-1v-12.6c0-0.6,0.4-1,1-1h197.3c0.6,0,1,0.4,1,1v12.6
		C535.9,224,535.5,224.4,534.9,224.4z"/>
	<g>
		<line class="st28" x1="221.3" y1="325.2" x2="258.5" y2="325.2"/>
		<line class="st28" x1="221.3" y1="336.3" x2="258.5" y2="336.3"/>
		<line class="st28" x1="221.3" y1="347.5" x2="258.5" y2="347.5"/>
		<line class="st28" x1="221.3" y1="314" x2="258.5" y2="314"/>
		<line class="st28" x1="221.3" y1="358.6" x2="258.5" y2="358.6"/>
	</g>
	<g>
		<line class="st29" x1="344.7" y1="176.8" x2="365.5" y2="176.8"/>
		<line class="st30" x1="382.1" y1="176.8" x2="399.7" y2="176.8"/>
		<line class="st30" x1="412" y1="176.8" x2="420.3" y2="176.8"/>
		<line class="st30" x1="472.3" y1="176.8" x2="480.6" y2="176.8"/>
		<line class="st30" x1="431.4" y1="176.8" x2="452.3" y2="176.8"/>
		<line class="st30" x1="496.2" y1="176.8" x2="503.5" y2="176.8"/>
		<line class="st30" x1="512.4" y1="176.8" x2="524.1" y2="176.8"/>
	</g>
	<g>
		<line class="st29" x1="344.7" y1="197.2" x2="365.5" y2="197.2"/>
		<line class="st30" x1="382.1" y1="197.2" x2="399.7" y2="197.2"/>
		<line class="st30" x1="412" y1="197.2" x2="420.3" y2="197.2"/>
		<line class="st30" x1="472.3" y1="197.2" x2="480.6" y2="197.2"/>
		<line class="st30" x1="431.4" y1="197.2" x2="452.3" y2="197.2"/>
		<line class="st30" x1="496.2" y1="197.2" x2="503.5" y2="197.2"/>
		<line class="st30" x1="512.4" y1="197.2" x2="524.1" y2="197.2"/>
	</g>
	<g>
		<line class="st29" x1="344.7" y1="216.6" x2="365.5" y2="216.6"/>
		<line class="st30" x1="382.1" y1="216.6" x2="399.7" y2="216.6"/>
		<line class="st30" x1="412" y1="216.6" x2="420.3" y2="216.6"/>
		<line class="st30" x1="472.3" y1="216.6" x2="480.6" y2="216.6"/>
		<line class="st30" x1="431.4" y1="216.6" x2="452.3" y2="216.6"/>
		<line class="st30" x1="496.2" y1="216.6" x2="503.5" y2="216.6"/>
		<line class="st30" x1="512.4" y1="216.6" x2="524.1" y2="216.6"/>
	</g>
	<line class="st29" x1="340.1" y1="322" x2="353.3" y2="322"/>
	<line class="st29" x1="340.1" y1="338.5" x2="353.3" y2="338.5"/>
	<line class="st29" x1="340.1" y1="355.2" x2="353.3" y2="355.2"/>
	
		<linearGradient id="SVGID_6_" gradientUnits="userSpaceOnUse" x1="406.8805" y1="-98.74" x2="537.7642" y2="-98.74" gradientTransform="matrix(1 0 0 1 0 469.09)">
		<stop  offset="0" style="stop-color:#004C6C;stop-opacity:0.4"/>
		<stop  offset="0.155" style="stop-color:#034E6E;stop-opacity:0.338"/>
		<stop  offset="0.2901" style="stop-color:#0E5674;stop-opacity:0.284"/>
		<stop  offset="0.4177" style="stop-color:#20627E;stop-opacity:0.2329"/>
		<stop  offset="0.5409" style="stop-color:#39748D;stop-opacity:0.1837"/>
		<stop  offset="0.6608" style="stop-color:#5A8BA0;stop-opacity:0.1357"/>
		<stop  offset="0.7782" style="stop-color:#82A7B7;stop-opacity:8.871314e-002"/>
		<stop  offset="0.8915" style="stop-color:#B0C8D1;stop-opacity:4.341507e-002"/>
		<stop  offset="1" style="stop-color:#E4ECEF;stop-opacity:0"/>
	</linearGradient>
	<path class="st31" d="M407.1,325.4c0,0-0.7,2.1,0.4,4.1s3.7,5.8,3.3,7.7c-0.5,1.9-2.7,5.1,0.1,6.2c2.7,1.1,19.4,19.9,23.2,22.9
		c3.8,3,16.7,8.3,23.7,12.5s19.8,20.3,21.8,23.8s14.5,15.8,14.5,15.8l43.8,0.2l-61-84.9l-19-11.6c0,0-5.5,4.5-3.6,6s3.8,1.6,3.6,4.8
		c-0.2,3.2,2.5,3.6,5.1,4c2.5,0.3,3.8,4.5,4.5,6.6s7.7-1.4,8.5,0c0.7,1.4-16.5,16.7-16.5,16.7L407.1,325.4"/>
	
		<linearGradient id="SVGID_7_" gradientUnits="userSpaceOnUse" x1="44.1" y1="-89.94" x2="132.6161" y2="-89.94" gradientTransform="matrix(1 0 0 1 0 469.09)">
		<stop  offset="0" style="stop-color:#98E4FF;stop-opacity:0.5"/>
		<stop  offset="1" style="stop-color:#E4ECEF;stop-opacity:0.5"/>
	</linearGradient>
	<path class="st32" d="M103.5,360.9L84,343.8l-39.9,52.4l10.2,22h72.8c0,0,6.8-22,5.3-26.5s-13.5-2.6-13.5-2.6l-35-11l3.7-12.5
		c0,0,11.9,2.3,17.4,3.5c5.4,1.2,13.6-1.8,13.6-1.8l12.8-26.6l-5.6-0.6L103.5,360.9z"/>
	<path class="st16" d="M146.4,327.2l-21.4,7.4c3.4,8.8,10.4,16,19.5,19.5l8-21.2C149.7,331.9,147.6,329.8,146.4,327.2z"/>
	<g>
		<polygon class="st13" points="192.2,188.2 200.4,190.5 206.4,187.6 219.8,184.5 228.7,183 217.6,154.5 211.4,161.5 205.9,159 
			179,189.2 183.7,190.6 		"/>
		<polygon class="st13" points="263.1,188.5 254.6,190.5 246.7,188.4 238.1,190.6 232.7,188.4 232.4,188.5 233.4,190.2 238.4,192.2 
			246.7,190 254.7,192.2 263.4,190 273,194.2 280.2,190.7 280.2,189.3 273.1,192.8 		"/>
		<polygon class="st16" points="232.4,188.5 232.7,188.4 238.1,190.6 246.7,188.4 254.6,190.5 263.1,188.5 273.1,192.8 280.2,189.3 
			280.2,182.6 272.9,186.2 263.6,182.2 254.7,184.4 246.7,182.2 238.5,184.3 233.3,182.2 229.7,182.8 230.5,184.8 		"/>
		<polygon class="st16" points="228.7,183 219.8,184.5 206.4,187.6 200.4,190.5 192.2,188.2 183.7,190.6 179,189.2 174.6,194.2 
			183.6,196.9 192.2,194.5 201,196.9 208.4,193.3 220.9,190.4 231.4,188.6 229.6,185.2 		"/>
		<polygon class="st16" points="172.5,187.3 162.6,190.5 156.1,187.2 146,190.6 136.2,187.3 126.5,190.5 121.2,188.2 112.4,190.6 
			105.4,188.1 100.3,190.3 99.6,197.2 105.6,194.6 112.2,196.9 120.8,194.5 126.2,197 136.2,193.6 146,196.9 155.7,193.7 162.1,197 
			172.6,193.6 173.5,193.9 177.9,188.9 		"/>
		<polygon class="st16" points="272.9,196.7 263.6,192.6 254.7,194.8 246.7,192.7 238.5,194.7 233.3,192.7 219.8,194.9 206.4,198 
			200.4,201 192.2,198.7 183.7,201 172.5,197.7 162.6,200.9 156.1,197.6 146,201 136.2,197.7 126.5,200.9 121.2,198.6 112.4,201 
			105.4,198.6 100.3,200.8 99.6,207.6 105.6,205 112.2,207.3 120.8,204.9 126.2,207.4 136.2,204 146,207.3 155.7,204.1 162.1,207.4 
			172.6,204 183.6,207.3 192.2,204.9 201,207.4 208.4,203.7 220.9,200.8 232.7,198.9 238.1,201 246.7,198.9 254.6,201 263.1,198.9 
			273.1,203.3 280.2,199.8 280.2,193.1 		"/>
		<polygon class="st3" points="273,194.2 263.4,190 254.7,192.2 246.7,190 238.4,192.2 233.4,190.2 232.4,188.5 230.5,184.8 
			229.7,182.8 217.9,152.6 211.1,160.3 205.6,157.8 177.9,188.9 173.5,193.9 172.3,195.3 162.4,198.4 155.9,195.1 146,198.4 
			136.2,195.2 126.4,198.4 121,196 112.4,198.5 105.5,196 99.7,198.5 100.1,199.4 105.5,197.1 112.3,199.5 121,197.1 126.3,199.5 
			136.2,196.2 146,199.5 155.9,196.2 162.3,199.5 172.8,196.1 174.6,194.2 179,189.2 205.9,159 211.4,161.5 217.6,154.5 228.7,183 
			229.6,185.2 231.4,188.6 232.6,191 238.3,193.2 246.7,191.1 254.7,193.2 263.3,191.1 273,195.3 280.2,191.8 280.2,190.7 		"/>
	</g>
	
		<linearGradient id="SVGID_8_" gradientUnits="userSpaceOnUse" x1="187.9" y1="-318.4146" x2="259.9243" y2="-318.4146" gradientTransform="matrix(1 0 0 1 0 469.09)">
		<stop  offset="0" style="stop-color:#96CA4F"/>
		<stop  offset="1" style="stop-color:#71983B"/>
	</linearGradient>
	<path class="st33" d="M259.3,122.5c-1.2-1.9-3.7-2.4-5.5-1.2L226.3,139c-4.1-3.3-9.2-5.3-14.9-5.3c-13,0-23.5,10.5-23.5,23.5
		s10.5,23.5,23.5,23.5s23.5-10.5,23.5-23.5c0-4.4-1.2-8.5-3.3-12.1l26.5-17.1C259.9,126.8,260.5,124.3,259.3,122.5z M211.4,175.7
		c-10.2,0-18.5-8.3-18.5-18.5s8.3-18.5,18.5-18.5s18.5,8.3,18.5,18.5S221.6,175.7,211.4,175.7z"/>
	<g id="Layer_3">
		<polygon class="st34" points="143.8,458.5 135,443.1 131.5,452.4 136,460.8 		"/>
		
			<linearGradient id="SVGID_9_" gradientUnits="userSpaceOnUse" x1="161.2" y1="-381.54" x2="250.2" y2="-381.54" gradientTransform="matrix(1 0 0 1 0 469.09)">
			<stop  offset="0" style="stop-color:#E4ECEF;stop-opacity:0"/>
			<stop  offset="0.1085" style="stop-color:#B0C8D1;stop-opacity:4.341507e-002"/>
			<stop  offset="0.2218" style="stop-color:#82A7B7;stop-opacity:8.871315e-002"/>
			<stop  offset="0.3392" style="stop-color:#5A8BA0;stop-opacity:0.1357"/>
			<stop  offset="0.4591" style="stop-color:#39748D;stop-opacity:0.1837"/>
			<stop  offset="0.5823" style="stop-color:#20627E;stop-opacity:0.2329"/>
			<stop  offset="0.7099" style="stop-color:#0E5674;stop-opacity:0.284"/>
			<stop  offset="0.845" style="stop-color:#034E6E;stop-opacity:0.338"/>
			<stop  offset="1" style="stop-color:#004C6C;stop-opacity:0.4"/>
		</linearGradient>
		<path class="st35" d="M161.2,61.8c0,0,7.5,6.7,9.2,7.1c1.8,0.4,25,0.3,26.9-0.7s7.3-4.2,10.9-3.8c3.6,0.3,7.5,2.6,8.9,2.6
			s1.6-3.7,5.7-3.2c4.1,0.5,9.5,2,10.1,3.2s6.5,11.4,6.7,16.8c0.2,5.3-3.1,26.8-3,28.4c0.1,1.7,1.7,5.1,1.7,6.7s-2.3,8.4-2.3,8.4
			s9.3-5.9,9.3-10.5s4.9-46.9,4.9-46.9l-22.6-15.1l-49.8-7L161.2,61.8z"/>
		<path id="skeen2_2_" class="st34" d="M110.6,448.2c-0.2,2.8-0.2,4.7,0.2,5.9s1.1,2.4,2.4,3.5l-9.6-4.6c0.4-1.3,0.7-2.2,0.9-2.9
			c0.2-0.6,0.2-1.9,0.1-3.8L110.6,448.2z"/>
		<g>
			
				<linearGradient id="SVGID_10_" gradientUnits="userSpaceOnUse" x1="258.4874" y1="-219.1775" x2="285.5013" y2="-219.1775" gradientTransform="matrix(0.7121 -0.7021 0.7021 0.7121 107.8434 805.7771)">
				<stop  offset="0" style="stop-color:#3DA5D5"/>
				<stop  offset="1" style="stop-color:#1B75BB"/>
			</linearGradient>
			<polygon class="st36" points="135.8,460.1 137,466.1 138.8,469 162.4,454.5 159.3,452.4 145.8,457.4 142.3,456.1 			"/>
			<polygon class="st37" points="138.8,469 137,466.1 135.8,460.1 138.6,458.4 139,464.3 141.1,467.6 			"/>
			<polygon class="st26" points="138.8,469 141.9,469.5 163.1,456.3 162.4,454.5 			"/>
			<line class="st38" x1="147.3" y1="459.1" x2="147.9" y2="456.6"/>
			<line class="st38" x1="149.7" y1="458.1" x2="150.3" y2="455.5"/>
			<line class="st38" x1="152.7" y1="456.8" x2="153.3" y2="454.3"/>
		</g>
		<g>
			<path class="st26" d="M121.2,470.2l0.3,1.6c0,0-2.5,2.8-6.7,1.9c0,0-1.6-0.5-3.9-3.1s-9-9.5-9-9.5l-0.3-3.3L121.2,470.2z"/>
			
				<linearGradient id="SVGID_11_" gradientUnits="userSpaceOnUse" x1="101.6308" y1="-7.1949" x2="121.2076" y2="-7.1949" gradientTransform="matrix(1 0 0 1 0 469.09)">
				<stop  offset="0" style="stop-color:#3DA5D5"/>
				<stop  offset="1" style="stop-color:#1B75BB"/>
			</linearGradient>
			<path class="st39" d="M102.1,453.5l-0.5,4.3l6.7,6.4l6.4,7.8c0,0,3.7,0.7,6.5-1.8l-7.7-12.3l-3.4-6.2L102.1,453.5z"/>
			<path class="st37" d="M102.1,453.5l-0.5,4.3l2,1.7c0,0,4,4.2,4.7,4.7s-0.1-3.5-1.7-5.1s-3.3-5.7-3.3-5.7L102.1,453.5z"/>
			<line class="st38" x1="109.6" y1="459.9" x2="113.6" y2="458.9"/>
			<line class="st38" x1="111.1" y1="462.5" x2="115.2" y2="461.4"/>
		</g>
		
			<linearGradient id="SVGID_12_" gradientUnits="userSpaceOnUse" x1="69.437" y1="-52.34" x2="128.4189" y2="-52.34" gradientTransform="matrix(1 0 0 1 0 469.09)">
			<stop  offset="0" style="stop-color:#275A7D"/>
			<stop  offset="1" style="stop-color:#00A98F"/>
		</linearGradient>
		<path class="st40" d="M84.4,382.2l37.7,3.4c1.7,0.2,3.2,1,4.2,2.4l1,1.4c1,1.4,1.3,3.1,0.9,4.7l-15.1,57.2l-11-1.2l6.4-45.7
			l-26.3-1l-12.9-13.6L84.4,382.2z"/>
		
			<linearGradient id="SVGID_13_" gradientUnits="userSpaceOnUse" x1="90.7125" y1="-33.7535" x2="107.4566" y2="-74.2183" gradientTransform="matrix(1 0 0 1 0 469.09)">
			<stop  offset="0" style="stop-color:#275A7D"/>
			<stop  offset="1" style="stop-color:#00A98F"/>
		</linearGradient>
		<path class="st41" d="M46.1,400l1.5,4.7c0.5,1.6,1.6,3,3,4l13.6,9.6l34.8,0.3l35.8,40.3l8.5-7.5L111.4,404l-40.7-14.8L46.1,400z"
			/>
		<path class="st42" d="M127.1,331.5l1.7-2.7c0.3-0.5,0.8-0.9,1.4-1.2l3.9-1.6l-0.4,1.1c-0.1,0.3-0.3,0.6-0.5,0.8l-1.5,1.4l-0.5,0.9
			L127.1,331.5z"/>
		<path class="st43" d="M128.1,339.7l1.2-2.5l9-3.5c0.5-0.2,1-0.6,1.3-1l4.1-7.8c0,0-3.9,0.3-5,2.2c-0.8,1.3-4.4,2.7-5.8,2.4
			c-0.9-0.2-1.8-0.1-2.6,0.3l-3.2,1.5l-3.8,5.8L128.1,339.7z"/>
		<path class="st44" d="M163.3,54.7c0,0,2.9-2.9,12.6-9.8c7.1-5,13.6-9.6,22.3-10.1l8.6-0.5l16.1,1.8l20.4,14.3L233,66l-13.2-5.5
			c-1.7-0.7-3.5-1.1-5.3-1.1h-18.3L163.3,54.7z"/>
		
			<linearGradient id="SVGID_14_" gradientUnits="userSpaceOnUse" x1="163.3" y1="-418.94" x2="243.3836" y2="-418.94" gradientTransform="matrix(1 0 0 1 0 469.09)">
			<stop  offset="0" style="stop-color:#3DA5D5"/>
			<stop  offset="3.924756e-002" style="stop-color:#3DA5D5;stop-opacity:0.9567"/>
			<stop  offset="0.7245" style="stop-color:#3DA5D5;stop-opacity:0.2"/>
		</linearGradient>
		<path class="st45" d="M163.3,54.7c0,0,2.9-2.9,12.6-9.8c7.1-5,13.6-9.6,22.3-10.1l8.6-0.5l16.1,1.8l20.4,14.3L233,66l-13.2-5.5
			c-1.7-0.7-3.5-1.1-5.3-1.1h-18.3L163.3,54.7z"/>
		<path class="st46" d="M216.4,62.5l3.1,3.5l1.6,3.1c0,0-1.7,1.2-2.6,0.6c-0.9-0.6-4.6-3.5-4.6-3.5s-6.1,0.7-8.2,0.4
			c-2-0.3-4.4-3-4.4-3l0.6-4.9l5.8,0.8L216.4,62.5z"/>
		<path class="st46" d="M223.2,29.6c0,0,0.3,3.3,1,10.8c0,0-3,2.7-6.1,1.6c-3.2-1.1-3.8-4.6-3.8-4.6L223.2,29.6z"/>
		
			<linearGradient id="SVGID_15_" gradientUnits="userSpaceOnUse" x1="216.4109" y1="-426.2339" x2="226.1274" y2="-426.2339" gradientTransform="matrix(1 0 0 1 0 469.09)">
			<stop  offset="0" style="stop-color:#3DA5D5;stop-opacity:0.2"/>
			<stop  offset="1" style="stop-color:#3DA5D5"/>
		</linearGradient>
		<path class="st47" d="M220.8,44.7c-2.1,0.4-3.9,0-4,0c-0.3-0.1-0.4-0.3-0.4-0.6c0.1-0.3,0.3-0.4,0.6-0.4c0.1,0,5.2,1.2,8.3-2.7
			c0.2-0.2,0.5-0.2,0.7-0.1c0.2,0.2,0.2,0.5,0.1,0.7C224.5,43.6,222.5,44.4,220.8,44.7z"/>
		<path class="st48" d="M216.6,41.1c0,0,3.2,1.4,5.8-3c0.6-1,1-1.8,1.4-2.6c-0.4-4.1-0.5-6-0.5-6l-8.9,7.8
			C214.3,37.4,214.7,39.7,216.6,41.1z"/>
		<path class="st46" d="M204.7,26.6c0,0,1.8,7.2,7.1,10.7c4.7,3,9.9-0.5,10.8-4.8s0.7-6.9,0.7-6.9s3.6-2.8,1.4-5.7
			c-1.6-2.2-3.4,2.6-3.4,2.6s-4.3,1.6-7-2.7C212.6,17.2,211.3,26.7,204.7,26.6z"/>
		<path class="st4" d="M213.6,34.3l-1,0.2c-0.2,0-0.2,0.3-0.1,0.4c0.6,0.5,1.9,1.3,3.3,1l0.8-0.3c1.4-0.7,1.4-2.1,1.3-2.7
			c0-0.1-0.2-0.2-0.3-0.1l-1,0.5C215.8,33.7,214.7,34.1,213.6,34.3z"/>
		<path class="st48" d="M212.6,27.4l-0.9,4.6c-0.1,0.5,0.3,0.9,0.8,0.9l1.7-0.5c0.5-0.1,0.7-0.7,0.5-1.2L212.6,27.4z"/>
		
			<ellipse transform="matrix(1 -2.306386e-003 2.306386e-003 1 -6.307935e-002 0.5006)" class="st49" cx="217" cy="27.6" rx="0.7" ry="0.7"/>
		
			<ellipse transform="matrix(1 -2.306386e-003 2.306386e-003 1 -6.886570e-002 0.4828)" class="st49" cx="209.3" cy="30.1" rx="0.7" ry="0.7"/>
		<path class="st48" d="M217.8,25.1c-0.1,0-0.2,0-0.2,0c-0.3-0.3-0.7-0.5-1.1-0.5c-0.8,0-1.4,0.7-1.4,0.7c-0.1,0.1-0.2,0.1-0.3,0
			s-0.1-0.2,0-0.3c0,0,0.8-0.9,1.7-0.9c0.5,0,1,0.2,1.4,0.6C217.9,24.9,217.9,25,217.8,25.1L217.8,25.1z"/>
		<path class="st48" d="M209.7,27.1c0,0.1-0.1,0.1-0.2,0.1c-0.5-0.1-0.8,0-1.1,0.2c-0.6,0.5-0.7,1.4-0.7,1.5s-0.1,0.2-0.2,0.2
			c-0.1,0-0.2-0.1-0.2-0.2c0,0,0.1-1.2,0.9-1.8c0.4-0.3,0.9-0.4,1.5-0.3C209.7,26.8,209.8,26.9,209.7,27.1L209.7,27.1z"/>
		<path class="st48" d="M224,21.5c0,0.1-0.1,0.1-0.2,0.1c-0.7,0.1-0.8,1.3-0.8,1.4s-0.1,0.2-0.2,0.2c-0.1,0-0.2-0.1-0.2-0.2
			s0.1-1.6,1.1-1.7C223.9,21.3,224,21.4,224,21.5L224,21.5z"/>
		<g>
			<g>
				<path class="st44" d="M60.5,306.5c0.1-0.6,0.4-0.6,0.6-1.3c0.3-0.6,0-1.1-0.5-3.6c-0.4-2.5,1.6-3.9,4.1-5.5
					c2.4-1.6,6.4-1,9.1-0.7c0,0,4.2-0.4,5.5-1c1.3-0.7,3.2-2.2,5.6-1.3c4.8,1.9,5.4,5,4.6,7.4c0.1,0.6,1.3,0.7,1.1,2.2
					c-0.1,1.5-1.8,1-2.9,1c-1,0-1.2,0.8-0.3,1.6c1,0.8,1.5,2.8-1.2,2.4c-1-0.1-1.6-0.4-2-0.7l-0.5,1.6L64.3,315c0,0,0.5,2.8-0.4,2.9
					c-1,0.1-1.2-1.8-1.8-3.2C61.5,313.3,60.4,307.1,60.5,306.5z"/>
				<path class="st43" d="M73.5,330.6l3.4-3.7l-12.5-13v5.9l-1.9,8.9c0,0,8.4,4,11.6,3.1S73.5,330.6,73.5,330.6z"/>
				<path class="st42" d="M77.8,325.8l-2.2,6.5c0,0-0.1-1.2-4.1-0.9s-5.6-11.8-5.6-11.8L77.8,325.8z"/>
				<path class="st50" d="M86.5,311.5c0.1,0,0.2,0,0.3-0.1c0.3-0.2,0.3-0.6,0.1-0.8l-1.4-1.9c-0.2-0.3-0.5-0.3-0.8-0.1
					c-0.3,0.2-0.3,0.6-0.1,0.8l1.4,1.9C86.1,311.4,86.3,311.5,86.5,311.5z"/>
				<path class="st43" d="M60,308.5c-0.1-4.5,3.6-2.3,3.6-2.3c1.2,2.1,2.5,1.6,2.8,1.2c0.3-0.5,1.3-2.2,1.9-2.4c0.1,0,0.1,0,0.2,0
					c0.7,0.2,2.4,3.2,8,3.2c5.8,0,7-3.3,7.4-3.8c0.4-0.6,1.2-0.7,1.2-0.7c0,1.8,0.1,7.1-0.2,10.1c-0.4,3.8-4.2,14-10.1,13.7
					c-8.2-0.3-10.3-12-10.3-12l-0.2-1.3C64.3,314,60.1,313,60,308.5z"/>
				<path class="st42" d="M62.3,308.2c-0.1,0-0.1,0-0.2,0c-0.3,0.1-0.6,0.2-0.7,0.5c-0.3,0.5-0.1,1.3-0.1,1.3c0,0.1,0.1,0.1,0.2,0.2
					h0.1c0.1,0,0.2-0.2,0.1-0.3c0,0-0.2-0.6,0-0.9c0.1-0.1,0.2-0.2,0.4-0.3c0,0,0,0,0.1,0c0.6,0,1,1.3,1.1,1.7
					c0,0.1,0.1,0.2,0.2,0.2l0,0c0.1,0,0.2-0.1,0.2-0.3C63.8,310,63.4,308.2,62.3,308.2z"/>
				
					<ellipse transform="matrix(0.8978 -0.4404 0.4404 0.8978 -130.4024 65.0635)" class="st49" cx="75" cy="313.5" rx="0.6" ry="0.6"/>
				
					<ellipse transform="matrix(0.8978 -0.4404 0.4404 0.8978 -129.335 68.8593)" class="st49" cx="83.7" cy="313.1" rx="0.6" ry="0.6"/>
				<path class="st50" d="M70.1,311.8c0.1,0,0.2-0.1,0.3-0.2c0.2-0.3,0.1-0.6-0.1-0.8l-8-5.8c-0.3-0.2-0.6-0.1-0.8,0.1
					c-0.2,0.3-0.1,0.6,0.1,0.8l8,5.8C69.7,311.8,69.9,311.9,70.1,311.8z"/>
				<path class="st50" d="M77.6,312.6c0.2,0,0.3-0.1,0.4-0.2c0.4-0.6,1.7-0.3,2.1-0.2c0.3,0.1,0.6-0.1,0.7-0.4s-0.1-0.6-0.4-0.7
					c-0.2-0.1-2.4-0.7-3.4,0.6c-0.2,0.3-0.1,0.6,0.1,0.8C77.3,312.5,77.5,312.6,77.6,312.6z"/>
				<path class="st50" d="M82.6,316.8c-0.9,0-1.6-0.4-2.1-1c-1.2-1.5-0.7-4.2-0.7-4.3c0-0.1,0.1-0.2,0.2-0.3
					c0.2-0.1,4.1-3.4,6.9-0.8c0.1,0.1,0.2,0.3,0.2,0.4s0.1,3.3-1.7,5c-0.6,0.6-1.3,0.9-2.1,1C83.1,316.8,82.8,316.8,82.6,316.8z
					 M80.9,311.9c-0.1,0.8-0.2,2.4,0.5,3.2c0.3,0.4,0.7,0.6,1.3,0.6c0.8,0,1.4-0.2,1.9-0.7c1.1-1.1,1.3-3.2,1.3-3.9
					C84.1,309.6,81.5,311.4,80.9,311.9z"/>
				<path class="st50" d="M73.8,317.3c-1.4,0-2.5-0.5-3.3-1.4c-1.5-1.8-0.9-4.9-0.9-5s0.1-0.3,0.2-0.3c3.2-2.4,7.9,0.8,8.1,0.9
					s0.2,0.3,0.2,0.5c0,0.1,0,2.6-1.5,4.2c-0.6,0.6-1.4,1-2.2,1.1C74.2,317.3,74,317.3,73.8,317.3z M70.7,311.4
					c-0.1,0.7-0.3,2.6,0.7,3.8c0.5,0.6,1.3,0.9,2.4,0.9c2.7,0,3.1-2.9,3.2-3.8C76,311.7,72.9,310,70.7,311.4z"/>
				<path class="st42" d="M79.1,312.4l1.5,5.2c0.1,0.4-0.2,0.8-0.7,0.8l-2.6-0.2L79.1,312.4z"/>
			</g>
			<path class="st42" d="M73.4,309.5c-0.1,0-0.2,0-0.3,0c-0.4-0.4-0.8-0.5-1.2-0.5c-0.9,0-1.6,0.8-1.6,0.8c-0.1,0.1-0.2,0.1-0.3,0
				c-0.1-0.1-0.1-0.2,0-0.3c0,0,0.8-0.9,1.9-1c0.6,0,1.1,0.2,1.5,0.7C73.6,309.2,73.6,309.4,73.4,309.5L73.4,309.5z"/>
			<path class="st42" d="M83.6,308.8c-0.1,0-0.2,0-0.3,0c-0.4-0.4-0.8-0.5-1.2-0.5c-0.9,0-1.6,0.8-1.6,0.8c-0.1,0.1-0.2,0.1-0.3,0
				c-0.1-0.1-0.1-0.2,0-0.3c0,0,0.8-0.9,1.9-1c0.6,0,1.1,0.2,1.5,0.7C83.7,308.5,83.7,308.7,83.6,308.8L83.6,308.8z"/>
			<path class="st4" d="M72.3,320.3c-0.3-0.1-0.6,0.2-0.5,0.5c0.4,0.9,1.3,2.5,3.1,2.7c1.7,0.2,2.6-0.2,3-0.6
				c0.2-0.2,0.2-0.5-0.1-0.6L72.3,320.3z"/>
		</g>
		
			<linearGradient id="SVGID_16_" gradientUnits="userSpaceOnUse" x1="31.8" y1="-106.24" x2="130" y2="-106.24" gradientTransform="matrix(1 0 0 1 0 469.09)">
			<stop  offset="0" style="stop-color:#96CA4F"/>
			<stop  offset="1" style="stop-color:#71983B"/>
		</linearGradient>
		<path class="st51" d="M61.3,324.5l7.4,3.9c2.7,1.5,5.9,2,9,1.5l0,0v4.3l9.5,3.5l20.3,15.3l17.2-17.8l5.3,4l-14,22.2
			c-2.4,3.8-7,5.5-11.3,4.3l-20.5-6.1l-3.1,10.8l3.8,10l-0.5,1.7l-11.4,7l-27.2,12.1l-1.6-5L39,393l-2.6-14l2.7-26.3l-7.3-9l10-13.8
			l17.5-3.1L61.3,324.5z"/>
		
			<linearGradient id="SVGID_17_" gradientUnits="userSpaceOnUse" x1="63.1458" y1="-105.54" x2="82.7458" y2="-105.54" gradientTransform="matrix(1 0 0 1 0 469.09)">
			<stop  offset="0" style="stop-color:#3DA5D5"/>
			<stop  offset="1" style="stop-color:#1B75BB"/>
		</linearGradient>
		<polygon class="st52" points="63.1,346.3 63.5,343.9 82.7,348.5 72.9,383.2 64.4,382.5 		"/>
		<polygon class="st53" points="51.5,365.2 59,343.9 79.7,349.4 70.1,384.3 49.2,381.5 		"/>
		
			<linearGradient id="SVGID_18_" gradientUnits="userSpaceOnUse" x1="77.2575" y1="-114.3901" x2="52.9242" y2="-96.3901" gradientTransform="matrix(1 0 0 1 0 469.09)">
			<stop  offset="0" style="stop-color:#FFFFFF;stop-opacity:0"/>
			<stop  offset="1" style="stop-color:#98E4FF"/>
		</linearGradient>
		<polygon class="st54" points="51.5,365.2 59,343.9 79.7,349.4 70.1,384.3 49.2,381.5 		"/>
		<g id="Group-25" transform="translate(50.000000, 125.000000)">
			<path id="skeen1" class="st42" d="M559.8,331.3l9.3,5.9l-3.2-9.8l-7.8-1.5c-1.9,0.5-2.8,1.2-2.4,2.1
				C555.9,328.9,557.3,330,559.8,331.3z"/>
			<path id="Path-6" class="st55" d="M575.7,348.8c-1.2-0.4-2.4-1.5-3.7-3.2c-1.2-1.8-2.9-4.7-4.9-9l-1.9-9.6l4.5-1.7l2.3,9.8
				L575.7,348.8z"/>
			<path id="Path-7" class="st56" d="M575.6,348.6c1.7-1.3,2.5-3.2,2.3-5.8c-0.3-3.9-3.3-5.3-3.3-7.8c0-5.1-1.1-7.8-1.5-8.6
				c-0.6-1.3-1.7-1.6-3.3-1c0.4,4,1,7.4,1.7,10.3S571.5,344,575.6,348.6z"/>
		</g>
		<g id="Group-26" transform="translate(0.000000, 105.000000)">
			<path id="skeen2" class="st42" d="M598.9,289.6c1.8-0.7,3-1.3,3.5-1.8s1.3-1.1,2.3-2l8.4,7c-1.6-0.7-3.1-0.9-4.3-0.7
				c-1.2,0.2-3.1,1-5.6,2.4L598.9,289.6z"/>
			<path id="Path-6_1_" class="st55" d="M626.8,297.9c-1.1,1-4.1,0.1-5.7-0.5c-1.6-0.6-5.1-2.5-10.5-5.7l-6.5-5.2l2.5-3.3l8.6,4.4
				L626.8,297.9z"/>
			<path id="Path-7_1_" class="st56" d="M623.2,296.2c0.3,0.1,3.7,2.1,3.7,1.5c0-0.7-4.2-4.9-9.7-10.4c-3.6-3.2-5.9-5.1-6.9-5.7
				s-2.3-0.1-3.8,1.6c2,2.8,4.4,4.6,7,5.3c1.4,0.3,3.1,2.9,4.9,4.9C619.6,294.7,620.7,295.6,623.2,296.2z"/>
		</g>
		<path id="Path-5-Copy" class="st44" d="M535,386l9.8,4.8l21,21.5c0,0,16.1-7.8,34.1-19.5c1.3,1.2,7.4,6.9,8.7,9
			c-18.7,16.4-33.3,26.9-37.8,27.9c-4.5,1.1-21.4-9.8-53.2-25.7L535,386z"/>
		<path id="Path-5" class="st44" d="M513.2,395.2c2.6-10.5-0.6-11.9,16.9-4.2c11.8,8.2,31.7,34.6,31.7,34.6l52.7,24.6
			c0,0-3.5,9-3.9,11.3L558.7,445c0,0-25.8-13.8-50.6-40.1L513.2,395.2z"/>
		
			<linearGradient id="Path-5_2_" gradientUnits="userSpaceOnUse" x1="508.1" y1="-45.2833" x2="614.5001" y2="-45.2833" gradientTransform="matrix(1 0 0 1 0 469.09)">
			<stop  offset="0" style="stop-color:#3DA5D5"/>
			<stop  offset="3.924756e-002" style="stop-color:#3DA5D5;stop-opacity:0.9567"/>
			<stop  offset="0.7245" style="stop-color:#3DA5D5;stop-opacity:0.2"/>
		</linearGradient>
		<path id="Path-5_1_" class="st57" d="M513.2,395.2c2.6-10.5-0.6-11.9,16.9-4.2c11.8,8.2,31.7,34.6,31.7,34.6l52.7,24.6
			c0,0-3.5,9-3.9,11.3L558.7,445c0,0-25.8-13.8-50.6-40.1L513.2,395.2z"/>
		
			<g id="Group" transform="translate(10.569150, 114.963691) rotate(32.000000) translate(-10.569150, -114.963691) translate(4.569150, 104.963691)">
		</g>
		
			<g id="Group-Copy" transform="translate(57.087156, 139.996195) rotate(-11.000000) translate(-57.087156, -139.996195) translate(51.087156, 130.996195)">
		</g>
		<path class="st58" d="M417.1,329.9l-9.3-5.5c-0.3-0.2-0.7,0-0.9,0.3l0,0c-0.1,0.2-0.1,0.5,0.1,0.7l2.1,3c0.4,0.4,0.6,1,0.5,1.6
			l1.3,3.9c-0.4,1.6-1.7,2.4-0.2,3.2l7.4,3.9l6,4l-0.2-7.6c0,0-1.9-4.3-2.7-6.3c-0.6-1.3-1.5-2.8-2.1-3.6c-0.3-0.4-0.7-0.7-1.2-0.9
			l-2.8-0.8l-1.6-0.9c-0.1-0.1-0.3-0.1-0.5,0l0,0c-0.4,0.3-0.5,0.9-0.2,1.3l1.2,1.9L417.1,329.9z"/>
		<g>
			<path class="st42" d="M489.2,344.6l-9.3-22.5c0,0-1.3-14-9.2-11c-7.9,3-13.7,7.5-13.9,8.9c-0.2,1.3,0.2,5.2,3,10.8
				c1.8,3.6,3.7,7.3,4.8,9.4c0.6,1,1.7,1.6,2.9,1.4c2.1-0.4,5.4-1.1,6.3-1.6l5.1,9.1L489.2,344.6z"/>
			<path class="st58" d="M459.8,330.8l-0.5,4.6c0,0.4,0.3,0.7,0.7,0.6l2.2-0.6L459.8,330.8z"/>
			<path class="st58" d="M462.8,336.8c2.2,0.6,3.9-1.7,3.9-1.7c0.1-0.1,0.3-0.2,0.5-0.1s0.2,0.3,0.1,0.5c0,0.1-0.8,1-1.9,1.6
				c-0.6,0.3-1.3,0.5-2.2,0.4L462.8,336.8z"/>
			
				<ellipse transform="matrix(0.8862 -0.4633 0.4633 0.8862 -100.4588 251.5839)" class="st59" cx="461.9" cy="330.3" rx="0.9" ry="0.9"/>
			<path class="st44" d="M469.4,326.8c-1.2,0.6,0.1-3.6-0.4-4c-0.5-0.5-1.8-2.6-5.7,0.1c-3.9,2.8-8.9,2.5-10.1,0.3s0.7-2.5,3-4.4
				c2.4-2-3.5-0.3-2.9-3.5c0.4-2.2,5.2-1.2,5.5-2.2c0.3-1.3-4-0.8-3-3.6c0.8-2.5,3.7-1.6,5.9-0.4c2.3,1.1,11.5-1.4,14-0.7
				c2.5,0.7,5.5,3.3,6.1,7.9s3.1,10.4,3.1,11.2c0,0.9,0.6,3.6-3.1,5.2s-6,1.5-8.6-0.1c-1.6-1-1.3-1.9-0.8-2.4c0.5-0.6,1-1.2,1.1-1.9
				c0.3-1.3,0.5-3.2-1-3.8C470.2,323.2,470.4,326.3,469.4,326.8z"/>
			<path class="st59" d="M469.4,326.8c-1.2,0.6,0.1-3.6-0.4-4c-0.5-0.5-1.8-2.6-5.7,0.1c-3.9,2.8-8.9,2.5-10.1,0.3s0.7-2.5,3-4.4
				c2.4-2-3.5-0.3-2.9-3.5c0.4-2.2,5.2-1.2,5.5-2.2c0.3-1.3-4-0.8-3-3.6c0.8-2.5,3.7-1.6,5.9-0.4c2.3,1.1,11.5-1.4,14-0.7
				c2.5,0.7,5.5,3.3,6.1,7.9s3.1,10.4,3.1,11.2c0,0.9,0.6,3.6-3.1,5.2s-6,1.5-8.6-0.1c-1.6-1-1.3-1.9-0.8-2.4c0.5-0.6,1-1.2,1.1-1.9
				c0.3-1.3,0.5-3.2-1-3.8C470.2,323.2,470.4,326.3,469.4,326.8z"/>
			<path class="st58" d="M473.8,339.9c0,0,3-2.2,3.4-3.6l1.4,2.8l-4,2.3L473.8,339.9z"/>
			<path class="st60" d="M470.9,327.9c0,0-0.2-2.9,1.3-2.7"/>
		</g>
		<path class="st61" d="M507.5,339.4l23.3,8.6c4.3,1.6,6.7,6.2,5.6,10.6l-6,23.9l-4-1.6l-7.3-4.9l4.4-13.8c0.1-1.5-1-2.8-2.5-3
			l-6.2-0.7L507.5,339.4z"/>
		
			<linearGradient id="SVGID_19_" gradientUnits="userSpaceOnUse" x1="418.4246" y1="-96.74" x2="534.993" y2="-96.74" gradientTransform="matrix(1 0 0 1 0 469.09)">
			<stop  offset="0" style="stop-color:#275A7D"/>
			<stop  offset="1" style="stop-color:#00A98F"/>
		</linearGradient>
		<path class="st62" d="M534.4,381.2c0,0-9.8-6.6-12.4-9.2c-2.5-2.6-14.1-33-14.1-33s-5.2-1.8-5.4-1.6c-0.3,0.2-12.2,1.5-12.2,1.5
			l-3.3-4.5l-13.8,7.9l-0.4,5.3l-2.3,2.6l-6.1,2.8c-1.2,0.9-21.5-5.8-21.5-5.8l-18.6-12.1l-6,8.6c0,0,17.7,21.7,29.8,23.4l24.7,7.7
			l18.2,22c1.5,2.3,10.9,4.7,13.4,5.6l4,6.8l4.5,1.1L535,386L534.4,381.2z"/>
		
			<linearGradient id="SVGID_20_" gradientUnits="userSpaceOnUse" x1="135.8965" y1="-141.8487" x2="129.8965" y2="-156.8487" gradientTransform="matrix(1 0 0 1 0 469.09)">
			<stop  offset="0" style="stop-color:#004C6C;stop-opacity:0.4"/>
			<stop  offset="0.155" style="stop-color:#034E6E;stop-opacity:0.338"/>
			<stop  offset="0.2901" style="stop-color:#0E5674;stop-opacity:0.284"/>
			<stop  offset="0.4177" style="stop-color:#20627E;stop-opacity:0.2329"/>
			<stop  offset="0.5409" style="stop-color:#39748D;stop-opacity:0.1837"/>
			<stop  offset="0.6608" style="stop-color:#5A8BA0;stop-opacity:0.1357"/>
			<stop  offset="0.7782" style="stop-color:#82A7B7;stop-opacity:8.871314e-002"/>
			<stop  offset="0.8915" style="stop-color:#B0C8D1;stop-opacity:4.341507e-002"/>
			<stop  offset="1" style="stop-color:#E4ECEF;stop-opacity:0"/>
		</linearGradient>
		<path class="st63" d="M147.3,323.7c0.5-3.9,2.8-7,6-8.8l-14.4-28c-12.1,6.4-20.9,18.3-22.8,32.8c-0.7,5.9-0.3,11.6,1.2,16.9
			l30.2-9.2C147.2,326.3,147.1,325,147.3,323.7z"/>
		<path class="st64" d="M145.3,320.7c0.5-3.9,2.8-7,6-8.8l-14.4-28c-12.1,6.4-20.9,18.3-22.8,32.8c-0.7,5.9-0.3,11.6,1.2,16.9
			l30.2-9.2C145.2,323.3,145.1,322,145.3,320.7z"/>
		<path class="st44" d="M202.4,58.4l-3.6-0.9l-1.8-2.8l-22.6-3.9l-10.5,2.9c-1.4,0.4-2.4,1.6-2.5,3l0,0c-0.1,1.2,0.4,2.3,1.4,3
			l4.3,3.1c2.3,1.7,5.1,2.7,8,3l20.4,1.5l2.9-2.4L201,65L202.4,58.4z"/>
		<path class="st65" d="M87.7,395.4l23.7,8.6c0,0,2.5-2.8,0.2-4.6s-7.8-2.7-12.7-4.1s-19.4-3-19.4-3L87.7,395.4"/>
		<path class="st65" d="M73.6,379.6L56,385.5c0,0-11.3,1.5-13.5-1.2s-6.1-5.3-6.1-5.3l0.5-4.4L73.6,379.6z"/>
		
			<linearGradient id="SVGID_21_" gradientUnits="userSpaceOnUse" x1="19.3333" y1="-114.34" x2="59.991" y2="-114.34" gradientTransform="matrix(1 0 0 1 0 469.09)">
			<stop  offset="0" style="stop-color:#96CA4F"/>
			<stop  offset="1" style="stop-color:#71983B"/>
		</linearGradient>
		<path class="st66" d="M41.7,329.9l-21,29c-1.7,2.4-1.9,5.6-0.4,8.2l0,0c0.9,1.5,2.3,2.7,4,3.3l26.2,8.8l7.4,0.4l2-6l-2.7-1.4
			l-2.7-5.2l-16.3-7.2l7.3-8.8c3.2-3.9,4.2-9.1,2.5-13.9l-1.5-4.5c-0.4-1-1.2-1.8-2.3-2.1L41.7,329.9z"/>
		<path class="st43" d="M60,373.6l6.1-2.9l4.4-0.5c0.7-0.1,1.1,0.7,0.7,1.2l-0.3,0.4c-0.1,0.1-0.2,0.2-0.4,0.3l-4.1,1.5h5.2l4.3-3.8
			c0.3-0.3,0.8,0,0.8,0.4v2l-1.4,3.3l-1,2.4c-0.5,1-1.4,1.8-2.6,1.9l-7.6,0.9l-6.1-1.1L60,373.6z"/>
		<path class="st18" d="M69.5,336.2c-2.1-0.6-3.5-1.8-3.6-1.9c-0.2-0.2-0.2-0.5-0.1-0.7c0.2-0.2,0.5-0.2,0.7-0.1
			c0,0,4.1,3.4,8.6,1.4c0.2-0.1,0.5,0,0.6,0.2s0,0.5-0.2,0.6C73.3,336.9,71.2,336.7,69.5,336.2z"/>
		<path class="st46" d="M238.2,130.6c0.2-0.5,0.9-0.4,1,0.1c0.5,2.7,1.3,7.3,1.3,7.7c0,0.5-2.3,2.5-2.3,2.5l2,1.1l4.5-2.1l1.6-6.1
			V127l-1.2-3.5l-1.4-4.8l-2.4-0.4l-2.5,3.8l-3.4,6.9c-0.4,0.7-0.4,1.6-0.2,2.3l0.4,1.7l2.1-1.2L238.2,130.6z"/>
		<path class="st44" d="M239.6,116.8l-0.4,4.4l6.5,1.5l1-3.5l4.4-3.7l8.5-19.5c3.5-8,2.7-17.2-2.1-24.5l-14-21.1l-12,12.9L245,86.6
			l-6.5,25.9L239.6,116.8z"/>
	</g>
	<g>
		<path class="st3" d="M359.6,140.9v-7.1h1.2v7.1H359.6z"/>
		<path class="st3" d="M364.4,141c-0.7,0-1.2-0.2-1.6-0.7s-0.6-1.2-0.6-2.1c0-0.9,0.2-1.6,0.6-2.1s0.9-0.7,1.6-0.7s1.3,0.3,1.6,0.8
			h0.1c-0.1-0.4-0.1-0.7-0.1-0.9v-2h1.2v7.6h-0.9l-0.2-0.7H366C365.6,140.7,365.1,141,364.4,141z M364.7,140.1c0.5,0,0.8-0.1,1-0.4
			s0.3-0.7,0.3-1.3v-0.2c0-0.7-0.1-1.2-0.3-1.5c-0.2-0.3-0.6-0.4-1-0.4s-0.7,0.2-0.9,0.5c-0.2,0.3-0.3,0.8-0.3,1.4
			c0,0.6,0.1,1.1,0.3,1.4C363.9,139.9,364.2,140.1,364.7,140.1z"/>
		<path class="st3" d="M369.9,140.9h-1.1v-7.6h1.1V140.9z"/>
		<path class="st3" d="M373.9,141c-0.8,0-1.5-0.2-2-0.7s-0.7-1.2-0.7-2c0-0.9,0.2-1.6,0.7-2.1s1-0.8,1.8-0.8c0.7,0,1.3,0.2,1.7,0.6
			c0.4,0.4,0.6,1,0.6,1.8v0.6h-3.6c0,0.5,0.2,0.9,0.4,1.2c0.3,0.3,0.6,0.4,1.1,0.4c0.3,0,0.6,0,0.9-0.1s0.6-0.2,0.9-0.3v0.9
			c-0.3,0.1-0.6,0.2-0.8,0.3C374.6,141,374.3,141,373.9,141z M373.7,136.3c-0.4,0-0.7,0.1-0.9,0.3s-0.4,0.6-0.4,1h2.5
			c0-0.4-0.1-0.8-0.3-1C374.3,136.4,374.1,136.3,373.7,136.3z"/>
	</g>
</g>
<g>
	<path class="st3" d="M72.1,149.3c-5.8,0-10.6-4.7-10.6-10.6c0-5.8,4.7-10.6,10.6-10.6s10.6,4.7,10.6,10.6
		C82.7,144.5,78,149.3,72.1,149.3z M72.1,129.7c-5,0-9,4-9,9s4,9,9,9s9-4,9-9S77.1,129.7,72.1,129.7z"/>
	<circle class="st14" cx="72.1" cy="138.7" r="6.5"/>
	<path id="Combined-Shape_101_" class="st3" d="M66.7,141.3c-0.9,0-1.7-0.7-1.7-1.7c0-0.9,0.7-1.7,1.7-1.7c0.9,0,1.7,0.7,1.7,1.7
		C68.4,140.6,67.6,141.3,66.7,141.3z M66.7,140.2c0.3,0,0.6-0.2,0.6-0.6c0-0.3-0.2-0.6-0.6-0.6c-0.3,0-0.6,0.2-0.6,0.6
		C66.2,140,66.4,140.2,66.7,140.2z"/>
	<path id="Combined-Shape_100_" class="st3" d="M72.1,135.3c-0.9,0-1.7-0.7-1.7-1.7c0-0.9,0.7-1.7,1.7-1.7c0.9,0,1.7,0.7,1.7,1.7
		C73.8,134.6,73,135.3,72.1,135.3z M72.1,134.2c0.3,0,0.6-0.2,0.6-0.6c0-0.3-0.2-0.6-0.6-0.6c-0.3,0-0.6,0.2-0.6,0.6
		S71.8,134.2,72.1,134.2z"/>
	<path id="Combined-Shape_49_" class="st3" d="M77.8,141.3c-0.9,0-1.7-0.7-1.7-1.7c0-0.9,0.7-1.7,1.7-1.7s1.7,0.7,1.7,1.7
		S78.8,141.3,77.8,141.3z M77.8,140.2c0.3,0,0.6-0.2,0.6-0.6c0-0.3-0.2-0.6-0.6-0.6s-0.6,0.2-0.6,0.6
		C77.3,140,77.5,140.2,77.8,140.2z"/>
	
		<rect x="66.4" y="135.8" transform="matrix(0.6416 -0.767 0.767 0.6416 -79.8273 102.0178)" class="st3" width="5.8" height="1.2"/>
	
		<rect x="74.3" y="133.4" transform="matrix(0.7277 -0.6859 0.6859 0.7277 -73.1351 88.518)" class="st3" width="1.2" height="5.9"/>
	<path class="st3" d="M78.5,139.4c-0.1,0-0.3-0.1-0.4-0.2c-0.2-0.2-0.3-0.6,0-0.9l5.4-6c0.2-0.2,0.6-0.3,0.9,0
		c0.2,0.2,0.3,0.6,0,0.9l-5.4,6C78.8,139.3,78.6,139.4,78.5,139.4z"/>
	<path class="st3" d="M84.7,151.9c-0.2,0-0.4-0.1-0.6-0.2l-5.6-5.6c-0.3-0.3-0.3-0.8,0-1.1s0.8-0.3,1.1,0l5.6,5.6
		c0.3,0.3,0.3,0.8,0,1.1C85.1,151.8,84.9,151.9,84.7,151.9z"/>
</g>
<g>
	<path class="st14" d="M76.7,270.5c0-0.9,0.7-1.6,1.6-1.6h1c0.5,0,0.8-0.4,0.8-0.8v-5.9c0-0.9-0.7-1.6-1.6-1.6h-9.9
		c-0.9,0-1.6,0.7-1.6,1.6v11.5c0,0.9,0.7,1.6,1.6,1.6h7.2c0.5,0,0.8-0.4,0.8-0.8L76.7,270.5L76.7,270.5z"/>
	<g id="add_3_" transform="translate(18.067542, 14.454034)">
		<g>
			<path id="Path_2_" class="st3" d="M62.1,263L62.1,263L62.1,263c-0.7,0-1.2-0.6-1.2-1.2c0-0.2-0.1-0.3-0.3-0.3s-0.3,0.1-0.3,0.3
				c0,0.9,0.6,1.6,1.5,1.8v0.6c0,0.2,0.1,0.3,0.3,0.3s0.3-0.1,0.3-0.3v-0.6c0.9-0.2,1.6-1,1.5-1.9S63,260,62.1,260
				c-0.7,0-1.2-0.6-1.2-1.2c0-0.7,0.6-1.2,1.2-1.2c0.7,0,1.2,0.6,1.2,1.2c0,0.2,0.1,0.3,0.3,0.3s0.3-0.1,0.3-0.3
				c0-0.9-0.6-1.6-1.5-1.8v-0.6c0-0.2-0.1-0.3-0.3-0.3s-0.3,0.1-0.3,0.3v0.6c-0.9,0.2-1.6,1-1.5,1.9s0.9,1.7,1.8,1.7
				c0.7,0,1.2,0.5,1.2,1.2S62.8,263,62.1,263L62.1,263z"/>
			<path class="st3" d="M62.1,264.8c-0.3,0-0.6-0.3-0.6-0.6v-0.4c-0.9-0.3-1.5-1.1-1.5-2c0-0.3,0.3-0.6,0.6-0.6s0.6,0.3,0.6,0.6
				c0,0.5,0.4,0.9,0.9,0.9v0.3v-0.3c0.5,0,0.9-0.4,0.9-0.9s-0.4-0.9-0.9-0.9c-1.1,0-2-0.9-2.1-2c-0.1-1,0.6-1.9,1.5-2.2v-0.3
				c0-0.3,0.3-0.6,0.6-0.6s0.6,0.3,0.6,0.6v0.3c0.9,0.3,1.5,1.1,1.5,2c0,0.3-0.3,0.6-0.6,0.6S63,259,63,258.7c0-0.5-0.4-0.9-0.9-0.9
				s-0.9,0.4-0.9,0.9s0.4,0.9,0.9,0.9c1.1,0,2,0.9,2.1,2c0.1,1-0.6,1.9-1.5,2.2v0.4C62.7,264.5,62.4,264.8,62.1,264.8z"/>
		</g>
	</g>
	<path class="st3" d="M74.7,278.5h-6.1c-2.7,0-4.8-2.2-4.8-4.8v-11.5c0-2.7,2.2-4.8,4.8-4.8h9.9c2.7,0,4.8,2.2,4.8,4.8v7
		c0,0.4-0.3,0.7-0.7,0.7c-0.4,0-0.7-0.3-0.7-0.7v-7c0-1.9-1.5-3.4-3.4-3.4h-9.9c-1.9,0-3.4,1.5-3.4,3.4v11.5c0,1.9,1.5,3.4,3.4,3.4
		h6.1c0.4,0,0.7,0.3,0.7,0.7C75.4,278.1,75.1,278.5,74.7,278.5z"/>
	<path class="st3" d="M77.7,264.1h-8.5c-0.4,0-0.7-0.3-0.7-0.7c0-0.4,0.3-0.7,0.7-0.7h8.5c0.4,0,0.7,0.3,0.7,0.7
		C78.4,263.7,78.1,264.1,77.7,264.1z"/>
	<path class="st3" d="M77.7,267.3h-8.5c-0.4,0-0.7-0.3-0.7-0.7c0-0.4,0.3-0.7,0.7-0.7h8.5c0.4,0,0.7,0.3,0.7,0.7
		C78.4,267,78.1,267.3,77.7,267.3z"/>
	<path class="st3" d="M74.7,271.3h-5.5c-0.4,0-0.7-0.3-0.7-0.7c0-0.4,0.3-0.7,0.7-0.7h5.5c0.4,0,0.7,0.3,0.7,0.7
		C75.4,270.9,75.1,271.3,74.7,271.3z"/>
</g>
<g>
	<polygon class="st14" points="346.9,272.3 336.9,272.3 336.8,270.4 335,270.1 335,260.5 346.9,260.5 	"/>
	<path class="st3" d="M348.4,275.1h-1.9c-0.4,0-0.6-0.3-0.6-0.6c0-0.4,0.3-0.6,0.6-0.6h1.8V272c0-0.4,0.3-0.6,0.6-0.6
		s0.6,0.3,0.6,0.6v1.8C349.6,274.5,349,275.1,348.4,275.1z M343.3,275.1h-3.9c-0.4,0-0.6-0.3-0.6-0.6c0-0.4,0.3-0.6,0.6-0.6h3.9
		c0.4,0,0.6,0.3,0.6,0.6C343.9,274.8,343.6,275.1,343.3,275.1z M348.9,269.3c-0.4,0-0.6-0.3-0.6-0.6v-4.4c0-0.4,0.3-0.6,0.6-0.6
		s0.6,0.3,0.6,0.6v4.4C349.6,269,349.3,269.3,348.9,269.3z M333,268.5c-0.4,0-0.6-0.3-0.6-0.6V264c0-0.4,0.3-0.6,0.6-0.6
		s0.6,0.3,0.6,0.6v3.8C333.6,268.2,333.3,268.5,333,268.5z M348.9,261.3c-0.4,0-0.6-0.3-0.6-0.6v-1.6H347c-0.4,0-0.6-0.3-0.6-0.6
		c0-0.4,0.3-0.6,0.6-0.6h1.4c0.7,0,1.2,0.5,1.2,1.2v1.7C349.6,261,349.3,261.3,348.9,261.3z M348.4,259.1L348.4,259.1L348.4,259.1z
		 M333,261.3c-0.4,0-0.6-0.3-0.6-0.6V259c0-0.7,0.5-1.2,1.2-1.2h1.5c0.4,0,0.6,0.3,0.6,0.6c0,0.4-0.3,0.6-0.6,0.6h-1.4v1.6
		C333.6,261,333.3,261.3,333,261.3z M343.2,259.1H339c-0.4,0-0.6-0.3-0.6-0.6c0-0.4,0.3-0.6,0.6-0.6h4.2c0.4,0,0.6,0.3,0.6,0.6
		C343.8,258.8,343.5,259.1,343.2,259.1z"/>
	<path class="st3" d="M336.8,271.1c-0.2,0-0.3-0.1-0.5-0.2c-0.3-0.3-0.3-0.7,0-1l6.7-6.8c0.3-0.3,0.7-0.3,1,0s0.3,0.7,0,1l-6.7,6.8
		C337.1,271,336.9,271.1,336.8,271.1z"/>
	<path class="st3" d="M344.2,267.5c-0.4,0-0.7-0.3-0.7-0.7v-3.3h-3.3c-0.4,0-0.7-0.3-0.7-0.7c0-0.4,0.3-0.7,0.7-0.7h4
		c0.4,0,0.7,0.3,0.7,0.7v4C344.9,267.2,344.6,267.5,344.2,267.5z"/>
	<path class="st3" d="M336.9,278.8h-8c-0.4,0-0.7-0.3-0.7-0.7v-8c0-0.4,0.3-0.7,0.7-0.7h8c0.4,0,0.7,0.3,0.7,0.7v8
		C337.6,278.5,337.3,278.8,336.9,278.8z M329.6,277.4h6.7v-6.7h-6.7V277.4z"/>
</g>
<g>
	<path class="st3" d="M348.9,140.3h-17.3c-1.8,0-3.3-1.5-3.3-3.3s1.5-3.3,3.3-3.3h17.3c1.8,0,3.3,1.5,3.3,3.3
		S350.8,140.3,348.9,140.3z M331.6,134.8c-1.2,0-2.2,1-2.2,2.2s1,2.2,2.2,2.2h17.3c1.2,0,2.2-1,2.2-2.2s-1-2.2-2.2-2.2H331.6z"/>
	<path class="st3" d="M348.9,134.8h-17.3c-1.8,0-3.3-1.5-3.3-3.3c0-1.8,1.5-3.3,3.3-3.3h17.3c1.8,0,3.3,1.5,3.3,3.3
		C352.3,133.3,350.8,134.8,348.9,134.8z M331.6,129.2c-1.2,0-2.2,1-2.2,2.2c0,1.2,1,2.2,2.2,2.2h17.3c1.2,0,2.2-1,2.2-2.2
		c0-1.2-1-2.2-2.2-2.2H331.6z"/>
	<path class="st14" d="M331.6,132.6c-0.6,0-1.2-0.5-1.2-1.2s0.5-1.2,1.2-1.2h17.3c0.6,0,1.2,0.5,1.2,1.2s-0.5,1.2-1.2,1.2H331.6z"/>
	<path class="st14" d="M331.6,138.2c-0.6,0-1.2-0.5-1.2-1.2c0-0.6,0.5-1.2,1.2-1.2h17.3c0.6,0,1.2,0.5,1.2,1.2
		c0,0.6-0.5,1.2-1.2,1.2H331.6z"/>
	<g>
		<path id="Path-Copy-2_5_" class="st3" d="M333.6,137.1c0-0.2-0.2-0.4-0.4-0.4h-0.7c-0.2,0-0.4,0.2-0.4,0.4s0.2,0.4,0.4,0.4h0.7
			C333.4,137.5,333.6,137.3,333.6,137.1z"/>
		<path class="st3" d="M333.1,137.7h-0.7c-0.3,0-0.6-0.3-0.6-0.6c0-0.3,0.3-0.6,0.6-0.6h0.7c0.3,0,0.6,0.3,0.6,0.6
			C333.7,137.4,333.5,137.7,333.1,137.7z M332.4,136.8c-0.2,0-0.3,0.1-0.3,0.3c0,0.2,0.1,0.3,0.3,0.3h0.7c0.2,0,0.3-0.1,0.3-0.3
			c0-0.2-0.1-0.3-0.3-0.3H332.4z"/>
	</g>
	<path class="st3" d="M344.4,145.9h-12.8c-1.8,0-3.3-1.5-3.3-3.3c0-1.8,1.5-3.3,3.3-3.3c0.3,0,0.6,0.3,0.6,0.6
		c0,0.3-0.3,0.6-0.6,0.6c-1.2,0-2.2,1-2.2,2.2c0,1.2,1,2.2,2.2,2.2h12.8c0.3,0,0.6,0.3,0.6,0.6C345,145.7,344.8,145.9,344.4,145.9z"
		/>
	<g>
		<path id="Path-Copy-2_2_" class="st3" d="M333.6,131.5c0-0.2-0.2-0.4-0.4-0.4h-0.7c-0.2,0-0.4,0.2-0.4,0.4s0.2,0.4,0.4,0.4h0.7
			C333.4,132,333.6,131.8,333.6,131.5z"/>
		<path class="st3" d="M333.1,132.1h-0.7c-0.3,0-0.6-0.3-0.6-0.6c0-0.3,0.3-0.6,0.6-0.6h0.7c0.3,0,0.6,0.3,0.6,0.6
			C333.7,131.8,333.5,132.1,333.1,132.1z M332.4,131.2c-0.2,0-0.3,0.1-0.3,0.3c0,0.2,0.1,0.3,0.3,0.3h0.7c0.2,0,0.3-0.1,0.3-0.3
			c0-0.2-0.1-0.3-0.3-0.3H332.4z"/>
	</g>
	<path class="st14" d="M346.6,141.5h-14.9c-0.6,0-1.2,0.5-1.2,1.2c0,0.6,0.5,1.2,1.2,1.2h13.5C345.4,142.9,345.9,142.1,346.6,141.5z
		"/>
	<g>
		<path class="st3" d="M350.1,149.5c-2.3,0-4.2-1.9-4.2-4.2s1.9-4.2,4.2-4.2s4.2,1.9,4.2,4.2S352.4,149.5,350.1,149.5z M350.1,142.2
			c-1.7,0-3.1,1.4-3.1,3.1s1.4,3.1,3.1,3.1s3.1-1.4,3.1-3.1S351.8,142.2,350.1,142.2z"/>
		<rect x="346.2" y="145" transform="matrix(0.7071 -0.7071 0.7071 0.7071 -0.3595 290.1993)" class="st3" width="7.9" height="1"/>
	</g>
	<g>
		<path id="Path-Copy-2_1_" class="st3" d="M333.6,142.6c0-0.2-0.2-0.4-0.4-0.4h-0.7c-0.2,0-0.4,0.2-0.4,0.4s0.2,0.4,0.4,0.4h0.7
			C333.4,143.1,333.6,142.9,333.6,142.6z"/>
		<path class="st3" d="M333.1,143.2h-0.7c-0.3,0-0.6-0.3-0.6-0.6c0-0.3,0.3-0.6,0.6-0.6h0.7c0.3,0,0.6,0.3,0.6,0.6
			C333.7,143,333.5,143.2,333.1,143.2z M332.4,142.4c-0.2,0-0.3,0.1-0.3,0.3c0,0.2,0.1,0.3,0.3,0.3h0.7c0.2,0,0.3-0.1,0.3-0.3
			c0-0.2-0.1-0.3-0.3-0.3H332.4z"/>
	</g>
</g>
</svg>
