<svg height="30" viewBox="0 0 24 30" width="24" xmlns="http://www.w3.org/2000/svg"><g fill="none" fill-rule="evenodd" transform=""><rect fill-rule="nonzero" height="24.181818" rx="2" stroke="#3ba5d6" stroke-width="2" width="19.818182" x="1" y="1"/><g transform="translate(16.363636 18.545455)"><path d="m5.06213704 10.2505069-5.06213704-1.45268959v-8.79781731h7.06161029l-.87080368 11.0882335z" fill="#fafbfc" fill-rule="nonzero"/><path d="m3.46958305 1.53178401c0-.24606972.2050581-.44087492.45112782-.44087492s.44087491.1948052.44087491.44087492v.22556391c.6049214.07177033 1.11756665.26657552 1.58920028.56390977.16404648.09227614.30758715.24606972.30758715.49213944 0 .31784005-.25632263.56390977-.57416268.56390977-.10252905 0-.2050581-.03075871-.30758715-.09227614-.35885168-.21531101-.70745045-.36910458-1.05604922-.45112782v1.96855776c1.55844156.38961039 2.22488039 1.01503759 2.22488039 2.11209843 0 1.12781954-.88174983 1.87628161-2.18386877 1.99931647v.6151743c0 .24606972-.19480519.44087491-.44087491.44087491s-.45112782-.19480519-.45112782-.44087491v-.63568011c-.76896788-.08202324-1.47641832-.35885168-2.10184552-.79972659-.17429939-.11278196-.27682844-.27682844-.27682844-.49213944 0-.31784006.24606972-.56390978.56390978-.56390978.12303486 0 .24606972.04101162.33834586.11278196.48188653.34859877.95352016.58441558 1.51742994.68694463v-2.01982228c-1.49692413-.38961039-2.19412167-.95352016-2.19412167-2.11209843 0-1.09706083.87149692-1.8557758 2.15311005-1.95830485zm1.86602871 5.45454545c0-.45112782-.22556391-.72795625-1.0150376-.97402597v1.8660287c.65618592-.07177033 1.0150376-.39986329 1.0150376-.89200273zm-2.80929597-3.35269993c0 .43062201.19480519.69719754.98427888.95352016v-1.81476418c-.65618592.06151743-.98427888.4101162-.98427888.86124402z" fill="#2fc3aa"/></g><g fill-rule="nonzero" stroke="#3ba5d6" stroke-linecap="round" stroke-width="2"><path d="m6 7.09090909h9.8181818"/><path d="m6 12.25h9.8181818"/><path d="m6 17.7045455h9.8181818"/></g></g></svg>