<?xml version="1.0" encoding="UTF-8"?>
<svg width="18px" height="12px" viewBox="0 0 18 12" version="1.1" xmlns="http://www.w3.org/2000/svg" xmlns:xlink="http://www.w3.org/1999/xlink">
    <!-- Generator: sketchtool 50.2 (55047) - http://www.bohemiancoding.com/sketch -->
    <title>9E6B7C2A-A1C5-4741-BCB4-200D26C2DA0A</title>
    <desc>Created with sketchtool.</desc>
    <defs></defs>
    <g id="Story-Page" stroke="none" stroke-width="1" fill="none" fill-rule="evenodd">
        <g transform="translate(-346.000000, -4506.000000)" fill="#FFFFFF" fill-rule="nonzero" id="block_7" stroke="#FFFFFF" stroke-width="0.3">
            <g transform="translate(0.000000, 4011.000000)">
                <g id="card_1(hover)" transform="translate(167.000000, 132.000000)">
                    <g id="button_read" transform="translate(34.000000, 357.000000)">
                        <path d="M158.051554,9.43268701 C158.159884,9.54183612 158.302103,9.59669054 158.444321,9.59669054 C158.586539,9.59669054 158.728758,9.54183612 158.837088,9.43268701 C159.054304,9.21382905 159.054304,8.86007399 158.837088,8.64121603 L154.393322,4.1638636 C154.342213,4.11180787 154.280548,4.07094692 154.212216,4.04240023 C154.076665,3.98586659 153.923335,3.98586659 153.787784,4.04240023 C153.719452,4.07094692 153.658343,4.11180787 153.606678,4.1638636 L149.162912,8.64121603 C148.945696,8.86007399 148.945696,9.21382905 149.162912,9.43268701 C149.271242,9.54183612 149.413461,9.59669054 149.555679,9.59669054 C149.697897,9.59669054 149.840116,9.54183612 149.948446,9.43268701 L153.44446,5.91024935 L153.44446,19.4444599 C153.44446,19.7512762 153.693184,20 154,20 L154,20 C154.306816,20 154.55554,19.7512762 154.55554,19.4444599 L154.55554,5.91024935 L158.051554,9.43268701 Z" id="Shape-Copy-5" transform="translate(154.000000, 12.000000) rotate(-270.000000) translate(-154.000000, -12.000000) "></path>
                    </g>
                </g>
            </g>
        </g>
    </g>
</svg>