<?xml version="1.0" encoding="UTF-8"?>
<svg width="13px" height="10px" viewBox="0 0 13 10" version="1.1" xmlns="http://www.w3.org/2000/svg" xmlns:xlink="http://www.w3.org/1999/xlink">
    <!-- Generator: Sketch 52.5 (67469) - http://www.bohemiancoding.com/sketch -->
    <title>Shape</title>
    <desc>Created with Sketch.</desc>
    <g id="Page-1" stroke="none" stroke-width="1" fill="none" fill-rule="evenodd">
        <g id="Guide_EC2_part1" transform="translate(-499.000000, -1301.000000)" fill="#429EE2" fill-rule="nonzero" stroke="#0E9EE7" stroke-width="0.5">
            <g id="02_Skill-level" transform="translate(0.000000, 802.000000)">
                <g id="01" transform="translate(250.000000, 258.000000)">
                    <g id="right-arrow" transform="translate(250.000000, 242.000000)">
                        <path d="M7.40727215,0.120314335 C7.25741505,-0.0401047782 7.00800254,-0.0401047782 6.85290568,0.120314335 C6.70304859,0.275313883 6.70304859,0.533285159 6.85290568,0.687923403 L9.66386154,3.59533917 L0.388091458,3.59533917 C0.171864084,3.59570048 0,3.7734622 0,3.99710957 C0,4.22075693 0.171864084,4.40429952 0.388091458,4.40429952 L9.66386154,4.40429952 L6.85290568,7.30629573 C6.70304859,7.46671484 6.70304859,7.72504742 6.85290568,7.87968567 C7.00800254,8.04010478 7.25776437,8.04010478 7.40727215,7.87968567 L10.8836774,4.28398519 C11.0387742,4.12898564 11.0387742,3.87101436 10.8836774,3.71637612 L7.40727215,0.120314335 Z" id="Shape"></path>
                    </g>
                </g>
            </g>
        </g>
    </g>
</svg>