<?xml version="1.0" encoding="UTF-8"?>
<svg width="18px" height="18px" viewBox="0 0 18 18" version="1.1" xmlns="http://www.w3.org/2000/svg" xmlns:xlink="http://www.w3.org/1999/xlink">
    <!-- Generator: Sketch 52.5 (67469) - http://www.bohemiancoding.com/sketch -->
    <title>Group 4</title>
    <desc>Created with Sketch.</desc>
    <g id="Page-1" stroke="none" stroke-width="1" fill="none" fill-rule="evenodd">
        <g id="Guide_EC2_part1" transform="translate(-496.000000, -8450.000000)" fill-rule="nonzero">
            <g id="Group-5" transform="translate(478.000000, 8433.000000)">
                <g id="Group-4" transform="translate(19.000000, 18.000000)">
                    <g id="info" transform="translate(6.000000, 3.000000)" fill="#439BC3">
                        <path d="M3.88024098,8.02875145 L3.75374754,8.542809 C3.37426723,8.69171066 3.07113735,8.80504047 2.84541269,8.88295975 C2.61944461,8.96112102 2.35688351,9 2.05772937,9 C1.59832857,9 1.2409988,8.8881221 0.986145764,8.66589889 C0.731292724,8.44278839 0.603825635,8.16006883 0.603825635,7.81709492 C0.603825635,7.68432562 0.613075316,7.54776522 0.632304915,7.40862364 C0.651696789,7.26932074 0.682529057,7.11243357 0.724720583,6.93707485 L1.19896955,5.26834383 C1.24116108,5.10855284 1.27702387,4.95715067 1.30574657,4.813976 C1.33487495,4.67168861 1.34891174,4.54077453 1.34891174,4.42292766 C1.34891174,4.20981923 1.3045295,4.06075625 1.21617071,3.97694865 C1.12781192,3.89338304 0.959208098,3.85095495 0.708898761,3.85095495 C0.586299925,3.85095495 0.460293312,3.8704751 0.331852573,3.90822481 C0.202843871,3.94613585 0.0925779428,3.9827563 0,4.01679558 L0.126817988,3.50233471 C0.437493661,3.37658299 0.734457088,3.2688995 1.01851965,3.17952625 C1.3025822,3.089911 1.57098521,3.04506305 1.8248646,3.04506305 C2.28110104,3.04506305 2.63315686,3.15468242 2.88038297,3.37392115 C3.12760908,3.5933212 3.25118157,3.87773466 3.25118157,4.22821011 C3.25118157,4.30072506 3.24306781,4.42849333 3.22562324,4.61111161 C3.20858435,4.7941332 3.17685957,4.96182905 3.13061117,5.11436049 L2.65839064,6.77639657 C2.61968803,6.90989182 2.58488002,7.06250392 2.55461571,7.23423286 C2.52337776,7.40483254 2.50844845,7.53518198 2.50844845,7.62261936 C2.50844845,7.84331 2.55794235,7.99398622 2.65717357,8.07408337 C2.75713503,8.15418052 2.92930891,8.19402744 3.17385748,8.19402744 C3.28866711,8.19402744 3.41929857,8.17378133 3.56445364,8.13401507 C3.70920303,8.09424881 3.81476298,8.05932226 3.88024098,8.02875145 Z M4,1.05102306 C4,1.34059887 3.8902209,1.5879079 3.6696079,1.79125626 C3.44956287,1.99533058 3.18440536,2.0974484 2.87421652,2.0974484 C2.56305402,2.0974484 2.29724741,1.99533058 2.07468711,1.79125626 C1.85253251,1.58782724 1.74121179,1.34059887 1.74121179,1.05102306 C1.74121179,0.762011884 1.85253251,0.514299542 2.07468711,0.308370005 C2.29684172,0.102763114 2.56313515,0 2.87421652,0 C3.18432423,0 3.44956287,0.1030051 3.6696079,0.308370005 C3.89038317,0.514299542 4,0.762092546 4,1.05102306 Z" id="Shape"></path>
                    </g>
                    <circle id="Oval" stroke="#439BC3" cx="8" cy="8" r="8"></circle>
                </g>
            </g>
        </g>
    </g>
</svg>