<?xml version="1.0" encoding="UTF-8"?>
<svg width="23px" height="17px" viewBox="0 0 23 17" version="1.1" xmlns="http://www.w3.org/2000/svg" xmlns:xlink="http://www.w3.org/1999/xlink">
    <!-- Generator: sketchtool 52.5 (67469) - http://www.bohemiancoding.com/sketch -->
    <title>25A7E081-9052-4A55-954D-AD780C0CB60F</title>
    <desc>Created with sketchtool.</desc>
    <g id="Page-1" stroke="none" stroke-width="1" fill="none" fill-rule="evenodd" opacity="0.149096">
        <g id="Guide_EC2_part1" transform="translate(-490.000000, -5708.000000)" fill="#FFFFFF" fill-rule="nonzero">
            <g id="bloquote" transform="translate(478.000000, 5689.000000)">
                <g id="quotes" transform="translate(12.000000, 19.000000)">
                    <path d="M5.27487985,6.18181818 C8.1751729,6.18181818 10.5263158,8.60359375 10.5263158,11.5909091 C10.5263158,14.5782244 8.1751729,17 5.27487985,17 C2.3745868,17 0.0234439104,14.5782244 0.0234439104,11.5909091 L0,10.8181818 C0,4.84345455 4.70228578,0 10.5028719,0 L10.5028719,3.09090909 C8.49902708,3.09090909 6.61507443,3.89469034 5.19812449,5.35417898 C4.92537803,5.63516193 4.67645059,5.9341108 4.45190482,6.24812784 C4.72005627,6.20466193 4.99486578,6.18181818 5.27487985,6.18181818 Z M17.7485641,6.18181818 C20.6488102,6.18181818 23,8.60359375 23,11.5909091 C23,14.5782244 20.6488102,17 17.7485641,17 C14.8483179,17 12.4971281,14.5782244 12.4971281,11.5909091 L12.4736842,10.8181818 C12.4736842,4.84345455 17.1759231,0 22.9765561,0 L22.9765561,3.09090909 C20.9727582,3.09090909 19.0887118,3.89469034 17.6718087,5.35417898 C17.3990154,5.63516193 17.1500879,5.9341108 16.9255421,6.24812784 C17.1936936,6.20466193 17.4685031,6.18181818 17.7485641,6.18181818 Z" id="Shape"></path>
                </g>
            </g>
        </g>
    </g>
</svg>