<svg height="70" viewBox="0 0 98 70" width="98" xmlns="http://www.w3.org/2000/svg"><g fill="#fff" fill-rule="evenodd" opacity=".102562" transform=""><path d="m50 19c-1.1039062 0-2 .8960938-2 2s.8960938 2 2 2 2-.8960938 2-2-.8960938-2-2-2z"/><path d="m17 54c1.1039062 0 2-.8960938 2-2s-.8960938-2-2-2-2 .8960938-2 2 .8960938 2 2 2z"/><path d="m64.3125 0c-17.2317963 0-31.3749238 12.009256-32.4687804 27.1360818-16.4108431.8321078-31.8437196 12.79375-31.8437196 28.9726139 0 6.7611581 2.64678955 13.3122113 7.46484375 18.5028701.95329289 3.9723505-.20411677 8.1827701-3.07595816 11.0856999-.54730243.5532267-.71104436 1.3853346-.41496281 2.1086107.29608154.7225203.99366755 1.1941236 1.76826472 1.1941236 5.4588165 0 10.7194976-2.1637823 14.6283721-5.9766644 3.8079376 1.3120245 8.7762758 2.1070992 13.3169404 2.1070992 17.2295532 0 31.3711854-12.0062331 32.4680328-27.1300356 4.0075683-.1798745 8.1758881-.9280911 11.4739076-2.0640201 3.9088745 3.8128821 9.1695556 5.9766644 14.6283721 5.9766644.7745972 0 1.4721832-.4716033 1.7682647-1.1941237.2960816-.7232761.1323396-1.5553839-.4149628-2.1086106-2.8718414-2.9029298-4.029251-7.1133494-3.0759581-11.0856999 4.8180541-5.1906588 7.4648437-11.741712 7.4648437-18.5028702 0-16.8106913-16.6216889-29.0217391-33.6875-29.0217391zm-30.625 81.2608696c-4.5174865 0-9.665268-.8963484-13.1135712-2.2831946-.7387085-.2977753-1.5828399-.1020296-2.1204224.4912533-2.3110808 2.5537619-5.3160094 4.3343665-8.59010308 5.1528703 1.80415338-3.4939453 2.26472468-7.612916 1.16712948-11.5157355-.086731-.3076001-.2474822-.5887482-.468048-.8177479-4.34252931-4.5210429-6.7343598-10.2671959-6.7343598-16.1796195 0-13.6341712 13.673584-25.152174 29.859375-25.152174 15.284088 0 28.7109375 10.743334 28.7109375 25.152174 0 13.8692171-12.879547 25.1521739-28.7109375 25.1521739zm53.7500152-36.0595109c-.2205658.2297554-.381317.5109035-.468048.8177479-1.0975952 3.9028194-.6370239 8.0217901 1.1671295 11.5157355-3.2740937-.8177481-6.2790223-2.5991084-8.5901031-5.1528703-.5375825-.5925272-1.3817139-.7890286-2.1204224-.4912533-2.9884796 1.2016812-7.2517548 2.0337891-11.2765199 2.234825-.5592651-7.3166525-4.169815-14.1934443-10.3426665-19.2994565h24.9665527c1.0572206 0 1.9140625-.8661175 1.9140625-1.9347827 0-1.0686651-.8568419-1.9347826-1.9140625-1.9347826h-30.8470611c-4.3447724-2.2355809-9.2233887-3.5392918-14.244812-3.812882 1.0998381-12.9947861 13.5210571-23.27407448 28.6309356-23.27407448 16.185791 0 29.859375 11.51800268 29.859375 25.15217388 0 5.9124237-2.3918305 11.6585767-6.7343598 16.1796196z" fill-rule="nonzero"/><path d="m50.0821918 50h-24.1643836c-1.0592895 0-1.9178082.8953124-1.9178082 2s.8585187 2 1.9178082 2h24.1643836c1.0592895 0 1.9178082-.8953124 1.9178082-2s-.8585187-2-1.9178082-2z"/><path d="m50.0107527 62h-33.0215054c-1.0987484 0-1.9892473.8953124-1.9892473 2s.8904989 2 1.9892473 2h33.0215054c1.0987484 0 1.9892473-.8953124 1.9892473-2s-.8904989-2-1.9892473-2z"/><path d="m80.0821918 19h-24.1643836c-1.0592895 0-1.9178082.8953124-1.9178082 2s.8585187 2 1.9178082 2h24.1643836c1.0592895 0 1.9178082-.8953124 1.9178082-2s-.8585187-2-1.9178082-2z"/></g></svg>